<?xml version="1.0" encoding="UTF-8"?>
<svg width="206px" height="48px" viewBox="0 0 206 48" version="1.1" xmlns="http://www.w3.org/2000/svg" xmlns:xlink="http://www.w3.org/1999/xlink">
    <!-- Generator: Sketch 51 (57462) - http://www.bohemiancoding.com/sketch -->
    <title>ABC-full</title>
    <desc>Created with Sketch.</desc>
    <defs></defs>
    <g id="ABC-full" stroke="none" stroke-width="1" fill="none" fill-rule="evenodd">
        <rect id="@bound" x="0" y="0" width="206" height="48"></rect>
        <path d="M37.5352327,7.33729372 C37.5352327,9.12495045 37.5181738,10.8957425 37.5181738,12.6665345 C37.5181738,14.3024091 37.7228795,16.1069305 37.501115,17.7259403 C37.3646446,18.7715509 34.8570004,18.0969634 34.1405306,18.3162043 C33.3899433,18.55231 33.6970017,19.9689436 33.6970017,20.5254782 L33.6970017,23.9658742 C34.0040602,23.3418808 34.9081768,23.544257 35.4711174,23.544257 C36.4264104,23.544257 37.5693503,23.7129039 38.5075845,23.5273923 C38.899937,23.4430689 39.070525,23.1226399 39.070525,22.7516168 C38.9511134,22.6504287 39.070525,21.5710888 39.070525,21.3855772 L39.070525,19.2606268 L39.070525,11.6377887 C43.8811078,13.8470625 47.0199277,18.7546862 47.0199277,23.9827389 C47.0199277,30.6442899 41.8852277,36.5300653 35.1811177,37.4238937 L35.1811177,33.3426396 L35.1811177,31.335742 L35.1811177,30.3575902 C35.1811177,30.2226727 35.1470001,30.0034318 35.1811177,29.8685143 C35.2664117,29.56495 35.1299413,29.7167321 35.3858233,29.6324087 C35.8122934,29.4806265 39.5652303,30.0877552 39.0875838,28.8734978 C38.8828782,28.5530688 39.0875838,27.574917 39.0875838,27.1870292 L39.0875838,23.6117158 C39.1387602,24.5561382 37.9787616,24.3368973 37.3646446,24.3368973 C36.4264104,24.3368973 35.3858233,24.2019798 34.4475891,24.3368973 C33.4752373,24.3368973 33.7140605,25.5680194 33.7140605,26.1751481 L33.7140605,29.5986793 C33.5605313,29.5986793 33.2534728,29.6324087 33.0999436,29.5818146 C32.8952379,29.4806265 32.9293555,29.5312206 32.9293555,29.2276562 L32.9293555,28.3000985 L32.9293555,26.5293065 C32.9293555,26.0233659 33.0317084,25.3993725 32.9122967,24.8934319 C32.7587675,24.0670623 31.4281808,24.3368973 30.8652403,24.3368973 C29.9781824,24.3368973 28.886419,24.5224088 28.01642,24.3200326 C27.6923027,24.2357092 27.5387735,23.9827389 27.5558323,23.6454451 L27.5558323,27.6592404 C27.5558323,28.0977223 27.4705382,28.6036628 27.5728911,29.02528 C27.7093615,29.8010556 28.7840662,29.5986793 29.3470067,29.5986793 L31.1552399,29.5986793 C31.5305336,29.5986793 31.3940632,29.935973 31.3940632,30.2732668 L31.3940632,37.3901643 C24.6899532,36.4963359 19.5552531,30.6274252 19.5552531,23.9490095 C19.5552531,18.7040921 22.7281907,13.7964685 27.5387735,11.6040593 L27.5387735,22.7347521 C27.5899499,23.1900986 27.7946555,23.4262042 28.272302,23.493663 L30.541123,23.493663 C31.1893575,23.493663 32.5711207,23.1732339 32.9293555,23.9152801 L32.9293555,20.0195376 C32.9293555,19.1763033 33.1170024,18.2993397 32.0593565,18.2318809 C31.4622984,18.1981515 30.8481815,18.2318809 30.2340645,18.2318809 C29.057007,18.2318809 29.1081834,17.7090757 29.1081834,16.6297357 L29.1081834,7.28669966 C21.0734867,9.27673262 15.4611402,16.882706 16.0411395,25.0620788 C16.7234917,34.8098673 25.8670107,42.1628704 35.6587642,40.8474249 C44.4952247,39.6668969 51.0969819,31.6899004 50.5852178,22.903399 C50.1246301,15.5841252 44.7681656,9.15867982 37.5352327,7.33729372 Z M75.5934246,12.9195048 L74.7575432,12.4135642 C74.3993083,12.1943233 74.160485,12.0931352 74.0069558,12.1099999 C73.8534265,12.1268646 73.6828385,12.2786467 73.461074,12.5653464 C73.2563684,12.8520461 73.0004863,13.1724751 72.7104867,13.5434982 L69.2134318,13.5434982 L69.196373,10.6596369 L69.6399019,10.3560725 C69.7934312,10.2380197 69.895784,10.1199669 69.9299016,10.0019141 C69.981078,9.88386132 69.9469604,9.74894383 69.8616664,9.59716165 C69.7763724,9.44537948 69.2475494,9.27673262 68.2751976,9.0574917 C67.3028458,8.83825078 66.756964,8.73706266 66.6204936,8.72019798 C66.3475527,8.70333329 66.1940235,8.73706267 66.1087295,8.80452141 C66.0234355,8.87198015 65.9893179,9.04062702 66.0063767,9.29359731 L66.1599059,11.5366006 L66.1599059,13.5266335 L63.0210859,13.5266335 L60.3940301,12.1774586 C60.0699128,12.0088118 59.8481484,11.941353 59.7628544,11.9750824 C59.6605015,12.0088118 59.5922663,12.0594058 59.5410899,12.1268646 L59.6434427,13.7290097 L59.6434427,18.7378215 L59.5240311,20.8121779 C59.5240311,20.9976894 59.5581487,21.1494716 59.6263839,21.2675244 C59.711678,21.3855772 60.0869716,21.4361713 60.7693238,21.4024419 C61.451676,21.3687125 61.9293225,21.233795 62.1852045,20.9976894 C62.4410866,20.7615838 62.577557,20.5254782 62.577557,20.323102 L62.577557,19.3112208 L66.1599059,19.3112208 L66.1769647,22.9202636 L65.9893179,26.0908246 C66.0234355,26.2763362 66.0746119,26.4281183 66.1769647,26.5461711 C66.2793175,26.6810886 66.5351996,26.7485474 66.9616697,26.7822768 C67.4222574,26.8328708 67.8487275,26.7822768 68.2240212,26.664224 C68.6163737,26.5461711 68.8722557,26.4112537 69.0087262,26.2594715 C69.1451966,26.1076893 69.2475494,25.9559071 69.3157847,25.7703956 L69.1793142,23.0551811 L69.1793142,19.3280855 L73.0004863,19.3280855 L73.0004863,20.2556432 C73.0004863,20.6603957 73.0346039,20.913366 73.119898,21.0482835 C73.205192,21.183201 73.4098976,21.2675244 73.7510737,21.3012538 C73.989897,21.3349832 74.3481319,21.3012538 74.8257784,21.2000657 C75.3034249,21.0988775 75.6275422,20.9808247 75.7640126,20.8627719 C75.900483,20.7447191 76.0198947,20.592937 76.0881299,20.4242901 L75.9687182,18.5017159 L75.9687182,15.0275906 L76.4634236,14.5553794 C76.7022468,14.3361384 76.8216584,14.1674916 76.8216584,14.0325741 C76.8387173,13.7964685 76.429306,13.4254454 75.5934246,12.9195048 Z M66.1428471,18.8221449 L62.577557,18.8221449 L62.577557,14.0663035 L66.1428471,14.0494388 L66.1428471,18.8221449 Z M72.9834275,18.8221449 L69.1793142,18.8221449 L69.1793142,14.0494388 L72.9834275,14.0494388 L72.9834275,18.8221449 Z M88.4557628,21.6048181 L88.438704,17.101947 L87.0398821,17.101947 L85.8798834,17.152541 L85.3340017,16.4779536 L86.7328236,16.5960064 L88.4216452,16.6128711 L88.4216452,13.3748513 L86.8351764,13.3748513 L85.6751778,13.4760394 L85.129296,12.7845873 L86.6304708,12.8857754 L91.9187001,12.8857754 C92.2598761,12.3629702 92.5157582,12.0088118 92.6863462,11.8233002 C92.8398755,11.620924 92.9763459,11.5197359 93.0786987,11.5028712 C93.1810516,11.4860065 93.3345808,11.5534652 93.5392864,11.6883827 C94.1534034,12.1268646 94.5798735,12.481023 94.8186968,12.7339933 C95.05752,12.9869636 95.142814,13.1556104 95.1086964,13.2399338 C95.05752,13.341122 94.9381084,13.3748513 94.7334027,13.3748513 L91.2192891,13.3579866 C91.1169363,13.5434982 90.9975246,13.6784157 90.8610542,13.7964685 L90.8439954,16.5960064 L91.8504648,16.5960064 C92.4134054,15.9045542 92.7716403,15.5335311 92.9251695,15.4998018 C93.0786987,15.4660724 93.3004632,15.5503958 93.5563453,15.7359074 C94.2557562,16.2755773 94.6481087,16.5960064 94.7334027,16.7140592 C94.8186967,16.832112 94.8528144,16.9164354 94.8186968,17.0007588 C94.7845791,17.0850823 94.6992851,17.1188116 94.5628147,17.1188116 L90.8610542,17.1356763 L90.8610542,21.5879534 L92.3963466,21.5879534 C92.5669346,21.3855772 92.7545815,21.1663363 92.9422283,20.8965013 C93.146934,20.643531 93.2834044,20.4748842 93.3686984,20.373696 C93.4539924,20.2893726 93.5392864,20.2387786 93.6075217,20.2219139 C93.6928157,20.2050492 93.8122273,20.2725079 93.9998742,20.3905607 C94.3239914,20.643531 94.6310499,20.913366 94.9210496,21.2000657 C95.2110492,21.4867653 95.3475197,21.6891416 95.3475197,21.773465 C95.3475197,21.8915178 95.2963433,21.9589765 95.228108,22.0095706 C95.142814,22.0601647 94.9892848,22.0770293 94.7504615,22.0770293 L86.6475296,22.0770293 L85.5045897,22.1276234 L84.958708,21.453036 L86.3575299,21.5710888 L88.4557628,21.6048181 Z M91.3557595,17.3380526 L91.7139944,17.3717819 C92.703405,17.4392407 93.3686984,17.6584816 93.6928157,17.9789106 C94.0339918,18.2993397 94.2045798,18.602904 94.2386974,18.8896037 C94.272815,19.1763033 94.2216386,19.4124089 94.1192858,19.5979205 C93.8975213,19.9689436 93.5734041,20.1544551 93.1810516,20.1713198 C92.7716403,20.1713198 92.4816406,20.1207258 92.3110526,19.9858083 C92.1404645,19.8677555 92.0381117,19.732838 92.0039941,19.6147852 C91.9698765,19.4967324 91.9187001,19.2437621 91.8504648,18.8896037 C91.7822296,18.5354453 91.6457592,18.2487456 91.4410535,18.0463694 L91.0998775,17.7596697 C91.0145834,17.6753463 90.963407,17.5741582 90.9804658,17.47297 C90.9804658,17.3717819 91.1169363,17.3211879 91.3557595,17.3380526 Z M98.9469273,10.7439603 C98.9469273,10.6259075 98.7422217,10.4066666 98.3328104,10.0862376 C97.9233991,9.76580851 97.411635,9.44537948 96.7804592,9.1755445 C96.5586948,9.07435639 96.3881067,9.04062702 96.2686951,9.07435639 C96.1492835,9.10808576 96.012813,9.20927387 95.842225,9.42851479 C95.671637,9.63089103 95.4669313,9.91759069 95.1939904,10.2548844 L85.129296,10.2548844 L82.8775339,9.15867982 C82.5534166,9.00689764 82.348711,8.9394389 82.2804758,8.97316827 C82.2122405,9.00689764 82.1610641,9.0574917 82.1098877,9.12495045 L82.2292993,11.8738943 L82.2463581,22.9708577 L82.1269465,25.8378543 C82.1781229,25.9727718 82.2292993,26.0739599 82.3145934,26.1414187 C82.3828286,26.2088774 82.5534166,26.2426068 82.7922399,26.2594715 C83.6963565,26.3437949 84.2763558,26.2763362 84.5322379,26.0570953 C84.7710611,25.854719 84.9075316,25.6523428 84.9075316,25.4836959 L84.9075316,24.404356 L95.4498725,24.404356 L95.4328137,25.4499666 C95.4328137,25.7535309 95.4839901,25.9727718 95.6034017,26.1076893 C95.7228134,26.2426068 95.9786954,26.3100655 96.3710479,26.3606596 C96.7634004,26.394389 97.1386941,26.3606596 97.5310466,26.2257421 C97.9063403,26.1076893 98.1451635,25.9727718 98.2475164,25.854719 C98.3498692,25.7366662 98.4181044,25.53429 98.4692808,25.2813197 L98.366928,22.8696696 L98.3839868,11.4522771 C98.7592805,11.1149834 98.9469273,10.8788778 98.9469273,10.7439603 Z M95.4669313,23.9152801 L84.9075316,23.8984154 L84.9245904,10.7776897 L95.4669313,10.7776897 L95.4669313,23.9152801 Z M113.975734,12.8689108 C114.009851,13.121881 114.095145,13.4929041 114.214557,13.9988447 C114.333969,14.5047853 114.504557,15.0444553 114.692204,15.6515839 C114.87985,16.2587126 115.272203,17.0682176 115.835143,18.0969634 C116.671025,17.101947 117.216907,16.3767655 117.472789,15.8876896 L117.694553,15.4829371 C117.8822,15.1287787 118.035729,14.9432671 118.138082,14.9264025 C118.240435,14.9095378 118.376905,14.9264025 118.530434,14.9938612 C118.632787,15.0444553 118.803375,15.1793727 119.042199,15.381749 C119.263963,15.5841252 119.553963,15.8033661 119.912198,16.022607 C120.270432,16.241848 120.526315,16.4610889 120.713961,16.6803298 C120.901608,16.8995707 120.952785,17.0513529 120.901608,17.152541 C120.816314,17.2874585 120.458079,17.3549172 119.809845,17.3380526 C118.428082,17.8777225 117.268083,18.3162043 116.295731,18.6534981 C116.517496,18.9907918 116.790436,19.3786796 117.131612,19.8171614 C117.472789,20.2556432 118.035729,20.7615838 118.837493,21.3518478 C119.639257,21.9252472 120.389844,22.3468643 121.089255,22.5998346 L121.635137,22.8022108 L122.249254,22.9202636 C122.351607,22.9877224 122.402783,23.0720458 122.419842,23.1732339 C122.436901,23.2744221 122.402783,23.3587455 122.317489,23.3924749 C122.232195,23.4430689 122.078666,23.5105277 121.805725,23.5779864 L121.379255,23.7129039 C121.15749,23.7972273 121.003961,23.8646861 120.901608,23.9152801 C120.782197,23.9827389 120.645726,24.083927 120.458079,24.2525738 C120.270432,24.4212207 120.116903,24.5561382 120.031609,24.6910557 C119.929256,24.8091085 119.843962,25.0114847 119.74161,25.264455 C119.639257,25.5174253 119.553963,25.6692075 119.485727,25.6860722 C119.400433,25.7029368 119.263963,25.6354781 119.042199,25.4836959 L118.530434,25.1464022 C118.30867,24.99462 118.01867,24.7585144 117.643377,24.4380854 C117.285142,24.1176564 116.961024,23.814092 116.688084,23.493663 C116.415143,23.1732339 116.039849,22.6672934 115.613379,21.9758412 C115.186909,21.2843891 114.794556,20.4411548 114.45338,19.463003 C114.129263,18.5017159 113.89044,17.5910228 113.753969,16.7309239 C113.617499,15.8708249 113.532205,15.1962374 113.498087,14.7071615 C113.46397,14.2180856 113.429852,13.7796038 113.395734,13.4085807 C113.31044,13.661551 113.208088,13.931386 113.071617,14.251815 C112.935147,14.572244 112.508677,15.3480196 111.775148,16.562277 C112.167501,16.7646532 112.389265,16.9333001 112.389265,17.101947 C112.406324,17.2705938 112.167501,17.4561054 111.706913,17.7090757 L111.706913,22.8359402 C112.167501,22.5998346 113.020441,22.1950821 114.265733,21.5879534 L114.589851,21.4193066 C114.828674,21.3012538 114.999262,21.2843891 115.118674,21.3687125 C115.238085,21.453036 115.272203,21.5542241 115.238085,21.6722769 C115.203968,21.7903297 115.152791,21.8915178 115.067497,21.9589765 L114.87985,22.1276234 L111.280443,25.584884 L110.32515,26.5124418 C110.120444,26.664224 109.966915,26.714818 109.864562,26.6810886 C109.779268,26.6642239 109.676915,26.5461711 109.540445,26.3100655 L109.028681,25.4668312 C108.89221,25.2307256 108.772798,24.9777553 108.653387,24.6910557 C108.533975,24.404356 108.482799,24.2188445 108.499858,24.1513857 C108.516916,24.0333329 108.60221,23.9152801 108.75574,23.814092 C108.909269,23.7129039 108.994563,23.6454451 108.994563,23.5948511 L108.994563,19.8677555 C107.971035,20.6603957 107.049859,21.3181185 106.213978,21.824059 C105.378096,22.3299996 104.849274,22.6504287 104.61045,22.7684815 L104.235157,22.9708577 C104.115745,23.0383164 103.996333,23.0720458 103.859863,23.0551811 C103.723392,23.0551811 103.603981,23.0045871 103.484569,22.903399 C103.365158,22.8022108 103.518687,22.5998346 103.911039,22.2794056 L104.218098,22.0433 C104.491039,21.8409237 104.746921,21.6385475 104.968685,21.453036 C105.207508,21.2675244 105.702214,20.7278545 106.486919,19.8508908 C107.271624,18.9739271 107.851623,18.2656103 108.226917,17.742805 C108.60221,17.2199998 109.011622,16.5454123 109.455151,15.7190427 C109.89868,14.8926731 110.188679,14.2855444 110.308091,13.9145213 L110.700443,12.8520461 L107.868682,12.8351814 C107.919858,13.1556104 107.953976,13.4760395 107.988094,13.7964685 C108.005152,14.1337622 107.919858,14.5047853 107.698094,14.9095378 C107.476329,15.3142902 107.083977,15.6009899 106.486919,15.7696368 C105.906919,15.9382836 105.446332,15.8370955 105.122214,15.4829371 C104.798097,15.1456434 104.644568,14.791485 104.644568,14.4373266 C104.644568,14.0663035 104.815156,13.7290097 105.122214,13.4254454 L105.941037,12.7339933 C106.094566,12.5484817 106.231037,12.3123761 106.33339,11.9919471 L106.418684,11.7389768 L106.452801,11.1655775 C106.486919,11.0643893 106.538095,10.9969306 106.640448,10.9463365 C106.742801,10.8957425 106.862212,10.9294719 106.998683,11.0475247 C107.0328,11.081254 107.101036,11.1655775 107.18633,11.3004949 L107.442212,11.7052474 L107.646917,12.1605939 L107.732211,12.3292408 L110.88809,12.3292408 C110.956325,12.1099999 111.024561,11.8570296 111.092796,11.5871946 C111.161031,11.3173596 111.263384,10.7776897 111.365737,9.98504943 L111.451031,9.31046199 C111.485148,8.97316827 111.536325,8.77079204 111.587501,8.73706267 C111.638678,8.70333329 111.843383,8.72019798 112.201618,8.80452141 C112.269853,8.83825078 112.645147,8.90570953 113.327499,9.02376233 C114.009851,9.14181513 114.521615,9.29359731 114.845733,9.46224417 C115.186909,9.61402634 115.340438,9.7826732 115.323379,9.93445538 C115.30632,10.0525082 115.084556,10.2717491 114.658086,10.5921781 C114.351027,11.3004949 114.095145,11.8738943 113.873381,12.3461055 L117.199848,12.3461055 C117.609259,11.8401649 117.899259,11.5197359 118.035729,11.4016831 C118.1722,11.2836303 118.30867,11.1993068 118.44514,11.1824421 C118.564552,11.1655775 118.769258,11.2499009 119.059257,11.4354124 C120.01455,12.1099999 120.611609,12.5653464 120.833373,12.7845873 C121.055137,13.0038282 121.15749,13.2230692 121.15749,13.4085807 C121.140431,13.7796038 120.884549,13.9988447 120.389844,14.0325741 L119.519845,13.9988447 C118.803375,13.9988447 118.138082,14.2349503 117.541024,14.7408909 L117.02926,15.1625081 C116.756319,15.3986137 116.568672,15.4660724 116.466319,15.381749 C116.363966,15.2974255 116.363966,15.1456434 116.44926,14.9432671 L116.688084,14.3867325 C116.790436,14.1337622 116.995142,13.6278216 117.285142,12.8689108 L113.975734,12.8689108 Z M125.899838,25.3150491 L127.29866,25.4331019 L131.904537,25.4331019 L131.904537,11.9244883 L131.751008,9.25986793 C131.785125,9.20927387 131.819243,9.15867982 131.85336,9.12495045 C131.904537,9.09122107 132.041007,9.10808576 132.279831,9.1755445 L133.183947,9.34419136 L134.122181,9.58029697 C134.85571,9.74894383 135.231004,9.95132006 135.28218,10.1874257 C135.316298,10.3898019 135.094533,10.6765016 134.616887,11.0137953 L134.633945,25.4499666 L135.828062,25.4499666 L135.828062,11.8738943 L135.674533,9.24300325 C135.742768,9.12495044 135.913356,9.0574917 136.186297,9.09122107 C136.732178,9.15867982 137.380413,9.29359731 138.131,9.49597354 C138.881588,9.69834977 139.27394,9.91759069 139.325117,10.1368316 C139.359234,10.3898019 139.103352,10.6596369 138.540412,10.9632012 L138.55747,21.6891416 C138.813352,21.0651482 139.069235,20.3568314 139.342175,19.5473264 C139.615116,18.7546862 139.819822,18.0969634 139.973351,17.5572935 C140.12688,17.0176235 140.28041,16.4273595 140.433939,15.7865014 C140.587468,15.1287787 140.70688,14.6228381 140.775115,14.2855444 L140.911585,13.5772276 L140.996879,13.0375576 C141.116291,12.8857754 141.372173,12.9195048 141.764526,13.1387457 L142.770995,13.5940923 L143.896876,14.2180856 C144.562169,14.5891087 144.83511,14.9095378 144.732757,15.1793727 C144.681581,15.3142902 144.425699,15.4829371 143.98217,15.6515839 C143.675112,16.2081186 143.333936,16.7646532 143.009818,17.3380526 C142.668642,17.8945872 142.225113,18.5691746 141.645114,19.3618149 C141.082173,20.1544551 140.058645,21.5204947 138.574529,23.4599336 L138.574529,25.4499666 L140.348645,25.4499666 C140.860409,24.8428379 141.26982,24.3368973 141.55982,23.9490095 C141.84982,23.5611217 142.088643,23.3418808 142.27629,23.3250161 C142.463937,23.3081514 142.719819,23.4093395 143.060995,23.6285805 C143.299818,23.814092 143.572759,24.0164682 143.862758,24.2694385 L144.562169,24.9102966 C144.818052,25.1464022 144.954522,25.3825078 144.971581,25.6186134 C144.98864,25.854719 144.749816,25.9727718 144.255111,25.9727718 L127.759247,25.9727718 L126.513955,26.0233659 L125.899838,25.3150491 Z M127.469248,14.3530031 C127.520424,14.4541912 127.622777,14.7071615 127.759247,15.111914 C127.912777,15.5166665 128.015129,15.8202308 128.066306,16.0057424 C128.117482,16.1912539 128.185718,16.4948183 128.253953,16.9164354 C128.356306,17.5235641 128.407482,18.0295047 128.390423,18.4511218 C128.390423,18.872739 128.339247,19.3786796 128.236894,19.9858083 C128.134541,20.592937 128.117482,21.0820129 128.168659,21.4193066 C128.219835,21.773465 128.390423,22.093894 128.697482,22.363729 C129.00454,22.633564 129.396893,22.7684815 129.874539,22.7178874 C130.335127,22.684158 130.744538,22.4480524 131.085714,22.0264353 C131.42689,21.6048181 131.614537,21.1157422 131.665714,20.5254782 C131.733949,19.5810558 131.512184,18.6703628 131.017479,17.7596697 C130.522774,16.8489767 130.096304,16.1575245 129.738069,15.702178 C129.379834,15.2299668 128.919246,14.6734322 128.322188,14.0157094 L127.929835,13.5940923 C127.776306,13.4423101 127.656895,13.341122 127.571601,13.2905279 C127.486307,13.2399338 127.383954,13.2399338 127.264542,13.2736632 C127.14513,13.3242573 127.093954,13.4085807 127.111013,13.5266335 C127.111013,13.661551 127.14513,13.7796038 127.213366,13.8639272 L127.469248,14.3530031 Z M167.710967,24.2019798 C167.693908,24.0670623 167.608614,23.9658742 167.438026,23.8984154 L166.892144,23.6791745 C165.834498,23.2575574 165.083911,22.8022108 164.640382,22.3468643 C164.196853,21.8915178 163.838618,21.4699006 163.53156,21.0988776 C164.435676,20.7278545 165.049793,20.4242901 165.339793,20.2219139 C165.629792,20.002673 165.902733,19.8171614 166.124498,19.6316499 C166.789791,19.5304617 167.130967,19.3955443 167.148026,19.2100327 C167.165085,19.1088446 167.079791,18.9907918 166.926262,18.8390096 C166.755674,18.7040921 166.499791,18.55231 166.158615,18.4005278 C165.817439,18.2487456 165.493322,18.1138281 165.220381,17.9957753 C164.94744,17.8608578 164.725676,17.8102638 164.589205,17.8271285 C164.486853,17.8439931 164.418617,17.8608578 164.3845,17.9114519 L164.299206,18.1644222 L164.179794,18.5017159 C164.128618,18.6197687 164.009206,18.8390096 163.838618,19.142574 C163.66803,19.463003 163.514501,19.6822439 163.395089,19.8171614 C163.275678,19.9520789 163.156266,20.0869964 163.019795,20.2219139 L162.508031,19.1763033 C162.422737,19.0245212 162.23509,18.3499337 161.96215,17.1356763 L161.96215,17.1188116 L163.156266,17.1188116 L163.156266,17.3043232 C163.156266,17.5404288 163.37803,17.692211 163.787442,17.742805 C163.992147,17.7765344 164.248029,17.7765344 164.589205,17.742805 C164.930382,17.7259403 165.186264,17.6584816 165.356852,17.5572935 C165.52744,17.4561054 165.66391,17.3043232 165.766263,17.0850823 L165.680969,15.0781846 L165.680969,11.4354124 C166.09038,11.081254 166.278027,10.8282837 166.260968,10.6933662 C166.243909,10.6090428 166.141557,10.49099 165.95391,10.3392078 C165.766263,10.1874257 165.322734,9.90072601 164.623323,9.47910885 C164.299206,9.29359731 164.077441,9.20927388 163.923912,9.22613856 C163.770383,9.24300325 163.616854,9.37792074 163.429207,9.63089103 C163.24156,9.86699663 163.070972,10.1031022 162.900384,10.3223432 L159.727446,10.3223432 L158.004507,9.47910885 C157.509802,9.24300325 157.219802,9.14181513 157.151567,9.1755445 C157.083332,9.20927388 157.015096,9.25986794 156.980979,9.31046199 L157.066273,11.351089 L157.066273,18.1475575 C156.912744,17.9114519 156.639803,17.6247522 156.281568,17.3043232 C155.923333,16.9670295 155.667451,16.8152473 155.548039,16.832112 C155.411569,16.8489767 155.309216,16.9164354 155.206863,17.0176235 C155.10451,17.1188116 154.985099,17.2537291 154.848628,17.422376 C154.712158,17.5910228 154.507452,17.7933991 154.268629,18.0632341 L153.961571,18.0632341 L153.961571,16.0563364 C154.098041,15.9551483 154.234511,15.8370955 154.336864,15.6853133 L156.213333,15.6853133 C156.418038,15.6853133 156.53745,15.6347193 156.571568,15.5335311 C156.622744,15.432343 156.588626,15.2974255 156.486274,15.1456434 C156.383921,14.9938612 156.162156,14.7577556 155.838039,14.4541912 C155.513922,14.1506269 155.292157,13.9988447 155.172746,13.98198 C155.019216,13.98198 154.899805,14.0325741 154.763334,14.1506269 C154.626864,14.2686797 154.490393,14.4035972 154.353923,14.5891087 C154.200394,14.7577556 154.046865,14.9601318 153.859218,15.1625081 L151.419809,15.1625081 L150.54981,15.1287787 C151.095691,14.4710559 151.641573,13.7458744 152.204514,12.9532342 L156.366862,12.9532342 C156.571568,12.9532342 156.708038,12.9195048 156.759214,12.8351814 C156.810391,12.7677226 156.793332,12.6496698 156.725097,12.481023 C156.639803,12.3292408 156.332744,11.9919471 155.803921,11.4860065 C155.565098,11.2667656 155.39451,11.1655775 155.275098,11.1824421 C155.155687,11.1993068 155.019216,11.3173596 154.83157,11.5028712 C154.660981,11.7052474 154.388041,12.0088118 154.029806,12.4472936 L152.579807,12.4472936 C152.818631,12.0931352 153.176866,11.4691418 153.671571,10.5753134 C154.149217,10.4235313 154.405099,10.2548844 154.405099,10.1031022 C154.405099,9.85013195 153.842159,9.56343228 152.733337,9.20927388 L151.931573,8.95630358 C151.505103,8.80452141 151.266279,8.8213861 151.180985,8.99003296 L151.129809,9.39478542 L151.027456,9.93445538 C150.959221,10.221155 150.822751,10.7270956 150.618045,11.4522771 C150.413339,12.1774586 150.174516,12.9195048 149.918634,13.661551 C149.662752,14.4035972 149.372752,15.0950493 149.048635,15.7190427 L148.775694,16.2249833 C148.758635,16.3093067 148.758635,16.3936301 148.792753,16.4948183 C148.843929,16.5960064 148.912164,16.6466004 149.014517,16.6128711 C149.11687,16.5791417 149.202164,16.5285476 149.253341,16.4779536 L149.594517,16.1237952 L150.25981,15.4492077 C150.293928,15.4154783 150.345104,15.381749 150.39628,15.3142902 L150.737457,15.7527721 L151.607456,15.6684486 L151.607456,18.0463694 L150.140398,18.0463694 L148.912164,17.9789106 L149.270399,18.602904 L150.39628,18.55231 L151.607456,18.55231 L151.590397,22.8190755 C151.573338,23.0889105 151.505103,23.3081514 151.368632,23.4430689 C151.232162,23.5948511 151.163927,23.6623098 151.163927,23.6623098 C151.11275,23.7634979 151.11275,23.8984154 151.163927,24.0670623 C151.215103,24.2357092 151.351573,24.5392735 151.607456,24.99462 C151.846279,25.4331019 152.050984,25.7703956 152.204514,25.9727718 C152.358043,26.1751481 152.477455,26.2932009 152.596866,26.3100655 C152.68216,26.3437949 152.750395,26.3437949 152.801572,26.3100655 C152.852748,26.2763362 152.920983,26.1751481 153.040395,26.0233659 L153.364512,25.5680194 C153.808041,24.9271613 154.183335,24.4380854 154.473335,24.0670623 C154.763334,23.6960392 155.411569,22.9708577 156.452156,21.8746531 L156.878626,21.4361713 C156.96392,21.3518478 156.998038,21.2506597 156.998038,21.1494716 C156.998038,21.0314188 156.929802,20.9808247 156.82745,20.9639601 C156.725097,20.9470954 156.639803,20.9470954 156.588626,20.9808247 L155.923333,21.3181185 L154.814511,21.8577884 C154.626864,21.9589765 154.336864,22.1107587 153.978629,22.2962703 L153.978629,18.5354453 L156.486274,18.5354453 C156.708038,18.5354453 156.895685,18.5017159 157.049214,18.4173925 L157.032155,22.8865343 C157.015096,23.1563693 156.998038,23.3250161 156.946861,23.4093395 C156.912744,23.493663 156.844508,23.5948511 156.742156,23.6960392 C156.656862,23.7972273 156.605685,23.8815508 156.588626,23.9321448 C156.53745,24.1007917 156.708038,24.4886794 157.066273,25.1126728 L157.782743,26.2426068 C157.919213,26.4618477 158.038625,26.5630358 158.140977,26.5799005 C158.209213,26.5967652 158.277448,26.5967652 158.311566,26.5630358 C158.362742,26.5293065 158.430977,26.444983 158.550389,26.3269302 L158.925682,25.9053131 L159.625093,25.1632669 L160.495092,24.2188445 L161.313915,23.3756102 C161.450385,23.223828 161.638032,23.0045871 161.910973,22.7010227 C161.928032,22.7516168 161.979208,22.8865343 162.064502,23.0720458 C162.132738,23.2575574 162.38862,23.6623098 162.81509,24.3031679 C163.224501,24.9271613 163.719206,25.4499666 164.248029,25.854719 L164.589205,26.1076893 C164.708617,26.1920127 164.793911,26.2426068 164.862146,26.2763362 C164.998617,26.3437949 165.118028,26.3606596 165.186264,26.3269302 C165.254499,26.2932009 165.390969,26.0908246 165.561557,25.7366662 C165.749204,25.3825078 165.970969,25.1126728 166.243909,24.9271613 C166.533909,24.7416497 166.738615,24.6235969 166.875085,24.5898676 L167.420967,24.4549501 C167.625673,24.404356 167.728025,24.3200326 167.710967,24.2019798 Z M159.454505,10.8114191 L163.156266,10.8114191 L163.156266,13.3748513 L159.454505,13.3748513 L159.454505,10.8114191 Z M159.471564,22.8865343 L159.454505,17.1356763 L160.836269,17.1356763 L160.921563,17.8439931 C160.989798,18.6872274 161.040974,19.2774915 161.092151,19.5979205 C161.126268,19.9183495 161.211562,20.323102 161.330974,20.7953132 C161.433327,21.2675244 161.569797,21.7397356 161.689209,22.2119468 C161.092151,22.3974584 160.358622,22.6166993 159.471564,22.8865343 Z M159.454505,16.6297357 L159.454505,13.8976566 L163.156266,13.8976566 L163.156266,16.6297357 L159.454505,16.6297357 Z M178.236249,15.3480196 L179.36213,15.4492077 L186.20271,15.4492077 C186.424475,15.1287787 186.714474,14.7577556 187.072709,14.3024091 C187.430944,13.8470625 187.720944,13.6278216 187.942708,13.6446863 C188.147414,13.661551 188.556825,13.98198 189.170942,14.572244 C189.785059,15.1793727 190.058,15.5672605 189.989765,15.7190427 C189.92153,15.8876896 189.802118,15.9551483 189.63153,15.9551483 L186.970356,15.9382836 C186.765651,16.1743892 186.62918,16.3261714 186.578004,16.3767655 L186.578004,24.6404616 C186.578004,25.0283494 186.49271,25.3487784 186.339181,25.6354781 C186.185651,25.9053131 185.690946,26.1414187 184.838006,26.2932009 C184.002124,26.4618477 183.439184,26.5293065 183.149184,26.4787124 C182.995655,26.4618477 182.893302,26.4281183 182.825067,26.3606596 C182.773891,26.3100655 182.739773,26.1920127 182.722714,26.0065012 L182.688597,25.4331019 C182.654479,25.2307256 182.569185,25.0452141 182.432715,24.8934319 C182.313303,24.7416497 182.159774,24.6404616 181.989186,24.6067323 L181.443304,24.4886794 C181.136245,24.4380854 180.948599,24.3706266 180.846246,24.3200326 C180.743893,24.2694385 180.709775,24.1851151 180.709775,24.0501976 C180.709775,23.9152801 180.778011,23.8309567 180.914481,23.7803626 C181.050951,23.7466333 181.255657,23.7297686 181.528598,23.7466333 L181.886833,23.7803626 C181.972127,23.7972273 182.279185,23.814092 182.825067,23.8815507 C183.370949,23.9321448 183.678007,23.8646861 183.763301,23.6960392 C183.848595,23.5105277 183.882713,23.3081514 183.899772,23.0720458 L183.91683,15.9382836 L179.652129,15.9382836 L178.50919,15.9888777 L177.980367,15.3480196 C177.878014,15.432343 177.809779,15.4829371 177.775661,15.5166665 L176.837427,16.4273595 L176.752133,16.5116829 C176.905662,16.5960064 177.07625,16.6971945 177.246838,16.7983826 C177.434485,16.8995707 177.519779,17.0176235 177.536838,17.1188116 C177.553897,17.2368644 177.400367,17.4392407 177.093309,17.7259403 L177.093309,23.9321448 L177.195662,25.7366662 C177.144485,25.9390425 177.025074,26.1076893 176.854486,26.2763362 C176.666839,26.444983 176.308604,26.5461711 175.728605,26.5799005 C175.165664,26.6136299 174.824488,26.5967652 174.705076,26.5124418 C174.585665,26.444983 174.500371,26.3437949 174.449194,26.2257421 L174.551547,24.0670623 L174.551547,18.5017159 C174.176253,18.7884156 173.545078,19.2100327 172.692137,19.7665674 L172.112138,20.1375904 C171.80508,20.323102 171.617433,20.3905607 171.549198,20.3062373 C171.463903,20.2219139 171.429786,20.1375904 171.429786,20.053267 C171.429786,19.9689436 171.480962,19.8677555 171.583315,19.7665674 L171.958609,19.3618149 C172.487432,18.8052802 173.050372,18.0969634 173.630372,17.2537291 C174.210371,16.4104948 174.602723,15.8033661 174.807429,15.4154783 C175.012135,15.0444553 175.21684,14.6734322 175.404487,14.3024091 L175.762722,13.6109569 L175.916251,13.2905279 C175.967428,13.1893398 176.018604,13.121881 176.103898,13.071287 C176.172133,13.0206929 176.342721,13.0544223 176.581545,13.1724751 C176.700956,13.2399338 177.127426,13.4929041 177.860955,13.9482507 C178.611542,14.4035972 178.93566,14.7577556 178.867424,14.9769965 C178.816248,15.1456434 178.594484,15.2299668 178.236249,15.2636962 L178.236249,15.3480196 Z M177.946249,11.4860065 C178.423896,11.5197359 178.713895,11.4522771 178.78213,11.3173596 C178.833307,11.2330362 178.799189,11.0981187 178.713895,10.9126072 C178.628601,10.7270956 178.304484,10.3729372 177.741543,9.88386132 L177.008015,9.25986793 C176.700956,8.99003295 176.496251,8.87198015 176.393898,8.90570952 C176.291545,8.9394389 176.189192,9.04062701 176.086839,9.19240919 L175.93331,9.46224417 L175.575075,10.0187788 L175.012135,10.9294719 C174.756253,11.3173596 174.415077,11.7895708 174.005665,12.3629702 C173.596254,12.9195048 173.186843,13.391716 172.79449,13.7796038 L172.36802,14.1843563 C172.129197,14.4204619 172.009785,14.572244 171.975668,14.6397028 C171.94155,14.7240262 171.958609,14.791485 172.009785,14.8589437 C172.060962,14.9264025 172.163314,14.9432671 172.282726,14.9264025 C172.402138,14.9095378 172.606843,14.8252143 172.896843,14.6734322 L173.323313,14.4373266 C173.357431,14.4204619 173.613313,14.251815 174.090959,13.9651153 L175.37037,13.2230692 L177.008015,12.1099999 C177.195662,11.9582177 177.519779,11.7558415 177.946249,11.4860065 Z M184.718594,11.0137953 C185.162123,10.3898019 185.520358,9.93445538 185.759181,9.68148509 C185.998005,9.42851479 186.185651,9.2935973 186.339181,9.27673262 C186.49271,9.27673262 186.680357,9.37792074 186.91918,9.58029697 L187.720944,10.3054785 C188.35212,10.8451484 188.608002,11.1993068 188.522708,11.3173596 C188.420355,11.4522771 188.300943,11.5028712 188.164473,11.5028712 L180.658599,11.5028712 L179.515659,11.5534652 L178.969777,10.8788778 L180.368599,10.9969306 L184.718594,11.0137953 Z M60.9399118,38.8405273 L59.012267,38.8405273 L59.012267,38.5706923 C59.4046195,38.5200983 59.6946192,38.2165339 59.8993248,37.676864 L61.4687348,33.966633 L61.8269697,33.966633 L63.6522617,38.1153458 C63.7546145,38.4189101 63.976379,38.587557 64.3175551,38.587557 L64.3175551,38.857392 L61.7757932,38.857392 L61.7757932,38.587557 L62.0487341,38.587557 C62.3387338,38.6044217 62.4752042,38.5200983 62.4581454,38.3345867 C62.4581454,38.3008573 62.4410866,38.2333986 62.4240278,38.1153458 C62.4410866,38.1828045 62.4410866,38.1659398 62.3899102,38.0647517 L62.0316753,37.2721115 L60.4793241,37.2721115 L60.2575597,37.8117814 C60.2063833,37.8961049 60.1722657,38.047887 60.1552069,38.2502633 C60.1722657,38.4695042 60.3087361,38.5706923 60.5646182,38.5706923 L60.922853,38.5706923 L60.9399118,38.8405273 Z M61.8781461,36.867359 L61.2469703,35.3832666 L60.6328534,36.867359 L61.8781461,36.867359 Z M67.2516694,36.8504943 L67.2516694,36.5300653 L69.981078,36.5300653 L69.981078,36.8504943 C69.4351963,36.816765 69.196373,36.9854118 69.2646082,37.3732996 L69.2646082,38.857392 L68.9916674,38.857392 L68.6846089,38.5369629 C68.2751976,38.7730685 67.8146099,38.8911213 67.2687282,38.8911213 C65.8699062,38.7393392 65.0852012,37.9804283 64.9487308,36.597524 C65.0852012,34.9953789 65.9040238,34.1184152 67.4393162,33.966633 C67.7293159,33.966633 68.070492,34.0509564 68.4287268,34.236468 C68.5651973,34.2870621 68.6334325,34.3207914 68.6846089,34.3207914 C68.7187265,34.3207914 68.7699029,34.2701974 68.8551969,34.1858739 L68.940491,34.1015505 L69.2134318,34.1015505 L69.2134318,35.7711544 L68.940491,35.7711544 C68.6504913,34.7761379 68.1728448,34.2701974 67.5075514,34.2870621 C66.67167,34.2870621 66.2622587,35.0122436 66.2622587,36.4457419 C66.2793175,37.8117814 66.6375524,38.5369629 67.3369634,38.6044217 C67.8828451,38.6212864 68.155786,38.3008573 68.1387272,37.6262699 C68.1899036,37.0528706 67.8999039,36.7999003 67.2516694,36.8504943 Z M75.1669545,37.7780521 L75.4398953,37.7780521 C75.4398953,38.5032336 75.0987192,38.8742567 74.4163671,38.8742567 C73.7169561,38.8911213 73.3587212,38.5032336 73.3587212,37.727458 C73.4098976,36.9010884 73.119898,36.5132006 72.505781,36.54693 L72.505781,37.997293 C72.4546046,38.4189101 72.6763691,38.6044217 73.205192,38.5706923 L73.205192,38.8405273 L70.680489,38.8405273 L70.680489,38.5706923 C71.1751943,38.587557 71.4140176,38.4357748 71.3798999,38.0984811 L71.3798999,34.7592733 C71.4140176,34.4388442 71.1922531,34.2701974 70.680489,34.2870621 L70.680489,34.0172271 L73.1710744,34.0172271 C74.3481319,34.0340918 74.94519,34.4557089 74.9622488,35.2989432 C74.94519,36.0409894 74.3651907,36.4288772 73.2393096,36.4457419 L73.2393096,36.4794712 C73.9046029,36.5300653 74.3140142,36.8842237 74.4846023,37.5250818 C74.6551903,38.1322105 74.7916608,38.3851808 74.8940136,38.2839926 C75.0646016,38.317722 75.1498956,38.1490752 75.1669545,37.7780521 Z M72.5228398,34.7761379 L72.5228398,36.277095 C73.3928388,36.2939597 73.8022501,35.9735307 73.7681325,35.3158079 C73.7510737,34.7086792 73.4951917,34.3882502 73.0004863,34.3545208 C72.6763691,34.3545208 72.5228398,34.4894383 72.5228398,34.7761379 Z M78.7834209,38.8405273 L76.2075415,38.8405273 L76.2075415,38.5706923 C76.7022468,38.587557 76.9410701,38.4357748 76.9069525,38.0984811 L76.9069525,34.7592733 C76.9410701,34.4388442 76.7193056,34.2701974 76.2075415,34.2870621 L76.2075415,34.0172271 L78.7834209,34.0172271 L78.7834209,34.2870621 C78.2887156,34.2701974 78.0498923,34.4219795 78.0840099,34.7592733 L78.0840099,38.0984811 C78.0498923,38.4189101 78.2716568,38.587557 78.7834209,38.5706923 L78.7834209,38.8405273 Z M84.1569442,34.0509564 L84.1569442,35.7711544 L83.8840033,35.7711544 C83.5087096,34.7255439 82.9798867,34.236468 82.2804758,34.2701974 C81.4445944,34.2701974 81.0351831,34.9953789 81.0351831,36.4288772 C81.0351831,37.8455108 81.5128296,38.5706923 82.4681226,38.587557 C83.4063568,38.5706923 83.9181209,38.0310224 83.9863562,36.9516825 L84.3104734,36.9516825 C84.2763558,38.2165339 83.5940037,38.8405273 82.2975346,38.857392 C80.694007,38.8067979 79.8410668,37.997293 79.7216551,36.4288772 C79.8922432,34.9110554 80.7110658,34.0846858 82.2122405,33.9329036 C82.6216518,33.9329036 83.0822395,34.0678211 83.5940037,34.3376561 L83.8669445,34.0340918 L84.1569442,34.0340918 L84.1569442,34.0509564 Z M85.129296,34.0340918 L87.6198814,34.0340918 L87.6198814,34.3039267 C87.1081173,34.2870621 86.8692941,34.4388442 86.9034117,34.7761379 L86.9034117,37.6431346 C86.9375293,38.2333986 87.2787053,38.5369629 87.8928223,38.6044217 C88.7116449,38.6044217 89.1039974,38.1996692 89.1039974,37.407029 L89.1039974,34.8604614 C89.1551738,34.556897 88.8992917,34.3713855 88.3363512,34.3207914 L88.3363512,34.0509564 L90.1275256,34.0509564 L90.1275256,34.3207914 C89.6498791,34.3713855 89.4281147,34.556897 89.4622323,34.8604614 L89.4622323,37.3395702 C89.4622323,38.3683161 88.8481153,38.8742567 87.6028226,38.8742567 C86.4087063,38.857392 85.7945894,38.4020454 85.7775306,37.5419465 L85.7775306,34.7761379 C85.8116482,34.4557089 85.5898837,34.2870621 85.1122372,34.3039267 L85.129296,34.0340918 Z M94.7845791,38.8405273 L90.7245838,38.8405273 L90.7245838,38.5706923 C91.2192891,38.587557 91.4581124,38.4357748 91.4239947,38.0984811 L91.4239947,34.7592733 C91.4581123,34.4388442 91.2363479,34.2701974 90.7245838,34.2870621 L90.7245838,34.0172271 L93.3004632,34.0172271 L93.3004632,34.2870621 C92.8057579,34.2701974 92.5669346,34.4219795 92.6010522,34.7592733 L92.6010522,38.0647517 C92.5839934,38.3851808 92.7375227,38.5369629 93.0786987,38.5032336 C93.7781097,38.4526395 94.272815,37.9466989 94.5457559,36.9685471 L94.8528144,36.9685471 L94.7845791,38.8405273 Z M95.6034017,34.0340918 L100.158102,34.0340918 L100.19222,35.7374251 L99.8681028,35.7374251 C99.6463383,34.826732 99.1857506,34.3713855 98.4863396,34.3713855 L98.4863396,38.1153458 C98.452222,38.4357748 98.7081041,38.6044217 99.2539858,38.587557 L99.2539858,38.857392 L96.4904596,38.857392 L96.4904596,38.587557 C97.0875177,38.6044217 97.3433998,38.4526395 97.2922233,38.1153458 L97.2922233,34.3713855 C96.5928124,34.3713855 96.1322247,34.826732 95.9104602,35.7374251 L95.5863429,35.7374251 L95.6034017,34.0340918 Z M100.789278,34.0340918 L103.279864,34.0340918 L103.279864,34.3039267 C102.768099,34.2870621 102.529276,34.4388442 102.563394,34.7761379 L102.563394,37.6431346 C102.597511,38.2333986 102.938687,38.5369629 103.552804,38.6044217 C104.371627,38.6044217 104.76398,38.1996692 104.76398,37.407029 L104.76398,34.8604614 C104.815156,34.556897 104.559274,34.3713855 103.996333,34.3207914 L103.996333,34.0509564 L105.787508,34.0509564 L105.787508,34.3207914 C105.309861,34.3713855 105.088097,34.556897 105.122214,34.8604614 L105.122214,37.3395702 C105.122214,38.3683161 104.508097,38.8742567 103.262805,38.8742567 C102.068688,38.857392 101.454572,38.4020454 101.437513,37.5419465 L101.437513,34.7761379 C101.47163,34.4557089 101.249866,34.2870621 100.772219,34.3039267 L100.789278,34.0340918 Z M110.836914,37.7780521 L111.109855,37.7780521 C111.109855,38.5032336 110.768679,38.8742567 110.086326,38.8742567 C109.386915,38.8911213 109.028681,38.5032336 109.028681,37.727458 C109.079857,36.9010884 108.789857,36.5132006 108.17574,36.54693 L108.17574,37.997293 C108.124564,38.4189101 108.346328,38.6044217 108.875151,38.5706923 L108.875151,38.8405273 L106.350448,38.8405273 L106.350448,38.5706923 C106.845154,38.587557 107.083977,38.4357748 107.049859,38.0984811 L107.049859,34.7592733 C107.083977,34.4388442 106.862212,34.2701974 106.350448,34.2870621 L106.350448,34.0172271 L108.841034,34.0172271 C110.018091,34.0340918 110.615149,34.4557089 110.632208,35.2989432 C110.615149,36.0409894 110.03515,36.4288772 108.909269,36.4457419 L108.909269,36.4794712 C109.574562,36.5300653 109.983974,36.8842237 110.154562,37.5250818 C110.32515,38.1322105 110.46162,38.3851808 110.563973,38.2839926 C110.734561,38.317722 110.819855,38.1490752 110.836914,37.7780521 Z M108.17574,34.7761379 L108.17574,36.277095 C109.045739,36.2939597 109.455151,35.9735307 109.421033,35.3158079 C109.403974,34.7086792 109.148092,34.3882502 108.653387,34.3545208 C108.32927,34.3545208 108.17574,34.4894383 108.17574,34.7761379 Z M113.583381,38.8405273 L111.655736,38.8405273 L111.655736,38.5706923 C112.048089,38.5200983 112.338089,38.2165339 112.542794,37.676864 L114.112204,33.966633 L114.470439,33.966633 L116.295731,38.1153458 C116.398084,38.4189101 116.619848,38.587557 116.961024,38.587557 L116.961024,38.857392 L114.419263,38.857392 L114.419263,38.587557 L114.692204,38.587557 C114.982203,38.6044217 115.118674,38.5200983 115.101615,38.3345867 C115.101615,38.3008573 115.084556,38.2333986 115.067497,38.1153458 C115.084556,38.1828045 115.084556,38.1659398 115.03338,38.0647517 L114.675145,37.2721115 L113.122794,37.2721115 L112.901029,37.8117814 C112.849853,37.8961049 112.815735,38.047887 112.798676,38.2502633 C112.815735,38.4695042 112.952205,38.5706923 113.208088,38.5706923 L113.566322,38.5706923 L113.566322,38.8405273 L113.583381,38.8405273 Z M114.521615,36.867359 L113.89044,35.3832666 L113.276323,36.867359 L114.521615,36.867359 Z M121.498666,38.8405273 L117.438671,38.8405273 L117.438671,38.5706923 C117.933376,38.587557 118.1722,38.4357748 118.138082,38.0984811 L118.138082,34.7592733 C118.1722,34.4388442 117.950435,34.2701974 117.438671,34.2870621 L117.438671,34.0172271 L119.997492,34.0172271 L119.997492,34.2870621 C119.502786,34.2701974 119.263963,34.4219795 119.298081,34.7592733 L119.298081,38.0647517 C119.281022,38.3851808 119.434551,38.5369629 119.775727,38.5032336 C120.475138,38.4526395 120.969843,37.9466989 121.242784,36.9685471 L121.549843,36.9685471 L121.498666,38.8405273 Z M125.388074,38.0984811 L125.388074,34.7592733 C125.422191,34.4388442 125.200427,34.2701974 124.72278,34.2870621 L124.72278,34.0172271 L127.247483,34.0172271 C128.390423,34.0340918 128.987481,34.4388442 129.021599,35.2146198 C129.021599,35.8048838 128.646305,36.1421775 127.912777,36.2602303 C128.833952,36.4120125 129.29454,36.7999003 129.29454,37.457623 C129.243363,38.3514514 128.646305,38.8067979 127.503365,38.8236626 L124.72278,38.8236626 L124.72278,38.5538276 C125.200427,38.587557 125.422191,38.4357748 125.388074,38.0984811 Z M126.513955,36.4626066 L126.513955,37.997293 C126.496896,38.3683161 126.667484,38.5369629 127.00866,38.5200983 C127.708071,38.5032336 128.066306,38.1996692 128.066306,37.5925405 C128.049247,36.8504943 127.691012,36.4794712 127.00866,36.4794712 L126.513955,36.4794712 L126.513955,36.4626066 Z M126.513955,34.826732 L126.513955,36.1590422 L126.735719,36.1590422 C127.452189,36.1590422 127.810424,35.8723425 127.793365,35.2820785 C127.776306,34.6749498 127.503365,34.3713855 126.991601,34.3545208 C126.684543,34.3545208 126.513955,34.506303 126.513955,34.826732 Z M131.955713,38.8405273 L130.01101,38.8405273 L130.01101,38.5706923 C130.403362,38.5200983 130.693362,38.2165339 130.898067,37.676864 L132.467477,33.966633 L132.825712,33.966633 L134.651004,38.1153458 C134.753357,38.4189101 134.975122,38.587557 135.316298,38.587557 L135.316298,38.857392 L132.774536,38.857392 L132.774536,38.587557 L133.047477,38.587557 C133.337476,38.6044217 133.473947,38.5200983 133.456888,38.3345867 C133.456888,38.3008573 133.439829,38.2333986 133.42277,38.1153458 C133.439829,38.1828045 133.439829,38.1659398 133.388653,38.0647517 L133.030418,37.2721115 L131.478067,37.2721115 L131.256302,37.8117814 C131.205126,37.8961049 131.171008,38.047887 131.153949,38.2502633 C131.171008,38.4695042 131.307479,38.5706923 131.563361,38.5706923 L131.921596,38.5706923 L131.921596,38.8405273 L131.955713,38.8405273 Z M132.893947,36.867359 L132.262772,35.3832666 L131.648655,36.867359 L132.893947,36.867359 Z M135.776885,34.3039267 L135.776885,34.0340918 L137.499825,34.0340918 L139.870998,37.3227055 L139.905116,37.3227055 L139.905116,34.8604614 C139.939234,34.556897 139.70041,34.3713855 139.154529,34.3207914 L139.154529,34.0509564 L140.928644,34.0509564 L140.928644,34.3207914 C140.468056,34.3713855 140.263351,34.556897 140.297468,34.8604614 L140.297468,38.857392 L139.632175,38.857392 L136.919825,35.147161 L136.885708,35.147161 L136.885708,38.1322105 C136.834531,38.4526395 137.107472,38.6212864 137.721589,38.6044217 L137.721589,38.8742567 L135.811003,38.8742567 L135.811003,38.6044217 C136.305708,38.6212864 136.544532,38.4695042 136.510414,38.1322105 L136.510414,34.7930026 C136.527473,34.4388442 136.288649,34.2870621 135.776885,34.3039267 Z M141.628055,34.3039267 L141.628055,34.0340918 L144.084523,34.0340918 L144.084523,34.3039267 C143.675112,34.2870621 143.487465,34.4388442 143.504524,34.7761379 L143.504524,36.277095 L144.971581,34.826732 C145.073934,34.7424086 145.142169,34.6412205 145.142169,34.5231677 C145.142169,34.3713855 145.022757,34.3039267 144.783934,34.3039267 L144.528052,34.3039267 L144.528052,34.0340918 L146.626285,34.0340918 L146.626285,34.3039267 C146.182756,34.3376561 145.875697,34.4725736 145.688051,34.6918145 L144.579228,35.7374251 L146.148638,38.2839926 C146.250991,38.4863689 146.489814,38.587557 146.848049,38.587557 L146.848049,38.857392 L144.40864,38.857392 L144.40864,38.587557 C144.664522,38.5538276 144.800993,38.5032336 144.800993,38.4189101 C144.937463,38.5706923 144.579228,37.9298342 143.743347,36.5300653 L143.487465,36.7493062 L143.487465,38.1153458 C143.470406,38.4357748 143.640994,38.6044217 143.98217,38.587557 L143.98217,38.857392 L141.610996,38.857392 L141.610996,38.587557 C142.105702,38.6044217 142.344525,38.4526395 142.310407,38.1153458 L142.310407,34.7761379 C142.344525,34.4388442 142.12276,34.2870621 141.628055,34.3039267 Z M149.96981,36.4288772 C150.140398,34.9110554 150.959221,34.0846858 152.460396,33.9329036 C153.927453,34.1015505 154.763334,34.9279201 154.916864,36.4288772 C154.763334,37.9298342 153.944512,38.7393392 152.460396,38.857392 C150.942162,38.7393392 150.106281,37.9298342 149.96981,36.4288772 Z M151.300397,36.4288772 C151.300397,37.8623755 151.69275,38.587557 152.460396,38.587557 C153.210983,38.6044217 153.586277,37.8792402 153.586277,36.4288772 C153.586277,34.9785142 153.210983,34.2533327 152.460396,34.2701974 C151.675691,34.2701974 151.300397,34.9953789 151.300397,36.4288772 Z M158.362742,38.8405273 L155.701569,38.8405273 L155.701569,38.5706923 C156.196274,38.587557 156.435097,38.4357748 156.400979,38.0984811 L156.400979,34.7592733 C156.435097,34.4388442 156.213333,34.2701974 155.701569,34.2870621 L155.701569,34.0172271 L160.068622,34.0172271 L160.119799,35.7374251 L159.81274,35.7374251 C159.556858,34.8098673 158.993918,34.3376561 158.158036,34.3376561 C157.731566,34.3039267 157.543919,34.4388442 157.578037,34.7761379 L157.578037,36.1421775 C158.192154,36.1927716 158.550389,35.9229366 158.686859,35.3158079 L158.9598,35.3158079 L158.9598,37.2552468 L158.686859,37.2552468 C158.550389,36.6481181 158.192154,36.3782831 157.578037,36.4288772 L157.578037,38.0647517 C157.543919,38.3851808 157.799801,38.5538276 158.345683,38.5369629 L158.345683,38.8405273 L158.362742,38.8405273 Z M167.915672,34.0509564 L167.915672,35.7711544 L167.642731,35.7711544 C167.267438,34.7255439 166.738615,34.236468 166.039204,34.2701974 C165.203322,34.2701974 164.793911,34.9953789 164.793911,36.4288772 C164.793911,37.8455108 165.271558,38.5706923 166.226851,38.587557 C167.165085,38.5706923 167.676849,38.0310224 167.745084,36.9516825 L168.069201,36.9516825 C168.035084,38.2165339 167.352732,38.8405273 166.056263,38.857392 C164.452735,38.8067979 163.599795,37.997293 163.480383,36.4288772 C163.650971,34.9110554 164.469794,34.0846858 165.970969,33.9329036 C166.38038,33.9329036 166.840968,34.0678211 167.352732,34.3376561 L167.625673,34.0340918 L167.915672,34.0340918 L167.915672,34.0509564 Z M170.79861,36.1590422 L172.36802,36.1590422 L172.36802,34.7592733 C172.385079,34.4388442 172.180373,34.2701974 171.753903,34.2870621 L171.753903,34.0172271 L174.244489,34.0172271 L174.244489,34.2870621 C173.749783,34.2701974 173.51096,34.4219795 173.545078,34.7592733 L173.545078,38.0984811 C173.51096,38.4189101 173.732724,38.587557 174.244489,38.5706923 L174.244489,38.8405273 L171.753903,38.8405273 L171.753903,38.5706923 C172.180373,38.587557 172.385079,38.4357748 172.36802,38.0984811 L172.36802,36.4626066 L170.79861,36.4626066 L170.79861,38.0984811 C170.781551,38.4189101 170.986257,38.587557 171.412727,38.5706923 L171.412727,38.8405273 L168.956259,38.8405273 L168.956259,38.5706923 C169.433906,38.587557 169.65567,38.4357748 169.621553,38.0984811 L169.621553,34.7592733 C169.65567,34.4388442 169.433906,34.2701974 168.956259,34.2870621 L168.956259,34.0172271 L171.412727,34.0172271 L171.412727,34.2870621 C170.986257,34.2701974 170.781551,34.4219795 170.79861,34.7592733 L170.79861,36.1590422 Z M177.553897,38.8405273 L174.978017,38.8405273 L174.978017,38.5706923 C175.472722,38.587557 175.711546,38.4357748 175.677428,38.0984811 L175.677428,34.7592733 C175.711546,34.4388442 175.489781,34.2701974 174.978017,34.2870621 L174.978017,34.0172271 L177.553897,34.0172271 L177.553897,34.2870621 C177.059191,34.2701974 176.820368,34.4219795 176.854486,34.7592733 L176.854486,38.0984811 C176.820368,38.4189101 177.042132,38.587557 177.553897,38.5706923 L177.553897,38.8405273 Z M178.321543,34.3039267 L178.321543,34.0340918 L180.044482,34.0340918 L182.415656,37.3227055 L182.449773,37.3227055 L182.449773,34.8604614 C182.483891,34.556897 182.245068,34.3713855 181.699186,34.3207914 L181.699186,34.0509564 L183.473302,34.0509564 L183.473302,34.3207914 C183.012714,34.3713855 182.808008,34.556897 182.842126,34.8604614 L182.842126,38.857392 L182.176832,38.857392 L179.464483,35.147161 L179.430365,35.147161 L179.430365,38.1322105 C179.379189,38.4526395 179.652129,38.6212864 180.266246,38.6044217 L180.266246,38.8742567 L178.35566,38.8742567 L178.35566,38.6044217 C178.850366,38.6212864 179.089189,38.4695042 179.055071,38.1322105 L179.055071,34.7930026 C179.07213,34.4388442 178.833307,34.2870621 178.321543,34.3039267 Z M185.929769,38.8405273 L184.002124,38.8405273 L184.002124,38.5706923 C184.394477,38.5200983 184.684477,38.2165339 184.889182,37.676864 L186.458592,33.966633 L186.816827,33.966633 L188.642119,38.1153458 C188.744472,38.4189101 188.966236,38.587557 189.307413,38.587557 L189.307413,38.857392 L186.765651,38.857392 L186.765651,38.587557 L187.038592,38.587557 C187.328591,38.6044217 187.465062,38.5200983 187.448003,38.3345867 C187.448003,38.3008573 187.430944,38.2333986 187.413885,38.1153458 C187.430944,38.1828045 187.430944,38.1659398 187.379768,38.0647517 L187.021533,37.2721115 L185.469182,37.2721115 L185.247417,37.8117814 C185.196241,37.8961049 185.162123,38.047887 185.145064,38.2502633 C185.162123,38.4695042 185.298594,38.5706923 185.554476,38.5706923 L185.912711,38.5706923 L185.929769,38.8405273 Z M186.868004,36.867359 L185.622711,36.867359 L186.236828,35.3832666 L186.868004,36.867359 Z M32.058945,17.5066994 C31.7177777,17.47297 31.4277855,17.2537291 31.3766103,16.9164354 C31.2742601,15.7359074 31.3766103,14.5047853 31.3766103,13.3242573 L31.3766103,8.2142574 C31.3766103,8.04561054 31.3424936,7 31.4448438,7 L35.1635678,7 C35.2829764,7 35.2318013,9.1755445 35.2318013,9.44537948 L35.2318013,14.5553794 L35.2318013,15.8539602 C35.2318013,16.0900658 35.3170931,16.562277 35.2318013,16.7815179 C35.2318013,16.8995707 35.1635678,17.101947 35.0953343,17.2031351 C34.9076923,17.5741582 34.2935911,17.5066994 33.9694821,17.5066994 L32.058945,17.5066994 Z" id="path" fill="#FFFFFF" fill-rule="nonzero"></path>
    </g>
</svg>