<?xml version="1.0" encoding="UTF-8"?>
<svg width="206px" height="48px" viewBox="0 0 206 48" version="1.1" xmlns="http://www.w3.org/2000/svg" xmlns:xlink="http://www.w3.org/1999/xlink">
    <!-- Generator: Sketch 50.2 (55047) - http://www.bohemiancoding.com/sketch -->
    <title>BCM-full</title>
    <desc>Created with Sketch.</desc>
    <defs></defs>
    <g id="BCM-full" stroke="none" stroke-width="1" fill="none" fill-rule="evenodd">
        <rect id="@bound" x="0" y="0" width="206" height="48"></rect>
        <path d="M62.9080189,36.4102564 L62.9080189,38.2564103 L64.3773585,38.2564103 C65.2169811,38.2564103 65.6367925,37.8461538 65.6367925,37.2307692 C65.6367925,36.6153846 65.2169811,36.4102564 64.3773585,36.4102564 L62.9080189,36.4102564 Z M61.8584906,41.7435897 L61.8584906,35.5897436 L64.5872642,35.5897436 C65.6367925,35.5897436 66.2665094,36.2051282 66.2665094,37.2307692 C66.2665094,37.8461538 66.0566038,38.2564103 65.4268868,38.4615385 C66.2665094,38.6666667 66.6863208,39.2820513 66.6863208,39.8974359 C66.6863208,41.1282051 65.8466981,41.7435897 64.5872642,41.7435897 L61.8584906,41.7435897 Z M62.9080189,39.0769231 L62.9080189,41.1282051 L64.7971698,41.1282051 C65.6367925,41.1282051 66.0566038,40.7179487 66.0566038,40.1025641 C66.0566038,39.4871795 65.6367925,39.0769231 64.5872642,39.0769231 L62.9080189,39.0769231 Z M71.7240566,40.1025641 L69.2051887,40.1025641 L68.5754717,41.9487179 L67.7358491,41.9487179 L70.0448113,35.7948718 L71.0943396,35.7948718 L73.4033019,41.9487179 L72.5636792,41.9487179 L71.7240566,40.1025641 Z M69.625,39.2820513 L71.5141509,39.2820513 L70.6745283,36.6153846 L69.625,39.2820513 Z M78.8608491,40.7179487 L78.8608491,35.7948718 L79.7004717,35.7948718 L79.7004717,41.9487179 L78.6509434,41.9487179 L75.5023585,36.8205128 L75.5023585,41.7435897 L74.6627358,41.7435897 L74.6627358,35.5897436 L75.7122642,35.5897436 L78.8608491,40.7179487 Z M82.2193396,39.6923077 L82.2193396,41.9487179 L81.379717,41.9487179 L81.379717,35.7948718 L82.2193396,35.7948718 L82.2193396,38.6666667 L85.3679245,35.5897436 L86.6273585,35.5897436 L83.8985849,38.2564103 L86.6273585,41.9487179 L85.5778302,41.9487179 L83.4787736,38.8717949 L82.2193396,39.6923077 Z M94.8136792,38.8717949 C94.8136792,37.2307692 93.9740566,36.4102564 92.7146226,36.4102564 C91.245283,36.4102564 90.615566,37.2307692 90.615566,38.8717949 C90.615566,40.5128205 91.4551887,41.3333333 92.7146226,41.3333333 C93.9740566,41.1282051 94.6037736,40.3076923 94.8136792,38.8717949 Z M95.6533019,38.8717949 C95.4433962,40.9230769 94.3938679,41.9487179 92.504717,41.9487179 C90.615566,41.9487179 89.5660377,40.9230769 89.3561321,38.8717949 C89.5660377,36.8205128 90.4056604,35.5897436 92.504717,35.5897436 C94.3938679,35.5897436 95.4433962,36.6153846 95.6533019,38.8717949 Z M97.9622642,39.0769231 L97.9622642,41.9487179 L97.1226415,41.9487179 L97.1226415,35.7948718 L101.53066,35.7948718 L101.53066,36.4102564 L97.9622642,36.4102564 L97.9622642,38.2564103 L101.110849,38.2564103 L101.110849,39.0769231 L97.9622642,39.0769231 Z M110.136792,37.4358974 L109.29717,37.4358974 C109.087264,36.6153846 108.457547,36.2051282 107.617925,36.2051282 C106.358491,36.2051282 105.518868,37.025641 105.518868,38.6666667 C105.518868,40.3076923 106.148585,41.1282051 107.617925,41.1282051 C108.667453,41.1282051 109.087264,40.5128205 109.507075,39.4871795 L110.346698,39.4871795 C110.136792,40.9230769 109.087264,41.7435897 107.617925,41.9487179 C105.728774,41.9487179 104.889151,40.7179487 104.889151,38.6666667 C104.889151,36.6153846 105.938679,35.5897436 107.82783,35.3846154 C109.087264,35.5897436 109.926887,36.2051282 110.136792,37.4358974 Z M116.643868,38.8717949 C116.643868,37.2307692 115.804245,36.4102564 114.544811,36.4102564 C113.075472,36.4102564 112.445755,37.2307692 112.445755,38.8717949 C112.445755,40.5128205 113.285377,41.3333333 114.544811,41.3333333 C115.804245,41.1282051 116.643868,40.3076923 116.643868,38.8717949 Z M117.483491,38.8717949 C117.273585,40.9230769 116.224057,41.9487179 114.334906,41.9487179 C112.445755,41.9487179 111.396226,40.9230769 111.186321,38.8717949 C111.396226,36.8205128 112.235849,35.5897436 114.334906,35.5897436 C116.433962,35.5897436 117.483491,36.6153846 117.483491,38.8717949 Z M125.040094,41.7435897 L124.200472,41.7435897 L124.200472,38.0512821 L124.200472,36.4102564 L122.311321,41.5384615 L121.681604,41.5384615 L119.792453,36.6153846 L119.792453,41.9487179 L118.95283,41.9487179 L118.95283,35.7948718 L120.212264,35.7948718 L122.101415,40.9230769 L123.990566,35.7948718 L125.25,35.7948718 L125.25,41.7435897 L125.040094,41.7435897 Z M132.806604,41.7435897 L131.966981,41.7435897 L131.966981,38.0512821 L131.966981,36.4102564 L130.07783,41.5384615 L129.238208,41.5384615 L127.558962,36.6153846 L127.558962,41.9487179 L126.71934,41.9487179 L126.71934,35.7948718 L127.978774,35.7948718 L129.867925,40.9230769 L131.757075,35.7948718 L133.016509,35.7948718 L133.016509,41.7435897 L132.806604,41.7435897 Z M138.683962,35.5897436 L139.523585,35.5897436 L139.523585,39.4871795 C139.523585,40.9230769 138.683962,41.7435897 137.004717,41.7435897 C135.535377,41.7435897 134.695755,40.9230769 134.695755,39.6923077 L134.695755,35.5897436 L135.535377,35.5897436 L135.535377,39.4871795 C135.535377,40.5128205 136.165094,41.1282051 137.214623,41.1282051 C138.264151,41.1282051 138.893868,40.5128205 138.893868,39.4871795 L138.893868,35.5897436 L138.683962,35.5897436 Z M145.610849,40.7179487 L145.610849,35.7948718 L146.450472,35.7948718 L146.450472,41.9487179 L145.400943,41.9487179 L142.252358,37.025641 L142.252358,41.9487179 L141.412736,41.9487179 L141.412736,35.7948718 L142.462264,35.7948718 L145.610849,40.7179487 Z M149.179245,35.5897436 L149.179245,41.7435897 L148.339623,41.7435897 L148.339623,35.5897436 L149.179245,35.5897436 Z M156.316038,37.4358974 L155.476415,37.4358974 C155.266509,36.6153846 154.636792,36.2051282 153.79717,36.2051282 C152.537736,36.2051282 151.698113,37.025641 151.698113,38.6666667 C151.698113,40.3076923 152.32783,41.1282051 153.79717,41.1282051 C154.846698,41.1282051 155.266509,40.5128205 155.686321,39.4871795 L156.525943,39.4871795 C156.316038,40.9230769 155.266509,41.7435897 153.79717,41.9487179 C151.908019,41.9487179 151.068396,40.7179487 151.068396,38.6666667 C151.068396,36.6153846 152.117925,35.5897436 154.007075,35.3846154 C155.266509,35.5897436 156.106132,36.2051282 156.316038,37.4358974 Z M161.563679,40.1025641 L159.044811,40.1025641 L158.415094,41.9487179 L157.365566,41.9487179 L159.674528,35.7948718 L160.724057,35.7948718 L163.033019,41.9487179 L162.193396,41.9487179 L161.563679,40.1025641 Z M159.254717,39.2820513 L161.143868,39.2820513 L160.304245,36.6153846 L159.254717,39.2820513 Z M163.872642,36.4102564 L163.872642,35.7948718 L168.910377,35.7948718 L168.910377,36.4102564 L166.811321,36.4102564 L166.811321,41.9487179 L165.971698,41.9487179 L165.971698,36.4102564 L163.872642,36.4102564 Z M171.21934,35.5897436 L171.21934,41.7435897 L170.379717,41.7435897 L170.379717,35.5897436 L171.21934,35.5897436 Z M178.146226,38.8717949 C178.146226,37.2307692 177.306604,36.4102564 176.04717,36.4102564 C174.57783,36.4102564 173.948113,37.2307692 173.948113,38.8717949 C173.948113,40.5128205 174.787736,41.3333333 176.04717,41.3333333 C177.306604,41.1282051 177.936321,40.3076923 178.146226,38.8717949 Z M178.985849,38.8717949 C178.775943,40.9230769 177.726415,41.9487179 175.837264,41.9487179 C173.948113,41.9487179 172.898585,40.9230769 172.688679,38.8717949 C172.898585,36.8205128 173.738208,35.5897436 175.837264,35.5897436 C177.726415,35.5897436 178.775943,36.6153846 178.985849,38.8717949 Z M184.653302,40.7179487 L184.653302,35.7948718 L185.492925,35.7948718 L185.492925,41.9487179 L184.443396,41.9487179 L181.294811,37.025641 L181.294811,41.9487179 L180.455189,41.9487179 L180.455189,35.7948718 L181.504717,35.7948718 L184.653302,40.7179487 Z M191.790094,37.4358974 L190.950472,37.4358974 C190.950472,36.6153846 190.320755,36.2051282 189.271226,36.2051282 C188.431604,36.2051282 187.801887,36.6153846 187.801887,37.2307692 C187.801887,37.6410256 188.011792,37.8461538 188.641509,38.0512821 L190.53066,38.4615385 C191.370283,38.6666667 192,39.2820513 192,40.1025641 C192,41.3333333 191.160377,41.7435897 189.481132,41.9487179 C188.641509,41.9487179 188.011792,41.7435897 187.591981,41.3333333 C187.17217,40.9230769 186.962264,40.5128205 186.962264,39.6923077 L187.801887,39.6923077 C187.801887,40.7179487 188.431604,41.1282051 189.481132,41.1282051 C190.53066,41.1282051 191.160377,40.7179487 191.160377,40.1025641 C191.160377,39.4871795 190.740566,39.0769231 189.691038,39.0769231 L188.431604,38.8717949 C187.591981,38.6666667 187.17217,38.2564103 187.17217,37.4358974 C187.17217,36.2051282 188.011792,35.5897436 189.271226,35.5897436 C190.950472,35.5897436 191.790094,36.2051282 191.790094,37.4358974 Z M44.2264151,34.3589744 C41.9174528,34.3589744 39.6084906,34.5641026 37.2995283,34.5641026 C35.8301887,40.9230769 23.2358491,39.0769231 24.7051887,31.0769231 C25.3349057,26.3589744 32.0518868,24.3076923 36.0400943,27.7948718 C36.879717,28.8205128 37.2995283,29.6410256 37.7193396,31.6923077 C39.8183962,31.6923077 42.3372642,31.4871795 44.4363208,31.4871795 C44.4363208,21.2307692 32.6816038,16.1025641 23.865566,21.025641 C15.259434,25.7435897 16.3089623,40.3076923 25.3349057,43.7948718 L25.3349057,44 C20.5070755,44 15.0495283,40.3076923 14,35.7948718 L14,12.2051282 C17.7783019,9.53846154 22.1863208,6.46153846 25.9646226,4 C26.1745283,4 26.1745283,4.20512821 26.384434,4.20512821 C26.1745283,7.69230769 26.384434,13.6410256 26.5943396,17.9487179 C29.1132075,15.6923077 30.5825472,13.2307692 34.7806604,12.4102564 C37.509434,11.7948718 40.0283019,12.2051282 41.7075472,12.8205128 C53.8820755,16.9230769 54.7216981,32.3076923 44.2264151,37.6410256 C44.0165094,37.6410256 43.3867925,38.0512821 43.1768868,38.2564103 L43.5966981,37.4358974 C43.5966981,36.6153846 43.8066038,35.3846154 44.2264151,34.3589744 Z M152.747642,5.64102564 C153.79717,5.84615385 154.636792,6.25641026 155.266509,7.07692308 C154.846698,8.71794872 153.377358,9.33333333 153.79717,10.5641026 C154.007075,11.1794872 154.846698,11.5897436 155.266509,12 C155.686321,12.6153846 155.896226,13.8461538 156.525943,14.2564103 C157.365566,14.8717949 157.995283,14.6666667 159.254717,14.4615385 C161.983491,14.0512821 165.341981,12.8205128 168.700472,12.2051282 C168.910377,12.4102564 169.120283,12.8205128 169.330189,13.025641 C168.700472,14.0512821 168.28066,14.8717949 167.441038,15.2820513 C166.391509,15.6923077 164.92217,15.4871795 163.872642,16.5128205 C163.242925,17.3333333 163.45283,18.3589744 163.45283,19.7948718 C163.662736,22.6666667 164.502358,26.3589744 163.242925,28.6153846 C162.613208,28.6153846 162.193396,28.8205128 161.563679,28.8205128 C159.884434,28 157.995283,27.1794872 156.945755,25.7435897 L157.15566,25.5384615 C158.415094,25.3333333 159.464623,25.3333333 160.724057,25.1282051 C160.724057,22.2564103 160.933962,19.1794872 160.933962,16.3076923 C160.724057,16.3076923 160.304245,16.5128205 160.09434,16.5128205 C159.254717,16.7179487 156.735849,18.1538462 155.686321,16.7179487 C155.476415,15.8974359 155.056604,15.0769231 154.846698,14.2564103 L152.747642,16.3076923 C152.747642,17.5384615 152.537736,18.974359 152.747642,20.4102564 C153.167453,23.2820513 153.79717,26.5641026 152.537736,28.6153846 C152.32783,28.8205128 151.908019,28.8205128 151.698113,29.025641 C151.278302,28.4102564 151.068396,28.2051282 151.068396,28.2051282 C150.648585,27.7948718 150.228774,27.3846154 149.599057,26.974359 C149.599057,23.8974359 150.858491,21.8461538 150.018868,18.974359 L149.808962,18.974359 C147.709906,19.5897436 147.5,21.2307692 145.400943,21.8461538 L144.771226,21.2307692 L144.771226,20 C146.660377,17.5384615 149.179245,16.1025641 150.858491,13.2307692 C150.858491,13.025641 150.648585,12.8205128 150.648585,12.6153846 C149.808962,12.4102564 149.599057,12.8205128 148.96934,12 L148.96934,11.3846154 C149.808962,9.12820513 151.908019,8.30769231 152.747642,5.64102564 Z M72.7735849,6.87179487 C74.2429245,7.07692308 75.0825472,7.48717949 75.9221698,8.1025641 L75.9221698,10.7692308 C76.5518868,10.974359 76.9716981,11.1794872 77.6014151,11.3846154 C78.8608491,10.7692308 80.120283,10.3589744 82.009434,10.1538462 C82.6391509,11.1794872 82.8490566,11.3846154 82.6391509,12.8205128 C80.3301887,13.025641 78.2311321,12.6153846 76.3419811,13.6410256 L76.3419811,13.8461538 C76.5518868,14.4615385 76.5518868,15.0769231 76.7617925,15.6923077 C78.4410377,15.8974359 81.5896226,16.3076923 82.6391509,17.7435897 C82.8490566,18.5641026 82.8490566,18.3589744 82.2193396,18.974359 C80.5400943,19.5897436 79.0707547,18.974359 77.8113208,18.1538462 C76.7617925,17.5384615 75.7122642,17.1282051 75.0825472,16.3076923 C74.6627358,15.6923077 74.4528302,14.6666667 74.2429245,14.0512821 L73.6132075,14.0512821 C73.4033019,14.2564103 72.9834906,14.4615385 72.7735849,14.8717949 C72.5636792,15.6923077 72.5636792,16.9230769 72.3537736,17.5384615 C71.9339623,18.5641026 71.0943396,18.974359 70.884434,19.7948718 C71.5141509,20.2051282 71.9339623,20.4102564 72.3537736,21.2307692 C72.7735849,21.2307692 73.1933962,21.025641 73.6132075,21.025641 C73.8231132,20 74.0330189,19.3846154 74.8726415,18.7692308 C75.7122642,18.974359 76.5518868,19.3846154 77.3915094,19.5897436 L77.3915094,19.7948718 C76.9716981,20.8205128 75.9221698,21.4358974 76.1320755,22.4615385 C77.1816038,25.7435897 80.3301887,26.974359 83.0589623,27.3846154 C85.1580189,27.7948718 86.6273585,27.1794872 87.6768868,28.6153846 L86.8372642,29.4358974 C85.3679245,29.4358974 83.0589623,31.6923077 82.009434,30.8717949 C79.490566,29.025641 76.9716981,26.5641026 74.6627358,24.7179487 C72.5636792,26.3589744 70.884434,28.2051282 68.5754717,28.8205128 C66.8962264,29.2307692 65.2169811,29.025641 62.6981132,28.4102564 L62.6981132,27.7948718 L63.9575472,27.7948718 C64.7971698,27.5897436 65.8466981,27.5897436 66.8962264,27.3846154 C69.4150943,26.7692308 71.7240566,25.5384615 72.1438679,22.8717949 C71.0943396,22.0512821 70.254717,20.8205128 68.995283,20.4102564 C67.9457547,20 66.6863208,20.6153846 66.2665094,19.7948718 C66.4764151,19.5897436 66.6863208,19.1794872 66.8962264,18.974359 C68.995283,18.7692308 70.254717,17.1282051 71.0943396,15.4871795 C71.0943396,15.0769231 70.884434,14.6666667 70.884434,14.2564103 C68.5754717,14.4615385 68.1556604,14.6666667 66.2665094,14.2564103 C66.0566038,14.0512821 66.0566038,13.6410256 65.8466981,13.4358974 C66.4764151,12.8205128 66.0566038,12.6153846 66.8962264,12.8205128 C74.0330189,12.6153846 72.7735849,12 75.0825472,11.1794872 L75.0825472,10.974359 C74.4528302,9.94871795 73.4033019,9.33333333 72.5636792,8.51282051 C72.1438679,8.30769231 72.3537736,7.48717949 72.7735849,6.87179487 Z M106.358491,6.87179487 C107.617925,7.28205128 108.247642,7.69230769 108.457547,9.33333333 C106.988208,10.3589744 105.308962,11.3846154 104.259434,13.025641 C104.46934,13.8461538 104.46934,14.0512821 104.889151,14.6666667 C105.728774,13.8461538 106.148585,13.4358974 107.617925,13.2307692 C108.667453,14.4615385 109.507075,15.0769231 108.247642,16.7179487 C108.247642,17.3333333 108.037736,17.5384615 108.037736,18.5641026 C108.037736,19.5897436 108.667453,20 108.667453,21.4358974 C108.877358,23.0769231 108.667453,25.7435897 108.877358,26.5641026 C110.556604,26.1538462 112.235849,25.7435897 113.915094,25.1282051 C114.125,25.3333333 114.125,25.5384615 114.334906,25.7435897 C111.186321,33.9487179 101.740566,27.5897436 94.8136792,27.3846154 C93.134434,28 91.4551887,28.4102564 89.7759434,29.025641 C88.7264151,27.5897436 88.5165094,27.5897436 89.5660377,26.3589744 C90.4056604,26.3589744 91.4551887,26.1538462 92.2948113,26.1538462 C92.2948113,25.7435897 92.7146226,25.5384615 92.7146226,25.1282051 L92.7146226,24.1025641 C92.0849057,22.8717949 91.245283,21.2307692 91.0353774,19.5897436 C90.8254717,18.5641026 91.4551887,17.7435897 91.4551887,16.9230769 L91.0353774,14.4615385 C91.245283,14.4615385 91.4551887,14.2564103 91.6650943,14.2564103 C92.2948113,13.8461538 92.504717,13.8461538 93.3443396,14.0512821 C93.7641509,14.8717949 94.1839623,15.4871795 94.8136792,16.3076923 C94.6037736,16.9230769 94.1839623,17.7435897 93.9740566,18.5641026 C93.7641509,20 94.1839623,21.4358974 94.6037736,22.8717949 C94.8136792,24.3076923 95.0235849,25.7435897 96.2830189,26.3589744 L97.7523585,26.3589744 C97.7523585,26.1538462 97.9622642,26.1538462 97.9622642,25.9487179 C97.5424528,24.7179487 97.5424528,22.4615385 97.5424528,20.4102564 C97.5424528,18.974359 97.3325472,17.5384615 97.7523585,16.7179487 C98.5919811,16.7179487 99.6415094,16.7179487 100.061321,16.1025641 C100.481132,15.6923077 100.481132,14.6666667 100.691038,14.2564103 C101.110849,13.6410256 101.740566,14.0512821 101.950472,13.6410256 C102.160377,13.2307692 102.160377,12.2051282 102.160377,11.7948718 C101.950472,11.7948718 101.740566,11.5897436 101.53066,11.5897436 C100.691038,12.2051282 99.8514151,13.025641 99.0117925,13.6410256 C98.8018868,13.4358974 98.3820755,13.2307692 98.1721698,13.025641 C98.3820755,12.2051282 98.3820755,11.5897436 98.5919811,10.7692308 C99.8514151,10.7692308 101.110849,10.974359 101.740566,10.7692308 C102.580189,10.5641026 103,9.53846154 103.629717,8.92307692 C104.679245,7.69230769 105.518868,7.48717949 106.358491,6.87179487 Z M125.25,7.28205128 C127.768868,7.69230769 127.978774,10.7692308 129.028302,12.6153846 L128.398585,13.8461538 L128.188679,13.8461538 C127.349057,13.2307692 126.71934,12.8205128 125.879717,12.2051282 C124.830189,12.8205128 123.360849,14.0512821 125.040094,15.0769231 C126.089623,15.2820513 126.089623,14.4615385 127.139151,15.0769231 C127.349057,15.2820513 127.558962,15.2820513 127.768868,15.4871795 C127.558962,16.5128205 127.139151,17.1282051 127.139151,17.5384615 C127.139151,17.9487179 127.978774,18.5641026 128.398585,19.3846154 C127.349057,20.2051282 126.71934,20.4102564 126.509434,22.2564103 C126.71934,22.2564103 126.71934,22.4615385 126.929245,22.4615385 C127.139151,22.4615385 127.349057,22.2564103 127.558962,22.2564103 C127.768868,21.6410256 127.768868,21.025641 127.978774,20.4102564 L128.818396,20.4102564 C129.028302,21.8461538 128.608491,23.0769231 129.028302,24.1025641 C129.448113,24.1025641 129.867925,23.8974359 130.287736,23.8974359 C130.07783,21.8461538 130.07783,18.5641026 130.07783,15.6923077 C130.07783,13.6410256 129.867925,11.7948718 130.497642,10.5641026 C133.226415,11.1794872 134.066038,9.12820513 136.794811,8.71794872 C137.214623,8.92307692 137.634434,9.33333333 138.054245,9.53846154 C137.634434,12.2051282 137.004717,13.4358974 136.794811,17.3333333 C135.115566,18.1538462 135.115566,18.974359 133.016509,19.3846154 C133.436321,20.6153846 134.485849,21.025641 135.745283,20.2051282 C137.424528,19.1794872 137.424528,17.3333333 138.893868,16.3076923 L141.412736,16.3076923 C141.412736,16.5128205 141.622642,16.5128205 141.622642,16.7179487 L141.622642,17.5384615 C140.363208,18.1538462 137.84434,19.3846154 137.84434,21.2307692 L141.622642,23.6923077 C142.252358,24.9230769 141.412736,26.3589744 140.992925,27.1794872 C139.943396,26.3589744 137.84434,23.0769231 136.584906,24.3076923 C134.066038,25.3333333 135.115566,29.025641 131.757075,29.4358974 C131.337264,29.2307692 130.917453,29.2307692 130.497642,29.025641 C130.287736,28.4102564 130.07783,28.6153846 130.07783,28 C130.07783,27.3846154 129.867925,25.7435897 129.658019,25.7435897 C127.139151,26.974359 122.731132,29.6410256 120.002358,27.7948718 L120.002358,27.5897436 C120.841981,26.974359 122.101415,26.5641026 122.941038,25.9487179 C122.731132,25.1282051 122.311321,24.1025641 122.101415,23.2820513 C122.941038,23.0769231 123.570755,22.8717949 124.410377,22.6666667 L124.410377,22.0512821 C124.200472,21.8461538 123.990566,21.8461538 123.78066,21.6410256 L122.521226,22.2564103 C121.681604,21.6410256 121.261792,21.8461538 121.051887,20.4102564 C122.101415,20.2051282 123.150943,19.7948718 124.200472,19.5897436 C124.200472,18.3589744 123.990566,18.1538462 123.570755,17.3333333 L121.891509,17.3333333 C120.841981,18.3589744 119.792453,19.3846154 118.95283,20.4102564 C117.693396,20.4102564 116.853774,20.4102564 116.224057,20 L115.804245,20 L115.804245,19.1794872 C116.853774,18.5641026 118.113208,17.9487179 119.162736,17.1282051 C121.051887,15.4871795 122.311321,13.2307692 123.360849,11.3846154 C123.990566,10.1538462 123.570755,9.74358974 124.200472,8.51282051 C124.620283,7.48717949 124.830189,7.8974359 125.25,7.28205128 Z M164.292453,8.92307692 L165.551887,9.53846154 L165.551887,10.1538462 C165.341981,10.3589744 165.132075,10.3589744 164.92217,10.5641026 C164.502358,11.1794872 161.563679,12 160.09434,11.7948718 C158.625,12 158.205189,10.974359 157.575472,9.74358974 L157.995283,9.74358974 C159.884434,9.53846154 161.983491,9.12820513 164.292453,8.92307692 Z M93.5542453,9.94871795 C94.1839623,10.1538462 94.8136792,10.5641026 95.4433962,10.7692308 C95.6533019,12.2051282 95.4433962,13.6410256 93.9740566,12.6153846 C93.3443396,12.4102564 93.5542453,12.4102564 93.134434,12 C92.2948113,10.974359 92.7146226,10.7692308 93.5542453,9.94871795 Z M133.856132,11.1794872 L132.176887,12.8205128 C132.386792,13.025641 132.596698,13.4358974 132.806604,13.6410256 C134.066038,13.6410256 134.066038,13.4358974 134.90566,13.025641 C134.90566,12.6153846 135.115566,12.2051282 135.115566,11.7948718 C134.695755,11.3846154 134.90566,11.3846154 133.856132,11.1794872 Z M133.016509,15.0769231 C132.806604,16.1025641 132.806604,16.7179487 133.226415,17.5384615 L133.856132,17.5384615 C134.066038,17.1282051 134.485849,16.7179487 134.695755,16.3076923 C134.695755,15.8974359 134.485849,15.4871795 134.485849,15.0769231 L133.016509,15.0769231 Z M105.518868,15.4871795 C105.099057,15.6923077 104.679245,16.1025641 104.049528,16.3076923 L104.049528,17.1282051 L104.889151,17.9487179 C105.518868,17.7435897 105.728774,17.7435897 106.148585,17.3333333 C106.568396,16.5128205 106.358491,16.1025641 105.518868,15.4871795 Z M100.481132,17.1282051 C100.271226,17.9487179 100.061321,18.3589744 100.271226,19.3846154 L100.481132,19.3846154 C101.320755,18.974359 101.320755,19.1794872 101.740566,18.5641026 L101.740566,17.1282051 L100.481132,17.1282051 Z M105.099057,19.3846154 C104.889151,19.5897436 104.679245,20 104.46934,20.2051282 L105.099057,21.4358974 C105.518868,21.2307692 105.938679,21.6410256 106.568396,21.025641 L106.568396,19.5897436 C105.938679,19.3846154 105.518868,19.3846154 105.099057,19.3846154 Z M100.481132,20.4102564 C100.271226,20.4102564 100.271226,20.6153846 100.061321,20.6153846 C100.271226,21.2307692 100.061321,21.6410256 100.481132,22.2564103 L101.110849,22.2564103 C101.320755,22.0512821 101.320755,21.8461538 101.53066,21.6410256 C101.53066,21.4358974 101.320755,21.025641 101.320755,20.8205128 C101.110849,20.6153846 100.691038,20.6153846 100.481132,20.4102564 Z M132.596698,21.4358974 C131.966981,22.6666667 131.757075,24.1025641 132.386792,24.9230769 C132.806604,25.3333333 132.386792,25.1282051 133.226415,25.3333333 C134.90566,24.3076923 135.955189,21.4358974 132.596698,21.4358974 Z M104.889151,22.4615385 C104.259434,23.8974359 103.839623,25.5384615 104.679245,26.974359 L105.308962,26.974359 C105.728774,26.3589744 105.938679,26.3589744 105.728774,25.5384615 C106.148585,24.5128205 105.938679,23.4871795 105.518868,22.6666667 C105.308962,22.6666667 105.099057,22.6666667 104.889151,22.4615385 Z M100.691038,23.0769231 C100.481132,23.2820513 100.271226,23.6923077 100.061321,23.8974359 C100.271226,24.7179487 100.271226,25.7435897 100.481132,26.5641026 L101.320755,26.5641026 C101.53066,26.3589744 101.740566,26.3589744 101.950472,26.1538462 C102.160377,24.5128205 102.370283,23.2820513 100.691038,23.0769231 Z" id="path" fill="#FFFFFF" fill-rule="nonzero"></path>
    </g>
</svg>