<?xml version="1.0" encoding="UTF-8"?>
<svg width="48px" height="48px" viewBox="0 0 48 48" version="1.1" xmlns="http://www.w3.org/2000/svg" xmlns:xlink="http://www.w3.org/1999/xlink">
    <!-- Generator: Sketch 50.2 (55047) - http://www.bohemiancoding.com/sketch -->
    <title>BCM</title>
    <desc>Created with Sketch.</desc>
    <defs></defs>
    <g id="BCM" stroke="none" stroke-width="1" fill="none" fill-rule="evenodd">
        <g id="交通银行" transform="translate(4.000000, 1.000000)" fill="#1D2088" fill-rule="nonzero">
            <path d="M32.0718659,34.778195 C29.6724752,34.778195 27.1319437,35.0766852 24.732553,35.0766852 C23.180006,42.3896963 9.7716458,40.3002646 11.3241927,31.0470668 C12.0298959,25.6742423 19.2280682,23.2863203 23.4622873,27.3159387 C24.3091311,28.5098997 24.8736936,29.4053704 25.2971155,31.7932925 C27.5553656,31.7932925 30.2370377,31.4948022 32.4952878,31.4948022 C32.4952878,19.7044374 19.9337714,13.7346324 10.6184896,19.4059471 C1.44434834,24.7787716 2.57347343,41.6434707 12.1710366,45.6730891 L12.1710366,45.9715793 C7.08997373,45.9715793 1.16206709,41.6434707 0.0329419973,36.5691365 L0.0329419973,9.4065238 C4.12602041,6.27237617 8.78366129,2.83973831 12.7355991,0.00408092327 C13.0178803,0.00408092327 13.0178803,0.302571162 13.159021,0.302571162 C12.8767397,4.3321895 13.159021,11.1974652 13.4413022,16.1225543 C16.1229743,13.5853873 17.6755213,10.7497299 22.1920216,9.70501404 C25.1559749,8.95878844 27.8376469,9.4065238 29.5313346,10.1527494 C42.5162729,14.9285934 43.3631167,32.6887632 32.2130066,38.8078133 C31.9307253,38.8078133 31.3661627,39.2555487 31.0838815,39.5540389 C31.0838815,39.5540389 31.3661628,39.1063036 31.5073034,38.6585682 C31.3661628,37.4646072 31.648444,35.9721559 32.0718659,34.778195 Z" id="path"></path>
        </g>
    </g>
</svg>