<?xml version="1.0" encoding="UTF-8"?>
<svg width="206px" height="48px" viewBox="0 0 206 48" version="1.1" xmlns="http://www.w3.org/2000/svg" xmlns:xlink="http://www.w3.org/1999/xlink">
    <!-- Generator: Sketch 51 (57462) - http://www.bohemiancoding.com/sketch -->
    <title>BOC-full</title>
    <desc>Created with Sketch.</desc>
    <defs></defs>
    <g id="BOC-full" stroke="none" stroke-width="1" fill="none" fill-rule="evenodd">
        <rect id="@bound" x="0" y="0" width="206" height="48"></rect>
        <path d="M72.2900342,23.1622919 C72.1201039,16.4411887 67.8718445,11.9044441 67.8718445,11.9044441 C61.2445598,4.34320298 52.9179714,5.0153133 52.9179714,5.0153133 C44.0815919,4.67925814 38.4738896,11.4003613 38.6438199,11.5683889 C34.9053517,16.1051336 34.3955605,20.1377955 34.3955605,20.1377955 C32.8661872,27.0269263 36.2647947,32.9078916 36.2647947,32.9078916 C38.8137503,37.4446363 41.5326363,39.6289948 45.9508261,41.6453258 C50.3690158,43.6616567 56.9963005,43.3256016 61.2445598,41.3092706 C65.3228888,39.1249121 67.8718445,36.9405535 70.2508697,32.5718364 C72.629895,28.2031193 72.2900342,23.1622919 72.2900342,23.1622919 Z M51.0487373,38.6208293 C51.0487373,38.6208293 44.0815919,38.2847742 40.1731933,31.563671 C40.1731933,31.563671 36.7745858,26.8588987 38.3039592,20.9779334 C39.6634022,15.0969681 42.8920793,12.744582 43.5718008,12.2404992 C44.2515223,11.5683889 48.3298513,9.04797522 51.2186677,9.2160028 L51.2186677,16.2731612 L48.1599209,16.2731612 C48.1599209,16.2731612 44.0815919,16.4411887 43.9116616,20.9779334 L43.9116616,27.3629814 C43.9116616,27.3629814 44.0815919,31.3956434 48.1599209,31.7316985 L51.0487373,31.7316985 L51.0487373,38.6208293 Z M48.8396424,27.6990366 C48.8396424,27.6990366 48.1599209,27.8670642 47.9899906,27.0269263 L47.9899906,20.8099058 C47.9899906,20.8099058 47.9899906,20.1377955 48.4997817,20.1377955 L57.3361612,20.1377955 C57.3361612,20.1377955 58.0158827,19.9697679 58.1858131,20.8099058 L58.1858131,26.8588987 C58.1858131,26.8588987 58.3557435,27.8670642 57.676022,27.6990366 L48.8396424,27.6990366 Z M65.83268,32.2357813 C62.9438636,36.4364708 57.676022,38.4528017 55.1270663,38.6208293 L55.1270663,31.7316985 L58.5256738,31.7316985 C58.5256738,31.7316985 62.0942117,31.0595882 62.2641421,27.3629814 L62.2641421,19.9697679 C62.2641421,19.9697679 61.754351,16.2731612 57.676022,16.1051336 L55.1270663,16.1051336 L55.1270663,9.2160028 C55.1270663,9.2160028 59.5452561,9.55205796 63.113794,12.9126096 C66.6823318,16.1051336 67.7019141,19.4656852 68.0417748,21.145961 C68.3816356,22.8262368 68.7214963,27.8670642 65.83268,32.2357813 Z M119.491514,25.3466505 L118.981723,25.3466505 C118.471932,26.0187608 117.282419,27.1949539 116.432767,27.531009 C115.073324,26.5228435 113.374021,25.8507332 111.674717,25.1786229 L108.7859,25.1786229 C108.276109,25.0105953 107.086597,24.8425677 106.576806,24.6745402 L106.576806,25.5146781 C106.916666,25.6827056 107.086597,26.5228435 107.086597,27.0269263 C103.348128,26.8588987 104.367711,13.4166923 106.067014,11.4003613 C106.236945,11.5683889 106.236945,11.4003613 106.406875,11.7364165 C106.576806,12.2404992 106.236945,13.4166923 105.897084,13.920775 C105.557223,14.9289405 105.557223,21.4820161 105.897084,22.1541265 L106.067014,22.1541265 C106.067014,21.9860989 106.236945,21.8180713 106.236945,21.6500437 L106.406875,21.6500437 C106.406875,22.4901816 106.576806,24.0024298 107.086597,24.1704574 C107.426457,23.8344023 108.276109,24.1704574 108.7859,23.8344023 C109.635552,23.3303195 112.864229,20.3058231 113.03416,19.2976576 C113.03416,19.2976576 112.864229,19.2976576 112.864229,19.12963 C112.354438,19.4656852 109.295692,21.9860989 108.44604,21.4820161 C108.61597,19.2976576 110.145343,18.4575197 110.825065,16.9452715 L110.655135,16.9452715 C110.315274,17.2813266 110.315274,17.4493542 109.635552,17.4493542 C109.635552,15.7690784 110.485204,15.7690784 110.655135,14.4248578 C110.485204,14.0888026 110.825065,13.920775 110.315274,13.7527475 C110.315274,13.5847199 110.145343,13.5847199 110.145343,13.4166923 C109.805483,13.5847199 109.465622,13.920775 108.955831,13.920775 L108.955831,13.2486647 L109.805483,12.4085268 C109.805483,11.7364165 109.465622,10.3921959 108.955831,9.88811312 C108.955831,9.88811312 108.7859,9.88811312 108.7859,10.0561407 C108.7859,10.728251 108.7859,11.4003613 108.44604,11.7364165 C108.276109,11.7364165 108.276109,11.7364165 108.106179,11.9044441 C108.106179,11.9044441 107.936249,11.9044441 107.936249,11.7364165 C107.596388,11.2323338 107.426457,11.0643062 107.426457,10.2241683 C108.276109,9.72008554 108.61597,8.3758649 109.465622,7.87178216 C110.315274,7.36769942 111.504786,6.86361668 112.354438,6.52756152 C121.190818,3.16700992 120.341166,19.4656852 119.491514,25.3466505 Z M161.124456,6.35953394 C161.294386,7.03164426 161.804177,7.36769942 161.974108,8.03980974 C162.82376,9.88811312 161.974108,11.7364165 161.464317,13.0806371 C159.255222,13.4166923 158.065709,14.5928854 156.706266,15.6010508 C156.706266,15.6010508 156.706266,15.7690784 156.876197,15.7690784 C157.555918,16.1051336 160.104874,16.6092163 159.765013,17.2813266 C159.765013,17.4493542 159.765013,17.7854094 159.934943,17.953437 C158.915361,18.6255473 157.216057,20.3058231 156.706266,21.3139886 C158.40557,21.9860989 160.104874,25.3466505 158.40557,27.0269263 L158.40557,27.1949539 C158.40557,27.1949539 158.23564,27.1949539 158.23564,27.0269263 C157.555918,26.1867884 156.536336,26.1867884 156.366405,24.8425677 C156.706266,24.6745402 156.876197,22.6582092 156.876197,22.322154 C154.327241,22.4901816 154.497171,25.1786229 152.967798,24.0024298 C152.797868,23.8344023 152.458007,23.8344023 152.288076,23.6663747 C152.118146,23.3303195 152.118146,22.9942644 151.778285,22.4901816 C152.118146,21.9860989 152.118146,21.6500437 152.458007,21.145961 C153.477589,19.8017403 155.006962,18.6255473 156.026545,17.2813266 C156.026545,17.1132991 156.026545,17.1132991 155.856614,16.9452715 C154.837032,16.9452715 153.307659,16.4411887 152.967798,15.7690784 C152.967798,15.4330233 152.967798,15.0969681 153.137728,14.7609129 C154.837032,13.7527475 157.385988,10.2241683 158.5755,8.54389248 C159.255222,7.70375458 159.425152,6.6955891 160.274804,6.19150636 C160.274804,6.35953394 160.784595,6.35953394 161.124456,6.35953394 Z M96.0411223,16.6092163 C96.380983,16.6092163 96.5509134,16.6092163 96.8907741,16.7772439 L96.8907741,16.9452715 C96.7208438,17.6173818 96.380983,17.7854094 96.380983,18.6255473 C95.8711919,18.6255473 95.5313311,18.9616024 95.1914704,19.2976576 C94.5117489,19.9697679 94.0019578,24.338485 93.4921666,25.5146781 C92.8124451,26.8588987 93.8320274,28.3711469 93.1523059,29.0432573 C92.4725844,29.2112848 92.302654,29.54734 91.6229325,29.7153676 C91.6229325,29.54734 91.6229325,29.3793124 91.4530021,29.2112848 C90.4334199,28.0350918 91.2830718,25.6827056 90.4334199,24.8425677 C90.4334199,24.8425677 90.2634895,24.8425677 90.2634895,25.0105953 C90.2634895,26.5228435 90.0935591,28.2031193 90.6033503,29.0432573 C90.7732806,29.54734 91.2830718,29.54734 91.4530021,30.3874779 L90.943211,30.3874779 C89.583768,27.6990366 89.9236288,24.338485 89.0739769,21.145961 L88.9040465,21.145961 C88.7341161,21.145961 88.5641857,21.145961 88.3942554,21.3139886 C88.3942554,22.1541265 88.224325,22.322154 87.5446035,22.322154 C86.864882,21.9860989 86.0152301,21.8180713 85.3355086,21.3139886 C83.8061352,20.1377955 82.6166226,16.7772439 82.9564834,14.5928854 L83.4662745,14.5928854 L85.505439,16.6092163 C85.6753694,16.6092163 85.8452997,16.6092163 86.0152301,16.4411887 C87.2047427,15.6010508 88.224325,14.7609129 89.4138376,13.920775 C89.4138376,11.2323338 89.4138376,9.04797522 90.2634895,7.19967184 L91.1131414,7.19967184 C92.6425148,8.20783732 93.8320274,9.55205796 94.3418185,11.4003613 C95.8711919,11.4003613 97.2306349,10.3921959 99.099869,10.8962786 C99.4397298,13.2486647 96.380983,14.7609129 96.0411223,16.6092163 Z M112.524369,24.6745402 C114.053742,24.6745402 116.772628,25.3466505 117.45235,25.1786229 C121.020887,23.1622919 118.811793,9.2160028 116.262837,7.70375458 C113.883812,6.35953394 109.635552,8.71192006 109.125761,9.88811312 C109.805483,10.2241683 110.145343,11.0643062 110.315274,11.7364165 C111.334856,11.7364165 111.504786,11.2323338 112.524369,11.0643062 C112.694299,11.2323338 112.694299,11.4003613 112.864229,11.5683889 C112.864229,12.744582 112.014578,13.4166923 111.504786,14.2568302 C112.354438,14.7609129 113.713881,16.2731612 113.713881,17.953437 C113.20409,18.1214645 113.03416,18.2894921 113.374021,18.7935749 C114.393603,17.953437 115.243255,16.2731612 115.922976,15.0969681 C115.922976,15.0969681 116.092907,15.0969681 116.092907,15.2649957 L116.432767,15.6010508 C116.262837,17.2813266 114.733464,18.4575197 113.713881,19.4656852 L113.713881,20.1377955 C114.223672,20.4738507 114.563533,20.8099058 115.413185,20.9779334 C115.922976,20.1377955 116.092907,19.2976576 116.602698,18.1214645 L116.772628,18.1214645 C116.772628,19.9697679 116.262837,20.8099058 115.753046,21.9860989 C116.262837,21.9860989 116.602698,21.9860989 117.112489,22.1541265 L117.112489,23.1622919 C116.432767,23.6663747 116.772628,24.338485 115.243255,24.338485 C115.073324,24.0024298 113.20409,24.338485 112.524369,24.6745402 C112.524369,24.338485 112.524369,24.5065126 112.524369,24.6745402 Z M126.62859,21.9860989 C126.118799,21.9860989 125.948868,21.9860989 125.609008,21.6500437 L125.609008,19.8017403 C127.138381,19.6337128 127.308311,17.2813266 127.988033,16.1051336 C129.347476,13.2486647 130.536988,9.55205796 132.576153,7.36769942 L133.085944,7.36769942 C133.595735,8.03980974 134.445387,8.3758649 134.615317,9.38403038 C133.595735,9.88811312 131.896431,10.3921959 131.38664,11.4003613 C130.027197,13.5847199 126.62859,19.4656852 126.62859,21.9860989 Z M137.334203,20.3058231 C137.334203,18.1214645 138.353786,17.6173818 138.863577,16.1051336 L138.353786,16.1051336 C138.183855,16.4411887 137.843995,16.4411887 137.504134,16.7772439 C136.824412,18.1214645 136.654482,19.4656852 136.654482,20.8099058 L136.994343,20.8099058 C137.674064,19.8017403 140.22302,20.9779334 141.412532,20.4738507 C142.941906,19.9697679 143.281767,18.6255473 145.151001,18.6255473 L145.151001,18.7935749 L144.81114,19.12963 C144.64121,19.6337128 144.301349,19.8017403 143.791558,19.8017403 C143.621627,20.6418782 142.771975,21.6500437 142.262184,22.322154 C143.281767,23.3303195 146.680374,23.8344023 148.209747,24.6745402 L147.869887,25.0105953 L147.869887,25.1786229 C146.340513,25.1786229 144.64121,26.1867884 143.111836,25.5146781 C142.432115,25.1786229 142.092254,24.5065126 140.732811,24.5065126 C140.053089,25.6827056 138.353786,27.531009 136.654482,27.531009 C135.97476,27.0269263 135.464969,26.8588987 134.785248,26.354816 C134.785248,25.6827056 134.785248,25.0105953 134.615317,24.338485 L134.105526,24.338485 C133.425805,26.5228435 130.536988,26.8588987 128.837685,27.8670642 C128.667754,27.3629814 128.667754,26.8588987 128.497824,26.354816 C129.007615,26.0187608 129.517406,25.5146781 129.857267,25.0105953 C129.857267,24.8425677 129.857267,24.8425677 129.687337,24.6745402 C129.177545,24.6745402 129.007615,24.6745402 128.837685,24.338485 C129.857267,24.338485 130.027197,24.0024298 129.857267,23.1622919 C129.857267,23.1622919 129.857267,22.9942644 129.687337,22.9942644 C129.687337,22.9942644 129.517406,22.9942644 129.517406,23.1622919 C129.007615,23.8344023 127.988033,25.6827056 126.968451,25.8507332 C126.79852,25.3466505 126.458659,25.3466505 126.288729,24.6745402 C126.288729,24.6745402 126.288729,24.5065126 126.458659,24.5065126 C127.648172,24.338485 128.327894,23.1622919 129.347476,22.4901816 C129.347476,22.4901816 129.347476,22.322154 129.177545,22.322154 L128.667754,22.322154 C128.497824,20.4738507 128.157963,19.9697679 129.517406,18.7935749 C129.517406,17.953437 129.177545,17.6173818 128.837685,17.1132991 C129.517406,16.6092163 130.197128,16.2731612 130.876849,15.7690784 C131.21671,16.1051336 131.556571,16.6092163 132.066362,16.9452715 L132.066362,17.2813266 C131.726501,17.7854094 131.04678,17.953437 130.706919,18.4575197 C130.706919,18.7935749 130.706919,19.2976576 130.876849,19.6337128 L131.21671,19.6337128 C131.38664,19.2976576 131.38664,19.12963 132.066362,19.12963 C132.066362,18.7935749 132.066362,18.7935749 132.236292,18.6255473 L132.406223,18.6255473 C132.576153,19.12963 132.576153,19.6337128 132.746083,20.1377955 C132.406223,20.3058231 132.066362,20.6418782 131.896431,20.9779334 L133.765666,20.9779334 C133.935596,21.3139886 134.105526,21.3139886 134.105526,21.9860989 C133.425805,22.4901816 131.04678,25.0105953 130.706919,25.6827056 L130.876849,25.6827056 L131.04678,25.8507332 C132.746083,25.3466505 134.105526,23.6663747 135.125109,22.4901816 C135.125109,20.3058231 135.295039,18.2894921 135.97476,16.6092163 C136.314621,15.7690784 135.97476,15.0969681 136.144691,14.4248578 C136.484552,13.4166923 137.164273,12.4085268 137.504134,11.2323338 C138.013925,11.2323338 138.013925,11.4003613 138.523716,11.4003613 L138.863577,11.0643062 L138.863577,10.5602234 L139.373368,10.5602234 C139.883159,9.72008554 141.412532,9.55205796 141.582463,8.54389248 C141.922324,8.54389248 142.262184,8.54389248 142.602045,8.3758649 C142.771975,9.2160028 140.732811,16.2731612 140.053089,17.1132991 C139.543298,17.2813266 139.203438,17.4493542 138.693646,17.6173818 C138.523716,17.953437 138.523716,18.2894921 138.353786,18.6255473 L138.523716,18.7935749 C139.033507,18.4575197 139.543298,18.2894921 140.053089,18.1214645 C140.053089,17.6173818 139.883159,17.2813266 140.22302,17.1132991 C140.39295,17.4493542 140.562881,17.7854094 140.902741,18.1214645 C140.902741,18.4575197 140.902741,18.6255473 140.732811,18.9616024 C139.373368,18.9616024 138.693646,20.1377955 137.334203,20.3058231 Z M139.373368,10.8962786 C139.203438,12.2404992 137.674064,13.2486647 138.183855,14.9289405 L138.693646,14.9289405 C139.373368,14.2568302 140.22302,13.5847199 140.902741,12.9126096 C141.072672,11.7364165 141.412532,10.728251 141.582463,9.55205796 L141.412532,9.38403038 L141.072672,9.72008554 C140.562881,10.0561407 140.053089,10.8962786 139.373368,10.8962786 Z M113.20409,10.728251 C114.733464,10.728251 114.903394,11.4003613 116.092907,11.5683889 C116.092907,13.0806371 115.583115,13.7527475 114.053742,13.5847199 C113.543951,12.744582 113.20409,12.0724717 113.20409,10.728251 Z M134.445387,11.2323338 L134.955178,12.744582 C133.935596,12.744582 133.595735,13.4166923 132.746083,13.5847199 L132.576153,13.4166923 C132.576153,13.0806371 132.746083,11.2323338 133.085944,11.0643062 C133.255874,10.8962786 133.425805,10.8962786 133.765666,10.8962786 C134.105526,11.2323338 134.105526,11.2323338 134.445387,11.2323338 Z M169.790905,11.5683889 C169.960835,11.5683889 170.130766,11.5683889 170.300696,11.7364165 C170.300696,11.7364165 170.300696,11.9044441 170.130766,11.9044441 C169.620975,12.2404992 169.451044,12.744582 169.281114,13.2486647 C166.562228,13.2486647 164.692994,14.2568302 163.16362,15.6010508 L162.82376,15.6010508 L162.483899,15.2649957 C162.483899,14.5928854 162.313969,14.5928854 162.144038,14.0888026 C162.483899,13.920775 162.483899,13.5847199 162.82376,13.2486647 C164.013272,14.2568302 166.052437,12.5765544 167.072019,12.0724717 C168.091601,11.7364165 168.941253,11.9044441 169.790905,11.5683889 Z M96.380983,11.5683889 C95.1914704,12.744582 93.662097,12.744582 94.5117489,15.7690784 L95.02154,15.7690784 C95.3614008,14.9289405 97.0607045,12.744582 97.5704956,11.9044441 L97.0607045,11.4003613 C96.8907741,11.5683889 96.7208438,11.5683889 96.380983,11.5683889 Z M110.994995,12.744582 L110.994995,13.2486647 L111.504786,13.2486647 L111.504786,12.744582 L110.994995,12.744582 Z M166.732158,18.4575197 C166.732158,19.12963 166.392298,21.145961 166.562228,21.6500437 C167.241949,22.9942644 167.41188,25.6827056 167.41188,27.6990366 C166.562228,28.2031193 166.222367,28.8752297 164.862924,28.8752297 C164.523063,28.2031193 164.353133,27.1949539 163.673412,26.8588987 C162.653829,26.1867884 160.954526,25.8507332 160.444734,24.5065126 L161.124456,24.5065126 C161.634247,25.5146781 163.503481,25.8507332 164.862924,25.8507332 C165.202785,24.0024298 165.542646,20.3058231 165.032855,18.2894921 C165.032855,18.2894921 164.862924,18.2894921 164.862924,18.4575197 C164.523063,18.7935749 161.294386,20.6418782 160.614665,20.6418782 C160.614665,20.6418782 160.444734,20.6418782 160.444734,20.4738507 L160.444734,19.4656852 C163.843342,17.953437 167.241949,15.6010508 171.660139,15.4330233 C171.83007,15.7690784 171.83007,15.7690784 172,16.2731612 C170.640557,16.9452715 166.902089,17.4493542 166.052437,18.2894921 L166.052437,18.4575197 L166.392298,18.7935749 C166.392298,18.4575197 166.562228,18.4575197 166.732158,18.4575197 Z M89.7536984,15.937106 C88.9040465,15.937106 87.5446035,16.7772439 87.5446035,17.953437 C87.8844642,18.4575197 88.224325,19.12963 88.7341161,19.6337128 C89.2439072,19.4656852 89.583768,18.9616024 89.9236288,18.6255473 C89.7536984,17.7854094 89.7536984,16.9452715 89.7536984,15.937106 Z M113.03416,17.7854094 L113.03416,17.2813266 C112.694299,17.1132991 112.524369,16.9452715 112.184508,16.7772439 L112.184508,17.6173818 C112.524369,17.6173818 112.524369,17.7854094 113.03416,17.7854094 Z M109.805483,19.6337128 C110.825065,19.6337128 111.674717,18.9616024 112.184508,18.4575197 L112.184508,17.953437 C111.844647,17.7854094 111.844647,17.4493542 111.504786,17.1132991 C110.825065,17.7854094 109.805483,18.7935749 109.805483,19.6337128 Z M130.367058,19.6337128 C130.367058,19.6337128 130.367058,19.8017403 130.367058,19.6337128 C130.367058,19.8017403 130.536988,19.8017403 130.706919,19.9697679 L130.706919,19.8017403 C130.536988,19.8017403 130.536988,19.8017403 130.367058,19.6337128 Z M130.197128,19.9697679 C130.197128,19.9697679 130.027197,19.9697679 130.197128,19.9697679 C130.197128,20.1377955 130.197128,20.1377955 130.367058,20.3058231 C130.367058,20.3058231 130.536988,20.3058231 130.536988,20.1377955 C130.367058,19.9697679 130.197128,19.9697679 130.197128,19.9697679 Z M113.03416,20.1377955 C112.354438,21.6500437 110.315274,22.1541265 109.635552,23.6663747 L110.825065,23.6663747 C111.844647,22.9942644 114.393603,22.4901816 115.413185,22.1541265 L115.413185,21.8180713 C115.413185,21.8180713 115.413185,21.6500437 115.243255,21.6500437 C114.053742,21.6500437 114.053742,20.4738507 113.03416,20.1377955 Z M141.922324,21.145961 C141.752393,21.4820161 141.412532,21.4820161 141.072672,21.8180713 C141.242602,22.1541265 141.242602,22.1541265 141.752393,22.322154 L141.922324,22.322154 C142.092254,21.9860989 142.432115,21.6500437 142.602045,21.145961 L141.922324,21.145961 Z M133.085944,21.4820161 L132.406223,21.4820161 C131.726501,21.8180713 131.38664,21.9860989 131.38664,23.1622919 L131.556571,23.3303195 C132.066362,22.9942644 132.916014,22.322154 133.085944,21.4820161 Z M140.39295,24.338485 C140.39295,23.8344023 140.39295,23.8344023 140.732811,23.6663747 C139.883159,22.9942644 138.183855,22.1541265 136.824412,21.9860989 L136.654482,22.1541265 C136.484552,24.1704574 136.144691,24.6745402 137.334203,26.0187608 C138.013925,25.5146781 139.373368,24.5065126 140.39295,24.338485 Z M92.4725844,24.5065126 C92.302654,24.5065126 92.1327236,24.5065126 91.7928629,24.6745402 C91.7928629,25.8507332 91.6229325,26.8588987 91.6229325,28.0350918 C91.9627933,28.2031193 91.7928629,28.2031193 92.1327236,28.3711469 C92.302654,28.3711469 92.4725844,28.3711469 92.6425148,28.2031193 C92.4725844,27.1949539 92.4725844,25.8507332 92.4725844,24.5065126 Z M130.706919,25.5146781 C130.536988,25.5146781 130.536988,25.6827056 130.367058,25.6827056 C130.367058,25.6827056 130.367058,25.8507332 130.536988,25.8507332 C130.876849,25.8507332 130.876849,25.8507332 131.04678,25.6827056 C130.876849,25.5146781 130.876849,25.5146781 130.706919,25.5146781 Z M88.3942554,37.4446363 L88.7341161,37.4446363 C89.2439072,37.4446363 89.583768,37.2766087 89.7536984,37.1085811 C89.9236288,36.9405535 90.0935591,36.4364708 90.0935591,35.932388 C90.0935591,35.2602777 89.9236288,34.9242226 89.7536984,34.756195 C89.583768,34.5881674 89.2439072,34.4201398 88.7341161,34.4201398 L88.3942554,34.4201398 L88.3942554,37.4446363 Z M88.3942554,41.141243 L88.9040465,41.141243 C89.4138376,41.141243 89.7536984,40.9732154 90.0935591,40.8051879 C90.2634895,40.6371603 90.4334199,40.1330775 90.4334199,39.4609672 C90.4334199,38.7888569 90.2634895,38.2847742 90.0935591,37.948719 C89.9236288,37.6126638 89.4138376,37.6126638 88.9040465,37.6126638 L88.5641857,37.6126638 L88.5641857,41.141243 L88.3942554,41.141243 Z M85.6753694,41.3092706 L85.6753694,41.141243 L86.3550909,41.141243 L86.3550909,34.4201398 L85.6753694,34.4201398 L85.6753694,34.2521122 L90.2634895,34.2521122 C90.6033503,34.2521122 90.7732806,34.4201398 90.943211,34.4201398 C91.2830718,34.5881674 91.4530021,34.756195 91.6229325,34.9242226 C91.7928629,35.0922501 91.7928629,35.4283053 91.7928629,35.5963329 C91.7928629,36.1004156 91.6229325,36.4364708 91.2830718,36.7725259 C90.943211,37.1085811 90.2634895,37.2766087 89.583768,37.4446363 C90.4334199,37.4446363 91.1131414,37.7806914 91.6229325,38.1167466 C92.1327236,38.4528017 92.302654,38.9568845 92.302654,39.4609672 C92.302654,39.7970224 92.1327236,40.1330775 91.9627933,40.4691327 C91.7928629,40.8051879 91.4530021,40.9732154 90.943211,41.141243 C90.7732806,41.141243 90.6033503,41.3092706 90.2634895,41.3092706 L85.6753694,41.3092706 Z M94.3418185,38.7888569 L96.0411223,38.7888569 L95.1914704,36.4364708 L94.3418185,38.7888569 Z M92.9823755,41.3092706 L92.9823755,41.141243 L93.3222363,41.141243 C93.3222363,41.141243 93.4921666,40.9732154 93.4921666,40.8051879 L95.7012615,34.2521122 L96.380983,34.2521122 L98.7600083,41.141243 L99.099869,41.141243 L99.099869,41.3092706 L96.2110526,41.3092706 L96.2110526,41.141243 L96.7208438,41.141243 L95.8711919,39.1249121 L94.1718881,39.1249121 L93.662097,40.4691327 L93.662097,40.8051879 C93.662097,40.9732154 93.662097,40.9732154 93.8320274,41.141243 L94.1718881,41.141243 L94.1718881,41.3092706 L92.9823755,41.3092706 Z M99.7795905,34.4201398 L99.6096601,34.4201398 L99.6096601,34.2521122 L101.988685,34.2521122 L105.557223,39.2929396 L105.557223,35.2602777 C105.557223,34.9242226 105.557223,34.756195 105.387293,34.5881674 C105.387293,34.4201398 105.217363,34.4201398 104.877502,34.4201398 L104.707571,34.4201398 L104.707571,34.2521122 L106.406875,34.2521122 L106.406875,34.4201398 L106.236945,34.4201398 L106.067014,34.4201398 C105.897084,34.4201398 105.727154,34.4201398 105.557223,34.5881674 C105.557223,34.756195 105.387293,34.9242226 105.387293,35.2602777 L105.387293,41.3092706 L104.19778,41.3092706 L100.289382,35.7643605 L100.289382,40.4691327 C100.289382,40.8051879 100.289382,40.9732154 100.459312,41.141243 C100.459312,41.3092706 100.629242,41.3092706 100.969103,41.3092706 L101.308964,41.3092706 L101.308964,41.4772982 L99.6096601,41.4772982 L99.6096601,41.3092706 L99.7795905,41.3092706 C99.9495209,41.3092706 100.119451,41.3092706 100.289382,41.141243 C100.289382,40.9732154 100.459312,40.8051879 100.459312,40.4691327 L100.459312,35.5963329 L99.7795905,34.4201398 Z M107.426457,41.3092706 L108.106179,41.141243 L108.106179,34.4201398 L107.426457,34.4201398 L107.426457,34.2521122 L110.825065,34.2521122 L110.825065,34.4201398 L110.145343,34.4201398 L110.145343,37.6126638 L112.694299,35.2602777 L112.864229,35.0922501 L112.864229,34.9242226 C112.864229,34.756195 112.864229,34.756195 112.694299,34.756195 L112.184508,34.756195 L112.184508,34.5881674 L114.393603,34.5881674 L114.393603,34.756195 C114.053742,34.756195 113.883812,34.756195 113.543951,34.9242226 C113.374021,35.0922501 113.03416,35.2602777 112.694299,35.4283053 L111.334856,36.6044984 L114.223672,41.3092706 L114.733464,41.3092706 L114.733464,41.4772982 L111.334856,41.4772982 L111.334856,41.3092706 L111.844647,41.3092706 L109.975413,37.948719 L109.805483,38.1167466 L109.805483,41.4772982 L110.485204,41.4772982 L110.485204,41.6453258 L107.426457,41.6453258 L107.426457,41.3092706 Z M120.001305,37.7806914 C120.001305,39.1249121 120.171236,40.1330775 120.341166,40.6371603 C120.511096,41.141243 120.850957,41.3092706 121.360748,41.3092706 C121.870539,41.3092706 122.2104,41.141243 122.38033,40.6371603 C122.550261,40.1330775 122.720191,39.2929396 122.720191,37.7806914 C122.720191,36.4364708 122.550261,35.4283053 122.38033,34.9242226 C122.2104,34.4201398 121.870539,34.2521122 121.360748,34.2521122 C120.850957,34.2521122 120.511096,34.4201398 120.341166,34.9242226 C120.171236,35.4283053 120.001305,36.4364708 120.001305,37.7806914 Z M117.962141,37.7806914 C117.962141,37.2766087 117.962141,36.7725259 118.132071,36.2684432 C118.302001,35.7643605 118.641862,35.4283053 118.981723,35.0922501 C119.321584,34.756195 119.661444,34.4201398 120.171236,34.2521122 C120.511096,34.0840847 121.020887,33.9160571 121.530679,33.9160571 C122.04047,33.9160571 122.38033,34.0840847 122.890122,34.2521122 C123.229982,34.4201398 123.739773,34.756195 124.079634,35.0922501 C124.419495,35.4283053 124.759356,35.932388 124.929286,36.2684432 C125.099216,36.7725259 125.269147,37.1085811 125.269147,37.7806914 C125.269147,38.2847742 125.099216,38.7888569 124.929286,39.2929396 C124.759356,39.7970224 124.419495,40.1330775 124.079634,40.4691327 C123.739773,40.8051879 123.399913,41.141243 122.890122,41.3092706 C122.550261,41.4772982 122.04047,41.6453258 121.530679,41.6453258 C121.020887,41.6453258 120.681027,41.4772982 120.171236,41.3092706 C119.831375,41.141243 119.321584,40.8051879 118.981723,40.4691327 C118.641862,40.1330775 118.302001,39.6289948 118.132071,39.2929396 C117.962141,38.7888569 117.962141,38.2847742 117.962141,37.7806914 Z M126.118799,41.3092706 L126.79852,41.141243 L126.79852,34.4201398 L126.118799,34.4201398 L126.118799,34.2521122 L131.896431,34.2521122 L131.896431,36.1004156 L131.726501,36.1004156 C131.556571,35.4283053 131.38664,35.0922501 131.04678,34.756195 C130.706919,34.5881674 130.197128,34.4201398 129.517406,34.4201398 L128.837685,34.4201398 L128.837685,37.6126638 L129.517406,37.6126638 C130.027197,37.6126638 130.367058,37.4446363 130.536988,37.2766087 C130.706919,37.1085811 130.876849,36.7725259 130.876849,36.2684432 L131.04678,36.2684432 L131.04678,38.9568845 L130.876849,38.9568845 C130.876849,38.4528017 130.706919,38.1167466 130.536988,37.948719 C130.367058,37.7806914 129.857267,37.6126638 129.347476,37.6126638 L128.837685,37.6126638 L128.837685,40.9732154 L129.517406,40.9732154 L129.517406,41.141243 L126.118799,41.141243 L126.118799,41.3092706 Z M141.412532,39.1249121 L141.582463,41.3092706 L141.412532,41.3092706 C141.412532,41.141243 141.412532,41.141243 141.242602,40.9732154 L141.072672,40.8051879 L140.39295,41.141243 C139.883159,41.3092706 139.543298,41.4772982 139.033507,41.4772982 C138.523716,41.4772982 138.013925,41.4772982 137.674064,41.3092706 C137.164273,41.141243 136.824412,40.9732154 136.484552,40.6371603 C136.144691,40.3011051 135.80483,39.96505 135.6349,39.4609672 C135.464969,38.9568845 135.295039,38.6208293 135.295039,38.1167466 C135.295039,37.6126638 135.464969,36.9405535 135.6349,36.4364708 C135.80483,35.932388 136.144691,35.4283053 136.654482,35.0922501 C136.994343,34.756195 137.334203,34.5881674 137.674064,34.4201398 C138.013925,34.2521122 138.523716,34.2521122 138.863577,34.2521122 C139.373368,34.2521122 139.713229,34.4201398 140.22302,34.5881674 C140.732811,34.756195 140.902741,34.9242226 140.902741,34.9242226 C141.072672,34.9242226 141.072672,34.9242226 141.072672,34.756195 C141.072672,34.756195 141.072672,34.5881674 141.242602,34.5881674 L141.412532,34.5881674 L141.412532,36.7725259 L141.242602,36.7725259 C141.072672,36.1004156 140.732811,35.4283053 140.39295,35.0922501 C140.053089,34.756195 139.543298,34.5881674 139.033507,34.5881674 C138.863577,34.5881674 138.523716,34.5881674 138.353786,34.756195 C138.183855,34.9242226 138.013925,34.9242226 137.843995,35.0922501 C137.674064,35.2602777 137.504134,35.5963329 137.504134,35.932388 C137.504134,36.2684432 137.334203,36.9405535 137.334203,37.7806914 L137.334203,39.6289948 C137.334203,39.96505 137.504134,40.3011051 137.504134,40.4691327 C137.674064,40.8051879 137.843995,40.9732154 138.013925,41.141243 C138.183855,41.3092706 138.523716,41.3092706 138.863577,41.3092706 C139.543298,41.3092706 140.053089,41.141243 140.39295,40.8051879 C141.072672,40.3011051 141.412532,39.7970224 141.412532,39.1249121 Z M142.941906,41.3092706 L143.621627,41.141243 L143.621627,34.4201398 L142.941906,34.4201398 L142.941906,34.2521122 L146.340513,34.2521122 L146.340513,34.4201398 L145.660792,34.4201398 L145.660792,37.6126638 L147.699956,37.6126638 L147.699956,34.4201398 L147.020235,34.4201398 L147.020235,34.2521122 L150.418842,34.2521122 L150.418842,34.4201398 L149.739121,34.4201398 L149.739121,41.141243 L150.418842,41.141243 L150.418842,41.3092706 L147.020235,41.3092706 L147.020235,41.141243 L147.699956,41.141243 L147.699956,37.7806914 L145.660792,37.7806914 L145.660792,41.141243 L146.340513,41.141243 L146.340513,41.3092706 L142.941906,41.3092706 Z M151.268494,41.3092706 L151.948216,41.141243 L151.948216,34.4201398 L151.268494,34.4201398 L151.268494,34.2521122 L154.667102,34.2521122 L154.667102,34.4201398 L153.98738,34.4201398 L153.98738,41.141243 L154.667102,41.141243 L154.667102,41.3092706 L151.268494,41.3092706 Z M155.856614,34.4201398 L155.686684,34.4201398 L155.686684,34.2521122 L158.065709,34.2521122 L161.634247,39.2929396 L161.634247,35.2602777 C161.634247,34.9242226 161.634247,34.756195 161.464317,34.5881674 C161.464317,34.4201398 161.294386,34.4201398 160.954526,34.4201398 L160.784595,34.4201398 L160.784595,34.2521122 L162.483899,34.2521122 L162.483899,34.4201398 L162.313969,34.4201398 L162.144038,34.4201398 C161.974108,34.4201398 161.804177,34.4201398 161.634247,34.5881674 C161.634247,34.756195 161.464317,34.9242226 161.464317,35.2602777 L161.464317,41.3092706 L160.274804,41.3092706 L156.366405,35.7643605 L156.366405,40.4691327 C156.366405,40.8051879 156.366405,40.9732154 156.536336,41.141243 C156.536336,41.3092706 156.706266,41.3092706 157.046127,41.3092706 L157.385988,41.3092706 L157.385988,41.4772982 L155.686684,41.4772982 L155.686684,41.3092706 L155.856614,41.3092706 C156.026545,41.3092706 156.196475,41.3092706 156.366405,41.141243 C156.366405,40.9732154 156.536336,40.8051879 156.536336,40.4691327 L156.536336,35.5963329 L155.856614,34.4201398 Z M164.353133,38.7888569 L166.052437,38.7888569 L165.202785,36.4364708 L164.353133,38.7888569 Z M162.99369,41.3092706 L162.99369,41.141243 L163.333551,41.141243 C163.333551,41.141243 163.503481,40.9732154 163.503481,40.8051879 L165.712576,34.2521122 L166.392298,34.2521122 L168.771323,41.141243 L169.111184,41.141243 L169.111184,41.3092706 L166.222367,41.3092706 L166.222367,41.141243 L166.732158,41.141243 L165.882506,39.1249121 L164.183203,39.1249121 L163.673412,40.4691327 L163.673412,40.8051879 C163.673412,40.9732154 163.673412,40.9732154 163.843342,41.141243 L164.183203,41.141243 L164.183203,41.3092706 L162.99369,41.3092706 Z" id="path" fill="#FFFFFF" fill-rule="nonzero"></path>
    </g>
</svg>