<?xml version="1.0" encoding="UTF-8"?>
<svg width="48px" height="48px" viewBox="0 0 48 48" version="1.1" xmlns="http://www.w3.org/2000/svg" xmlns:xlink="http://www.w3.org/1999/xlink">
    <!-- Generator: Sketch 51 (57462) - http://www.bohemiancoding.com/sketch -->
    <title>BOC</title>
    <desc>Created with Sketch.</desc>
    <defs></defs>
    <g id="BOC" stroke="none" stroke-width="1" fill="none" fill-rule="evenodd">
        <g id="中国银行" transform="translate(2.000000, 2.000000)" fill="#B81C22" fill-rule="nonzero">
            <path d="M43.9386955,21.0549146 C43.7840754,13.3239075 38.8362309,8.06682272 38.8362309,8.06682272 C31.2598439,-0.746525341 21.6733951,0.0265753406 21.6733951,0.0265753406 C11.6230859,-0.437285068 5.12904002,7.44834212 5.28366015,7.60296226 C0.954296218,12.8600471 0.490435749,17.4986513 0.490435749,17.4986513 C-1.21038581,25.5388987 2.65511772,32.3421849 2.65511772,32.3421849 C5.59290043,37.5992697 8.68530321,40.0731919 13.7877679,42.3924941 C18.8902326,44.7117962 26.4666195,44.4025559 31.2598439,41.9286337 C35.8984482,39.4547115 38.8362309,36.826169 41.6193934,31.8783245 C44.402556,26.9304799 43.9386955,21.0549146 43.9386955,21.0549146 Z M19.6633333,38.990851 C19.6633333,38.990851 11.6230859,38.5269906 7.29372198,30.7959835 C7.29372198,30.7959835 3.42821846,25.3842785 5.12904002,18.5809923 C6.67524144,11.7777061 10.3861248,8.9945436 11.1592255,8.53068313 C11.9323262,7.75758245 16.5709305,4.81979974 19.9725736,4.97441988 L19.9725736,13.1692873 L16.4163103,13.1692873 C16.4163103,13.1692873 11.7777061,13.3239075 11.623086,18.5809923 L11.623086,26.0027591 C11.623086,26.0027591 11.7777061,30.6413634 16.4163103,31.1052238 L19.6633333,31.1052238 L19.6633333,38.990851 Z M17.1894111,26.3119994 C17.1894111,26.3119994 16.4163104,26.4666195 16.2616902,25.5388987 L16.2616902,18.271752 C16.2616902,18.271752 16.2616902,17.4986513 16.8801708,17.4986513 L26.9304799,17.4986513 C26.9304799,17.4986513 27.7035806,17.3440312 27.8582008,18.271752 L27.8582008,25.2296584 C27.8582008,25.2296584 28.012821,26.4666195 27.2397202,26.1573793 L17.1894111,26.3119994 Z M36.5169288,31.5690842 C33.2699058,36.3623086 27.2397203,38.8362309 24.3019376,38.990851 L24.3019376,30.9506037 L28.1674411,30.9506037 C28.1674411,30.9506037 32.1875648,30.177503 32.496805,25.848139 L32.496805,17.3440312 C32.496805,17.3440312 31.8783245,13.0146673 27.2397202,12.8600471 L24.3019376,12.8600471 L24.3019376,4.81979974 C24.3019376,4.81979974 29.4044022,5.28366015 33.4245259,9.14916368 C37.4446496,12.8600471 38.6816107,16.7255506 38.990851,18.7356125 C39.4547114,20.7456743 39.9185719,26.4666195 36.5169288,31.5690842 Z" id="path"></path>
        </g>
    </g>
</svg>