<?xml version="1.0" encoding="UTF-8"?>
<svg width="206px" height="48px" viewBox="0 0 206 48" version="1.1" xmlns="http://www.w3.org/2000/svg" xmlns:xlink="http://www.w3.org/1999/xlink">
    <!-- Generator: Sketch 51 (57462) - http://www.bohemiancoding.com/sketch -->
    <title>CCB-full</title>
    <desc>Created with Sketch.</desc>
    <defs></defs>
    <g id="CCB-full" stroke="none" stroke-width="1" fill="none" fill-rule="evenodd">
        <rect id="@bound" x="0" y="0" width="206" height="48"></rect>
        <path d="M32.6404919,8.15392237 C32.6404919,8.15392237 35.5841094,5.97228789 40.73544,7.60851375 C40.73544,7.60851375 42.3912248,8.15392237 44.4149618,9.9719511 L50.4861729,16.3350517 L47.1746032,19.6075034 L37.7918225,10.153754 C37.7918225,9.9719511 36.3200137,8.15392237 32.6404919,8.15392237 Z M46.0707467,20.5165177 L42.2072487,24.1525752 C42.2072487,24.1525752 41.6553204,25.0615896 41.1033922,24.1525752 L33.9283245,17.244066 C33.9283245,17.244066 33.3763963,16.3350517 32.824468,17.0622631 L25.6494004,24.3343781 C25.6494004,24.3343781 25.0974721,25.0615896 25.8333765,25.4251953 L32.824468,32.3337045 C32.824468,32.3337045 33.3763963,33.2427188 33.9283245,32.5155073 L41.1033922,25.2433924 C41.1033922,25.2433924 41.2873682,24.6979838 42.3912248,24.6979838 L49.7502685,24.6979838 C49.7502685,24.6979838 50.1182207,32.1519016 44.4149618,36.6969734 C44.4149618,36.6969734 37.0559181,43.9690883 26.7532569,39.6058194 C26.7532569,39.6058194 16.8185479,36.1515648 17.002524,23.6071666 C17.002524,23.6071666 17.1865001,15.2442344 25.0974721,10.6991626 C25.0974721,10.6991626 30.800731,6.51769651 35.2161572,9.60834535 L46.0707467,20.5165177 Z M150.843135,13.5895741 C151.429296,13.7826531 152.210844,14.168811 152.797005,14.36189 C152.601618,14.7480479 152.601618,15.1342059 152.406231,15.5203638 L155.72781,15.5203638 L155.72781,16.8719166 C153.969327,16.8719166 152.210844,16.2926797 151.038522,17.2580745 C151.038522,17.4511535 150.843135,17.6442325 150.843135,17.6442325 L150.843135,17.8373114 L155.532423,17.8373114 L155.532423,19.1888642 L152.797005,19.1888642 L152.797005,20.3473381 C153.77394,20.3473381 154.750875,20.540417 155.72781,20.540417 C155.72781,21.1196539 155.72781,21.6988909 155.532423,21.8919698 C154.750875,21.6988909 152.992392,21.5058119 152.601618,22.2781278 C152.797005,22.8573647 152.406231,24.0158385 152.797005,24.7881544 C153.77394,24.2089175 154.555488,23.8227595 155.532423,23.2435226 L155.532423,24.9812334 C155.532423,25.1743123 155.337036,25.3673913 155.337036,25.5604703 C154.360101,25.9466282 151.429296,28.0704969 150.256974,27.298181 C149.670813,27.105102 149.475426,26.3327862 149.084652,25.9466282 C149.475426,25.7535492 149.8662,25.5604703 150.256974,25.5604703 L150.256974,22.0850488 C149.670813,22.0850488 148.693878,22.2781278 148.303104,21.8919698 L148.303104,20.733496 C148.889265,20.733496 149.670813,20.540417 150.256974,20.540417 L150.256974,19.3819432 C149.280039,19.1888642 148.889265,19.3819432 148.107718,19.3819432 C147.716944,18.9957853 147.32617,18.4165484 146.935396,18.0303904 C147.32617,17.4511535 148.107718,17.2580745 148.498491,16.8719166 C149.670813,16.0996007 150.256974,15.1342059 150.843135,13.5895741 Z M173.508025,13.7826531 C174.094186,13.975732 174.875734,14.5549689 175.071121,15.1342059 C174.289573,16.6788376 172.140316,19.7681012 170.186446,19.7681012 C169.991059,19.3819432 169.600285,18.8027063 169.404898,18.4165484 L169.795672,18.0303904 C171.358768,16.6788376 172.726477,15.7134428 173.508025,13.7826531 Z M84.9977225,14.168811 C88.3193012,14.168811 91.8362668,14.36189 95.1578455,14.36189 C96.5255544,14.5549689 98.8701982,13.975732 99.4563591,14.9411269 C100.433294,16.0996007 99.6517461,22.8573647 99.8471331,25.1743123 C100.04252,26.1397072 100.04252,27.49126 99.4563591,27.8774179 C93.7901366,27.8774179 88.1239142,27.684339 82.6530787,27.684339 C82.6530787,26.9120231 82.2623047,21.6988909 82.4576917,17.8373114 C82.4576917,16.8719166 82.2623047,15.9065217 82.4576917,15.3272848 C82.6530787,14.7480479 83.2392396,14.36189 83.4346266,14.168811 L84.9977225,14.168811 Z M68.97599,14.168811 L70.5390859,14.168811 C70.5390859,14.7480479 70.7344728,15.1342059 70.7344728,15.7134428 C73.2745036,16.0996007 75.2283734,15.5203638 77.5730172,16.0996007 C77.9637911,17.4511535 78.1591781,26.1397072 77.5730172,25.9466282 L70.9298598,25.9466282 L70.9298598,27.49126 L67.9990551,27.49126 C67.8036681,27.298181 67.9990551,27.49126 67.9990551,27.298181 L67.9990551,25.9466282 L60.9651238,25.9466282 C60.9651238,23.4366016 60.7697368,16.6788376 61.1605107,16.2926797 C63.3097675,15.1342059 65.8497983,16.0996007 67.8036681,15.7134428 C67.9990551,15.3272848 67.9990551,14.7480479 68.1944421,14.168811 L68.97599,14.168811 Z M122.316636,18.6096273 L121.144314,18.6096273 L121.144314,20.926575 C119.776605,20.926575 117.431961,20.540417 116.455027,21.1196539 L116.455027,21.6988909 C118.018122,21.6988909 119.971992,21.3127329 121.339701,21.8919698 L121.339701,23.2435226 L116.8458,23.2435226 C116.8458,23.4366016 116.650413,23.4366016 116.650413,23.6296806 L116.8458,23.6296806 C118.213509,24.2089175 120.362766,23.2435226 121.339701,24.0158385 C121.535088,24.4019965 121.339701,24.9812334 121.339701,25.3673913 L116.650413,25.3673913 L116.650413,25.9466282 L122.316636,25.9466282 L122.316636,27.105102 L121.925862,27.49126 C118.604283,26.7189441 113.914996,27.684339 110.788804,27.49126 C109.225708,27.49126 108.248773,26.7189441 107.076451,26.5258651 C106.294903,27.105102 105.513356,27.49126 104.145647,27.49126 L104.145647,25.5604703 C104.731808,25.3673913 105.122582,25.3673913 105.513356,24.9812334 C104.927195,24.2089175 104.536421,23.0504437 104.536421,21.8919698 L105.90413,21.8919698 C106.099516,22.4712067 106.294903,23.4366016 106.881064,23.6296806 C107.271838,22.6642857 107.467225,21.3127329 107.076451,20.540417 L104.341034,20.540417 L104.341034,20.3473381 L104.341034,18.9957853 C105.708743,18.6096273 107.076451,17.6442325 107.076451,16.0996007 L106.49029,16.0996007 C105.90413,16.2926797 104.731808,16.2926797 103.95026,15.9065217 C103.95026,15.5203638 104.145647,14.9411269 104.145647,14.5549689 L109.616482,14.5549689 C109.616482,16.6788376 108.834934,17.4511535 108.248773,18.6096273 L109.225708,18.6096273 L109.225708,22.6642857 C109.030321,23.2435226 108.248773,24.5950754 108.44416,24.9812334 C108.639547,25.9466282 112.742674,26.1397072 113.914996,25.7535492 L113.914996,25.1743123 L109.811869,25.1743123 L109.811869,23.8227595 C111.179578,23.8227595 112.547287,23.6296806 113.914996,23.6296806 L113.914996,23.2435226 L110.202643,23.2435226 L110.202643,22.8573647 C110.39803,22.2781278 110.007256,21.5058119 110.788804,21.6988909 C111.570352,21.5058119 113.133448,21.6988909 113.914996,21.5058119 L113.914996,21.1196539 L113.719609,20.926575 C112.547287,21.1196539 111.961126,20.926575 110.39803,20.926575 L110.39803,19.5750222 L110.593417,19.5750222 C111.765739,19.5750222 112.742674,19.3819432 113.914996,19.3819432 L113.914996,18.8027063 L110.007256,18.8027063 L110.007256,17.2580745 C111.179578,17.2580745 113.328835,17.6442325 113.914996,16.8719166 C113.719609,16.6788376 113.914996,16.6788376 113.719609,16.6788376 C112.742674,16.2926797 111.179578,16.8719166 110.39803,16.4857587 L110.39803,15.1342059 C111.570352,15.1342059 112.938061,15.3272848 113.914996,14.9411269 L113.914996,14.36189 L116.650413,14.36189 C116.8458,14.9411269 116.8458,14.9411269 117.431961,15.1342059 C118.604283,14.9411269 120.75354,14.7480479 121.339701,16.0996007 C121.339701,16.4857587 121.535088,16.8719166 121.535088,17.4511535 C122.121249,17.4511535 122.512023,17.4511535 122.70741,17.6442325 C122.316636,17.8373114 122.316636,18.2234694 122.316636,18.6096273 Z M144.199978,18.2234694 L144.199978,19.5750222 C143.223043,19.5750222 142.246108,19.7681012 141.46456,19.5750222 C141.073786,19.5750222 140.878399,19.1888642 140.487625,19.1888642 C140.292238,18.8027063 139.901464,18.2234694 139.901464,17.8373114 C139.901464,17.2580745 140.096851,16.4857587 139.901464,15.9065217 L136.384499,15.9065217 C136.189112,17.0649956 136.384499,18.4165484 135.602951,19.1888642 C134.626016,19.3819432 133.06292,19.5750222 132.085985,19.3819432 C132.085985,18.9957853 132.281372,18.6096273 132.281372,18.0303904 C134.235242,18.0303904 133.453694,15.1342059 133.649081,13.975732 L142.441495,13.975732 L143.027656,14.5549689 C143.027656,15.7134428 142.832269,16.8719166 143.027656,17.4511535 C143.027656,17.6442325 143.223043,17.6442325 143.41843,17.8373114 C143.613817,18.2234694 143.809204,18.2234694 144.199978,18.2234694 Z M158.658615,14.168811 C161.003258,14.168811 163.152515,14.36189 165.497159,14.36189 C167.060255,15.5203638 165.887933,19.1888642 166.474094,20.926575 L166.278707,21.1196539 L159.440162,21.1196539 C159.440162,22.4712067 159.049388,24.5950754 159.635549,25.5604703 C160.612484,25.1743123 161.198645,24.7881544 161.589419,25.1743123 C161.784806,25.3673913 161.589419,25.9466282 161.784806,26.5258651 C161.394032,27.298181 157.290906,27.684339 156.509358,27.49126 C156.509358,27.105102 156.313971,26.1397072 156.313971,25.9466282 C156.313971,25.7535492 156.704745,25.9466282 156.900132,25.7535492 L156.900132,25.3673913 L156.900132,14.168811 L158.658615,14.168811 Z M177.611152,15.9065217 L177.611152,14.5549689 C180.737343,14.36189 185.817405,14.168811 188.552823,14.5549689 L188.552823,15.9065217 L177.611152,15.9065217 Z M131.499824,16.0996007 L126.028989,16.0996007 C126.028989,15.3272848 126.028989,14.9411269 126.224376,14.7480479 L131.499824,14.7480479 L131.499824,16.0996007 Z M86.1700444,15.7134428 C85.9746574,15.9065217 85.5838834,15.9065217 85.3884964,16.4857587 C85.1931095,17.2580745 85.3884964,18.4165484 85.3884964,19.5750222 L85.3884964,26.1397072 L85.5838834,26.1397072 C85.9746574,26.3327862 96.3301674,26.3327862 96.9163284,26.1397072 L96.9163284,16.0996007 L96.7209414,16.0996007 C93.2039757,15.9065217 89.68701,15.7134428 86.1700444,15.7134428 Z M160.026323,15.7134428 L159.440162,15.7134428 L159.440162,16.8719166 L163.738676,16.8719166 C163.738676,16.2926797 163.738676,15.9065217 163.543289,15.7134428 L160.026323,15.7134428 Z M172.726477,27.684339 C172.726477,26.3327862 172.921864,22.8573647 172.335703,22.4712067 C171.944929,22.6642857 171.554155,22.8573647 170.967994,23.0504437 C170.57722,22.2781278 170.186446,21.8919698 169.991059,21.1196539 C172.726477,20.540417 173.898799,17.8373114 175.852669,16.2926797 C176.43883,16.6788376 176.829604,17.0649956 177.415765,17.6442325 C177.024991,18.6096273 175.657282,19.3819432 175.461895,20.3473381 L175.461895,27.8774179 C174.48496,27.684339 173.703412,27.684339 172.726477,27.684339 Z M116.455027,17.0649956 L118.408896,17.0649956 L118.408896,16.4857587 L116.650413,16.4857587 C116.455027,16.6788376 116.455027,16.8719166 116.455027,17.0649956 Z M96.1347804,21.1196539 L93.7901366,21.1196539 L93.7901366,21.3127329 C94.7670716,21.1196539 95.1578455,22.0850488 96.1347804,22.4712067 L96.1347804,23.4366016 L94.5716846,23.4366016 L94.5716846,23.6296806 C95.1578455,23.6296806 95.9393934,23.4366016 96.1347804,23.8227595 L96.1347804,24.7881544 C95.7440065,25.3673913 87.1469793,25.3673913 85.7792704,24.9812334 L85.7792704,23.6296806 C86.9515923,23.4366016 88.3193012,23.8227595 89.1008491,23.4366016 L89.1008491,20.733496 C87.9285272,20.733496 86.3654314,20.926575 85.7792704,20.540417 L85.7792704,19.1888642 C86.9515923,19.1888642 88.3193012,19.5750222 89.1008491,18.9957853 L89.1008491,17.8373114 L85.7792704,17.8373114 L85.7792704,16.2926797 L95.9393934,16.2926797 L95.9393934,16.6788376 C96.1347804,17.0649956 96.1347804,17.4511535 95.7440065,17.8373114 C95.1578455,18.0303904 93.0085887,17.6442325 92.4224278,18.0303904 L92.4224278,19.1888642 C93.5947497,19.1888642 94.5716846,19.3819432 95.7440065,19.3819432 C96.1347804,20.1542591 96.1347804,20.733496 96.1347804,21.1196539 Z M65.4590243,17.2580745 C64.8728634,17.4511535 63.8959285,17.2580745 63.5051545,17.6442325 C63.7005415,18.8027063 63.1143806,23.8227595 63.7005415,24.5950754 C64.2867024,24.7881544 66.6313462,24.9812334 67.6082811,24.5950754 C67.8036681,23.8227595 67.6082811,22.2781278 67.6082811,20.733496 C67.6082811,19.3819432 67.6082811,18.0303904 67.4128941,17.4511535 C66.8267332,17.4511535 66.2405723,17.4511535 65.4590243,17.2580745 Z M71.1252468,17.2580745 L70.9298598,17.2580745 L70.9298598,20.926575 C70.9298598,22.0850488 70.9298598,23.0504437 71.1252468,24.4019965 C72.2975687,24.5950754 74.0560515,24.5950754 75.2283734,24.4019965 L75.2283734,17.2580745 L71.1252468,17.2580745 Z M124.856667,19.1888642 L124.856667,17.8373114 L129.545954,17.8373114 L129.545954,24.5950754 C130.327502,24.0158385 130.913663,23.4366016 131.695211,22.8573647 C131.695211,23.6296806 131.890598,24.4019965 131.695211,25.1743123 C131.10905,26.1397072 128.178245,28.4566548 126.61515,27.684339 C126.419763,27.298181 126.028989,26.9120231 125.833602,26.5258651 L125.833602,26.3327862 C126.224376,26.3327862 126.419763,26.1397072 126.810537,26.1397072 L126.810537,22.0850488 C126.810537,21.1196539 127.005924,20.1542591 126.810537,19.5750222 C126.419763,19.1888642 125.638215,19.1888642 124.856667,19.1888642 Z M159.244775,18.4165484 L159.244775,19.3819432 L159.440162,19.5750222 C160.026323,19.7681012 163.347902,19.5750222 163.543289,19.5750222 L163.543289,18.6096273 L163.347902,18.6096273 C161.980193,18.6096273 160.612484,18.6096273 159.244775,18.4165484 Z M116.455027,18.6096273 C116.455027,18.9957853 116.455027,19.1888642 116.650413,19.5750222 L118.408896,19.5750222 L118.408896,18.8027063 C117.627348,18.8027063 117.041187,18.8027063 116.455027,18.6096273 Z M177.024991,18.8027063 L188.943597,18.8027063 L188.943597,18.9957853 C188.74821,19.3819432 189.138984,19.9611801 188.943597,20.1542591 C188.357436,20.3473381 187.185114,19.9611801 186.79434,20.1542591 L186.79434,23.8227595 C186.79434,24.5950754 186.989727,25.3673913 186.79434,26.1397072 C186.012792,28.0704969 182.105052,27.684339 179.955795,27.49126 L179.955795,26.1397072 C181.323504,26.1397072 182.495826,26.3327862 183.668148,25.7535492 C183.863535,23.8227595 183.863535,21.6988909 183.668148,19.9611801 C181.714278,19.5750222 178.783474,19.9611801 176.829604,19.9611801 C177.024991,19.7681012 177.024991,19.1888642 177.024991,18.8027063 Z M131.890598,21.5058119 C131.890598,20.733496 131.890598,20.1542591 132.281372,19.9611801 C136.189112,19.9611801 140.096851,20.1542591 144.199978,20.1542591 L144.199978,21.8919698 L141.073786,24.9812334 C142.441495,25.3673913 143.41843,25.7535492 145.176913,25.7535492 L145.176913,27.684339 C143.809204,27.684339 142.246108,27.49126 140.878399,27.105102 C140.096851,26.9120231 139.315303,26.1397072 138.338368,26.3327862 C136.775273,26.7189441 133.453694,28.4566548 132.085985,27.684339 L132.085985,26.1397072 L132.085985,25.9466282 C133.453694,25.7535492 134.626016,25.5604703 135.798338,25.1743123 L135.798338,24.9812334 C134.821403,24.0158385 133.649081,23.6296806 132.867533,22.4712067 L133.06292,22.2781278 C135.602951,21.6988909 136.579886,23.0504437 138.338368,23.8227595 C139.51069,23.4366016 140.487625,22.4712067 141.073786,21.6988909 L141.073786,21.5058119 L131.890598,21.5058119 Z M92.8132017,21.1196539 C92.6178148,21.6988909 92.6178148,22.2781278 92.8132017,23.0504437 C93.3993627,23.6296806 93.5947497,23.6296806 94.3762976,23.8227595 C93.9855236,23.0504437 93.7901366,22.4712067 93.3993627,21.6988909 L93.7901366,21.3127329 L93.7901366,21.1196539 L92.8132017,21.1196539 Z M165.106385,21.6988909 L166.864868,21.6988909 L166.864868,22.0850488 C166.278707,23.0504437 165.497159,24.0158385 164.910998,24.9812334 C165.692546,25.1743123 166.474094,25.5604703 167.255642,25.7535492 L167.255642,27.684339 C163.738676,27.684339 161.003258,24.5950754 160.417097,21.6988909 L162.370967,21.6988909 C162.566354,22.4712067 163.152515,23.2435226 163.738676,23.6296806 C164.12945,23.2435226 164.520224,22.2781278 165.106385,21.6988909 Z M97.3071023,32.3182343 C96.7209414,32.3182343 96.5255544,32.3182343 96.1347804,32.1251553 C95.5486195,29.6151287 90.468558,30.9666815 91.4454929,34.6351819 C91.8362668,35.9867347 93.5947497,37.1452085 95.1578455,36.3728926 C95.7440065,35.9867347 95.9393934,35.0213398 96.5255544,34.8282609 L97.3071023,34.8282609 C96.1347804,38.3036823 91.0547189,38.1106034 90.273171,34.4421029 C89.4916231,30.1943656 94.5716846,29.2289707 97.1117153,31.9320763 C97.3071023,31.9320763 97.3071023,32.1251553 97.3071023,32.3182343 Z M134.235242,30.1943656 L134.626016,30.5805235 L134.626016,31.1597604 L133.649081,31.1597604 L133.649081,30.5805235 L133.649081,30.3874445 C133.649081,30.3874445 134.039855,30.1943656 134.235242,30.1943656 Z M67.6082811,34.6351819 C67.6082811,36.3728926 64.8728634,38.3036823 62.9189936,37.1452085 C62.9189936,36.7590506 60.9651238,35.9867347 60.7697368,33.862866 L60.7697368,33.669787 C60.9651238,29.6151287 67.4128941,29.0358917 67.6082811,32.3182343 L66.6313462,32.3182343 C65.8497983,29.6151287 61.7466717,31.1597604 61.7466717,33.862866 C61.7466717,36.9521295 66.2405723,37.5313665 66.6313462,34.6351819 L67.6082811,34.6351819 Z M69.366764,30.1943656 L69.366764,32.5113132 L69.9529249,32.5113132 C70.3436989,32.1251553 71.5160208,31.9320763 72.2975687,32.1251553 C73.2745036,32.8974712 72.8837296,33.669787 72.8837296,34.8282609 C72.8837296,35.7936557 73.2745036,36.9521295 72.8837296,37.3382875 L72.1021817,37.3382875 C72.1021817,35.9867347 71.9067947,34.6351819 71.9067947,33.2836291 C70.7344728,32.7043922 70.3436989,33.0905501 69.5621509,33.4767081 C69.171377,34.249024 69.7575379,36.9521295 69.171377,37.3382875 L68.3898291,37.3382875 L68.3898291,30.5805235 C68.780603,30.1943656 68.97599,30.1943656 69.366764,30.1943656 Z M74.2514385,30.1943656 L74.8375994,30.1943656 L74.8375994,31.1597604 L74.0560515,31.1597604 L74.0560515,30.3874445 C74.0560515,30.1943656 74.0560515,30.1943656 74.2514385,30.1943656 Z M151.233909,30.1943656 C152.601618,30.1943656 154.164714,30.1943656 155.141649,30.9666815 C155.532423,32.1251553 155.337036,32.5113132 154.750875,33.4767081 C155.141649,33.862866 155.532423,34.249024 155.923197,34.8282609 C155.923197,35.4074978 155.72781,35.7936557 155.532423,36.3728926 C155.141649,36.5659716 154.946262,36.9521295 154.360101,36.9521295 C152.992392,37.3382875 151.429296,37.1452085 150.061587,36.7590506 C150.061587,34.4421029 149.8662,31.5459184 150.061587,30.0012866 C150.256974,30.1943656 150.843135,30.1943656 151.233909,30.1943656 Z M167.841803,30.1943656 L168.623351,30.1943656 L168.623351,33.862866 C168.818738,33.862866 168.818738,33.669787 169.014125,33.669787 C169.600285,33.0905501 170.381833,32.5113132 170.967994,32.1251553 L171.944929,32.1251553 L171.749542,32.3182343 C171.163381,32.5113132 170.57722,33.0905501 170.186446,33.669787 L170.186446,34.055945 C170.772607,34.4421029 172.335703,36.3728926 172.140316,36.9521295 C171.944929,36.9521295 171.554155,36.7590506 171.358768,36.7590506 C170.772607,35.9867347 170.381833,35.2144188 169.795672,34.4421029 C169.404898,34.6351819 169.209512,34.8282609 168.818738,34.8282609 C168.818738,35.6005768 168.623351,36.1798137 168.623351,36.9521295 C168.232577,36.9521295 168.03719,36.9521295 167.841803,36.7590506 C167.646416,36.1798137 167.646416,30.9666815 167.841803,30.1943656 Z M114.30577,32.1251553 L114.30577,30.7736025 C114.696544,30.7736025 114.891931,30.7736025 115.087318,30.9666815 C115.087318,31.3528394 115.282705,31.7389973 115.282705,32.1251553 C115.673479,32.1251553 115.868866,32.1251553 116.064253,32.3182343 L116.064253,32.7043922 L115.282705,32.7043922 C115.282705,33.862866 114.891931,35.4074978 115.478092,36.1798137 C115.673479,36.3728926 115.868866,36.3728926 116.25964,36.3728926 L116.25964,36.9521295 C115.478092,37.1452085 114.891931,37.1452085 114.696544,36.5659716 C114.110383,35.6005768 114.501157,34.055945 114.501157,32.7043922 C114.30577,32.7043922 114.110383,32.5113132 113.719609,32.5113132 C113.719609,32.1251553 113.524222,32.1251553 114.30577,32.1251553 Z M131.10905,30.7736025 L132.085985,30.7736025 L132.085985,31.9320763 L132.867533,31.9320763 L132.867533,32.5113132 C132.476759,32.5113132 132.281372,32.7043922 131.890598,32.7043922 C131.890598,33.862866 131.695211,35.4074978 132.085985,36.1798137 L132.867533,36.1798137 L132.867533,36.7590506 L132.672146,36.9521295 C131.890598,36.9521295 131.499824,36.9521295 131.304437,36.5659716 C130.718276,35.6005768 131.10905,33.4767081 131.10905,32.5113132 L130.327502,32.5113132 L130.327502,31.9320763 L131.10905,31.9320763 L131.10905,30.7736025 Z M150.843135,30.9666815 C150.647748,31.5459184 150.647748,32.3182343 150.843135,33.0905501 C152.015457,33.0905501 153.578553,33.2836291 154.360101,32.3182343 C154.360101,30.7736025 152.601618,30.9666815 150.843135,30.9666815 Z M137.752207,31.7389973 C138.924529,31.9320763 139.51069,32.3182343 140.292238,32.8974712 C140.487625,35.0213398 140.683012,36.5659716 138.338368,36.9521295 C137.947594,37.1452085 136.775273,37.1452085 136.189112,36.7590506 C135.01679,35.9867347 134.821403,33.2836291 135.993725,32.3182343 C136.384499,32.1251553 136.97066,31.9320763 137.752207,31.7389973 Z M83.6300136,31.7389973 C84.6069485,31.7389973 85.3884964,31.9320763 85.7792704,32.5113132 C86.3654314,33.2836291 85.9746574,35.2144188 85.9746574,35.9867347 C86.1700444,35.9867347 86.3654314,36.1798137 86.5608183,36.1798137 L86.5608183,36.5659716 C85.7792704,36.7590506 85.3884964,36.3728926 84.9977225,35.9867347 C83.8254006,36.5659716 83.0438527,36.7590506 81.6761438,36.1798137 C81.4807568,35.7936557 81.2853698,35.4074978 81.2853698,34.8282609 C82.2623047,33.2836291 84.0207876,34.249024 85.1931095,33.0905501 C85.1931095,32.8974712 84.9977225,32.7043922 84.9977225,32.5113132 C84.0207876,32.3182343 83.4346266,32.1251553 82.4576917,32.7043922 C82.2623047,33.0905501 82.4576917,33.0905501 81.8715308,33.0905501 L81.6761438,33.0905501 L82.2623047,31.9320763 C82.6530787,32.1251553 83.0438527,31.9320763 83.6300136,31.7389973 Z M103.559486,32.1251553 L104.341034,32.1251553 L104.341034,32.5113132 C104.927195,32.3182343 106.49029,31.3528394 107.467225,32.3182343 C108.639547,33.0905501 108.248773,35.6005768 108.053386,36.9521295 L107.076451,36.9521295 C107.076451,35.9867347 107.271838,32.5113132 106.099516,32.8974712 L104.927195,32.8974712 C104.731808,33.2836291 104.341034,33.4767081 104.341034,33.862866 C104.145647,34.8282609 104.536421,36.1798137 104.341034,36.9521295 L103.559486,36.9521295 C103.559486,36.1798137 103.559486,34.8282609 103.364099,34.4421029 C103.364099,37.9175244 98.4794242,38.1106034 97.6978763,35.0213398 C96.9163284,31.9320763 101.801003,30.3874445 103.364099,34.249024 L103.559486,34.249024 L103.559486,32.1251553 Z M110.593417,31.9320763 C111.765739,31.9320763 113.328835,31.9320763 113.328835,33.2836291 L112.547287,33.2836291 C112.156513,32.5113132 110.984191,32.5113132 110.202643,32.7043922 C110.202643,32.8974712 110.007256,32.8974712 110.007256,33.0905501 C110.007256,33.2836291 110.202643,33.4767081 110.202643,33.669787 C111.374965,34.055945 112.742674,34.4421029 113.719609,35.0213398 L113.719609,35.9867347 C113.133448,37.7244454 109.421095,37.5313665 109.225708,35.6005768 L110.007256,35.6005768 C110.39803,36.3728926 110.788804,36.3728926 111.374965,36.7590506 C112.156513,36.5659716 112.742674,36.5659716 112.938061,35.6005768 C111.765739,34.8282609 110.593417,34.8282609 109.421095,34.249024 C109.421095,33.669787 109.225708,33.4767081 109.421095,32.8974712 C109.616482,32.3182343 110.007256,32.1251553 110.593417,31.9320763 Z M143.809204,31.9320763 C144.590752,31.9320763 144.981526,32.1251553 145.567687,32.5113132 C145.763074,33.4767081 146.153848,35.6005768 145.763074,36.9521295 L144.981526,36.9521295 C144.981526,35.6005768 145.176913,33.4767081 144.395365,32.8974712 C144.004591,32.5113132 143.41843,32.7043922 142.832269,32.8974712 C142.636882,33.0905501 142.441495,33.4767081 142.050721,33.669787 L142.050721,36.9521295 L141.659947,36.9521295 C141.269173,37.1452085 141.269173,36.7590506 141.073786,36.3728926 L141.073786,32.1251553 L141.855334,32.1251553 C141.855334,32.3182343 142.050721,32.5113132 142.050721,32.5113132 L143.809204,31.9320763 Z M77.9637911,31.9320763 C78.9407261,31.9320763 79.526887,32.1251553 80.1130479,32.3182343 C80.6992089,33.669787 80.5038219,35.2144188 80.5038219,36.7590506 L79.722274,36.7590506 C79.3315,35.2144188 79.917661,33.862866 79.3315,32.7043922 L79.136113,32.5113132 C78.5499521,32.5113132 78.1591781,32.7043922 77.5730172,32.7043922 C76.7914693,33.862866 77.3776302,35.9867347 76.7914693,36.7590506 L76.0099213,36.7590506 L76.0099213,31.9320763 L76.5960823,31.9320763 C76.7914693,32.1251553 76.7914693,32.1251553 76.7914693,32.3182343 C77.1822432,32.3182343 77.5730172,32.1251553 77.9637911,31.9320763 Z M119.190444,31.9320763 C119.581218,32.1251553 119.581218,32.5113132 119.190444,32.8974712 C118.604283,32.7043922 118.213509,33.0905501 117.822735,33.2836291 C117.822735,33.669787 117.627348,33.862866 117.627348,34.249024 C117.627348,35.2144188 117.822735,36.3728926 117.431961,36.9521295 C117.236574,36.9521295 117.041187,36.7590506 116.8458,36.7590506 L116.8458,32.1251553 L117.431961,32.1251553 C117.431961,32.3182343 117.627348,32.5113132 117.627348,32.7043922 C118.213509,32.3182343 118.604283,32.3182343 119.190444,31.9320763 Z M127.592084,31.9320763 C128.959793,31.9320763 129.741341,32.3182343 130.132115,33.2836291 L130.132115,33.4767081 L129.350567,33.4767081 C128.959793,32.5113132 127.592084,32.3182343 126.61515,32.8974712 C125.833602,34.4421029 126.028989,35.4074978 127.396697,36.3728926 C127.982858,36.3728926 128.569019,36.1798137 128.959793,35.7936557 C129.15518,35.6005768 129.350567,35.2144188 129.545954,35.0213398 C129.741341,34.8282609 129.936728,35.0213398 130.327502,35.0213398 C129.936728,36.9521295 127.005924,37.7244454 125.833602,35.9867347 C124.856667,34.4421029 125.247441,32.8974712 126.028989,32.1251553 C126.419763,32.1251553 127.005924,32.1251553 127.592084,31.9320763 Z M157.877067,31.9320763 C159.244775,31.9320763 160.026323,32.1251553 160.807871,32.5113132 C160.807871,33.2836291 160.807871,35.2144188 161.003258,35.7936557 C161.198645,36.3728926 161.394032,35.7936557 161.589419,36.1798137 C161.589419,36.1798137 161.394032,36.3728926 161.589419,36.5659716 L161.394032,36.7590506 C160.807871,36.9521295 160.22171,36.5659716 160.026323,36.1798137 C158.854001,36.9521295 157.290906,36.9521295 156.313971,36.1798137 L156.313971,35.2144188 C157.290906,33.669787 158.854001,34.4421029 160.22171,33.669787 L160.22171,33.0905501 C160.026323,33.0905501 159.830936,32.8974712 159.830936,32.8974712 C158.658615,32.3182343 157.877067,33.0905501 157.095519,33.669787 L156.704745,33.669787 L156.704745,33.4767081 C156.900132,33.0905501 156.900132,32.8974712 157.290906,32.7043922 C157.486293,32.3182343 157.68168,32.1251553 157.877067,31.9320763 Z M164.520224,31.9320763 C165.301772,31.9320763 165.692546,32.1251553 166.278707,32.3182343 C166.669481,33.2836291 167.060255,35.7936557 166.474094,36.9521295 L165.692546,36.9521295 C165.692546,35.4074978 165.887933,33.862866 165.106385,32.8974712 L164.910998,32.8974712 C163.934063,32.8974712 163.543289,33.0905501 162.957128,33.4767081 C162.761741,34.4421029 162.761741,35.7936557 162.761741,36.9521295 C162.566354,36.9521295 162.370967,37.1452085 162.370967,37.1452085 L162.17558,37.1452085 C161.784806,35.9867347 161.980193,34.055945 161.980193,32.3182343 C162.370967,32.3182343 162.761741,32.1251553 162.761741,32.5113132 C163.152515,32.7043922 163.738676,32.5113132 164.520224,31.9320763 Z M73.8606645,32.1251553 C74.2514385,32.1251553 74.6422125,32.1251553 74.8375994,32.3182343 L74.8375994,37.1452085 L73.8606645,37.1452085 L73.8606645,32.1251553 Z M133.649081,32.1251553 L134.626016,32.1251553 L134.626016,36.9521295 L133.844468,36.9521295 L133.649081,36.9521295 L133.649081,32.1251553 Z M119.971992,32.1251553 L120.75354,32.1251553 C120.75354,34.055945 120.362766,36.7590506 122.902797,36.1798137 C123.293571,35.2144188 123.684345,33.4767081 123.488958,32.1251553 L124.465893,32.1251553 C124.66128,32.8974712 124.856667,35.9867347 124.270506,36.9521295 L123.684345,36.9521295 L123.684345,36.3728926 C123.293571,36.5659716 123.098184,36.7590506 122.70741,36.9521295 C122.316636,37.1452085 121.730475,37.1452085 121.144314,37.1452085 C120.948927,36.9521295 120.558153,36.7590506 120.362766,36.5659716 C119.776605,35.7936557 119.581218,33.4767081 119.971992,32.1251553 Z M137.166047,32.5113132 C135.993725,33.2836291 135.602951,34.6351819 136.384499,35.9867347 C136.775273,36.1798137 136.97066,36.3728926 137.361434,36.3728926 C138.142981,36.1798137 138.729142,36.1798137 138.924529,35.4074978 C139.51069,34.4421029 139.119916,33.2836291 138.729142,32.7043922 C138.338368,32.7043922 137.947594,32.5113132 137.166047,32.5113132 Z M100.237907,32.7043922 C100.04252,32.7043922 99.8471331,32.8974712 99.6517461,32.8974712 C98.4794242,33.669787 98.6748112,35.2144188 99.4563591,36.3728926 C100.628681,36.7590506 101.019455,36.7590506 101.99639,35.9867347 C102.191777,34.8282609 102.191777,34.249024 101.99639,33.2836291 C101.214842,32.8974712 100.824068,32.7043922 100.237907,32.7043922 Z M150.843135,33.862866 L150.843135,35.9867347 C150.843135,36.1798137 151.038522,36.1798137 151.038522,36.3728926 C152.992392,36.3728926 154.164714,36.5659716 154.750875,35.2144188 C154.555488,34.8282609 154.555488,34.6351819 154.360101,34.249024 C153.187779,33.862866 152.210844,33.862866 150.843135,33.862866 Z M84.8023355,34.4421029 C83.8254006,34.8282609 82.8484657,34.6351819 82.0669178,35.0213398 L82.0669178,35.7936557 C83.2392396,36.3728926 84.0207876,35.9867347 84.8023355,35.4074978 C84.9977225,35.2144188 85.1931095,34.8282609 84.8023355,34.4421029 Z M159.830936,34.6351819 C159.049388,34.8282609 158.267841,35.0213398 157.290906,35.0213398 C157.095519,35.6005768 157.095519,35.9867347 157.68168,36.3728926 C158.658615,36.9521295 160.026323,35.9867347 160.22171,35.4074978 L160.22171,34.6351819 L159.830936,34.6351819 Z" id="path" fill="#FFFFFF" fill-rule="nonzero"></path>
    </g>
</svg>