<?xml version="1.0" encoding="UTF-8"?>
<svg width="206px" height="48px" viewBox="0 0 206 48" version="1.1" xmlns="http://www.w3.org/2000/svg" xmlns:xlink="http://www.w3.org/1999/xlink">
    <!-- Generator: Sketch 51 (57462) - http://www.bohemiancoding.com/sketch -->
    <title>CEB-full</title>
    <desc>Created with Sketch.</desc>
    <defs></defs>
    <g id="CEB-full" stroke="none" stroke-width="1" fill="none" fill-rule="evenodd">
        <rect id="@bound" x="0" y="0" width="206" height="48"></rect>
        <path d="M13,9 L28.1363636,9 C28.1363636,9 31,9 31.6136364,9.82261794 L28.75,9.82261794 L28.75,10.6452359 L33.0454545,10.6452359 C33.0454545,10.6452359 33.6590909,11.0565448 33.6590909,11.4678538 L28.5454545,11.4678538 L28.5454545,12.2904717 L34.0681818,12.2904717 C34.0681818,12.2904717 34.6818182,12.7017807 34.4772727,13.3187442 L17.5,13.3187442 L17.5,14.1413621 L35.0909091,14.1413621 C35.0909091,14.1413621 35.2954545,14.7583256 35.2954545,14.96398 L17.5,14.96398 L17.5,15.786598 L35.2954545,15.786598 C35.2954545,15.786598 35.5,16.4035614 35.0909091,16.6092159 L17.5,16.8148704 L17.5,17.6374883 L34.8863636,17.4318339 C34.8863636,17.4318339 34.8863636,18.0487973 34.4772727,18.2544518 L17.5,18.4601063 L17.5,19.6940332 L33.8636364,19.4883787 C33.8636364,19.4883787 33.8636364,20.3109966 33.25,20.5166511 L17.5,20.5166511 L17.5,21.3392691 L31.8181818,21.1336146 C31.8181818,21.1336146 31.4090909,22.161887 29.3636364,22.161887 L26.7045455,22.161887 L26.7045455,22.9845049 L31,22.9845049 C31,22.9845049 32.8409091,22.9845049 33.0454545,23.8071229 L26.5,24.0127773 L26.5,24.8353953 L34.0681818,24.8353953 C34.0681818,24.8353953 34.6818182,25.4523587 34.6818182,25.6580132 L17.0909091,25.8636677 L17.0909091,26.8919401 L34.8863636,26.6862856 C34.8863636,26.6862856 35.5,27.0975946 35.5,27.7145581 L17.5,27.9202126 L17.5,28.7428305 L36.3181818,28.7428305 C36.3181818,28.7428305 36.5227273,28.948485 36.5227273,29.5654484 L17.5,29.7711029 L17.5,30.5937208 L36.5227273,30.5937208 C36.5227273,30.5937208 36.7272727,31.0050298 36.5227273,31.4163388 L17.5,31.6219933 L17.5,32.4446112 L36.3181818,32.4446112 C36.3181818,32.4446112 36.5227273,33.0615747 36.1136364,33.4728836 L17.5,33.4728836 L17.5,34.0898471 L35.7045455,34.0898471 C35.7045455,34.0898471 35.7045455,34.912465 35.2954545,34.912465 L28.9545455,34.912465 L28.9545455,35.735083 L34.4772727,35.735083 C34.4772727,35.735083 34.0681818,36.5577009 33.6590909,36.7633554 L28.75,36.7633554 L28.75,37.5859733 L32.0227273,37.5859733 C32.0227273,37.5859733 31.6136364,38.6142457 27.3181818,38.4085912 L13,38.4085912 L13,9 Z M51.8636364,23.6014684 L55.9545455,23.6014684 L55.9545455,25.2467043 C55.9545455,25.2467043 58.2045455,22.9845049 60.0454545,23.1901594 C60.0454545,23.1901594 64.3409091,22.3675415 65.3636364,27.5089036 L65.5681818,38.6142457 L61.4772727,38.6142457 L61.4772727,28.537176 C61.4772727,28.537176 60.25,25.6580132 57.3863636,27.5089036 C57.3863636,27.5089036 56.1590909,27.9202126 56.3636364,31.4163388 L56.3636364,38.6142457 L52.2727273,38.6142457 L51.8636364,23.6014684 Z M66.5909091,17.6374883 L70.2727273,17.6374883 L70.4772727,28.948485 L74.9772727,22.9845049 L79.6818182,22.9845049 L75.3863636,28.948485 L80.5,38.4085912 L75.7954545,38.6142457 L72.5227273,32.4446112 L70.4772727,35.1181195 L70.4772727,38.4085912 L66.3863636,38.4085912 L66.5909091,17.6374883 Z M50.6363636,36.9690099 L50.4318182,27.0975946 C50.2272727,21.9562325 41.8409091,23.6014684 41.8409091,23.6014684 C37.3409091,24.2184318 37.75,28.3315215 37.75,28.3315215 L42.0454545,28.537176 C42.25,26.0693222 45.7272727,26.8919401 45.7272727,26.8919401 C48.1818182,28.948485 45.3181818,29.3597939 45.3181818,29.3597939 C44.0909091,29.3597939 39.7954545,30.5937208 39.7954545,30.5937208 C37.1363636,31.6219933 37.3409091,34.2955016 37.3409091,34.2955016 C37.3409091,38.6142457 41.0227273,38.8199002 41.0227273,38.8199002 C44.5,39.6425182 46.75,37.3803188 46.75,37.3803188 L46.9545455,38.8199002 L51.25,38.6142457 L50.6363636,36.9690099 Z M46.3409091,32.7736584 C46.3409091,32.7736584 46.0954545,34.501156 44.7045455,35.3649049 C43.3136364,36.2286537 41.4727273,36.51657 41.0227273,34.7479414 C41.0227273,34.7479414 40.6136364,33.5140145 41.8409091,33.1027056 C42.0454545,33.1027056 46.1363636,32.0744331 46.3409091,31.4574697 L46.3409091,32.7736584 Z M94.4090909,24.8353953 L94.4090909,17.6374883 L99.5227273,17.6374883 L99.5227273,14.5526711 L101.977273,14.5526711 L101.977273,14.7583256 C101.772727,15.1696345 101.772727,15.5809435 101.772727,15.9922525 L101.772727,17.6374883 L107.295455,17.6374883 L107.295455,24.8353953 L105.045455,24.8353953 L105.045455,23.8071229 L101.977273,23.8071229 L101.977273,29.1541395 L99.7272727,29.1541395 L99.7272727,23.8071229 L96.6590909,23.8071229 L96.6590909,25.0410498 L94.4090909,25.0410498 L94.4090909,24.8353953 Z M96.6590909,19.2827242 L96.6590909,21.9562325 L99.7272727,21.9562325 L99.7272727,19.2827242 L96.6590909,19.2827242 Z M105.045455,22.161887 L105.045455,19.4883787 L101.977273,19.4883787 L101.977273,22.161887 L105.045455,22.161887 Z M111.386364,29.1541395 L111.386364,14.7583256 L124.477273,14.7583256 L124.477273,28.948485 L122.431818,28.948485 L122.431818,28.3315215 L113.227273,28.3315215 L113.227273,29.1541395 L111.386364,29.1541395 Z M122.431818,16.6092159 L113.227273,16.6092159 L113.227273,26.6862856 L122.227273,26.6862856 L122.227273,16.6092159 L122.431818,16.6092159 Z M114.045455,20.5166511 L116.704545,20.5166511 L116.704545,19.0770697 L113.840909,19.0770697 L113.840909,17.4318339 L121.818182,17.4318339 L121.818182,19.0770697 L118.75,19.0770697 L118.75,20.5166511 L121.613636,20.5166511 L121.613636,22.161887 L120.795455,22.161887 C121.204545,22.9845049 121.613636,23.6014684 121.613636,23.6014684 L120.590909,24.2184318 L121.818182,24.2184318 L121.818182,25.8636677 L113.636364,25.8636677 L113.636364,24.2184318 L116.5,24.2184318 L116.5,22.161887 L113.840909,22.161887 L113.840909,20.5166511 L114.045455,20.5166511 Z M118.954545,22.573196 L119.977273,21.9562325 L118.75,21.9562325 L118.75,24.0127773 L119.977273,24.0127773 C119.772727,23.6014684 119.363636,23.1901594 118.954545,22.573196 Z M127.75,21.750578 L127.75,19.8996877 L133.681818,19.8996877 L133.681818,14.5526711 L135.522727,14.5526711 C135.727273,14.5526711 135.931818,14.5526711 135.931818,14.7583256 L135.931818,15.1696345 C135.931818,15.786598 135.727273,16.4035614 135.727273,17.0205249 L135.727273,20.1053421 L141.863636,20.1053421 L141.863636,21.750578 L137.159091,21.750578 L137.159091,26.0693222 C137.159091,26.4806312 137.363636,26.6862856 137.772727,26.6862856 L138.590909,26.6862856 C139.204545,26.6862856 139.613636,26.0693222 139.613636,24.6297408 C140.431818,25.0410498 141.25,25.2467043 141.863636,25.2467043 C141.659091,26.6862856 141.454545,27.5089036 141.045455,27.9202126 C140.840909,28.3315215 140.227273,28.537176 139.613636,28.537176 L136.954545,28.537176 C135.522727,28.537176 134.909091,27.9202126 135.113636,26.8919401 L135.113636,21.750578 L134.295455,21.750578 C134.5,25.2467043 132.863636,27.7145581 129.181818,29.1541395 C128.772727,28.3315215 128.159091,27.7145581 127.75,27.5089036 C129.386364,26.8919401 130.409091,26.0693222 131.022727,25.4523587 C131.636364,24.8353953 131.840909,23.6014684 132.045455,21.750578 L127.75,21.750578 Z M138.181818,19.6940332 L136.545455,18.6657608 C137.363636,17.6374883 137.977273,16.6092159 138.590909,15.1696345 C139.613636,15.786598 140.227273,16.1979069 140.636364,16.4035614 C140.636364,16.4035614 140.840909,16.6092159 140.636364,16.6092159 C140.227273,17.0205249 139.613636,17.8431428 138.795455,18.8714152 C138.590909,19.2827242 138.386364,19.4883787 138.181818,19.6940332 Z M129.181818,16.8148704 L131.022727,15.5809435 C131.431818,16.1979069 132.25,17.2261794 133.068182,18.4601063 L131.227273,19.6940332 C130.613636,18.6657608 130,17.6374883 129.181818,16.8148704 Z M144.727273,20.3109966 L144.727273,18.4601063 L150.454545,18.4601063 L150.454545,14.3470166 L151.886364,14.3470166 C152.704545,14.3470166 153.113636,14.3470166 153.113636,14.5526711 L153.113636,18.6657608 L158.636364,18.6657608 L158.636364,20.5166511 L153.113636,20.5166511 C153.522727,23.8071229 155.568182,25.8636677 159.25,27.0975946 C158.431818,27.7145581 158.022727,28.3315215 157.613636,29.3597939 C154.75,28.3315215 152.909091,26.4806312 151.886364,24.0127773 C151.068182,26.2749767 149.022727,28.125867 145.954545,29.5654484 C145.545455,28.7428305 144.931818,28.125867 144.318182,27.7145581 C148.204545,26.2749767 150.045455,24.0127773 150.25,20.7223056 L144.727273,20.7223056 L144.727273,20.3109966 Z M165.181818,16.1979069 L167.636364,16.1979069 L167.636364,17.8431428 L164.363636,17.8431428 L163.954545,19.0770697 L167.636364,19.0770697 L167.636364,20.7223056 L165.795455,20.7223056 L165.795455,21.9562325 L167.840909,21.9562325 L167.840909,23.8071229 L165.795455,23.8071229 L165.795455,25.6580132 C166,25.4523587 166.409091,25.2467043 166.613636,25.0410498 C167.022727,24.6297408 167.227273,24.4240863 167.431818,24.4240863 C167.636364,24.8353953 167.636364,25.4523587 167.840909,25.8636677 C166.204545,27.0975946 165.181818,27.9202126 164.772727,28.3315215 L164.363636,28.7428305 C164.159091,28.537176 163.75,27.9202126 163.340909,26.8919401 C163.340909,26.8919401 163.340909,26.6862856 163.545455,26.4806312 C163.954545,26.0693222 163.954545,25.8636677 163.954545,25.6580132 L163.954545,23.6014684 L161.704545,23.6014684 L161.704545,21.9562325 L163.954545,21.9562325 L163.954545,20.7223056 L163.340909,20.7223056 C163.340909,20.9279601 163.136364,20.9279601 163.136364,21.1336146 C163.136364,21.3392691 162.931818,21.3392691 162.931818,21.5449235 C162.727273,21.3392691 162.318182,20.9279601 161.5,20.5166511 C161.5,20.5166511 161.295455,20.5166511 161.295455,20.3109966 C162.522727,18.0487973 163.136364,16.1979069 163.136364,14.96398 C163.340909,14.5526711 163.340909,14.3470166 163.340909,14.1413621 C163.75,14.1413621 164.363636,14.3470166 165.386364,14.5526711 C165.386364,14.5526711 165.386364,14.7583256 165.181818,14.96398 L165.181818,16.1979069 Z M168.045455,25.8636677 L168.045455,15.1696345 L175,15.1696345 L175,22.3675415 L174.386364,22.3675415 C174.795455,22.7788504 175.204545,23.1901594 175.409091,23.6014684 C175.613636,24.0127773 175.613636,24.2184318 175.409091,24.2184318 L175.204545,24.2184318 C174.590909,24.6297408 174.181818,25.0410498 173.772727,25.2467043 C174.386364,26.0693222 175.204545,26.4806312 176.227273,26.8919401 C175.818182,27.3032491 175.204545,27.9202126 174.590909,28.7428305 L174.386364,28.537176 C172.954545,27.5089036 172.136364,26.6862856 171.727273,25.8636677 L171.727273,27.0975946 C170.090909,27.9202126 169.068182,28.537176 168.863636,28.7428305 L168.454545,29.1541395 C168.25,28.948485 168.045455,28.3315215 167.431818,27.0975946 C167.431818,27.0975946 167.431818,26.8919401 167.636364,26.8919401 C168.045455,26.4806312 168.045455,26.2749767 168.045455,25.8636677 Z M169.886364,16.8148704 L169.886364,18.0487973 L172.75,18.0487973 L172.75,16.8148704 L169.886364,16.8148704 Z M172.954545,20.7223056 L172.954545,19.4883787 L170.090909,19.4883787 L170.090909,20.7223056 L172.954545,20.7223056 Z M170.5,22.3675415 L169.886364,22.3675415 L169.886364,26.0693222 C170.704545,25.8636677 171.113636,25.4523587 171.318182,25.2467043 C170.909091,24.2184318 170.5,23.1901594 170.5,22.3675415 Z M173.977273,22.3675415 L172.136364,22.3675415 L172.136364,22.573196 C172.340909,23.1901594 172.545455,23.6014684 172.75,23.8071229 C173.363636,23.3958139 173.772727,22.7788504 173.977273,22.3675415 Z M178.477273,18.4601063 C179.909091,17.2261794 181.136364,15.9922525 182.363636,14.3470166 C182.568182,14.5526711 182.772727,14.5526711 183.181818,14.7583256 L184.409091,15.375289 L184.204545,15.5809435 C184,15.786598 183.795455,15.9922525 183.590909,15.9922525 C182.159091,17.4318339 181.136364,18.6657608 179.909091,19.4883787 C179.5,19.2827242 179.090909,18.8714152 178.477273,18.4601063 Z M191.977273,15.375289 L191.977273,17.0205249 L185.227273,17.0205249 L185.227273,15.375289 L191.977273,15.375289 Z M182.568182,21.1336146 L182.568182,28.948485 L180.522727,28.948485 L180.522727,22.9845049 C180.318182,23.3958139 179.909091,23.6014684 179.5,24.2184318 L178.068182,22.9845049 C179.704545,21.750578 181.136364,20.1053421 182.363636,18.0487973 C183.590909,18.6657608 184.204545,19.0770697 184.204545,19.2827242 C184.204545,19.2827242 184.204545,19.4883787 184,19.4883787 C183.795455,19.6940332 183.181818,20.3109966 182.568182,21.1336146 Z M184.204545,19.2827242 L193,19.2827242 L193,21.1336146 L190.545455,21.1336146 L190.545455,27.7145581 C190.545455,28.537176 189.727273,29.1541395 187.477273,29.1541395 C187.272727,28.3315215 187.068182,27.7145581 186.863636,27.0975946 C188.090909,27.0975946 188.5,27.0975946 188.5,26.6862856 L188.5,21.1336146 L184.204545,21.1336146 L184.204545,19.2827242 Z M98.9090909,34.7068105 L97.6818182,34.7068105 C97.6818182,34.0898471 97.2727273,33.6785381 96.6590909,33.6785381 C96.0454545,33.6785381 95.6363636,34.2955016 95.6363636,35.5294285 C95.6363636,36.7633554 96.0454545,37.3803188 96.6590909,37.3803188 C97.2727273,37.3803188 97.6818182,36.9690099 97.6818182,36.3520464 L98.9090909,36.3520464 C98.9090909,37.5859733 98.0909091,37.9972823 96.6590909,37.9972823 C95.2272727,37.9972823 94.6136364,37.1746643 94.6136364,35.323774 C94.6136364,33.4728836 95.4318182,32.6502657 96.6590909,32.6502657 C98.0909091,33.0615747 98.7045455,33.6785381 98.9090909,34.7068105 Z M100.954545,38.2029368 L99.9318182,38.2029368 L99.9318182,33.0615747 L100.954545,33.0615747 L100.954545,35.1181195 L103,35.1181195 L103,33.0615747 L104.022727,33.0615747 L104.022727,38.2029368 L103,38.2029368 L103,35.9407374 L100.954545,35.9407374 L100.954545,38.2029368 Z M106.477273,33.0615747 L106.477273,38.2029368 L105.454545,38.2029368 L105.454545,33.0615747 L106.477273,33.0615747 Z M112.409091,38.2029368 L110.772727,38.2029368 L108.727273,33.8841926 L108.727273,38.2029368 L107.704545,38.2029368 L107.704545,33.0615747 L109.340909,33.0615747 L111.386364,37.1746643 L111.386364,33.0615747 L112.409091,33.0615747 L112.409091,38.2029368 Z M114.454545,38.2029368 L113.227273,38.2029368 L115.068182,33.0615747 L116.295455,33.0615747 L118.136364,38.2029368 L117.113636,38.2029368 L116.704545,37.1746643 L114.659091,37.1746643 L114.454545,38.2029368 Z M115.068182,36.3520464 L116.5,36.3520464 L115.886364,34.0898471 L115.068182,36.3520464 Z M120.795455,38.2029368 L120.795455,33.0615747 L124.272727,33.0615747 L124.272727,33.8841926 L122.022727,33.8841926 L122.022727,35.1181195 L124.272727,35.1181195 L124.272727,35.9407374 L122.022727,35.9407374 L122.022727,37.3803188 L124.477273,37.3803188 L124.477273,38.2029368 L120.795455,38.2029368 Z M126.931818,38.2029368 L125.090909,33.0615747 L126.318182,33.0615747 L127.75,37.1746643 L129.181818,33.0615747 L130.204545,33.0615747 L128.159091,38.2029368 L126.931818,38.2029368 Z M131.022727,38.2029368 L131.022727,33.0615747 L134.5,33.0615747 L134.5,33.8841926 L132.25,33.8841926 L132.25,35.1181195 L134.5,35.1181195 L134.5,35.9407374 L132.25,35.9407374 L132.25,37.3803188 L134.704545,37.3803188 L134.704545,38.2029368 L131.022727,38.2029368 Z M136.75,33.8841926 L136.75,35.323774 L137.772727,35.323774 C138.181818,35.323774 138.590909,35.1181195 138.590909,34.501156 C138.590909,34.0898471 138.386364,33.8841926 137.772727,33.8841926 L136.75,33.8841926 Z M136.75,36.1463919 L136.75,38.2029368 L135.727273,38.2029368 L135.727273,33.0615747 L137.977273,33.0615747 C139.204545,33.0615747 139.818182,33.4728836 139.818182,34.501156 C139.818182,35.1181195 139.409091,35.5294285 138.795455,35.735083 C139.204545,35.735083 139.613636,36.1463919 139.613636,36.9690099 L139.613636,37.1746643 C139.613636,37.7916278 139.818182,38.2029368 139.818182,38.4085912 L138.590909,38.4085912 C138.386364,37.9972823 138.386364,37.5859733 138.386364,36.9690099 C138.386364,36.5577009 138.181818,36.3520464 137.977273,36.3520464 L136.75,36.3520464 L136.75,36.1463919 Z M142.068182,37.3803188 L142.886364,37.3803188 C143.5,37.3803188 143.704545,37.1746643 143.704545,36.7633554 C143.704545,36.3520464 143.5,36.1463919 142.886364,36.1463919 L142.068182,36.1463919 L142.068182,37.3803188 Z M142.068182,35.1181195 L142.886364,35.1181195 C143.295455,35.1181195 143.5,34.912465 143.704545,34.501156 C143.704545,34.0898471 143.5,33.8841926 142.886364,33.8841926 L142.068182,33.8841926 L142.068182,35.1181195 Z M142.886364,38.2029368 L140.840909,38.2029368 L140.840909,33.0615747 L142.886364,33.0615747 C144.113636,33.0615747 144.727273,33.4728836 144.727273,34.501156 C144.727273,35.1181195 144.318182,35.323774 143.909091,35.5294285 C144.727273,35.735083 144.931818,36.1463919 145.136364,36.9690099 C144.727273,37.7916278 144.113636,38.2029368 142.886364,38.2029368 Z M146.977273,33.8841926 L146.977273,35.323774 L148,35.323774 C148.409091,35.323774 148.818182,35.1181195 148.818182,34.501156 C148.818182,34.0898471 148.613636,33.8841926 148,33.8841926 L146.977273,33.8841926 Z M146.977273,36.1463919 L146.977273,38.2029368 L145.954545,38.2029368 L145.954545,33.0615747 L148.204545,33.0615747 C149.431818,33.0615747 150.045455,33.4728836 150.045455,34.501156 C150.045455,35.1181195 149.636364,35.5294285 149.022727,35.735083 C149.431818,35.735083 149.840909,36.1463919 149.840909,36.9690099 L149.840909,37.1746643 C149.840909,37.7916278 150.045455,38.2029368 150.045455,38.4085912 L148.818182,38.4085912 C148.613636,37.9972823 148.613636,37.5859733 148.613636,36.9690099 C148.613636,36.5577009 148.409091,36.3520464 148.204545,36.3520464 L146.977273,36.3520464 L146.977273,36.1463919 Z M152.090909,33.0615747 L152.090909,38.2029368 L151.068182,38.2029368 L151.068182,33.0615747 L152.090909,33.0615747 Z M157,36.3520464 L155.977273,36.3520464 L155.977273,35.5294285 L158.022727,35.5294285 L158.022727,38.2029368 L155.568182,38.2029368 C153.931818,38.2029368 153.113636,37.1746643 153.113636,35.5294285 C153.113636,33.8841926 153.931818,32.8559202 155.568182,32.8559202 C157.204545,32.8559202 158.022727,33.4728836 158.022727,34.501156 L156.795455,34.501156 C156.795455,33.8841926 156.386364,33.6785381 155.772727,33.6785381 C154.75,33.6785381 154.340909,34.2955016 154.340909,35.5294285 C154.340909,36.7633554 154.75,37.3803188 155.772727,37.3803188 L156.795455,37.3803188 L156.795455,36.3520464 L157,36.3520464 Z M160.477273,38.2029368 L159.454545,38.2029368 L159.454545,33.0615747 L160.477273,33.0615747 L160.477273,35.1181195 L162.522727,35.1181195 L162.522727,33.0615747 L163.545455,33.0615747 L163.545455,38.2029368 L162.522727,38.2029368 L162.522727,35.9407374 L160.477273,35.9407374 L160.477273,38.2029368 Z M164.568182,33.8841926 L164.568182,33.0615747 L168.659091,33.0615747 L168.659091,33.8841926 L167.227273,33.8841926 L167.227273,38.2029368 L166.204545,38.2029368 L166.204545,33.8841926 L164.568182,33.8841926 Z M172.340909,37.3803188 L173.159091,37.3803188 C173.772727,37.3803188 173.977273,37.1746643 173.977273,36.7633554 C173.977273,36.3520464 173.772727,36.1463919 173.159091,36.1463919 L172.340909,36.1463919 L172.340909,37.3803188 Z M172.340909,35.1181195 L173.159091,35.1181195 C173.568182,35.1181195 173.772727,34.912465 173.977273,34.501156 C173.977273,34.0898471 173.772727,33.8841926 173.159091,33.8841926 L172.340909,33.8841926 L172.340909,35.1181195 Z M173.159091,38.2029368 L171.113636,38.2029368 L171.113636,33.0615747 L173.159091,33.0615747 C174.386364,33.0615747 175,33.4728836 175,34.501156 C175,35.1181195 174.590909,35.323774 174.181818,35.5294285 C175,35.735083 175.204545,36.1463919 175.409091,36.9690099 C175.204545,37.7916278 174.386364,38.2029368 173.159091,38.2029368 Z M177.045455,38.2029368 L176.022727,38.2029368 L177.863636,33.0615747 L179.090909,33.0615747 L180.931818,38.2029368 L179.909091,38.2029368 L179.5,37.1746643 L177.454545,37.1746643 L177.045455,38.2029368 Z M177.659091,36.3520464 L179.090909,36.3520464 L178.477273,34.0898471 L177.659091,36.3520464 Z M186.454545,38.2029368 L184.818182,38.2029368 L182.772727,33.8841926 L182.772727,38.2029368 L181.75,38.2029368 L181.75,33.0615747 L183.386364,33.0615747 L185.431818,37.1746643 L185.431818,33.0615747 L186.454545,33.0615747 L186.454545,38.2029368 Z M188.909091,33.0615747 L188.909091,35.323774 L190.545455,33.0615747 L191.772727,33.0615747 L189.931818,35.323774 L191.977273,38.2029368 L190.545455,38.2029368 L188.909091,35.5294285 L188.909091,38.2029368 L187.886364,38.2029368 L187.886364,33.0615747 L188.909091,33.0615747 Z" id="Shape" fill="#FFFFFF" fill-rule="nonzero"></path>
    </g>
</svg>