<?xml version="1.0" encoding="UTF-8"?>
<svg width="206px" height="48px" viewBox="0 0 206 48" version="1.1" xmlns="http://www.w3.org/2000/svg" xmlns:xlink="http://www.w3.org/1999/xlink">
    <!-- Generator: Sketch 50.2 (55047) - http://www.bohemiancoding.com/sketch -->
    <title>CGB-full</title>
    <desc>Created with Sketch.</desc>
    <defs></defs>
    <g id="CGB-full" stroke="none" stroke-width="1" fill="none" fill-rule="evenodd">
        <rect id="@bound" x="0" y="0" width="206" height="48"></rect>
        <path d="M88.5005579,37.3751595 L87.542736,37.6337729 C87.2950234,36.9872395 86.8326266,36.6316461 86.1390315,36.5993194 C85.0986387,36.6478094 84.5536711,37.3105062 84.5041285,38.5874096 C84.5206427,39.8804764 85.0490962,40.5431731 86.089489,40.5754998 C86.9151975,40.5916631 87.4271368,40.1714164 87.6253069,39.3147597 L88.5996429,39.5410464 C88.2858737,40.7532965 87.4601651,41.3351765 86.1225173,41.3190132 C84.454586,41.2866865 83.5958491,40.3653764 83.5628208,38.5712463 C83.5958491,36.7609528 84.4711002,35.8234794 86.2050881,35.7749894 C87.2950234,35.807316 88.0546753,36.3407061 88.5005579,37.3751595 Z M93.2070966,35.904296 L94.1318902,35.904296 L94.1318902,41.2543598 L93.2070966,41.2543598 L93.2070966,38.8783496 L90.5318009,38.8783496 L90.5318009,41.2543598 L89.6400357,41.2543598 L89.6400357,35.904296 L90.5318009,35.904296 L90.5318009,38.1025096 L93.2070966,38.1025096 L93.2070966,35.904296 Z M95.5355947,35.904296 L96.42736,35.904296 L96.42736,41.2543598 L95.5355947,41.2543598 L95.5355947,35.904296 Z M101.563267,40.1875798 L101.563267,40.1552531 C101.530239,39.8158231 101.513725,39.4925564 101.513725,39.2016163 L101.513725,35.8881327 L102.388976,35.8881327 L102.388976,41.2381965 L101.49721,41.2381965 C100.440304,39.718843 99.6641375,38.6035729 99.1687123,37.8762229 C98.9705423,37.5529562 98.8054006,37.2458528 98.6732872,36.9387495 L98.6402589,36.9387495 C98.6898014,37.2458528 98.7228297,37.6014462 98.7228297,38.0055296 L98.7228297,41.2381965 L97.8475787,41.2381965 L97.8475787,35.8881327 L98.7723722,35.8881327 C99.812765,37.3913228 100.572417,38.5065929 101.051328,39.2177797 C101.21647,39.5087197 101.398125,39.8319864 101.563267,40.1875798 Z M107.640482,41.2543598 L107.112029,39.9612931 L104.651417,39.9612931 L104.089935,41.2543598 L103.148628,41.2543598 L105.444097,35.8719694 L106.319348,35.8719694 L108.614818,41.2543598 L107.640482,41.2543598 Z M104.965186,39.185453 L106.781745,39.185453 L106.038607,37.2943428 C105.956037,37.0680561 105.906494,36.8902595 105.906494,36.7771161 L105.873466,36.7771161 C105.856952,36.9387495 105.807409,37.1003828 105.708324,37.2943428 L104.965186,39.185453 Z M113.816782,38.3287963 L116.426021,38.3287963 L116.426021,40.3653764 C115.930596,40.9957465 115.121401,41.3190132 113.998438,41.3190132 C112.181879,41.2543598 111.240571,40.3330498 111.174515,38.5712463 C111.240571,36.7771161 112.148851,35.855806 113.899353,35.7749894 C115.137916,35.7911527 115.963624,36.3245427 116.376478,37.3589962 L115.418657,37.6176095 C115.170944,36.9387495 114.659005,36.5993194 113.866324,36.5831561 C112.776389,36.6639728 112.198393,37.3266695 112.115822,38.5712463 C112.181879,39.8158231 112.809418,40.4785198 113.96541,40.5593365 C114.692033,40.5593365 115.203972,40.3815398 115.517742,40.0097831 L115.517742,39.0723097 L113.800268,39.0723097 L113.800268,38.3287963 L113.816782,38.3287963 Z M121.215131,35.904296 L122.106896,35.904296 L122.106896,39.0076563 C122.156438,40.6239898 121.396786,41.3998299 119.811426,41.3351765 C118.292122,41.3836665 117.565499,40.6078265 117.598527,39.0076563 L117.598527,35.904296 L118.490292,35.904296 L118.490292,39.0076563 C118.473778,40.0905997 118.919661,40.6239898 119.811426,40.5916631 C120.785762,40.6239898 121.248159,40.1067631 121.215131,39.0076563 L121.215131,35.904296 Z M127.374916,41.2543598 L126.846463,39.9612931 L124.385851,39.9612931 L123.82437,41.2543598 L122.866548,41.2543598 L125.162017,35.8719694 L126.037268,35.8719694 L128.332738,41.2543598 L127.374916,41.2543598 Z M124.716135,39.185453 L126.532694,39.185453 L125.789556,37.2943428 C125.706985,37.0680561 125.657443,36.8902595 125.657443,36.7771161 L125.624414,36.7771161 C125.6079,36.9387495 125.558358,37.1003828 125.459272,37.2943428 L124.716135,39.185453 Z M132.824593,40.1875798 L132.824593,40.1552531 C132.791564,39.8158231 132.77505,39.4925564 132.77505,39.2016163 L132.77505,35.8881327 L133.650301,35.8881327 L133.650301,41.2381965 L132.758536,41.2381965 C131.701629,39.718843 130.925463,38.6035729 130.430038,37.8762229 C130.231868,37.5529562 130.066726,37.2458528 129.934613,36.9387495 L129.901584,36.9387495 C129.951127,37.2458528 129.984155,37.6014462 129.984155,38.0055296 L129.984155,41.2381965 L129.108904,41.2381965 L129.108904,35.8881327 L130.033698,35.8881327 C131.074091,37.3913228 131.833742,38.5065929 132.312653,39.2177797 C132.494309,39.5087197 132.659451,39.8319864 132.824593,40.1875798 Z M137.415532,38.3287963 L140.024771,38.3287963 L140.024771,40.3653764 C139.529346,40.9957465 138.720152,41.3190132 137.597188,41.3190132 C135.780629,41.2543598 134.839322,40.3330498 134.773265,38.5712463 C134.839322,36.7771161 135.747601,35.855806 137.498103,35.7749894 C138.736666,35.7911527 139.562374,36.3245427 139.975229,37.3589962 L139.017407,37.6176095 C138.769694,36.9387495 138.257755,36.5993194 137.465075,36.5831561 C136.375139,36.6639728 135.797143,37.3266695 135.714573,38.5712463 C135.780629,39.8158231 136.408168,40.4785198 137.56416,40.5593365 C138.290783,40.5593365 138.802723,40.3815398 139.116492,40.0097831 L139.116492,39.0723097 L137.399018,39.0723097 L137.399018,38.3287963 L137.415532,38.3287963 Z M145.160678,36.6801361 L142.122071,36.6801361 L142.122071,38.1025096 L144.73131,38.1025096 L144.73131,38.8783496 L142.122071,38.8783496 L142.122071,41.2543598 L141.230306,41.2543598 L141.230306,35.8719694 L145.160678,35.8719694 L145.160678,36.6801361 Z M150.180986,41.2543598 L149.652533,39.9612931 L147.191921,39.9612931 L146.63044,41.2543598 L145.672618,41.2543598 L147.968087,35.8719694 L148.843339,35.8719694 L151.138808,41.2543598 L150.180986,41.2543598 Z M147.522205,39.185453 L149.338764,39.185453 L148.595626,37.2943428 C148.513055,37.0680561 148.463513,36.8902595 148.463513,36.7771161 L148.430484,36.7771161 C148.41397,36.9387495 148.364428,37.1003828 148.265343,37.2943428 L147.522205,39.185453 Z M156.406829,41.2543598 L153.929703,41.2543598 L153.929703,35.904296 L156.274715,35.904296 C157.430707,35.952786 158.058246,36.4215228 158.124303,37.2943428 C158.107788,37.8115695 157.87659,38.1833262 157.430707,38.4096129 C158.025218,38.6682263 158.338987,39.1046363 158.355501,39.7350064 C158.355501,40.7371331 157.694934,41.2543598 156.406829,41.2543598 Z M154.78844,36.6801361 L154.78844,38.1025096 L156.142602,38.1025096 C156.836197,38.0863462 157.182995,37.8277329 157.199509,37.3589962 C157.166481,36.9225861 156.819683,36.7124628 156.17563,36.6801361 L154.78844,36.6801361 Z M156.241687,38.8783496 L154.78844,38.8783496 L154.78844,40.5108464 L156.324258,40.5108464 C157.067396,40.5108464 157.430707,40.2360698 157.430707,39.6865164 C157.397679,39.1531263 157.001339,38.894513 156.241687,38.8783496 Z M163.408837,41.2543598 L162.880384,39.9612931 L160.419772,39.9612931 L159.858291,41.2543598 L158.900469,41.2543598 L161.195938,35.8719694 L162.071189,35.8719694 L164.366659,41.2543598 L163.408837,41.2543598 Z M160.733542,39.185453 L162.5501,39.185453 L161.806963,37.2943428 C161.724392,37.0680561 161.674849,36.8902595 161.674849,36.7771161 L161.641821,36.7771161 C161.625307,36.9387495 161.575764,37.1003828 161.476679,37.2943428 L160.733542,39.185453 Z M168.842,40.1875798 L168.842,40.1552531 C168.808971,39.8158231 168.792457,39.4925564 168.792457,39.2016163 L168.792457,35.8881327 L169.667708,35.8881327 L169.667708,41.2381965 L168.775943,41.2381965 C167.719036,39.718843 166.94287,38.6035729 166.447445,37.8762229 C166.249275,37.5529562 166.084133,37.2458528 165.95202,36.9387495 L165.918991,36.9387495 C165.968534,37.2458528 166.001562,37.6014462 166.001562,38.0055296 L166.001562,41.2381965 L165.126311,41.2381965 L165.126311,35.8881327 L166.051105,35.8881327 C167.091497,37.3913228 167.851149,38.5065929 168.33006,39.2177797 C168.511716,39.5087197 168.693372,39.8319864 168.842,40.1875798 Z M174.555903,41.2543598 L172.673287,38.7167163 L171.798036,39.573373 L171.798036,41.2543598 L170.873243,41.2543598 L170.873243,35.904296 L171.798036,35.904296 L171.798036,38.4419396 L174.390761,35.904296 L175.662352,35.904296 L173.284312,38.1509996 L175.761437,41.2543598 L174.555903,41.2543598 Z M89.573979,11.6916206 L89.573979,16.0395576 C89.6400357,21.1633348 88.6491854,24.9940451 86.6179424,27.5316886 C86.6179424,27.402382 85.7922339,26.6588686 84.1243026,25.2688218 C85.7922339,23.3938749 86.5518857,20.209698 86.4362865,15.6839643 L86.4362865,8.89536368 L94.4786878,8.89536368 C94.4126311,8.78222033 94.3300603,8.57209698 94.1979469,8.26499362 C93.9502343,7.66695023 93.7685784,7.24670353 93.6364651,7.00425351 L97.1539835,6.19608677 C97.2695827,6.50319013 97.4677527,6.9557635 97.7154653,7.55380689 C97.8971212,8.15185028 98.0457487,8.60442365 98.1778621,8.91152701 L105.658782,8.91152701 L105.658782,11.6916206 L89.573979,11.6916206 Z M127.374916,15.1344109 L127.374916,17.5750744 C126.136353,19.5631646 124.666592,21.2279881 122.932604,22.5533815 C124.600536,23.2807316 126.846463,23.8464483 129.6869,24.266695 C129.257532,24.7515951 128.729078,25.5597618 128.118054,26.7073586 C127.936398,26.9498086 127.804285,27.1276053 127.754742,27.256912 C124.798706,26.5942152 122.272037,25.6567418 120.174738,24.460655 C118.011381,25.5435985 115.468199,26.5457252 112.512162,27.450872 C111.950681,26.5457252 111.405713,25.7052318 110.844231,24.9132284 C113.238786,24.1858783 115.435171,23.4100383 117.400357,22.5695449 C116.359964,21.5512548 115.402142,20.4359847 114.543405,19.2237346 C112.875474,21.8745215 110.943316,24.0565717 108.713903,25.7375585 C108.647846,25.4304551 108.532247,25.0748618 108.350591,24.6546151 C108.284535,24.169715 108.06985,23.4262016 107.706539,22.3917482 C110.546976,19.7409613 112.693818,16.6699277 114.180094,13.162484 L108.631332,13.162484 L108.631332,10.6248405 C108.994644,9.41259039 109.37447,8.18417695 109.737782,6.92343684 L112.693818,7.2790302 C112.512162,8.0710336 112.231422,9.15397703 111.86811,10.5278605 L115.005802,10.5278605 C115.071859,10.2207571 115.187458,9.75202042 115.369114,9.07316036 C115.616827,7.86091025 115.831511,6.93960017 116.013167,6.27690345 L119.150859,6.55168014 C119.018746,7.21437686 118.804062,8.18417695 118.506807,9.44491706 C118.374693,9.9298171 118.292122,10.2854105 118.226066,10.5278605 L124.41888,10.5278605 C123.609685,9.80051042 122.783977,9.02467035 121.92524,8.16801361 L123.873912,6.35772012 C124.369337,6.77796682 125.079447,7.35984687 126.00424,8.0710336 C126.615264,8.55593365 127.044633,8.91152701 127.292345,9.15397703 L125.905155,10.5116972 L129.604329,10.5116972 L129.604329,13.1463207 L117.400357,13.1463207 C117.3343,13.4534241 117.152644,13.9059974 116.838875,14.5040408 C116.772819,14.8111442 116.706762,15.0212675 116.657219,15.1344109 L127.374916,15.1344109 Z M120.075653,21.0178647 C121.677527,19.9349213 122.883062,18.8196512 123.675742,17.6720544 L117.020531,17.6720544 C117.631555,18.7549979 118.655434,19.870268 120.075653,21.0178647 Z M139.380719,8.89536368 L139.380719,11.3360272 L135.318233,11.3360272 C135.252176,11.5138239 135.136577,11.7562739 134.954921,12.0633773 C134.822807,12.4189707 134.707208,12.6937473 134.591609,12.871544 L138.75318,12.871544 L138.75318,15.3122076 L136.903593,15.3122076 L136.903593,17.4780944 L139.314662,17.4780944 L139.314662,19.918758 L136.903593,19.918758 L136.903593,23.0867716 C137.580674,22.6665249 138.224727,22.2786048 138.852265,21.9068481 C138.967864,22.8119949 139.066949,23.7494683 139.133006,24.7031051 C138.026557,25.3011484 137.035706,25.8830285 136.176969,26.4164185 C135.995314,26.5295619 135.714573,26.7396852 135.351261,27.0467886 C135.169605,27.1599319 135.037492,27.256912 134.987949,27.3215653 L133.36956,25.2688218 C133.798929,24.8485751 134.013613,24.2505317 134.013613,23.4585283 L134.013613,19.9349213 L131.619058,19.9349213 L131.619058,17.4942578 L134.030127,17.4942578 L134.030127,15.3283709 L133.204419,15.3283709 C132.956706,15.7486176 132.642937,16.201191 132.279625,16.686091 C132.031913,15.4253509 131.751172,14.2777541 131.453917,13.2433007 C132.742022,10.9481072 133.633787,8.63675032 134.129212,6.27690345 C135.235662,6.45470013 136.160455,6.63249681 136.903593,6.82645683 C136.837536,7.06890685 136.754965,7.40833688 136.622852,7.82858358 C136.441196,8.31348362 136.309083,8.66907699 136.25954,8.91152701 L139.380719,8.91152701 L139.380719,8.89536368 Z M152.047088,18.3832412 L151.403035,18.3832412 L153.070966,20.743088 L151.221379,21.6482348 C150.412185,22.0684815 149.80116,22.4079115 149.371792,22.6503615 C150.478241,23.490855 151.865432,24.1050617 153.533363,24.460655 C153.170051,24.8162484 152.707655,25.5112718 152.146173,26.5457252 C151.964517,26.7881752 151.832403,26.9659719 151.782861,27.0952786 C149.817675,26.4325819 148.149743,25.4627818 146.795581,24.2020417 C146.729525,24.6869417 146.696496,25.0748618 146.696496,25.3819651 C143.922116,26.2224585 141.956929,26.9821353 140.784423,27.644832 L139.496318,25.3819651 C139.85963,24.8970651 140.0578,24.2020417 140.0578,23.2968949 L140.0578,7.16588686 L152.080116,7.16588686 L152.080116,18.3832412 L152.047088,18.3832412 Z M149.173622,11.6108039 L149.173622,9.80051042 L142.980808,9.80051042 L142.980808,11.6108039 L149.173622,11.6108039 Z M142.980808,15.7647809 L149.173622,15.7647809 L149.173622,13.9544875 L142.980808,13.9544875 L142.980808,15.7647809 Z M143.723946,18.3832412 L142.980808,18.3832412 L142.980808,23.9919183 C143.34412,23.8141217 143.971658,23.5716716 144.830395,23.2645683 C145.259763,23.0867716 145.573533,22.9574649 145.755189,22.9089749 C144.896452,21.6482348 144.219371,20.1450447 143.723946,18.3832412 Z M151.30395,18.3832412 L146.597411,18.3832412 C146.71301,18.8681412 146.993751,19.4661846 147.42312,20.1935347 C147.538719,20.4359847 147.637804,20.6137814 147.703861,20.743088 C148.925909,20.015738 150.131444,19.2398979 151.30395,18.3832412 Z M160.915198,11.8694173 L163.507922,13.4049341 C162.830841,14.3100808 162.120732,15.2475542 161.377594,16.201191 L161.377594,27.1437686 L158.322473,27.1437686 L158.322473,19.3692046 C157.645392,19.967248 156.935282,20.6137814 156.192145,21.2764781 C155.944432,20.4359847 155.548092,19.4338579 154.98661,18.2862612 C157.28208,16.3628243 159.247266,14.2292641 160.915198,11.8694173 Z M160.634457,6.26074011 C160.750056,6.39004679 160.96474,6.5355168 161.278509,6.71331348 C161.773934,7.02041684 162.417987,7.47299022 163.227181,8.0710336 C161.691364,9.81667376 159.627092,11.6916206 157.034367,13.6797108 C156.604999,12.9038707 155.960946,12.047214 155.085695,11.1420672 C157.612363,9.34793705 159.46195,7.71544024 160.634457,6.26074011 Z M163.788663,16.6699277 L163.788663,13.8736708 L177,13.8736708 L177,16.6699277 L173.482482,16.6699277 L173.482482,23.636325 C173.482482,25.8668652 172.376032,27.0467886 170.163133,27.1599319 L168.313546,27.1599319 C167.273153,27.2245853 166.463959,27.256912 165.902477,27.256912 C165.720821,26.2386219 165.473109,25.3011484 165.159339,24.460655 C165.720821,24.460655 166.447445,24.4929817 167.372238,24.557635 L168.660344,24.557635 C169.766793,24.557635 170.328275,24.0080817 170.328275,22.9251382 L170.328275,16.686091 L163.788663,16.686091 L163.788663,16.6699277 Z M45.4150859,5 L57.2887748,5 C55.9676412,9.9783071 53.919884,15.1182476 51.3767016,20.1288813 C49.5931712,23.636325 47.5619281,27.0629519 45.3490292,30.3279456 C49.3454586,30.0854955 53.4079447,30.1016589 57.404374,30.3602722 C55.1914751,27.0952786 53.1602321,23.6524883 51.3767016,20.1450447 C53.919884,15.1344109 55.9676412,9.99447044 57.2887748,5.01616333 C60.5420665,15.0697575 66.5201964,25.2364951 73.8524883,32.9140791 L73.8524883,32.9302425 L67.9239009,43 C57.4374024,40.6886431 45.4481143,40.6401531 34.9616157,42.95151 L34.9451015,42.9353467 L35.1267574,42.75755 L35.3084133,42.5797533 L35.3874056,42.4947078 C35.2402426,42.6426058 35.0928037,42.7894916 34.9451015,42.9353467 L29,32.8655891 C33.3650059,31.6966283 38.1094995,30.9110748 42.9805297,30.4986128 C38.1094915,30.9107637 33.3650022,31.6943822 29,32.8494258 C36.249721,25.1071884 42.2278509,15.0212675 45.3985717,5 L45.4150859,5 Z M45.0974607,30.6954274 C44.5401682,31.5054162 43.9719452,32.3043164 43.3938485,33.0905763 C43.973228,32.3046096 44.540634,31.5053004 45.0975077,30.6954696 Z M164.515287,10.6086772 L164.515287,7.81242025 L175.976121,7.81242025 L175.976121,10.6086772 L164.515287,10.6086772 Z" id="Shape" fill="#FFFFFF" fill-rule="nonzero"></path>
    </g>
</svg>