<?xml version="1.0" encoding="UTF-8"?>
<svg width="48px" height="48px" viewBox="0 0 48 48" version="1.1" xmlns="http://www.w3.org/2000/svg" xmlns:xlink="http://www.w3.org/1999/xlink">
    <!-- Generator: Sketch 50.2 (55047) - http://www.bohemiancoding.com/sketch -->
    <title>CGB</title>
    <desc>Created with Sketch.</desc>
    <defs></defs>
    <g id="CGB" stroke="none" stroke-width="1" fill="none" fill-rule="evenodd">
        <g id="广发银行" transform="translate(1.000000, 4.000000)" fill-rule="nonzero">
            <path d="M22.9999974,15.3396882 C21.0013705,19.4055452 18.7363297,23.3330324 16.2198768,27.096137 C10.7617718,27.4378936 5.34234625,28.245694 0.0200067591,29.5108323 C7.49878854,20.8715174 13.252241,10.8607834 16.9650604,0.0272438947 C18.0408535,3.44057689 19.1953632,6.79050432 20.6017659,10.0981614 C21.3469494,11.8418145 22.1708495,13.5907513 22.9999974,15.3396882 Z M39.945051,39.9727508 C36.1700914,36.0049238 32.7673172,31.6943977 29.7801179,27.096137 C35.238223,27.4378936 40.6576485,28.245694 45.979988,29.5108323 L39.945051,39.9727508 Z" id="path" fill="#BC0016"></path>
            <path d="M22.9999974,26.9059203 C25.2303002,26.9059203 27.4658508,26.9059203 29.7801179,27.0750018 C32.7662574,31.6805926 36.1690608,35.9982309 39.945051,39.9727508 C34.3609841,38.8932923 28.6859953,38.3624207 22.9999974,38.3876116 C17.3139995,38.3624207 11.6390107,38.8932923 6.05494377,39.9727508 C9.76203064,35.9682411 13.1602074,31.6847355 16.2198768,27.1595426 C18.4554274,26.9904611 20.7696946,26.9059203 22.9999974,26.9059203 Z M22.9999974,15.3396882 C22.1708495,13.5907513 21.3469494,11.8418145 20.6017659,10.0981614 C19.1940103,6.81606891 17.9796682,3.45326175 16.9650604,0.0272438947 L29.0349344,0.0272438947 C27.9591413,3.44057689 26.8046316,6.76936911 25.3982289,10.0981614 C24.6530453,11.8418145 23.8291452,13.5907513 22.9999974,15.3396882 Z" id="path" fill="#730000"></path>
            <path d="M0.0200067591,29.5108323 L6.05494377,39.9727508 C9.83093393,35.9982309 13.2337374,31.6805926 16.2198768,27.0750018 C10.7656371,27.4653193 5.34953727,28.2796901 0.0200067591,29.5108323 Z M28.9509701,0.0272438947 C27.9363623,3.45326175 26.7220201,6.81606891 25.3142645,10.0981614 C24.569081,11.8418145 23.7399332,13.5907513 22.916033,15.3396882 C24.8854825,19.4144949 27.1517107,23.3369765 29.6961536,27.0750018 C35.1548621,27.4237029 40.5742949,28.2385748 45.8960236,29.5108323 C38.4469271,20.8501815 32.6969534,10.8455003 28.9509701,0.0272438947 Z" id="path" fill="#E50020"></path>
        </g>
    </g>
</svg>