<?xml version="1.0" encoding="UTF-8"?>
<svg width="206px" height="48px" viewBox="0 0 206 48" version="1.1" xmlns="http://www.w3.org/2000/svg" xmlns:xlink="http://www.w3.org/1999/xlink">
    <!-- Generator: Sketch 51 (57462) - http://www.bohemiancoding.com/sketch -->
    <title>CIB-full</title>
    <desc>Created with Sketch.</desc>
    <defs></defs>
    <g id="CIB-full" stroke="none" stroke-width="1" fill="none" fill-rule="evenodd">
        <rect id="@bound" x="0" y="0" width="206" height="48"></rect>
        <path d="M71.3590244,23.6721951 C71.3590244,17.496408 63.0035477,12.4104656 52.6500222,12.4104656 C44.2945455,12.4104656 37.3921951,15.68 34.8492239,20.0393792 C34.6675831,20.4026608 34.4859424,20.9475831 34.4859424,21.3108647 C34.4859424,22.4007095 35.2125055,23.4905543 36.3023503,24.0354767 L45.7476718,29.4847007 C46.2925942,29.6663415 46.8375166,29.8479823 47.382439,29.8479823 C47.9273614,29.8479823 48.6539246,29.6663415 49.0172062,29.4847007 L58.0992461,24.2171175 C58.6441685,23.8538359 59.0074501,23.3089135 59.0074501,22.7639911 C59.0074501,22.2190687 58.6441685,21.6741463 58.0992461,21.3108647 L54.8297118,19.312816 L47.382439,23.6721951 L41.7515743,20.4026608 C43.9312639,18.404612 47.9273614,17.1331264 52.6500222,17.1331264 C59.5523725,17.1331264 65.1832373,20.0393792 65.1832373,23.6721951 C65.0015965,29.3030599 56.8277605,33.662439 46.8375166,33.2991574 C36.8472727,33.1175166 28.8550776,28.2132151 29.0367184,22.5823503 C29.0367184,15.1350776 38.8453215,9.32257206 50.6519734,9.32257206 C51.7418182,9.32257206 52.831663,9.32257206 53.739867,9.50421286 C51.3785366,8.59600887 48.290643,8.05108647 44.8394678,8.05108647 C42.1148559,8.05108647 39.7535255,8.41436807 37.5738359,8.95929047 C29.0367184,11.8655432 23.0425721,17.3147672 23.0425721,23.6721951 C23.0425721,32.2093126 33.94102,39.111663 47.2007982,39.111663 C60.6422173,39.2933038 71.3590244,32.3909534 71.3590244,23.6721951 Z M78.9879379,19.8577384 L80.6227051,20.0393792 L93.1559202,20.0393792 C93.5192018,19.1311752 93.7008426,18.2229712 94.0641242,17.496408 C94.245765,16.7698448 94.6090466,15.8616408 94.7906874,15.1350776 L95.3356098,12.4104656 C95.5172506,11.5022616 95.6988914,10.7756984 95.6988914,10.5940576 L95.8805322,9.50421286 L95.8805322,9.32257206 C95.8805322,9.14093126 96.0621729,9.14093126 96.4254545,9.32257206 C96.4254545,9.32257206 96.7887361,9.50421286 97.3336585,9.68585366 C97.8785809,9.86749446 98.4235033,10.2307761 99.1500665,10.4124169 C99.6949889,10.7756984 100.058271,10.9573392 100.239911,11.13898 L100.239911,11.5022616 C100.239911,11.5022616 99.8766297,11.6839024 99.3317073,11.8655432 C98.9684257,12.5921064 98.6051441,13.3186696 98.2418625,13.863592 C97.8785809,14.5901552 96.6070953,16.588204 94.4274058,20.0393792 L97.1520177,20.0393792 C97.6969401,19.312816 98.0602217,18.7678936 98.4235033,18.404612 C98.7867849,18.0413304 98.9684257,17.8596896 99.1500665,17.8596896 C99.3317073,17.8596896 99.5133481,18.0413304 99.8766297,18.2229712 C100.603193,18.7678936 101.148115,19.312816 101.329756,19.6760976 C101.693038,20.0393792 101.693038,20.4026608 101.693038,20.4026608 C101.693038,20.4026608 101.511397,20.5843016 101.329756,20.5843016 L79.5328603,20.5843016 L78.9879379,19.8577384 Z M85.1637251,27.4866519 C84.0738803,28.2132151 82.4391131,29.1214191 80.6227051,29.8479823 L79.7145011,30.2112639 L79.3512195,30.2112639 C79.3512195,30.0296231 79.3512195,30.0296231 79.5328603,29.8479823 L80.4410643,29.3030599 C80.6227051,29.1214191 80.9859867,28.9397783 81.3492683,28.5764967 C81.7125499,28.2132151 82.2574723,27.6682927 82.9840355,27.1233703 C83.7105987,26.3968071 84.2555211,25.6702439 84.6188027,24.9436807 C85.1637251,24.2171175 85.3453659,23.6721951 85.5270067,23.3089135 L85.8902882,22.5823503 C85.8902882,22.4007095 86.071929,22.4007095 86.071929,22.2190687 L86.2535698,22.2190687 C86.7984922,22.5823503 87.5250554,22.9456319 88.4332594,23.3089135 C89.1598226,23.8538359 89.704745,24.0354767 89.5231042,24.2171175 C89.5231042,24.3987583 89.5231042,24.3987583 89.3414634,24.5803991 L88.6149002,24.5803991 C87.5250554,25.6702439 86.2535698,26.5784479 85.1637251,27.4866519 Z M92.2477162,22.9456319 C92.9742794,23.1272727 93.7008426,23.3089135 94.245765,23.3089135 C94.9723282,23.4905543 95.6988914,23.8538359 96.7887361,24.2171175 C97.8785809,24.5803991 98.6051441,25.1253215 99.1500665,25.8518847 C99.6949889,26.5784479 100.058271,27.1233703 100.058271,27.6682927 C100.058271,28.2132151 100.058271,28.7581375 99.6949889,29.1214191 C99.3317073,29.4847007 98.9684257,29.6663415 98.4235033,29.6663415 C97.8785809,29.6663415 97.5152993,29.4847007 97.3336585,29.1214191 C97.1520177,28.7581375 96.7887361,28.3948559 96.4254545,27.6682927 C96.0621729,26.9417295 95.6988914,26.3968071 95.153969,25.6702439 C94.6090466,25.1253215 94.245765,24.5803991 93.8824834,24.3987583 C93.5192018,24.0354767 93.1559202,23.6721951 92.6109978,23.4905543 C92.0660754,23.1272727 91.8844346,23.1272727 91.7027938,22.9456319 C91.521153,22.9456319 91.521153,22.7639911 91.521153,22.7639911 L91.521153,22.5823503 C91.521153,22.5823503 91.7027938,22.4007095 91.8844346,22.5823503 L92.2477162,22.9456319 Z M88.2516186,9.86749446 C89.704745,11.13898 90.612949,12.047184 91.1578714,12.7737472 C91.7027938,13.5003104 92.0660754,14.4085144 92.0660754,15.1350776 C92.2477162,16.0432816 92.0660754,16.588204 91.8844346,17.1331264 C91.7027938,17.496408 91.521153,17.6780488 91.1578714,18.0413304 C90.7945898,18.2229712 90.4313082,18.404612 89.8863858,18.2229712 C89.3414634,18.2229712 88.9781818,17.8596896 88.796541,17.496408 C88.6149002,17.1331264 88.6149002,16.588204 88.6149002,16.4065632 C88.6149002,16.4065632 88.6149002,16.0432816 88.796541,15.68 C88.796541,15.3167184 88.9781818,14.9534368 88.9781818,14.4085144 L88.9781818,13.1370288 C88.796541,12.2288248 88.6149002,11.5022616 88.4332594,11.13898 L87.888337,10.0491353 C87.7066962,9.86749446 87.7066962,9.68585366 87.5250554,9.50421286 L87.5250554,9.32257206 L87.5250554,9.14093126 L87.7066962,9.14093126 L88.2516186,9.86749446 Z M82.6207539,10.7756984 C82.9840355,10.9573392 83.3473171,11.3206208 83.8922395,11.6839024 C84.4371619,12.047184 84.9820843,12.7737472 85.7086475,13.5003104 C86.4352106,14.4085144 86.7984922,15.3167184 86.7984922,16.2249224 C86.7984922,17.3147672 86.6168514,17.8596896 86.2535698,18.2229712 C85.8902882,18.5862528 85.3453659,18.7678936 84.8004435,18.7678936 C84.2555211,18.7678936 83.8922395,18.5862528 83.7105987,18.2229712 C83.5289579,17.8596896 83.3473171,17.496408 83.3473171,17.3147672 C83.3473171,16.9514856 83.3473171,16.588204 83.5289579,16.0432816 L83.5289579,14.2268736 C83.5289579,13.6819512 83.3473171,13.1370288 83.1656763,12.7737472 C82.9840355,12.4104656 82.8023947,11.8655432 82.4391131,11.5022616 C82.0758315,11.13898 81.8941907,10.7756984 81.8941907,10.7756984 L81.7125499,10.5940576 L81.7125499,10.4124169 L81.8941907,10.4124169 L82.6207539,10.7756984 Z M106.415698,29.1214191 L108.050466,29.3030599 L113.318049,29.3030599 L113.318049,12.5921064 L113.136408,9.32257206 C113.136408,9.14093126 113.49969,9.14093126 113.68133,9.14093126 C114.952816,9.32257206 115.679379,9.50421286 116.224302,9.68585366 C116.769224,9.86749446 116.950865,10.0491353 116.769224,10.2307761 C116.769224,10.4124169 116.405942,10.5940576 115.86102,10.9573392 L115.86102,29.4847007 L118.22235,29.4847007 L118.22235,9.50421286 C118.22235,9.32257206 118.585632,9.32257206 118.767273,9.32257206 C120.038758,9.50421286 120.765322,9.68585366 121.128603,9.68585366 C121.491885,9.86749446 121.673525,9.86749446 121.673525,10.0491353 C121.673525,10.2307761 121.855166,10.2307761 121.673525,10.4124169 C121.673525,10.5940576 121.310244,10.7756984 120.946962,11.13898 L120.946962,24.0354767 C121.128603,23.4905543 121.310244,23.1272727 121.491885,22.9456319 C121.673525,22.5823503 121.855166,22.0374279 122.036807,21.3108647 C122.400089,20.5843016 122.581729,19.8577384 122.76337,19.1311752 C122.945011,18.5862528 123.126652,17.8596896 123.308293,17.1331264 C123.489933,16.4065632 123.671574,15.8616408 123.671574,15.68 L123.853215,14.771796 L124.034856,14.0452328 C124.216497,13.863592 124.398137,13.863592 124.579778,14.0452328 L125.851264,14.5901552 L126.941109,15.1350776 C127.30439,15.3167184 127.486031,15.4983592 127.486031,15.68 L127.486031,15.8616408 C127.30439,16.0432816 127.122749,16.0432816 126.577827,16.2249224 C125.487982,18.2229712 124.398137,20.0393792 123.671574,21.3108647 C122.945011,22.5823503 122.400089,23.4905543 121.855166,24.0354767 L121.128603,25.8518847 L121.128603,29.1214191 L123.671574,29.1214191 C124.216497,28.3948559 124.579778,28.0315743 124.94306,27.6682927 C125.124701,27.3050111 125.306341,27.1233703 125.487982,27.1233703 C125.669623,27.1233703 125.851264,27.3050111 126.214545,27.4866519 L126.941109,28.2132151 L127.667672,28.9397783 C128.030953,29.3030599 128.212594,29.4847007 128.030953,29.4847007 C128.030953,29.6663415 127.849313,29.6663415 127.667672,29.6663415 L107.142262,29.6663415 L106.415698,29.1214191 Z M108.595388,15.1350776 C109.503592,16.2249224 110.230155,17.1331264 110.775078,17.8596896 C111.32,18.7678936 111.683282,19.4944568 112.046563,20.4026608 C112.409845,21.3108647 112.591486,22.0374279 112.591486,22.7639911 C112.591486,23.4905543 112.409845,24.0354767 112.046563,24.3987583 C111.683282,24.7620399 111.32,24.9436807 110.593437,24.9436807 C110.048514,24.9436807 109.685233,24.7620399 109.503592,24.3987583 C109.321951,24.0354767 109.14031,23.6721951 109.321951,23.1272727 L109.503592,21.8557871 L109.503592,19.6760976 C109.503592,19.1311752 109.321951,18.5862528 109.14031,18.0413304 C108.95867,17.496408 108.95867,17.1331264 108.777029,16.7698448 C108.595388,16.4065632 108.413747,16.0432816 108.413747,15.8616408 C108.232106,15.68 108.232106,15.4983592 108.050466,15.3167184 C108.050466,15.1350776 107.868825,15.1350776 107.868825,14.9534368 L107.868825,14.771796 C107.868825,14.771796 108.050466,14.771796 108.232106,14.9534368 L108.595388,15.1350776 Z M146.013392,19.4944568 L148.193082,19.4944568 C148.193082,20.4026608 148.374723,20.9475831 148.374723,20.9475831 C148.374723,21.1292239 148.374723,21.4925055 148.556364,22.2190687 C148.738004,22.9456319 148.738004,23.3089135 148.738004,23.4905543 C148.738004,23.6721951 148.919645,24.2171175 149.101286,24.9436807 C148.193082,25.3069623 147.103237,25.8518847 146.013392,26.2151663 L146.013392,19.4944568 Z M143.652062,9.86749446 L143.470421,9.86749446 L143.470421,27.3050111 C143.470421,27.4866519 143.28878,27.4866519 143.28878,27.6682927 L142.925499,27.6682927 L142.925499,27.8499335 L144.015344,30.2112639 C144.015344,30.3929047 144.196984,30.5745455 144.196984,30.5745455 L144.378625,30.5745455 C144.378625,30.5745455 144.560266,30.5745455 144.560266,30.3929047 L145.286829,29.6663415 C145.650111,29.3030599 145.831752,28.9397783 146.013392,28.7581375 L146.921596,27.6682927 C147.103237,27.4866519 147.8298,26.5784479 148.919645,25.4886031 L149.282927,26.3968071 C149.464568,26.7600887 149.646208,27.3050111 150.191131,28.2132151 C150.554412,29.1214191 151.099335,29.6663415 151.644257,30.2112639 C152.18918,30.7561863 152.552461,30.9378271 152.552461,30.9378271 C152.552461,30.9378271 152.734102,30.7561863 152.734102,30.5745455 C152.915743,30.3929047 152.915743,30.2112639 153.097384,29.8479823 C153.279024,29.6663415 153.460665,29.3030599 153.823947,29.1214191 C154.187228,28.9397783 154.368869,28.7581375 154.55051,28.7581375 L155.277073,28.5764967 C155.458714,28.5764967 155.458714,28.5764967 155.458714,28.3948559 C155.458714,28.3948559 155.458714,28.2132151 155.277073,28.2132151 L154.913792,28.0315743 C154.732151,28.0315743 154.368869,27.8499335 153.642306,27.3050111 C152.915743,26.9417295 152.18918,26.3968071 151.644257,25.6702439 C151.099335,25.1253215 150.554412,24.3987583 150.00949,23.4905543 L151.099335,23.1272727 L152.915743,22.2190687 C153.097384,22.2190687 153.460665,22.0374279 153.823947,21.8557871 L154.55051,21.6741463 C155.277073,21.4925055 155.277073,21.3108647 154.187228,20.7659424 C153.279024,20.22102 152.552461,20.0393792 152.18918,19.8577384 L152.007539,19.8577384 L151.825898,20.0393792 L152.007539,20.9475831 C151.462616,21.6741463 150.917694,22.4007095 150.191131,23.1272727 L149.827849,22.4007095 C149.827849,22.2190687 149.646208,21.8557871 149.464568,21.4925055 C149.282927,20.9475831 149.101286,20.5843016 149.101286,20.4026608 C149.101286,20.22102 148.919645,19.8577384 148.919645,19.4944568 L151.280976,19.4944568 L151.280976,19.6760976 C151.280976,20.0393792 151.462616,20.22102 152.007539,20.22102 C152.552461,20.22102 152.915743,20.22102 153.279024,20.0393792 C153.642306,19.8577384 153.823947,19.8577384 153.823947,19.6760976 C153.823947,19.6760976 154.005588,19.4944568 154.005588,19.312816 L153.823947,16.7698448 L153.823947,11.6839024 C154.187228,11.5022616 154.55051,11.3206208 154.55051,11.13898 C154.55051,10.9573392 154.187228,10.5940576 153.279024,10.2307761 C152.37082,9.86749446 152.007539,9.68585366 151.825898,9.68585366 C151.644257,9.68585366 151.644257,9.86749446 151.462616,10.0491353 L150.917694,10.5940576 L146.558315,10.5940576 L143.652062,9.86749446 Z M146.013392,15.3167184 L150.917694,15.3167184 L150.917694,18.9495344 L146.013392,18.9495344 L146.013392,15.3167184 Z M146.013392,11.3206208 L150.917694,11.3206208 L150.917694,14.9534368 L146.013392,14.9534368 L146.013392,11.3206208 Z M139.474324,10.0491353 C139.655965,10.0491353 139.655965,9.86749446 139.655965,9.68585366 C139.655965,9.50421286 139.474324,9.50421286 139.292683,9.32257206 C138.929401,9.14093126 138.56612,8.95929047 137.839557,8.77764967 C137.112993,8.59600887 136.749712,8.41436807 136.749712,8.41436807 L136.38643,8.41436807 L136.204789,8.41436807 L136.204789,8.77764967 L136.023149,9.86749446 C136.023149,10.2307761 135.841508,10.7756984 135.659867,11.5022616 C135.478226,12.2288248 135.296585,12.955388 135.114945,13.5003104 L134.570022,15.1350776 C134.0251,16.0432816 133.843459,16.4065632 133.843459,16.7698448 L133.480177,17.496408 L133.480177,17.8596896 L133.661818,17.8596896 L134.0251,17.496408 L134.388381,17.1331264 L134.933304,17.6780488 L136.931353,17.6780488 L136.931353,20.9475831 L135.114945,20.9475831 L133.661818,20.4026608 L134.388381,21.1292239 L137.112993,21.1292239 L137.112993,26.5784479 C137.112993,26.7600887 137.112993,26.9417295 136.931353,26.9417295 C136.931353,27.1233703 136.749712,27.1233703 136.749712,27.3050111 C136.568071,27.3050111 136.568071,27.4866519 136.568071,27.4866519 C136.568071,27.4866519 136.568071,27.6682927 136.749712,27.6682927 L138.021197,30.2112639 C138.021197,30.3929047 138.202838,30.3929047 138.202838,30.3929047 L138.384479,30.2112639 L139.474324,28.9397783 C139.655965,28.5764967 140.745809,27.3050111 142.743858,25.1253215 L143.470421,24.2171175 C143.470421,24.0354767 143.652062,24.0354767 143.470421,24.0354767 L143.10714,24.0354767 L142.017295,24.5803991 C141.472373,24.9436807 140.564169,25.3069623 139.474324,25.8518847 L139.474324,20.9475831 L143.10714,20.9475831 C143.10714,20.9475831 143.28878,20.9475831 143.28878,20.7659424 C143.28878,20.5843016 142.925499,20.22102 142.380576,19.6760976 L141.654013,19.1311752 C141.472373,18.9495344 141.472373,18.9495344 141.290732,18.9495344 C141.290732,18.9495344 141.109091,18.9495344 141.109091,19.1311752 C141.109091,19.1311752 140.564169,19.6760976 139.837605,20.5843016 L139.474324,20.5843016 L139.474324,17.8596896 L139.837605,17.496408 C139.837605,17.496408 139.837605,17.3147672 140.019246,17.1331264 L142.198936,17.1331264 C142.198936,17.1331264 142.380576,17.1331264 142.380576,16.9514856 C142.380576,16.7698448 141.835654,16.2249224 140.745809,15.3167184 C140.564169,15.1350776 140.564169,15.1350776 140.382528,15.1350776 L139.837605,15.68 L138.929401,16.588204 L135.841508,16.588204 L134.570022,16.7698448 C135.296585,15.8616408 136.204789,14.9534368 136.931353,13.6819512 L142.925499,13.6819512 C142.925499,13.6819512 143.10714,13.6819512 143.10714,13.5003104 C143.10714,13.3186696 142.743858,13.1370288 142.198936,12.5921064 L141.472373,12.047184 C141.290732,11.8655432 141.290732,11.8655432 141.109091,11.8655432 L139.655965,13.3186696 L137.112993,13.3186696 C137.476275,12.5921064 138.021197,11.6839024 138.56612,10.5940576 L139.474324,10.0491353 Z M167.628647,12.4104656 L165.630599,13.6819512 C164.359113,14.4085144 163.269268,14.9534368 162.179424,15.4983592 L161.27122,15.8616408 L160.907938,15.8616408 C160.907938,15.8616408 160.907938,15.68 161.089579,15.4983592 L161.634501,14.9534368 L162.361064,14.2268736 C162.905987,13.6819512 163.450909,13.1370288 163.995831,12.4104656 C164.722395,11.6839024 165.267317,10.9573392 165.812239,10.0491353 L166.175521,9.32257206 L166.357162,8.95929047 L166.538803,8.95929047 C166.720443,8.95929047 166.902084,9.14093126 167.083725,9.32257206 L168.17357,10.0491353 L168.900133,10.7756984 C169.263415,11.13898 169.445055,11.3206208 169.445055,11.5022616 C169.445055,11.6839024 169.263415,11.8655432 169.081774,11.8655432 L168.536851,11.8655432 C168.355211,12.047184 167.810288,12.2288248 167.628647,12.4104656 Z M167.628647,17.6780488 C168.17357,18.0413304 168.355211,18.2229712 168.536851,18.2229712 C168.536851,18.404612 168.355211,18.5862528 168.17357,18.7678936 L168.17357,26.9417295 L168.355211,29.3030599 C168.355211,29.4847007 168.17357,29.6663415 168.17357,29.6663415 C167.991929,29.8479823 167.810288,29.8479823 167.447007,30.0296231 C167.083725,30.2112639 166.720443,30.2112639 166.175521,30.2112639 L165.630599,30.2112639 C165.448958,30.2112639 165.448958,30.0296231 165.448958,29.8479823 L165.630599,27.1233703 L165.630599,19.6760976 C164.177472,20.7659424 163.087627,21.4925055 162.361064,22.0374279 L161.816142,22.4007095 C161.634501,22.5823503 161.45286,22.5823503 161.45286,22.4007095 L161.45286,22.0374279 L161.997783,21.4925055 C162.361064,20.9475831 162.724346,20.5843016 163.087627,20.22102 C163.450909,19.8577384 163.995831,19.1311752 164.722395,18.0413304 C165.448958,16.9514856 165.99388,16.0432816 166.538803,15.1350776 L166.902084,14.4085144 C167.083725,14.0452328 167.265366,13.863592 167.265366,13.863592 L167.447007,13.863592 C167.628647,13.863592 168.17357,14.2268736 169.081774,14.771796 C169.989978,15.3167184 170.353259,15.8616408 170.353259,16.0432816 C170.353259,16.2249224 169.989978,16.4065632 169.445055,16.4065632 C168.536851,16.7698448 168.17357,17.1331264 167.628647,17.6780488 Z M178.527095,17.496408 C179.072018,16.7698448 179.435299,16.2249224 179.61694,15.8616408 C179.798581,15.4983592 179.980222,15.3167184 180.161863,15.3167184 C180.343503,15.3167184 180.525144,15.4983592 181.070067,15.8616408 C181.978271,16.588204 182.523193,17.1331264 182.704834,17.3147672 C182.886475,17.496408 183.068115,17.6780488 182.886475,17.8596896 C182.886475,18.0413304 182.704834,18.0413304 182.523193,18.0413304 L179.253659,18.0413304 C179.072018,18.2229712 179.072018,18.404612 178.890377,18.5862528 L178.890377,28.2132151 C178.890377,28.7581375 178.890377,29.1214191 178.708736,29.3030599 C178.527095,29.4847007 178.345455,29.6663415 177.982173,29.8479823 C177.618891,30.0296231 177.25561,30.2112639 176.710687,30.2112639 C176.165765,30.3929047 175.802483,30.3929047 175.439202,30.3929047 C175.257561,30.3929047 175.07592,30.3929047 175.07592,30.2112639 L175.07592,29.6663415 C175.07592,29.4847007 175.07592,29.3030599 174.894279,29.1214191 C174.894279,28.9397783 174.712639,28.7581375 174.530998,28.5764967 C174.349357,28.3948559 173.986075,28.2132151 173.622794,28.0315743 L172.896231,27.6682927 C172.71459,27.6682927 172.532949,27.4866519 172.71459,27.3050111 C172.71459,27.1233703 172.896231,27.1233703 173.077871,27.1233703 L173.622794,27.1233703 L175.07592,27.3050111 L175.802483,27.3050111 C175.984124,27.3050111 175.984124,27.1233703 176.165765,26.9417295 L176.165765,17.6780488 L169.626696,17.6780488 L169.081774,16.9514856 L170.716541,17.1331264 L178.527095,17.1331264 L178.527095,17.496408 Z M177.073969,11.3206208 C177.618891,10.5940576 177.982173,10.0491353 178.163814,9.86749446 C178.345455,9.50421286 178.527095,9.50421286 178.708736,9.32257206 C178.890377,9.32257206 179.072018,9.32257206 179.253659,9.68585366 C179.435299,9.86749446 179.798581,10.0491353 180.161863,10.4124169 C180.525144,10.7756984 180.888426,10.9573392 181.070067,11.13898 C181.251707,11.3206208 181.251707,11.5022616 181.251707,11.5022616 C181.251707,11.5022616 181.070067,11.6839024 180.888426,11.6839024 L170.898182,11.6839024 L170.353259,10.9573392 L171.988027,11.13898 L177.073969,11.13898 L177.073969,11.3206208 Z M79.1695787,38.3850998 C79.7145011,38.3850998 79.8961419,38.203459 79.8961419,37.6585366 L79.8961419,34.570643 C79.8961419,34.0257206 79.7145011,34.0257206 79.1695787,33.8440798 L79.1695787,33.662439 L81.3492683,33.662439 L81.3492683,33.8440798 C80.8043459,33.8440798 80.6227051,33.8440798 80.6227051,34.570643 L80.6227051,37.6585366 C80.6227051,38.203459 80.8043459,38.203459 81.3492683,38.3850998 L81.3492683,38.5667406 L79.1695787,38.3850998 Z M86.980133,34.0257206 C86.6168514,34.0257206 86.2535698,34.0257206 86.2535698,34.9339246 L86.2535698,38.5667406 L86.071929,38.5667406 L82.9840355,34.7522838 L82.9840355,37.4768958 C82.9840355,38.203459 83.1656763,38.3850998 83.7105987,38.3850998 L83.7105987,38.5667406 L82.0758315,38.5667406 L82.0758315,38.3850998 C82.6207539,38.3850998 82.8023947,38.203459 82.8023947,37.4768958 L82.8023947,34.3890022 C82.4391131,34.0257206 82.4391131,34.0257206 82.0758315,34.0257206 L82.0758315,33.8440798 L83.3473171,33.8440798 L86.071929,37.295255 L86.071929,34.9339246 C86.071929,34.2073614 85.8902882,34.0257206 85.3453659,34.0257206 L85.3453659,33.8440798 L86.980133,34.0257206 Z M88.9781818,34.3890022 C88.9781818,34.2073614 88.9781818,34.0257206 89.3414634,34.0257206 C90.2496674,34.0257206 90.612949,34.2073614 90.9762306,34.570643 C91.521153,34.9339246 91.7027938,35.6604878 91.7027938,36.2054102 C91.7027938,38.203459 89.8863858,38.203459 89.5231042,38.203459 C89.1598226,38.203459 89.1598226,38.203459 89.1598226,37.8401774 L89.1598226,34.3890022 L88.9781818,34.3890022 Z M87.5250554,38.5667406 L89.5231042,38.5667406 C91.7027938,38.5667406 92.2477162,37.1136142 92.2477162,36.2054102 C92.2477162,34.570643 91.1578714,33.8440798 89.3414634,33.8440798 L87.3434146,33.8440798 L87.3434146,34.0257206 C87.888337,34.0257206 87.888337,34.2073614 87.888337,34.7522838 L87.888337,37.8401774 C88.2516186,38.203459 88.0699778,38.3850998 87.5250554,38.5667406 Z M98.0602217,34.0257206 C97.5152993,34.0257206 97.3336585,34.2073614 97.3336585,34.9339246 L97.3336585,36.7503326 C97.3336585,37.295255 97.3336585,38.5667406 95.5172506,38.5667406 C93.7008426,38.5667406 93.7008426,37.1136142 93.7008426,36.7503326 L93.7008426,34.570643 C93.7008426,34.0257206 93.5192018,34.0257206 92.9742794,33.8440798 L92.9742794,33.662439 L94.9723282,33.662439 L94.9723282,33.8440798 C94.4274058,33.8440798 94.245765,34.0257206 94.245765,34.570643 L94.245765,36.7503326 C94.245765,37.1136142 94.245765,38.203459 95.5172506,38.203459 C96.0621729,38.203459 96.4254545,38.0218182 96.6070953,37.6585366 C96.7887361,37.4768958 96.7887361,37.295255 96.7887361,36.7503326 L96.7887361,34.9339246 C96.7887361,34.2073614 96.6070953,34.0257206 96.0621729,34.0257206 L96.0621729,33.8440798 L98.0602217,34.0257206 Z M101.874678,35.2972062 C101.511397,34.7522838 101.148115,34.0257206 100.421552,34.0257206 C100.058271,34.0257206 99.6949889,34.2073614 99.6949889,34.7522838 C99.6949889,35.8421286 102.056319,36.0237694 102.056319,37.4768958 C102.056319,38.0218182 101.511397,38.7483814 100.603193,38.7483814 C100.058271,38.7483814 99.6949889,38.5667406 99.5133481,38.5667406 C99.3317073,38.5667406 99.3317073,38.7483814 99.3317073,38.7483814 L99.1500665,38.7483814 L98.9684257,37.295255 L99.1500665,37.295255 C99.3317073,37.6585366 99.6949889,38.5667406 100.603193,38.5667406 C101.148115,38.5667406 101.511397,38.203459 101.511397,37.8401774 C101.511397,37.4768958 101.329756,37.1136142 100.421552,36.5686918 C99.6949889,36.2054102 99.3317073,35.8421286 99.3317073,35.1155654 C99.3317073,34.3890022 100.058271,33.8440798 100.603193,33.8440798 C100.966475,33.8440798 101.329756,34.0257206 101.511397,34.0257206 C101.693038,34.0257206 101.693038,33.8440798 101.693038,33.8440798 L101.874678,33.8440798 L101.874678,35.2972062 Z M106.052417,38.5667406 L104.054368,38.5667406 L104.054368,38.3850998 C104.780931,38.3850998 104.780931,38.203459 104.780931,37.6585366 L104.780931,34.0257206 L104.41765,34.0257206 C103.691086,34.0257206 103.509446,34.2073614 103.327805,34.9339246 L102.964523,34.9339246 L102.964523,33.662439 L106.960621,33.662439 L106.960621,34.9339246 L106.77898,34.9339246 C106.597339,34.2073614 106.415698,34.0257206 105.689135,34.0257206 L105.325854,34.0257206 L105.325854,37.6585366 C105.507494,38.203459 105.507494,38.3850998 106.052417,38.5667406 Z M112.409845,38.5667406 L111.32,38.5667406 L109.685233,36.387051 L109.321951,36.387051 L109.321951,37.8401774 C109.321951,38.3850998 109.321951,38.3850998 110.048514,38.5667406 L108.050466,38.5667406 L108.050466,38.3850998 C108.595388,38.3850998 108.595388,38.203459 108.595388,37.6585366 L108.595388,34.570643 C108.595388,34.0257206 108.413747,34.0257206 108.050466,33.8440798 L108.050466,33.662439 L110.048514,33.662439 C110.593437,33.662439 111.864922,33.8440798 111.864922,34.9339246 C111.864922,35.8421286 110.956718,36.0237694 110.593437,36.2054102 L112.046563,38.0218182 C111.864922,38.203459 112.046563,38.3850998 112.409845,38.5667406 Z M109.14031,36.0237694 C109.685233,36.0237694 110.775078,36.0237694 110.775078,34.9339246 C110.775078,34.0257206 109.866874,34.0257206 109.503592,34.0257206 C109.14031,34.0257206 109.14031,34.0257206 109.14031,34.2073614 L109.14031,36.0237694 Z M112.954767,38.3850998 C113.49969,38.3850998 113.68133,38.203459 113.68133,37.6585366 L113.68133,34.570643 C113.68133,34.0257206 113.49969,34.0257206 112.954767,33.8440798 L112.954767,33.662439 L115.134457,33.662439 L115.134457,33.8440798 C114.589534,33.8440798 114.407894,33.8440798 114.407894,34.570643 L114.407894,37.6585366 C114.407894,38.203459 114.589534,38.203459 115.134457,38.3850998 L115.134457,38.5667406 L112.954767,38.3850998 Z M117.132506,36.7503326 L117.859069,34.7522838 L118.767273,36.7503326 L117.132506,36.7503326 Z M120.583681,38.3850998 C120.220399,38.3850998 120.220399,38.203459 119.857118,37.8401774 L118.04071,33.8440798 L117.859069,33.8440798 L116.405942,37.295255 C116.224302,37.6585366 116.042661,38.203459 115.86102,38.3850998 C115.679379,38.5667406 115.679379,38.5667406 115.497738,38.5667406 L116.950865,38.5667406 L116.950865,38.3850998 C116.769224,38.3850998 116.405942,38.3850998 116.405942,38.0218182 L116.405942,37.8401774 L116.769224,36.9319734 L118.585632,36.9319734 L118.948914,37.6585366 C118.948914,37.8401774 119.130554,38.0218182 119.130554,38.0218182 C119.130554,38.203459 118.948914,38.203459 118.585632,38.203459 L118.585632,38.5667406 L120.583681,38.3850998 Z M123.308293,34.0257206 C122.76337,34.0257206 122.581729,34.0257206 122.581729,34.7522838 L122.581729,38.0218182 C122.581729,38.3850998 122.76337,38.3850998 123.308293,38.3850998 C124.398137,38.3850998 124.761419,38.3850998 125.306341,37.4768958 L125.487982,37.4768958 L125.124701,38.5667406 L121.310244,38.5667406 L121.310244,38.3850998 C121.855166,38.3850998 121.855166,38.203459 121.855166,37.6585366 L121.855166,34.570643 C121.855166,34.0257206 121.673525,34.0257206 121.310244,33.8440798 L121.310244,33.662439 L123.308293,34.0257206 Z M129.665721,36.2054102 C130.392284,36.2054102 130.573925,36.2054102 130.755565,36.387051 C131.118847,36.5686918 131.482129,36.7503326 131.482129,37.295255 C131.482129,38.203459 130.573925,38.3850998 130.210643,38.3850998 C129.847361,38.3850998 129.665721,38.3850998 129.665721,38.0218182 L129.665721,36.2054102 Z M128.212594,34.0257206 C128.757517,34.0257206 128.939157,34.2073614 128.939157,34.7522838 L128.939157,37.8401774 C128.939157,38.3850998 128.939157,38.3850998 128.212594,38.5667406 L130.573925,38.5667406 C132.208692,38.5667406 132.208692,37.6585366 132.208692,37.295255 C132.208692,36.5686918 131.663769,36.2054102 130.937206,36.0237694 C131.300488,36.0237694 131.84541,35.8421286 131.84541,34.9339246 C131.84541,33.8440798 130.573925,33.662439 130.029002,33.662439 L128.212594,34.0257206 Z M129.665721,34.2073614 C129.665721,34.0257206 129.665721,34.0257206 129.847361,34.0257206 L130.210643,34.0257206 C130.755565,34.0257206 131.482129,34.2073614 131.482129,34.9339246 C131.482129,35.8421286 130.573925,35.8421286 130.392284,35.8421286 L129.665721,35.8421286 L129.665721,34.2073614 Z M138.021197,38.5667406 L136.204789,38.5667406 L136.204789,38.3850998 C136.38643,38.3850998 136.749712,38.3850998 136.749712,38.203459 C136.749712,38.0218182 136.568071,37.8401774 136.568071,37.8401774 L136.204789,37.1136142 L134.388381,37.1136142 L134.0251,38.0218182 L134.0251,38.203459 C134.0251,38.5667406 134.388381,38.5667406 134.570022,38.5667406 L133.116896,38.5667406 L133.116896,38.3850998 C133.298537,38.3850998 133.298537,38.3850998 133.480177,38.203459 C133.661818,38.0218182 133.843459,37.4768958 134.0251,37.1136142 L135.478226,33.662439 L135.659867,33.662439 L137.476275,37.6585366 C137.657916,38.203459 137.657916,38.3850998 138.021197,38.5667406 Z M136.204789,36.7503326 L135.296585,34.7522838 L134.570022,36.7503326 L136.204789,36.7503326 Z M143.652062,34.0257206 C143.28878,34.0257206 142.925499,34.0257206 142.925499,34.9339246 L142.925499,38.5667406 L142.743858,38.5667406 L139.655965,34.7522838 L139.655965,37.4768958 C139.655965,38.203459 139.837605,38.3850998 140.382528,38.3850998 L140.382528,38.5667406 L138.747761,38.5667406 L138.747761,38.3850998 C139.292683,38.3850998 139.474324,38.203459 139.474324,37.4768958 L139.474324,34.3890022 C139.111042,34.0257206 139.111042,34.0257206 138.747761,34.0257206 L138.747761,33.8440798 L140.019246,33.8440798 L142.743858,37.295255 L142.743858,34.9339246 C142.743858,34.2073614 142.562217,34.0257206 142.017295,34.0257206 L142.017295,33.8440798 L143.652062,34.0257206 Z M147.103237,33.8440798 L148.919645,33.8440798 L148.919645,34.0257206 C148.556364,34.0257206 148.374723,34.0257206 147.8298,34.570643 L146.558315,35.8421286 L148.193082,37.6585366 C148.738004,38.203459 148.919645,38.3850998 149.282927,38.3850998 L149.282927,38.5667406 L147.103237,38.5667406 L147.103237,38.3850998 C147.466519,38.3850998 147.64816,38.3850998 147.64816,38.203459 C147.64816,38.0218182 146.921596,37.295255 146.739956,36.9319734 L146.013392,36.2054102 L145.831752,36.387051 L145.831752,37.6585366 C145.831752,38.203459 145.831752,38.203459 146.558315,38.3850998 L146.558315,38.5667406 L144.560266,38.5667406 L144.560266,38.3850998 C145.105188,38.3850998 145.286829,38.203459 145.286829,37.6585366 L145.286829,34.570643 C145.286829,34.0257206 145.105188,34.0257206 144.560266,33.8440798 L144.560266,33.662439 L146.558315,33.662439 L146.558315,33.8440798 C146.013392,33.8440798 145.831752,34.0257206 145.831752,34.570643 L145.831752,36.0237694 C147.466519,34.570643 147.64816,34.3890022 147.64816,34.2073614 C147.466519,34.0257206 147.466519,34.0257206 147.103237,33.8440798 Z M156.003636,35.2972062 C155.821996,34.570643 155.277073,34.0257206 154.368869,34.0257206 C154.005588,34.0257206 153.642306,34.2073614 153.279024,34.3890022 C152.915743,34.570643 152.734102,35.1155654 152.734102,36.2054102 C152.734102,37.6585366 153.642306,38.3850998 154.55051,38.3850998 C155.458714,38.3850998 156.003636,37.8401774 156.185277,37.6585366 L156.366918,37.8401774 C156.366918,37.8401774 155.821996,38.7483814 154.368869,38.7483814 C153.279024,38.7483814 152.007539,38.0218182 152.007539,36.387051 C152.007539,34.7522838 153.279024,34.0257206 154.368869,34.0257206 C154.913792,34.0257206 155.458714,34.2073614 155.640355,34.2073614 C155.640355,34.2073614 155.821996,34.2073614 156.003636,34.0257206 L156.185277,34.0257206 L156.003636,35.2972062 Z M159.636452,38.3850998 C158.909889,38.3850998 158.183326,37.8401774 158.183326,36.2054102 C158.183326,34.570643 158.909889,34.0257206 159.636452,34.0257206 C160.363016,34.0257206 161.089579,34.570643 161.089579,36.2054102 C161.089579,37.6585366 160.363016,38.3850998 159.636452,38.3850998 Z M159.636452,38.5667406 C160.907938,38.5667406 161.997783,37.6585366 161.997783,36.2054102 C161.997783,34.570643 160.907938,33.662439 159.636452,33.662439 C158.546608,33.662439 157.275122,34.570643 157.275122,36.2054102 C157.275122,37.6585366 158.364967,38.5667406 159.636452,38.5667406 Z M163.450909,38.5667406 C163.63255,38.5667406 163.814191,38.3850998 163.814191,38.203459 C163.814191,38.0218182 163.63255,37.8401774 163.450909,37.8401774 C163.269268,37.8401774 163.087627,38.0218182 163.087627,38.203459 C163.087627,38.5667406 163.269268,38.5667406 163.450909,38.5667406 Z M165.267317,39.4749446 C165.448958,39.4749446 165.99388,38.9300222 165.99388,38.3850998 C165.99388,37.8401774 165.630599,37.6585366 165.448958,37.6585366 C165.267317,37.6585366 165.085676,37.8401774 165.085676,38.0218182 C165.085676,38.3850998 165.267317,38.3850998 165.448958,38.3850998 L165.630599,38.3850998 C165.630599,38.3850998 165.812239,38.3850998 165.812239,38.5667406 C165.812239,38.7483814 165.812239,39.111663 165.267317,39.4749446 Z M169.081774,34.0257206 C168.536851,34.0257206 168.355211,34.0257206 168.355211,34.7522838 L168.355211,38.0218182 C168.355211,38.3850998 168.536851,38.3850998 169.081774,38.3850998 C170.171619,38.3850998 170.5349,38.3850998 171.079823,37.4768958 L171.261463,37.4768958 L170.898182,38.5667406 L167.083725,38.5667406 L167.083725,38.3850998 C167.628647,38.3850998 167.628647,38.203459 167.628647,37.6585366 L167.628647,34.570643 C167.628647,34.0257206 167.447007,34.0257206 167.083725,33.8440798 L167.083725,33.662439 L169.081774,34.0257206 Z M174.349357,38.5667406 L172.351308,38.5667406 L172.351308,38.3850998 C173.077871,38.3850998 173.077871,38.203459 173.077871,37.6585366 L173.077871,34.0257206 L172.71459,34.0257206 C171.988027,34.0257206 171.806386,34.2073614 171.624745,34.9339246 L171.443104,34.9339246 L171.443104,33.662439 L175.439202,33.662439 L175.439202,34.9339246 L175.257561,34.9339246 C175.07592,34.2073614 174.894279,34.0257206 174.167716,34.0257206 L173.804435,34.0257206 L173.804435,37.6585366 C173.622794,38.203459 173.622794,38.3850998 174.349357,38.5667406 Z M177.25561,34.3890022 C177.25561,34.2073614 177.25561,34.0257206 177.618891,34.0257206 C178.527095,34.0257206 178.890377,34.2073614 179.253659,34.570643 C179.798581,34.9339246 179.980222,35.6604878 179.980222,36.2054102 C179.980222,38.203459 178.163814,38.203459 177.800532,38.203459 C177.437251,38.203459 177.437251,38.203459 177.437251,37.8401774 L177.437251,34.3890022 L177.25561,34.3890022 Z M175.984124,38.5667406 L177.982173,38.5667406 C180.161863,38.5667406 180.706785,37.1136142 180.706785,36.2054102 C180.706785,34.570643 179.61694,33.8440798 177.800532,33.8440798 L175.802483,33.8440798 L175.802483,34.0257206 C176.347406,34.0257206 176.347406,34.2073614 176.347406,34.7522838 L176.347406,37.8401774 C176.529047,38.203459 176.529047,38.3850998 175.984124,38.5667406 Z M182.159911,38.5667406 C182.341552,38.5667406 182.523193,38.3850998 182.523193,38.203459 C182.523193,38.0218182 182.341552,37.8401774 182.159911,37.8401774 C181.978271,37.8401774 181.79663,38.0218182 181.79663,38.203459 C181.79663,38.5667406 182.159911,38.5667406 182.159911,38.5667406 Z" id="path" fill="#FFFFFF" fill-rule="nonzero"></path>
    </g>
</svg>