<?xml version="1.0" encoding="UTF-8"?>
<svg width="48px" height="48px" viewBox="0 0 48 48" version="1.1" xmlns="http://www.w3.org/2000/svg" xmlns:xlink="http://www.w3.org/1999/xlink">
    <!-- Generator: Sketch 51 (57462) - http://www.bohemiancoding.com/sketch -->
    <title>CIB</title>
    <desc>Created with Sketch.</desc>
    <defs></defs>
    <g id="CIB" stroke="none" stroke-width="1" fill="none" fill-rule="evenodd">
        <g id="兴业银行" transform="translate(1.000000, 5.000000)" fill="#004186" fill-rule="nonzero">
            <path d="M45.9985676,19.6284662 C45.9985676,12.1368652 38.0125184,5.8938643 28.070702,5.8938643 C20.0846528,5.8938643 13.4024483,9.84776487 11.12072,15.2583656 C10.9577394,15.6745656 10.7947588,16.2988657 10.7947588,16.7150657 C10.7947588,17.9636659 11.4466811,19.4203661 12.5875453,20.0446662 L21.5514781,26.7038672 C22.0404199,26.9119672 22.5293617,27.1200672 23.1812841,27.1200672 C23.6702259,27.1200672 24.3221483,26.9119672 24.8110901,26.7038672 L33.4490616,20.2527663 C33.9380034,19.8365662 34.2639646,19.2122661 34.2639646,18.379866 C34.2639647,17.5474658 33.9380035,17.1312658 33.4490616,16.5069657 L30.3524303,14.0097654 L23.1812841,19.4203661 L17.8029244,15.4664656 C19.9216722,12.9692653 23.6702259,11.512565 28.2336825,11.512565 C34.7529064,11.512565 40.2942467,15.0502655 40.2942467,19.4203661 C40.1312661,26.287667 32.3081975,31.6982677 22.6923423,31.0739677 C13.0764871,30.8658677 5.41639909,24.8309668 5.74236027,17.9636659 C5.74236027,8.80726468 15.1952348,1.73186372 26.440896,1.73186372 C27.4187796,1.73186372 28.5596437,1.73186372 29.3745467,1.93996374 C27.0928184,0.899463631 24.1591676,0.067063465 20.8995557,0.067063465 C18.2918662,0.067063465 16.0101378,0.483263507 13.8913901,1.10756365 C5.74236034,4.64526409 0.0380394725,11.304465 0.0380394093,19.004166 C0.0380394093,29.4091674 10.4687976,37.9412686 23.1812841,37.9412686 C35.73079,38.5655687 45.9985676,30.2415676 45.9985676,19.6284662 Z" id="path"></path>
        </g>
    </g>
</svg>