<?xml version="1.0" encoding="UTF-8"?>
<svg width="48px" height="48px" viewBox="0 0 48 48" version="1.1" xmlns="http://www.w3.org/2000/svg" xmlns:xlink="http://www.w3.org/1999/xlink">
    <!-- Generator: Sketch 50.2 (55047) - http://www.bohemiancoding.com/sketch -->
    <title>CITIC</title>
    <desc>Created with Sketch.</desc>
    <defs></defs>
    <g id="CITIC" stroke="none" stroke-width="1" fill="none" fill-rule="evenodd">
        <g id="中信银行" transform="translate(2.000000, 2.000000)" fill="#D7000F" fill-rule="nonzero">
            <path d="M16.2143964,43.2212967 L16.2143964,14.6152997 C16.2143964,11.5059521 14.4995571,9.01847416 12.0052454,7.93020258 L12.0052454,41.5111556 C13.2524013,42.2884925 14.6554516,42.7548946 16.2143964,43.2212967 Z M31.9597392,41.5111556 L31.9597392,7.93020258 C29.4654275,9.01847422 27.7505882,11.6614196 27.7505882,14.6152997 L27.7505882,43.2212967 C29.1536386,42.7548946 30.7125834,42.2884925 31.9597392,41.5111556 Z M4.52231021,18.0355819 C4.67820469,18.0355819 4.98999364,18.1910493 4.98999364,18.5019841 C5.45767708,19.7457231 6.39304401,20.8339947 7.79609431,20.8339947 C8.26377774,20.8339947 8.5755667,20.6785273 8.88735571,20.3675926 L8.88735571,4.66538769 C3.4310488,8.70753942 0.00137016484,14.9262345 0.00137016484,22.0777337 C0.00137016484,29.229233 3.4310488,35.447928 8.57556676,39.4900797 L8.57556676,23.7878748 C8.41967228,23.6324075 7.95198885,23.3214727 7.48430535,23.3214727 C6.23714947,23.3214727 5.14588812,24.4097443 4.67820469,25.6534833 C4.67820469,25.8089507 4.52231021,26.1198855 4.21052119,26.1198855 C3.89873218,26.1198855 4.05462671,25.9644181 3.74283776,25.9644181 C2.96336537,24.8761464 2.49568187,23.6324075 2.49568187,22.2332011 C2.49568187,20.8339947 2.96336531,19.4347883 3.74283776,18.5019841 C4.21052119,18.1910493 4.36641567,18.035582 4.52231021,18.0355819 Z M42.4046696,23.1660053 C43.0282476,23.1660053 43.495931,23.6324074 43.80772,24.8761464 L43.80772,25.6534833 C42.8723531,31.2503088 39.9103579,36.2252649 35.5453124,39.6455471 L35.5453124,4.97632243 C40.2221469,8.55207205 43.3400366,13.8379628 43.9636145,19.9011904 C43.80772,20.52306 43.184142,20.9894621 42.5605641,20.9894621 C41.1575138,20.9894621 40.2221469,19.9011905 39.7544635,18.6574515 C39.7544634,18.3465167 39.4426744,18.1910493 39.28678,18.1910493 C38.974991,18.1910493 38.8190965,18.3465167 38.8190965,18.3465167 C38.0396241,19.2793209 37.5719406,20.6785273 37.5719406,22.0777337 C37.5719406,23.4769401 38.0396241,24.7206791 38.663202,25.8089507 C38.974991,25.8089507 38.8190965,25.9644181 39.1308855,25.9644181 C39.4426744,25.964418 39.5985689,25.6534833 39.5985689,25.4980159 C40.0662524,24.254277 41.1575138,23.1660053 42.4046696,23.1660053 Z M12.6288233,3.88805078 C12.1611399,3.73258341 12.0052454,3.57711604 12.3170344,3.11071393 C12.3170344,2.48884439 12.4729288,2.17790965 12.9406123,2.02244228 C15.5908185,0.77870326 18.7087082,0.00136641096 22.1383868,0.00136641096 C25.412171,0.00136641096 28.5300606,0.77870326 31.3361613,2.02244228 C31.8038448,2.33337708 31.9597392,2.64431182 31.9597392,3.11071393 C31.9597392,3.42164867 31.8038448,3.73258341 31.3361613,3.88805078 C28.0623772,5.1317898 24.6326985,8.70753942 24.6326985,12.7496912 L24.6326985,43.8431662 C23.8532261,43.9986336 22.9178593,43.9986336 22.1383868,43.9986336 C21.3589144,43.9986336 20.4235475,43.8431662 19.6440751,43.8431662 L19.6440751,12.7496912 C19.6440751,8.70753942 16.2143964,5.1317898 12.6288233,3.88805078 Z" id="path"></path>
        </g>
    </g>
</svg>