<?xml version="1.0" encoding="UTF-8"?>
<svg width="206px" height="48px" viewBox="0 0 206 48" version="1.1" xmlns="http://www.w3.org/2000/svg" xmlns:xlink="http://www.w3.org/1999/xlink">
    <!-- Generator: Sketch 50.2 (55047) - http://www.bohemiancoding.com/sketch -->
    <title>CITIC-full</title>
    <desc>Created with Sketch.</desc>
    <defs></defs>
    <g id="CITIC-full" stroke="none" stroke-width="1" fill="none" fill-rule="evenodd">
        <rect id="@bound" x="0" y="0" width="206" height="48"></rect>
        <path d="M38.208405,10.0761905 C41.1007864,11.047619 43.8230278,13.8 43.8230278,16.8761905 L43.8230278,40.8380952 C44.5035881,40.8380952 45.1841484,41 45.8647088,41 C46.5452691,41 47.2258294,41 47.9063898,40.8380952 L47.9063898,16.8761905 C47.9063898,13.8 50.6286311,11.047619 53.3508725,10.0761905 C53.6911526,9.91428571 53.8612927,9.75238095 53.8612927,9.42857143 C53.8612927,9.1047619 53.6911526,8.78095238 53.3508725,8.61904762 C51.1390514,7.64761905 48.5869501,7 45.8647088,7 C43.1424674,7 40.5903662,7.64761905 38.3785451,8.61904762 C38.0382649,8.78095238 37.8681248,8.94285714 37.8681248,9.42857143 C37.6979848,9.75238095 37.8681248,9.91428571 38.208405,10.0761905 Z M41.1007864,40.352381 L41.1007864,18.3333333 C41.1007864,15.9047619 39.7396658,13.9619048 37.6979848,13.152381 L37.6979848,39.0571429 C38.7188253,39.7047619 39.9098059,40.0285714 41.1007864,40.352381 Z M53.8612927,39.0571429 L53.8612927,13.152381 C51.8196117,13.9619048 50.458491,16.0666667 50.458491,18.3333333 L50.458491,40.352381 C51.6494716,40.0285714 52.8404522,39.7047619 53.8612927,39.0571429 Z M31.7430818,20.9238095 C31.9132219,20.9238095 32.083362,21.0857143 32.083362,21.247619 C32.4236422,22.2190476 33.2743426,23.0285714 34.2951831,23.0285714 C34.6354633,23.0285714 34.9757434,22.8666667 35.1458835,22.7047619 L35.1458835,10.5619048 C30.7222413,13.6380952 28,18.4952381 28,24 C28,29.5047619 30.7222413,34.3619048 34.9757434,37.4380952 L34.9757434,25.2952381 C34.8056033,25.1333333 34.4653232,24.9714286 34.125043,24.9714286 C33.1042025,24.9714286 32.2535021,25.7809524 31.9132219,26.752381 C31.9132219,26.9142857 31.7430818,27.0761905 31.5729418,27.0761905 C31.4028017,27.0761905 31.4028017,26.9142857 31.2326616,26.9142857 C30.5521013,26.1047619 30.2118211,25.1333333 30.2118211,24 C30.2118211,22.8666667 30.5521013,21.8952381 31.2326616,21.0857143 C31.4028017,21.0857143 31.5729418,20.9238095 31.7430818,20.9238095 Z M62.3682969,24.9714286 C61.3474564,24.9714286 60.496756,25.7809524 60.1564758,26.752381 C60.1564758,26.9142857 59.9863357,27.0761905 59.8161956,27.0761905 C59.6460556,27.0761905 59.6460556,26.9142857 59.4759155,26.9142857 C58.9654952,26.1047619 58.6252151,25.1333333 58.6252151,24 C58.6252151,22.8666667 58.9654952,21.8952381 59.6460556,21.0857143 C59.6460556,21.0857143 59.8161956,20.9238095 59.9863357,20.9238095 C60.1564758,20.9238095 60.3266159,21.0857143 60.3266159,21.247619 C60.6668961,22.2190476 61.5175965,23.0285714 62.538437,23.0285714 C63.0488572,23.0285714 63.5592775,22.7047619 63.7294176,22.2190476 C63.2189973,17.5238095 60.6668961,13.4761905 56.9238142,10.7238095 L56.9238142,37.4380952 C60.496756,34.847619 62.8787171,30.9619048 63.5592775,26.5904762 L63.5592775,25.9428571 C63.2189973,25.2952381 62.8787171,24.9714286 62.3682969,24.9714286 Z M103.201917,40.8380952 L103.201917,40.5142857 C102.861637,40.5142857 102.691497,40.352381 102.691497,40.352381 C102.521357,40.352381 102.521357,40.1904762 102.521357,40.0285714 L102.521357,39.8666667 L102.521357,39.7047619 L102.861637,38.8952381 L105.413738,38.8952381 L105.754018,39.7047619 L105.754018,40.0285714 C105.754018,40.1904762 105.754018,40.1904762 105.583878,40.352381 C105.413738,40.352381 105.243598,40.5142857 105.073458,40.5142857 L105.073458,40.8380952 L107.965839,40.8380952 L107.965839,40.5142857 C107.795699,40.5142857 107.625559,40.5142857 107.455419,40.352381 C107.285279,40.1904762 107.115139,40.0285714 107.115139,39.8666667 L104.903318,35.1714286 L104.563038,35.1714286 L102.181076,40.0285714 C102.010936,40.1904762 102.010936,40.5142857 101.840796,40.5142857 C101.670656,40.6761905 101.500516,40.6761905 101.330376,40.6761905 L101.330376,41 L103.201917,41 L103.201917,40.8380952 Z M146.927918,40.8380952 C147.608479,40.8380952 148.118899,40.6761905 148.459179,40.352381 C148.799459,40.0285714 149.13974,39.7047619 149.13974,39.2190476 C149.13974,38.8952381 148.969599,38.4095238 148.629319,38.247619 C148.289039,37.9238095 147.948759,37.7619048 147.438339,37.7619048 C147.948759,37.6 148.289039,37.4380952 148.459179,37.2761905 C148.799459,36.952381 148.799459,36.7904762 148.799459,36.4666667 C148.799459,35.9809524 148.629319,35.6571429 148.289039,35.4952381 C147.948759,35.3333333 147.438339,35.1714286 146.757778,35.1714286 L143.865397,35.1714286 L143.865397,35.3333333 C144.205677,35.3333333 144.375817,35.3333333 144.375817,35.4952381 C144.545957,35.6571429 144.545957,35.8190476 144.545957,35.9809524 L144.545957,39.8666667 C144.545957,40.0285714 144.545957,40.1904762 144.375817,40.352381 C144.205677,40.5142857 144.035537,40.5142857 143.865397,40.5142857 L143.865397,40.8380952 L146.927918,40.8380952 Z M145.566798,35.4952381 L146.417498,35.4952381 C146.927918,35.4952381 147.268199,35.6571429 147.438339,35.8190476 C147.608479,35.9809524 147.778619,36.3047619 147.778619,36.6285714 C147.778619,36.952381 147.608479,37.2761905 147.438339,37.4380952 C147.098059,37.6 146.757778,37.7619048 146.247358,37.7619048 L145.396658,37.7619048 L145.396658,35.4952381 L145.566798,35.4952381 Z M151.861981,40.8380952 L151.861981,40.5142857 C151.521701,40.5142857 151.351561,40.352381 151.351561,40.352381 C151.181421,40.352381 151.181421,40.1904762 151.181421,40.0285714 L151.181421,39.8666667 L151.181421,39.7047619 L151.521701,38.8952381 L154.073802,38.8952381 L154.414082,39.7047619 L154.414082,40.0285714 C154.414082,40.1904762 154.414082,40.1904762 154.243942,40.352381 C154.073802,40.352381 153.903662,40.5142857 153.733522,40.5142857 L153.733522,40.8380952 L156.455763,40.8380952 L156.455763,40.5142857 C156.285623,40.5142857 156.115483,40.5142857 155.945343,40.352381 C155.775203,40.1904762 155.605063,40.0285714 155.605063,39.8666667 L153.393242,35.1714286 L153.052961,35.1714286 L150.671,40.0285714 C150.50086,40.1904762 150.50086,40.5142857 150.33072,40.5142857 C150.16058,40.6761905 149.99044,40.6761905 149.8203,40.6761905 L149.8203,41 L151.861981,41 L151.861981,40.8380952 Z M85.3372082,14.447619 L85.3372082,14.7714286 C85.3372082,14.9333333 85.3372082,15.4190476 85.1670681,16.0666667 C84.8267879,17.3619048 84.6566478,17.847619 84.3163677,18.0095238 C84.1462276,18.0095238 83.1253871,18.3333333 80.0628656,18.6571429 C80.0628656,17.847619 80.0628656,15.2571429 80.2330057,14.6095238 C83.8059474,14.2857143 84.996928,14.2857143 85.3372082,14.447619 Z M77.8510445,14.9333333 L77.8510445,18.8190476 C77.1704842,18.8190476 74.4482428,19.1428571 73.7676825,19.1428571 C73.7676825,18.4952381 73.4274023,15.9047619 73.4274023,15.4190476 C73.9378226,15.4190476 77.0003441,14.9333333 77.8510445,14.9333333 Z M108.135979,25.6190476 C110.858221,25.1333333 111.708921,25.1333333 112.049201,25.1333333 C111.879061,26.1047619 111.879061,26.9142857 111.538781,27.5619048 C110.688081,27.7238095 109.4971,27.8857143 107.795699,28.047619 C107.795699,27.5619048 107.455419,26.1047619 107.455419,25.6190476 L108.135979,25.6190476 Z M139.101475,14.9333333 C139.271615,14.7714286 139.271615,14.7714286 139.441755,14.7714286 C139.271615,15.4190476 139.271615,16.0666667 139.101475,16.8761905 L138.080634,16.8761905 C137.740354,16.8761905 137.229934,17.0380952 136.549373,17.3619048 L136.549373,15.7428571 C137.400074,15.4190476 138.931335,15.0952381 139.101475,14.9333333 Z M139.611895,11.5333333 L139.611895,11.8571429 C139.611895,12.1809524 139.611895,12.5047619 139.441755,13.152381 C139.441755,13.3142857 139.441755,13.6380952 139.271615,13.9619048 C138.931335,13.6380952 138.761194,13.4761905 138.080634,13.4761905 C138.080634,13.4761905 136.719513,13.9619048 136.209093,14.1238095 L136.209093,12.6666667 C138.591054,11.6952381 139.441755,11.5333333 139.611895,11.5333333 Z M128.382649,7.97142857 L127.872229,7.97142857 C127.702089,8.13333333 127.702089,8.78095238 127.702089,9.42857143 C127.702089,10.2380952 127.531949,10.7238095 127.361809,11.3714286 C126.340968,14.6095238 124.639567,17.3619048 122.427746,19.952381 C121.917326,20.4380952 121.236766,21.0857143 121.917326,21.0857143 C122.257606,21.0857143 122.938167,20.7619048 123.448587,20.6 C124.129147,20.2761905 124.979848,19.6285714 126.170828,18.4952381 C126.340968,18.6571429 126.511108,18.8190476 126.851389,18.8190476 L127.702089,18.8190476 C127.872229,18.9809524 127.872229,19.3047619 127.872229,19.6285714 L127.872229,20.7619048 C126.851389,21.0857143 125.830548,21.247619 124.469427,21.5714286 C123.959007,21.7333333 123.448587,21.7333333 123.448587,22.0571429 C123.448587,22.2190476 123.618727,22.5428571 123.959007,22.8666667 C124.299287,23.1904762 124.809708,23.5142857 125.149988,23.352381 C125.490268,23.352381 126.340968,23.0285714 126.681248,23.0285714 C127.021529,22.8666667 127.531949,22.8666667 127.872229,22.7047619 L127.872229,24.647619 C127.702089,25.6190476 127.361809,26.1047619 127.021529,26.2666667 C126.681248,26.4285714 126.511108,26.5904762 126.340968,26.752381 L126.340968,27.0761905 C126.340968,27.4 126.681248,28.3714286 127.021529,29.0190476 C127.191669,29.3428571 127.361809,29.3428571 127.361809,29.3428571 C127.872229,29.5047619 128.212509,29.1809524 128.72293,28.6952381 L129.74377,27.7238095 C130.25419,27.2380952 131.104891,26.5904762 131.955591,25.7809524 C132.806292,24.9714286 133.316712,24.647619 133.486852,24.3238095 C133.827132,24 133.997272,23.8380952 133.997272,23.6761905 C133.997272,23.5142857 133.316712,23.6761905 130.25419,24.9714286 L130.25419,22.0571429 C130.42433,22.0571429 130.59447,21.8952381 130.59447,21.8952381 C131.785451,21.5714286 132.976432,21.247619 133.146572,21.0857143 C133.316712,21.0857143 133.827132,21.0857143 133.827132,20.7619048 C133.827132,20.6 133.656992,20.1142857 133.146572,19.7904762 C132.636151,19.4666667 132.125731,19.3047619 131.785451,19.4666667 L131.445171,19.6285714 C131.275031,19.6285714 131.445171,19.6285714 130.764611,19.952381 C130.764611,19.952381 130.42433,20.1142857 130.25419,20.1142857 L130.25419,19.7904762 C130.25419,19.6285714 130.42433,19.3047619 130.42433,19.1428571 C130.59447,18.6571429 130.08405,18.4952381 130.08405,18.4952381 C130.934751,18.3333333 132.295871,17.847619 132.295871,17.847619 C132.636151,17.6857143 133.146572,17.5238095 133.146572,17.3619048 C133.316712,17.2 132.976432,16.8761905 132.636151,16.552381 C132.295871,16.2285714 131.785451,15.9047619 130.934751,16.2285714 C130.42433,16.3904762 129.57363,16.552381 129.57363,16.552381 C128.382649,16.8761905 127.702089,17.2 127.021529,17.3619048 C127.531949,16.7142857 127.872229,16.0666667 128.382649,15.2571429 C129.06321,15.4190476 129.74377,15.2571429 132.636151,14.6095238 C132.976432,14.447619 133.486852,14.447619 133.656992,14.1238095 C133.656992,13.9619048 133.656992,13.6380952 133.316712,13.3142857 C132.976432,12.9904762 132.466011,12.6666667 132.125731,12.8285714 C131.275031,12.9904762 130.764611,13.152381 129.74377,13.4761905 L129.57363,13.4761905 C129.74377,13.3142857 129.74377,13.152381 129.91391,12.8285714 C130.59447,11.3714286 130.934751,10.8857143 131.104891,10.7238095 C131.275031,10.4 131.615311,10.2380952 131.615311,10.0761905 C131.615311,9.91428571 131.275031,9.42857143 130.764611,9.1047619 C129.57363,8.2952381 128.72293,7.97142857 128.382649,7.97142857 Z M139.782035,9.1047619 C139.611895,9.1047619 139.441755,9.26666667 139.271615,9.59047619 L139.101475,9.75238095 C139.101475,9.75238095 138.420914,10.0761905 135.698673,11.047619 C134.677832,10.7238095 133.997272,10.7238095 133.656992,10.8857143 C133.316712,11.047619 133.656992,11.8571429 133.827132,12.1809524 C133.997272,12.6666667 134.337552,13.152381 134.337552,14.7714286 L134.507692,24.647619 C134.337552,26.1047619 134.337552,26.2666667 133.827132,26.9142857 C133.316712,27.5619048 133.316712,27.5619048 133.316712,28.047619 C133.486852,28.6952381 133.997272,29.8285714 134.337552,29.9904762 C134.847973,30.152381 135.358393,29.6666667 135.698673,29.1809524 C136.038953,28.8571429 136.889654,28.047619 137.740354,27.0761905 C139.271615,25.4571429 139.952175,24.8095238 139.782035,24.647619 C139.782035,24.4857143 139.101475,24.4857143 136.209093,25.6190476 L136.209093,20.2761905 C137.059794,21.0857143 137.740354,21.7333333 138.250774,22.3809524 C139.271615,23.5142857 140.462595,24.647619 141.653576,25.7809524 C143.014697,27.0761905 144.205677,27.0761905 147.438339,25.7809524 C148.118899,25.4571429 148.799459,25.1333333 148.799459,24.8095238 C148.629319,24.647619 148.118899,24.4857143 147.268199,24.3238095 C144.716097,23.8380952 142.504276,22.8666667 140.462595,21.5714286 C141.313296,20.9238095 141.993856,20.4380952 142.334136,19.952381 L143.184837,19.1428571 C143.525117,18.8190476 143.865397,18.9809524 143.865397,18.6571429 C143.865397,18.3333333 143.354977,17.6857143 143.014697,17.3619048 C142.334136,16.8761905 141.483436,16.8761905 141.313296,17.0380952 C140.973016,17.2 141.143156,17.2 141.143156,17.3619048 L141.143156,18.0095238 C141.143156,18.1714286 140.973016,19.1428571 139.441755,20.7619048 C139.101475,20.4380952 138.250774,19.7904762 137.570214,19.3047619 C137.229934,19.1428571 137.059794,18.9809524 136.889654,18.6571429 C137.229934,18.6571429 137.570214,18.4952381 137.570214,18.4952381 C138.250774,18.3333333 138.591054,18.3333333 138.761194,18.1714286 C138.931335,18.3333333 139.101475,18.3333333 139.271615,18.4952381 C139.611895,18.6571429 139.952175,18.3333333 140.122315,18.1714286 C140.292455,18.0095238 140.632735,17.3619048 140.802875,16.8761905 C140.973016,16.0666667 141.313296,15.0952381 141.483436,13.8 C141.653576,13.3142857 141.653576,12.9904762 141.653576,12.8285714 C141.823716,12.5047619 141.993856,12.1809524 142.334136,11.6952381 C142.504276,11.2095238 142.844556,11.047619 142.844556,10.7238095 L142.674416,10.5619048 C141.993856,9.91428571 141.143156,9.42857143 139.611895,9.26666667 L139.782035,9.1047619 Z M171.768371,16.0666667 C171.08781,16.2285714 167.004448,17.2 162.070386,18.0095238 C161.559966,18.1714286 160.879405,18.1714286 160.879405,18.3333333 C160.709265,18.6571429 161.049545,18.9809524 161.219685,19.1428571 C161.559966,19.3047619 162.070386,19.6285714 162.921086,19.7904762 L163.091226,19.7904762 C163.431507,19.7904762 163.771787,19.6285714 164.282207,19.6285714 C164.622487,19.4666667 165.473188,19.3047619 167.855149,18.9809524 C168.195429,19.952381 168.365569,21.5714286 168.365569,24 L168.365569,24.647619 C168.365569,26.9142857 168.195429,27.5619048 168.195429,27.8857143 C168.025289,27.8857143 167.685009,27.8857143 167.174588,27.7238095 C165.983608,27.4 164.622487,26.752381 164.792627,27.2380952 C164.792627,27.5619048 165.643328,28.2095238 166.323888,29.0190476 C166.834308,29.6666667 167.174588,29.9904762 167.514869,30.6380952 C167.855149,31.2857143 168.025289,31.9333333 168.705849,31.6095238 C169.216269,31.447619 170.06697,30.9619048 170.57739,30.152381 C170.91767,29.6666667 171.08781,29.1809524 171.25795,28.6952381 C171.25795,27.8857143 170.91767,26.5904762 170.91767,25.6190476 C170.74753,24.3238095 170.74753,23.352381 170.74753,22.8666667 L170.74753,21.5714286 C170.74753,21.0857143 170.74753,20.9238095 170.91767,20.4380952 C171.08781,20.2761905 171.08781,20.1142857 171.08781,19.7904762 L171.08781,19.4666667 C170.91767,19.1428571 170.74753,18.8190476 170.40725,18.6571429 C171.598231,18.4952381 172.959351,18.4952381 174.150332,18.4952381 L176.192013,18.4952381 C176.532293,18.4952381 177.553134,18.4952381 177.893414,18.1714286 C178.233694,17.6857143 177.723274,16.8761905 176.872573,16.3904762 C176.192013,15.9047619 175.171172,15.7428571 173.980192,15.9047619 C173.639912,15.5809524 172.278791,15.9047619 171.768371,16.0666667 Z M159.688425,14.1238095 C160.028705,13.9619048 160.198845,14.1238095 160.368985,14.1238095 C160.709265,14.2857143 161.559966,14.9333333 162.070386,16.0666667 C162.070386,16.0666667 162.240526,16.2285714 162.070386,16.3904762 C162.070386,16.552381 161.900246,16.7142857 161.559966,16.8761905 L160.368985,18.0095238 C159.858565,18.4952381 159.348145,18.9809524 159.178004,19.3047619 C159.688425,19.952381 160.028705,20.4380952 160.028705,21.0857143 C160.028705,21.247619 160.028705,21.7333333 159.858565,22.0571429 L159.858565,27.8857143 C159.858565,29.1809524 159.518285,30.4761905 159.178004,30.6380952 C158.837724,30.8 158.497444,30.4761905 158.327304,30.152381 C158.157164,29.8285714 157.646744,29.3428571 157.476604,28.8571429 C157.306464,28.5333333 157.136323,28.047619 157.136323,27.8857143 C157.136323,27.7238095 157.136323,27.5619048 157.306464,27.4 C157.306464,27.4 157.476604,27.0761905 157.476604,26.752381 C157.987024,25.2952381 157.816884,23.8380952 157.816884,22.2190476 L157.816884,20.7619048 C156.285623,22.2190476 154.924502,23.0285714 153.903662,23.5142857 C152.712681,24 151.521701,24.1619048 151.351561,24.1619048 C151.01128,24 151.521701,23.6761905 152.542541,22.8666667 C154.414082,21.5714286 155.945343,19.952381 157.476604,18.1714286 C159.007864,16.2285714 159.178004,15.0952381 159.178004,15.0952381 C159.178004,14.6095238 159.348145,14.2857143 159.688425,14.1238095 Z M170.23711,10.7238095 C169.89683,10.7238095 169.55655,10.8857143 168.875989,11.2095238 C168.195429,11.5333333 167.174588,11.8571429 165.473188,12.1809524 C164.792627,12.3428571 164.112067,12.3428571 164.112067,12.6666667 C164.112067,12.9904762 164.282207,13.152381 164.622487,13.4761905 C164.962767,13.6380952 165.813468,14.1238095 167.344728,13.8 C168.535709,13.6380952 172.619071,12.6666667 173.129491,12.3428571 L173.469771,12.0190476 C173.469771,11.6952381 172.789211,11.2095238 172.619071,11.047619 C171.768371,10.4 170.57739,10.5619048 170.23711,10.7238095 Z M160.198845,8.13333333 C160.709265,8.2952381 161.730106,8.78095238 162.580806,9.91428571 C162.580806,9.91428571 162.750946,10.0761905 162.580806,10.2380952 C162.580806,10.4 162.410666,10.5619048 161.730106,11.047619 C161.049545,11.5333333 160.539125,12.0190476 160.028705,12.5047619 C157.987024,14.2857143 156.625903,15.2571429 155.945343,15.5809524 C154.924502,16.0666667 154.073802,16.0666667 153.903662,15.9047619 C153.733522,15.7428571 154.584222,14.9333333 155.264783,14.447619 C155.775203,13.9619048 157.476604,12.3428571 158.837724,10.7238095 C159.518285,9.75238095 159.518285,9.59047619 159.518285,9.26666667 C159.518285,8.78095238 159.518285,8.2952381 159.688425,8.2952381 C159.858565,8.13333333 160.028705,8.13333333 160.198845,8.13333333 Z M111.538781,23.1904762 C111.538781,23.1904762 108.98668,24 106.604719,24.1619048 C106.604719,24.1619048 106.434579,24.1619048 106.094298,24 C105.073458,23.8380952 104.563038,23.8380952 104.392898,24 C104.052617,24.3238095 104.222757,24.4857143 104.392898,24.647619 L104.563038,25.1333333 C104.563038,25.2952381 104.903318,25.7809524 105.583878,29.0190476 C105.754018,29.8285714 106.094298,30.3142857 106.434579,30.6380952 L106.604719,30.8 C106.774859,30.8 106.944999,30.8 107.115139,30.6380952 C107.285279,30.4761905 107.285279,30.3142857 107.625559,29.8285714 C109.66724,29.6666667 111.198501,29.5047619 112.049201,29.5047619 C113.920742,29.3428571 114.261022,29.3428571 114.261022,29.0190476 C114.261022,28.8571429 114.090882,28.3714286 113.750602,27.8857143 C114.601303,26.752381 114.431162,26.752381 114.771443,26.4285714 C115.111723,26.1047619 115.622143,25.7809524 115.622143,25.2952381 C115.622143,24.9714286 114.601303,23.8380952 112.559622,23.1904762 L112.389481,23.1904762 C112.389481,22.8666667 112.219341,22.8666667 111.538781,23.1904762 Z M111.368641,19.7904762 C111.198501,19.7904762 111.028361,19.7904762 108.306119,20.4380952 C106.774859,20.7619048 106.434579,20.7619048 106.434579,20.7619048 C105.583878,20.9238095 105.073458,20.7619048 105.073458,21.247619 L105.073458,21.5714286 L105.583878,22.0571429 C106.094298,22.3809524 106.434579,22.3809524 107.285279,22.3809524 C109.66724,22.2190476 111.368641,21.8952381 112.559622,21.7333333 L112.899902,21.7333333 C113.410322,21.5714286 113.750602,21.7333333 113.750602,21.247619 C113.750602,20.9238095 113.410322,20.6 113.240182,20.2761905 C112.899902,19.952381 112.389481,19.6285714 111.368641,19.7904762 Z M112.049201,16.3904762 C111.538781,16.3904762 110.517941,16.552381 109.15682,16.8761905 C107.795699,17.2 106.604719,17.3619048 105.924158,17.3619048 C105.583878,17.3619048 105.073458,17.5238095 104.903318,17.6857143 C104.733178,17.847619 104.903318,18.1714286 105.243598,18.4952381 C105.243598,18.4952381 105.924158,19.1428571 107.285279,18.9809524 C107.285279,18.9809524 109.32696,18.8190476 112.049201,18.3333333 L113.070042,18.1714286 C113.580462,18.0095238 114.261022,18.1714286 114.431162,17.847619 C114.601303,17.6857143 114.431162,17.2 113.920742,16.8761905 C113.580462,16.7142857 112.899902,16.3904762 112.049201,16.3904762 Z M113.410322,12.8285714 C112.559622,12.9904762 107.795699,13.8 102.861637,14.2857143 C102.351217,14.2857143 101.840796,14.447619 101.840796,14.447619 C101.670656,14.6095238 101.330376,14.7714286 101.840796,15.0952381 C101.840796,15.0952381 103.031777,16.0666667 103.882477,16.2285714 L104.052617,16.2285714 C104.733178,16.2285714 105.073458,16.0666667 105.583878,15.9047619 C106.094298,15.7428571 107.115139,15.5809524 107.115139,15.5809524 C110.17766,14.9333333 111.538781,14.6095238 116.132563,14.7714286 C116.132563,14.7714286 117.153404,14.9333333 117.493684,14.9333333 C117.833964,14.9333333 118.514524,14.9333333 118.684665,14.6095238 C118.854805,14.2857143 118.514524,13.8 118.174244,13.4761905 C117.833964,13.152381 116.472843,12.3428571 115.111723,12.5047619 C114.261022,12.5047619 114.261022,12.5047619 113.410322,12.8285714 Z M99.7991153,8.94285714 C99.7991153,8.45714286 100.309536,8.61904762 100.309536,8.61904762 C101.840796,8.94285714 102.861637,9.59047619 103.201917,10.8857143 L103.201917,11.047619 C103.201917,11.2095238 103.201917,11.2095238 102.691497,11.8571429 C102.351217,12.3428571 101.840796,12.9904762 101.500516,13.4761905 C101.160236,13.8 100.819956,14.447619 100.309536,15.2571429 C100.990096,15.9047619 101.330376,16.552381 101.330376,17.0380952 L101.330376,17.6857143 C101.330376,17.847619 101.160236,19.6285714 101.160236,27.5619048 C100.990096,28.8571429 100.819956,29.3428571 100.479676,29.8285714 C100.479676,29.8285714 100.139395,30.4761905 99.7991153,30.3142857 C99.4588351,30.152381 98.4379946,29.0190476 98.2678545,27.5619048 L98.2678545,27.2380952 C98.6081347,25.7809524 98.9484149,24.3238095 98.9484149,22.8666667 C98.9484149,22.3809524 98.9484149,21.8952381 99.118555,21.4095238 L99.118555,20.9238095 L99.118555,19.6285714 C99.118555,18.8190476 98.9484149,18.0095238 98.9484149,17.3619048 C97.4171541,19.1428571 96.2261735,20.1142857 95.205333,20.7619048 C93.8442124,21.5714286 92.8233719,21.7333333 92.6532318,21.7333333 C92.4830917,21.5714286 92.8233719,21.4095238 92.9935119,21.0857143 C93.3337921,20.7619048 93.5039322,20.7619048 94.1844925,19.952381 C95.5456132,18.3333333 97.0768739,16.2285714 98.0977145,14.7714286 C99.118555,13.152381 99.7991153,10.8857143 99.9692554,10.5619048 L99.9692554,9.91428571 C99.9692554,9.26666667 99.7991153,9.1047619 99.7991153,8.94285714 Z M107.285279,8.94285714 C107.795699,8.78095238 108.306119,8.61904762 109.32696,8.78095238 C110.17766,8.94285714 110.688081,9.1047619 111.198501,9.26666667 C111.708921,9.75238095 112.049201,10.2380952 112.049201,10.8857143 C112.049201,12.0190476 111.538781,12.3428571 111.198501,12.3428571 L110.858221,12.3428571 C109.32696,11.5333333 108.306119,10.7238095 107.115139,9.42857143 C106.944999,9.26666667 106.774859,8.94285714 107.285279,8.94285714 Z M77.8510445,7 C76.830204,7 76.830204,7.16190476 76.830204,7.32380952 C76.830204,7.48571429 77.0003441,7.80952381 77.1704842,8.2952381 C77.3406242,8.61904762 77.5107643,8.94285714 77.6809044,11.047619 L77.6809044,13.152381 C77.0003441,13.152381 72.746842,13.6380952 72.5767019,13.6380952 C70.705161,12.9904762 69.5141804,13.152381 69.3440403,13.6380952 C69.3440403,13.8 69.3440403,14.1238095 69.5141804,14.447619 C69.5141804,14.447619 70.5350209,16.2285714 71.0454412,19.4666667 C71.3857213,21.247619 71.8961416,21.7333333 71.8961416,21.8952381 C72.0662817,22.0571429 72.2364217,22.2190476 72.746842,22.0571429 C72.9169821,21.8952381 73.2572622,21.5714286 73.5975424,20.7619048 C74.1079627,20.7619048 76.830204,20.4380952 77.5107643,20.4380952 C77.3406242,27.5619048 77.8510445,30.3142857 78.0211846,30.8 C78.1913247,31.447619 78.3614648,31.9333333 78.7017449,31.6095238 C79.0420251,31.2857143 79.3823053,30.8 79.7225854,28.5333333 C79.8927255,27.5619048 79.8927255,26.4285714 80.0628656,24.647619 L80.0628656,22.2190476 L80.0628656,20.1142857 C82.4448268,19.952381 84.4865078,19.952381 85.3372082,19.952381 C86.3580487,19.952381 87.3788892,20.1142857 87.5490293,19.952381 C87.8893094,19.7904762 87.7191694,19.3047619 87.5490293,18.9809524 C87.3788892,18.8190476 87.2087491,18.4952381 87.038609,18.0095238 C88.3997297,15.9047619 89.08029,15.4190476 89.2504301,15.0952381 L89.5907103,14.7714286 C89.9309904,14.447619 90.1011305,14.2857143 90.1011305,14.1238095 C90.1011305,13.9619048 89.9309904,13.6380952 89.9309904,13.6380952 C89.2504301,12.8285714 88.2295896,12.1809524 86.5281888,11.5333333 L86.3580487,11.5333333 C86.1879086,11.5333333 85.6774883,11.6952381 85.6774883,11.6952381 C85.5073483,11.8571429 84.1462276,12.0190476 80.2330057,12.5047619 C80.4031458,9.59047619 80.5732858,9.26666667 80.7434259,9.1047619 C80.7434259,9.1047619 80.7434259,8.94285714 80.913566,8.78095238 C81.0837061,8.61904762 81.0837061,8.45714286 81.0837061,8.45714286 C81.0837061,8.2952381 81.0837061,8.13333333 80.913566,8.13333333 C79.8927255,7.32380952 78.7017449,7.16190476 77.8510445,7 Z M166.153748,38.0857143 L168.365569,36.1428571 L168.705849,35.8190476 L168.875989,35.6571429 C168.875989,35.4952381 168.875989,35.4952381 168.705849,35.4952381 C168.535709,35.4952381 168.365569,35.3333333 168.195429,35.3333333 L168.195429,35.0095238 L170.74753,35.0095238 L170.74753,35.3333333 C170.57739,35.3333333 170.40725,35.4952381 170.23711,35.4952381 C170.06697,35.6571429 169.89683,35.6571429 169.72669,35.8190476 L168.025289,37.2761905 L169.72669,39.7047619 C169.89683,40.0285714 170.23711,40.1904762 170.23711,40.352381 C170.40725,40.5142857 170.57739,40.5142857 170.91767,40.5142857 L170.91767,40.8380952 L168.195429,40.8380952 L168.195429,40.5142857 L168.705849,40.5142857 C168.875989,40.5142857 168.875989,40.352381 168.875989,40.352381 L168.875989,40.1904762 C168.875989,40.1904762 168.705849,40.0285714 168.705849,39.8666667 L167.344728,38.0857143 L166.323888,38.8952381 L166.323888,40.0285714 C166.323888,40.1904762 166.323888,40.352381 166.494028,40.5142857 C166.664168,40.6761905 166.834308,40.6761905 167.004448,40.6761905 L167.004448,41 L164.622487,41 L164.622487,40.6761905 C164.962767,40.6761905 165.132907,40.6761905 165.132907,40.5142857 C165.303047,40.352381 165.303047,40.1904762 165.303047,40.0285714 L165.303047,36.1428571 C165.303047,35.9809524 165.303047,35.8190476 165.132907,35.6571429 C164.962767,35.3333333 164.792627,35.3333333 164.452347,35.3333333 L164.452347,35.0095238 L166.834308,35.0095238 L166.834308,35.3333333 C166.494028,35.3333333 166.323888,35.3333333 166.323888,35.4952381 C166.153748,35.6571429 166.153748,35.8190476 166.153748,35.9809524 L166.153748,38.0857143 Z M158.327304,39.8666667 C158.327304,40.0285714 158.327304,40.352381 158.497444,40.352381 C158.667584,40.5142857 158.837724,40.5142857 159.007864,40.5142857 L159.007864,40.8380952 L156.966183,40.8380952 L156.966183,40.5142857 C157.136323,40.5142857 157.476604,40.5142857 157.476604,40.352381 C157.646744,40.1904762 157.646744,40.0285714 157.646744,39.8666667 L157.646744,35.6571429 C157.646744,35.4952381 157.476604,35.4952381 157.306464,35.4952381 C157.306464,35.3333333 157.136323,35.3333333 156.966183,35.3333333 L156.966183,35.0095238 L158.667584,35.0095238 L162.240526,39.2190476 L162.240526,35.9809524 C162.240526,35.8190476 162.240526,35.4952381 162.070386,35.4952381 C161.900246,35.3333333 161.730106,35.3333333 161.389826,35.3333333 L161.389826,35.0095238 L163.431507,35.0095238 L163.431507,35.3333333 C163.091226,35.3333333 162.921086,35.3333333 162.921086,35.4952381 C162.750946,35.6571429 162.750946,35.8190476 162.750946,35.9809524 L162.750946,40.8380952 L162.410666,40.8380952 L158.327304,35.9809524 L158.327304,39.8666667 Z M152.882821,36.1428571 L153.903662,38.4095238 L151.861981,38.4095238 L152.882821,36.1428571 Z M146.587638,38.0857143 C147.098059,38.0857143 147.438339,38.247619 147.608479,38.4095238 C147.948759,38.5714286 147.948759,38.8952381 147.948759,39.2190476 C147.948759,39.5428571 147.778619,39.8666667 147.438339,40.0285714 C147.098059,40.1904762 146.757778,40.352381 146.077218,40.352381 C145.736938,40.352381 145.566798,40.352381 145.396658,40.1904762 C145.226518,40.1904762 145.226518,39.8666667 145.226518,39.7047619 L145.226518,37.9238095 L146.587638,37.9238095 L146.587638,38.0857143 Z M138.420914,39.3809524 L138.761194,39.5428571 C138.420914,40.0285714 138.080634,40.352381 137.740354,40.6761905 C137.400074,40.8380952 136.889654,41 136.209093,41 C135.868813,41 135.358393,41 135.018113,40.8380952 C134.677832,40.6761905 134.337552,40.5142857 134.167412,40.352381 C133.827132,40.0285714 133.486852,39.7047619 133.316712,39.3809524 C133.146572,39.0571429 132.976432,38.5714286 132.976432,38.0857143 C132.976432,37.7619048 132.976432,37.2761905 133.146572,36.952381 L133.656992,35.9809524 C133.997272,35.6571429 134.337552,35.3333333 134.677832,35.1714286 C135.018113,35.0095238 135.528533,34.847619 136.038953,34.847619 C136.379233,34.847619 136.719513,34.847619 137.059794,35.0095238 C137.400074,35.1714286 137.570214,35.1714286 137.570214,35.1714286 L137.740354,35.1714286 L137.910494,35.0095238 L138.591054,35.0095238 L138.591054,36.7904762 L138.250774,36.7904762 C138.080634,36.3047619 137.910494,35.9809524 137.570214,35.6571429 C137.229934,35.3333333 136.889654,35.3333333 136.379233,35.3333333 C135.698673,35.3333333 135.188253,35.4952381 134.847973,35.9809524 C134.507692,36.4666667 134.337552,37.1142857 134.337552,37.9238095 C134.337552,38.7333333 134.507692,39.2190476 135.018113,39.7047619 C135.358393,40.1904762 136.038953,40.352381 136.719513,40.352381 C137.059794,40.352381 137.400074,40.1904762 137.740354,40.0285714 C137.910494,40.0285714 138.250774,39.7047619 138.420914,39.3809524 Z M131.275031,39.8666667 C131.275031,40.0285714 131.275031,40.1904762 131.445171,40.352381 C131.615311,40.5142857 131.785451,40.5142857 132.125731,40.5142857 L132.125731,40.8380952 L129.57363,40.8380952 L129.57363,40.5142857 C129.91391,40.5142857 130.08405,40.5142857 130.25419,40.352381 C130.42433,40.1904762 130.42433,40.0285714 130.42433,39.8666667 L130.42433,35.9809524 C130.42433,35.8190476 130.42433,35.6571429 130.25419,35.4952381 C130.08405,35.3333333 129.91391,35.3333333 129.57363,35.3333333 L129.57363,35.0095238 L132.125731,35.0095238 L132.125731,35.3333333 C131.785451,35.3333333 131.615311,35.3333333 131.445171,35.4952381 C131.275031,35.6571429 131.275031,35.8190476 131.275031,35.9809524 L131.275031,39.8666667 Z M128.72293,35.0095238 L128.89307,36.4666667 L128.382649,36.4666667 C128.382649,36.1428571 128.212509,35.8190476 128.042369,35.6571429 C127.872229,35.4952381 127.531949,35.4952381 127.021529,35.4952381 L126.340968,35.4952381 L126.340968,39.8666667 C126.340968,40.0285714 126.340968,40.1904762 126.511108,40.352381 C126.681248,40.5142857 126.851389,40.5142857 127.191669,40.5142857 L127.191669,40.8380952 L124.639567,40.8380952 L124.639567,40.5142857 C124.979848,40.5142857 125.149988,40.5142857 125.320128,40.352381 C125.490268,40.1904762 125.490268,40.0285714 125.490268,39.8666667 L125.490268,35.4952381 L124.979848,35.4952381 C124.469427,35.4952381 124.299287,35.4952381 124.129147,35.6571429 C123.959007,35.8190476 123.788867,36.1428571 123.788867,36.4666667 L123.278447,36.4666667 L123.278447,35.0095238 L128.72293,35.0095238 Z M121.747186,39.8666667 C121.747186,40.0285714 121.747186,40.1904762 121.917326,40.352381 C122.087466,40.5142857 122.257606,40.5142857 122.597886,40.5142857 L122.597886,40.8380952 L119.875645,40.8380952 L119.875645,40.5142857 C120.215925,40.5142857 120.386065,40.5142857 120.556205,40.352381 C120.726346,40.1904762 120.726346,40.0285714 120.726346,39.8666667 L120.726346,35.9809524 C120.726346,35.8190476 120.726346,35.6571429 120.556205,35.4952381 C120.386065,35.3333333 120.215925,35.3333333 119.875645,35.3333333 L119.875645,35.0095238 L122.427746,35.0095238 L122.427746,35.3333333 C122.087466,35.3333333 121.917326,35.3333333 121.747186,35.4952381 C121.577046,35.6571429 121.577046,35.8190476 121.577046,35.9809524 L121.577046,39.8666667 L121.747186,39.8666667 Z M118.684665,39.3809524 L119.024945,39.5428571 C118.684665,40.0285714 118.344384,40.352381 118.004104,40.6761905 C117.663824,40.8380952 117.153404,41 116.472843,41 C116.132563,41 115.622143,41 115.281863,40.8380952 C114.941583,40.6761905 114.601303,40.5142857 114.431162,40.352381 C114.090882,40.0285714 113.750602,39.7047619 113.580462,39.3809524 C113.410322,39.0571429 113.240182,38.5714286 113.240182,38.0857143 C113.240182,37.7619048 113.240182,37.2761905 113.410322,36.952381 L113.920742,35.9809524 C114.261022,35.6571429 114.601303,35.3333333 114.941583,35.1714286 C115.281863,35.0095238 115.792283,34.847619 116.302703,34.847619 C116.642984,34.847619 116.983264,34.847619 117.323544,35.0095238 C117.663824,35.1714286 117.833964,35.1714286 117.833964,35.1714286 L118.004104,35.1714286 L118.174244,35.0095238 L118.514524,35.0095238 L118.514524,36.7904762 L118.174244,36.7904762 C118.004104,36.3047619 117.833964,35.9809524 117.493684,35.6571429 C117.493684,35.3333333 116.983264,35.3333333 116.642984,35.3333333 C115.962423,35.3333333 115.452003,35.4952381 115.111723,35.9809524 C114.771443,36.4666667 114.431162,37.1142857 114.431162,37.9238095 C114.431162,38.7333333 114.601303,39.2190476 115.111723,39.7047619 C115.452003,40.1904762 116.132563,40.352381 116.813124,40.352381 C117.153404,40.352381 117.493684,40.1904762 117.833964,40.0285714 C118.004104,40.0285714 118.344384,39.7047619 118.684665,39.3809524 Z M104.392898,36.1428571 L105.413738,38.4095238 L103.372057,38.4095238 L104.392898,36.1428571 Z M95.5456132,39.8666667 C95.5456132,40.0285714 95.5456132,40.352381 95.7157533,40.352381 C95.8858934,40.5142857 96.0560334,40.5142857 96.2261735,40.5142857 L96.2261735,40.8380952 L94.1844925,40.8380952 L94.1844925,40.5142857 C94.3546326,40.5142857 94.6949128,40.5142857 94.6949128,40.352381 C94.8650529,40.1904762 94.8650529,40.0285714 94.8650529,39.8666667 L94.8650529,35.6571429 C94.8650529,35.4952381 94.6949128,35.4952381 94.5247727,35.4952381 C94.5247727,35.3333333 94.3546326,35.3333333 94.1844925,35.3333333 L94.1844925,35.0095238 L95.8858934,35.0095238 L99.4588351,39.2190476 L99.4588351,35.9809524 C99.4588351,35.8190476 99.4588351,35.4952381 99.288695,35.4952381 C99.118555,35.3333333 98.9484149,35.3333333 98.6081347,35.3333333 L98.6081347,35.0095238 L100.649816,35.0095238 L100.649816,35.3333333 C100.309536,35.3333333 100.139395,35.3333333 100.139395,35.4952381 C99.9692554,35.6571429 99.9692554,35.8190476 99.9692554,35.9809524 L99.9692554,40.8380952 L99.6289752,40.8380952 L95.5456132,35.9809524 L95.5456132,39.8666667 Z M92.3129516,39.8666667 C92.3129516,40.0285714 92.3129516,40.1904762 92.4830917,40.352381 C92.6532318,40.5142857 92.8233719,40.5142857 93.163652,40.5142857 L93.163652,40.8380952 L90.6115508,40.8380952 L90.6115508,40.5142857 C90.9518309,40.5142857 91.121971,40.5142857 91.2921111,40.352381 C91.4622512,40.1904762 91.4622512,40.0285714 91.4622512,39.8666667 L91.4622512,35.9809524 C91.4622512,35.8190476 91.4622512,35.6571429 91.2921111,35.4952381 C91.121971,35.3333333 90.9518309,35.3333333 90.6115508,35.3333333 L90.6115508,35.0095238 L93.163652,35.0095238 L93.163652,35.3333333 C92.8233719,35.3333333 92.6532318,35.3333333 92.4830917,35.4952381 C92.3129516,35.6571429 92.3129516,35.8190476 92.3129516,35.9809524 L92.3129516,39.8666667 Z M87.8893094,37.6 L87.8893094,35.9809524 C87.8893094,35.8190476 87.8893094,35.6571429 87.7191694,35.4952381 C87.7191694,35.3333333 87.3788892,35.3333333 87.2087491,35.3333333 L87.2087491,35.0095238 L89.7608504,35.0095238 L89.7608504,35.3333333 C89.4205702,35.3333333 89.2504301,35.3333333 89.2504301,35.4952381 C89.08029,35.6571429 89.08029,35.8190476 89.08029,35.9809524 L89.08029,39.8666667 C89.08029,40.0285714 89.08029,40.1904762 89.2504301,40.352381 C89.4205702,40.5142857 89.5907103,40.5142857 89.7608504,40.5142857 L89.7608504,40.8380952 L87.2087491,40.8380952 L87.2087491,40.5142857 C87.5490293,40.5142857 87.7191694,40.5142857 87.8893094,40.352381 C88.0594495,40.1904762 88.0594495,40.0285714 88.0594495,39.8666667 L88.0594495,38.0857143 L84.996928,38.0857143 L84.996928,39.8666667 C84.996928,40.0285714 84.996928,40.1904762 85.1670681,40.352381 C85.3372082,40.5142857 85.5073483,40.5142857 85.8476284,40.5142857 L85.8476284,40.8380952 L83.2955272,40.8380952 L83.2955272,40.5142857 C83.6358073,40.5142857 83.8059474,40.5142857 83.8059474,40.352381 C83.9760875,40.1904762 83.9760875,40.0285714 83.9760875,39.8666667 L83.9760875,35.9809524 C83.9760875,35.8190476 83.9760875,35.6571429 83.8059474,35.4952381 C83.6358073,35.3333333 83.4656673,35.3333333 83.2955272,35.3333333 L83.2955272,35.0095238 L85.8476284,35.0095238 L85.8476284,35.3333333 C85.5073483,35.3333333 85.3372082,35.3333333 85.1670681,35.4952381 C84.996928,35.6571429 84.996928,35.8190476 84.996928,35.9809524 L84.996928,37.6 L87.8893094,37.6 Z M81.9344065,39.3809524 L82.2746867,39.5428571 C81.9344065,40.0285714 81.5941263,40.352381 81.2538462,40.6761905 C80.913566,40.8380952 80.4031458,41 79.7225854,41 C79.3823053,41 78.871885,41 78.5316048,40.8380952 C78.1913247,40.6761905 77.8510445,40.5142857 77.6809044,40.352381 C77.3406242,40.0285714 77.0003441,39.7047619 76.830204,39.3809524 C76.6600639,39.0571429 76.4899238,38.5714286 76.4899238,38.0857143 C76.4899238,37.7619048 76.4899238,37.2761905 76.6600639,36.952381 L77.1704842,35.9809524 C77.5107643,35.6571429 77.8510445,35.3333333 78.1913247,35.1714286 C78.5316048,35.0095238 79.0420251,34.847619 79.5524453,34.847619 C79.8927255,34.847619 80.2330057,34.847619 80.5732858,35.0095238 C80.913566,35.1714286 81.0837061,35.1714286 81.0837061,35.1714286 L81.2538462,35.1714286 L81.4239863,35.0095238 L81.7642664,35.0095238 L81.7642664,36.7904762 L81.4239863,36.7904762 C81.2538462,36.3047619 81.0837061,35.9809524 80.7434259,35.6571429 C80.7434259,35.3333333 80.2330057,35.3333333 79.8927255,35.3333333 C79.2121652,35.3333333 78.7017449,35.4952381 78.3614648,35.9809524 C78.0211846,36.4666667 77.8510445,37.1142857 77.8510445,37.9238095 C77.8510445,38.7333333 78.0211846,39.2190476 78.5316048,39.7047619 C78.871885,40.1904762 79.5524453,40.352381 80.2330057,40.352381 C80.5732858,40.352381 80.913566,40.1904762 81.2538462,40.0285714 L81.9344065,39.3809524 Z" id="path" fill="#FFFFFF" fill-rule="nonzero"></path>
    </g>
</svg>