<?xml version="1.0" encoding="UTF-8"?>
<svg width="206px" height="48px" viewBox="0 0 206 48" version="1.1" xmlns="http://www.w3.org/2000/svg" xmlns:xlink="http://www.w3.org/1999/xlink">
    <!-- Generator: Sketch 51 (57462) - http://www.bohemiancoding.com/sketch -->
    <title>CMB-full</title>
    <desc>Created with Sketch.</desc>
    <defs></defs>
    <g id="CMB-full" stroke="none" stroke-width="1" fill="none" fill-rule="evenodd">
        <rect id="@bound" x="0" y="0" width="206" height="48"></rect>
        <path d="M77.0703746,39.0813397 C76.5732123,39.5406699 75.9103292,40 74.9160045,40 C73.093076,40 72.0987514,39.0813397 72.0987514,37.8564593 C72.0987514,36.6315789 73.2587968,35.7129187 74.9160045,35.7129187 C75.5788876,35.7129187 76.2417707,36.0191388 76.4074915,36.0191388 C76.5732123,36.0191388 76.738933,35.8660287 76.738933,35.7129187 L76.9046538,35.7129187 L76.9046538,37.0909091 L76.738933,37.0909091 C76.4074915,36.6315789 75.7446084,35.8660287 74.9160045,35.8660287 C73.7559591,35.8660287 73.4245176,36.784689 73.4245176,37.7033493 C73.4245176,38.0095694 73.4245176,38.6220096 73.7559591,39.0813397 C74.0874007,39.5406699 74.7502838,39.5406699 74.9160045,39.5406699 C75.5788876,39.5406699 76.0760499,39.3875598 76.738933,38.7751196 L77.0703746,39.0813397 Z M83.3677639,39.84689 L80.7162316,39.84689 L80.7162316,39.6937799 C81.2133939,39.6937799 81.3791146,39.6937799 81.3791146,39.2344498 L81.3791146,37.8564593 L79.3904654,37.8564593 L79.3904654,39.2344498 C79.3904654,39.5406699 79.7219069,39.6937799 80.0533485,39.6937799 L80.0533485,39.84689 L77.4018161,39.84689 L77.4018161,39.6937799 C77.8989784,39.6937799 78.0646992,39.6937799 78.0646992,39.2344498 L78.0646992,36.3253589 C78.0646992,35.8660287 77.7332577,35.8660287 77.4018161,35.8660287 L77.4018161,35.7129187 L80.0533485,35.7129187 L80.0533485,35.8660287 C79.7219069,35.8660287 79.3904654,35.8660287 79.3904654,36.3253589 L79.3904654,37.5502392 L81.3791146,37.5502392 L81.3791146,36.3253589 C81.3791146,35.8660287 81.0476731,35.8660287 80.7162316,35.8660287 L80.7162316,35.7129187 L83.3677639,35.7129187 L83.3677639,35.8660287 C83.0363224,35.8660287 82.7048808,35.8660287 82.7048808,36.3253589 L82.7048808,39.2344498 C82.7048808,39.5406699 83.0363224,39.5406699 83.3677639,39.6937799 L83.3677639,39.84689 Z M86.5164586,39.84689 L83.6992054,39.84689 L83.6992054,39.6937799 C84.1963678,39.6937799 84.3620885,39.6937799 84.3620885,39.2344498 L84.3620885,36.3253589 C84.3620885,35.8660287 84.030647,35.8660287 83.6992054,35.8660287 L83.6992054,35.7129187 L86.5164586,35.7129187 L86.5164586,35.8660287 C86.185017,35.8660287 85.6878547,35.8660287 85.6878547,36.3253589 L85.6878547,39.2344498 C85.6878547,39.5406699 86.0192963,39.6937799 86.5164586,39.6937799 L86.5164586,39.84689 Z M86.8479001,39.6937799 C87.3450624,39.6937799 87.5107832,39.5406699 87.5107832,39.2344498 L87.5107832,36.3253589 C87.0136209,35.8660287 87.0136209,35.8660287 86.8479001,35.8660287 L86.8479001,35.7129187 L88.5051078,35.7129187 L91.322361,38.3157895 L91.322361,36.4784689 C91.322361,36.1722488 91.1566402,35.8660287 90.6594779,35.8660287 L90.6594779,35.7129187 L92.3166856,35.7129187 L92.3166856,35.8660287 C91.8195233,35.8660287 91.6538025,36.0191388 91.6538025,36.3253589 L91.6538025,39.84689 L91.4880817,39.84689 L88.0079455,36.6315789 L88.0079455,39.0813397 C88.0079455,39.5406699 88.1736663,39.6937799 88.8365494,39.6937799 L88.8365494,39.84689 L87.0136209,39.84689 L87.0136209,39.6937799 L86.8479001,39.6937799 Z M93.8081725,38.4688995 L94.6367764,37.0909091 L95.4653802,38.4688995 L93.8081725,38.4688995 Z M97.7854711,39.6937799 C97.4540295,39.6937799 97.2883087,39.5406699 96.9568672,38.9282297 L95.1339387,35.8660287 L94.9682179,35.8660287 L93.1452894,39.0813397 C92.9795687,39.5406699 92.8138479,39.6937799 92.3166856,39.84689 L92.3166856,40 L93.9738933,40 L93.9738933,39.84689 C93.6424518,39.84689 93.3110102,39.84689 93.3110102,39.5406699 C93.3110102,39.3875598 93.476731,39.2344498 93.6424518,38.7751196 L95.4653802,38.7751196 C95.631101,38.9282297 95.7968218,39.3875598 95.7968218,39.5406699 C95.7968218,39.6937799 95.631101,39.6937799 95.1339387,39.6937799 L95.1339387,39.84689 L97.7854711,39.84689 L97.7854711,39.6937799 Z M107.397276,39.84689 L104.745743,39.84689 L104.745743,39.6937799 C105.242906,39.6937799 105.408627,39.6937799 105.408627,39.2344498 L105.408627,36.1722488 L103.419977,39.6937799 L103.254257,39.6937799 L101.265607,36.3253589 L101.265607,39.0813397 C101.265607,39.5406699 101.431328,39.6937799 102.094211,39.6937799 L102.094211,39.84689 L100.271283,39.84689 L100.271283,39.6937799 C100.934166,39.6937799 100.934166,39.5406699 100.934166,39.2344498 L100.934166,36.3253589 C100.934166,36.0191388 100.768445,35.8660287 100.271283,35.8660287 L100.271283,35.7129187 L102.259932,35.7129187 L103.91714,38.4688995 L105.574347,35.7129187 L107.562997,35.7129187 L107.562997,35.8660287 C107.065834,35.8660287 106.900114,35.8660287 106.900114,36.4784689 L106.900114,39.0813397 C106.900114,39.5406699 107.065834,39.5406699 107.562997,39.6937799 L107.562997,39.84689 L107.397276,39.84689 Z M107.728717,35.8660287 L112.368899,35.8660287 L112.368899,37.0909091 L112.203178,37.0909091 C112.037457,36.1722488 111.374574,36.1722488 110.38025,36.1722488 C109.883087,36.1722488 109.717367,36.1722488 109.717367,36.4784689 L109.717367,37.8564593 C110.54597,37.8564593 110.877412,37.7033493 111.043133,36.937799 L111.208854,36.937799 L111.208854,38.9282297 L111.043133,38.9282297 C110.877412,38.0095694 110.54597,37.8564593 109.717367,37.8564593 L109.717367,39.2344498 C109.717367,39.5406699 109.883087,39.5406699 110.38025,39.5406699 C111.208854,39.5406699 112.037457,39.3875598 112.53462,38.4688995 L112.700341,38.4688995 L112.368899,39.6937799 L107.728717,39.6937799 L107.728717,39.5406699 C108.22588,39.5406699 108.3916,39.5406699 108.3916,39.0813397 L108.3916,36.3253589 C108.3916,36.0191388 108.060159,36.0191388 107.728717,35.8660287 Z M115.186152,36.1722488 C115.186152,36.0191388 115.186152,35.8660287 115.683314,35.8660287 C116.346198,35.8660287 116.677639,36.1722488 116.677639,36.784689 C116.677639,37.5502392 116.346198,37.7033493 115.186152,37.7033493 L115.186152,36.1722488 Z M118.666288,39.6937799 C118.500568,39.6937799 118.500568,39.6937799 118.334847,39.5406699 L116.677639,37.8564593 C117.174801,37.7033493 118.003405,37.5502392 118.003405,36.784689 C118.003405,35.7129187 116.346198,35.7129187 115.683314,35.7129187 L113.197503,35.7129187 L113.197503,35.8660287 C113.694665,35.8660287 113.860386,35.8660287 113.860386,36.4784689 L113.860386,39.0813397 C113.860386,39.5406699 113.694665,39.5406699 113.197503,39.6937799 L113.197503,39.84689 L115.849035,39.84689 L115.849035,39.6937799 C115.351873,39.6937799 115.186152,39.6937799 115.186152,39.0813397 L115.186152,37.8564593 L115.351873,37.8564593 L117.009081,39.6937799 L118.666288,39.6937799 Z M124.135074,39.0813397 C123.472191,39.5406699 122.975028,40 121.980704,40 C120.157775,40 119.163451,39.0813397 119.163451,37.8564593 C119.163451,36.6315789 120.323496,35.7129187 121.980704,35.7129187 C122.643587,35.7129187 123.30647,36.0191388 123.472191,36.0191388 C123.637911,36.0191388 123.803632,35.8660287 123.803632,35.7129187 L123.969353,35.7129187 L123.969353,37.0909091 L123.803632,37.0909091 C123.472191,36.6315789 122.809308,35.8660287 121.980704,35.8660287 C120.820658,35.8660287 120.489217,36.784689 120.489217,37.7033493 C120.489217,38.0095694 120.489217,38.6220096 120.820658,39.0813397 C121.1521,39.5406699 121.814983,39.5406699 121.980704,39.5406699 C122.643587,39.5406699 123.140749,39.3875598 123.803632,38.7751196 L124.135074,39.0813397 Z M130.598184,39.84689 L127.946652,39.84689 L127.946652,39.6937799 C128.443814,39.6937799 128.609535,39.6937799 128.609535,39.2344498 L128.609535,37.8564593 L126.620885,37.8564593 L126.620885,39.2344498 C126.620885,39.5406699 126.952327,39.6937799 127.283768,39.6937799 L127.283768,39.84689 L124.632236,39.84689 L124.632236,39.6937799 C125.129398,39.6937799 125.295119,39.6937799 125.295119,39.2344498 L125.295119,36.3253589 C125.295119,35.8660287 124.963678,35.8660287 124.632236,35.8660287 L124.632236,35.7129187 L127.283768,35.7129187 L127.283768,35.8660287 C126.952327,35.8660287 126.620885,35.8660287 126.620885,36.3253589 L126.620885,37.5502392 L128.609535,37.5502392 L128.609535,36.3253589 C128.609535,35.8660287 128.278093,35.8660287 127.946652,35.8660287 L127.946652,35.7129187 L130.598184,35.7129187 L130.598184,35.8660287 C130.266742,35.8660287 129.935301,35.8660287 129.935301,36.3253589 L129.935301,39.2344498 C129.935301,39.5406699 130.266742,39.5406699 130.598184,39.6937799 L130.598184,39.84689 Z M132.255392,38.4688995 L133.083995,37.0909091 L133.912599,38.4688995 L132.255392,38.4688995 Z M136.23269,39.6937799 C135.901249,39.6937799 135.735528,39.5406699 135.404086,38.9282297 L133.581158,35.8660287 L133.415437,35.8660287 L131.592509,39.0813397 C131.426788,39.5406699 131.261067,39.6937799 130.763905,39.84689 L130.763905,40 L132.421112,40 L132.421112,39.84689 C132.089671,39.84689 131.758229,39.84689 131.758229,39.5406699 C131.758229,39.3875598 131.92395,39.2344498 132.089671,38.7751196 L133.912599,38.7751196 C134.07832,38.9282297 134.244041,39.3875598 134.244041,39.5406699 C134.244041,39.6937799 134.07832,39.6937799 133.581158,39.6937799 L133.581158,39.84689 L136.23269,39.84689 L136.23269,39.6937799 Z M136.564132,39.6937799 C137.061294,39.6937799 137.227015,39.5406699 137.227015,39.2344498 L137.227015,36.3253589 C136.729852,35.8660287 136.729852,35.8660287 136.564132,35.8660287 L136.564132,35.7129187 L138.221339,35.7129187 L141.038593,38.3157895 L141.038593,36.4784689 C141.038593,36.1722488 140.872872,35.8660287 140.209989,35.8660287 L140.209989,35.7129187 L141.867196,35.7129187 L141.867196,35.8660287 C141.204313,35.8660287 141.204313,36.0191388 141.204313,36.3253589 L141.204313,39.84689 L141.038593,39.84689 L137.558456,36.6315789 L137.558456,39.0813397 C137.558456,39.5406699 137.724177,39.6937799 138.38706,39.6937799 L138.38706,39.84689 L136.564132,39.84689 L136.564132,39.6937799 Z M146.341657,39.84689 L143.524404,39.84689 L143.524404,39.6937799 C144.187287,39.6937799 144.353008,39.6937799 144.353008,39.0813397 L144.353008,36.0191388 C143.855846,36.0191388 143.027242,36.0191388 142.861521,37.0909091 L142.6958,37.0909091 L142.6958,35.8660287 L147.501703,35.8660287 L147.501703,37.0909091 L147.335982,37.0909091 C147.170261,36.1722488 146.341657,36.1722488 145.844495,36.0191388 L145.844495,39.0813397 C145.844495,39.5406699 146.010216,39.5406699 146.673099,39.6937799 L146.673099,39.84689 L146.341657,39.84689 Z M151.31328,36.937799 C151.14756,36.4784689 150.650397,35.8660287 149.821793,35.8660287 C149.490352,35.8660287 148.99319,36.0191388 148.99319,36.4784689 C148.99319,36.784689 149.15891,36.937799 149.821793,37.2440191 L150.981839,37.7033493 C151.31328,37.8564593 151.810443,38.1626794 151.810443,38.7751196 C151.810443,39.2344498 151.31328,40 149.821793,40 C148.99319,40 148.661748,39.84689 148.496027,39.84689 C148.330306,39.84689 148.330306,40 148.330306,40 L148.164586,40 L148.164586,38.4688995 L148.330306,38.4688995 C148.496027,39.0813397 148.99319,39.6937799 149.987514,39.6937799 C150.981839,39.6937799 150.981839,39.0813397 150.981839,39.0813397 C150.981839,38.6220096 150.650397,38.4688995 150.153235,38.3157895 L149.656073,38.1626794 C148.330306,37.7033493 148.330306,37.0909091 148.330306,36.937799 C148.330306,36.6315789 148.496027,35.7129187 150.153235,35.7129187 C150.816118,35.7129187 151.14756,35.8660287 151.479001,35.8660287 C151.644722,35.8660287 151.644722,35.7129187 151.810443,35.7129187 L151.976163,35.7129187 L151.976163,36.937799 L151.31328,36.937799 Z M156.119183,37.7033493 L156.284904,37.7033493 C156.782066,37.7033493 157.444949,37.8564593 157.444949,38.6220096 C157.444949,38.9282297 157.279228,39.5406699 156.450624,39.5406699 C156.119183,39.5406699 155.953462,39.3875598 155.953462,39.2344498 L155.953462,37.7033493 L156.119183,37.7033493 Z M156.119183,36.3253589 C156.119183,36.1722488 156.119183,36.0191388 156.616345,36.0191388 C157.279228,36.0191388 157.444949,36.3253589 157.444949,36.784689 C157.444949,37.3971292 157.279228,37.7033493 156.284904,37.7033493 L156.284904,36.3253589 L156.119183,36.3253589 Z M154.130533,39.84689 L156.782066,39.84689 C158.439274,39.84689 159.102157,39.2344498 159.102157,38.7751196 C159.102157,38.1626794 158.273553,37.8564593 157.61067,37.7033493 C157.942111,37.7033493 158.770715,37.5502392 158.770715,36.784689 C158.770715,35.8660287 157.113507,35.8660287 156.616345,35.8660287 L154.130533,35.8660287 L154.130533,36.0191388 C154.461975,36.0191388 154.793417,36.0191388 154.793417,36.4784689 L154.793417,39.3875598 C154.793417,39.6937799 154.461975,39.84689 154.130533,39.84689 Z M160.593644,38.4688995 L161.422247,37.0909091 L162.250851,38.4688995 L160.593644,38.4688995 Z M164.570942,39.6937799 C164.239501,39.6937799 164.07378,39.5406699 163.742338,38.9282297 L161.91941,35.8660287 L161.753689,35.8660287 L159.93076,39.0813397 C159.76504,39.5406699 159.599319,39.6937799 159.102157,39.84689 L159.102157,40 L160.759364,40 L160.759364,39.84689 C160.427923,39.84689 160.096481,39.84689 160.096481,39.5406699 C160.096481,39.3875598 160.262202,39.2344498 160.427923,38.7751196 L162.250851,38.7751196 C162.416572,38.9282297 162.582293,39.3875598 162.582293,39.5406699 C162.582293,39.6937799 162.416572,39.6937799 161.91941,39.6937799 L161.91941,39.84689 L164.570942,39.84689 L164.570942,39.6937799 Z M165.068104,39.6937799 C165.565267,39.6937799 165.730988,39.5406699 165.730988,39.2344498 L165.730988,36.3253589 C165.233825,35.8660287 165.233825,35.8660287 165.068104,35.8660287 L165.068104,35.7129187 L166.725312,35.7129187 L169.542565,38.3157895 L169.542565,36.4784689 C169.542565,36.1722488 169.376844,35.8660287 168.879682,35.8660287 L168.879682,35.7129187 L170.53689,35.7129187 L170.53689,35.8660287 C170.039728,35.8660287 169.874007,36.0191388 169.874007,36.3253589 L169.874007,39.84689 L169.708286,39.84689 L166.22815,36.6315789 L166.22815,39.0813397 C166.22815,39.5406699 166.393871,39.6937799 167.056754,39.6937799 L167.056754,39.84689 L165.233825,39.84689 L165.233825,39.6937799 L165.068104,39.6937799 Z M176.834279,39.84689 L174.182747,39.84689 L174.182747,39.6937799 C174.679909,39.6937799 174.84563,39.6937799 174.84563,39.5406699 C174.84563,39.3875598 174.84563,39.3875598 174.679909,39.2344498 L173.188422,37.8564593 L173.022701,38.0095694 L173.022701,39.2344498 C173.022701,39.5406699 173.354143,39.5406699 173.685585,39.6937799 L173.685585,39.84689 L171.034052,39.84689 L171.034052,39.6937799 C171.531215,39.6937799 171.696935,39.6937799 171.696935,39.2344498 L171.696935,36.3253589 C171.696935,35.8660287 171.365494,35.8660287 171.034052,35.8660287 L171.034052,35.7129187 L173.685585,35.7129187 L173.685585,35.8660287 C173.188422,35.8660287 173.022701,35.8660287 173.022701,36.4784689 L173.022701,37.7033493 L174.679909,36.4784689 C174.84563,36.3253589 175.011351,36.3253589 175.011351,36.1722488 C175.011351,36.0191388 174.84563,36.0191388 174.348468,36.0191388 L174.348468,35.8660287 L176.668558,35.8660287 L176.668558,36.0191388 C175.839955,36.0191388 175.508513,36.3253589 174.182747,37.3971292 L176.668558,39.6937799 C176.834279,39.84689 176.834279,39.84689 177,39.84689 L176.834279,39.84689 Z M79.3904654,10.1435407 C79.3904654,11.5215311 79.2247446,13.3588517 79.5561862,14.5837321 L80.2190692,14.5837321 L80.2190692,14.7368421 L80.38479,14.7368421 L80.38479,14.5837321 L81.0476731,14.5837321 C81.2133939,14.277512 81.3791146,13.9712919 81.3791146,13.3588517 L81.2133939,13.3588517 L81.2133939,12.8995215 L81.0476731,12.8995215 L81.0476731,12.4401914 L80.8819523,12.4401914 L80.8819523,11.9808612 L80.7162316,11.9808612 C80.7162316,11.8277512 80.8819523,11.5215311 80.8819523,11.3684211 C82.0419977,11.5215311 83.0363224,11.6746411 84.1963678,11.8277512 L85.6878547,11.8277512 C86.0192963,11.9808612 86.6821793,12.2870813 87.3450624,12.1339713 L87.3450624,11.9808612 L88.0079455,11.9808612 L88.0079455,11.8277512 L88.6708286,11.8277512 L88.6708286,11.6746411 L89.1679909,11.6746411 L89.1679909,11.5215311 L92.4824064,11.5215311 C92.6481271,11.9808612 92.8138479,11.8277512 92.8138479,12.4401914 C92.4824064,12.7464115 92.6481271,13.0526316 92.4824064,13.5119617 L92.3166856,13.5119617 L92.3166856,13.9712919 L92.1509648,13.9712919 L92.1509648,14.430622 L91.985244,14.430622 L91.985244,14.8899522 L91.8195233,14.8899522 L91.8195233,15.3492823 L91.6538025,15.3492823 L91.6538025,15.8086124 L91.4880817,15.8086124 C91.4880817,16.1148325 91.322361,16.2679426 91.322361,16.5741627 L91.1566402,16.5741627 C91.1566402,17.0334928 90.9909194,17.3397129 90.9909194,17.7990431 L90.8251986,17.7990431 L90.8251986,18.2583732 L90.6594779,18.2583732 L90.6594779,18.5645933 L90.4937571,18.5645933 C90.4937571,18.7177033 90.3280363,18.8708134 90.3280363,19.1770335 L90.1623156,19.1770335 L90.1623156,19.6363636 C89.9965948,19.6363636 89.9965948,19.7894737 89.830874,19.7894737 C89.4994325,20.0956938 89.1679909,20.4019139 89.0022701,20.861244 C88.6708286,20.861244 88.5051078,21.0143541 88.1736663,21.0143541 C88.1736663,21.4736842 88.1736663,21.6267943 88.3393871,21.9330144 C88.8365494,21.9330144 89.1679909,22.0861244 89.6651532,22.0861244 L89.6651532,21.9330144 C90.1623156,21.9330144 90.6594779,21.7799043 91.322361,21.7799043 C91.322361,22.2392344 91.1566402,22.5454545 91.1566402,23.0047847 L90.9909194,23.0047847 L90.9909194,24.6889952 L90.8251986,24.6889952 C90.6594779,25.1483254 90.9909194,25.9138756 90.9909194,26.2200957 L90.9909194,28.2105263 L91.1566402,28.2105263 L91.1566402,28.9760766 L91.322361,28.9760766 C91.322361,29.5885167 91.1566402,30.2009569 91.1566402,30.6602871 C90.6594779,30.8133971 90.3280363,30.8133971 89.6651532,30.6602871 L89.6651532,30.507177 C88.8365494,30.507177 88.0079455,30.6602871 87.1793417,30.6602871 L87.1793417,30.8133971 C86.8479001,30.8133971 86.185017,30.6602871 86.0192963,30.507177 L82.0419977,30.507177 L82.0419977,30.6602871 L81.5448354,30.6602871 L81.5448354,30.8133971 C81.2133939,30.8133971 81.3791146,30.8133971 81.2133939,30.6602871 C80.38479,30.0478469 81.0476731,29.1291866 80.7162316,28.0574163 C80.38479,26.6794258 80.7162316,24.6889952 80.7162316,23.3110048 C80.2190692,23.0047847 80.2190692,22.5454545 79.5561862,22.3923445 L79.5561862,22.2392344 L79.0590238,22.2392344 C79.0590238,22.3923445 78.8933031,22.5454545 78.8933031,22.8516746 L78.7275823,22.8516746 L78.7275823,26.0669856 L78.8933031,26.0669856 L78.8933031,26.5263158 L79.0590238,26.5263158 L79.0590238,28.3636364 L78.8933031,28.3636364 C78.8933031,28.8229665 79.0590238,29.1291866 79.0590238,29.5885167 L78.8933031,29.5885167 C78.8933031,29.8947368 78.7275823,30.2009569 78.7275823,30.354067 C77.8989784,30.6602871 76.2417707,30.507177 75.0817253,30.507177 L75.0817253,30.354067 L74.7502838,30.354067 L74.7502838,30.2009569 C74.4188422,30.0478469 74.2531215,29.7416268 73.9216799,29.5885167 L73.9216799,29.2822967 L74.0874007,29.2822967 L74.0874007,28.9760766 C74.4188422,28.8229665 74.584563,28.5167464 74.9160045,28.3636364 L74.9160045,28.2105263 L75.2474461,28.2105263 L75.2474461,28.0574163 L75.9103292,28.0574163 L75.9103292,27.9043062 L76.0760499,27.9043062 L76.0760499,25.4545455 L75.5788876,24.076555 L74.9160045,24.076555 C74.7502838,24.3827751 74.4188422,24.6889952 74.0874007,24.8421053 C73.9216799,24.8421053 73.5902384,24.9952153 73.4245176,24.9952153 C73.4245176,25.1483254 73.2587968,25.1483254 73.2587968,25.3014354 L72.9273553,25.3014354 L72.9273553,25.4545455 C72.7616345,25.6076555 72.5959137,25.6076555 72.2644722,25.7607656 C71.9330306,24.2296651 70.938706,23.4641148 70.7729852,21.6267943 C71.6015891,21.6267943 72.0987514,21.4736842 72.7616345,21.1674641 L74.2531215,21.1674641 L74.2531215,21.0143541 L74.584563,21.0143541 C74.9160045,20.861244 75.0817253,20.5550239 75.5788876,20.5550239 C75.7446084,20.2488038 75.7446084,20.2488038 75.9103292,20.0956938 L76.0760499,20.0956938 L76.0760499,18.7177033 C75.5788876,18.4114833 75.7446084,18.1052632 74.9160045,18.1052632 C74.584563,18.5645933 73.7559591,18.4114833 73.2587968,18.2583732 L73.093076,18.1052632 L73.093076,17.3397129 L72.9273553,17.3397129 L72.9273553,16.8803828 L72.7616345,16.8803828 L72.7616345,16.5741627 L72.5959137,16.5741627 L72.5959137,16.2679426 C72.430193,15.8086124 72.2644722,15.5023923 72.0987514,14.7368421 C73.4245176,14.7368421 74.584563,14.5837321 75.7446084,14.5837321 C75.9103292,14.430622 76.0760499,13.9712919 76.2417707,13.9712919 C75.9103292,12.4401914 75.5788876,11.062201 75.5788876,9.68421053 C75.7446084,9.53110048 75.9103292,9.53110048 76.2417707,9.53110048 C77.2360953,9.83732057 78.5618615,10.1435407 79.3904654,10.1435407 Z M112.368899,11.215311 L112.037457,11.215311 C111.871737,11.5215311 111.871737,11.6746411 111.540295,11.8277512 L111.374574,11.8277512 L111.374574,12.1339713 L111.208854,12.1339713 L111.208854,12.7464115 C111.540295,12.8995215 112.203178,12.8995215 112.866061,12.8995215 C113.197503,13.2057416 113.694665,12.8995215 114.191827,12.8995215 C115.186152,12.8995215 116.346198,12.7464115 117.340522,12.7464115 L117.340522,12.5933014 L117.671964,12.5933014 L117.671964,12.4401914 L118.169126,12.4401914 L118.169126,12.2870813 C118.666288,12.2870813 119.163451,12.4401914 119.826334,12.4401914 C119.826334,12.5933014 119.992054,12.7464115 119.992054,12.8995215 C120.323496,13.2057416 120.157775,14.5837321 119.992054,15.0430622 C119.826334,15.0430622 119.826334,15.1961722 119.660613,15.1961722 L119.660613,15.8086124 L119.494892,16.1148325 C119.329171,16.2679426 119.163451,16.2679426 118.832009,16.2679426 C118.500568,15.9617225 117.837684,15.9617225 117.340522,16.1148325 C117.174801,16.1148325 117.340522,16.2679426 117.174801,16.2679426 C116.346198,16.2679426 115.517594,16.1148325 114.523269,16.1148325 C114.357548,16.5741627 114.026107,16.8803828 114.026107,17.645933 C114.357548,17.7990431 114.523269,17.7990431 115.020431,17.7990431 C115.517594,17.3397129 116.84336,17.7990431 117.174801,17.9521531 C117.340522,18.2583732 117.340522,18.7177033 117.340522,19.3301435 L117.506243,19.3301435 L117.506243,19.9425837 L117.671964,19.9425837 C118.003405,20.861244 117.009081,21.6267943 117.340522,22.5454545 C117.506243,23.1578947 117.340522,24.3827751 117.506243,25.1483254 L117.671964,25.1483254 C117.671964,25.3014354 117.506243,25.1483254 117.506243,25.3014354 C117.506243,25.6076555 117.671964,25.6076555 117.671964,25.6076555 L117.671964,27.5980861 L117.837684,27.5980861 L117.837684,28.6698565 C117.671964,29.2822967 117.506243,29.8947368 117.340522,30.6602871 C116.511918,30.6602871 115.186152,30.6602871 114.523269,30.507177 L113.694665,30.507177 L113.694665,30.6602871 C113.197503,30.6602871 112.866061,30.507177 112.368899,30.507177 L112.368899,30.354067 L112.037457,30.354067 L112.037457,30.2009569 C111.706016,30.2009569 111.540295,30.0478469 111.208854,30.0478469 L111.208854,29.8947368 C111.043133,29.7416268 111.208854,29.8947368 111.043133,29.5885167 C111.374574,29.4354067 111.540295,29.1291866 111.540295,28.6698565 C110.38025,28.2105263 109.220204,28.2105263 107.562997,28.2105263 L107.231555,27.5980861 C107.397276,27.291866 107.231555,26.8325359 107.231555,26.2200957 C107.231555,25.4545455 107.231555,24.3827751 107.065834,23.6172249 C106.734393,23.6172249 106.568672,23.4641148 106.07151,23.4641148 C106.07151,24.8421053 106.23723,26.3732057 106.23723,27.7511962 C106.23723,28.5167464 106.402951,29.2822967 105.740068,29.5885167 L105.740068,29.7416268 L105.242906,29.7416268 L105.242906,29.8947368 C105.242906,30.2009569 105.077185,30.2009569 104.745743,30.2009569 C104.580023,29.8947368 103.91714,29.8947368 103.419977,29.7416268 C103.419977,28.0574163 103.254257,26.3732057 103.254257,24.8421053 C103.254257,24.076555 103.419977,23.3110048 103.419977,22.5454545 L103.254257,22.5454545 L103.254257,21.3205742 C103.254257,20.4019139 102.922815,18.4114833 103.419977,17.7990431 C103.751419,17.492823 104.745743,17.645933 105.242906,17.645933 C105.574347,17.9521531 106.402951,17.7990431 106.900114,17.645933 C106.900114,17.1866029 106.568672,16.4210526 106.402951,16.2679426 L105.905789,16.2679426 L105.905789,16.4210526 L105.077185,16.4210526 L105.077185,16.5741627 L103.419977,16.5741627 L103.419977,16.7272727 C102.922815,16.7272727 102.259932,16.8803828 101.76277,16.8803828 C101.597049,16.5741627 101.597049,16.5741627 101.431328,16.4210526 L101.265607,16.4210526 L101.265607,15.6555024 L101.099886,15.6555024 C101.099886,15.5023923 100.934166,15.1961722 100.934166,15.0430622 C100.768445,14.8899522 100.602724,14.8899522 100.437003,14.8899522 L100.437003,14.430622 L100.271283,14.430622 C100.271283,13.8181818 100.437003,13.3588517 100.437003,12.7464115 C100.602724,12.7464115 100.602724,12.5933014 101.099886,12.5933014 C101.431328,13.2057416 101.76277,12.7464115 102.591373,13.0526316 L102.591373,13.2057416 L105.077185,13.2057416 C106.23723,13.5119617 107.562997,13.2057416 109.054484,13.2057416 C109.220204,12.8995215 109.220204,13.0526316 109.385925,12.7464115 C108.888763,12.4401914 108.557321,11.9808612 108.060159,11.6746411 L108.060159,10.9090909 L107.894438,10.9090909 C107.894438,10.6028708 107.728717,10.2966507 107.728717,9.99043062 C107.894438,9.99043062 108.060159,9.83732057 108.22588,9.83732057 L108.22588,9.68421053 C108.3916,9.68421053 108.3916,9.83732057 108.557321,9.83732057 C109.054484,9.68421053 109.385925,9.99043062 110.048808,9.83732057 L110.048808,9.68421053 L110.54597,9.68421053 L110.54597,9.53110048 C110.711691,9.53110048 110.54597,9.68421053 110.711691,9.68421053 L110.877412,9.68421053 L110.877412,9.53110048 L111.043133,9.53110048 L111.043133,9.68421053 L111.871737,9.68421053 L111.871737,9.83732057 L112.203178,9.83732057 L112.203178,9.99043062 C112.53462,10.1435407 112.700341,10.1435407 113.031782,10.2966507 C112.700341,10.6028708 112.53462,10.7559809 112.368899,11.215311 Z M133.912599,9.68421053 C134.07832,9.68421053 134.409762,9.83732057 134.575482,9.83732057 C134.741203,9.99043062 134.741203,10.1435407 134.906924,10.2966507 L135.072645,10.2966507 C135.072645,10.4497608 135.238365,10.6028708 135.238365,10.7559809 C135.404086,10.9090909 135.569807,11.062201 135.901249,11.215311 C135.901249,11.3684211 136.066969,11.5215311 136.066969,11.6746411 C136.23269,11.8277512 136.398411,11.8277512 136.729852,11.9808612 L136.729852,12.2870813 L136.895573,12.2870813 C137.227015,13.2057416 136.23269,13.9712919 137.724177,13.9712919 C137.889898,14.1244019 137.724177,13.9712919 138.055619,14.1244019 C138.055619,13.9712919 138.552781,13.6650718 138.552781,13.6650718 L138.552781,11.6746411 L139.215664,11.6746411 L139.215664,11.9808612 C139.712826,11.9808612 139.878547,12.1339713 140.209989,12.4401914 C140.209989,12.5933014 140.375709,12.5933014 140.375709,12.7464115 L141.204313,12.7464115 L141.204313,12.8995215 C141.370034,12.8995215 141.535755,12.7464115 141.867196,12.7464115 C141.867196,12.7464115 141.867196,12.8995215 142.198638,12.8995215 C142.198638,12.8995215 142.198638,12.7464115 142.530079,12.7464115 C142.530079,12.7464115 142.530079,12.8995215 142.861521,12.8995215 L142.861521,12.7464115 L143.027242,12.7464115 L143.027242,12.8995215 L144.684449,12.8995215 L144.684449,12.7464115 L145.015891,12.7464115 L145.015891,12.5933014 L145.513053,12.5933014 C145.844495,12.4401914 145.844495,12.2870813 146.507378,12.1339713 L146.507378,12.4401914 L146.83882,12.4401914 L146.83882,12.8995215 L147.170261,12.8995215 C147.170261,13.6650718 147.335982,14.277512 147.335982,15.0430622 L147.170261,15.0430622 L147.170261,15.3492823 L147.00454,15.3492823 L147.00454,15.9617225 L146.83882,15.9617225 L146.83882,16.7272727 L146.673099,16.7272727 L146.673099,17.492823 L146.507378,17.492823 L146.507378,20.861244 L146.341657,20.861244 C146.341657,21.3205742 146.175936,21.6267943 146.175936,22.0861244 C146.507378,22.0861244 146.673099,21.9330144 147.00454,21.9330144 C147.170261,21.4736842 147.170261,21.1674641 147.833144,21.1674641 C147.998865,21.4736842 147.998865,21.3205742 148.330306,21.4736842 L148.330306,23.6172249 C148.330306,23.6172249 148.496027,23.6172249 148.496027,23.923445 L148.330306,23.923445 L148.330306,24.076555 L147.998865,24.076555 C147.833144,24.2296651 147.833144,24.3827751 147.667423,24.5358852 C147.335982,24.6889952 145.181612,24.5358852 145.015891,24.5358852 C145.015891,24.6889952 144.85017,24.8421053 144.85017,25.1483254 C145.181612,25.3014354 145.513053,25.6076555 145.844495,25.6076555 C146.341657,25.7607656 146.83882,25.7607656 147.335982,25.9138756 L147.335982,26.0669856 L147.667423,26.0669856 L147.667423,26.2200957 C148.164586,26.3732057 148.827469,26.3732057 149.324631,26.5263158 C149.15891,26.9856459 148.99319,27.291866 148.827469,27.7511962 L148.827469,28.2105263 L148.330306,28.6698565 L148.330306,28.9760766 C147.833144,29.4354067 147.335982,29.8947368 146.673099,30.354067 C145.844495,30.2009569 145.513053,29.5885167 144.85017,29.4354067 L144.85017,29.1291866 C144.518729,28.9760766 144.518729,28.6698565 144.353008,28.5167464 C144.187287,28.5167464 144.187287,28.3636364 144.021566,28.3636364 C143.690125,27.9043062 144.021566,27.5980861 143.192963,27.5980861 C142.861521,28.2105263 142.6958,28.0574163 142.198638,28.5167464 L142.198638,28.6698565 C142.032917,28.6698565 142.032917,28.8229665 141.867196,28.8229665 L141.867196,29.1291866 C141.701476,29.2822967 141.370034,29.4354067 141.204313,29.7416268 C141.204313,29.8947368 141.038593,29.8947368 141.038593,30.0478469 L140.54143,30.0478469 L140.54143,30.2009569 L140.209989,30.2009569 L140.209989,30.354067 L139.712826,30.354067 L139.712826,30.507177 L139.215664,30.507177 L139.215664,30.6602871 L138.884222,30.6602871 L138.884222,30.8133971 L138.221339,30.8133971 L138.221339,30.9665072 L137.889898,30.9665072 L137.889898,31.1196172 L137.061294,31.1196172 C136.895573,30.507177 136.729852,29.8947368 136.564132,29.4354067 C136.398411,29.2822967 136.066969,29.1291866 135.901249,28.9760766 C135.404086,29.1291866 135.238365,29.2822967 134.906924,29.5885167 L134.906924,29.7416268 C134.741203,29.7416268 134.409762,29.8947368 134.244041,29.8947368 L134.244041,30.0478469 L133.912599,30.0478469 C133.912599,30.2009569 133.746879,30.2009569 133.746879,30.354067 L133.415437,30.354067 L133.415437,30.507177 L133.083995,30.507177 C133.083995,30.6602871 132.918275,30.6602871 132.918275,30.8133971 L132.586833,30.8133971 L132.586833,30.9665072 C132.255392,30.8133971 132.421112,30.9665072 132.255392,30.8133971 C132.089671,30.6602871 131.92395,30.507177 131.592509,30.354067 L131.592509,30.0478469 C131.261067,29.7416268 131.095346,29.7416268 130.929625,29.2822967 C130.598184,29.1291866 130.598184,29.2822967 130.432463,28.8229665 L130.266742,28.8229665 L130.266742,28.3636364 L130.101022,28.3636364 L130.101022,28.0574163 L129.935301,28.0574163 C129.935301,27.7511962 129.76958,27.4449761 129.76958,27.291866 C130.763905,27.5980861 132.586833,27.138756 132.918275,26.6794258 L133.083995,26.6794258 C133.083995,26.5263158 133.249716,26.2200957 133.249716,26.0669856 L133.083995,26.0669856 C132.918275,25.6076555 132.918275,25.6076555 132.421112,25.6076555 C132.089671,26.0669856 131.758229,26.5263158 130.929625,26.5263158 C130.763905,25.6076555 130.763905,24.8421053 130.598184,23.923445 L132.918275,23.923445 C133.083995,23.6172249 133.083995,23.3110048 133.083995,22.8516746 C132.586833,22.8516746 131.92395,23.0047847 131.426788,23.0047847 C131.261067,22.6985646 131.095346,22.3923445 130.763905,22.2392344 L130.598184,22.3923445 C130.101022,22.6985646 130.101022,23.3110048 129.935301,23.7703349 L129.76958,23.7703349 L129.76958,24.076555 C129.603859,24.2296651 129.438138,24.2296651 129.272418,24.3827751 L129.272418,24.8421053 C128.940976,24.8421053 128.775255,24.8421053 128.609535,24.6889952 L128.609535,24.5358852 C128.443814,24.5358852 128.278093,24.3827751 128.112372,24.3827751 C128.112372,24.2296651 127.946652,24.076555 127.946652,23.923445 L127.283768,23.923445 L126.952327,23.7703349 L126.952327,22.3923445 C127.61521,22.2392344 128.775255,21.9330144 129.272418,21.6267943 C129.272418,21.4736842 129.438138,21.3205742 129.438138,21.1674641 C129.603859,21.1674641 129.603859,21.0143541 129.76958,21.0143541 C129.76958,20.861244 129.935301,20.708134 129.935301,20.5550239 L130.266742,20.2488038 L130.266742,19.9425837 C130.432463,19.9425837 130.432463,19.7894737 130.598184,19.7894737 C130.763905,19.4832536 130.763905,19.3301435 130.929625,19.0239234 L131.095346,19.0239234 L131.095346,18.7177033 L131.261067,18.7177033 L131.261067,18.4114833 L131.426788,18.4114833 L131.426788,18.1052632 L131.592509,18.1052632 L131.592509,17.7990431 L131.758229,17.7990431 L131.758229,17.492823 L131.92395,17.492823 L131.92395,17.1866029 L132.089671,17.1866029 L132.089671,16.8803828 L132.255392,16.8803828 C132.586833,15.6555024 132.752554,14.430622 133.083995,13.2057416 C133.581158,11.8277512 133.912599,11.062201 133.912599,9.68421053 Z M164.736663,16.5741627 C164.239501,16.5741627 164.07378,16.5741627 163.742338,16.7272727 C163.576617,17.0334928 163.576617,17.3397129 163.576617,17.7990431 C164.239501,18.1052632 164.736663,18.2583732 164.902384,18.8708134 L165.233825,18.8708134 C165.399546,19.3301435 165.399546,19.1770335 165.896708,19.3301435 L165.896708,19.1770335 L166.062429,19.1770335 L166.062429,18.2583732 L166.22815,18.2583732 L166.22815,18.1052632 L166.891033,18.1052632 C167.222474,18.4114833 168.548241,18.1052632 169.211124,18.1052632 C171.199773,17.9521531 173.022701,17.9521531 175.011351,17.7990431 C175.342792,17.7990431 175.508513,17.645933 175.839955,17.645933 L175.839955,17.492823 L176.171396,17.492823 C176.337117,17.492823 176.171396,17.1866029 176.668558,17.1866029 L176.668558,17.3397129 L177,17.3397129 L177,17.9521531 L176.834279,17.9521531 C176.834279,18.1052632 177,18.2583732 177,18.4114833 L177,20.0956938 L176.834279,20.0956938 C176.834279,20.4019139 177,20.5550239 177,20.861244 L176.005675,20.861244 L176.005675,21.0143541 C175.508513,21.1674641 174.84563,21.0143541 174.514188,20.861244 C174.017026,20.861244 173.354143,21.0143541 172.856981,21.0143541 C172.69126,21.3205742 172.525539,21.4736842 172.525539,22.0861244 C173.022701,22.5454545 172.359818,23.3110048 172.525539,23.923445 C172.69126,24.5358852 172.525539,25.7607656 172.69126,26.5263158 C173.022701,27.5980861 172.856981,29.2822967 172.856981,30.507177 C171.034052,30.8133971 169.376844,30.507177 167.719637,30.354067 C167.388195,29.8947368 167.056754,29.8947368 166.891033,29.4354067 L166.725312,29.4354067 L166.725312,28.8229665 C166.891033,28.6698565 166.725312,28.8229665 166.891033,28.5167464 C167.388195,28.6698565 167.719637,28.6698565 168.216799,28.8229665 C168.548241,28.5167464 168.713961,28.2105263 169.045403,27.9043062 L169.211124,27.9043062 L169.211124,26.5263158 C169.376844,26.3732057 169.708286,25.3014354 169.542565,24.8421053 C169.376844,24.076555 169.542565,22.3923445 169.376844,21.3205742 C169.045403,21.1674641 168.548241,21.1674641 168.051078,21.1674641 C167.719637,21.4736842 166.062429,21.1674641 165.565267,21.1674641 C165.565267,20.861244 165.730988,20.708134 165.730988,20.4019139 C165.565267,20.2488038 165.233825,20.2488038 164.902384,20.2488038 L164.902384,20.5550239 L164.570942,20.5550239 C164.405221,20.861244 164.239501,20.861244 164.07378,21.1674641 L163.908059,21.1674641 C163.576617,21.7799043 164.239501,22.6985646 164.239501,23.1578947 L164.07378,23.1578947 C164.07378,23.4641148 164.239501,23.7703349 164.239501,23.923445 L164.07378,23.923445 C164.07378,24.9952153 163.908059,25.9138756 163.908059,26.9856459 L163.908059,29.1291866 L163.742338,29.1291866 C163.576617,29.4354067 163.576617,29.7416268 163.410897,29.8947368 C163.079455,30.0478469 162.913734,30.0478469 162.748014,30.354067 L162.748014,30.507177 L161.422247,30.507177 C161.090806,30.2009569 161.090806,30.354067 160.759364,30.2009569 L160.759364,30.0478469 L160.427923,30.0478469 C160.427923,29.8947368 160.262202,29.8947368 160.262202,29.7416268 C159.93076,29.7416268 159.599319,29.5885167 159.267877,29.5885167 L159.267877,29.4354067 C159.102157,29.2822967 159.267877,29.4354067 159.102157,29.1291866 L159.433598,29.1291866 C159.76504,28.5167464 160.262202,28.6698565 160.262202,27.5980861 L160.427923,27.5980861 L160.427923,27.138756 L160.593644,27.138756 L160.593644,25.9138756 C160.593644,24.8421053 160.759364,23.7703349 160.593644,23.1578947 C160.262202,23.0047847 160.427923,23.0047847 160.096481,22.8516746 C159.93076,23.1578947 159.93076,23.0047847 159.599319,23.1578947 C159.599319,23.3110048 159.433598,23.3110048 159.433598,23.4641148 L159.267877,23.4641148 L159.267877,23.7703349 C159.102157,23.7703349 159.102157,23.923445 158.936436,23.923445 C158.604994,24.2296651 158.604994,24.3827751 157.942111,24.5358852 C157.61067,24.2296651 157.61067,24.3827751 157.113507,24.2296651 L157.113507,24.076555 L156.782066,24.076555 L156.782066,23.923445 C156.616345,23.923445 156.450624,23.7703349 156.284904,23.7703349 C156.119183,23.3110048 155.953462,23.3110048 155.787741,22.6985646 C155.953462,22.6985646 156.119183,22.3923445 156.119183,22.3923445 C156.616345,22.2392344 156.947787,22.0861244 157.444949,21.9330144 L157.444949,21.7799043 L157.942111,21.7799043 C158.107832,21.6267943 158.107832,21.4736842 158.273553,21.3205742 C159.267877,20.708134 160.759364,19.9425837 160.925085,18.4114833 C160.593644,18.1052632 160.759364,17.9521531 160.096481,17.9521531 C159.76504,18.5645933 159.102157,19.0239234 158.273553,19.0239234 C158.107832,18.8708134 157.942111,18.8708134 157.77639,18.7177033 C157.444949,18.1052632 157.279228,17.492823 157.113507,16.5741627 C157.444949,16.4210526 157.77639,16.1148325 157.942111,16.1148325 L158.439274,16.1148325 C158.604994,15.9617225 158.604994,15.8086124 158.770715,15.6555024 L159.433598,15.6555024 L159.433598,15.5023923 L159.76504,15.5023923 C160.427923,15.0430622 160.925085,14.5837321 161.422247,13.9712919 L161.422247,13.6650718 C161.587968,13.5119617 161.753689,13.5119617 161.91941,13.3588517 L161.91941,13.0526316 L162.085131,13.0526316 C162.085131,12.8995215 162.250851,12.7464115 162.250851,12.4401914 L162.416572,12.4401914 C162.416572,12.1339713 162.582293,11.9808612 162.582293,11.6746411 C162.748014,11.6746411 162.748014,11.5215311 162.913734,11.5215311 L162.913734,11.215311 C163.079455,11.215311 163.079455,11.062201 163.245176,11.062201 L163.245176,10.7559809 C163.410897,10.7559809 163.410897,10.6028708 163.576617,10.6028708 C163.908059,10.2966507 163.410897,10.2966507 164.07378,10.1435407 L164.07378,9.99043062 C164.239501,9.99043062 164.570942,9.83732057 164.736663,9.83732057 C164.902384,10.1435407 165.233825,10.1435407 165.399546,10.6028708 L165.565267,10.6028708 L165.565267,11.062201 L165.730988,11.062201 L165.233825,12.4401914 L165.233825,12.5933014 L165.399546,12.5933014 C165.399546,13.3588517 165.565267,14.1244019 165.565267,15.0430622 L165.399546,15.0430622 C164.902384,15.9617225 164.902384,16.2679426 164.736663,16.5741627 Z M175.011351,16.4210526 C173.851305,16.4210526 172.856981,16.2679426 171.696935,16.2679426 L171.696935,16.4210526 L168.879682,16.4210526 L168.879682,16.5741627 C168.713961,16.5741627 168.548241,16.4210526 168.38252,16.4210526 L168.38252,16.5741627 C167.553916,16.7272727 166.725312,16.5741627 166.062429,16.7272727 L166.062429,15.8086124 C165.730988,15.5023923 166.062429,14.5837321 165.896708,14.1244019 C165.730988,13.8181818 165.565267,13.5119617 165.565267,13.0526316 C166.559591,13.0526316 167.388195,13.2057416 168.38252,13.2057416 C168.713961,13.2057416 169.376844,12.8995215 169.874007,13.0526316 L169.874007,13.2057416 L170.702611,13.2057416 L170.702611,13.3588517 C170.868331,13.3588517 171.199773,13.2057416 171.365494,13.2057416 C171.365494,13.2057416 171.365494,13.3588517 171.696935,13.3588517 L171.696935,13.2057416 C172.028377,13.2057416 172.525539,13.0526316 172.856981,13.0526316 C173.519864,12.7464115 174.017026,12.2870813 175.011351,12.1339713 C175.342792,12.5933014 175.508513,12.1339713 175.508513,13.0526316 C175.342792,13.2057416 175.177072,14.277512 175.177072,14.5837321 L175.342792,14.5837321 L175.342792,15.6555024 C175.177072,15.6555024 175.177072,15.8086124 175.011351,15.8086124 C175.177072,15.9617225 175.177072,16.2679426 175.011351,16.4210526 Z M136.23269,16.4210526 C136.398411,15.9617225 136.564132,15.9617225 136.729852,15.1961722 C136.564132,15.1961722 136.398411,15.0430622 136.23269,15.0430622 C136.066969,14.8899522 136.066969,14.7368421 135.901249,14.5837321 L135.404086,14.5837321 C135.072645,15.0430622 134.906924,15.0430622 134.741203,15.9617225 C134.906924,15.9617225 135.072645,16.1148325 135.238365,16.1148325 L135.238365,16.2679426 C135.735528,16.2679426 135.901249,16.2679426 136.23269,16.4210526 Z M81.5448354,15.0430622 C81.2133939,15.8086124 80.8819523,17.3397129 80.2190692,17.7990431 L80.2190692,17.9521531 C79.5561862,18.2583732 79.5561862,17.492823 79.2247446,18.4114833 L79.0590238,18.4114833 L79.0590238,18.5645933 L79.2247446,18.5645933 C79.3904654,18.7177033 79.5561862,18.8708134 79.7219069,19.1770335 L80.0533485,19.1770335 L80.38479,19.4832536 L80.38479,19.7894737 L80.5505108,19.7894737 C80.5505108,19.9425837 80.7162316,19.9425837 80.7162316,20.0956938 L81.2133939,20.0956938 C81.2133939,19.9425837 81.5448354,19.7894737 81.5448354,19.7894737 L81.5448354,19.3301435 L81.7105562,19.3301435 C81.7105562,19.0239234 81.876277,18.8708134 81.876277,18.5645933 C82.0419977,18.5645933 82.0419977,18.4114833 82.2077185,18.4114833 L82.2077185,18.1052632 C82.3734393,18.1052632 82.3734393,17.9521531 82.53916,17.9521531 L82.53916,17.645933 C82.7048808,17.645933 82.7048808,17.492823 82.8706016,17.492823 L82.8706016,17.1866029 C83.0363224,16.7272727 83.3677639,16.5741627 83.5334847,15.9617225 C83.3677639,15.8086124 83.2020431,15.5023923 83.0363224,15.3492823 C82.2077185,15.1961722 81.876277,15.0430622 81.5448354,15.0430622 Z M87.8422247,15.1961722 C87.676504,15.3492823 86.8479001,15.3492823 86.3507378,15.3492823 C86.3507378,15.5023923 86.185017,15.6555024 86.185017,15.8086124 C85.8535755,16.1148325 86.0192963,17.0334928 85.8535755,17.3397129 L85.6878547,17.3397129 L85.6878547,17.645933 C85.5221339,17.645933 85.5221339,17.7990431 85.3564132,17.7990431 C85.0249716,18.1052632 85.0249716,18.4114833 84.8592509,19.0239234 C85.0249716,19.1770335 85.3564132,19.7894737 85.8535755,19.4832536 L85.8535755,19.3301435 L86.185017,19.3301435 C86.3507378,19.1770335 86.3507378,19.0239234 86.5164586,18.8708134 L86.6821793,18.8708134 L86.6821793,18.5645933 C86.8479001,18.4114833 87.0136209,18.4114833 87.1793417,18.2583732 C87.3450624,17.9521531 87.3450624,17.645933 87.5107832,17.3397129 C87.8422247,16.7272727 88.5051078,16.2679426 88.5051078,15.3492823 C88.1736663,15.1961722 88.1736663,15.1961722 87.8422247,15.1961722 Z M143.192963,15.3492823 C143.192963,15.5023923 143.192963,15.5023923 143.192963,15.3492823 C143.027242,15.5023923 142.6958,15.5023923 142.530079,15.5023923 C142.198638,15.5023923 141.370034,15.6555024 141.204313,15.9617225 C141.038593,16.1148325 141.038593,16.2679426 140.872872,16.5741627 C141.204313,16.7272727 141.701476,16.7272727 142.364359,16.7272727 L142.364359,16.8803828 L143.027242,16.8803828 C143.358683,16.4210526 143.855846,16.4210526 143.855846,15.6555024 C143.690125,15.5023923 143.690125,15.5023923 143.192963,15.3492823 Z M110.214529,15.9617225 C110.048808,16.1148325 109.883087,16.1148325 109.717367,16.1148325 C109.385925,16.5741627 109.220204,16.4210526 109.054484,17.1866029 C109.551646,17.645933 109.551646,18.1052632 110.711691,18.1052632 C110.877412,17.9521531 111.208854,17.7990431 111.208854,17.645933 L111.208854,17.0334928 L111.374574,17.0334928 C111.374574,16.7272727 111.540295,16.4210526 111.540295,16.1148325 C111.043133,16.1148325 110.711691,15.9617225 110.214529,15.9617225 Z M137.227015,18.2583732 C136.564132,18.1052632 136.398411,18.1052632 135.735528,18.2583732 C135.569807,18.4114833 135.569807,18.5645933 135.569807,18.8708134 C135.735528,18.8708134 135.901249,19.1770335 135.901249,19.1770335 C136.564132,19.4832536 137.061294,19.0239234 137.558456,19.6363636 C138.221339,20.2488038 137.724177,21.3205742 137.558456,21.9330144 L137.558456,23.4641148 L137.724177,23.4641148 C137.724177,23.923445 137.558456,24.3827751 137.558456,24.9952153 L137.558456,26.3732057 L137.392736,26.3732057 L137.392736,26.6794258 C137.227015,26.8325359 137.061294,26.8325359 136.895573,26.9856459 C136.729852,27.291866 137.061294,27.7511962 137.061294,27.9043062 C137.392736,28.0574163 137.558456,28.0574163 137.889898,28.0574163 C137.889898,27.9043062 138.221339,27.7511962 138.221339,27.7511962 C138.38706,27.291866 138.38706,26.8325359 138.552781,26.3732057 L138.718502,26.3732057 L138.718502,26.0669856 L138.884222,26.0669856 C138.884222,25.6076555 138.718502,25.1483254 138.718502,24.6889952 L138.884222,24.6889952 C139.049943,23.923445 138.884222,22.6985646 138.718502,22.0861244 L138.718502,19.6363636 L138.552781,19.6363636 C138.552781,18.7177033 138.38706,17.645933 138.38706,16.7272727 C138.055619,16.7272727 138.055619,16.7272727 137.889898,16.8803828 C137.558456,17.1866029 137.392736,17.492823 137.227015,18.2583732 Z M133.415437,18.1052632 C133.249716,18.4114833 133.083995,18.5645933 132.918275,18.8708134 L133.581158,18.8708134 C133.746879,18.7177033 133.746879,18.5645933 133.746879,18.2583732 C133.581158,18.1052632 133.581158,18.1052632 133.415437,18.1052632 Z M143.690125,19.9425837 C143.690125,19.6363636 143.855846,19.4832536 143.855846,19.1770335 C143.358683,18.8708134 143.358683,18.7177033 142.6958,18.7177033 C142.364359,19.0239234 142.032917,19.0239234 141.370034,19.0239234 C141.204313,19.3301435 141.038593,19.3301435 140.872872,19.7894737 C141.038593,19.9425837 141.204313,20.0956938 141.370034,20.4019139 C141.701476,20.4019139 141.701476,20.2488038 141.701476,20.2488038 L143.027242,20.2488038 L143.027242,20.0956938 C143.192963,20.0956938 143.358683,19.9425837 143.690125,19.9425837 Z M86.5164586,21.6267943 L86.5164586,21.0143541 L86.185017,20.708134 C86.0192963,20.708134 85.8535755,20.5550239 85.6878547,20.5550239 C85.1906924,20.2488038 84.8592509,19.7894737 84.6935301,19.3301435 L84.3620885,19.3301435 C83.8649262,20.0956938 83.3677639,20.4019139 83.2020431,21.4736842 L83.3677639,21.6267943 C84.3620885,21.9330144 85.3564132,21.9330144 86.5164586,21.6267943 Z M112.700341,21.6267943 C113.197503,21.7799043 113.197503,21.9330144 113.860386,22.0861244 C114.191827,21.6267943 114.523269,21.4736842 114.523269,20.5550239 C114.357548,20.4019139 114.026107,20.4019139 113.694665,20.4019139 L113.694665,20.2488038 C113.528944,20.0956938 112.866061,20.4019139 112.700341,20.4019139 C112.53462,20.708134 112.53462,20.861244 112.53462,21.3205742 C112.700341,21.6267943 112.53462,21.4736842 112.700341,21.6267943 Z M106.23723,20.708134 C106.07151,21.3205742 105.905789,21.7799043 105.905789,22.3923445 C106.07151,22.5454545 106.402951,22.5454545 106.734393,22.5454545 L106.734393,22.3923445 L107.065834,22.3923445 L107.065834,22.2392344 L107.397276,22.2392344 L107.397276,22.0861244 C107.894438,21.7799043 107.894438,21.7799043 107.894438,20.861244 C107.562997,20.5550239 107.728717,20.4019139 107.065834,20.2488038 L107.065834,20.4019139 C106.568672,20.708134 106.402951,20.708134 106.23723,20.708134 Z M109.717367,23.3110048 L111.374574,23.3110048 C111.540295,23.1578947 111.540295,23.1578947 111.540295,22.6985646 C111.043133,22.2392344 111.374574,21.1674641 111.043133,20.5550239 C110.214529,20.4019139 109.551646,20.2488038 109.551646,21.3205742 C109.551646,21.4736842 109.883087,22.2392344 109.883087,22.5454545 L109.717367,22.5454545 C109.717367,22.8516746 109.883087,23.0047847 109.717367,23.3110048 Z M136.729852,22.6985646 L136.729852,22.3923445 C136.895573,22.3923445 136.895573,22.2392344 137.061294,22.2392344 L137.061294,21.7799043 C136.729852,21.6267943 136.564132,21.6267943 136.066969,21.6267943 C135.901249,21.9330144 135.735528,22.0861244 135.569807,22.5454545 C135.735528,22.5454545 135.901249,22.6985646 136.066969,22.6985646 L136.066969,22.8516746 C136.23269,22.8516746 136.398411,22.8516746 136.729852,22.6985646 Z M145.347333,22.2392344 C145.181612,22.2392344 144.85017,22.0861244 144.684449,22.0861244 L144.684449,21.9330144 C144.353008,21.7799043 142.198638,22.2392344 142.032917,22.3923445 L141.867196,22.3923445 L141.867196,22.8516746 L142.032917,22.8516746 C142.032917,23.0047847 142.198638,23.1578947 142.198638,23.4641148 C142.364359,23.4641148 142.364359,23.6172249 142.530079,23.6172249 C142.530079,23.7703349 142.6958,23.923445 142.6958,24.076555 L143.192963,24.076555 C143.690125,23.1578947 145.181612,23.0047847 145.347333,22.2392344 Z M113.197503,28.3636364 L113.528944,28.3636364 L113.528944,28.5167464 L113.694665,28.5167464 L113.694665,28.3636364 L114.191827,28.3636364 L114.191827,28.2105263 C114.523269,27.9043062 114.357548,27.291866 114.357548,26.6794258 C114.357548,25.7607656 114.854711,23.6172249 114.357548,23.1578947 L114.357548,23.0047847 L113.860386,23.0047847 C113.694665,23.1578947 113.528944,23.4641148 113.363224,23.6172249 C113.197503,25.3014354 113.197503,26.8325359 113.197503,28.3636364 Z M140.707151,26.2200957 L141.038593,26.2200957 L141.038593,26.3732057 C141.204313,26.3732057 141.535755,26.2200957 141.701476,26.0669856 C141.867196,25.6076555 142.198638,25.4545455 142.364359,24.8421053 C141.867196,24.5358852 141.701476,23.923445 141.370034,23.3110048 C140.54143,23.4641148 140.707151,24.076555 140.707151,24.8421053 C140.375709,25.3014354 140.707151,25.9138756 140.707151,26.2200957 Z M135.735528,24.5358852 C135.569807,24.8421053 135.404086,24.6889952 135.404086,25.3014354 C135.901249,25.6076555 135.901249,25.7607656 136.729852,25.7607656 C136.895573,25.7607656 136.729852,25.9138756 137.061294,25.9138756 L137.061294,25.7607656 C137.558456,25.6076555 137.392736,25.6076555 137.558456,25.3014354 C137.392736,25.1483254 137.227015,25.1483254 137.061294,24.9952153 C137.061294,24.8421053 136.895573,24.6889952 136.895573,24.5358852 L135.735528,24.5358852 Z M84.1963678,27.4449761 L85.5221339,27.4449761 L85.5221339,27.291866 C85.8535755,27.291866 85.6878547,27.4449761 85.8535755,27.4449761 L86.0192963,27.4449761 L86.0192963,27.291866 C86.6821793,27.291866 87.3450624,27.4449761 87.8422247,27.4449761 C88.0079455,27.138756 88.0079455,26.8325359 88.0079455,26.3732057 C88.0079455,26.2200957 88.1736663,25.6076555 88.1736663,24.9952153 C88.0079455,24.9952153 87.8422247,24.8421053 87.676504,24.8421053 C87.3450624,24.5358852 85.0249716,24.6889952 84.3620885,24.6889952 C84.030647,25.1483254 84.030647,24.9952153 84.030647,25.7607656 C83.6992054,26.0669856 84.030647,26.9856459 84.1963678,27.4449761 Z M109.385925,26.8325359 C109.385925,26.2200957 109.385925,25.4545455 109.551646,25.1483254 C110.38025,25.1483254 110.877412,24.9952153 111.540295,25.1483254 L111.540295,26.2200957 L111.706016,26.2200957 C111.540295,26.6794258 111.208854,26.8325359 110.877412,27.291866 L109.385925,26.8325359 Z M58.0124858,21.1674641 L57.6810443,20.4019139 L65.138479,20.4019139 C65.138479,20.708134 65.3041998,20.861244 65.3041998,21.1674641 L58.0124858,21.1674641 Z M59.9897843,30.6602871 L59.492622,29.4354067 L62.4755959,29.4354067 C60.1555051,35.5598086 53.692395,40 46.2349603,40 C36.7888763,40 29,32.9569378 29,24.076555 C29,15.1961722 36.7888763,8.15311005 46.5664018,8 C54.3552781,8 60.984109,12.8995215 63.138479,19.4832536 L55.5153235,19.4832536 L51.3723042,9.83732057 L46.2349603,20.861244 L41.4290579,9.83732057 L32.3144154,30.507177 L35.9602724,35.4066986 L56.3439274,35.4066986 L59.9897843,30.6602871 Z M46.7434733,30.354067 L41.7718502,19.4832536 L36.9659478,30.507177 L56.1895573,30.6602871 L51.3836549,19.4832536 L46.7434733,30.354067 Z M58.5096481,22.6985646 L65.4699205,22.6985646 C65.4699205,22.3923445 65.4699205,22.2392344 65.3041998,21.9330144 L58.1782066,21.9330144 L58.5096481,22.6985646 Z M59.8354143,25.7607656 L65.4699205,25.7607656 L65.4699205,24.9952153 L59.5039728,24.9952153 L59.8354143,25.7607656 Z M65.4699205,23.4641148 L58.8410897,23.4641148 L59.1725312,24.2296651 L65.4699205,24.2296651 L65.4699205,24.076555 L65.4699205,23.4641148 Z M61.1611805,28.6698565 L64.8070375,28.6698565 C64.8070375,28.3636364 64.9727582,28.2105263 64.9727582,27.9043062 L60.8297389,27.9043062 L61.1611805,28.6698565 Z M60.4982974,27.138756 L65.138479,27.138756 C65.138479,26.8325359 65.3041998,26.6794258 65.3041998,26.3732057 L60.1668558,26.3732057 L60.4982974,27.138756 Z" id="path" fill="#FFFFFF" fill-rule="nonzero"></path>
    </g>
</svg>