<?xml version="1.0" encoding="UTF-8"?>
<svg width="206px" height="48px" viewBox="0 0 206 48" version="1.1" xmlns="http://www.w3.org/2000/svg" xmlns:xlink="http://www.w3.org/1999/xlink">
    <!-- Generator: Sketch 50.2 (55047) - http://www.bohemiancoding.com/sketch -->
    <title>CMBC-full</title>
    <desc>Created with Sketch.</desc>
    <defs></defs>
    <g id="CMBC-full" stroke="none" stroke-width="1" fill="none" fill-rule="evenodd">
        <rect id="@bound" x="0" y="0" width="206" height="48"></rect>
        <path d="M65.2910083,11.2712725 C65.632943,11.7050386 65.9748778,12.095428 66.3168125,12.5291941 C69.0522906,12.7894537 71.8305104,13.0930899 74.5659884,13.3533496 C74.6514721,14.1775051 73.582926,15.4354267 72.9417983,16.9102313 C72.5143799,17.8645166 72.8563147,19.1658148 72.5998636,19.7297107 C70.035353,19.6429575 68.2401955,19.035685 66.4877799,19.4260744 C65.5047175,21.0743855 66.3168125,25.0650332 65.4619757,27.0603571 C65.2055246,26.9736039 64.6926225,27.1904869 64.3934296,27.0169805 C64.1797204,26.8868507 64.1797204,26.409708 64.008753,26.3663314 C64.1797204,25.4120461 64.265204,23.5034754 64.265204,21.8117878 C64.265204,21.0743855 64.4361714,20.4237364 64.2224622,19.9032171 C64.0942367,19.6863341 63.9660111,19.469451 63.7950438,19.2959446 C61.4015005,19.8598405 58.9652154,20.4237364 56.5716722,20.9876322 L56.3579629,20.7707492 C56.614414,18.6452955 57.6402183,18.6019189 57.8111856,16.172829 C57.3410253,15.4788033 56.8281232,14.7847776 56.3579629,14.0907519 C56.4434466,13.8738689 56.4861885,13.6569858 56.5716722,13.4834794 C57.8111856,13.526856 59.2644083,13.2232198 60.6321473,13.0930899 C62.1281119,12.9195835 63.5813345,12.9195835 64.1797204,12.4424409 C64.7353643,12.0086748 64.9490735,11.7050386 65.2910083,11.2712725 Z M90.6796635,11.9219216 C92.731272,12.1388046 94.9111061,11.9652982 96.9627146,12.1821812 C97.6893259,12.2689344 98.8433557,12.2255578 98.9288394,12.7894537 L98.9288394,13.0063367 C98.4586791,14.3943881 98.4159373,14.4377647 97.945777,15.8258161 C97.4328748,18.9489318 98.2877117,23.4167222 97.4756167,26.2362016 L97.2619075,26.2362016 C94.9538479,25.3252928 92.1756281,25.1084098 89.3546664,25.0216566 C86.2772536,24.9349034 83.1143572,25.0650332 80.5071047,25.5855525 C80.421621,25.3686695 80.3788792,25.1517864 80.2933955,24.97828 C80.4643629,24.2408777 80.3361373,23.4167222 80.421621,22.5058135 C80.5925884,21.0310089 80.8917813,19.4260744 80.8490394,17.9078932 C80.7635558,15.5221799 80.421621,13.309973 80.8917813,12.2255578 C84.2256451,12.0520514 87.4740252,12.0086748 90.6796635,11.9219216 Z M111.965102,12.1388046 C114.315903,12.5291941 118.376378,12.7460771 121.240082,12.3556876 C121.154598,12.6159473 121.111856,12.9195835 121.026373,13.1798432 C119.10299,13.9172455 119.530408,15.3920501 118.333636,16.7367249 C116.79493,16.5198418 115.213482,16.3463354 114.187678,17.1704909 L114.187678,17.3873739 C114.444129,17.604257 114.743322,17.82114 114.999773,18.038023 C116.239286,18.6886721 120.04331,17.4307505 121.368307,18.6019189 C121.496533,18.7320487 121.453791,19.035685 121.539275,19.2091914 C121.411049,19.5995809 121.240082,19.5562042 120.470729,19.6429575 C119.188473,19.7297107 116.837672,19.5562042 116.239286,20.1634767 C117.26509,22.115424 118.376378,23.3733456 119.957827,24.0673713 C120.684438,24.3710075 121.88121,24.1975011 122.778788,24.3710075 C123.377174,24.5011373 123.676367,24.9349034 124.317495,25.195163 C124.103785,25.4554227 123.890076,25.7590589 123.719109,26.0193185 C123.035239,26.1494484 122.35137,26.7133442 121.710242,26.8000975 C121.154598,26.8868507 120.598954,26.5398378 120.000568,26.626591 C119.145731,26.0193185 118.333636,25.3686695 117.777992,24.5445139 C117.094123,23.546852 116.666705,22.2889304 115.683642,21.5949047 C115.085256,22.0286708 114.957031,22.6793199 114.144936,22.9829561 C112.606229,23.546852 110.255428,23.6336052 108.716722,24.2842543 C107.477208,24.761397 106.707855,25.6289291 105.767534,26.192825 C105.553825,26.0626952 105.340116,25.9325653 105.126407,25.7590589 L105.126407,25.5421759 C105.21189,25.1517864 105.040923,24.761397 105.169149,24.4577607 C105.511083,23.6769818 106.237695,23.2432158 106.494146,22.3756836 C107.135273,19.8598405 107.178015,16.9102313 106.36592,12.9629601 L106.579629,12.7460771 C108.417529,12.8762069 110.340912,12.8762069 111.965102,12.1388046 Z M156.160168,12.3556876 C156.544845,12.7027005 156.715812,13.1798432 156.972263,13.6136092 L160.477094,13.6136092 L160.477094,14.4377647 C160.006934,14.5245179 160.391611,14.958284 159.878709,15.0450372 C158.810163,15.2185436 157.015005,14.8715308 155.903717,15.175167 C155.305331,15.3486735 155.177106,15.9559459 154.877913,16.3463354 C154.963397,16.5632184 155.006138,16.7801015 155.091622,16.9969845 C156.20291,16.7801015 158.895646,16.0860758 160.049676,16.7367249 C160.263385,16.8668547 160.13516,17.2138675 160.263385,17.4307505 C160.049676,17.4741272 159.92145,17.9078932 159.664999,17.9512698 C159.109355,18.1247762 158.211777,17.8645166 157.698875,18.038023 C157.442424,18.1247762 157.485165,18.5151657 157.35694,18.6886721 C157.570649,18.9489318 157.784358,19.252568 157.955326,19.5128276 L160.006934,19.5128276 C159.793225,19.7730873 159.579516,20.0767235 159.408548,20.3369832 C158.083551,20.5104896 157.613391,20.7707492 157.143231,21.8117878 C157.057747,22.2455538 157.015005,22.6359433 156.929521,23.0697093 C157.143231,23.1998392 157.35694,23.329969 157.527907,23.5034754 C157.955326,23.2865924 158.382744,22.6359433 158.810163,22.4190602 C159.066614,22.2889304 159.323065,22.5491901 159.622258,22.4190602 C159.408548,22.6359433 159.707741,22.8094497 159.494032,23.0263327 C158.468228,24.0673713 156.972263,25.2819162 155.860975,26.2795782 C155.604524,26.5398378 155.134364,26.5398378 154.877913,26.8000975 C154.963397,26.409708 154.749687,26.2362016 154.835171,25.9325653 C155.04888,25.3686695 155.519041,24.8915268 155.73275,24.3710075 C156.160168,23.3733456 156.288394,22.332307 155.860975,20.9876322 C155.177106,21.0743855 154.493236,21.1177621 153.809367,21.2045153 L153.809367,20.5538662 C153.894851,20.4237364 153.937592,20.2936065 154.023076,20.1201001 C155.305331,19.9465937 155.860975,19.6429575 156.502103,18.8621785 C156.373877,18.7320487 156.160168,18.4717891 155.860975,18.3416593 C155.390815,18.2115295 154.706946,18.2982827 154.493236,18.038023 C154.151302,17.6476336 154.749687,16.9102313 154.322269,16.606595 C154.10856,16.4764652 153.552916,16.606595 153.381948,16.4764652 C153.168239,16.3463354 153.467432,16.2162056 153.253723,16.1294524 C153.510174,15.3052969 153.552916,15.3486735 154.065818,14.8715308 C154.236785,14.6546478 154.194043,14.3510115 154.365011,14.1341285 C154.877913,13.4834794 155.604524,12.9629601 156.160168,12.3556876 Z M138.379561,12.5291941 C138.507787,12.7460771 138.80698,12.4858175 138.935205,12.6593239 C139.191656,13.309973 139.148914,14.3943881 139.832784,14.8281542 C141.200523,15.4788033 144.277936,14.9149074 145.859384,15.5221799 C146.158577,15.6523097 146.030351,16.0860758 146.24406,16.3029588 L146.24406,16.5198418 C145.30374,16.5632184 144.106968,16.6933482 142.952939,16.6933482 C141.756167,16.6499716 140.260202,16.4764652 139.490849,16.8668547 C139.063431,17.0837377 139.106173,17.6476336 139.020689,18.2115295 C139.148914,18.4284125 139.27714,18.6452955 139.448107,18.8188019 C141.585199,19.035685 143.893259,19.035685 145.859384,19.6429575 C145.7739,19.9032171 145.731158,20.2068533 145.645675,20.467113 C143.551324,20.4237364 140.858588,19.8164639 139.020689,20.683996 L139.020689,21.9419176 C139.148914,22.2889304 139.27714,22.6359433 139.448107,22.9829561 C142.354553,23.5034754 144.748096,24.3710075 147.483574,23.8071116 C147.312607,24.8915268 147.056156,25.4554227 146.24406,25.8891887 C145.175514,26.4964612 143.722292,25.6289291 141.798909,25.0650332 C140.43117,24.6746438 138.678754,24.5878905 137.353757,24.6312672 C134.661021,24.97828 131.968285,25.3252928 129.31829,25.6723057 C129.232807,25.4554227 129.190065,25.2385396 129.104581,25.0650332 L129.104581,24.6312672 L129.916676,23.8071116 C131.070706,23.9372415 132.395703,23.5902286 133.677958,23.4167222 C135.34489,23.1998392 136.840855,23.0697093 137.567466,22.5491901 C137.439241,21.8551644 137.311015,21.1611387 137.140048,20.467113 C134.87473,20.5104896 132.737638,21.2045153 131.15619,20.467113 C131.241673,20.2502299 131.284415,20.0333469 131.369899,19.8598405 L131.797317,19.4260744 C132.994089,19.5562042 136.242469,19.3826978 137.353757,18.6019189 C137.781175,18.1681529 137.695692,18.2115295 137.781175,17.3439973 C137.65295,17.1271143 137.524724,16.9102313 137.353757,16.7367249 C134.831988,16.8234781 132.438445,17.7777634 130.771513,18.6019189 C130.258611,18.8621785 129.873934,18.5585423 129.275548,18.4284125 L129.275548,17.82114 C130.600546,16.7367249 131.369899,15.4788033 132.181994,13.8304922 C132.395703,13.9606221 132.609412,14.0907519 132.823122,14.2642583 C132.951347,14.741401 133.079573,15.2619202 133.25054,15.7390629 C135.173923,15.7390629 136.584404,15.3920501 137.994885,14.4811413 C138.080368,14.0907519 137.866659,13.5702326 137.952143,13.1798432 C137.994885,12.8762069 138.336819,12.7894537 138.379561,12.5291941 Z M180.907696,12.7460771 C182.360918,12.6593239 183.685916,12.7460771 184.412527,13.3533496 C184.284301,13.5702326 184.156076,13.7871156 183.985109,13.9606221 C182.531886,14.5678946 181.078663,15.2185436 179.668182,15.8258161 C179.454473,15.7390629 179.15528,15.8691927 178.898829,15.7824395 C178.642378,15.6523097 178.471411,15.3052969 178.21496,15.175167 L178.21496,13.4834794 C178.300443,13.3533496 178.343185,13.2232198 178.428669,13.0497133 C179.283506,13.0497133 180.095601,12.8762069 180.907696,12.7460771 Z M189.58429,12.7460771 C190.781062,12.7894537 192.405252,12.5725707 193.815733,12.7894537 C194.585086,12.9195835 195.226213,13.309973 195.781857,13.6136092 C195.696374,13.8304922 195.653632,14.0473753 195.568148,14.2208817 L195.14073,14.6546478 C193.559282,14.5678946 191.550415,14.3943881 189.840741,14.5678946 C188.387518,14.6980244 187.105263,15.175167 186.250426,15.0884138 C186.164943,14.8715308 186.122201,14.6546478 186.036717,14.4811413 C186.250426,14.1341285 186.464136,13.7871156 186.635103,13.4401028 C187.062521,13.3533496 187.318972,13.0930899 187.746391,13.0063367 C188.344777,12.8328303 189.028646,12.8762069 189.58429,12.7460771 Z M86.7901557,12.9629601 C85.3796749,13.4401028 83.3708082,13.0497133 82.4732295,14.0039987 C81.9175855,14.6112712 82.0458111,16.4330886 82.0030692,18.2982827 C81.9603274,20.7273726 81.8748437,23.2865924 82.2595203,24.0239947 C83.4135501,23.8938648 83.7554848,23.5034754 84.8240309,23.2865924 C86.0208025,23.0697093 87.6022508,23.0697093 89.0554735,23.1130859 C89.8675685,23.1130859 90.5941798,23.0697093 91.3207912,23.1564625 C92.8167557,23.4167222 94.3554621,23.7203584 95.8514266,23.9806181 L96.0651358,23.763735 C96.2788451,23.6336052 96.4925543,23.5034754 96.6635217,23.329969 L96.6635217,18.7320487 C96.7490053,17.0403611 97.2619075,14.7847776 96.2361032,13.2665964 C93.1159486,13.2665964 89.9530522,13.0930899 86.7901557,12.9629601 Z M164.794021,12.9629601 C166.717404,12.8762069 169.41014,12.8762069 170.179493,13.5702326 C169.965784,14.3076349 169.452882,15.3920501 169.239172,16.5632184 C169.025463,17.5175038 169.196431,18.5585423 168.982721,19.3826978 C168.811754,20.1201001 168.298852,20.683996 167.914175,21.0743855 C169.025463,23.4167222 171.333523,24.4143841 172.231102,26.5398378 C171.547232,26.6699676 170.863363,26.8000975 170.179493,26.9736039 C169.752075,26.7133442 169.110947,26.3663314 168.769012,25.8024355 C168.427077,25.2819162 168.384336,24.5445139 168.085143,24.3276309 C167.743208,24.0673713 167.657724,24.9349034 167.187564,24.8047736 C165.990792,25.1517864 164.751279,25.1517864 163.639991,25.4120461 C162.101285,25.7590589 160.690804,26.2795782 159.066614,26.8000975 C158.98113,26.6699676 158.938388,26.5398378 158.852904,26.3663314 C159.750483,25.195163 162.058543,24.761397 161.75935,23.0263327 C162.058543,21.7684112 162.272252,19.6429575 162.186768,17.6910102 C162.144026,16.172829 161.75935,14.7847776 162.015801,13.8304922 C162.101285,13.4834794 162.443219,13.3967262 162.571445,13.1798432 C163.38354,13.4834794 164.195635,13.3967262 164.794021,12.9629601 Z M113.803001,13.3533496 C112.905422,13.7003624 111.708651,13.5702326 110.811072,13.7003624 C109.785268,13.8738689 109.015915,14.1775051 108.203819,14.6546478 L108.203819,14.8715308 C108.374787,15.8258161 108.374787,15.6089331 108.802205,16.1294524 C111.366716,15.3052969 115.085256,15.9993226 118.077185,15.3052969 L118.077185,14.2642583 C117.94896,14.0473753 117.820734,13.8304922 117.649767,13.6569858 C116.452995,13.4401028 115.127998,13.4834794 113.803001,13.3533496 Z M66.744231,14.0039987 C66.5305218,14.4377647 66.3168125,14.8281542 66.1458452,15.2619202 L66.1458452,16.9536079 C66.4450381,17.3439973 66.1458452,17.0837377 66.5732636,17.3873739 C68.3256792,18.7754253 73.3692168,17.6910102 71.5313175,14.4377647 C69.9071274,14.3076349 68.3256792,14.1341285 66.744231,14.0039987 Z M63.0256906,14.2208817 L59.9482778,15.2619202 C59.5208594,16.0426992 58.9224736,16.7367249 59.349892,17.7777634 C59.4781175,17.9946464 59.6063431,18.2115295 59.7773104,18.3850359 C61.529726,18.3416593 63.3676253,17.82114 64.5216551,17.1271143 C64.6498806,16.4330886 64.7781062,15.7390629 64.9490735,15.0450372 C64.820848,14.8281542 64.6926225,14.6112712 64.5216551,14.4377647 C64.008753,14.3510115 63.4958509,14.3076349 63.0256906,14.2208817 Z M166.033534,14.4377647 C165.520632,14.6546478 164.836763,14.6546478 164.32386,14.8281542 C163.939184,14.958284 163.725475,15.3486735 163.38354,15.4788033 C163.469024,15.8258161 163.511765,16.172829 163.597249,16.5198418 C165.520632,16.5632184 167.273048,16.6933482 168.555303,15.9125693 L168.555303,15.6956863 L168.555303,15.0884138 L167.956917,14.4811413 C167.273048,14.4377647 166.674662,14.4377647 166.033534,14.4377647 Z M87.1748323,14.6546478 C89.6966011,14.5678946 93.6288507,14.2208817 95.210299,15.2619202 C95.3385245,15.3486735 95.46675,15.3920501 95.6377174,15.4788033 L95.0393316,16.0860758 C94.2699784,15.8691927 93.2014323,15.8691927 92.2611117,15.8691927 C91.363533,15.8691927 90.5941798,15.8258161 89.6538593,16.0860758 L89.6538593,17.1271143 L90.0812777,17.1271143 C91.7482096,17.3439973 93.3723997,17.5608804 95.0393316,17.7343868 L95.0393316,18.3850359 C93.84256,18.6886721 93.2441742,18.6886721 92.5603046,19.4260744 L92.9877231,19.8598405 C93.5433671,20.467113 94.8256224,20.6406194 95.46675,21.1177621 C95.3385245,21.3346451 95.210299,21.5515281 95.0393316,21.7250345 C91.3207912,21.1611387 87.003865,21.6816579 83.6700011,21.9419176 C83.4990338,21.2045153 83.4562919,21.2478919 83.8837104,20.683996 C85.336933,21.0310089 87.1748323,20.1634767 88.4143458,19.6429575 C88.2861203,19.2959446 88.1578947,18.9489318 87.9869274,18.6019189 C86.2345118,18.7320487 84.2256451,19.5562042 83.6700011,18.1681529 L84.0974196,18.1681529 C85.2514494,17.604257 87.3457997,17.604257 88.2433784,16.6933482 C88.1578947,16.4330886 88.1151529,16.1294524 88.0296692,15.8691927 C86.5764465,15.9559459 85.1232238,15.9993226 83.712743,16.0860758 C83.6272593,15.9559459 83.5845174,15.8258161 83.4990338,15.6523097 C83.5845174,15.5221799 83.6272593,15.3920501 83.712743,15.2185436 C85.080482,15.3052969 86.3199955,15.175167 87.1748323,14.6546478 Z M111.153007,16.7367249 C110.469137,16.8668547 109.785268,16.9969845 109.101398,17.1704909 C108.759463,17.7343868 109.015915,17.4741272 108.503012,17.7777634 C108.588496,18.038023 108.631238,18.3416593 108.716722,18.6019189 C109.015915,19.035685 108.930431,18.9489318 109.315107,19.252568 C110.511879,18.9489318 112.691713,18.6452955 113.461066,17.7777634 C113.247357,17.4307505 113.033648,17.0837377 112.86268,16.7367249 L111.153007,16.7367249 Z M183.386723,16.7367249 C183.814141,17.0403611 183.728657,16.9536079 183.985109,17.3439973 C183.55769,18.0813996 183.08753,18.6886721 182.788337,19.5562042 C182.446402,20.5538662 182.446402,21.8551644 182.061726,22.8528263 C181.634307,23.9806181 180.77947,24.8481502 179.83915,25.4987993 C178.813345,25.195163 178.514153,25.0650332 178.172218,24.0239947 C180.693987,23.9372415 182.702853,21.2478919 181.46334,18.7754253 C180.352052,19.035685 179.240764,19.3393212 178.172218,19.5995809 L178.172218,18.1247762 C178.257701,17.9946464 178.300443,17.8645166 178.385927,17.6910102 C180.095601,17.4307505 181.762533,17.0837377 183.386723,16.7367249 Z M188.558486,16.7367249 C190.994771,16.8668547 196.380243,16.606595 196.422985,17.5608804 C196.465727,18.6019189 195.653632,18.8188019 195.055246,18.9489318 C194.157667,19.1224382 192.789928,18.7754253 191.67864,19.252568 C191.379448,21.5081515 192.661703,26.4964612 191.080255,27.2338635 C191.507673,27.3206167 190.909287,27.1471103 190.652836,26.9302273 C190.05445,23.9372415 191.165738,20.683996 189.926225,18.6452955 C189.840741,18.6452955 189.498806,18.3850359 189.413323,18.3850359 C188.002842,18.6452955 187.062521,19.2959446 185.694782,19.035685 C185.481073,18.2115295 185.481073,18.5585423 185.481073,17.7777634 C186.122201,16.9102313 187.532682,17.0837377 188.558486,16.7367249 Z M166.460953,17.3439973 C165.264181,17.82114 164.110151,17.6476336 163.38354,18.6019189 C163.298056,18.9489318 163.255314,19.2959446 163.169831,19.6429575 L163.597249,19.6429575 C164.665795,20.0333469 167.144822,19.5128276 167.914175,19.035685 L167.914175,18.8188019 C167.657724,17.9946464 167.743208,17.9512698 167.10208,17.5608804 C166.888371,17.5175038 166.674662,17.4307505 166.460953,17.3439973 Z M90.0812777,18.4284125 C89.3546664,19.9465937 90.4659543,20.7273726 91.919177,19.9032171 L91.919177,19.6863341 C91.7909515,19.3393212 91.6627259,18.9923084 91.4917586,18.6452955 C91.0643401,18.5585423 90.551438,18.4717891 90.0812777,18.4284125 Z M113.632034,19.252568 C111.965102,19.5995809 110.340912,19.9465937 108.67398,20.2936065 C108.460271,20.7273726 108.246561,21.1177621 108.075594,21.5515281 C108.161078,21.898541 108.203819,22.2455538 108.289303,22.5925667 C110.511879,22.1588006 112.691713,21.7684112 114.914289,21.3346451 C115.341707,20.9442556 115.127998,21.2478919 115.341707,20.5104896 C115.127998,20.2502299 114.914289,19.9465937 114.743322,19.6863341 C114.315903,19.5128276 113.973968,19.3826978 113.632034,19.252568 Z M164.195635,20.5104896 C163.725475,20.9442556 163.212572,21.3346451 162.742412,21.7684112 C162.656928,23.329969 162.785154,23.546852 163.554507,24.1975011 C163.682733,24.0673713 163.810958,24.1975011 163.981926,24.0673713 C164.922246,23.546852 165.178697,22.7660731 165.648858,21.7684112 C165.520632,21.3346451 165.392407,20.9442556 165.221439,20.5104896 L164.195635,20.5104896 Z M166.460953,21.9852942 C166.204502,22.332307 165.905309,22.6793199 165.648858,23.0263327 C165.734341,23.3733456 165.777083,23.7203584 165.862567,24.0673713 C166.418211,23.9806181 166.973855,23.9372415 167.529499,23.8504882 C167.614982,23.7203584 167.657724,23.5902286 167.743208,23.4167222 C167.614982,22.9829561 167.486757,22.5925667 167.315789,22.1588006 C167.016597,22.115424 166.760146,22.0286708 166.460953,21.9852942 Z M59.4781175,34.998276 L59.6063431,34.9548994 L59.349892,36.2995742 C58.9652154,36.5164572 58.6232807,36.6899636 58.2386041,36.8200934 C57.8966693,36.9502233 57.5547346,36.9935999 57.2127998,36.9935999 C56.8708651,36.9935999 56.5716722,36.9502233 56.3579629,36.8200934 C56.1442537,36.6899636 55.9732863,36.5164572 55.8450608,36.2561976 C55.7168353,35.9959379 55.6740934,35.6923017 55.6740934,35.3452888 C55.6740934,34.998276 55.7595771,34.6512631 55.8878027,34.3042503 C56.0160282,33.9572374 56.1869956,33.6536012 56.4434466,33.3065884 C56.6571558,33.0029521 56.9136069,32.6993159 57.2127998,32.4390562 C57.5547346,32.13542 57.9394112,31.918537 58.3240878,31.7450305 C58.7087644,31.5715241 59.0934409,31.4847709 59.4781175,31.4847709 C59.7773104,31.4847709 60.0337615,31.5281475 60.2902126,31.6582773 C60.5466636,31.7450305 60.7603729,31.918537 60.9313402,32.13542 L59.9482778,33.6969778 L59.8627941,33.6536012 C60.0337615,33.0029521 60.0765034,32.5258095 60.0337615,32.2221732 C59.9910197,31.9619136 59.7773104,31.7884071 59.4781175,31.7884071 C59.0934409,31.7884071 58.7087644,32.0052902 58.2813459,32.4824328 C57.8539275,32.9595755 57.5119927,33.566848 57.2127998,34.3042503 C56.9563488,34.998276 56.8708651,35.5187953 56.9136069,35.9525613 C56.9990906,36.3863274 57.2127998,36.5598338 57.5547346,36.5598338 C57.8539275,36.5598338 58.1531204,36.429704 58.4523133,36.1694444 C58.8369899,35.9525613 59.1361828,35.5621719 59.4781175,34.998276 Z M59.7773104,36.8634701 L59.8200523,36.7333402 C60.0337615,36.646587 60.2047289,36.4730806 60.3756963,36.2561976 C60.5466636,36.0393145 60.717631,35.6055485 60.9740821,34.9115228 L61.1023076,34.6078865 L61.9571445,32.3956796 C62.0426282,32.1787966 62.08537,32.0052902 62.08537,31.918537 C62.08537,31.8317838 62.0426282,31.7884071 61.9571445,31.7450305 L61.9998863,31.6582773 C62.2563374,31.6582773 62.4273048,31.6582773 62.5555303,31.7016539 L63.2393998,31.7016539 C63.3676253,31.7016539 63.5385927,31.7016539 63.7950438,31.6582773 L63.7523019,31.7450305 C63.6240764,31.7884071 63.5385927,31.8317838 63.4958509,31.918537 C63.4103672,32.0052902 63.3676253,32.13542 63.2821416,32.3956796 L62.6837558,33.9572374 L64.2224622,33.9572374 L64.820848,32.3956796 C64.9063317,32.1787966 64.9490735,32.0052902 64.9490735,31.9619136 C64.9490735,31.8751604 64.9063317,31.8317838 64.820848,31.7884071 L64.8635899,31.7016539 C65.1200409,31.7016539 65.2910083,31.7016539 65.4192338,31.7450305 L66.1031033,31.7450305 C66.2313289,31.7450305 66.4022962,31.7450305 66.6587473,31.7016539 L66.6160055,31.7884071 C66.4877799,31.8317838 66.4022962,31.8751604 66.3595544,31.9619136 C66.2740707,32.0486668 66.2313289,32.1787966 66.1458452,32.4390562 L65.2055246,34.8681462 C64.9490735,35.5621719 64.7781062,36.0393145 64.7353643,36.2995742 C64.6926225,36.5164572 64.7781062,36.6899636 64.8635899,36.8200934 L64.820848,36.9502233 C64.6498806,36.9502233 64.4789133,36.9502233 64.3079459,36.9068467 L63.196658,36.9068467 C63.0256906,36.9068467 62.8547232,36.9068467 62.6837558,36.9502233 L62.7264977,36.8200934 C62.9402069,36.6899636 63.1111743,36.5598338 63.2821416,36.2995742 C63.453109,36.0826911 63.6668182,35.6055485 63.9232693,34.8681462 L64.008753,34.6512631 L64.1369785,34.3042503 L62.641014,34.3042503 L62.3845629,34.9548994 C62.1281119,35.6055485 61.9998863,36.0826911 61.9571445,36.2995742 C61.9144026,36.5164572 61.9998863,36.6899636 62.1281119,36.7767168 L62.08537,36.9068467 C61.9144026,36.9068467 61.7434353,36.9068467 61.5724679,36.8634701 L59.7773104,36.8634701 Z M65.4192338,36.8634701 L65.4619757,36.7333402 C65.6756849,36.646587 65.8466523,36.4730806 66.0176196,36.2561976 C66.188587,36.0393145 66.3595544,35.6055485 66.6160055,34.9115228 L66.744231,34.6078865 L67.5990679,32.3956796 C67.6845516,32.1787966 67.7272934,32.0052902 67.7272934,31.918537 C67.7272934,31.8317838 67.6845516,31.7884071 67.5990679,31.7450305 L67.6418097,31.6582773 C67.8982608,31.6582773 68.0692281,31.6582773 68.1974537,31.7016539 L68.8813232,31.7016539 C69.0095487,31.7016539 69.1805161,31.7016539 69.4369671,31.6582773 L69.3942253,31.7450305 C69.2659998,31.7884071 69.1805161,31.8317838 69.1377742,31.918537 C69.0522906,32.0052902 69.0095487,32.13542 68.924065,32.3956796 L67.9410026,34.9115228 C67.6845516,35.5621719 67.556326,36.0393145 67.5135842,36.2561976 C67.4708423,36.4730806 67.556326,36.646587 67.6845516,36.7333402 L67.6418097,36.8634701 C67.4708423,36.8634701 67.299875,36.8634701 67.1289076,36.8200934 L66.0176196,36.8200934 C65.7184267,36.8634701 65.5474594,36.8634701 65.4192338,36.8634701 Z M70.5482551,32.7860691 L69.9071274,34.4343801 C69.5651927,35.3019122 69.3942253,35.8658081 69.3942253,36.1694444 C69.3942253,36.429704 69.479709,36.646587 69.6934182,36.7767168 L69.6506764,36.9068467 C69.5224508,36.9068467 69.3942253,36.9068467 69.2659998,36.8634701 L68.3684211,36.8634701 C68.2401955,36.8634701 68.11197,36.8634701 67.9410026,36.9068467 L67.9837445,36.7767168 C68.2829374,36.6899636 68.5393884,36.4730806 68.7530976,36.212821 C68.9668069,35.9525613 69.2232579,35.3452888 69.5651927,34.4777567 L70.2063203,32.7860691 C70.3345459,32.4390562 70.3772877,32.2221732 70.3772877,32.0920434 C70.3345459,31.9619136 70.2490622,31.8751604 70.0780948,31.7884071 L70.1208366,31.7016539 L71.7022849,31.7016539 L72.7280891,34.6512631 L72.9417983,34.1307439 C73.2837331,33.2632118 73.4547005,32.6993159 73.4547005,32.3956796 C73.4547005,32.13542 73.3692168,31.918537 73.1555076,31.8317838 L73.1982494,31.7016539 L74.8651813,31.7016539 L74.8224395,31.8317838 C74.5232466,31.918537 74.2667955,32.13542 74.0530863,32.3956796 C73.8393771,32.6993159 73.582926,33.2632118 73.2409912,34.1307439 L72.0869615,37.0369765 L71.9159941,37.0369765 L70.5482551,32.7860691 Z M76.318404,34.4777567 L76.3611458,33.3065884 L75.4635671,34.4777567 L76.318404,34.4777567 Z M72.8135728,36.8634701 L72.8563147,36.7333402 C73.1982494,36.646587 73.7111515,36.1260678 74.4377629,35.2585356 L74.5659884,35.1284058 L77.4724338,31.5281475 L77.5579175,31.5281475 L77.7288848,35.9959379 C77.7288848,36.2995742 77.7716267,36.4730806 77.8143685,36.6032104 C77.8571104,36.6899636 77.9425941,36.7333402 78.0708196,36.7767168 L78.0280778,36.9068467 L77.9425941,36.9068467 C77.5151756,36.9068467 77.1732409,36.8634701 76.9595317,36.8634701 C76.7030806,36.8634701 76.318404,36.8634701 75.76276,36.9068467 L75.6345345,36.9068467 L75.6772763,36.7767168 C75.8055019,36.7767168 75.8909856,36.7333402 75.9764693,36.646587 C76.0619529,36.5598338 76.1474366,36.4730806 76.1901785,36.3429508 C76.2329203,36.2561976 76.2329203,36.212821 76.2329203,36.1260678 C76.2329203,36.0393145 76.2756622,35.9525613 76.2756622,35.8224315 L76.318404,34.781393 L75.2498579,34.781393 C74.9934068,35.1284058 74.7796976,35.3886654 74.6514721,35.6055485 C74.5232466,35.8224315 74.395021,35.9959379 74.3522792,36.1694444 C74.2667955,36.3429508 74.2667955,36.4730806 74.3095373,36.6032104 C74.3522792,36.6899636 74.4377629,36.7767168 74.5232466,36.7767168 L74.4805047,36.9068467 L73.2837331,36.9068467 C73.1555076,36.8634701 72.9845402,36.8634701 72.8135728,36.8634701 Z M79.7804934,36.8634701 L79.8232352,36.7333402 C80.1224281,36.6032104 80.3788792,36.429704 80.5925884,36.1694444 C80.8062976,35.9091847 81.0627487,35.3019122 81.4046834,34.4343801 L82.0458111,32.7426925 C82.1740366,32.3956796 82.2167784,32.1787966 82.2167784,32.0486668 C82.1740366,31.918537 82.0885529,31.8317838 81.9175855,31.7450305 L81.9603274,31.6582773 L83.7554848,31.6582773 L83.5417756,34.6078865 L85.7216096,31.6582773 L86.2772536,31.6582773 C86.4909628,31.6582773 86.7474139,31.6582773 87.1748323,31.6149007 L87.2175742,31.6149007 L87.1748323,31.7450305 C87.0466068,31.7884071 86.9611231,31.8317838 86.9183813,31.918537 C86.8328976,32.0052902 86.7901557,32.13542 86.704672,32.3956796 L85.7643515,34.8247696 C85.5079004,35.5187953 85.336933,35.9959379 85.2941912,36.2561976 C85.2514494,36.4730806 85.336933,36.646587 85.4651586,36.7767168 L85.4224167,36.9068467 C85.2514494,36.9068467 85.080482,36.9068467 84.9095146,36.8634701 L83.7982267,36.8634701 C83.6272593,36.8634701 83.4562919,36.8634701 83.2853245,36.9068467 L83.3280664,36.7767168 C83.5417756,36.646587 83.712743,36.5164572 83.8837104,36.2561976 C84.0546777,36.0393145 84.268387,35.5621719 84.524838,34.8247696 L84.6103217,34.6078865 L85.336933,32.7426925 L82.2595203,36.9502233 L82.1740366,36.9502233 L82.3877458,32.8728223 L81.78936,34.4343801 C81.4474253,35.3019122 81.2764579,35.9091847 81.2764579,36.1694444 C81.2764579,36.429704 81.3619416,36.646587 81.5756508,36.7767168 L81.5329089,36.9068467 C81.4046834,36.9068467 81.2764579,36.9068467 81.1482324,36.8634701 L79.7804934,36.8634701 Z M86.0208025,36.8634701 L86.0635444,36.7333402 C86.2772536,36.646587 86.448221,36.4730806 86.6191884,36.2561976 C86.7901557,36.0393145 86.9611231,35.6055485 87.2175742,34.9115228 L87.3457997,34.6078865 L88.2006366,32.3956796 C88.2861203,32.1787966 88.3288621,32.0052902 88.3288621,31.918537 C88.3288621,31.8317838 88.2861203,31.7884071 88.2006366,31.7450305 L88.2433784,31.6582773 C88.4998295,31.6582773 88.6707969,31.6582773 88.7990224,31.7016539 L89.4828919,31.7016539 C89.6111174,31.7016539 89.7820848,31.7016539 90.0385359,31.6582773 L89.995794,31.7450305 C89.8675685,31.7884071 89.7820848,31.8317838 89.739343,31.918537 C89.6538593,32.0052902 89.6111174,32.13542 89.5256337,32.3956796 L88.5425713,34.9115228 C88.2861203,35.5621719 88.1578947,36.0393145 88.1151529,36.2561976 C88.072411,36.4730806 88.1578947,36.646587 88.2861203,36.7333402 L88.2433784,36.8634701 C88.072411,36.8634701 87.9014437,36.8634701 87.7304763,36.8200934 L86.6191884,36.8200934 C86.3627373,36.8634701 86.1917699,36.8634701 86.0208025,36.8634701 Z M91.1925656,32.7860691 L90.551438,34.4343801 C90.2095032,35.3019122 90.0385359,35.8658081 90.0385359,36.1694444 C90.0385359,36.429704 90.1240196,36.646587 90.3377288,36.7767168 L90.2949869,36.9068467 C90.1667614,36.9068467 90.0385359,36.9068467 89.9103103,36.8634701 L89.0127316,36.8634701 C88.8845061,36.8634701 88.7562806,36.8634701 88.5853132,36.9068467 L88.628055,36.7767168 C88.9272479,36.6899636 89.183699,36.4730806 89.3974082,36.212821 C89.6111174,35.9525613 89.8675685,35.3452888 90.2095032,34.4777567 L90.8506309,32.7860691 C90.9788564,32.4390562 91.0215983,32.2221732 91.0215983,32.0920434 C90.9788564,31.9619136 90.8933727,31.8751604 90.7224054,31.7884071 L90.7651472,31.7016539 L92.3465954,31.7016539 L93.3723997,34.6512631 L93.5861089,34.1307439 C93.9280437,33.2632118 94.099011,32.6993159 94.099011,32.3956796 C94.099011,32.13542 94.0135273,31.918537 93.7998181,31.8317838 L93.84256,31.7016539 L95.5094919,31.7016539 L95.46675,31.8317838 C95.1675571,31.918537 94.9111061,32.13542 94.6973968,32.3956796 C94.4836876,32.6993159 94.2272366,33.2632118 93.8853018,34.1307439 L92.731272,37.0369765 L92.5603046,37.0369765 L91.1925656,32.7860691 Z M94.099011,36.429704 L95.0393316,34.998276 L95.1248153,35.0416526 C94.9965897,35.5187953 94.9965897,35.9091847 95.1248153,36.212821 C95.2530408,36.5164572 95.46675,36.646587 95.7659429,36.646587 C96.022394,36.646587 96.2788451,36.5598338 96.5352961,36.3863274 C96.7917472,36.212821 96.9627146,35.9525613 97.0909401,35.6489251 C97.1764238,35.3886654 97.2191656,35.215159 97.1336819,35.0416526 C97.0481982,34.9115228 96.9199727,34.781393 96.6635217,34.6946398 C96.6207798,34.6946398 96.5352961,34.6512631 96.4498124,34.6512631 C95.9796522,34.5211333 95.7232011,34.3910035 95.5949756,34.2174971 C95.5094919,34.0873673 95.46675,33.9572374 95.46675,33.783731 C95.46675,33.6102246 95.5094919,33.3933416 95.5949756,33.1764585 C95.7659429,32.6993159 96.1078777,32.2655498 96.578038,31.9619136 C97.0481982,31.6582773 97.5611004,31.4847709 98.1594862,31.4847709 C98.4159373,31.4847709 98.6723883,31.5281475 98.8860975,31.6149007 C99.1425486,31.7016539 99.3562578,31.7884071 99.569967,31.9619136 L98.7151302,33.2198351 L98.6296465,33.2198351 C98.757872,32.8294457 98.757872,32.4824328 98.6723883,32.2221732 C98.5869046,31.9619136 98.3731954,31.8317838 98.0740025,31.8317838 C97.8602933,31.8317838 97.6465841,31.918537 97.4328748,32.0920434 C97.2191656,32.2655498 97.0909401,32.4390562 97.0054564,32.6993159 C96.9199727,32.9161989 96.9199727,33.1330819 96.9627146,33.2198351 C97.0481982,33.349965 97.2619075,33.4367182 97.6038422,33.566848 C98.0740025,33.6969778 98.4159373,33.8704842 98.5014209,34.1307439 C98.6296465,34.3476269 98.5869046,34.6946398 98.4159373,35.1284058 C98.202228,35.6923017 97.8602933,36.1260678 97.3473912,36.429704 C96.834489,36.7767168 96.2788451,36.9068467 95.6377174,36.9068467 C95.2957827,36.9068467 94.9538479,36.8634701 94.6973968,36.7767168 C94.5264295,36.7333402 94.2699784,36.6032104 94.099011,36.429704 Z M98.6723883,36.8634701 L98.7151302,36.7333402 C98.9288394,36.646587 99.0998068,36.4730806 99.2707741,36.2561976 C99.4417415,36.0393145 99.6127089,35.6055485 99.8691599,34.9115228 L99.9973855,34.6078865 L100.852222,32.3956796 C100.937706,32.1787966 100.980448,32.0052902 100.980448,31.918537 C100.980448,31.8317838 100.937706,31.7884071 100.852222,31.7450305 L100.894964,31.6582773 C101.151415,31.6582773 101.322383,31.6582773 101.450608,31.7016539 L102.134478,31.7016539 C102.262703,31.7016539 102.433671,31.7016539 102.690122,31.6582773 L102.64738,31.7450305 C102.519154,31.7884071 102.433671,31.8317838 102.390929,31.918537 C102.305445,32.0052902 102.262703,32.13542 102.17722,32.3956796 L101.578834,33.9572374 L103.11754,33.9572374 L103.715926,32.3956796 C103.80141,32.1787966 103.844151,32.0052902 103.844151,31.9619136 C103.844151,31.8751604 103.80141,31.8317838 103.715926,31.7884071 L103.758668,31.7016539 C104.015119,31.7016539 104.186086,31.7016539 104.314312,31.7450305 L104.998181,31.7450305 C105.126407,31.7450305 105.297374,31.7450305 105.553825,31.7016539 L105.511083,31.7884071 C105.382858,31.8317838 105.297374,31.8751604 105.254632,31.9619136 C105.169149,32.0486668 105.126407,32.1787966 105.040923,32.4390562 L104.100602,34.8681462 C103.844151,35.5621719 103.673184,36.0393145 103.630442,36.2995742 C103.5877,36.5164572 103.673184,36.6899636 103.758668,36.8200934 L103.715926,36.9502233 C103.544959,36.9502233 103.373991,36.9502233 103.203024,36.9068467 L102.091736,36.9068467 C101.920768,36.9068467 101.749801,36.9068467 101.578834,36.9502233 L101.621576,36.8200934 C101.835285,36.6899636 102.006252,36.5598338 102.17722,36.2995742 C102.348187,36.0826911 102.561896,35.6055485 102.818347,34.8681462 L102.903831,34.6512631 L103.032056,34.3042503 L101.536092,34.3042503 L101.279641,34.9548994 C101.02319,35.6055485 100.894964,36.0826911 100.852222,36.2995742 C100.809481,36.5164572 100.894964,36.6899636 101.02319,36.7767168 L100.980448,36.9068467 C100.809481,36.9068467 100.638513,36.9068467 100.467546,36.8634701 L98.6723883,36.8634701 Z M104.314312,36.8634701 L104.357054,36.7333402 C104.570763,36.646587 104.74173,36.4730806 104.869956,36.2561976 C105.040923,36.0393145 105.169149,35.6923017 105.382858,35.215159 L106.494146,32.3956796 C106.579629,32.1787966 106.622371,32.0052902 106.622371,31.918537 C106.622371,31.8317838 106.579629,31.7884071 106.494146,31.7450305 L106.536888,31.6582773 C106.83608,31.6582773 107.135273,31.6582773 107.391724,31.7016539 L109.956235,31.7016539 L109.699784,33.0897053 L109.571558,33.0897053 C109.443333,32.6993159 109.229624,32.3956796 109.015915,32.1787966 C108.802205,32.0052902 108.503012,31.918537 108.161078,31.918537 L107.947368,31.918537 L107.135273,33.9572374 L107.391724,33.9572374 C107.733659,33.9572374 107.99011,33.8704842 108.246561,33.7403544 C108.503012,33.6102246 108.716722,33.3933416 108.887689,33.0897053 L109.015915,33.0897053 L108.246561,35.0416526 L108.118336,35.0416526 C108.161078,34.7380164 108.075594,34.5211333 107.947368,34.3910035 C107.819143,34.2608737 107.562692,34.1741205 107.263499,34.1741205 L107.007048,34.1741205 L106.536888,35.3886654 C106.408662,35.7790549 106.323178,36.0393145 106.36592,36.212821 C106.408662,36.3863274 106.536888,36.4730806 106.793339,36.4730806 C107.04979,36.4730806 107.391724,36.3429508 107.819143,36.0826911 C108.203819,35.8224315 108.67398,35.4754187 109.186882,34.998276 L109.272366,35.0416526 L108.203819,36.7767168 L105.382858,36.7767168 C105.040923,36.8634701 104.698988,36.8634701 104.314312,36.8634701 Z M111.4522,32.7860691 L110.811072,34.4343801 C110.469137,35.3019122 110.29817,35.8658081 110.29817,36.1694444 C110.29817,36.429704 110.383654,36.646587 110.597363,36.7767168 L110.554621,36.9068467 C110.426395,36.9068467 110.29817,36.9068467 110.169944,36.8634701 L109.272366,36.8634701 C109.14414,36.8634701 109.015915,36.8634701 108.844947,36.9068467 L108.887689,36.7767168 C109.186882,36.6899636 109.443333,36.4730806 109.657042,36.212821 C109.870751,35.9525613 110.127202,35.3452888 110.469137,34.4777567 L111.110265,32.7860691 C111.23849,32.4390562 111.281232,32.2221732 111.281232,32.0920434 C111.23849,31.9619136 111.153007,31.8751604 110.982039,31.7884071 L111.024781,31.7016539 L112.606229,31.7016539 L113.632034,34.6512631 L113.845743,34.1307439 C114.187678,33.2632118 114.358645,32.6993159 114.358645,32.3956796 C114.358645,32.13542 114.273161,31.918537 114.059452,31.8317838 L114.102194,31.7016539 L115.769126,31.7016539 L115.726384,31.8317838 C115.427191,31.918537 115.17074,32.13542 114.957031,32.3956796 C114.743322,32.6993159 114.486871,33.2632118 114.144936,34.1307439 L112.990906,37.0369765 L112.819939,37.0369765 L111.4522,32.7860691 Z M120.128794,34.1741205 L120.086052,34.2608737 C119.915085,34.3042503 119.744117,34.4343801 119.615892,34.6512631 C119.487666,34.8247696 119.316699,35.215159 119.060248,35.8658081 L118.974764,36.0826911 L118.88928,36.3429508 C118.504604,36.5598338 118.119927,36.7333402 117.735251,36.8634701 C117.350574,36.9935999 116.965897,37.0369765 116.623963,37.0369765 C116.282028,37.0369765 115.982835,36.9935999 115.769126,36.8634701 C115.555417,36.7333402 115.384449,36.5598338 115.256224,36.2995742 C115.127998,36.0393145 115.085256,35.7356783 115.085256,35.3886654 C115.085256,35.0416526 115.17074,34.6946398 115.298966,34.3476269 C115.427191,34.0006141 115.598158,33.6536012 115.85461,33.349965 C116.068319,33.0463287 116.32477,32.7426925 116.623963,32.4824328 C116.965897,32.1787966 117.350574,31.9619136 117.735251,31.7884071 C118.119927,31.6149007 118.504604,31.5281475 118.88928,31.5281475 C119.188473,31.5281475 119.487666,31.5715241 119.744117,31.6582773 C120.000568,31.7450305 120.257019,31.918537 120.513471,32.13542 L119.615892,33.5234714 L119.530408,33.4800948 C119.658634,32.9161989 119.701375,32.4824328 119.57315,32.2221732 C119.487666,31.9619136 119.273957,31.7884071 118.974764,31.7884071 C118.590088,31.7884071 118.162669,32.0052902 117.777992,32.4390562 C117.350574,32.8728223 117.008639,33.4800948 116.709446,34.2608737 C116.410253,34.998276 116.282028,35.5621719 116.32477,35.9959379 C116.367512,36.3863274 116.538479,36.6032104 116.880414,36.6032104 C117.094123,36.6032104 117.307832,36.5164572 117.521541,36.3429508 C117.692509,36.1694444 117.863476,35.9091847 117.991702,35.5621719 C118.205411,35.0416526 118.290895,34.6946398 118.290895,34.5211333 C118.290895,34.3476269 118.205411,34.2608737 117.991702,34.1741205 L118.034444,34.0873673 L119.615892,34.0873673 C119.744117,34.1741205 119.957827,34.1741205 120.128794,34.1741205 Z M124.317495,33.8704842 L124.702171,33.8704842 C124.958622,33.8704842 125.215073,33.783731 125.428783,33.6102246 C125.642492,33.4367182 125.813459,33.1764585 125.941685,32.8728223 C126.06991,32.5691861 126.112652,32.3089264 126.027168,32.1787966 C125.941685,32.0486668 125.770717,31.9619136 125.471524,31.9619136 L125.044106,31.9619136 L124.317495,33.8704842 Z M121.453791,36.8634701 L121.496533,36.7333402 C121.710242,36.646587 121.88121,36.4730806 122.052177,36.2561976 C122.223144,36.0393145 122.394112,35.6055485 122.650563,34.9115228 L122.778788,34.6078865 L123.633625,32.3956796 C123.719109,32.1787966 123.761851,32.0052902 123.761851,31.918537 C123.761851,31.8317838 123.719109,31.7884071 123.633625,31.7450305 L123.676367,31.6582773 C123.890076,31.6582773 124.103785,31.6582773 124.274753,31.7016539 L125.898943,31.7016539 C126.54007,31.7016539 126.967489,31.7884071 127.181198,32.0052902 C127.394907,32.1787966 127.437649,32.4824328 127.266682,32.8728223 C127.138456,33.2198351 126.924747,33.4800948 126.668296,33.6536012 C126.369103,33.8271076 126.027168,34.0006141 125.557008,34.0439907 C126.06991,34.0873673 126.411845,34.2608737 126.582812,34.4777567 C126.75378,34.6946398 126.75378,34.998276 126.625554,35.3886654 C126.454587,35.8658081 126.112652,36.2561976 125.685234,36.5164572 C125.257815,36.7767168 124.702171,36.9068467 124.018302,36.9068467 L122.052177,36.9068467 C121.88121,36.8634701 121.6675,36.8634701 121.453791,36.8634701 Z M124.189269,34.2174971 L123.590883,35.7356783 C123.462658,36.0826911 123.377174,36.3429508 123.419916,36.429704 C123.462658,36.5164572 123.548141,36.5598338 123.761851,36.5598338 C124.103785,36.5598338 124.360236,36.4730806 124.616688,36.2561976 C124.873139,36.0826911 125.044106,35.7790549 125.215073,35.3886654 C125.386041,34.9548994 125.428783,34.6512631 125.343299,34.4777567 C125.257815,34.3042503 125.044106,34.1741205 124.659429,34.1741205 L124.317495,34.1741205 C124.274753,34.2174971 124.232011,34.2174971 124.189269,34.2174971 Z M129.745709,34.4777567 L129.788451,33.3065884 L128.890872,34.4777567 L129.745709,34.4777567 Z M126.240878,36.8634701 L126.283619,36.7333402 C126.625554,36.646587 127.138456,36.1260678 127.865068,35.2585356 L127.993293,35.1284058 L130.899739,31.5281475 L130.985222,31.5281475 L131.15619,35.9959379 C131.15619,36.2995742 131.198931,36.4730806 131.241673,36.6032104 C131.284415,36.6899636 131.369899,36.7333402 131.498124,36.7767168 L131.455383,36.9068467 L131.369899,36.9068467 C130.94248,36.9068467 130.600546,36.8634701 130.386836,36.8634701 C130.130385,36.8634701 129.745709,36.8634701 129.190065,36.9068467 L129.061839,36.9068467 L129.104581,36.7767168 C129.232807,36.7767168 129.31829,36.7333402 129.403774,36.646587 C129.489258,36.5598338 129.574741,36.4730806 129.617483,36.3429508 C129.660225,36.2561976 129.660225,36.212821 129.660225,36.1260678 C129.660225,36.0393145 129.702967,35.9525613 129.702967,35.8224315 L129.745709,34.781393 L128.677163,34.781393 C128.420712,35.1284058 128.207002,35.3886654 128.078777,35.6055485 C127.950551,35.8224315 127.822326,35.9959379 127.779584,36.1694444 C127.6941,36.3429508 127.6941,36.4730806 127.736842,36.6032104 C127.779584,36.6899636 127.865068,36.7767168 127.950551,36.7767168 L127.907809,36.9068467 L126.711038,36.9068467 C126.582812,36.8634701 126.411845,36.8634701 126.240878,36.8634701 Z M134.019893,32.7860691 L133.378765,34.4343801 C133.036831,35.3019122 132.865863,35.8658081 132.865863,36.1694444 C132.865863,36.429704 132.951347,36.646587 133.165056,36.7767168 L133.122314,36.9068467 C132.994089,36.9068467 132.865863,36.9068467 132.737638,36.8634701 L131.840059,36.8634701 C131.711834,36.8634701 131.583608,36.8634701 131.412641,36.9068467 L131.455383,36.7767168 C131.754575,36.6899636 132.011026,36.4730806 132.224736,36.212821 C132.438445,35.9525613 132.694896,35.3452888 133.036831,34.4777567 L133.677958,32.7860691 C133.806184,32.4390562 133.848926,32.2221732 133.848926,32.0920434 C133.806184,31.9619136 133.7207,31.8751604 133.549733,31.7884071 L133.592475,31.7016539 L135.131181,31.7016539 L136.156985,34.6512631 L136.370695,34.1307439 C136.712629,33.2632118 136.883597,32.6993159 136.883597,32.3956796 C136.883597,32.13542 136.798113,31.918537 136.584404,31.8317838 L136.627146,31.7016539 L138.294078,31.7016539 L138.251336,31.8317838 C137.952143,31.918537 137.695692,32.13542 137.481982,32.3956796 C137.268273,32.6993159 137.011822,33.2632118 136.669887,34.1307439 L135.515858,37.0369765 L135.34489,37.0369765 L134.019893,32.7860691 Z M136.840855,36.7333402 C137.054564,36.646587 137.225531,36.4730806 137.396499,36.2561976 C137.567466,36.0393145 137.738434,35.6055485 137.994885,34.9115228 L138.12311,34.6078865 L138.977947,32.3956796 C139.063431,32.1787966 139.106173,32.0052902 139.106173,31.918537 C139.106173,31.8317838 139.063431,31.7884071 138.977947,31.7450305 L139.020689,31.6582773 C139.27714,31.6582773 139.448107,31.6582773 139.576333,31.7016539 L140.260202,31.7016539 C140.388428,31.7016539 140.559395,31.7016539 140.815846,31.6582773 L140.773104,31.7450305 C140.644879,31.7884071 140.559395,31.8317838 140.516653,31.918537 C140.43117,32.0052902 140.388428,32.13542 140.302944,32.3956796 L139.704558,33.9138608 L140.944072,32.9161989 C141.157781,32.7426925 141.328748,32.6125627 141.414232,32.4824328 C141.499716,32.352303 141.585199,32.2655498 141.627941,32.1787966 C141.670683,32.0486668 141.670683,31.9619136 141.670683,31.918537 C141.627941,31.8317838 141.585199,31.7884071 141.456974,31.7884071 L141.499716,31.7016539 L141.542458,31.7016539 C141.884392,31.7016539 142.183585,31.7450305 142.354553,31.7450305 L142.696487,31.7450305 C142.824713,31.7450305 142.99568,31.7450305 143.20939,31.7016539 L143.166648,31.7884071 C142.781971,31.9619136 142.226327,32.352303 141.414232,32.9595755 L141.37149,33.0029521 L139.961009,34.0873673 L140.302944,34.0873673 C140.473912,34.0873673 140.602137,34.0873673 140.687621,34.1307439 C140.815846,34.1307439 140.90133,34.1741205 140.944072,34.2174971 C141.157781,34.3476269 141.286007,34.6512631 141.286007,35.1284058 L141.286007,35.215159 L141.328748,35.9525613 C141.328748,36.2995742 141.37149,36.5164572 141.414232,36.646587 C141.456974,36.7767168 141.542458,36.8200934 141.670683,36.8634701 L141.627941,36.9502233 C141.499716,36.9502233 141.37149,36.9502233 141.243265,36.9068467 L140.302944,36.9068467 C140.131977,36.9068467 140.003751,36.9068467 139.875526,36.9502233 L140.003751,35.1284058 L140.003751,34.998276 C140.046493,34.6078865 139.961009,34.3910035 139.832784,34.3910035 C139.7473,34.3910035 139.661817,34.4343801 139.619075,34.5211333 L139.362624,35.0416526 L139.191656,35.4320421 C139.020689,35.8224315 138.935205,36.1694444 138.935205,36.3863274 C138.935205,36.6032104 138.977947,36.7767168 139.106173,36.8634701 L139.063431,36.9935999 C138.892463,36.9935999 138.721496,36.9935999 138.550529,36.9502233 L137.439241,36.9502233 C137.268273,36.9502233 137.097306,36.9502233 136.926339,36.9935999 L136.840855,36.7333402 Z M141.927134,36.8634701 L141.969876,36.7333402 C142.183585,36.646587 142.354553,36.4730806 142.52552,36.2561976 C142.696487,36.0393145 142.867455,35.6055485 143.123906,34.9115228 L143.252131,34.6078865 L144.106968,32.3956796 C144.192452,32.1787966 144.235194,32.0052902 144.235194,31.918537 C144.235194,31.8317838 144.192452,31.7884071 144.106968,31.7450305 L144.14971,31.6582773 C144.406161,31.6582773 144.577129,31.6582773 144.705354,31.7016539 L145.389224,31.7016539 C145.517449,31.7016539 145.688417,31.7016539 145.944868,31.6582773 L145.902126,31.7450305 C145.7739,31.7884071 145.688417,31.8317838 145.645675,31.918537 C145.560191,32.0052902 145.517449,32.13542 145.431965,32.3956796 L144.448903,34.9115228 C144.192452,35.5621719 144.064226,36.0393145 144.021485,36.2561976 C143.978743,36.4730806 144.064226,36.646587 144.192452,36.7333402 L144.14971,36.8634701 C143.978743,36.8634701 143.807775,36.8634701 143.636808,36.8200934 L142.52552,36.8200934 C142.269069,36.8634701 142.098102,36.8634701 141.927134,36.8634701 Z M147.056156,32.7860691 L146.415028,34.4343801 C146.073093,35.3019122 145.902126,35.8658081 145.902126,36.1694444 C145.902126,36.429704 145.987609,36.646587 146.201319,36.7767168 L146.158577,36.9068467 C146.030351,36.9068467 145.902126,36.9068467 145.7739,36.8634701 L144.876321,36.8634701 C144.748096,36.8634701 144.61987,36.8634701 144.448903,36.9068467 L144.491645,36.7767168 C144.790838,36.6899636 145.047289,36.4730806 145.260998,36.212821 C145.474707,35.9525613 145.731158,35.3452888 146.073093,34.4777567 L146.714221,32.7860691 C146.842446,32.4390562 146.885188,32.2221732 146.885188,32.0920434 C146.842446,31.9619136 146.756963,31.8751604 146.585995,31.7884071 L146.628737,31.7016539 L148.210185,31.7016539 L149.23599,34.6512631 L149.449699,34.1307439 C149.791634,33.2632118 149.962601,32.6993159 149.962601,32.3956796 C149.962601,32.13542 149.877117,31.918537 149.663408,31.8317838 L149.70615,31.7016539 L151.373082,31.7016539 L151.33034,31.8317838 C151.031147,31.918537 150.774696,32.13542 150.560987,32.3956796 C150.347277,32.6993159 150.090826,33.2632118 149.748892,34.1307439 L148.594862,37.0369765 L148.55212,37.0369765 L147.056156,32.7860691 Z M155.73275,34.1741205 L155.690008,34.2608737 C155.519041,34.3042503 155.348073,34.4343801 155.219848,34.6512631 C155.091622,34.8247696 154.920655,35.215159 154.664204,35.8658081 L154.57872,36.0826911 L154.493236,36.3429508 C154.10856,36.5598338 153.723883,36.7333402 153.339207,36.8634701 C152.95453,36.9935999 152.569853,37.0369765 152.227919,37.0369765 C151.885984,37.0369765 151.586791,36.9935999 151.373082,36.8634701 C151.159373,36.7333402 150.988405,36.5598338 150.86018,36.2995742 C150.731954,36.0393145 150.689212,35.7356783 150.689212,35.3886654 C150.689212,35.0416526 150.774696,34.6946398 150.902921,34.3476269 C151.031147,34.0006141 151.202114,33.6536012 151.458565,33.349965 C151.672275,33.0463287 151.928726,32.7426925 152.227919,32.4824328 C152.569853,32.1787966 152.911788,31.9619136 153.339207,31.7884071 C153.723883,31.6149007 154.10856,31.5281475 154.493236,31.5281475 C154.792429,31.5281475 155.091622,31.5715241 155.348073,31.6582773 C155.604524,31.7450305 155.860975,31.918537 156.117426,32.13542 L155.219848,33.5234714 L155.134364,33.4800948 C155.26259,32.9161989 155.305331,32.4824328 155.177106,32.2221732 C155.091622,31.9619136 154.877913,31.7884071 154.57872,31.7884071 C154.194043,31.7884071 153.766625,32.0052902 153.381948,32.4390562 C152.95453,32.8728223 152.612595,33.4800948 152.313402,34.2608737 C152.014209,34.998276 151.885984,35.5621719 151.928726,35.9959379 C151.971468,36.3863274 152.142435,36.6032104 152.48437,36.6032104 C152.698079,36.6032104 152.911788,36.5164572 153.125497,36.3429508 C153.296465,36.1694444 153.467432,35.9091847 153.595658,35.5621719 C153.809367,35.0416526 153.894851,34.6946398 153.894851,34.5211333 C153.894851,34.3476269 153.809367,34.2608737 153.595658,34.1741205 L153.638399,34.0873673 L155.219848,34.0873673 C155.348073,34.1741205 155.561782,34.1741205 155.73275,34.1741205 Z M161.716608,34.998276 L161.844833,34.9548994 L161.588382,36.2995742 C161.203706,36.5164572 160.861771,36.6899636 160.477094,36.8200934 C160.13516,36.9502233 159.793225,36.9935999 159.45129,36.9935999 C159.109355,36.9935999 158.810163,36.9502233 158.596453,36.8200934 C158.382744,36.6899636 158.211777,36.5164572 158.083551,36.2561976 C157.955326,35.9959379 157.912584,35.6923017 157.912584,35.3452888 C157.912584,34.998276 157.998068,34.6512631 158.126293,34.3042503 C158.254519,33.9572374 158.425486,33.6536012 158.681937,33.3065884 C158.895646,33.0029521 159.152097,32.6993159 159.45129,32.4390562 C159.793225,32.13542 160.177902,31.918537 160.562578,31.7450305 C160.947255,31.5715241 161.331931,31.4847709 161.716608,31.4847709 C162.015801,31.4847709 162.314994,31.5281475 162.528703,31.6582773 C162.785154,31.7450305 162.998863,31.918537 163.169831,32.13542 L162.186768,33.6969778 L162.101285,33.6536012 C162.272252,33.0029521 162.314994,32.5258095 162.272252,32.2221732 C162.22951,31.9619136 162.015801,31.7884071 161.716608,31.7884071 C161.331931,31.7884071 160.947255,32.0052902 160.519836,32.4824328 C160.092418,32.9595755 159.750483,33.566848 159.45129,34.3042503 C159.194839,34.998276 159.109355,35.5187953 159.152097,35.9525613 C159.237581,36.3863274 159.45129,36.5598338 159.793225,36.5598338 C160.092418,36.5598338 160.391611,36.429704 160.690804,36.1694444 C161.07548,35.9525613 161.417415,35.5621719 161.716608,34.998276 Z M164.623053,36.7333402 C164.964988,36.7333402 165.306923,36.5164572 165.648858,36.1260678 C165.990792,35.7356783 166.332727,35.0850292 166.63192,34.2608737 C166.973855,33.4367182 167.10208,32.8294457 167.10208,32.3956796 C167.10208,32.0052902 166.888371,31.7884071 166.546436,31.7884071 C166.204502,31.7884071 165.862567,32.0052902 165.520632,32.3956796 C165.178697,32.7860691 164.879504,33.3933416 164.53757,34.2608737 C164.195635,35.0850292 164.067409,35.7356783 164.067409,36.1260678 C164.067409,36.5164572 164.238377,36.7333402 164.623053,36.7333402 Z M163.169831,34.2608737 C163.340798,33.8704842 163.554507,33.4800948 163.810958,33.1330819 C164.067409,32.7860691 164.366602,32.4824328 164.708537,32.2221732 C165.00773,32.0052902 165.349665,31.8317838 165.648858,31.7016539 C165.990792,31.5715241 166.289985,31.5281475 166.63192,31.5281475 C166.973855,31.5281475 167.230306,31.5715241 167.486757,31.7016539 C167.700466,31.8317838 167.914175,32.0052902 168.042401,32.2221732 C168.213368,32.4824328 168.25611,32.7860691 168.25611,33.1330819 C168.25611,33.4800948 168.170626,33.8271076 167.999659,34.2174971 C167.871433,34.5211333 167.743208,34.781393 167.572241,35.0416526 C167.401273,35.3019122 167.187564,35.5621719 166.973855,35.7790549 C166.589178,36.1694444 166.204502,36.429704 165.777083,36.646587 C165.349665,36.8634701 164.922246,36.9502233 164.53757,36.9502233 C164.195635,36.9502233 163.939184,36.9068467 163.682733,36.7767168 C163.426282,36.646587 163.255314,36.4730806 163.127089,36.212821 C162.998863,35.9525613 162.91338,35.6489251 162.91338,35.3019122 C162.91338,34.998276 162.998863,34.6512631 163.169831,34.2608737 Z M167.743208,36.8634701 L167.78595,36.7333402 C167.999659,36.646587 168.170626,36.4730806 168.341594,36.2561976 C168.512561,36.0393145 168.683528,35.6055485 168.93998,34.9115228 L169.068205,34.6078865 L169.923042,32.3956796 C170.008526,32.1787966 170.051267,32.0052902 170.051267,31.918537 C170.051267,31.8317838 170.008526,31.7884071 169.923042,31.7450305 L169.965784,31.6149007 L171.846425,31.6149007 C172.615778,31.6149007 173.171422,31.7016539 173.427873,31.918537 C173.684324,32.13542 173.727066,32.4390562 173.556099,32.8728223 C173.427873,33.2198351 173.214164,33.4800948 172.872229,33.6969778 C172.530294,33.9138608 172.102876,34.0439907 171.589974,34.1307439 C171.889167,34.1741205 172.102876,34.3042503 172.231102,34.4343801 C172.359327,34.6078865 172.444811,34.8247696 172.444811,35.1284058 C172.444811,35.2585356 172.444811,35.3886654 172.402069,35.6055485 C172.359327,36.2995742 172.444811,36.646587 172.701262,36.6899636 L172.65852,36.7767168 L170.906104,36.7767168 C170.906104,36.646587 170.948846,36.5164572 170.991588,36.2995742 C171.205297,34.9115228 171.077072,34.2174971 170.649653,34.2174971 L170.521428,34.2174971 L170.478686,34.2174971 L170.264977,34.8247696 C170.008526,35.5187953 169.837558,35.9525613 169.837558,36.1694444 C169.794816,36.3863274 169.8803,36.5598338 170.008526,36.646587 L169.965784,36.7767168 C169.794816,36.7767168 169.623849,36.7767168 169.452882,36.7333402 L168.341594,36.7333402 C168.085143,36.8634701 167.914175,36.8634701 167.743208,36.8634701 Z M170.606911,33.9572374 L170.906104,33.9572374 C171.205297,33.9572374 171.461748,33.8704842 171.675458,33.7403544 C171.889167,33.566848 172.060134,33.3065884 172.18836,32.9595755 C172.316585,32.6125627 172.359327,32.3956796 172.273843,32.2221732 C172.18836,32.0486668 172.017392,31.9619136 171.760941,31.9619136 L171.376265,31.9619136 L170.606911,33.9572374 Z M175.650449,34.0873673 C175.735933,34.1307439 175.778675,34.1307439 175.821416,34.1307439 L175.992384,34.1307439 C176.248835,34.1307439 176.505286,34.0439907 176.718995,33.8271076 C176.932704,33.6102246 177.146414,33.349965 177.274639,33.0029521 C177.402865,32.6559393 177.445606,32.352303 177.360123,32.1787966 C177.274639,32.0052902 177.06093,31.918537 176.761737,31.918537 L176.462544,31.918537 L175.650449,34.0873673 Z M172.872229,36.8634701 L172.914971,36.7333402 C173.12868,36.646587 173.299648,36.4730806 173.470615,36.2561976 C173.641582,36.0393145 173.81255,35.6055485 174.069001,34.9115228 L174.197226,34.6078865 L175.052063,32.3956796 C175.137547,32.1787966 175.180289,32.0052902 175.180289,31.918537 C175.180289,31.8317838 175.137547,31.7884071 175.052063,31.7450305 L175.094805,31.6582773 C175.308514,31.6582773 175.479482,31.6582773 175.693191,31.7016539 L176.975446,31.7016539 C177.744799,31.7016539 178.257701,31.7884071 178.514153,32.0052902 C178.770604,32.2221732 178.813345,32.5691861 178.599636,33.0463287 C178.428669,33.4800948 178.129476,33.8271076 177.659316,34.0873673 C177.189155,34.3476269 176.676253,34.4777567 176.077867,34.4777567 L175.821416,34.4777567 C175.735933,34.4777567 175.607707,34.4343801 175.522223,34.4343801 L175.308514,34.9548994 C175.052063,35.6489251 174.881096,36.0826911 174.881096,36.2995742 C174.838354,36.5164572 174.923838,36.6899636 175.052063,36.7767168 L175.009321,36.9068467 C174.838354,36.9068467 174.667387,36.9068467 174.496419,36.8634701 L172.872229,36.8634701 Z M176.761737,36.2995742 C176.847221,36.1260678 176.932704,35.9959379 177.103672,35.8658081 C177.274639,35.7356783 177.402865,35.6923017 177.573832,35.6923017 C177.744799,35.6923017 177.830283,35.7356783 177.915767,35.8658081 C178.00125,35.9959379 178.00125,36.1260678 177.915767,36.2995742 C177.830283,36.4730806 177.744799,36.646587 177.573832,36.7333402 C177.402865,36.8634701 177.231897,36.9068467 177.103672,36.9068467 C176.975446,36.9068467 176.847221,36.8634701 176.761737,36.7333402 C176.676253,36.646587 176.718995,36.4730806 176.761737,36.2995742 Z M179.15528,37.9912618 L179.069797,37.861132 C179.240764,37.6876256 179.368989,37.5141191 179.497215,37.3839893 C179.62544,37.2104829 179.710924,37.0803531 179.753666,36.9502233 C179.539957,36.9502233 179.411731,36.8634701 179.368989,36.7767168 C179.326248,36.6899636 179.326248,36.5598338 179.368989,36.3429508 C179.454473,36.1260678 179.539957,35.9959379 179.710924,35.8658081 C179.83915,35.7356783 180.010117,35.6923017 180.181084,35.6923017 C180.394794,35.6923017 180.480277,35.7790549 180.565761,35.9091847 C180.608503,36.0393145 180.608503,36.2561976 180.480277,36.5164572 C180.394794,36.7333402 180.223826,36.9935999 180.010117,37.2104829 C179.796408,37.4707425 179.497215,37.7310022 179.15528,37.9912618 Z M181.591565,36.8634701 L181.634307,36.7333402 C181.848016,36.646587 182.018984,36.4730806 182.147209,36.2561976 C182.318177,36.0393145 182.446402,35.6923017 182.660111,35.215159 L183.771399,32.3956796 C183.856883,32.1787966 183.899625,32.0052902 183.899625,31.918537 C183.899625,31.8317838 183.856883,31.7884071 183.771399,31.7450305 L183.814141,31.6582773 C184.070592,31.6582773 184.24156,31.6582773 184.369785,31.7016539 L185.053655,31.7016539 C185.18188,31.7016539 185.352848,31.7016539 185.609299,31.6582773 L185.566557,31.7450305 C185.438331,31.7884071 185.352848,31.8317838 185.310106,31.918537 C185.224622,32.0052902 185.18188,32.13542 185.096396,32.3956796 L183.899625,35.4754187 C183.771399,35.8658081 183.685916,36.1260678 183.728657,36.2995742 C183.771399,36.4730806 183.899625,36.5598338 184.113334,36.5598338 C184.369785,36.5598338 184.668978,36.429704 185.053655,36.1694444 C185.438331,35.9091847 185.86575,35.5621719 186.33591,35.0850292 L186.421394,35.1284058 L185.395589,36.8634701 L181.591565,36.8634701 Z M186.506877,36.8634701 L186.549619,36.7333402 C186.763328,36.646587 186.934296,36.4730806 187.105263,36.2561976 C187.276231,36.0393145 187.447198,35.6055485 187.703649,34.9115228 L187.831875,34.6078865 L188.729453,32.2655498 C188.772195,32.1787966 188.772195,32.0920434 188.772195,32.0486668 C188.772195,32.0052902 188.729453,32.0052902 188.686711,32.0052902 C188.515744,32.0052902 188.302035,32.0920434 188.002842,32.3089264 C187.703649,32.5258095 187.361714,32.7860691 186.977038,33.1330819 L186.848812,33.1330819 L187.703649,31.6582773 L191.464931,31.6582773 L191.165738,33.1330819 L191.037513,33.1330819 C190.952029,32.7860691 190.781062,32.4824328 190.652836,32.3089264 C190.481869,32.0920434 190.353643,32.0052902 190.182676,32.0052902 C190.139934,32.0052902 190.097192,32.0052902 190.05445,32.0486668 C190.011709,32.0920434 190.011709,32.13542 189.968967,32.2655498 L189.883483,32.4824328 L188.943162,34.9548994 C188.686711,35.6055485 188.558486,36.0826911 188.515744,36.2995742 C188.473002,36.5164572 188.558486,36.6899636 188.686711,36.7767168 L188.64397,36.9068467 C188.473002,36.9068467 188.302035,36.9068467 188.131067,36.8634701 L186.506877,36.8634701 Z M193.901216,31.9619136 L192.533477,35.4320421 C192.319768,35.9525613 192.234284,36.2561976 192.277026,36.3863274 C192.277026,36.5164572 192.405252,36.6032104 192.576219,36.6032104 C192.960896,36.6032104 193.345572,36.3863274 193.687507,35.9959379 C194.029442,35.6055485 194.371377,34.998276 194.67057,34.2174971 C194.969762,33.4367182 195.097988,32.8294457 195.055246,32.4824328 C195.012504,32.13542 194.756053,31.918537 194.371377,31.918537 L194.157667,31.918537 C194.072184,31.9619136 193.9867,31.9619136 193.901216,31.9619136 Z M190.26816,36.8634701 L190.310901,36.7333402 C190.524611,36.6032104 190.695578,36.4730806 190.866545,36.212821 C191.037513,35.9959379 191.251222,35.5187953 191.507673,34.781393 L191.593157,34.5645099 L192.447994,32.352303 C192.533477,32.13542 192.576219,31.9619136 192.576219,31.918537 C192.576219,31.8317838 192.533477,31.7884071 192.447994,31.7450305 L192.490735,31.6582773 C192.661703,31.6582773 192.875412,31.6582773 193.046379,31.7016539 L194.585086,31.7016539 C195.397181,31.7016539 195.910083,31.918537 196.166534,32.352303 C196.422985,32.7860691 196.380243,33.3933416 196.08105,34.1741205 C195.739116,35.0416526 195.268955,35.7356783 194.67057,36.212821 C194.072184,36.6899636 193.388314,36.9068467 192.661703,36.9068467 C192.576219,36.9068467 192.405252,36.9068467 192.148801,36.8634701 C191.89235,36.8634701 191.721382,36.8200934 191.550415,36.8200934 L191.165738,36.8200934 C190.994771,36.8200934 190.695578,36.8634701 190.26816,36.8634701 Z M195.781857,36.2995742 C195.867341,36.1260678 195.952825,35.9959379 196.123792,35.8658081 C196.29476,35.7356783 196.422985,35.6923017 196.593952,35.6923017 C196.76492,35.6923017 196.850404,35.7356783 196.935887,35.8658081 C197.021371,35.9959379 197.021371,36.1260678 196.935887,36.2995742 C196.850404,36.4730806 196.76492,36.646587 196.593952,36.7333402 C196.422985,36.8634701 196.252018,36.9068467 196.123792,36.9068467 C195.995567,36.9068467 195.867341,36.8634701 195.781857,36.7333402 C195.696374,36.646587 195.696374,36.4730806 195.781857,36.2995742 Z M46.3991133,26.2362016 C42.9797658,21.6816579 33.362851,20.5972428 33.362851,20.5972428 L37.2096169,18.2115295 L28.6612482,13.4401028 L20.1128794,17.7777634 L26.9515744,21.6816579 C38.0644538,21.4647749 41.2700921,27.5374998 41.2700921,27.5374998 C44.0483119,36.429704 28.0201205,37.0803531 28.0201205,37.0803531 C18.8306241,38.1647682 14.5564397,29.9232131 14.5564397,29.9232131 L9,30.1400961 C15.6249858,43.586844 39.3467091,37.7310022 39.3467091,37.7310022 C51.7418438,33.8271076 46.3991133,26.2362016 46.3991133,26.2362016 Z M28.6612482,20.5972428 L24.8144822,18.6452955 L28.4475389,16.0426992 L32.2943049,18.2115295 L28.6612482,20.5972428 Z M29.3023758,9.10244219 C23.1048085,8.66867613 10.923383,9.31932522 9.42741844,16.9102313 C8.14516312,22.9829561 17.1209503,26.4530846 23.5322269,27.1037337 C22.2499716,27.9712658 20.9677163,28.6219149 19.685461,29.489447 C22.67739,31.2245113 25.4556099,32.9595755 28.2338297,34.4777567 L35.9273616,29.9232131 L28.2338297,25.8024355 C26.7378652,25.5855525 25.2419006,26.0193185 24.3870638,26.0193185 C20.1128794,26.0193185 13.915312,21.2478919 15.6249858,16.9102313 C18.8306241,7.58426098 39.9878368,8.88555916 42.124929,18.2115295 L48.1087871,18.2115295 C45.3305672,11.0543895 35.2862339,9.53620825 29.3023758,9.10244219 Z M28.4475389,27.5374998 L32.2943049,29.7063301 L28.2338297,31.8751604 L24.600773,29.7063301 L28.4475389,27.5374998 Z" id="path" fill="#FFFFFF" fill-rule="nonzero"></path>
    </g>
</svg>