<?xml version="1.0" encoding="UTF-8"?>
<svg width="48px" height="48px" viewBox="0 0 48 48" version="1.1" xmlns="http://www.w3.org/2000/svg" xmlns:xlink="http://www.w3.org/1999/xlink">
    <!-- Generator: Sketch 51 (57462) - http://www.bohemiancoding.com/sketch -->
    <title>CMSB</title>
    <desc>Created with Sketch.</desc>
    <defs></defs>
    <g id="CMSB" stroke="none" stroke-width="1" fill="none" fill-rule="evenodd">
        <g id="中国民生银行" transform="translate(4.000000, 4.000000)" fill-rule="nonzero">
            <path d="M38.4177778,22.8646098 C34.8622222,16.7317604 25.0488889,15.430853 25.0488889,15.430853 L29.0311111,12.2715064 L20.2133333,5.95281307 L11.3955556,11.7139746 L18.5066667,16.9176044 C30.0266667,16.5459165 33.2977778,24.723049 33.2977778,24.723049 C36.1422222,36.6170599 19.6444444,37.3604356 19.6444444,37.3604356 C10.1155556,38.8471869 5.70666667,27.8823956 5.70666667,27.8823956 L0.0177777778,28.2540835 C6.84444444,46.0950998 31.3066667,38.2896552 31.3066667,38.2896552 C43.8222222,32.9001815 38.4177778,22.8646098 38.4177778,22.8646098 Z M20.0711111,15.430853 L16.0888889,12.8290381 L19.7866667,9.29800363 L23.7688889,12.0856624 L20.0711111,15.430853 Z" id="path" fill="#1D2088"></path>
            <path d="M20.7822222,0.191651543 C14.3822222,-0.365880218 1.86666667,0.563339383 0.302222222,10.5989111 C-0.977777778,18.5901996 8.26666667,23.2362976 14.8088889,24.1655172 C13.5288889,25.2805808 12.1066667,26.2098004 10.8266667,27.3248639 C13.9555556,29.5549909 16.8,31.9709619 19.6444444,34.015245 L27.6088889,27.8823956 L19.6444444,22.492922 C18.08,22.1212341 16.5155556,22.8646098 15.6622222,22.8646098 C11.2533333,22.8646098 4.85333333,16.5459165 6.56,10.784755 C9.83111111,-1.66678766 31.7333333,0.191651543 33.8666667,12.4573503 L39.9822222,12.4573503 C37.28,2.6076225 26.8977778,0.749183303 20.7822222,0.191651543 Z M19.9288889,24.5372051 L23.9111111,27.3248639 L19.7866667,30.1125227 L16.0888889,27.3248639 L19.9288889,24.5372051 Z" id="path" fill="#5AA572"></path>
        </g>
    </g>
</svg>