<?xml version="1.0" encoding="UTF-8"?>
<svg width="206px" height="48px" viewBox="0 0 206 48" version="1.1" xmlns="http://www.w3.org/2000/svg" xmlns:xlink="http://www.w3.org/1999/xlink">
    <!-- Generator: Sketch 51 (57462) - http://www.bohemiancoding.com/sketch -->
    <title>HXB-full</title>
    <desc>Created with Sketch.</desc>
    <defs></defs>
    <g id="HXB-full" stroke="none" stroke-width="1" fill="none" fill-rule="evenodd">
        <rect id="@bound" x="0" y="0" width="206" height="48"></rect>
        <path d="M87.3967632,27.8218698 L87.3967632,25.8419018 C88.2848394,25.4819076 89.1729157,25.3019105 90.0609919,24.9419164 C89.8833767,23.1419454 90.0609919,21.3419745 90.0609919,19.5420035 C90.0609919,19.1820094 90.7714529,19.3620065 90.9490682,19.1820094 C91.8371444,19.3620065 92.7252207,19.0020123 93.6132969,19.1820094 L93.6132969,22.6019541 C93.7909122,22.9619483 93.9685274,23.1419454 94.1461427,23.5019396 C95.9222952,22.6019541 96.9879867,21.3419745 98.4089087,20.2619919 L101.605983,20.2619919 C101.250753,20.6219861 101.073137,21.5219716 100.717907,21.8819658 C99.1193697,23.6819367 97.6984477,24.9419164 95.7446799,25.8419018 C95.0342189,26.201896 94.3237579,25.8419018 93.6132969,26.3818931 C93.9685274,27.4618757 93.0804512,28.181864 94.1461427,28.5418582 C95.2118342,28.3618611 97.3432172,28.7218553 99.1193697,28.7218553 C100.540292,28.7218553 101.783598,28.3618611 102.316444,28.9018524 C102.316444,29.2618466 102.494059,30.3418292 102.494059,30.7018233 C99.1193697,30.7018233 93.9685274,31.0618175 91.1266834,30.5218263 C90.7714529,30.5218263 90.5938377,29.981835 90.4162224,29.8018379 C90.2386072,28.9018524 90.0609919,28.181864 90.0609919,27.2818786 C88.9953004,27.6418728 88.1072242,27.6418728 87.3967632,27.8218698 Z M135.175265,19.3620065 C136.240957,19.3620065 138.017109,19.1820094 138.549955,19.5420035 C138.194725,20.2619919 138.017109,20.9819803 137.661879,21.7019687 C138.37234,21.7019687 139.260416,21.5219716 140.148492,21.7019687 L140.148492,23.6819367 C138.37234,23.5019396 136.418572,23.6819367 135.175265,23.6819367 C134.64242,23.6819367 134.464804,24.221928 133.931959,24.4019251 C133.399113,24.7619193 132.333421,24.9419164 131.445345,24.9419164 L131.26773,24.7619193 L131.26773,22.7819512 C132.333421,22.24196 133.754343,21.7019687 134.287189,20.9819803 C134.64242,20.441989 134.287189,19.9019977 135.175265,19.3620065 Z M162.883244,19.1820094 C163.771321,19.1820094 165.192243,19.3620065 166.080319,19.5420035 L166.080319,19.7220006 L165.725088,20.0819948 C165.014627,21.8819658 163.593705,23.5019396 161.639938,24.221928 C160.396631,24.5819222 158.975709,24.5819222 157.554787,24.7619193 L157.554787,22.6019541 C159.153324,22.421957 160.396631,22.0619629 161.462322,21.3419745 C162.172783,20.8019832 161.995168,19.7220006 162.883244,19.1820094 Z M81.1802294,25.3019105 C80.1145379,25.3019105 79.0488464,25.4819076 78.1607702,25.4819076 C78.1607702,24.7619193 78.1607702,23.8619338 78.3383854,23.3219425 C81.0026142,23.3219425 83.1339972,22.24196 84.3773039,20.9819803 C84.9101497,20.441989 84.7325344,20.0819948 85.2653802,19.5420035 L88.4624547,19.5420035 C88.2848394,19.7220006 88.2848394,20.0819948 88.1072242,20.2619919 C87.5743784,22.0619629 85.9758412,22.7819512 84.9101497,24.0419309 C84.9101497,26.3818931 84.7325344,28.7218553 84.7325344,31.0618175 C83.6668429,31.0618175 82.4235362,30.8818204 81.3578447,30.8818204 C81.1802294,28.9018524 81.1802294,27.1018815 81.1802294,25.3019105 Z M106.57921,38.4416984 L106.57921,36.1017361 C105.513519,35.741742 105.513519,35.3817478 104.980673,34.8417565 C105.158288,34.4817623 105.335903,34.3017652 105.691134,33.941771 C107.112056,33.4017797 108.177747,32.3217972 108.888208,30.8818204 C107.822517,29.981835 107.112056,30.7018233 106.401595,29.4418437 C106.756825,27.8218698 106.046364,24.0419309 106.756825,22.6019541 C109.421054,22.421957 112.440513,22.421957 115.104742,22.421957 L115.104742,21.7019687 L114.749512,21.3419745 C111.730052,21.3419745 108.710593,21.5219716 105.691134,21.3419745 L105.691134,20.441989 C105.691134,20.2619919 105.868749,20.0819948 105.868749,19.7220006 C109.065824,19.7220006 118.124201,19.3620065 123.807889,19.3620065 C126.472118,19.3620065 128.248271,19.0020123 128.781116,19.5420035 L128.781116,21.3419745 C125.406427,21.5219716 122.209352,21.3419745 118.834662,21.3419745 L118.834662,22.24196 C119.189893,22.24196 119.367508,22.421957 119.722739,22.421957 C121.854122,21.8819658 125.406427,21.8819658 127.89304,22.421957 C128.248271,23.6819367 128.070655,25.1219134 128.070655,26.5618902 C128.070655,28.0018669 128.425886,29.0818495 127.89304,29.8018379 C127.53781,29.8018379 127.182579,30.3418292 126.827349,30.3418292 C122.209352,30.5218263 117.236125,30.3418292 112.795744,30.5218263 C112.795744,31.2418146 112.618129,30.8818204 112.973359,31.4218117 L127.89304,31.4218117 C127.182579,34.1217681 124.695966,34.1217681 123.097428,35.741742 L123.097428,35.9217391 C125.051196,36.1017361 126.827349,36.2817332 128.781116,36.2817332 C128.781116,37.0017216 128.603501,37.5417129 128.603501,38.2617013 C126.649733,38.2617013 123.097428,38.2617013 120.610815,37.72171 C119.189893,37.5417129 118.657047,36.8217245 117.768971,36.8217245 C116.170434,37.1817187 115.104742,37.72171 113.32859,37.9017071 C111.374822,38.6216955 108.710593,38.4416984 106.57921,38.4416984 Z M143.523182,19.7220006 C147.608333,19.5420035 155.601019,18.6420181 155.068173,21.7019687 C154.712943,24.221928 155.778634,29.6218408 154.180097,29.4418437 C152.759175,30.1618321 150.272562,29.8018379 144.411258,29.8018379 C144.411258,31.961803 144.056028,35.2017507 144.766489,36.6417274 C145.83218,36.6417274 146.897872,36.8217245 147.963563,36.8217245 L147.963563,38.6216955 C146.365026,38.6216955 144.411258,38.4416984 142.635106,38.4416984 C142.10226,38.0817042 141.391799,38.6216955 141.036569,37.5417129 C140.503723,35.5617449 140.858953,31.2418146 140.858953,28.181864 C140.858953,25.3019105 140.681338,22.421957 141.036569,20.441989 C141.214184,20.2619919 142.10226,19.3620065 143.523182,19.7220006 Z M167.14601,20.0819948 C169.987854,20.2619919 177.980541,19.7220006 180.467154,20.2619919 C180.644769,20.2619919 180.644769,22.24196 180.289539,22.0619629 C176.026773,22.0619629 171.586392,22.421957 167.323626,22.421957 C167.323626,21.8819658 167.14601,20.6219861 167.14601,20.0819948 Z M150.272562,25.6619047 C148.85164,25.6619047 145.83218,25.6619047 144.588874,25.8419018 C144.766489,26.7418873 144.233643,26.9218844 144.588874,27.4618757 C146.720257,27.4618757 149.917331,28.181864 151.338253,27.4618757 C151.338253,25.6619047 151.693484,23.1419454 151.338253,21.5219716 C149.739716,21.7019687 145.654565,21.3419745 144.588874,21.7019687 C144.588874,22.0619629 144.588874,22.7819512 144.411258,23.1419454 L144.766489,23.5019396 L150.272562,23.5019396 C150.272562,23.6819367 150.450177,23.8619338 150.450177,23.8619338 C150.450177,24.5819222 150.272562,25.1219134 150.272562,25.6619047 Z M122.742198,24.7619193 C122.742198,25.6619047 123.097428,25.8419018 122.742198,26.201896 C118.657047,26.201896 114.216666,26.3818931 109.9539,26.3818931 C109.9539,26.5618902 110.131515,26.7418873 110.131515,26.7418873 C114.394281,26.7418873 118.479432,26.9218844 122.742198,26.9218844 L122.742198,27.1018815 C122.742198,27.4618757 122.919813,27.8218698 122.742198,28.181864 C120.610815,28.181864 117.591356,28.3618611 115.104742,28.181864 C113.150974,28.181864 111.552437,28.181864 109.9539,28.3618611 C110.131515,28.3618611 109.776285,28.7218553 109.9539,28.9018524 C111.552437,29.0818495 112.973359,29.0818495 115.282357,29.0818495 C118.834662,29.0818495 122.919813,29.0818495 124.340735,28.7218553 C124.340735,26.9218844 124.51835,24.9419164 123.985505,23.8619338 C122.209352,23.8619338 120.255584,24.0419309 118.301817,23.8619338 C115.815203,23.6819367 113.861435,23.6819367 111.552437,23.8619338 C111.019591,23.8619338 110.486746,23.6819367 109.9539,23.8619338 C109.9539,24.0419309 109.9539,24.4019251 110.131515,24.5819222 C114.216666,24.7619193 118.479432,24.7619193 122.742198,24.7619193 Z M159.863785,38.4416984 C159.863785,35.3817478 159.68617,32.5017943 159.68617,29.4418437 C158.975709,29.4418437 158.087633,29.8018379 157.377172,29.8018379 L157.377172,27.2818786 C159.863785,27.1018815 161.639938,25.8419018 162.705629,24.221928 L165.902704,24.221928 C165.547473,25.3019105 165.369858,26.0218989 164.837012,26.7418873 C164.481782,27.1018815 163.41609,27.4618757 163.238475,28.181864 C163.238475,31.6018088 163.06086,35.2017507 163.06086,38.6216955 C161.995168,38.4416984 160.929477,38.4416984 159.863785,38.4416984 Z M168.566932,38.8016925 C168.566932,38.2617013 168.389317,37.3617158 168.389317,36.8217245 C170.343085,36.8217245 172.652083,36.6417274 174.605851,36.6417274 C176.026773,35.741742 175.316312,29.4418437 175.138697,27.4618757 C173.007314,27.4618757 168.211702,27.4618757 166.435549,27.2818786 C166.257934,26.5618902 165.902704,26.0218989 166.257934,25.4819076 C171.053546,25.6619047 176.204388,25.1219134 180.822385,25.3019105 C180.822385,25.8419018 181,26.9218844 181,27.6418728 C179.934308,27.6418728 179.223847,27.4618757 178.691002,27.8218698 C178.513386,30.8818204 178.868617,34.3017652 178.513386,36.8217245 C178.335771,37.5417129 177.802925,37.9017071 177.447695,38.4416984 C176.737234,39.1616867 171.586392,38.8016925 168.566932,38.8016925 Z M140.148492,27.2818786 L137.484264,27.2818786 L137.484264,27.6418728 C136.773803,29.4418437 138.72757,29.0818495 139.970877,29.2618466 C140.148492,29.6218408 140.326108,29.981835 140.148492,30.3418292 L140.148492,31.0618175 C139.260416,31.0618175 138.017109,31.2418146 137.129033,31.2418146 C137.129033,32.6817914 137.129033,34.3017652 137.306648,35.3817478 C138.194725,34.8417565 139.082801,33.941771 139.970877,33.941771 C139.793262,34.6617594 140.148492,35.5617449 139.970877,36.2817332 C138.37234,37.3617158 136.063342,38.9816896 133.399113,38.2617013 L133.399113,30.8818204 C132.688652,30.8818204 131.800576,31.0618175 131.090115,30.8818204 C131.090115,30.3418292 130.912499,29.4418437 130.912499,29.0818495 C131.62296,29.0818495 132.688652,29.0818495 133.399113,28.9018524 C133.399113,28.5418582 133.221498,27.8218698 133.399113,27.2818786 C132.866267,26.7418873 131.978191,27.2818786 131.090115,27.1018815 L131.090115,25.3019105 C131.800576,25.4819076 132.866267,25.3019105 133.754343,25.1219134 L138.017109,25.1219134 C138.72757,25.1219134 139.438031,24.9419164 139.970877,25.1219134 C140.148492,26.0218989 140.148492,26.9218844 140.148492,27.2818786 Z M147.075487,30.5218263 C148.141179,31.0618175 148.85164,32.8617885 149.562101,33.7617739 C149.917331,33.4017797 150.450177,33.0417856 150.805407,32.6817914 C150.983023,31.961803 151.160638,31.4218117 151.515868,30.7018233 C152.58156,30.7018233 153.647251,30.8818204 154.712943,30.8818204 C154.357712,31.4218117 154.180097,32.3217972 153.824867,32.8617885 C153.292021,33.7617739 152.403945,34.3017652 151.871099,35.2017507 C152.048714,35.3817478 152.226329,35.5617449 152.226329,35.9217391 C153.292021,36.1017361 154.535328,36.1017361 155.601019,36.2817332 C155.601019,37.0017216 155.423404,38.0817042 155.423404,38.6216955 C150.094946,38.4416984 147.075487,35.2017507 145.299335,31.6018088 C145.83218,30.8818204 146.542641,30.8818204 147.075487,30.5218263 Z M92.0147597,31.6018088 C92.3699902,31.961803 91.8371444,32.3217972 92.0147597,32.8617885 L102.138829,32.8617885 C102.138829,33.2217827 102.316444,33.4017797 102.316444,33.7617739 C102.316444,34.1217681 102.138829,34.4817623 102.138829,34.8417565 L92.1923749,34.8417565 C92.0147597,34.8417565 91.8371444,35.0217536 91.8371444,35.0217536 C91.8371444,36.2817332 92.0147597,37.5417129 91.8371444,38.8016925 C90.5938377,38.8016925 89.1729157,38.6216955 87.9296089,38.6216955 L87.9296089,34.6617594 L77.9831549,34.6617594 C77.9831549,33.941771 78.1607702,32.5017943 77.9831549,32.6817914 C81.0026142,32.6817914 84.3773039,32.8617885 87.7519937,32.6817914 C88.1072242,32.6817914 87.5743784,31.6018088 87.9296089,31.6018088 C89.1729157,31.4218117 90.7714529,31.6018088 92.0147597,31.6018088 Z M114.749512,33.0417856 L114.571896,33.2217827 C116.170434,35.0217536 120.610815,35.741742 121.676506,33.0417856 L114.749512,33.0417856 Z M109.598669,33.941771 C110.841976,34.4817623 112.262898,35.3817478 113.506205,35.9217391 C112.973359,36.4617303 112.085283,36.2817332 111.197207,36.2817332 L106.934441,36.2817332 C107.822517,35.5617449 108.710593,34.6617594 109.598669,33.941771 Z M60.7544757,13.2421053 C61.1097062,13.9620937 60.2216299,14.5020849 60.2216299,14.3220878 C59.1559384,13.7820966 56.8469402,16.482053 56.8469402,16.482053 C52.2289437,13.0621082 47.0781014,12.5221169 41.9272591,17.3820384 C36.7764169,22.24196 38.9077999,28.7218553 38.9077999,28.7218553 C44.0586422,42.4016344 55.4260182,35.5617449 55.4260182,35.5617449 C57.0245554,35.2017507 60.5768604,31.0618175 60.5768604,31.0618175 C61.2873214,30.5218263 61.1097062,31.7818059 61.1097062,31.7818059 C62.1753977,29.8018379 62.1753977,31.0618175 62.1753977,31.0618175 C61.9977824,32.1418001 60.2216299,34.3017652 60.2216299,34.3017652 C60.7544757,34.4817623 61.9977824,33.2217827 61.9977824,33.2217827 C59.3335537,40.0616722 52.5841742,41.501649 52.5841742,41.501649 C44.5914879,43.8416112 37.4868779,37.1817187 37.4868779,37.1817187 C30.7374984,31.7818059 31.9808051,21.5219716 31.9808051,21.5219716 C27.7180391,24.0419309 25.5866561,20.9819803 25.5866561,20.9819803 C23.6328884,18.1020268 27.1851934,14.3220878 27.1851934,14.3220878 C27.1851934,20.0819948 33.7569576,14.5020849 33.7569576,14.5020849 C40.3287219,6.94220701 46.3676404,6.22221863 46.3676404,6.22221863 C50.2751759,5.50223026 50.0975607,6.76220991 50.0975607,6.76220991 C50.0975607,7.1222041 50.9856369,8.02218957 50.9856369,8.02218957 C54.7155572,7.1222041 54.3603267,9.28216922 54.3603267,9.28216922 C54.1827114,12.3421198 59.3335537,11.4421343 59.3335537,11.4421343 L60.7544757,13.2421053 Z M44.9467184,21.3419745 L56.1364792,21.3419745 L56.1364792,29.981835 L44.9467184,29.981835 L44.9467184,21.3419745 Z M105.335903,15.7620646 L104.270212,15.7620646 L104.270212,9.46216632 L105.335903,9.46216632 L105.335903,12.1621227 L108.532978,12.1621227 L108.532978,9.46216632 L109.598669,9.46216632 L109.598669,15.7620646 L108.532978,15.7620646 L108.532978,13.0621082 L105.335903,13.0621082 L105.335903,15.7620646 Z M111.552437,9.46216632 L112.618129,9.46216632 L112.618129,13.4221024 C112.618129,13.9620937 112.795744,14.3220878 112.973359,14.682082 C113.150974,14.8620791 113.506205,15.0420762 114.039051,15.0420762 C114.571896,15.0420762 114.927127,14.8620791 115.104742,14.682082 C115.282357,14.5020849 115.459973,14.1420907 115.459973,13.4221024 L115.459973,9.46216632 L116.525664,9.46216632 L116.525664,14.3220878 C116.525664,14.5020849 116.348049,14.682082 116.170434,14.8620791 C115.992818,15.2220733 115.637588,15.4020704 115.282357,15.5820675 C114.927127,15.7620646 114.571896,15.7620646 114.039051,15.7620646 C113.506205,15.7620646 113.150974,15.7620646 112.795744,15.5820675 C112.440513,15.4020704 112.085283,15.2220733 111.907668,14.8620791 C111.730052,14.682082 111.730052,14.5020849 111.552437,14.3220878 C111.552437,14.1420907 111.374822,13.7820966 111.374822,13.2421053 L111.374822,9.46216632 L111.552437,9.46216632 Z M122.031737,13.0621082 L120.966045,10.722146 L119.900354,13.0621082 L122.031737,13.0621082 Z M119.545123,13.9620937 L118.657047,15.7620646 L117.41374,15.7620646 L120.4332,9.46216632 L121.498891,9.46216632 L124.51835,15.7620646 L123.275044,15.7620646 L122.386967,13.9620937 L119.545123,13.9620937 Z M128.248271,13.4221024 L126.294503,15.9420617 L125.051196,15.9420617 L127.715425,12.702114 L125.228811,9.64216341 L126.472118,9.64216341 L128.248271,12.1621227 L130.024423,9.64216341 L131.445345,9.64216341 L128.958732,12.702114 L131.62296,15.9420617 L130.379654,15.9420617 L128.248271,13.4221024 Z M133.931959,15.7620646 L132.866267,15.7620646 L132.866267,9.46216632 L133.931959,9.46216632 L133.931959,15.7620646 Z M139.438031,13.0621082 L138.37234,10.722146 L137.306648,13.0621082 L139.438031,13.0621082 Z M136.951418,13.9620937 L136.063342,15.7620646 L134.820035,15.7620646 L137.839494,9.46216632 L138.905186,9.46216632 L141.924645,15.7620646 L140.681338,15.7620646 L139.793262,13.9620937 L136.951418,13.9620937 Z M152.93679,12.1621227 L153.292021,12.1621227 C153.824867,12.1621227 154.357712,12.1621227 154.535328,11.9821256 C154.712943,11.8021285 154.890558,11.6221314 154.890558,11.2621373 C154.890558,10.9021431 154.712943,10.722146 154.535328,10.5421489 C154.357712,10.3621518 154.002482,10.3621518 153.469636,10.3621518 L152.93679,10.3621518 L152.93679,12.1621227 Z M152.93679,15.0420762 L153.824867,15.0420762 C154.357712,15.0420762 154.712943,15.0420762 154.890558,14.8620791 C155.068173,14.682082 155.245789,14.5020849 155.245789,14.1420907 C155.245789,13.7820966 155.068173,13.6020995 154.890558,13.2421053 C154.712943,13.0621082 154.180097,12.8821111 153.824867,12.8821111 L152.93679,12.8821111 L152.93679,15.0420762 Z M153.469636,9.46216632 C154.357712,9.46216632 154.890558,9.64216341 155.423404,9.8221605 C155.778634,10.1821547 156.133865,10.5421489 156.133865,11.0821402 C156.133865,11.2621373 156.133865,11.6221314 155.95625,11.8021285 L155.423404,12.3421198 C155.778634,12.5221169 156.133865,12.5221169 156.31148,12.8821111 C156.489095,13.0621082 156.666711,13.4221024 156.666711,13.7820966 C156.666711,14.1420907 156.666711,14.3220878 156.489095,14.682082 C156.31148,14.8620791 156.133865,15.2220733 155.95625,15.4020704 C155.778634,15.5820675 155.423404,15.7620646 155.068173,15.7620646 C154.712943,15.7620646 154.357712,15.9420617 153.824867,15.9420617 L152.048714,15.9420617 L152.048714,9.64216341 L153.469636,9.64216341 L153.469636,9.46216632 Z M161.817553,13.0621082 L160.751861,10.722146 L159.68617,13.0621082 L161.817553,13.0621082 Z M159.153324,13.9620937 L158.265248,15.7620646 L157.021941,15.7620646 L160.0414,9.46216632 L161.107092,9.46216632 L164.126551,15.7620646 L162.883244,15.7620646 L161.995168,13.9620937 L159.153324,13.9620937 Z M166.435549,15.7620646 L165.369858,15.7620646 L165.369858,9.46216632 L166.613165,9.46216632 L170.5207,14.1420907 L170.5207,9.46216632 L171.586392,9.46216632 L171.586392,15.7620646 L170.5207,15.7620646 L166.613165,10.9021431 L166.435549,15.7620646 Z M174.605851,12.702114 L177.62531,9.46216632 L179.046232,9.46216632 L175.849158,12.702114 L178.868617,15.9420617 L177.447695,15.9420617 L174.605851,12.702114 Z M174.605851,15.7620646 L173.540159,15.7620646 L173.540159,9.46216632 L174.605851,9.46216632 L174.605851,15.7620646 Z" id="path" fill="#FFFFFF" fill-rule="nonzero"></path>
    </g>
</svg>