<?xml version="1.0" encoding="UTF-8"?>
<svg width="206px" height="48px" viewBox="0 0 206 48" version="1.1" xmlns="http://www.w3.org/2000/svg" xmlns:xlink="http://www.w3.org/1999/xlink">
    <!-- Generator: Sketch 51 (57462) - http://www.bohemiancoding.com/sketch -->
    <title>ICBC-full</title>
    <desc>Created with Sketch.</desc>
    <defs></defs>
    <g id="ICBC-full" stroke="none" stroke-width="1" fill="none" fill-rule="evenodd">
        <rect id="@bound" x="0" y="0" width="206" height="48"></rect>
        <path d="M66.7217311,12.0352525 C60.1547016,12.0352525 54.7963279,17.3533377 54.7963279,23.9606557 C54.7963279,30.5679738 60.1547016,35.886059 66.7217311,35.9263475 C73.3290492,35.9263475 78.687423,30.5679738 78.687423,23.9606557 C78.687423,17.3936262 73.3290492,12.0352525 66.7217311,12.0352525 Z M66.7620197,34.0730754 C61.1619148,34.0730754 56.6496,29.5204721 56.6496,23.9606557 C56.6496,18.4008393 61.1619148,13.8482361 66.7620197,13.8482361 C72.3218361,13.8482361 76.8744393,18.3605508 76.8744393,23.9606557 C76.8744393,29.5204721 72.3621246,34.0730754 66.7620197,34.0730754 Z M60.3561443,23.0743082 L60.3561443,17.5144918 L66.3188459,17.5144918 L66.3188459,19.3677639 L62.2094164,19.3677639 L62.2094164,21.2210361 L65.8756721,21.2210361 L65.8756721,26.7808525 L62.2094164,26.7808525 L62.2094164,28.5938361 L66.3188459,28.5938361 L66.3188459,30.4471082 L60.3561443,30.4471082 L60.3561443,24.9275803 L64.0224,24.9275803 L64.0224,23.0743082 L60.3561443,23.0743082 Z M67.245482,19.3677639 L67.245482,17.5144918 L73.2081836,17.5144918 L73.2081836,22.9937311 L69.5419279,22.9937311 L69.5419279,24.8470033 L73.2081836,24.8470033 L73.2081836,30.4068197 L67.245482,30.4068197 L67.245482,28.6341246 L71.3549115,28.6341246 L71.3549115,26.7808525 L67.6886557,26.7808525 L67.6886557,21.2210361 L71.3549115,21.2210361 L71.3549115,19.3677639 L67.245482,19.3677639 Z M30.8246557,30.3665311 C32.3556197,30.3665311 33.5239869,30.0039344 34.2894689,29.2384525 C35.0549508,28.4729705 35.2161049,27.5060459 35.2161049,26.821141 C35.2161049,25.3304656 34.5714885,24.2829639 33.3628328,23.7189246 L33.3225443,23.6786361 L33.3628328,23.6383475 C33.9268721,23.3563279 34.6520656,22.752 34.6520656,20.9793049 C34.6520656,20.0123803 34.2894689,19.1260328 33.6045639,18.5217049 C32.8793705,17.8368 31.7915803,17.4742033 30.5023475,17.4742033 L23.7741639,17.4742033 L23.7741639,30.3262426 L30.8246557,30.3665311 Z M26.1914754,22.5505574 L26.1914754,19.8512262 L30.2606164,19.8512262 C30.9858098,19.8512262 32.1944656,19.8512262 32.1944656,21.2613246 C32.1944656,21.7850754 31.9527344,22.1476721 31.5095607,22.3491148 C31.1066754,22.5505574 30.6232131,22.5505574 30.2606164,22.5505574 L26.1914754,22.5505574 Z M26.1914754,24.9275803 L30.6232131,24.8872918 C31.0260984,24.8872918 31.6304262,24.9678689 32.0736,25.2498885 C32.5167738,25.5319082 32.7182164,25.975082 32.7182164,26.4988328 C32.7182164,26.9420066 32.5973508,27.2643148 32.3556197,27.5060459 C31.9124459,27.9492197 31.1469639,27.9492197 30.6232131,27.9492197 L26.1108984,27.9492197 L26.1108984,27.9089311 L26.1914754,24.9275803 Z M6.04721311,17.5144918 L8.62567869,17.5144918 L8.62567869,30.3665311 L6.04721311,30.3665311 L6.04721311,17.5144918 Z M10.6803934,23.8397902 C10.6803934,25.0887344 10.8818361,26.0959475 11.3250098,26.9822951 C11.6876066,27.7074885 12.2113574,28.3118164 12.9365508,28.9161443 C14.0646295,29.8427803 15.6761705,30.2859541 17.7308852,30.2859541 L21.2359869,30.2859541 L21.2359869,27.8686426 L17.9323279,27.8686426 C16.0790557,27.8686426 14.7495344,27.4254689 13.9437639,26.4988328 C13.3797246,25.8542164 13.0977049,25.0081574 13.0977049,23.9203672 C13.0977049,22.7922885 13.4200131,21.8656525 14.0646295,21.2210361 C14.8704,20.4152656 16.1596328,20.0123803 17.9323279,20.0123803 L21.2359869,20.0123803 L21.2359869,17.5950689 L17.8517508,17.5950689 C16.7236721,17.5950689 15.7567475,17.7159344 14.9106885,17.9576656 C14.0646295,18.1993967 13.4200131,18.5217049 12.8559738,19.0051672 C12.0502033,19.6900721 10.6803934,21.2210361 10.6803934,23.8397902 Z M36.7873574,23.8397902 C36.7873574,21.059882 38.2780328,19.4886295 38.9629377,18.9245902 C39.526977,18.4411279 40.1715934,18.1188197 41.0176525,17.8770885 C41.8637115,17.6353574 42.8306361,17.5144918 43.9587148,17.5144918 L47.5443934,17.5144918 L47.5443934,19.9318033 L44.0392918,19.9318033 C42.2665967,19.9318033 40.9773639,20.3346885 40.1715934,21.140459 C39.526977,21.8253639 39.2046689,22.752 39.2046689,23.9203672 C39.2046689,25.0081574 39.4866885,25.8945049 40.0507279,26.5391213 C40.8564984,27.4657574 42.1860197,27.9492197 44.0392918,27.9492197 L47.5443934,27.9492197 L47.5443934,30.3665311 L43.8378492,30.3665311 C41.6622689,30.3665311 40.1313049,29.9636459 39.0435148,29.1175869 C38.3586098,28.5938361 37.7945705,27.9089311 37.4319738,27.1031607 C36.9888,26.1765246 36.7873574,25.0887344 36.7873574,23.8397902 Z M87,33 L203.554702,33 L203.554702,33.6446164 L87,33.6446164 L87,33 Z M184.847685,16.5475672 L192.019043,16.5475672 L192.019043,18.7231475 L184.847685,18.7231475 L184.847685,16.5475672 Z M132.714334,18.5217049 L137.548957,18.5217049 L137.548957,16.225259 L125.059515,16.225259 L125.059515,18.5217049 L129.974715,18.5217049 L129.974715,27.1031607 L124.696918,27.1031607 L124.696918,29.4398951 L137.992131,29.4398951 L137.992131,27.1031607 L132.714334,27.1031607 L132.714334,18.5217049 Z M97.3812984,15.6612197 C97.4215869,15.5000656 97.582741,15.5000656 97.582741,15.3389115 C97.582741,15.2583344 97.4618754,15.1374689 97.4215869,15.1374689 L95.0445639,15.0568918 L95.0445639,17.756223 L89.7264787,17.756223 L89.7264787,26.4585443 L92.0229246,26.4585443 L92.0229246,25.6527738 L95.0445639,25.6527738 L95.0445639,30.2859541 L97.4215869,30.2859541 L97.4215869,25.6527738 L100.443226,25.6527738 L100.443226,26.4182557 L102.779961,26.4182557 L102.779961,17.7159344 L97.3812984,17.7159344 L97.3812984,15.6612197 Z M95.0445639,23.517482 L92.0229246,23.517482 L92.0229246,20.0526689 L95.0445639,20.0526689 L95.0445639,23.517482 Z M97.4215869,20.0123803 L100.523803,20.0123803 L100.523803,23.4771934 L97.4215869,23.4771934 L97.4215869,20.0123803 Z M116.357193,22.9131541 L116.961521,22.9131541 L116.961521,21.2613246 L114.665075,21.2613246 L114.665075,20.1735344 L117.28383,20.1735344 L117.28383,18.5619934 L110.112472,18.5619934 L110.112472,20.1332459 L112.731226,20.1332459 L112.731226,21.2210361 L110.475069,21.2210361 L110.475069,22.9131541 L112.731226,22.9131541 L112.731226,25.0887344 L109.91103,25.0887344 L109.91103,26.6599869 L117.444984,26.6599869 L117.444984,25.0081574 C117.00181,25.0484459 117.28383,25.0484459 116.800367,25.0484459 L117.646426,24.3232525 C117.042098,23.517482 116.357193,22.9131541 116.357193,22.9131541 Z M115.793154,25.0887344 L114.665075,25.0887344 L114.665075,22.9131541 L115.793154,22.9131541 L114.906807,23.7995016 C114.906807,23.7995016 115.511134,24.444118 115.954308,25.0887344 L115.793154,25.0887344 Z M166.032944,27.5060459 C166.032944,27.5463344 165.750925,26.7002754 165.549482,25.6930623 C164.864577,26.1765246 164.381115,26.3376787 164.381115,26.3376787 L164.381115,24.7261377 L166.194098,24.7261377 L166.194098,22.8728656 L164.381115,22.8728656 L164.381115,21.7044984 L165.87179,21.7044984 L165.87179,19.8109377 L162.165246,19.8109377 L162.890439,18.7634361 L166.113521,18.7634361 L166.15381,16.8295869 L163.97823,16.8295869 C164.139384,16.4669902 164.340826,16.2655475 164.421403,16.225259 C164.542269,16.144682 164.663134,15.9835279 164.50198,15.7820852 C163.615633,15.5000656 163.091882,15.2180459 162.487554,15.0166033 C161.883226,16.5878557 160.916302,18.4411279 159.627069,19.8512262 C160.352262,20.6569967 160.513416,21.6239213 160.513416,21.6239213 C161.077456,21.059882 161.278898,20.8181508 161.278898,20.8181508 L161.278898,21.6642098 L162.406977,21.6642098 L162.406977,22.7922885 L160.67457,22.7922885 L160.67457,24.6455607 L162.447266,24.6455607 L162.447266,27.2240262 C161.722072,27.6269115 160.67457,28.0700852 160.67457,28.0700852 C161.198321,29.1981639 161.399764,29.7219148 161.480341,29.9233574 C161.722072,30.1248 161.923515,29.8024918 162.124957,29.7219148 C163.817075,28.6744131 165.468905,27.7880656 165.992656,27.4657574 L166.032944,27.5060459 Z M107.251987,30.044223 L109.306702,30.044223 L109.306702,29.4398951 L118.129889,29.4398951 L118.129889,30.044223 L120.184603,30.044223 L120.184603,15.7820852 L107.251987,15.7820852 L107.251987,30.044223 Z M109.306702,17.756223 L118.049311,17.756223 L118.049311,27.4657574 L109.306702,27.4657574 L109.306702,17.756223 Z M150.280131,15.7820852 C150.280131,15.6209311 150.441285,15.6209311 150.441285,15.459777 C150.441285,15.3792 150.32042,15.2583344 150.280131,15.2583344 C150.280131,15.2583344 149.071475,15.2180459 147.86282,15.2180459 L147.86282,16.5475672 L142.343292,16.5475672 L142.343292,18.4814164 L145.203777,18.4814164 C145.203777,18.4814164 145.244066,18.602282 145.485797,18.9245902 C145.526085,18.9648787 145.888682,19.6900721 145.969259,19.8915148 L142.94762,19.8915148 L142.94762,30.0039344 L145.042623,30.0039344 L145.042623,24.2023869 C145.042623,24.2023869 145.485797,24.5649836 145.767816,25.2498885 C145.767816,25.2498885 146.090125,25.2096 146.291567,24.8872918 L146.291567,28.6341246 L147.943397,28.6341246 L147.943397,28.3118164 L150.400997,28.3118164 L150.400997,28.6341246 L151.931961,28.6341246 C152.294557,29.3996066 152.254269,30.0845115 152.254269,30.0845115 L152.697443,30.0845115 C154.268695,30.044223 155.275908,29.4398951 155.275908,28.3118164 L155.275908,19.8512262 L152.415423,19.8512262 L153.060039,18.4008393 L155.920525,18.4008393 L155.920525,16.4669902 L150.280131,16.4669902 L150.280131,15.7820852 Z M145.002334,23.5577705 L145.002334,21.905941 L147.097338,21.905941 C146.613875,22.5505574 145.002334,23.5577705 145.002334,23.5577705 Z M150.280131,26.7405639 L147.903108,26.7405639 L147.903108,25.4916197 L150.280131,25.4916197 L150.280131,26.7405639 Z M150.602439,23.8397902 L147.86282,23.8397902 C147.86282,23.8397902 148.064262,23.7189246 148.588013,23.1548852 C148.870033,23.1145967 148.990898,22.9937311 148.829744,22.752 L147.943397,21.8656525 L150.602439,21.8656525 C150.602439,21.8656525 150.239843,22.4296918 149.635515,22.9534426 C150.159266,23.3563279 150.400997,23.6786361 150.602439,23.8397902 Z M153.221193,27.4254689 C153.221193,27.5060459 153.019751,27.7880656 152.858597,27.7880656 L151.972249,27.7880656 L151.972249,24.9275803 L152.455711,25.3707541 C152.898885,24.8067148 153.221193,24.3232525 153.221193,24.3232525 L153.221193,27.4254689 Z M153.221193,21.905941 L153.221193,23.517482 C153.221193,23.517482 152.093115,22.5908459 151.005325,21.905941 L153.221193,21.905941 Z M150.723305,18.5619934 L150.0384,19.9318033 L148.225416,19.9318033 L147.621089,18.5619934 L150.723305,18.5619934 Z M172.197089,26.0153705 C172.680551,25.6930623 173.405744,25.129023 173.647475,24.9678689 C173.728052,24.9275803 173.929495,24.7261377 173.969784,24.7261377 C174.010072,24.7261377 174.050361,24.6455607 174.010072,24.6052721 C173.768341,24.2829639 173.002859,23.2757508 173.002859,23.2354623 L171.35103,24.5649836 C171.109298,24.0412328 170.948144,23.1548852 170.948144,23.1548852 L173.24459,23.1145967 L173.284879,15.8223738 L166.516407,15.8223738 L166.516407,27.747777 L165.549482,28.2312393 C166.194098,29.3996066 166.314964,30.044223 166.314964,30.044223 C166.395541,30.1248 166.395541,30.1248 166.43583,30.1248 C166.476118,30.1248 166.43583,30.205377 166.758138,29.9233574 C167.52362,29.5607607 169.538046,28.3923934 169.98122,28.1103738 C170.625836,27.747777 170.061797,28.0700852 170.222951,27.9089311 C170.021508,27.1837377 170.102085,26.3779672 170.102085,26.3779672 C171.149587,28.2715279 172.358243,29.4801836 173.002859,30.0039344 C173.647475,28.9967213 174.533823,28.1909508 174.533823,28.1909508 C172.599974,27.3046033 172.197089,26.0153705 172.197089,26.0153705 Z M168.450256,17.5950689 L171.35103,17.5950689 L171.35103,18.7231475 L168.450256,18.7231475 L168.450256,17.5950689 Z M168.450256,26.8614295 L168.450256,23.1548852 L168.89343,23.1548852 C168.89343,23.3563279 169.256026,24.8872918 169.860354,26.2168131 C169.900643,26.2168131 169.094872,26.5794098 168.450256,26.8614295 Z M168.450256,21.3821902 L168.450256,20.2944 L171.35103,20.2944 L171.35103,21.3821902 L168.450256,21.3821902 Z M179.24758,20.6972852 C180.295082,19.9720918 181.463449,18.7634361 181.624603,18.602282 C181.826046,18.4411279 182.712393,17.4742033 182.712393,17.4742033 C183.155567,17.1518951 183.115279,17.2324721 183.316721,17.1921836 C183.558452,17.1116066 183.518164,16.9504525 183.558452,16.9504525 C183.63903,16.7892984 183.477875,16.6684328 182.873548,16.0238164 C182.631816,15.7820852 181.946911,15.1374689 181.946911,15.1374689 C180.939698,16.6684328 179.24758,18.1188197 178.320944,18.8037246 C178.844695,19.3274754 179.24758,20.6972852 179.24758,20.6972852 Z M184.565666,20.4958426 C184.646243,20.4152656 184.807397,20.3346885 184.807397,20.3346885 C184.968551,20.2944 185.049128,20.0929574 185.089416,20.0123803 C185.089416,19.9318033 184.968551,19.8109377 184.243357,19.2066098 C184.243357,19.2066098 184.16278,19.1260328 183.558452,18.4411279 C182.228931,20.374977 180.295082,22.2282492 178.562675,23.3563279 C179.126715,23.8800787 179.5296,25.3707541 179.5296,25.3707541 L180.61739,24.4844066 L180.657679,24.4844066 L180.657679,30.0845115 L182.79297,30.0845115 L182.79297,22.671423 C183.397298,22.0670951 184.323934,20.8584393 184.323934,20.8584393 L184.323934,22.671423 L188.312498,22.671423 L188.312498,27.6672 C188.312498,28.0297967 187.909613,28.0700852 187.909613,28.0700852 L186.62038,28.0700852 C187.466439,29.0772984 187.305285,30.0039344 187.345574,30.3262426 L187.587305,30.3262426 C188.957115,30.2456656 190.528367,30.205377 190.608944,28.3521049 L190.608944,22.6311344 L192.502505,22.6311344 L192.502505,20.4958426 L184.565666,20.4958426 Z" id="path" fill="#FFFFFF" fill-rule="nonzero"></path>
    </g>
</svg>