<?xml version="1.0" encoding="UTF-8"?>
<svg width="206px" height="48px" viewBox="0 0 206 48" version="1.1" xmlns="http://www.w3.org/2000/svg" xmlns:xlink="http://www.w3.org/1999/xlink">
    <!-- Generator: Sketch 51 (57462) - http://www.bohemiancoding.com/sketch -->
    <title>PAB-full</title>
    <desc>Created with Sketch.</desc>
    <defs></defs>
    <g id="PAB-full" stroke="none" stroke-width="1" fill="none" fill-rule="evenodd">
        <rect id="@bound" x="0" y="0" width="206" height="48"></rect>
        <path d="M150.687473,28.9665204 L153.101265,28.9665204 L153.478762,29.2930076 L153.478762,44.3862816 L153.101265,44.7769023 L150.794514,44.7769023 L150.069304,44.5046204 C149.911709,44.2863155 144.748395,38.4599845 141.950829,35.2834382 C141.066427,34.290853 140.406833,33.5836732 140.252548,33.3539567 L140.252548,44.3862816 L139.867062,44.7769023 L137.445283,44.7769023 L137.054662,44.3862816 L137.054662,29.2931218 L137.445283,28.9666345 L139.808064,28.9666345 L140.526542,29.2456493 C140.579035,29.2931218 141.128734,29.8985097 141.950715,30.774696 C144.369072,33.5212515 149.376617,39.1177519 150.303699,40.2204595 L150.303699,29.2930076 L150.687473,28.9665204 Z M124.05999,39.9989594 L128.119113,39.9989594 L128.496496,40.3878683 L128.496496,44.3861675 L128.119113,44.7834069 L124.05999,44.7834069 L123.664576,44.3861675 L123.664576,40.3878683 L124.05999,39.9989594 Z M127.958437,29.3538317 L127.295535,28.9141409 L124.939372,28.9141409 L124.214275,29.3538317 L123.121496,31.5492046 L116.745694,44.0139195 C116.535606,44.5046204 116.745694,44.7769023 117.19189,44.7769023 L119.541548,44.7769023 L120.158347,44.345542 L123.121496,38.4600986 L126.079852,32.5320898 L132.016077,44.345542 L132.667568,44.7769023 L135.03674,44.7769023 C135.476545,44.7769023 135.693024,44.5046204 135.417433,44.0139195 L127.958437,29.3538317 Z M110.553392,29.7361219 C109.665794,29.0715076 108.522004,28.7484438 107.251203,28.7484438 L101.715298,28.7466179 C98.6914399,28.7466179 96.2622424,30.8861878 96.2622424,33.5212515 L96.2622424,40.1596354 C96.2622424,42.8095342 98.6914399,45 101.715298,45 L107.251203,45 C108.522004,45 109.665679,44.6125745 110.553392,43.9629094 C111.864248,43.0769091 112.686229,41.7019196 112.686229,40.1596354 L112.686229,35.883805 L104.286343,35.883805 L104.286343,38.1449089 L104.665438,38.5188686 L109.229184,38.5188686 L109.229184,41.5935089 L108.845296,41.9773968 L100.051594,41.9773968 L99.674211,41.5935089 L99.674211,32.0903449 L100.051594,31.7096524 L108.845296,31.7096524 L109.229184,32.0903449 L109.229184,33.911644 L109.61718,34.2431523 L112.308731,34.2431523 L112.686229,33.911644 L112.686229,33.5179421 C112.686343,31.9871836 111.860824,30.6139059 110.553392,29.7361219 Z M90.9398497,28.9665204 L90.5575595,29.2930076 L90.5575595,40.2204595 C89.2932631,38.7946881 81.0060101,29.4620142 80.7968346,29.2455352 L80.073222,28.9665204 L77.7040498,28.9665204 L77.3389912,29.2930076 L77.3389912,44.3861675 L77.7040498,44.7767882 L80.1307367,44.7767882 L80.5146246,44.3861675 L80.5146246,33.3538426 C81.3817957,34.4006331 90.1212922,44.2862014 90.3353748,44.5045062 L91.049858,44.7767882 L93.3535274,44.7767882 L93.7366164,44.3861675 L93.7366164,29.2930076 L93.3535274,28.9665204 L90.9398497,28.9665204 Z M71.2812319,28.9665204 L70.8981429,29.2930076 L70.8981429,44.3861675 L71.2812319,44.7767882 L73.9752938,44.7767882 L74.3591816,44.3861675 L74.3591816,29.2930076 L73.9752938,28.9665204 L71.2812319,28.9665204 Z M63.1594479,28.9665204 L53.3838878,28.9665204 L53,29.2930076 L53,44.3861675 L53.3838878,44.7767882 L56.0681357,44.7767882 L56.4619517,44.3861675 L56.4619517,39.9529704 L63.1594479,39.9529704 C66.1267046,39.9529704 68.5919629,38.1449089 68.5919629,35.5033406 L68.5919629,33.7476586 C68.5920771,31.107802 66.1267046,28.9665204 63.1594479,28.9665204 Z M64.9725305,36.7631866 L64.5795134,37.1438791 L56.4619517,37.1438791 L56.4619517,31.7097665 L64.5795134,31.7097665 L64.9725305,32.090459 L64.9725305,36.7631866 Z M153.038843,10.2422883 L149.47179,10.2422883 L149.47179,8.70662283 L149.025595,8.26031328 L146.564559,8.26031328 L146.124754,8.70662283 L146.124754,10.2422883 L137.724183,10.2422883 L137.724183,8.70662283 L137.281183,8.26031328 L134.816723,8.26031328 L134.436031,8.70662283 L134.436031,10.2422883 L130.80028,10.2422883 L130.360475,10.6787838 L130.360475,12.4983711 L130.80028,12.8806613 L134.436031,12.8806613 L134.436031,14.037346 C134.436031,15.3451208 135.036626,16.6116997 136.631404,17.3762801 C137.231999,17.6551808 138.006279,18.0456873 138.810344,18.4263799 C137.392789,19.0301702 136.073602,19.2976593 134.751221,19.2976593 L131.354772,19.2976593 L130.911772,19.7439688 L130.911772,21.4980532 L131.354772,21.9361464 L134.701922,21.9361464 C136.02613,21.9361464 137.668494,21.6587292 139.095863,21.1141654 C139.650355,20.9500659 140.690755,20.4577674 141.950829,19.9064707 C143.168224,20.4577674 144.205315,20.9500659 144.792444,21.1141654 C146.182383,21.6587292 147.831252,21.9361464 149.14051,21.9361464 L152.48766,21.9361464 L152.927465,21.4980532 L152.927465,19.7439688 L152.48766,19.2976593 L149.094521,19.2976593 C147.777046,19.2976593 146.500653,19.0301702 145.028893,18.4263799 C145.852586,18.0458015 146.622073,17.6551808 147.220843,17.3762801 C148.873135,16.6116997 149.472018,15.3451208 149.472018,14.0389436 L149.472018,12.8806613 L153.039071,12.8806613 L153.478876,12.4983711 L153.478876,10.6787838 L153.038843,10.2422883 Z M146.12464,13.7043541 C146.12464,14.4657392 146.013148,15.0235406 145.028665,15.5190344 C144.319888,15.8996128 143.056504,16.4493119 141.950601,16.9955875 C140.798709,16.4476002 139.535326,15.8996128 138.810116,15.5190344 C137.828942,15.0235406 137.723841,14.4657392 137.723841,13.7043541 L137.723841,12.8806613 L146.124411,12.8806613 L146.124411,13.7043541 L146.12464,13.7043541 Z M132.900251,8.37522857 L133.32853,7.99453599 L133.32853,6.72133842 L150.525085,6.72133842 L150.525085,7.99453599 L150.955076,8.37522857 L152.881362,8.37522857 L153.309641,7.99453599 L153.309641,6.57036232 C153.309641,5.41527531 152.32687,4.42588542 151.174979,4.42588542 L143.765281,4.42588542 L143.765281,3.43489791 L143.318972,3 L140.526427,3 L140.086737,3.43489791 L140.086737,4.42588542 L132.667225,4.42588542 C131.525148,4.42588542 130.530965,5.41527531 130.530965,6.57036232 L130.530965,7.99453599 L130.972253,8.37522857 L132.900251,8.37522857 Z M118.668329,22.0459264 L118.668329,18.5313671 L127.835305,18.5313671 L128.293141,18.0965833 L128.293141,16.2278118 L127.835305,15.8406146 L118.668329,15.8406146 L118.668329,6.67694711 L127.074149,6.67694711 L127.515323,6.23896806 L127.515323,4.48328601 L127.074149,4.0303577 L106.594234,4.0303577 L106.161048,4.48328601 L106.161048,6.23896806 L106.594234,6.67694711 L114.991496,6.67694711 L114.991496,15.8406146 L105.815732,15.8406146 L105.439147,16.2278118 L105.439147,18.0965833 L105.815732,18.5313671 L114.991496,18.5313671 L114.991496,22.0459264 L115.43461,22.4823079 L118.231947,22.4823079 L118.668329,22.0459264 Z M123.121382,8.15532612 L122.619383,8.483411 L119.82022,13.976636 L120.043432,14.3540192 L123.121382,14.3540192 L123.618587,13.976636 L126.412844,8.483411 L126.189632,8.09952316 L123.344594,8.09952316 L123.121382,8.15532612 Z M113.618332,14.3540192 L113.854553,13.976636 L111.042267,8.483411 L110.553392,8.15532612 L110.33018,8.09952316 L107.526224,8.09952316 L107.251317,8.483411 L110.047856,13.976636 L110.553392,14.3540192 L113.618332,14.3540192 Z M84.7328261,9.80750452 L89.6763521,9.80750452 L89.6763521,11.3383771 L85.4433154,11.3383771 L85.4433154,13.3695363 L89.6763521,13.3695363 L89.6763521,15.5666209 L84.7328261,15.5666209 L84.7328261,17.7634773 L97.8596449,17.7634773 L97.8596449,14.5788287 L95.3945007,14.5788287 L95.3945007,15.5666209 L92.9169178,15.5666209 L92.9169178,13.3695363 L97.1442487,13.3695363 L97.1442487,11.3383771 L92.9169178,11.3383771 L92.9169178,9.80750452 L97.8596449,9.80750452 L97.8596449,7.60083414 L84.7328261,7.60083414 L84.7328261,9.80750452 Z M73.9752938,5.68755723 L66.6140961,5.68755723 L66.6140961,3.4972055 L66.2342023,3.04439131 L63.2070345,3.04439131 L62.8255431,3.4972055 L62.8255431,5.68755723 L55.4701653,5.68755723 C54.0935782,5.68755723 53,6.77702727 53,8.15852138 L53,16.1128965 C53,17.4975859 54.0935782,18.58717 55.4701653,18.58717 L62.8256572,18.58717 L62.8256572,22.0459264 L63.2071486,22.4823079 L66.2343165,22.4823079 L66.6142102,22.0459264 L66.6142102,18.58717 L73.9754079,18.58717 C75.3527938,18.58717 76.441465,17.4977 76.441465,16.1128965 L76.441465,8.15532612 C76.4413509,6.77702727 75.3526797,5.68755723 73.9752938,5.68755723 Z M82.2643726,21.9409393 L100.382418,21.9409393 C101.715527,21.9409393 102.798378,20.8481599 102.798378,19.469861 L102.798378,6.11743401 C102.798378,4.80486625 101.715527,3.71220095 100.382418,3.71220095 L82.2643726,3.71220095 C80.8926925,3.71220095 79.7918108,4.80486625 79.7918108,6.12074339 L79.7918108,19.469861 C79.7916967,20.8481599 80.8926925,21.9409393 82.2643726,21.9409393 Z M83.0937711,6.11743401 L99.5652298,6.11743401 L99.5652298,19.2927522 L83.0937711,19.2927522 L83.0937711,6.11743401 Z M62.8255431,15.9062316 L56.4619517,15.9062316 L56.4619517,8.37522857 L62.8255431,8.37522857 L62.8255431,15.9062316 Z M72.995832,15.9062316 L66.6140961,15.9062316 L66.6140961,8.37522857 L72.995832,8.37522857 L72.995832,15.9062316 Z" id="path" fill="#FFFFFF" fill-rule="nonzero"></path>
    </g>
</svg>