<?xml version="1.0" encoding="UTF-8"?>
<svg width="48px" height="48px" viewBox="0 0 48 48" version="1.1" xmlns="http://www.w3.org/2000/svg" xmlns:xlink="http://www.w3.org/1999/xlink">
    <!-- Generator: Sketch 51 (57462) - http://www.bohemiancoding.com/sketch -->
    <title>PAB</title>
    <desc>Created with Sketch.</desc>
    <defs></defs>
    <g id="PAB" stroke="none" stroke-width="1" fill="none" fill-rule="evenodd">
        <path d="M29.084279,31.6 L19.1677561,31.6 C18.6595571,31.6 18.25,31.9925604 18.25,32.4950057 L18.25,41.8979481 C18.25,42.3802849 18.6595571,42.79024 19.1677561,42.79024 L29.084279,42.79024 C29.5951707,42.79024 30.0141522,42.3802849 30.0141522,41.8979481 L30.0141522,32.4950057 C30.0141522,31.9925604 29.5951707,31.6 29.084279,31.6 Z" id="path" fill="#005E3B" fill-rule="nonzero"></path>
        <path d="M28.5294103,6.03834537 C28.164462,5.41395902 27.5684366,5 26.8602161,5 L21.0916366,5 C20.3658688,5 19.7779215,5.41395902 19.4089342,6.03834537 L1.25854589,40.7157885 C0.65305126,41.8345233 1.16394297,42.503086 2.24115077,42.503086 L7.99213809,42.503086 C8.82875467,42.503086 9.14505516,42.2914131 9.56403663,41.5210178 L23.9664796,13.6351719 L38.3743527,41.5210178 C38.8014122,42.2914131 39.1136288,42.503086 39.9462064,42.503086 L45.7012327,42.503086 C46.7730552,42.503086 47.2947625,41.8345233 46.6892678,40.7157885 L28.5294103,6.03834537 Z" id="path" fill="#EB5400" fill-rule="nonzero"></path>
    </g>
</svg>