<?xml version="1.0" encoding="UTF-8"?>
<svg width="206px" height="48px" viewBox="0 0 206 48" version="1.1" xmlns="http://www.w3.org/2000/svg" xmlns:xlink="http://www.w3.org/1999/xlink">
    <!-- Generator: Sketch 50.2 (55047) - http://www.bohemiancoding.com/sketch -->
    <title>PSBC-full</title>
    <desc>Created with Sketch.</desc>
    <defs></defs>
    <g id="PSBC-full" stroke="none" stroke-width="1" fill="none" fill-rule="evenodd">
        <rect id="@bound" x="0" y="0" width="206" height="48"></rect>
        <path d="M60.2045455,43.047619 L62.9090909,31.4603175 L68.9545455,31.4603175 L69.75,27.4920635 L61.1590909,27.4920635 L58.4545455,39.2380952 L42.8636364,39.2380952 L43.3409091,37.1746032 L57.0227273,37.1746032 L59.7272727,25.4285714 L70.2272727,25.4285714 L71.0227273,21.7777778 L57.9772727,21.7777778 L55.4318182,33.3650794 L44.1363636,33.3650794 L44.6136364,31.6190476 L53.6818182,31.6190476 L55.75,21.7777778 L46.6818182,21.7777778 L47.1590909,19.7142857 L60.8409091,19.7142857 L62.4318182,13.6825397 L72.7727273,13.6825397 L73.5681818,10.031746 L60.6818182,10.031746 L58.9318182,15.9047619 L47.9545455,15.9047619 L48.5909091,13.6825397 L57.5,13.6825397 L59.25,7.96825397 L74.0454545,7.96825397 L74.8409091,4 L57.3409091,4 L55.9090909,9.87301587 L46.8409091,9.87301587 L44.1363636,21.6190476 L35.0681818,21.6190476 L33,31.3015873 L42.3863636,31.3015873 L40,43.047619 L60.2045455,43.047619 Z M36.1818182,27.3333333 L36.6590909,25.4285714 L43.5,25.4285714 L42.8636364,27.4920635 L36.1818182,27.4920635 L36.1818182,27.3333333 Z M45.5681818,27.3333333 L46.0454545,25.2698413 L52.8863636,25.2698413 L52.4090909,27.3333333 L45.5681818,27.3333333 Z M168.227273,26.2222222 L169.977273,27.4920635 L171.25,28.2857143 L172.522727,29.0793651 L172.522727,26.8571429 L172.363636,26.8571429 L172.045455,26.6984127 L170.454545,25.7460317 L170.136364,25.5873016 L169.977273,25.4285714 L169.818182,25.2698413 L169.977273,25.1111111 L170.772727,23.6825397 L171.25,22.4126984 L171.409091,21.7777778 L171.568182,21.1428571 L171.568182,14.1587302 L172.840909,14.1587302 L172.840909,12.2539683 L166.795455,12.2539683 L166.954545,11.9365079 L167.113636,11.6190476 L167.272727,11.3015873 L167.431818,10.6666667 L167.431818,9.3968254 L165.045455,9.3968254 L164.727273,10.6666667 L164.568182,11.3015873 L164.409091,11.1428571 L164.25,11.3015873 L164.090909,11.4603175 L164.090909,13.6825397 L169.181818,13.6825397 L169.181818,20.1904762 L169.022727,21.4603175 L168.386364,22.2539683 L168.227273,22.7301587 L168.227273,22.8888889 L168.068182,22.7301587 L167.75,22.4126984 L167.75,22.2539683 L167.590909,21.9365079 L167.272727,21.4603175 L167.113636,21.1428571 L167.113636,14.4761905 L164.568182,14.4761905 L164.568182,20.984127 L164.727273,21.4603175 L164.886364,21.9365079 L165.045455,22.4126984 L165.204545,22.8888889 L165.522727,23.3650794 L166,24 L166.318182,24.3174603 L166.636364,24.4761905 L166.795455,24.6349206 L163.931818,26.6984127 L163.772727,27.1746032 L163.772727,28.9206349 L164.25,28.7619048 L164.727273,28.6031746 L165.204545,28.4444444 L166,27.968254 L166.477273,27.6507937 L167.431818,26.8571429 L167.75,26.5396825 L167.909091,26.3809524 L168.227273,26.2222222 Z M92.0227273,28.6031746 L92.0227273,23.5238095 L96.4772727,23.5238095 L96.4772727,24.3174603 L99.8181818,24.3174603 L99.8181818,12.7301587 L92.1818182,12.7301587 L92.1818182,8.92063492 L89.1590909,8.92063492 L89.1590909,12.7301587 L81.5227273,12.7301587 L81.5227273,24.3174603 L84.5454545,24.3174603 L84.5454545,23.5238095 L89.1590909,23.5238095 L89.1590909,28.6031746 L92.0227273,28.6031746 Z M108.409091,28.4444444 L108.409091,27.6507937 L120.340909,27.6507937 L120.340909,28.4444444 L123.363636,28.4444444 L123.363636,9.71428571 L105.704545,9.71428571 L105.704545,28.4444444 L108.409091,28.4444444 Z M143.886364,28.4444444 L143.886364,12.5714286 L145.636364,12.5714286 L145.636364,17.015873 L144.363636,17.968254 L144.363636,19.0793651 L145.636364,20.1904762 L145.636364,24.1587302 L145.477273,24.3174603 L145.318182,24.4761905 L145.159091,24.6349206 L145,24.7936508 L144.840909,24.952381 L144.681818,25.1111111 L144.045455,25.1111111 L144.045455,27.1746032 L145.159091,27.1746032 L145.477273,27.015873 L146.113636,26.6984127 L146.75,26.3809524 L147.227273,26.0634921 L147.545455,25.7460317 L147.704545,25.5873016 L147.704545,18.7619048 L146.590909,18.7619048 L146.909091,18.7619048 L147.068182,18.6031746 L147.227273,18.4444444 L147.386364,18.2857143 L147.545455,18.1269841 L147.704545,17.968254 L147.863636,17.8095238 L147.863636,10.6666667 L141.181818,10.6666667 L141.181818,28.7619048 L143.886364,28.7619048 L143.886364,28.4444444 Z M140.068182,28.1269841 L140.068182,11.4603175 L136.090909,11.4603175 L136.090909,8.28571429 L133.704545,8.28571429 L133.704545,11.4603175 L129.727273,11.4603175 L129.727273,27.8095238 L132.431818,27.8095238 L132.431818,27.015873 L137.522727,27.015873 L137.522727,27.968254 L140.068182,27.968254 L140.068182,28.1269841 Z M163.454545,27.4920635 L163.454545,25.1111111 L161.227273,25.1111111 L161.227273,19.8730159 L163.454545,19.8730159 L163.454545,17.6507937 L161.227273,17.6507937 L161.227273,12.4126984 L163.454545,12.4126984 L163.454545,10.5079365 L154.545455,10.5079365 L154.545455,12.4126984 L158.522727,12.4126984 L158.522727,24.952381 L157.409091,24.952381 L157.409091,15.1111111 L154.704545,15.1111111 L154.704545,27.3333333 L163.454545,27.3333333 L163.454545,27.4920635 Z M108.409091,25.5873016 L108.409091,12.0952381 L120.340909,12.0952381 L120.340909,25.5873016 L108.409091,25.5873016 Z M132.431818,25.1111111 L132.431818,20.1904762 L133.704545,20.1904762 L133.704545,25.1111111 L132.431818,25.1111111 Z M136.090909,25.1111111 L136.090909,20.1904762 L137.681818,20.1904762 L137.681818,25.1111111 L136.090909,25.1111111 Z M119.386364,24.3174603 L119.386364,22.2539683 L115.568182,22.2539683 L115.568182,18.9206349 L119.386364,18.9206349 L119.386364,17.015873 L115.568182,17.015873 L115.568182,14.952381 L119.386364,14.952381 L119.386364,13.047619 L109.681818,13.047619 L109.681818,14.952381 L112.863636,14.952381 L112.863636,17.015873 L109.681818,17.015873 L109.681818,18.9206349 L112.863636,18.9206349 L112.863636,22.2539683 L109.681818,22.2539683 L109.681818,24.4761905 L119.386364,24.4761905 L119.386364,24.3174603 Z M119.068182,21.6190476 L119.068182,19.7142857 L116.681818,19.7142857 L116.681818,21.6190476 L119.068182,21.6190476 Z M84.8636364,20.984127 L84.8636364,15.2698413 L89.3181818,15.2698413 L89.3181818,20.984127 L84.8636364,20.984127 Z M92.0227273,20.984127 L92.0227273,15.2698413 L96.4772727,15.2698413 L96.4772727,20.984127 L92.0227273,20.984127 Z M132.431818,17.968254 L132.431818,13.8412698 L133.704545,13.8412698 L133.704545,17.968254 L132.431818,17.968254 Z M136.409091,17.968254 L136.409091,13.8412698 L137.681818,13.8412698 L137.681818,17.968254 L136.409091,17.968254 Z M91.7045455,34.3174603 L90.75,34.952381 C90.2727273,34.3174603 89.6363636,33.8412698 89,33.5238095 C88.3636364,33.2063492 87.5681818,33.047619 86.7727273,33.047619 C85.8181818,33.047619 85.0227273,33.2063492 84.2272727,33.6825397 C83.4318182,34.1587302 82.7954545,34.6349206 82.4772727,35.4285714 C82,36.2222222 81.8409091,37.015873 81.8409091,37.968254 C81.8409091,39.3968254 82.3181818,40.5079365 83.2727273,41.4603175 C84.2272727,42.4126984 85.5,42.8888889 86.9318182,42.8888889 C88.5227273,42.8888889 89.9545455,42.2539683 90.9090909,40.984127 L91.8636364,41.6190476 C91.2272727,42.4126984 90.5909091,42.8888889 89.7954545,43.3650794 C89,43.8412698 88.0454545,44 86.9318182,44 C84.8636364,44 83.2727273,43.3650794 82.1590909,41.9365079 C81.2045455,40.8253968 80.7272727,39.3968254 80.7272727,37.8095238 C80.7272727,36.0634921 81.3636364,34.7936508 82.4772727,33.5238095 C83.5909091,32.4126984 85.1818182,31.7777778 86.9318182,31.7777778 C88.0454545,31.7777778 89,31.9365079 89.7954545,32.4126984 C90.4318182,32.8888889 91.0681818,33.5238095 91.7045455,34.3174603 Z M93.9318182,32.0952381 L95.0454545,32.0952381 L95.0454545,36.8571429 L100.931818,36.8571429 L100.931818,32.0952381 L102.045455,32.0952381 L102.045455,43.5238095 L100.931818,43.5238095 L100.931818,38.1269841 L95.0454545,38.1269841 L95.0454545,43.6825397 L93.9318182,43.6825397 L93.9318182,32.0952381 Z M104.75,32.0952381 L105.863636,32.0952381 L105.863636,43.5238095 L104.75,43.5238095 L104.75,32.0952381 Z M108.568182,43.5238095 L108.568182,32.0952381 L108.886364,32.0952381 L116.522727,40.8253968 L116.522727,32.0952381 L117.636364,32.0952381 L117.636364,43.5238095 L117.318182,43.5238095 L109.681818,34.952381 L109.681818,43.6825397 L108.568182,43.6825397 L108.568182,43.5238095 Z M124.954545,32.0952381 L130.363636,43.5238095 L129.090909,43.5238095 L127.340909,39.7142857 L122.409091,39.7142857 L120.5,43.5238095 L119.227273,43.5238095 L124.636364,32.0952381 L124.954545,32.0952381 Z M124.795455,34.6349206 L122.886364,38.7619048 L126.863636,38.7619048 L124.795455,34.6349206 Z M136.568182,32.0952381 L138.795455,32.0952381 C140.068182,32.0952381 141.022727,32.0952381 141.5,32.2539683 C142.136364,32.4126984 142.613636,32.7301587 143.090909,33.2063492 C143.568182,33.6825397 143.727273,34.3174603 143.727273,35.1111111 C143.727273,35.9047619 143.568182,36.5396825 143.090909,37.015873 C142.613636,37.4920635 142.136364,37.8095238 141.340909,37.968254 C140.863636,38.1269841 139.909091,38.1269841 138.477273,38.1269841 L137.681818,38.1269841 L137.681818,43.5238095 L136.568182,43.5238095 L136.568182,32.0952381 Z M137.681818,33.2063492 L137.681818,37.015873 L139.590909,37.015873 C140.386364,37.015873 141.022727,37.015873 141.340909,36.8571429 C141.659091,36.6984127 141.977273,36.5396825 142.136364,36.2222222 C142.295455,35.9047619 142.454545,35.5873016 142.454545,35.1111111 C142.454545,34.7936508 142.295455,34.3174603 142.136364,34 C141.977273,33.6825397 141.659091,33.5238095 141.340909,33.3650794 C141.022727,33.2063492 140.386364,33.2063492 139.590909,33.2063492 L137.681818,33.2063492 Z M151.522727,31.9365079 C153.272727,31.9365079 154.704545,32.5714286 155.818182,33.6825397 C156.931818,34.7936508 157.568182,36.2222222 157.568182,37.968254 C157.568182,39.7142857 156.931818,41.1428571 155.818182,42.2539683 C154.704545,43.3650794 153.272727,44 151.522727,44 C149.772727,44 148.340909,43.3650794 147.227273,42.2539683 C146.113636,41.1428571 145.477273,39.7142857 145.477273,37.968254 C145.477273,36.8571429 145.795455,35.9047619 146.272727,34.952381 C146.75,34 147.545455,33.2063492 148.5,32.7301587 C149.454545,32.0952381 150.409091,31.9365079 151.522727,31.9365079 Z M151.522727,33.047619 C150.727273,33.047619 149.931818,33.2063492 149.136364,33.6825397 C148.340909,34.1587302 147.704545,34.7936508 147.386364,35.4285714 C146.909091,36.2222222 146.75,37.015873 146.75,37.968254 C146.75,39.3968254 147.227273,40.5079365 148.181818,41.4603175 C149.136364,42.4126984 150.25,42.8888889 151.522727,42.8888889 C152.477273,42.8888889 153.272727,42.7301587 154.068182,42.2539683 C154.863636,41.7777778 155.340909,41.3015873 155.818182,40.5079365 C156.295455,39.7142857 156.454545,38.9206349 156.454545,37.968254 C156.454545,37.015873 156.295455,36.2222222 155.818182,35.4285714 C155.340909,34.6349206 154.863636,34.1587302 154.068182,33.6825397 C153.272727,33.2063492 152.318182,33.047619 151.522727,33.047619 Z M158.681818,41.4603175 L159.636364,40.8253968 C160.272727,42.0952381 161.068182,42.7301587 162.022727,42.7301587 C162.340909,42.7301587 162.818182,42.5714286 163.136364,42.4126984 C163.454545,42.2539683 163.772727,41.9365079 163.931818,41.6190476 C164.090909,41.3015873 164.25,40.984127 164.25,40.6666667 C164.25,40.3492063 164.090909,39.8730159 163.931818,39.5555556 C163.613636,39.0793651 162.977273,38.4444444 162.022727,37.6507937 C161.068182,36.8571429 160.431818,36.3809524 160.272727,36.0634921 C159.795455,35.5873016 159.636364,34.952381 159.636364,34.3174603 C159.636364,33.8412698 159.795455,33.3650794 159.954545,32.8888889 C160.113636,32.4126984 160.590909,32.0952381 160.909091,31.9365079 C161.386364,31.7777778 161.863636,31.6190476 162.340909,31.6190476 C162.818182,31.6190476 163.454545,31.7777778 163.931818,32.0952381 C164.409091,32.4126984 164.886364,32.8888889 165.363636,33.5238095 L164.409091,34.1587302 C163.931818,33.5238095 163.613636,33.2063492 163.295455,33.047619 C162.977273,32.8888889 162.659091,32.7301587 162.340909,32.7301587 C161.863636,32.7301587 161.545455,32.8888889 161.227273,33.2063492 C160.909091,33.5238095 160.75,33.8412698 160.75,34.3174603 C160.75,34.6349206 160.75,34.7936508 160.909091,35.1111111 C161.068182,35.2698413 161.227273,35.5873016 161.545455,35.9047619 C161.704545,36.0634921 162.181818,36.3809524 162.977273,37.015873 C163.931818,37.8095238 164.727273,38.4444444 165.045455,38.9206349 C165.363636,39.5555556 165.522727,40.031746 165.522727,40.6666667 C165.522727,41.4603175 165.204545,42.2539683 164.568182,42.8888889 C163.931818,43.5238095 163.136364,43.8412698 162.340909,43.8412698 C161.704545,43.8412698 161.068182,43.6825397 160.431818,43.2063492 C159.636364,42.8888889 159.159091,42.4126984 158.681818,41.4603175 Z M166.636364,33.2063492 L166.636364,32.0952381 L173,32.0952381 L173,33.2063492 L170.454545,33.2063492 L170.454545,43.5238095 L169.340909,43.5238095 L169.340909,33.2063492 L166.636364,33.2063492 Z" id="path" fill="#FFFFFF" fill-rule="nonzero"></path>
    </g>
</svg>