<?xml version="1.0" encoding="UTF-8"?>
<svg width="48px" height="48px" viewBox="0 0 48 48" version="1.1" xmlns="http://www.w3.org/2000/svg" xmlns:xlink="http://www.w3.org/1999/xlink">
    <!-- Generator: Sketch 50.2 (55047) - http://www.bohemiancoding.com/sketch -->
    <title>PSBC</title>
    <desc>Created with Sketch.</desc>
    <defs></defs>
    <g id="PSBC" stroke="none" stroke-width="1" fill="none" fill-rule="evenodd">
        <g id="中国邮政" transform="translate(3.000000, 4.000000)" fill="#108C3E" fill-rule="nonzero">
            <path d="M27.6144063,39.9862139 L30.2819643,28.1219774 L36.3580685,28.1219774 L37.0990569,24.0671118 L28.5035923,24.0671118 L25.8360343,36.0815285 L10.1270817,36.0815285 L10.5716747,33.9790056 L24.3540576,33.9790056 L27.0216156,21.9645889 L37.5436499,21.9645889 L38.2846382,18.2100836 L25.2432436,18.2100836 L22.7238833,30.0743201 L11.3126631,30.0743201 L11.757256,28.2721576 L20.7973136,28.2721576 L22.8720809,18.2100836 L13.8320233,18.2100836 L14.2766163,16.1075607 L28.0589993,16.1075607 L29.6891736,9.95017217 L40.0630102,9.95017217 L40.8039985,6.1956669 L27.9108016,6.1956669 L26.1324296,12.2028753 L15.1658024,12.2028753 L15.758593,9.95017217 L24.6504529,9.95017217 L26.428825,4.09314399 L41.2485915,4.09314399 L41.9895799,0.0382783697 L24.3540576,0.0382783697 L22.8720809,6.0454867 L13.8320233,6.0454867 L11.1644653,18.0599034 L2.12440775,18.0599034 L0.0496404378,27.9717972 L9.53429101,27.9717972 L7.16312838,39.9862139 L27.6144063,39.9862139 Z M3.45818675,23.9169316 L3.90277973,21.9645889 L10.7198724,21.9645889 L10.1270817,24.0671118 L3.45818675,24.0671118 L3.45818675,23.9169316 Z M12.9428374,23.9169316 L13.3874304,21.8144087 L20.204523,21.8144087 L19.75993,23.9169316 L12.9428374,23.9169316 Z" id="path"></path>
        </g>
    </g>
</svg>