<?xml version="1.0" encoding="UTF-8"?>
<svg width="206px" height="48px" viewBox="0 0 206 48" version="1.1" xmlns="http://www.w3.org/2000/svg" xmlns:xlink="http://www.w3.org/1999/xlink">
    <!-- Generator: Sketch 51 (57462) - http://www.bohemiancoding.com/sketch -->
    <title>SPDB-full</title>
    <desc>Created with Sketch.</desc>
    <defs></defs>
    <g id="SPDB-full" stroke="none" stroke-width="1" fill="none" fill-rule="evenodd">
        <rect id="@bound" x="0" y="0" width="206" height="48"></rect>
        <path d="M94.4018161,16.2791351 C94.4018161,16.2791351 93.2099886,20.6678373 91.1668558,23.7561832 L90.9965948,23.9187277 L92.8694665,25.2190839 L93.0397276,25.0565394 C95.2531215,21.8056489 96.4449489,17.4169468 96.4449489,17.4169468 L96.4449489,17.2544022 L94.4018161,16.1165906 L94.4018161,16.2791351 Z M94.2315551,15.4664125 L94.4018161,15.628957 L95.9341657,14.3286008 L95.9341657,14.1660563 C94.061294,12.0529775 92.1884222,11.0777103 92.0181612,10.9151658 L91.8479001,10.9151658 L90.3155505,12.215522 L90.4858116,12.3780665 C90.4858116,12.215522 93.2099886,14.0035118 94.2315551,15.4664125 Z M109.044268,8.80208699 C108.022701,7.33918627 106.490352,6.36391913 106.490352,6.36391913 L106.320091,6.2013746 L104.61748,7.33918627 L104.787741,7.5017308 C104.787741,7.5017308 105.639047,8.31445342 106.320091,8.80208699 L104.106697,8.80208699 L104.106697,6.03883008 L101.893303,6.03883008 L101.893303,8.80208699 L95.9341657,8.80208699 L95.9341657,9.12717604 C94.5720772,7.82681985 93.2099886,7.01409723 93.2099886,7.01409723 L93.0397276,7.01409723 L91.3371169,8.31445342 L91.507378,8.47699794 C91.507378,8.47699794 93.8910329,10.1024432 95.2531215,11.5653439 L95.4233825,11.7278884 L96.61521,10.9151658 L101.893303,10.9151658 L101.893303,12.0529775 L96.9557321,12.0529775 L96.9557321,25.544173 L98.9988649,25.544173 L98.9988649,20.6678373 L101.893303,20.6678373 L101.893303,25.0565394 L104.106697,25.0565394 L104.106697,20.6678373 L107.001135,20.6678373 L107.001135,23.4310942 C107.001135,23.4310942 106.660613,23.5936387 105.128263,23.5936387 L104.787741,23.5936387 L105.468785,25.544173 L106.830874,25.544173 C107.341657,25.544173 107.85244,25.3816285 108.192963,25.0565394 C108.533485,24.7314504 108.874007,24.2438168 108.874007,23.7561832 L108.874007,12.0529775 L103.936436,12.0529775 L103.936436,10.9151658 L110.576617,10.9151658 L110.576617,8.96463152 L109.044268,8.80208699 Z M101.893303,18.5547584 L98.9988649,18.5547584 L98.9988649,17.0918577 L101.893303,17.0918577 L101.893303,18.5547584 Z M101.893303,15.1413234 L98.9988649,15.1413234 L98.9988649,13.8409672 L101.893303,13.8409672 L101.893303,15.1413234 Z M107.001135,18.5547584 L104.106697,18.5547584 L104.106697,17.0918577 L107.001135,17.0918577 L107.001135,18.5547584 Z M107.001135,15.1413234 L104.106697,15.1413234 L104.106697,13.8409672 L107.001135,13.8409672 L107.001135,15.1413234 Z M126.240636,20.8303818 C127.432463,19.5300256 128.283768,18.0671249 129.135074,16.2791351 L129.135074,14.8162344 L121.813848,14.8162344 C121.984109,14.4911453 122.15437,13.8409672 122.324631,13.5158782 L132.029512,13.5158782 L132.029512,11.5653439 L122.665153,11.5653439 C122.835414,10.7526213 123.175936,9.28972056 123.346198,7.17664175 L123.346198,7.01409723 L121.303065,6.52646365 L121.303065,6.68900818 C121.132804,8.80208699 120.792281,10.4275322 120.451759,11.5653439 L117.38706,11.5653439 C117.557321,11.0777103 118.91941,7.82681985 118.91941,7.82681985 L117.046538,6.8515527 L115.003405,11.890433 L115.003405,13.5158782 L119.940976,13.5158782 C118.91941,17.7420358 116.365494,20.9929263 112.790011,23.1060051 L112.61975,23.2685496 L114.1521,24.8939949 L114.322361,24.7314504 C117.557321,22.455827 119.600454,20.0176592 120.792281,17.2544022 C121.473326,18.5547584 122.494892,19.8551146 123.346198,20.8303818 C121.813848,22.130738 119.600454,23.1060051 116.876277,23.7561832 L116.535755,23.7561832 L117.727582,25.3816285 L117.897843,25.3816285 C120.62202,24.8939949 122.835414,23.7561832 124.708286,22.130738 C126.240636,23.2685496 127.432463,23.9187277 128.113507,24.2438168 C129.135074,24.7314504 130.15664,25.0565394 131.348468,25.3816285 L131.518729,25.3816285 L132.880817,23.7561832 L132.540295,23.7561832 C130.326901,23.1060051 128.113507,22.130738 126.240636,20.8303818 Z M124.878547,19.3674811 C124.197503,18.717303 123.516459,17.7420358 122.835414,16.4416796 L126.92168,16.4416796 C126.410897,17.5794913 125.729852,18.5547584 124.878547,19.3674811 Z M141.053348,14.0035118 L143.437003,14.0035118 L143.437003,12.0529775 L139.180477,12.0529775 C139.350738,11.5653439 139.520999,11.2402549 139.69126,10.9151658 L143.607264,10.9151658 L143.607264,8.96463152 L140.202043,8.96463152 C140.542565,7.82681985 140.542565,7.01409723 140.542565,6.8515527 L140.542565,6.68900818 L138.669694,6.2013746 L138.669694,6.36391913 C138.329171,9.93989866 137.137344,12.540611 135.094211,14.1660563 L134.92395,14.3286008 L136.286039,15.7915015 L136.115778,15.7915015 L136.115778,17.7420358 L139.010216,17.7420358 L139.010216,22.6183715 C139.010216,23.1060051 139.010216,23.4310942 138.839955,23.5936387 L138.669694,23.7561832 L139.861521,25.544173 L143.777526,23.5936387 L143.777526,21.6431044 C143.777526,21.6431044 141.564132,22.6183715 141.053348,22.9434606 L141.053348,18.0671249 L143.777526,18.0671249 L143.777526,15.7915015 L141.053348,15.7915015 L141.053348,14.0035118 Z M139.010216,15.7915015 L136.286039,15.7915015 C136.967083,15.1413234 137.648127,14.6536899 137.988649,14.1660563 L138.839955,14.1660563 L138.839955,15.7915015 L139.010216,15.7915015 Z M151.098751,20.6678373 C152.290579,20.0176592 153.312145,19.042392 154.163451,17.9045803 L154.333712,17.7420358 L152.801362,16.6042242 L153.141884,16.6042242 L153.141884,7.17664175 L144.118048,7.17664175 L144.118048,22.7809161 C144.118048,23.2685496 143.947787,23.4310942 143.947787,23.5936387 L143.777526,23.7561832 L144.799092,25.544173 L149.566402,23.9187277 L149.566402,21.9681934 C149.566402,21.9681934 146.842225,22.9434606 146.331442,22.9434606 L146.331442,16.7667687 L147.69353,16.7667687 C147.863791,18.5547584 148.544835,20.3427482 149.566402,21.8056489 C150.587968,23.4310942 152.120318,24.4063613 154.163451,24.8939949 L154.333712,24.8939949 L155.6958,23.1060051 L155.355278,23.1060051 C153.312145,22.6183715 151.950057,21.8056489 151.098751,20.6678373 Z M146.16118,9.12717604 L151.098751,9.12717604 L151.098751,10.9151658 L146.16118,10.9151658 L146.16118,9.12717604 Z M146.16118,12.7031556 L151.098751,12.7031556 L151.098751,14.6536899 L146.16118,14.6536899 L146.16118,12.7031556 Z M150.247446,19.042392 C149.906924,18.3922139 149.736663,17.5794913 149.566402,16.6042242 L152.631101,16.6042242 C151.779796,17.9045803 151.098751,18.5547584 150.247446,19.042392 Z M160.292849,13.0282446 C161.99546,11.890433 163.868331,9.93989866 165.741203,7.33918627 L165.911464,7.17664175 L164.208854,6.03883008 L164.038593,6.2013746 C162.506243,8.47699794 160.633371,10.2649877 158.590238,11.7278884 L158.419977,11.890433 L160.292849,13.0282446 Z M166.422247,12.7031556 L166.422247,14.6536899 L172.040863,14.6536899 L172.040863,23.1060051 C172.040863,23.2685496 172.040863,23.2685496 171.870602,23.2685496 C171.870602,23.2685496 171.530079,23.4310942 170.849035,23.4310942 L168.46538,23.4310942 L169.146425,25.3816285 L170.508513,25.3816285 C171.530079,25.3816285 172.211124,25.3816285 172.721907,25.2190839 C173.23269,25.0565394 173.573212,24.8939949 173.913734,24.5689058 C174.254257,24.2438168 174.254257,23.7561832 174.254257,23.2685496 L174.254257,14.6536899 L178,14.6536899 L178,12.7031556 L166.422247,12.7031556 Z M166.76277,12.0529775 L165.060159,10.9151658 L164.889898,11.0777103 C162.846765,14.0035118 160.633371,15.9540461 158.249716,17.2544022 L158.079455,17.4169468 L159.611805,19.042392 C159.611805,19.042392 161.314415,17.9045803 161.825199,17.5794913 L161.825199,25.2190839 L163.868331,25.2190839 L163.868331,15.628957 C165.400681,14.0035118 166.251986,12.8657001 166.76277,12.0529775 Z M176.637911,9.61480961 L176.637911,7.66427532 L166.933031,7.66427532 L166.933031,9.61480961 L176.637911,9.61480961 Z M129.475596,11.2402549 L129.645857,11.4027994 L131.348468,10.2649877 L131.178207,10.1024432 C129.475596,7.82681985 127.602724,6.52646365 127.602724,6.52646365 L127.432463,6.52646365 L125.729852,7.66427532 L125.900114,7.82681985 C125.900114,7.66427532 128.283768,9.61480961 129.475596,11.2402549 Z M161.144154,39.6855466 L160.973893,39.3604575 C160.633371,39.0353685 154.163451,29.9328751 153.652667,29.282697 L151.609535,29.282697 L151.609535,41.3109918 L152.971623,41.3109918 L152.971623,30.9081423 L153.141884,31.2332313 C153.482406,31.5583204 159.952327,40.6608137 160.46311,41.3109918 L162.335982,41.3109918 L162.335982,29.282697 L160.973893,29.282697 L160.973893,39.6855466 L161.144154,39.6855466 Z M167.954597,34.8092109 C167.954597,34.6466663 173.062429,30.0954197 174.254257,29.1201525 L172.381385,29.1201525 C171.870602,29.4452416 166.592509,34.1590328 166.422247,34.4841218 L166.081725,34.6466663 L166.081725,29.1201525 L164.719637,29.1201525 L164.719637,41.1484473 L166.081725,41.1484473 L166.081725,34.8092109 L166.251986,34.9717554 C166.422247,35.2968444 172.040863,40.6608137 172.551646,41.1484473 L174.594779,41.1484473 C173.402951,40.1731802 167.954597,34.8092109 167.954597,34.8092109 Z M97.9772985,34.6466663 C96.4449489,34.1590328 95.0828604,33.8339437 95.0828604,32.2084985 C95.0828604,31.3957758 95.5936436,30.0954197 97.8070375,30.0954197 C98.8286039,30.0954197 99.6799092,30.4205087 100.190692,31.0706868 C100.190692,31.0706868 101.212259,30.2579642 101.38252,30.0954197 C100.531215,29.282697 99.5096481,28.7950635 97.9772985,28.7950635 C94.9125993,28.7950635 93.7207719,30.7455978 93.7207719,32.0459539 C93.7207719,34.6466663 95.7639047,35.2968444 97.4665153,35.784478 C98.8286039,36.2721116 100.190692,36.5972006 100.190692,37.8975568 C100.190692,39.5230021 98.4880817,40.1731802 97.4665153,40.1731802 C96.2746879,40.1731802 95.2531215,39.6855466 94.7423383,38.872824 C94.5720772,39.0353685 93.7207719,39.6855466 93.5505108,39.8480911 C94.4018161,40.8233583 95.7639047,41.3109918 97.4665153,41.3109918 C100.020431,41.3109918 101.723042,39.8480911 101.723042,37.5724678 C101.38252,35.6219335 99.6799092,35.1342999 97.9772985,34.6466663 Z M107.682179,29.282697 L103.255392,29.282697 L103.255392,41.3109918 L104.787741,41.3109918 L104.787741,35.784478 L107.85244,35.784478 C111.427923,35.784478 111.768445,33.5088547 111.768445,32.5335875 C111.768445,31.5583204 111.257662,29.282697 107.682179,29.282697 Z M107.171396,34.6466663 L104.787741,34.6466663 L104.787741,30.2579642 L107.341657,30.2579642 C108.022701,30.2579642 110.236095,30.2579642 110.236095,32.371043 C110.236095,34.6466663 108.022701,34.6466663 107.171396,34.6466663 Z M117.38706,29.282697 L112.960272,29.282697 L112.960272,41.3109918 L117.046538,41.3109918 C119.089671,41.3109918 120.962543,40.6608137 122.15437,39.5230021 C123.346198,38.3851904 123.856981,36.9222897 123.856981,35.2968444 C124.027242,34.6466663 123.856981,29.282697 117.38706,29.282697 Z M116.876277,40.0106356 L114.492622,40.0106356 L114.492622,30.4205087 L117.38706,30.4205087 C122.494892,30.4205087 122.665153,34.6466663 122.665153,35.1342999 C122.494892,38.5477349 119.600454,40.0106356 116.876277,40.0106356 Z M134.753689,34.8092109 C136.115778,34.3215773 136.796822,33.3463101 136.796822,32.2084985 C136.796822,30.4205087 135.434733,29.282697 133.051078,29.282697 L128.794552,29.282697 L128.794552,41.3109918 L133.051078,41.3109918 C135.604994,41.3109918 137.477866,40.0106356 137.477866,38.0601013 C137.477866,36.4346561 136.286039,34.8092109 134.753689,34.8092109 Z M130.15664,30.2579642 L133.051078,30.2579642 C134.753689,30.2579642 135.264472,31.2332313 135.264472,32.2084985 C135.264472,33.5088547 134.242906,34.1590328 132.710556,34.1590328 L130.15664,34.1590328 L130.15664,30.2579642 Z M133.051078,40.1731802 L130.326901,40.1731802 L130.326901,35.459389 L133.051078,35.459389 C134.92395,35.459389 135.945516,36.2721116 135.945516,37.8975568 C135.945516,40.0106356 133.732123,40.1731802 133.051078,40.1731802 Z M143.437003,29.282697 C143.437003,29.4452416 137.988649,40.9859028 137.818388,41.3109918 L139.520999,41.3109918 C139.520999,41.1484473 140.883087,38.2226459 140.883087,38.2226459 L147.353008,38.2226459 C147.353008,38.2226459 148.544835,41.1484473 148.715096,41.3109918 L150.417707,41.3109918 C150.247446,40.9859028 145.139614,29.4452416 144.969353,29.282697 L143.437003,29.282697 Z M141.393871,37.0848342 L144.118048,30.7455978 L146.842225,37.0848342 L141.393871,37.0848342 Z M60.5198638,19.2049365 C63.9250851,16.6042242 67.6708286,16.7667687 69.0329171,16.9293132 C68.5221339,15.4664125 66.138479,10.7526213 59.3280363,10.7526213 C55.4120318,10.7526213 52.8581158,12.7031556 51.4960272,14.3286008 C49.7934166,16.2791351 49.2826334,18.5547584 49.2826334,19.8551146 C48.7718502,25.544173 45.5368899,28.3074299 45.1963678,28.6325189 C41.6208854,31.3957758 38.045403,31.0706868 36.6833144,30.7455978 C37.3643587,32.2084985 39.7480136,37.0848342 46.5584563,36.9222897 C49.2826334,36.7597451 51.6662883,35.784478 53.7094211,33.8339437 C55.922815,31.7208649 56.4335982,28.3074299 56.6038593,27.3321627 C57.1146425,22.6183715 59.4982974,20.0176592 60.5198638,19.2049365 Z M77.7162316,9.93989866 C77.7162316,8.80208699 76.8649262,8.15190889 76.8649262,8.15190889 L71.5868331,4.25084032 C71.5868331,4.25084032 70.5652667,3.43811769 70.5652667,4.73847389 L70.5652667,20.6678373 C70.5652667,21.8056489 70.2247446,25.3816285 66.9897843,27.9823408 C63.0737798,31.0706868 58.9875142,30.9081423 57.6254257,30.5830532 C58.3064699,32.0459539 61.2009081,36.7597451 67.8410897,36.7597451 C73.800227,36.7597451 77.8864926,31.7208649 77.8864926,27.0070737 L77.8864926,9.93989866 L77.7162316,9.93989866 Z M38.8967083,19.5300256 C42.8127128,16.4416796 46.8989784,16.6042242 48.261067,16.9293132 C47.5800227,15.4664125 44.6855846,10.7526213 38.045403,10.7526213 C32.0862656,10.7526213 28,15.7915015 28,20.5052927 L28,38.0601013 C28,39.197913 28.8513053,39.8480911 28.8513053,39.8480911 L34.1293984,43.7491597 C34.1293984,43.7491597 35.1509648,44.5618823 35.1509648,43.2615261 L35.1509648,26.8445292 C35.4914869,25.7067175 35.661748,22.130738 38.8967083,19.5300256 Z" id="path" fill="#FFFFFF" fill-rule="nonzero"></path>
    </g>
</svg>