<svg height="40" viewBox="0 0 40 40" width="40" xmlns="http://www.w3.org/2000/svg" xmlns:xlink="http://www.w3.org/1999/xlink"><defs><filter id="a" height="106.3%" width="102.8%" x="-1.4%" y="-3.2%"><feOffset in="SourceAlpha" result="shadowOffsetOuter1"/><feGaussianBlur in="shadowOffsetOuter1" result="shadowBlurOuter1" stdDeviation="3"/><feColorMatrix in="shadowBlurOuter1" result="shadowMatrixOuter1" values="0 0 0 0 0 0 0 0 0 0 0 0 0 0 0 0 0 0 0.05 0"/><feMerge><feMergeNode in="shadowMatrixOuter1"/><feMergeNode in="SourceGraphic"/></feMerge></filter><path id="b" d="m35.556 20c0 8.591-6.965 15.556-15.556 15.556s-15.556-6.966-15.556-15.556 6.966-15.556 15.556-15.556 15.556 6.966 15.556 15.556zm-15.556-9.333c-5.154 0-9.333 3.962-9.333 8.85h3.733c0-2.932 2.508-5.31 5.6-5.31s5.6 2.378 5.6 5.31c0 2.931-2.508 5.31-5.6 5.31v-2.531l-5.476 4.254 5.476 4.34v-2.522c5.154 0 9.333-3.963 9.333-8.85 0-4.888-4.179-8.85-9.333-8.85z"/><mask id="c" fill="#fff"><use fill="none" xlink:href="#b"/></mask></defs><g fill="none" fill-rule="evenodd" filter="url(#a)"><path d="m0 0h40v40h-40z"/><use fill="#262626" xlink:href="#b"/><g fill="#595959" mask="url(#c)"><path d="m0 0h40v40h-40z"/></g></g></svg>