<svg xmlns="http://www.w3.org/2000/svg" width="40" height="40" viewBox="0 0 40 40">
    <path d="M23.524 20L35.49 8.035c.329-.33.51-.769.511-1.237 0-.469-.182-.909-.511-1.238L34.44 4.512c-.33-.33-.769-.511-1.238-.511-.468 0-.907.18-1.237.511L20 16.476 8.036 4.512c-.33-.33-.77-.511-1.238-.511-.468 0-.908.18-1.237.511L4.512 5.56c-.683.683-.683 1.793 0 2.475L16.477 20 4.512 31.964c-.33.33-.51.77-.51 1.238 0 .469.18.908.51 1.238l1.049 1.048c.329.33.769.511 1.237.511.469 0 .908-.181 1.237-.511L20 23.524l11.965 11.964c.33.33.769.511 1.237.511.469 0 .908-.181 1.238-.511l1.049-1.048c.329-.33.51-.77.51-1.238 0-.468-.181-.908-.51-1.237L23.524 20z"/>
</svg>
