<svg xmlns="http://www.w3.org/2000/svg" width="40" height="40" viewBox="0 0 40 40">
    <g stroke="#000" stroke-width=".684">
        <path d="M29.142 4.101c-.441-.442-1.157-.443-1.599-.002L13.98 17.628l-4.893-5.316c-.423-.459-1.138-.488-1.598-.066-.46.423-.489 1.139-.066 1.598l5.69 6.18c.21.227.501.359.809.365h.024c.299 0 .586-.118.798-.33L29.14 5.7c.442-.44.443-1.157.002-1.599z" transform="translate(5 5)"/>
        <path d="M28.87 13.87c-.625 0-1.131.505-1.131 1.13 0 7.024-5.715 12.739-12.739 12.739-7.024 0-12.739-5.715-12.739-12.739C2.261 7.976 7.976 2.261 15 2.261c.624 0 1.13-.506 1.13-1.13C16.13.506 15.625 0 15 0 6.729 0 0 6.729 0 15c0 8.27 6.729 15 15 15 8.27 0 15-6.73 15-15 0-.624-.506-1.13-1.13-1.13z" transform="translate(5 5)"/>
    </g>
</svg>
