<?xml version="1.0" encoding="UTF-8"?>
<svg width="34px" height="34px" viewBox="0 0 34 34" version="1.1" xmlns="http://www.w3.org/2000/svg" xmlns:xlink="http://www.w3.org/1999/xlink">
    <!-- Generator: Sketch 64 (93537) - https://sketch.com -->
    <title>icon-deposit</title>
    <desc>Created with Sketch.</desc>
    <g id="Page-1" stroke="none" stroke-width="1" fill="none" fill-rule="evenodd">
        <g id="icon-deposit" fill="#000000">
            <path d="M17,0 C26.389,0 34,7.611 34,17 C34,19.632 33.402,22.124 32.334,24.348 L32.334,18.167 L25.667,18.167 L25.666,25.577 L22.322,25.579 L26.508,31.095 C23.794,32.929 20.522,34 17,34 C7.611,34 0,26.389 0,17 C0,7.611 7.611,0 17,0 Z M31.5,19 L31.5,25.877 C30.373,27.715 28.907,29.322 27.188,30.61 L24,26.412 L26.5,26.411 L26.5,19 L31.5,19 Z M17.825,5 L16.068,5 L16.068,7.163 C14.525,7.268 13.274,7.663 12.262,8.376 C10.905,9.299 10.24,10.618 10.24,12.358 C10.24,14.31 11.144,15.787 13.008,16.789 L16.068,17.897 L16.068,24.068 C15.243,23.963 14.605,23.698 14.152,23.277 C13.54,22.697 13.194,21.695 13.087,20.323 L10,20.323 C10.16,22.486 10.798,24.095 11.916,25.149 C12.875,26.046 14.259,26.547 16.068,26.679 L16.068,29 L17.825,29 L17.825,26.68 C19.449,26.574 20.779,26.178 21.845,25.492 C23.281,24.542 24,23.145 24,21.272 C24,19.347 23.068,17.87 21.232,16.842 C21.072,16.736 19.928,16.314 17.825,15.549 L17.825,9.747 C18.49,9.827 19.023,10.011 19.422,10.301 C20.061,10.749 20.46,11.514 20.62,12.622 L23.654,12.622 C23.388,10.697 22.722,9.299 21.631,8.455 C20.7,7.716 19.422,7.268 17.825,7.163 L17.825,5 L17.825,5 Z M17.825,18.53 C17.932,18.556 18.011,18.582 18.118,18.635 C19.954,19.268 20.886,20.191 20.886,21.378 C20.886,22.248 20.513,22.934 19.768,23.408 C19.236,23.752 18.57,23.963 17.825,24.068 L17.825,18.53 Z M16.068,9.72 L16.068,14.89 C14.258,14.204 13.354,13.36 13.354,12.358 C13.354,11.382 13.7,10.67 14.418,10.248 C14.818,9.985 15.376,9.8 16.068,9.721 L16.068,9.72 Z" id="Shape"></path>
            <polygon id="Path" points="31.5 19 31.5 26.411 34 26.411 29 33 24 26.412 26.5 26.411 26.5 19"></polygon>
        </g>
    </g>
</svg>