<svg xmlns="http://www.w3.org/2000/svg" width="40" height="40" viewBox="0 0 40 40">
    <g>
        <path d="M10.113 5.585h6.644c.965 0 1.747-.734 1.747-1.638 0-.905-.782-1.638-1.747-1.638h-.86C15.897 1.034 14.795 0 13.435 0s-2.462 1.034-2.462 2.309h-.86c-.965 0-1.747.733-1.747 1.638 0 .904.782 1.638 1.747 1.638zM25.805 7.061c-1.423 0-2.58 1.084-2.58 2.417v.686h5.16v-.686c0-1.333-1.157-2.417-2.58-2.417zM23.744 27.19l1.451 2.282c.128.2.36.324.61.324s.482-.123.61-.324l1.451-2.281c.325-.51.504-1.092.519-1.685h-5.16c.016.593.194 1.174.519 1.685zM23.224 12.153L28.386 12.153 28.386 23.517 23.224 23.517z" transform="translate(6 3)"/>
        <path d="M23.67 30.318l-1.451-2.28c-.503-.791-.769-1.695-.769-2.614V9.478c0-2.246 1.954-4.074 4.355-4.074.334 0 .659.035.971.102-.368-1.48-1.79-2.587-3.481-2.587h-2.82c.102.326.158.671.158 1.028 0 2-1.739 3.626-3.876 3.626h-6.645c-2.136 0-3.875-1.627-3.875-3.626 0-.357.055-.702.158-1.028h-2.82C1.604 2.92 0 4.421 0 6.267V30.59c0 1.846 1.604 3.348 3.575 3.348h19.72c1.726 0 3.17-1.152 3.503-2.678-.308.125-.645.193-.992.193-.877 0-1.688-.431-2.136-1.135zM5.627 18.035h11.735c.588 0 1.065.445 1.065.994 0 .55-.477.995-1.065.995H5.627c-.588 0-1.065-.446-1.065-.995 0-.549.477-.994 1.065-.994zm-1.065-2.32c0-.549.477-.994 1.065-.994h10.508c.588 0 1.065.445 1.065.994 0 .55-.477.995-1.065.995H5.627c-.588 0-1.065-.446-1.065-.995zm1.065 5.634h3.86c.587 0 1.064.445 1.064.994 0 .55-.477.995-1.065.995h-3.86c-.587 0-1.064-.446-1.064-.995 0-.549.477-.994 1.065-.994zm10.508 8.617H5.627c-.588 0-1.065-.446-1.065-.995 0-.549.477-.994 1.065-.994h10.508c.588 0 1.065.445 1.065.994 0 .55-.477.995-1.065.995zm2.828-3.315H5.627c-.588 0-1.065-.445-1.065-.994 0-.549.477-.994 1.065-.994h13.336c.588 0 1.064.445 1.064.994 0 .55-.476.994-1.064.994zm0-13.256H5.627c-.588 0-1.065-.445-1.065-.994 0-.549.477-.994 1.065-.994h13.336c.588 0 1.064.445 1.064.994 0 .55-.476.994-1.064.994z" transform="translate(6 3)"/>
    </g>
</svg>
