<?xml version="1.0" encoding="UTF-8"?>
<svg width="24px" height="24px" viewBox="0 0 24 24" version="1.1" xmlns="http://www.w3.org/2000/svg" xmlns:xlink="http://www.w3.org/1999/xlink">
    <!-- Generator: Sketch 51.3 (57544) - http://www.bohemiancoding.com/sketch -->
    <title>icon-lips</title>
    <desc>Created with Sketch.</desc>
    <defs></defs>
    <g id="Compaign" stroke="none" stroke-width="1" fill="none" fill-rule="evenodd">
        <g id="Compaign_-TigerDay1018_0_index" transform="translate(-609.000000, -1071.000000)" fill-rule="nonzero">
            <g id="Content" transform="translate(80.000000, 748.000000)">
                <g id="Group-19" transform="translate(140.000000, 268.000000)">
                    <g id="tr" transform="translate(0.000000, 44.000000)">
                        <g id="列2" transform="translate(180.000000, 0.000000)">
                            <g id="icon-lips" transform="translate(209.000000, 11.000000)">
                                <path d="M18.5691837,8.68681122 C18.5691837,8.68681122 15.372602,4.92951531 11.996301,8.6940051 C8.62091837,4.92984694 5.42346939,8.68681122 5.42346939,8.68681122 C3.76122449,10.374949 2.00454082,11.7031378 2.00454082,11.7031378 C2.30635204,11.9046939 3.60571429,12.9644643 3.60571429,12.9644643 C5.58127551,14.7433418 7.73535714,15.88 7.73535714,15.88 C9.72242347,16.9167347 11.9974745,16.7871429 11.9974745,16.7871429 C11.9974745,16.7871429 14.2725255,16.9164286 16.2595918,15.88 C16.2595918,15.88 18.4136735,14.7430357 20.3892347,12.9644643 C20.3892347,12.9644643 21.6886224,11.9032653 21.9904082,11.7031122 C21.9878316,11.7031122 20.231148,10.374949 18.5692092,8.68678571 L18.5691837,8.68681122 Z" id="Shape" fill="#FE007C"></path>
                                <path d="M7.42787786,8.3157296 C7.52662786,8.14206336 7.29812786,8.5307372 7.40962786,8.34144588 M8.40604592,7.63683673 C8.35681122,7.45367347 8.10770408,7.44561224 7.9619898,7.48045918 C7.65777411,7.5542934 7.3654792,7.67062396 7.09372449,7.82602041 C6.83454082,7.9755102 6.39507653,8.34727041 6.76515306,8.63813776 C7.0655102,8.87428571 7.49285714,8.64331633 7.74283163,8.44260204 C7.87155612,8.33920918 7.99079082,8.22403061 8.10857143,8.10854592 C8.14772959,8.07022959 8.18688776,8.03165816 8.22576531,7.99334184 C8.23326531,7.98931122 8.24507653,7.97665816 8.25081633,7.97262755 C8.3032243,7.93715652 8.34296918,7.88591172 8.36428571,7.82632653 C8.40708028,7.77373228 8.4226519,7.70407573 8.40632653,7.63826531 M14.0000765,15.2830102 C15.0079847,15.4609694 16.1772194,14.9621939 16.7793878,14.1405867 C16.8977551,13.97875 16.6777296,13.8906122 16.5490051,13.8859949 C16.3554592,13.878801 16.1144388,13.9548469 15.9954847,14.1164031 C15.8114993,14.3579171 15.571934,14.5514508 15.2971429,14.6805612 C15.2587415,14.6985884 15.2192857,14.7156718 15.1787755,14.7318112 C15.1640816,14.7378571 15.054949,14.7770153 15.1272449,14.7528316 C15.0803061,14.7683929 15.0324745,14.7816327 14.9832398,14.7945918 C14.9659694,14.7991837 14.826301,14.8259694 14.9121173,14.8121684 C14.8712979,14.8189802 14.8302954,14.8246457 14.7891582,14.8291582 C14.7865561,14.8291582 14.6612755,14.8352041 14.7315561,14.8340561 C14.6914201,14.8340561 14.651284,14.8332908 14.611148,14.8317602 C14.5664201,14.8275085 14.5583673,14.8275085 14.5869898,14.8317602 C14.5610714,14.8282908 14.5352466,14.8240646 14.5095153,14.8190816 C14.3102296,14.7839286 14.0666071,14.8375 13.9159949,14.9780357 C13.791301,15.0932398 13.8166327,15.2510459 13.9977806,15.2830102" id="Shape" fill="#FFFFFF"></path>
                                <path d="M21.9517857,11.6855612 C21.831575,11.6543086 21.711103,11.6240694 21.5903827,11.5948469 C20.6348724,11.3045408 16.3140051,10.0892857 13.618801,10.5851531 C13.618801,10.5851531 12.6566327,10.7435714 12.193852,10.9506122 C12.193852,10.9506122 12.0478571,11.030102 11.9260459,11.0393112 C11.8042092,11.0303827 11.6582143,10.9506122 11.6582143,10.9506122 C11.1954337,10.7435714 10.2332908,10.5851786 10.2332908,10.5851786 C7.5582398,10.0930102 3.28545918,11.3077296 2.28732143,11.6098214 C2.20091837,11.6311224 2.13844388,11.6639541 2.05117347,11.6869898 L2.00451531,11.703699 C2.00451531,11.703699 7.29818878,10.5241071 10.2574745,12.0599235 C10.2574745,12.0599235 11.2285459,12.5347959 11.9942857,12.5166582 C12.7600255,12.5347959 13.7310969,12.0599235 13.7310969,12.0599235 C16.6903827,10.5252806 21.9875,11.7045663 21.9875,11.7045663 L21.9517857,11.6855612 Z" id="Shape" fill="#CC0066"></path>
                                <path d="M21.7107653,11.6239286 C20.7995918,11.3975765 17.0097449,10.520102 14.1126786,10.7352041 C13.6432919,10.7883992 13.1807683,10.8906151 12.7326786,11.0401786 C12.7326786,11.0401786 12.5981888,11.091148 12.4467092,11.1657398 C12.3118595,11.2322538 12.1648953,11.270659 12.0147449,11.2786224 L12.0147449,11.2812245 L11.975,11.2812245 L11.975,11.2786224 C11.8248409,11.2706624 11.6778677,11.2322571 11.5430102,11.1657398 C11.3915561,11.0908673 11.2570408,11.0401786 11.2570408,11.0401786 C10.808673,10.8905479 10.3458548,10.7883312 9.87617347,10.7352041 C6.71933673,10.5010969 2.50387755,11.5645918 2.10762755,11.667398 C2.07364796,11.6800765 2.0382398,11.6907398 2.00451531,11.703699 L2.01834184,11.703699 C5.56859694,10.75625 7.98502551,11.0491071 9.31290816,11.4105357 C9.37566327,11.4306888 9.87158163,11.5931122 10.2447959,11.7658929 C10.5903827,11.938699 11.2302551,12.2232143 11.8396429,12.2900255 C11.8914796,12.2975 11.9459184,12.2940561 11.9989031,12.2992347 C12.0516071,12.2943367 12.106301,12.2975 12.1581378,12.2900255 C12.7675255,12.2231888 13.408852,11.9389796 13.7529847,11.7658929 C14.1273724,11.5931122 14.6221173,11.4309694 14.6848724,11.4105357 C16.0127806,11.0491071 18.4384439,10.7562245 21.9886735,11.703699 C21.8985204,11.6691327 21.8040561,11.6570408 21.7119133,11.6244898" id="Shape" fill="#7F0040"></path>
                            </g>
                        </g>
                    </g>
                </g>
            </g>
        </g>
    </g>
</svg>