<?xml version="1.0" encoding="UTF-8"?>
<svg width="68px" height="68px" viewBox="0 0 68 68" version="1.1" xmlns="http://www.w3.org/2000/svg" xmlns:xlink="http://www.w3.org/1999/xlink">
    <!-- Generator: Sketch 51.3 (57544) - http://www.bohemiancoding.com/sketch -->
    <title>pic-Finish</title>
    <desc>Created with Sketch.</desc>
    <defs>
        <linearGradient x1="50%" y1="100%" x2="50%" y2="0%" id="linearGradient-1">
            <stop stop-color="#00FBFE" offset="0%"></stop>
            <stop stop-color="#FE00F1" offset="100%"></stop>
        </linearGradient>
    </defs>
    <g id="Compaign" stroke="none" stroke-width="1" fill="none" fill-rule="evenodd">
        <g id="Compaign_-TigerDay1018_1_loglist" transform="translate(-437.000000, -1012.000000)" fill="url(#linearGradient-1)" fill-rule="nonzero">
            <g id="Group-3" transform="translate(80.000000, 756.000000)">
                <g id="Group-4" transform="translate(142.000000, 202.000000)">
                    <g id="Group-19">
                        <g id="tr" transform="translate(0.000000, 44.000000)">
                            <g id="列2" transform="translate(166.000000, 0.000000)">
                                <g id="Group-12" transform="translate(49.000000, 10.000000)">
                                    <path d="M0,34 C0,52.7780001 15.222,68 34,68 C52.7780001,68 68,52.7780001 68,34 C68,15.222 52.7780001,0 34,0 C15.222,0 0,15.222 0,34 Z M65.0000002,34 C65.0000002,51.0940002 51.0940002,65.0000002 34,65.0000002 C16.906,65.0000002 3.00000003,51.0940002 3.00000003,34 C3.00000003,16.906 16.906,3.00000003 34,3.00000003 C51.0940002,3.00000003 65.0000002,16.906 65.0000002,34 Z M34.76,27.62 C34.4666652,27.9133348 34.1766681,28.0366669 33.89,27.99 C33.6033319,27.9433331 33.2866684,27.7466684 32.94,27.4 C32.673332,27.1466654 32.3800016,26.8833347 32.06,26.61 C31.7399984,26.3366653 31.4066684,26.0600014 31.06,25.78 L31.06,31.5 C31.06,31.9266688 30.9800008,32.2266658 30.82,32.4 C30.6599992,32.5733342 30.3400024,32.66 29.86,32.66 C29.5133316,32.66 29.2333344,32.5800008 29.02,32.42 C28.8066656,32.2599992 28.7,31.9533356 28.7,31.5 L28.7,25.38 C28.3799984,25.6733348 28.053335,25.9566653 27.72,26.23 C27.386665,26.5033347 27.0466684,26.773332 26.7,27.04 C26.233331,27.373335 25.866668,27.5166669 25.6,27.47 C25.333332,27.4233331 25.0866678,27.2533348 24.86,26.96 C24.6333322,26.6533318 24.5499997,26.3500015 24.61,26.05 C24.6700003,25.7499985 24.9199978,25.433335 25.36,25.1 C25.960003,24.6466644 26.526664,24.1766691 27.06,23.69 C27.593336,23.2033309 28.0799978,22.7233357 28.52,22.25 C28.9600022,21.7766643 29.3533316,21.3200022 29.7,20.88 C30.0466684,20.4399978 30.3333322,20.0333352 30.56,19.66 C30.6666672,19.4733324 30.7033335,19.3566669 30.67,19.31 C30.6366665,19.2633331 30.5133344,19.24 30.3,19.24 L26.24,19.24 C25.7866644,19.24 25.4733342,19.140001 25.3,18.94 C25.1266658,18.739999 25.04,18.4333354 25.04,18.02 C25.04,17.5933312 25.1333324,17.2866676 25.32,17.1 C25.5066676,16.9133324 25.8133312,16.82 26.24,16.82 L28.92,16.82 C28.7333324,16.6066656 28.5433343,16.4033343 28.35,16.21 C28.1566657,16.0166657 27.993334,15.8666672 27.86,15.76 C27.4199978,15.3999982 27.1966667,15.0766681 27.19,14.79 C27.1833333,14.5033319 27.313332,14.2066682 27.58,13.9 C27.846668,13.6199986 28.1266652,13.4733334 28.42,13.46 C28.7133348,13.4466666 29.0466648,13.5999984 29.42,13.92 C29.7266682,14.186668 30.0299985,14.4766651 30.33,14.79 C30.6300015,15.1033349 30.913332,15.4133318 31.18,15.72 C31.513335,16.053335 31.6266672,16.419998 31.52,16.82 L31.76,16.82 C32.1466686,16.82 32.4766653,16.8899993 32.75,17.03 C33.0233347,17.1700007 33.2299993,17.3633321 33.37,17.61 C33.5100007,17.8566679 33.5766667,18.1433317 33.57,18.47 C33.5633333,18.7966683 33.4733342,19.1399982 33.3,19.5 C32.6866636,20.6600058 31.9400044,21.7799946 31.06,22.86 L31.06,22.96 C31.126667,23.0133336 31.1866664,23.0599998 31.24,23.1 C31.2933336,23.1400002 31.353333,23.1866664 31.42,23.24 C31.553334,23.106666 31.6933326,22.9566675 31.84,22.79 C31.9866674,22.6233325 32.1299993,22.4533342 32.27,22.28 C32.4100007,22.1066658 32.5433327,21.9400008 32.67,21.78 C32.7966673,21.6199992 32.9066662,21.4800006 33,21.36 C33.266668,20.9999982 33.5299987,20.7766671 33.79,20.69 C34.0500013,20.6033329 34.3599982,20.7066652 34.72,21 C35.0266682,21.266668 35.1833333,21.5233321 35.19,21.77 C35.1966667,22.0166679 35.0733346,22.3199982 34.82,22.68 C34.5933322,22.9866682 34.3366681,23.306665 34.05,23.64 C33.7633319,23.973335 33.4666682,24.2799986 33.16,24.56 C33.4533348,24.7866678 33.7199988,24.999999 33.96,25.2 C34.2000012,25.400001 34.4133324,25.5799992 34.6,25.74 C34.9866686,26.0866684 35.1866666,26.4066652 35.2,26.7 C35.2133334,26.9933348 35.0666682,27.2999984 34.76,27.62 Z M38.06,19.26 C38.6066694,19.8066694 39.1099977,20.3166643 39.57,20.79 C40.0300023,21.2633357 40.459998,21.7133312 40.86,22.14 C41.260002,22.5666688 41.6366649,22.9766647 41.99,23.37 C42.3433351,23.7633353 42.686665,24.1466648 43.02,24.52 C43.3666684,24.920002 43.5433333,25.2633319 43.55,25.55 C43.5566667,25.8366681 43.4200014,26.1199986 43.14,26.4 C42.7933316,26.7466684 42.4600016,26.8900003 42.14,26.83 C41.8199984,26.7699997 41.5133348,26.5666684 41.22,26.22 C40.7399976,25.619997 40.2433359,25.0266696 39.73,24.44 C39.2166641,23.8533304 38.660003,23.2333366 38.06,22.58 L38.06,31.34 C38.06,31.806669 37.9733342,32.139999 37.8,32.34 C37.6266658,32.540001 37.3133356,32.64 36.86,32.64 C36.4199978,32.64 36.1066676,32.540001 35.92,32.34 C35.7333324,32.139999 35.64,31.806669 35.64,31.34 L35.64,14.64 C35.64,14.1599976 35.7433323,13.8266676 35.95,13.64 C36.1566677,13.4533324 36.4533314,13.36 36.84,13.36 C37.2266686,13.36 37.5266656,13.4533324 37.74,13.64 C37.9533344,13.8266676 38.06,14.1599976 38.06,14.64 L38.06,19.26 Z M29.94,54.12 C29.8466662,53.9333324 29.7566671,53.7666674 29.67,53.62 C29.5833329,53.4733326 29.506667,53.3400006 29.44,53.22 C29.2799992,52.9133318 29.1966667,52.6633343 29.19,52.47 C29.1833333,52.2766657 29.2333328,52.1066674 29.34,51.96 L28.78,51.96 C28.046663,51.96 27.5366681,51.8233347 27.25,51.55 C26.9633319,51.2766653 26.82,50.7866702 26.82,50.08 L26.82,48.28 C26.82,47.5733298 26.9633319,47.0800014 27.25,46.8 C27.5366681,46.5199986 28.046663,46.38 28.78,46.38 L39.38,46.38 C40.1000036,46.38 40.6133318,46.5166653 40.92,46.79 C41.2266682,47.0633347 41.38,47.5599964 41.38,48.28 L41.38,50.08 C41.38,50.8000036 41.2266682,51.293332 40.92,51.56 C40.6133318,51.826668 40.1000036,51.96 39.38,51.96 L38.78,51.96 C38.980001,52.1333342 39.08,52.3299989 39.08,52.55 C39.08,52.7700011 39.0200006,52.9933322 38.9,53.22 C38.7933328,53.4066676 38.7000004,53.566666 38.62,53.7 C38.5399996,53.833334 38.4533338,53.9733326 38.36,54.12 L42.34,54.12 C42.7533354,54.12 43.0333326,54.2033325 43.18,54.37 C43.3266674,54.5366675 43.4,54.8066648 43.4,55.18 C43.4,55.8866702 43.0466702,56.24 42.34,56.24 L25.64,56.24 C25.2533314,56.24 24.9833341,56.1500009 24.83,55.97 C24.6766659,55.7899991 24.6,55.5266684 24.6,55.18 C24.6,54.8333316 24.666666,54.5700009 24.8,54.39 C24.933334,54.2099991 25.2133312,54.12 25.64,54.12 L29.94,54.12 Z M36.86,38.32 C36.9000002,38.4400006 36.9433331,38.5566661 36.99,38.67 C37.0366669,38.7833339 37.0866664,38.8933328 37.14,39 C37.340001,38.866666 37.5233325,38.7300007 37.69,38.59 C37.8566675,38.4499993 38.006666,38.313334 38.14,38.18 C38.406668,37.8733318 38.6999984,37.7166667 39.02,37.71 C39.3400016,37.7033333 39.633332,37.8733316 39.9,38.22 C40.1133344,38.486668 40.2166667,38.7399988 40.21,38.98 C40.2033333,39.2200012 40.0133352,39.506665 39.64,39.84 C39.439999,40.0133342 39.2233345,40.1766659 38.99,40.33 C38.7566655,40.4833341 38.506668,40.6333326 38.24,40.78 C38.3466672,40.9000006 38.4466662,41.0233327 38.54,41.15 C38.6333338,41.2766673 38.7333328,41.3933328 38.84,41.5 C39.640004,41.0466644 40.37333,40.520003 41.04,39.92 C41.373335,39.653332 41.673332,39.52 41.94,39.52 C42.206668,39.52 42.4533322,39.6399988 42.68,39.88 C43.3200032,40.4933364 43.240004,41.099997 42.44,41.7 C42.173332,41.8866676 41.8800016,42.0833323 41.56,42.29 C41.2399984,42.4966677 40.8866686,42.7066656 40.5,42.92 C41.2200036,43.4133358 41.9599962,43.7866654 42.72,44.04 C43.2800028,44.240001 43.6033329,44.4866652 43.69,44.78 C43.7766671,45.0733348 43.720001,45.4133314 43.52,45.8 C43.319999,46.1866686 43.0400018,46.3666668 42.68,46.34 C42.3199982,46.3133332 41.8133366,46.133335 41.16,45.8 C40.4399964,45.4266648 39.7533366,45.006669 39.1,44.54 C39.0733332,44.8200014 38.9800008,45.0366659 38.82,45.19 C38.6599992,45.3433341 38.4066684,45.42 38.06,45.42 L30.42,45.42 C30.0733316,45.42 29.8233341,45.3433341 29.67,45.19 C29.5166659,45.0366659 29.4266668,44.826668 29.4,44.56 C28.8399972,44.9066684 28.2833361,45.2266652 27.73,45.52 C27.1766639,45.8133348 26.6133362,46.059999 26.04,46.26 C25.5333308,46.460001 25.1600012,46.5133338 24.92,46.42 C24.6799988,46.3266662 24.5000006,46.1000018 24.38,45.74 C24.2599994,45.3533314 24.2499995,45.0566677 24.35,44.85 C24.4500005,44.6433323 24.733331,44.4600008 25.2,44.3 C26.0266708,44.0199986 26.8133296,43.6666688 27.56,43.24 C27.3333322,43.0933326 27.1033345,42.9433341 26.87,42.79 C26.6366655,42.6366659 26.3466684,42.4533344 26,42.24 C25.6399982,42.0266656 25.4300003,41.8033345 25.37,41.57 C25.3099997,41.3366655 25.3933322,41.053335 25.62,40.72 C25.820001,40.4266652 26.0433321,40.2566669 26.29,40.21 C26.5366679,40.1633331 26.8399982,40.2466656 27.2,40.46 C27.6133354,40.7133346 27.9999982,40.9499989 28.36,41.17 C28.7200018,41.3900011 29.099998,41.6399986 29.5,41.92 C30.1533366,41.4266642 30.713331,40.8533366 31.18,40.2 C31.2866672,40.0533326 31.3366667,39.9533336 31.33,39.9 C31.3233333,39.8466664 31.2266676,39.82 31.04,39.82 L27.4,39.82 C27.0133314,39.82 26.7433341,39.7366675 26.59,39.57 C26.4366659,39.4033325 26.36,39.1466684 26.36,38.8 C26.36,38.4533316 26.426666,38.1900009 26.56,38.01 C26.693334,37.8299991 26.9733312,37.74 27.4,37.74 L32.3,37.74 C33.2600048,37.74 33.8599988,37.9699977 34.1,38.43 C34.3400012,38.8900023 34.2466688,39.4799964 33.82,40.2 C33.4999984,40.733336 33.106669,41.2599974 32.64,41.78 C32.173331,42.3000026 31.6600028,42.7999976 31.1,43.28 L37.64,43.28 C37.0266636,42.6666636 36.5033355,42.0133368 36.07,41.32 C35.6366645,40.6266632 35.2466684,39.8933372 34.9,39.12 C34.6866656,38.6399976 34.6366661,38.2633347 34.75,37.99 C34.8633339,37.7166653 35.0933316,37.5266672 35.44,37.42 C35.8000018,37.3133328 36.0866656,37.3299993 36.3,37.47 C36.5133344,37.6100007 36.6999992,37.8933312 36.86,38.32 Z M39.06,48.64 C39.06,48.5466662 39.0400002,48.4866668 39,48.46 C38.9599998,48.4333332 38.873334,48.42 38.74,48.42 L29.46,48.42 C29.2999992,48.42 29.2033335,48.4366665 29.17,48.47 C29.1366665,48.5033335 29.12,48.5799994 29.12,48.7 L29.12,49.64 C29.12,49.773334 29.1366665,49.8533332 29.17,49.88 C29.2033335,49.9066668 29.2799994,49.92 29.4,49.92 L38.88,49.92 C39.0000006,49.92 39.06,49.8733338 39.06,49.78 L39.06,48.64 Z M31.44,52.26 C31.6266676,52.6066684 31.7733328,52.913332 31.88,53.18 C31.9866672,53.446668 32.106666,53.7599982 32.24,54.12 L35.92,54.12 C36.1066676,53.8133318 36.2733326,53.5300013 36.42,53.27 C36.5666674,53.0099987 36.6933328,52.780001 36.8,52.58 C36.866667,52.4333326 36.933333,52.3100005 37,52.21 C37.066667,52.1099995 37.133333,52.026667 37.2,51.96 L31.26,51.96 L31.44,52.26 Z" id="tiger"></path>
                                </g>
                            </g>
                        </g>
                    </g>
                </g>
            </g>
        </g>
    </g>
</svg>