<?xml version="1.0" encoding="UTF-8"?>
<svg width="68px" height="68px" viewBox="0 0 68 68" version="1.1" xmlns="http://www.w3.org/2000/svg" xmlns:xlink="http://www.w3.org/1999/xlink">
    <!-- Generator: Sketch 51.3 (57544) - http://www.bohemiancoding.com/sketch -->
    <title>pic-TigerGet</title>
    <desc>Created with Sketch.</desc>
    <defs>
        <linearGradient x1="49.9988284%" y1="100%" x2="49.9988284%" y2="0%" id="linearGradient-1">
            <stop stop-color="#E88D08" offset="0%"></stop>
            <stop stop-color="#FFD200" offset="56%"></stop>
            <stop stop-color="#FFE04F" offset="100%"></stop>
        </linearGradient>
    </defs>
    <g id="Compaign" stroke="none" stroke-width="1" fill="none" fill-rule="evenodd">
        <g id="Compaign_-TigerDay1018_1_loglist" transform="translate(-271.000000, -1012.000000)" fill="url(#linearGradient-1)" fill-rule="nonzero">
            <g id="Group-3" transform="translate(80.000000, 756.000000)">
                <g id="Group-4" transform="translate(142.000000, 202.000000)">
                    <g id="Group-19">
                        <g id="tr" transform="translate(0.000000, 44.000000)">
                            <g id="列1">
                                <g id="老虎" transform="translate(49.000000, 10.000000)">
                                    <g id="Group-13">
                                        <path d="M0,34 C0,52.7780001 15.222,68 34,68 C52.7780001,68 68,52.7780001 68,34 C68,15.222 52.7780001,0 34,0 C15.222,0 0,15.222 0,34 Z M40.8743264,26.2701658 C40.0081507,23.6014072 37.4742578,23.4091125 35.9166388,24.822027 C35.3919454,24.6633399 34.5001673,23.7651811 35.0772297,22.9181192 C35.6542921,22.071226 38.7499163,21.5961765 40.6388796,22.4951785 C39.5894927,21.3315856 38.0679487,20.5384875 36.284058,20.2738966 C37.4383501,19.9039078 40.0094483,19.8509559 43,21.754695 C40.4814381,18.7403149 37.0709309,18 34.5001673,18 C31.9290691,18 28.5185619,18.7403149 26,21.754695 C28.9908864,19.8509559 31.5618172,19.9039078 32.7161093,20.2738966 C30.9322186,20.5384875 29.4105073,21.3315856 28.3612877,22.4951785 C30.2499163,21.5961765 33.3457079,22.071226 33.9227703,22.9181192 C34.5001673,23.7651811 33.6080546,24.6633399 33.0833612,24.822027 C31.5092809,23.3941805 28.9383501,23.6056509 28.0987737,26.3556087 C29.1483279,25.1923531 30.7925123,24.8749789 31.4391768,25.8090573 C30.4946952,26.4965889 30.2499163,27.5719849 30.6698719,29 C31.1677952,26.2500422 34.5001673,26.7080593 34.5001673,24.7692437 C34.5001673,26.7080593 37.8317029,26.2500422 38.3302955,29 C38.7499163,27.5719849 38.5054721,26.4965889 37.5611578,25.8090573 C38.1991517,24.8867874 39.8105825,25.1845287 40.8611517,26.3118979 C40.672498,26.9015317 40.3805193,27.4815653 40,28 C41.2353557,26.8779703 42.963605,27.0864633 42.963605,27.0864633 C43.2281915,25.2115591 42.0110599,23.4807604 40.5821578,23 C41.1928521,23.8319292 41.2486088,25.0684149 40.8743264,26.2701658 Z M65.0000002,34 C65.0000002,51.0940002 51.0940002,65.0000002 34,65.0000002 C16.906,65.0000002 3.00000003,51.0940002 3.00000003,34 C3.00000003,16.906 16.906,3.00000003 34,3.00000003 C51.0940002,3.00000003 65.0000002,16.906 65.0000002,34 Z M26,16.2732976 C24.5035217,15.8503629 24.1294447,14.7406227 22.2588894,13.631051 C20.3883341,12.5213108 17.3955479,11.3588301 16.1127792,12.4156614 C14.8300105,13.4724926 12.5853782,18.5980905 13.0664804,20.2362463 C13.5475826,21.8744021 16.7005658,23.3010906 16.0592666,27 C17.7694545,25.2034543 17.0213005,22.5084672 15.845557,20.8703114 C18.1970441,21.2401686 18.6779758,24.7277791 18.1970441,26.6299743 C20.2814794,24.9919869 21.8314703,22.1913504 22.0451799,18.6509994 C21.2435133,20.3948047 20.3883341,20.2889868 18.9987106,19.7607396 C17.6090871,19.2321555 15.6318474,17.9641939 16.807591,15.5859866 C17.9833345,13.2082848 20.6681676,14.7699417 21.5766889,15.4040067 C22.4852103,16.0382403 24.5645329,16.484428 26,16.2732976 Z M27.4179782,23 C25.9889958,23.4807604 24.7717957,25.2115591 25.036397,27.0864633 C25.036397,27.0864633 26.7649123,26.8779703 28,28 C26.8356189,26.4134601 26.4999734,24.2500383 27.4179782,23 Z M24.1020608,25 C22.9034461,26.8936777 22.3039796,30.9369398 24.4017941,32.1652271 C23.9021855,32.5748738 23.5027535,36.0552389 26,38 C20.1064663,36.5156427 19.3572924,28.6850252 24.1020608,25 Z M30.3589447,29.3049418 C30.1358925,31.0190133 29.1876537,31.2866448 29.1876537,31.2866448 C28.9087495,28.3408192 25.2271429,28.7158791 24,29.7870884 C24.6693345,30.1083487 24.9482387,31.2330161 25.282817,31.6615339 C25.6175732,32.0900518 26.3845598,32.7329141 27.9605108,32.6526417 C26.384204,34.224614 26.5658119,36 26.5658119,36 C27.7372807,33.6968658 32.7575564,33.4422145 30.3589447,29.3049418 Z M42,16.2732976 C43.435638,16.484428 45.5147908,16.0382403 46.4236533,15.4040067 C47.3318341,14.7699417 50.0168384,13.2082848 51.1922414,15.5859866 C52.3683261,17.9641939 50.3910859,19.2321555 49.0012915,19.7607396 C47.611838,20.2889868 46.7566586,20.3948047 45.9551622,18.6509994 C46.1688718,22.1913504 47.7185224,24.9919869 49.8029583,26.6299743 C49.3220264,24.7277791 49.8029583,21.2401686 52.1546165,20.8703114 C50.9785318,22.5084672 50.2308889,25.2034543 51.9409069,27 C51.2992667,23.3010906 54.4524212,21.8744021 54.9335236,20.2362463 C55.4146259,18.5980905 53.1698225,13.4724926 51.8873942,12.4156614 C50.6046251,11.3588301 47.611838,12.5213108 45.7411117,13.631051 C43.8705559,14.7406227 43.4963083,15.8503629 42,16.2732976 Z M43.8980682,25 C48.6426016,28.6850252 47.8935989,36.5156427 42,38 C44.4975252,36.0552389 44.097781,32.5748738 43.5983397,32.1652271 C45.6961207,30.9369398 45.0966637,26.8936777 43.8980682,25 Z M41.4343307,36 C41.4343307,36 41.6152296,34.224614 40.0394348,32.6526417 C41.6152296,32.7329141 42.3825824,32.0900518 42.7173432,31.6615339 C43.0519261,31.2330161 43.3308342,30.1083487 44,29.7870884 C42.7728402,28.7158791 39.0915388,28.3408192 38.8124529,31.2866448 C38.8124529,31.2866448 37.8640232,31.0190133 37.6411458,29.3049418 C35.2423233,33.4422145 40.2626679,33.6968658 41.4343307,36 Z M34.0000752,57.5333831 C35.6054093,57.5333831 38.0906883,57.9000373 39.8515689,59 C41.4050541,52.6616425 46.0651792,49.0993335 52.2276011,50.7236368 C51.8649892,47.4756984 53.4186394,43.599186 54.6095126,42.0275005 C55.800716,40.455982 57.3542012,34.1700752 53.8326049,30.6603841 C56.0074511,34.3797112 54.8684268,38.4130748 53.2112439,40.2989638 C51.5543912,42.1848528 49.5345964,44.1753092 49.6382941,47.5802658 C48.3955721,47.3707968 45.0813714,47.8421856 43.252955,49.2566858 C42.7706283,47.8421856 43.2174534,46.2183834 43.4763676,45.1184207 C51.1917793,41.6087295 51.8829877,37.0339872 50.052755,29 C50.1044387,33.803588 48.7063351,40.7179017 42.3886968,39.7752913 C45.2886018,41.0848901 47.2045338,42.551507 43.7868004,43.6514697 C43.6314189,42.0799512 43.1137556,41.294359 42.3886968,40.875087 C42.9583741,43.180248 41.8191847,44.4373959 38.1942209,44.2275929 C38.6603655,45.066137 40.6638131,45.3278897 41.7850041,45.1184207 C40.4725997,46.4803031 38.6611911,46.4278524 37.2880213,45.6419261 C38.0391696,46.8471244 39.6443385,47.3183461 41.0424421,47.2137786 C40.3692322,48.7854641 38.4533002,48.5756611 36.6407358,47.8946363 C37.4176435,48.8898645 38.8157471,49.4661548 39.7997201,49.5710563 C39.6443385,50.5664516 38.7640633,50.671019 37.9354718,50.0947288 C37.1067153,49.5184385 36.3156069,48.5232103 34.7248038,48.2783287 L34.7248038,46.7595951 C35.1390995,45.5381938 36.1749214,44.3847781 36.9514989,44.0704076 C37.7284065,43.7563712 38.1942209,43.2848154 38.1942209,42.7086922 C38.1942209,42.1320679 38.1942209,40.7179017 38.1942209,40.7179017 C37.7620918,41.6959248 36.8869354,41.7675852 36.2062949,42.0097942 C34.9772782,42.4477747 34.8988443,43.2325317 34.0000752,43.2325317 C33.101141,43.2325317 33.0222118,42.4477747 31.7935253,42.0097942 C31.1130499,41.7675852 30.2372331,41.6959248 29.8054342,40.7179017 C29.8054342,40.7179017 29.8054342,42.1320679 29.8054342,42.7086922 C29.8054342,43.2848154 30.2715788,43.7563712 31.0483214,44.0704076 C31.825064,44.3847781 32.8607207,45.5381938 33.2750164,46.7595951 L33.2750164,48.2783287 C31.6842133,48.5232103 30.8929398,49.5184385 30.0645135,50.0947288 C29.2359221,50.671019 28.3556468,50.5664516 28.2001002,49.5710563 C29.1842383,49.4661548 30.5823419,48.8898645 31.3590845,47.8946363 C29.5466851,48.5756611 27.6307532,48.7854641 26.9577084,47.2137786 C28.3556468,47.3183461 29.9608157,46.8471244 30.7113036,45.6419261 C29.3386291,46.4278524 27.5270554,46.4803031 26.2146511,45.1184207 C27.3361722,45.3278897 29.3396198,45.066137 29.8054342,44.2275929 C26.1808007,44.4373959 25.0414461,43.180248 25.6111234,40.875087 C24.8860646,41.294359 24.3684014,42.0799512 24.2130198,43.6514697 C20.7954516,42.551507 22.7113836,41.0848901 25.6111234,39.7752913 C19.2936502,40.7179017 17.8953815,33.803588 17.9472304,29 C16.1174931,37.0339872 16.808041,41.6087295 24.5236178,45.1184207 C24.782532,46.2183834 25.229192,47.8421856 24.7468652,49.2566858 C22.9184489,47.8421856 19.6042482,47.3707968 18.3615261,47.5802658 C18.4650588,44.1753092 16.4455941,42.1848528 14.7884112,40.2989638 C13.1315586,38.4130748 11.9923692,34.3797112 14.1672153,30.6603841 C10.6457842,34.1700752 12.1994345,40.455982 13.3903076,42.0275005 C14.581511,43.599186 16.1348311,47.4756984 15.7723842,50.7236368 C21.9344759,49.0993335 26.5949313,52.6616425 28.1484164,59 C29.909132,57.9000373 32.3947412,57.5333831 34.0000752,57.5333831 Z M34.0000839,28.3332876 C34.3422698,28.6989439 35.4473673,28.9140036 36,29 C34.9932452,28.3118914 34.315922,27.5376492 34.0000839,27 C33.684078,27.5376492 33.0062513,28.3118914 32,29 C32.5526327,28.9140036 33.657898,28.6989439 34.0000839,28.3332876 Z" id="tiger"></path>
                                    </g>
                                </g>
                            </g>
                        </g>
                    </g>
                </g>
            </g>
        </g>
    </g>
</svg>