<?xml version="1.0" encoding="utf-8"?>
<!-- Generator: Adobe Illustrator 16.0.0, SVG Export Plug-In . SVG Version: 6.00 Build 0)  -->
<!DOCTYPE svg PUBLIC "-//W3C//DTD SVG 1.1//EN" "http://www.w3.org/Graphics/SVG/1.1/DTD/svg11.dtd">
<svg version="1.1" id="圖層_1" xmlns="http://www.w3.org/2000/svg" xmlns:xlink="http://www.w3.org/1999/xlink" x="0px" y="0px"
	 width="800px" height="40px" viewBox="0 0 800 40" enable-background="new 0 0 800 40" xml:space="preserve">
<filter  y="-23.0%" id="filter-2" height="164.3%" x="-6.3%" filterUnits="objectBoundingBox" width="112.6%">
	<feOffset  result="shadowOffsetOuter1" dx="0" dy="2" in="SourceAlpha"></feOffset>
	<feGaussianBlur  result="shadowBlurOuter1" stdDeviation="2" in="shadowOffsetOuter1"></feGaussianBlur>
	<feColorMatrix  type="matrix" values="0 0 0 0 0   0 0 0 0 0   0 0 0 0 0  0 0 0 0.4 0" in="shadowBlurOuter1"></feColorMatrix>
</filter>
<g id="登录奖励">
	<g filter="url(#filter-2)">
		<g>
			<g>
				<g>
					<path fill="#231815" d="M350.402,17.615v1.747h9.52v-1.747H350.402z M349.137,19.292l5.794-10.117h-10.692V10.9h4.99
						l-1.656,2.782l-3.334-1.034v1.954l2.368,0.713l-2.368,3.978H349.137z M346.079,25.662h15.913c1.265,0,2.3-1.057,2.3-2.322
						v-3.127h-18.212V25.662z M351.528,21.754h7.221v1.793c0,0.322-0.253,0.574-0.575,0.574h-6.646V21.754z M363.923,26.559h-5.427
						l-0.874,2.393h-4.829l-0.92-2.393h-5.404l0.896,2.393h-3.081v1.748h21.799v-1.748h-3.059L363.923,26.559z M366.062,19.292
						l-1.794-3.173l1.794-0.552v-1.955l-2.736,0.852l-1.104-1.932l3.702-1.15V9.405l-4.645,1.426l-0.942-1.655h-4.898l5.772,10.117
						H366.062z M394.099,9.405h-18.81v1.748h13.359v2.46h-12.601v1.748h12.601v2.414h-14.486v1.748h8.163v8.76
						c0,0.346-0.299,0.668-0.644,0.668h-0.989v1.748h4.92c1.196,0,2.186-0.99,2.186-2.186v-8.991h8.162v-1.748h-1.862V9.405z
						 M374.921,20.58l0.69,3.564h4.714l-0.69-3.564H374.921z M395.203,20.58h-4.715l-0.713,3.564h4.715L395.203,20.58z
						 M389.775,25.088l0.943,5.496h4.714l-0.942-5.496H389.775z M374.668,30.584h4.714l0.943-5.496h-4.714L374.668,30.584z
						 M417.675,11.291h7.037V9.543h-19.523v1.747h7.037v6.462h-8.141V19.5h7.404l-6.415,9.428h-0.989v1.748h6.048l4.806-7.197
						l4.875,7.197h6.002v-1.748h-0.942L418.48,19.5h7.335v-1.747h-8.141V11.291z M437.297,12.601l-0.346-3.265h-2.989l0.322,3.265
						H437.297z M445.574,9.336h-3.012l-0.322,3.265h3.013L445.574,9.336z M442.562,20.236h3.012l-0.321-4.898h-3.013L442.562,20.236
						z M437.664,20.236h4.186v-5.404h3.725v-1.747h-3.725V8.922h-4.186v4.162h-3.702v1.747h3.702V20.236z M442.884,27.617
						l2.254-1.586V23.18h0.805v-1.725h-7.267v-0.736h-4.023v0.736h-0.69v1.725h0.69v2.852l2.092,1.539l-2.139,1.496h-0.644v1.746
						h4.347l1.472-1.033l1.402,1.033h4.346v-1.746h-0.644L442.884,27.617z M441.137,24.49l-1.265,0.896l-1.196-0.896V23.18h2.461
						V24.49z M452.979,24.674l2.392-4.99v-6.37h0.368v-1.518h-5.104l0.368-2.874H447l-0.942,7.474h3.978l0.368-2.852h0.943v5.335
						l-0.483,1.034l-0.46-1.034v-1.863h-4.093v2.645l2.254,5.013l-2.921,6.162h4.415l0.667-1.426l0.644,1.426h4.393L452.979,24.674z
						 M437.297,15.337h-3.013l-0.322,4.898h2.989L437.297,15.337z"/>
				</g>
			</g>
		</g>
	</g>
	<g>
		<g>
			<g>
				<path fill="#FFFFFF" d="M363.923,26.559h-5.427l-0.874,2.393h-4.829l-0.92-2.393h-5.404l0.896,2.393h-3.081v1.748h21.799v-1.748
					h-3.059L363.923,26.559z M349.137,19.292l5.794-10.117h-10.692V10.9h4.99l-1.656,2.782l-3.334-1.034v1.954l2.368,0.713
					l-2.368,3.978H349.137z M350.402,17.615v1.747h9.52v-1.747H350.402z M366.062,19.292l-1.794-3.173l1.794-0.552v-1.955
					l-2.736,0.852l-1.104-1.932l3.702-1.15V9.405l-4.645,1.426l-0.942-1.655h-4.898l5.772,10.117H366.062z M346.079,25.662h15.913
					c1.265,0,2.3-1.057,2.3-2.322v-3.127h-18.212V25.662z M351.528,21.754h7.221v1.793c0,0.322-0.253,0.574-0.575,0.574h-6.646
					V21.754z M374.668,30.584h4.714l0.943-5.496h-4.714L374.668,30.584z M394.099,9.405h-18.81v1.748h13.359v2.46h-12.601v1.748
					h12.601v2.414h-14.486v1.748h8.163v8.76c0,0.346-0.299,0.668-0.644,0.668h-0.989v1.748h4.92c1.196,0,2.186-0.99,2.186-2.186
					v-8.991h8.162v-1.748h-1.862V9.405z M395.203,20.58h-4.715l-0.713,3.564h4.715L395.203,20.58z M374.921,20.58l0.69,3.564h4.714
					l-0.69-3.564H374.921z M389.775,25.088l0.943,5.496h4.714l-0.942-5.496H389.775z M417.675,11.291h7.037V9.543h-19.523v1.747
					h7.037v6.462h-8.141V19.5h7.404l-6.415,9.428h-0.989v1.748h6.048l4.806-7.197l4.875,7.197h6.002v-1.748h-0.942L418.48,19.5
					h7.335v-1.747h-8.141V11.291z M437.297,12.601l-0.346-3.265h-2.989l0.322,3.265H437.297z M437.664,20.236h4.186v-5.404h3.725
					v-1.747h-3.725V8.922h-4.186v4.162h-3.702v1.747h3.702V20.236z M445.574,9.336h-3.012l-0.322,3.265h3.013L445.574,9.336z
					 M442.884,27.617l2.254-1.586V23.18h0.805v-1.725h-7.267v-0.736h-4.023v0.736h-0.69v1.725h0.69v2.852l2.092,1.539l-2.139,1.496
					h-0.644v1.746h4.347l1.472-1.033l1.402,1.033h4.346v-1.746h-0.644L442.884,27.617z M441.137,24.49l-1.265,0.896l-1.196-0.896
					V23.18h2.461V24.49z M452.979,24.674l2.392-4.99v-6.37h0.368v-1.518h-5.104l0.368-2.874H447l-0.942,7.474h3.978l0.368-2.852
					h0.943v5.335l-0.483,1.034l-0.46-1.034v-1.863h-4.093v2.645l2.254,5.013l-2.921,6.162h4.415l0.667-1.426l0.644,1.426h4.393
					L452.979,24.674z M442.562,20.236h3.012l-0.321-4.898h-3.013L442.562,20.236z M437.297,15.337h-3.013l-0.322,4.898h2.989
					L437.297,15.337z"/>
			</g>
		</g>
	</g>
</g>
<g id="dots" transform="translate(478.000000, 19.000000)">
	<circle id="Oval-2" fill="#FFFFFF" cx="1.5" cy="1.5" r="1.5"/>
	<circle id="Oval-2-Copy-10" fill="#FFFFFF" cx="226.5" cy="1.5" r="1.5"/>
	<circle id="Oval-2-Copy-9" fill="#FFFFFF" cx="201.5" cy="1.5" r="1.5"/>
	<circle id="Oval-2-Copy-8" fill="#FFFFFF" cx="176.5" cy="1.5" r="1.5"/>
	<circle id="Oval-2-Copy-7" fill="#FFFFFF" cx="151.5" cy="1.5" r="1.5"/>
	<circle id="Oval-2-Copy-6" fill="#FFFFFF" cx="126.5" cy="1.5" r="1.5"/>
	<circle id="Oval-2-Copy-5" fill="#FFFFFF" cx="101.5" cy="1.5" r="1.5"/>
	<circle id="Oval-2-Copy-4" fill="#FFFFFF" cx="76.5" cy="1.5" r="1.5"/>
	<circle id="Oval-2-Copy-3" fill="#FFFFFF" cx="51.5" cy="1.5" r="1.5"/>
	<circle id="Oval-2-Copy-2" fill="#FFFFFF" cx="26.5" cy="1.5" r="1.5"/>
</g>
<g id="dots_1_" transform="translate(90.000000, 19.000000)">
	<circle id="Oval-2_1_" fill="#FFFFFF" cx="1.5" cy="1.5" r="1.5"/>
	<circle id="Oval-2-Copy-10_1_" fill="#FFFFFF" cx="226.5" cy="1.5" r="1.5"/>
	<circle id="Oval-2-Copy-9_1_" fill="#FFFFFF" cx="201.5" cy="1.5" r="1.5"/>
	<circle id="Oval-2-Copy-8_1_" fill="#FFFFFF" cx="176.5" cy="1.5" r="1.5"/>
	<circle id="Oval-2-Copy-7_1_" fill="#FFFFFF" cx="151.5" cy="1.5" r="1.5"/>
	<circle id="Oval-2-Copy-6_1_" fill="#FFFFFF" cx="126.5" cy="1.5" r="1.5"/>
	<circle id="Oval-2-Copy-5_1_" fill="#FFFFFF" cx="101.5" cy="1.5" r="1.5"/>
	<circle id="Oval-2-Copy-4_1_" fill="#FFFFFF" cx="76.5" cy="1.5" r="1.5"/>
	<circle id="Oval-2-Copy-3_1_" fill="#FFFFFF" cx="51.5" cy="1.5" r="1.5"/>
	<circle id="Oval-2-Copy-2_1_" fill="#FFFFFF" cx="26.5" cy="1.5" r="1.5"/>
</g>
</svg>
