<?xml version="1.0" encoding="utf-8"?>
<!-- Generator: Adobe Illustrator 16.0.0, SVG Export Plug-In . SVG Version: 6.00 Build 0)  -->
<!DOCTYPE svg PUBLIC "-//W3C//DTD SVG 1.1//EN" "http://www.w3.org/Graphics/SVG/1.1/DTD/svg11.dtd">
<svg version="1.1" id="圖層_1" xmlns="http://www.w3.org/2000/svg" xmlns:xlink="http://www.w3.org/1999/xlink" x="0px" y="0px"
	 width="800px" height="40px" viewBox="0 0 800 40" enable-background="new 0 0 800 40" xml:space="preserve">
<filter  y="-23.2%" id="filter-2" height="164.9%" x="-6.3%" filterUnits="objectBoundingBox" width="112.6%">
	<feOffset  result="shadowOffsetOuter1" dx="0" dy="2" in="SourceAlpha"></feOffset>
	<feGaussianBlur  result="shadowBlurOuter1" stdDeviation="2" in="shadowOffsetOuter1"></feGaussianBlur>
	<feColorMatrix  type="matrix" values="0 0 0 0 0   0 0 0 0 0   0 0 0 0 0  0 0 0 0.4 0" in="shadowBlurOuter1"></feColorMatrix>
</filter>
<g id="登录纪录">
	<g filter="url(#filter-2)">
		<g>
			<g>
				<g>
					<path fill="#231815" d="M364.61,26.438h-5.427l-0.874,2.392h-4.829l-0.92-2.392h-5.404l0.896,2.392h-3.081v1.748h21.799V28.83
						h-3.059L364.61,26.438z M349.824,19.172l5.794-10.117h-10.692v1.725h4.99l-1.656,2.782l-3.334-1.034v1.954l2.368,0.713
						l-2.368,3.978H349.824z M366.749,19.172l-1.794-3.173l1.794-0.552v-1.955l-2.736,0.852l-1.104-1.932l3.702-1.15V9.284
						l-4.645,1.426l-0.942-1.655h-4.898l5.772,10.117H366.749z M346.766,25.542h15.913c1.265,0,2.3-1.058,2.3-2.322v-3.128h-18.212
						V25.542z M352.215,21.633h7.221v1.794c0,0.321-0.253,0.574-0.575,0.574h-6.646V21.633z M351.089,17.494v1.747h9.52v-1.747
						H351.089z M390.463,24.967l0.943,5.496h4.714l-0.943-5.496H390.463z M375.355,30.463h4.714l0.943-5.496h-4.714L375.355,30.463z
						 M375.608,20.46l0.69,3.564h4.714l-0.69-3.564H375.608z M394.786,9.284h-18.81v1.748h13.36v2.46h-12.601v1.748h12.601v2.414
						h-14.487v1.748h8.163v8.761c0,0.346-0.299,0.667-0.644,0.667h-0.989v1.748h4.921c1.196,0,2.185-0.989,2.185-2.185v-8.991h8.163
						v-1.748h-1.863V9.284z M395.89,20.46h-4.714l-0.713,3.564h4.714L395.89,20.46z M419.42,20.299h4.623
						c1.217,0,2.184-0.988,2.184-2.185V9.33H414.27v1.748h6.828v6.807c0,0.368-0.32,0.667-0.666,0.667h-6.162v12.141h12.279v-1.747
						h-7.129V20.299z M404.75,30.532l7.955-0.529v-1.747l-7.955,0.528V30.532z M412.682,8.871h-5.127l-2.645,10.301h2.023
						l-1.908,7.681h7.588v-1.747h-1.748l2.047-9.475h-1.977L412.682,8.871z M454.586,17.654v-8.37h-18.811v1.748h13.361v2.46
						h-12.602v1.748h12.602v2.414h-14.488v1.748h8.164v8.761c0,0.346-0.299,0.667-0.645,0.667h-0.988v1.748h4.922
						c1.195,0,2.184-0.989,2.184-2.185v-8.991h8.164v-1.748H454.586z M455.689,20.46h-4.713l-0.713,3.564h4.713L455.689,20.46z
						 M435.154,30.463h4.715l0.943-5.496h-4.715L435.154,30.463z M450.264,24.967l0.941,5.496h4.715l-0.943-5.496H450.264z
						 M435.408,20.46l0.689,3.564h4.715l-0.691-3.564H435.408z"/>
				</g>
			</g>
		</g>
	</g>
	<g>
		<g>
			<g>
				<path fill="#FFFFFF" d="M351.089,17.494v1.747h9.52v-1.747H351.089z M349.824,19.172l5.794-10.117h-10.692v1.725h4.99
					l-1.656,2.782l-3.334-1.034v1.954l2.368,0.713l-2.368,3.978H349.824z M364.61,26.438h-5.427l-0.874,2.392h-4.829l-0.92-2.392
					h-5.404l0.896,2.392h-3.081v1.748h21.799V28.83h-3.059L364.61,26.438z M346.766,25.542h15.913c1.265,0,2.3-1.058,2.3-2.322
					v-3.128h-18.212V25.542z M352.215,21.633h7.221v1.794c0,0.321-0.253,0.574-0.575,0.574h-6.646V21.633z M366.749,19.172
					l-1.794-3.173l1.794-0.552v-1.955l-2.736,0.852l-1.104-1.932l3.702-1.15V9.284l-4.645,1.426l-0.942-1.655h-4.898l5.772,10.117
					H366.749z M395.89,20.46h-4.714l-0.713,3.564h4.714L395.89,20.46z M394.786,9.284h-18.81v1.748h13.36v2.46h-12.601v1.748h12.601
					v2.414h-14.487v1.748h8.163v8.761c0,0.346-0.299,0.667-0.644,0.667h-0.989v1.748h4.921c1.196,0,2.185-0.989,2.185-2.185v-8.991
					h8.163v-1.748h-1.863V9.284z M390.463,24.967l0.943,5.496h4.714l-0.943-5.496H390.463z M375.608,20.46l0.69,3.564h4.714
					l-0.69-3.564H375.608z M375.355,30.463h4.714l0.943-5.496h-4.714L375.355,30.463z M419.42,20.299h4.623
					c1.217,0,2.184-0.988,2.184-2.185V9.33H414.27v1.748h6.828v6.807c0,0.368-0.32,0.667-0.666,0.667h-6.162v12.141h12.279v-1.747
					h-7.129V20.299z M404.75,30.532l7.955-0.529v-1.747l-7.955,0.528V30.532z M412.682,8.871h-5.127l-2.645,10.301h2.023
					l-1.908,7.681h7.588v-1.747h-1.748l2.047-9.475h-1.977L412.682,8.871z M455.689,20.46h-4.713l-0.713,3.564h4.713L455.689,20.46z
					 M454.586,17.654v-8.37h-18.811v1.748h13.361v2.46h-12.602v1.748h12.602v2.414h-14.488v1.748h8.164v8.761
					c0,0.346-0.299,0.667-0.645,0.667h-0.988v1.748h4.922c1.195,0,2.184-0.989,2.184-2.185v-8.991h8.164v-1.748H454.586z
					 M435.154,30.463h4.715l0.943-5.496h-4.715L435.154,30.463z M450.264,24.967l0.941,5.496h4.715l-0.943-5.496H450.264z
					 M435.408,20.46l0.689,3.564h4.715l-0.691-3.564H435.408z"/>
			</g>
		</g>
	</g>
</g>
<g id="dots" transform="translate(478.000000, 19.000000)">
	<circle id="Oval-2" fill="#FFFFFF" cx="1.5" cy="1.5" r="1.5"/>
	<circle id="Oval-2-Copy-10" fill="#FFFFFF" cx="226.5" cy="1.5" r="1.5"/>
	<circle id="Oval-2-Copy-9" fill="#FFFFFF" cx="201.5" cy="1.5" r="1.5"/>
	<circle id="Oval-2-Copy-8" fill="#FFFFFF" cx="176.5" cy="1.5" r="1.5"/>
	<circle id="Oval-2-Copy-7" fill="#FFFFFF" cx="151.5" cy="1.5" r="1.5"/>
	<circle id="Oval-2-Copy-6" fill="#FFFFFF" cx="126.5" cy="1.5" r="1.5"/>
	<circle id="Oval-2-Copy-5" fill="#FFFFFF" cx="101.5" cy="1.5" r="1.5"/>
	<circle id="Oval-2-Copy-4" fill="#FFFFFF" cx="76.5" cy="1.5" r="1.5"/>
	<circle id="Oval-2-Copy-3" fill="#FFFFFF" cx="51.5" cy="1.5" r="1.5"/>
	<circle id="Oval-2-Copy-2" fill="#FFFFFF" cx="26.5" cy="1.5" r="1.5"/>
</g>
<g id="dots_1_" transform="translate(90.000000, 19.000000)">
	<circle id="Oval-2_1_" fill="#FFFFFF" cx="1.5" cy="1.5" r="1.5"/>
	<circle id="Oval-2-Copy-10_1_" fill="#FFFFFF" cx="226.5" cy="1.5" r="1.5"/>
	<circle id="Oval-2-Copy-9_1_" fill="#FFFFFF" cx="201.5" cy="1.5" r="1.5"/>
	<circle id="Oval-2-Copy-8_1_" fill="#FFFFFF" cx="176.5" cy="1.5" r="1.5"/>
	<circle id="Oval-2-Copy-7_1_" fill="#FFFFFF" cx="151.5" cy="1.5" r="1.5"/>
	<circle id="Oval-2-Copy-6_1_" fill="#FFFFFF" cx="126.5" cy="1.5" r="1.5"/>
	<circle id="Oval-2-Copy-5_1_" fill="#FFFFFF" cx="101.5" cy="1.5" r="1.5"/>
	<circle id="Oval-2-Copy-4_1_" fill="#FFFFFF" cx="76.5" cy="1.5" r="1.5"/>
	<circle id="Oval-2-Copy-3_1_" fill="#FFFFFF" cx="51.5" cy="1.5" r="1.5"/>
	<circle id="Oval-2-Copy-2_1_" fill="#FFFFFF" cx="26.5" cy="1.5" r="1.5"/>
</g>
</svg>
