<?xml version="1.0" encoding="utf-8"?>
<!-- Generator: Adobe Illustrator 16.0.0, SVG Export Plug-In . SVG Version: 6.00 Build 0)  -->
<!DOCTYPE svg PUBLIC "-//W3C//DTD SVG 1.1//EN" "http://www.w3.org/Graphics/SVG/1.1/DTD/svg11.dtd">
<svg version="1.1" id="圖層_1" xmlns="http://www.w3.org/2000/svg" xmlns:xlink="http://www.w3.org/1999/xlink" x="0px" y="0px"
	 width="800px" height="40px" viewBox="0 0 800 40" enable-background="new 0 0 800 40" xml:space="preserve">
<filter  y="-23.0%" id="filter-2" height="164.3%" x="-6.3%" filterUnits="objectBoundingBox" width="112.5%">
	<feOffset  result="shadowOffsetOuter1" dx="0" dy="2" in="SourceAlpha"></feOffset>
	<feGaussianBlur  result="shadowBlurOuter1" stdDeviation="2" in="shadowOffsetOuter1"></feGaussianBlur>
	<feColorMatrix  type="matrix" values="0 0 0 0 0   0 0 0 0 0   0 0 0 0 0  0 0 0 0.4 0" in="shadowBlurOuter1"></feColorMatrix>
</filter>
<g id="活动条款">
	<g filter="url(#filter-2)">
		<g>
			<g>
				<g>
					<path fill="#231815" d="M360.659,11.087h4.667V9.34h-14.142v1.747h4.461v4.094h-4.875v1.747h4.875v3.817h-4.507v10.025h12.049
						c1.196,0,2.185-0.988,2.185-2.185v-7.841h-4.714v-3.817h5.105v-1.747h-5.105V11.087z M360.682,22.493v5.887
						c0,0.367-0.276,0.644-0.667,0.644h-4.185v-6.53H360.682z M349.736,13.823l-1.058-4.76h-4.438l1.035,4.76H349.736z
						 M344.24,14.767l1.081,4.76h4.461l-1.104-4.76H344.24z M344.24,30.794h4.438l1.104-10.187h-4.461L344.24,30.794z
						 M373.956,17.963h1.173l-1.012,12.831h7.956c1.196,0,2.23-0.988,2.139-2.185l-0.529-7.45h-4.139l0.529,7.243
						c0.023,0.345-0.276,0.644-0.644,0.644h-0.851l0.897-11.083h4.99v-1.748h-10.509V17.963z M390.489,9.018h-4.622l-0.184,3.196
						h-1.012v1.633h0.919l-0.896,16.947h4.622l0.896-16.947h0.966v14.647c0,0.368-0.299,0.667-0.667,0.667h-0.483v1.633h3.541
						c1.196,0,2.185-0.988,2.185-2.185V12.214h-5.45L390.489,9.018z M384.005,10.007h-9.589v1.747h9.589V10.007z M417.562,20.262
						h-5.496v1.633h-8.209v1.748h8.209v4.737c0,0.367-0.276,0.644-0.621,0.644h-1.311v1.747h5.266c1.196,0,2.162-0.988,2.162-2.185
						v-4.943h8.07v-1.748h-8.07V20.262z M403.856,30.426h4.736l1.334-5.863h-4.737L403.856,30.426z M419.723,16.491l4.875-1.794
						v-4.3h-13.062l0.552-1.311h-5.38l-2.852,6.691h4.001l1.908,0.713l-4.369,1.609h-1.494v1.886h6.323l4.53-1.655l4.553,1.655
						h6.323v-1.886h-1.518L419.723,16.491z M419.171,13.019l-4.415,1.633l-4.346-1.609l0.367-0.897h8.394V13.019z M419.562,24.562
						l1.334,5.863h4.736l-1.356-5.863H419.562z M449.761,12.421h1.633l-0.414,3.979h3.955l0.575-5.749h-5.52l0.207-1.702h-4.047
						l-0.896,7.451h4.023L449.761,12.421z M436.86,15.203h-2.897v1.748h10.485v-1.748h-2.874v-2.276h3.035v-1.771h-3.035V9.063
						h-4.714v2.093h-3.059v1.771h3.059V15.203z M444.081,19.963v-1.747h-9.728v1.747H444.081z M433.802,23.344h3.449v5.496
						c0,0.391-0.16,0.528-0.46,0.528h-0.253v1.448h2.852c1.104,0,1.978-0.988,1.978-2.184v-5.289h3.266v-1.725h-10.831V23.344z
						 M434.285,24.332l-0.438,6.324h2.277l0.46-6.324H434.285z M452.405,16.744h-4.208v5.104l-2.943,8.945h3.955l1.127-3.61
						l1.126,3.61h3.955l-3.012-8.945V16.744z M441.805,24.332l0.46,6.324h2.299l-0.437-6.324H441.805z"/>
				</g>
			</g>
		</g>
	</g>
	<g>
		<g>
			<g>
				<path fill="#FFFFFF" d="M360.659,11.087h4.667V9.34h-14.142v1.747h4.461v4.094h-4.875v1.747h4.875v3.817h-4.507v10.025h12.049
					c1.196,0,2.185-0.988,2.185-2.185v-7.841h-4.714v-3.817h5.105v-1.747h-5.105V11.087z M360.682,22.493v5.887
					c0,0.367-0.276,0.644-0.667,0.644h-4.185v-6.53H360.682z M344.24,30.794h4.438l1.104-10.187h-4.461L344.24,30.794z
					 M344.24,14.767l1.081,4.76h4.461l-1.104-4.76H344.24z M349.736,13.823l-1.058-4.76h-4.438l1.035,4.76H349.736z M373.956,17.963
					h1.173l-1.012,12.831h7.956c1.196,0,2.23-0.988,2.139-2.185l-0.529-7.45h-4.139l0.529,7.243
					c0.023,0.345-0.276,0.644-0.644,0.644h-0.851l0.897-11.083h4.99v-1.748h-10.509V17.963z M390.489,9.018h-4.622l-0.184,3.196
					h-1.012v1.633h0.919l-0.896,16.947h4.622l0.896-16.947h0.966v14.647c0,0.368-0.299,0.667-0.667,0.667h-0.483v1.633h3.541
					c1.196,0,2.185-0.988,2.185-2.185V12.214h-5.45L390.489,9.018z M384.005,10.007h-9.589v1.747h9.589V10.007z M403.856,30.426
					h4.736l1.334-5.863h-4.737L403.856,30.426z M419.723,16.491l4.875-1.794v-4.3h-13.062l0.552-1.311h-5.38l-2.852,6.691h4.001
					l1.908,0.713l-4.369,1.609h-1.494v1.886h6.323l4.53-1.655l4.553,1.655h6.323v-1.886h-1.518L419.723,16.491z M419.171,13.019
					l-4.415,1.633l-4.346-1.609l0.367-0.897h8.394V13.019z M417.562,20.262h-5.496v1.633h-8.209v1.748h8.209v4.737
					c0,0.367-0.276,0.644-0.621,0.644h-1.311v1.747h5.266c1.196,0,2.162-0.988,2.162-2.185v-4.943h8.07v-1.748h-8.07V20.262z
					 M419.562,24.562l1.334,5.863h4.736l-1.356-5.863H419.562z M436.86,15.203h-2.897v1.748h10.485v-1.748h-2.874v-2.276h3.035
					v-1.771h-3.035V9.063h-4.714v2.093h-3.059v1.771h3.059V15.203z M449.761,12.421h1.633l-0.414,3.979h3.955l0.575-5.749h-5.52
					l0.207-1.702h-4.047l-0.896,7.451h4.023L449.761,12.421z M444.081,19.963v-1.747h-9.728v1.747H444.081z M433.802,23.344h3.449
					v5.496c0,0.391-0.16,0.528-0.46,0.528h-0.253v1.448h2.852c1.104,0,1.978-0.988,1.978-2.184v-5.289h3.266v-1.725h-10.831V23.344z
					 M434.285,24.332l-0.438,6.324h2.277l0.46-6.324H434.285z M441.805,24.332l0.46,6.324h2.299l-0.437-6.324H441.805z
					 M452.405,16.744h-4.208v5.104l-2.943,8.945h3.955l1.127-3.61l1.126,3.61h3.955l-3.012-8.945V16.744z"/>
			</g>
		</g>
	</g>
</g>
<g id="dots" transform="translate(478.000000, 19.000000)">
	<circle id="Oval-2" fill="#FFFFFF" cx="1.5" cy="1.5" r="1.5"/>
	<circle id="Oval-2-Copy-10" fill="#FFFFFF" cx="226.5" cy="1.5" r="1.5"/>
	<circle id="Oval-2-Copy-9" fill="#FFFFFF" cx="201.5" cy="1.5" r="1.5"/>
	<circle id="Oval-2-Copy-8" fill="#FFFFFF" cx="176.5" cy="1.5" r="1.5"/>
	<circle id="Oval-2-Copy-7" fill="#FFFFFF" cx="151.5" cy="1.5" r="1.5"/>
	<circle id="Oval-2-Copy-6" fill="#FFFFFF" cx="126.5" cy="1.5" r="1.5"/>
	<circle id="Oval-2-Copy-5" fill="#FFFFFF" cx="101.5" cy="1.5" r="1.5"/>
	<circle id="Oval-2-Copy-4" fill="#FFFFFF" cx="76.5" cy="1.5" r="1.5"/>
	<circle id="Oval-2-Copy-3" fill="#FFFFFF" cx="51.5" cy="1.5" r="1.5"/>
	<circle id="Oval-2-Copy-2" fill="#FFFFFF" cx="26.5" cy="1.5" r="1.5"/>
</g>
<g id="dots_1_" transform="translate(90.000000, 19.000000)">
	<circle id="Oval-2_1_" fill="#FFFFFF" cx="1.5" cy="1.5" r="1.5"/>
	<circle id="Oval-2-Copy-10_1_" fill="#FFFFFF" cx="226.5" cy="1.5" r="1.5"/>
	<circle id="Oval-2-Copy-9_1_" fill="#FFFFFF" cx="201.5" cy="1.5" r="1.5"/>
	<circle id="Oval-2-Copy-8_1_" fill="#FFFFFF" cx="176.5" cy="1.5" r="1.5"/>
	<circle id="Oval-2-Copy-7_1_" fill="#FFFFFF" cx="151.5" cy="1.5" r="1.5"/>
	<circle id="Oval-2-Copy-6_1_" fill="#FFFFFF" cx="126.5" cy="1.5" r="1.5"/>
	<circle id="Oval-2-Copy-5_1_" fill="#FFFFFF" cx="101.5" cy="1.5" r="1.5"/>
	<circle id="Oval-2-Copy-4_1_" fill="#FFFFFF" cx="76.5" cy="1.5" r="1.5"/>
	<circle id="Oval-2-Copy-3_1_" fill="#FFFFFF" cx="51.5" cy="1.5" r="1.5"/>
	<circle id="Oval-2-Copy-2_1_" fill="#FFFFFF" cx="26.5" cy="1.5" r="1.5"/>
</g>
</svg>
