<?xml version="1.0" encoding="utf-8"?>
<!-- Generator: Adobe Illustrator 16.0.0, SVG Export Plug-In . SVG Version: 6.00 Build 0)  -->
<!DOCTYPE svg PUBLIC "-//W3C//DTD SVG 1.1//EN" "http://www.w3.org/Graphics/SVG/1.1/DTD/svg11.dtd">
<svg version="1.1" id="圖層_1" xmlns="http://www.w3.org/2000/svg" xmlns:xlink="http://www.w3.org/1999/xlink" x="0px" y="0px"
	 width="800px" height="40px" viewBox="0 0 800 40" enable-background="new 0 0 800 40" xml:space="preserve">
<filter  y="-22.7%" id="b" height="163.6%" x="-6.2%" width="112.5%">
	<feOffset  result="shadowOffsetOuter1" dx="0" dy="2" in="SourceAlpha"></feOffset>
	<feGaussianBlur  result="shadowBlurOuter1" stdDeviation="2" in="shadowOffsetOuter1"></feGaussianBlur>
	<feColorMatrix  type="matrix" values="0 0 0 0 0   0 0 0 0 0   0 0 0 0 0  0 0 0 0.4 0" in="shadowBlurOuter1"></feColorMatrix>
</filter>
<g>
	<g transform="">
		<g filter="url(#b)">
			<g>
				<g>
					<path fill="#231815" d="M344.411,14.872l1.081,4.76h4.461l-1.104-4.76H344.411z M360.83,11.192h4.667V9.445h-14.142v1.747
						h4.461v4.094h-4.875v1.747h4.875v3.817h-4.507v10.025h12.05c1.195,0,2.184-0.988,2.184-2.185v-7.841h-4.713v-3.817h5.104
						v-1.747h-5.104V11.192z M360.853,22.599v5.887c0,0.367-0.276,0.644-0.667,0.644H356v-6.53H360.853z M349.906,13.929
						l-1.057-4.76h-4.438l1.034,4.76H349.906z M344.411,30.899h4.438l1.104-10.187h-4.461L344.411,30.899z M374.127,18.068h1.173
						l-1.012,12.831h7.956c1.195,0,2.23-0.988,2.139-2.185l-0.529-7.45h-4.139l0.529,7.243c0.022,0.345-0.276,0.644-0.645,0.644
						h-0.851l0.897-11.083h4.989V16.32h-10.509V18.068z M384.176,10.112h-9.589v1.747h9.589V10.112z M390.66,9.123h-4.621
						l-0.185,3.196h-1.012v1.633h0.919l-0.896,16.947h4.623l0.896-16.947h0.965V28.6c0,0.368-0.299,0.667-0.666,0.667h-0.482v1.633
						h3.541c1.195,0,2.184-0.988,2.184-2.185V12.319h-5.449L390.66,9.123z M424.056,22.023c0.896-0.299,1.563-1.127,1.563-2.069
						v-7.29h-1.058l0.805-3.563h-4.829l-0.805,3.563h-1.609l-0.805-3.563h-4.829l0.805,3.563h-1.081v9.475h1.311l-1.448,8.761h4.806
						l1.403-8.761h0.988v8.761h6.554v-1.748h-1.771V22.023z M420.722,19.747c0,0.368-0.346,0.644-0.713,0.644h-2.852v-5.979h3.564
						V19.747z M410.259,14.734h-6.231v1.747h1.126v14.418h5.979v-1.748h-0.874V14.734z M410.259,9.101h-5.105v4.529h5.105V9.101z
						 M434.134,30.003h6.761c1.38,0,2.507-0.989,2.507-2.208V10.066h-9.268V30.003z M438.112,11.813h1.265v7.336h-1.265V11.813z
						 M438.112,20.896h1.265v6.669c0,0.367-0.345,0.667-0.759,0.667h-0.506V20.896z M444.206,9.399v21.454h4.507v-6.691h2.438v4.415
						c0,0.345-0.368,0.621-0.736,0.621h-0.437v1.655h3.196c1.334,0,2.414-0.989,2.414-2.185V9.399H444.206z M451.15,22.392h-2.438
						v-4.783h2.438V22.392z M451.15,15.838h-2.438v-4.783h2.438V15.838z"/>
				</g>
			</g>
		</g>
		<g>
			<g>
				<g>
					<path fill="#FFFFFF" d="M349.906,13.929l-1.057-4.76h-4.438l1.034,4.76H349.906z M360.83,11.192h4.667V9.445h-14.142v1.747
						h4.461v4.094h-4.875v1.747h4.875v3.817h-4.507v10.025h12.05c1.195,0,2.184-0.988,2.184-2.185v-7.841h-4.713v-3.817h5.104
						v-1.747h-5.104V11.192z M360.853,22.599v5.887c0,0.367-0.276,0.644-0.667,0.644H356v-6.53H360.853z M344.411,14.872l1.081,4.76
						h4.461l-1.104-4.76H344.411z M344.411,30.899h4.438l1.104-10.187h-4.461L344.411,30.899z M374.127,18.068h1.173l-1.012,12.831
						h7.956c1.195,0,2.23-0.988,2.139-2.185l-0.529-7.45h-4.139l0.529,7.243c0.022,0.345-0.276,0.644-0.645,0.644h-0.851
						l0.897-11.083h4.989V16.32h-10.509V18.068z M384.176,10.112h-9.589v1.747h9.589V10.112z M390.66,9.123h-4.621l-0.185,3.196
						h-1.012v1.633h0.919l-0.896,16.947h4.623l0.896-16.947h0.965V28.6c0,0.368-0.299,0.667-0.666,0.667h-0.482v1.633h3.541
						c1.195,0,2.184-0.988,2.184-2.185V12.319h-5.449L390.66,9.123z M410.259,9.101h-5.105v4.529h5.105V9.101z M410.259,14.734
						h-6.231v1.747h1.126v14.418h5.979v-1.748h-0.874V14.734z M424.056,22.023c0.896-0.299,1.563-1.127,1.563-2.069v-7.29h-1.058
						l0.805-3.563h-4.829l-0.805,3.563h-1.609l-0.805-3.563h-4.829l0.805,3.563h-1.081v9.475h1.311l-1.448,8.761h4.806l1.403-8.761
						h0.988v8.761h6.554v-1.748h-1.771V22.023z M420.722,19.747c0,0.368-0.346,0.644-0.713,0.644h-2.852v-5.979h3.564V19.747z
						 M434.134,30.003h6.761c1.38,0,2.507-0.989,2.507-2.208V10.066h-9.268V30.003z M438.112,11.813h1.265v7.336h-1.265V11.813z
						 M438.112,20.896h1.265v6.669c0,0.367-0.345,0.667-0.759,0.667h-0.506V20.896z M444.206,9.399v21.454h4.507v-6.691h2.438v4.415
						c0,0.345-0.368,0.621-0.736,0.621h-0.437v1.655h3.196c1.334,0,2.414-0.989,2.414-2.185V9.399H444.206z M451.15,22.392h-2.438
						v-4.783h2.438V22.392z M451.15,15.838h-2.438v-4.783h2.438V15.838z"/>
				</g>
			</g>
		</g>
	</g>
	<g>
		<g>
			<circle fill="#FFFFFF" cx="479.5" cy="20.5" r="1.5"/>
			<circle fill="#FFFFFF" cx="704.5" cy="20.5" r="1.5"/>
			<circle fill="#FFFFFF" cx="679.5" cy="20.5" r="1.5"/>
			<circle fill="#FFFFFF" cx="654.5" cy="20.5" r="1.5"/>
			<circle fill="#FFFFFF" cx="629.5" cy="20.5" r="1.5"/>
			<circle fill="#FFFFFF" cx="604.5" cy="20.5" r="1.5"/>
			<circle fill="#FFFFFF" cx="579.5" cy="20.5" r="1.5"/>
			<circle fill="#FFFFFF" cx="554.5" cy="20.5" r="1.5"/>
			<circle fill="#FFFFFF" cx="529.5" cy="20.5" r="1.5"/>
			<circle fill="#FFFFFF" cx="504.5" cy="20.5" r="1.5"/>
		</g>
		<g>
			<circle fill="#FFFFFF" cx="91.5" cy="20.5" r="1.5"/>
			<circle fill="#FFFFFF" cx="316.5" cy="20.5" r="1.5"/>
			<circle fill="#FFFFFF" cx="291.5" cy="20.5" r="1.5"/>
			<circle fill="#FFFFFF" cx="266.5" cy="20.5" r="1.5"/>
			<circle fill="#FFFFFF" cx="241.5" cy="20.5" r="1.5"/>
			<circle fill="#FFFFFF" cx="216.5" cy="20.5" r="1.5"/>
			<circle fill="#FFFFFF" cx="191.5" cy="20.5" r="1.5"/>
			<circle fill="#FFFFFF" cx="166.5" cy="20.5" r="1.5"/>
			<circle fill="#FFFFFF" cx="141.5" cy="20.5" r="1.5"/>
			<circle fill="#FFFFFF" cx="116.5" cy="20.5" r="1.5"/>
		</g>
	</g>
</g>
</svg>
