<svg width="100" height="100" viewBox="0 0 100 100" fill="none" xmlns="http://www.w3.org/2000/svg">
<path d="M28.5464 39.0893C28.0967 39.0197 27.6925 39.348 27.6667 39.8037L27.3813 49.2045C27.3883 49.5546 27.6388 49.8649 27.9786 49.9447L37.2034 51.6218C37.6531 51.6914 38.0573 51.3631 38.0831 50.9074L38.3685 41.5066C38.3853 41.1372 38.1348 40.8269 37.7712 40.7665L28.5464 39.0893Z" fill="url(#paint0_linear_955_7583)"/>
<path fill-rule="evenodd" clip-rule="evenodd" d="M46.0001 86.2857C46.0001 90.5045 49.3751 94 53.7143 94H92.2857C96.5045 94 100 90.5045 100 86.2857V47.7143C100 43.375 96.5045 40 92.2857 40H53.7143C49.3751 40 46.0001 43.375 46.0001 47.7143V86.2857ZM57.5715 55.4286C57.5715 53.2589 59.259 51.5714 61.4286 51.5714C63.4777 51.5714 65.2857 53.2589 65.2857 55.4286C65.2857 57.4777 63.4777 59.2857 61.4286 59.2857C59.259 59.2857 57.5715 57.4777 57.5715 55.4286ZM57.5715 78.5714C57.5715 76.4018 59.259 74.7143 61.4286 74.7143C63.4777 74.7143 65.2857 76.4018 65.2857 78.5714C65.2857 80.6205 63.4777 82.4286 61.4286 82.4286C59.259 82.4286 57.5715 80.6205 57.5715 78.5714ZM69.1429 67C69.1429 64.8304 70.8304 63.1428 73 63.1428C75.0491 63.1428 76.8572 64.8304 76.8572 67C76.8572 69.0491 75.0491 70.8571 73 70.8571C70.8304 70.8571 69.1429 69.0491 69.1429 67ZM80.7143 55.4286C80.7143 53.2589 82.4018 51.5714 84.5714 51.5714C86.6205 51.5714 88.4286 53.2589 88.4286 55.4286C88.4286 57.4777 86.6205 59.2857 84.5714 59.2857C82.4018 59.2857 80.7143 57.4777 80.7143 55.4286ZM80.7143 78.5714C80.7143 76.4018 82.4018 74.7143 84.5714 74.7143C86.6205 74.7143 88.4286 76.4018 88.4286 78.5714C88.4286 80.6205 86.6205 82.4286 84.5714 82.4286C82.4018 82.4286 80.7143 80.6205 80.7143 78.5714Z" fill="url(#paint1_linear_955_7583)"/>
<path d="M60.3032 40H70.2014L65.1014 9.81961C64.6794 7.32286 62.3199 5.64196 59.8311 6.06523L36.1456 10.0935C36.2821 10.2416 36.4146 10.3951 36.5429 10.5541L60.3032 40Z" fill="white" fill-opacity="0.8"/>
<path d="M86.0578 40H74.8391L69.957 11.109L88.9256 17.7078C91.3105 18.5375 92.5735 21.1497 91.7465 23.5423L86.0578 40Z" fill="white" fill-opacity="0.8"/>
<path fill-rule="evenodd" clip-rule="evenodd" d="M54.4234 40H53.7143C49.375 40 46 43.375 46 47.7143V73.4457L39.0801 79.2861C37.1181 80.8795 34.2401 80.5755 32.6518 78.6072L1.01825 39.4041C-0.570004 37.4358 -0.267017 34.5485 1.69499 32.9552L26.5626 12.7601C28.5246 11.1668 31.4027 11.4707 32.9909 13.439L54.4234 40ZM27.6669 39.8039C27.6927 39.3482 28.0969 39.02 28.5466 39.0895L37.7714 40.7667C38.135 40.8271 38.3855 41.1375 38.3687 41.5068L38.0833 50.9077C38.0575 51.3634 37.6533 51.6916 37.2036 51.6221L27.9788 49.9449C27.639 49.8652 27.3885 49.5548 27.3815 49.2048L27.6669 39.8039Z" fill="white" fill-opacity="0.8"/>
<defs>
<linearGradient id="paint0_linear_955_7583" x1="27.3813" y1="94" x2="100" y2="94" gradientUnits="userSpaceOnUse">
<stop stop-color="#DB082D"/>
<stop offset="0.52967" stop-color="#F0453A"/>
<stop offset="1" stop-color="#FE693B"/>
</linearGradient>
<linearGradient id="paint1_linear_955_7583" x1="27.3813" y1="94" x2="100" y2="94" gradientUnits="userSpaceOnUse">
<stop stop-color="#DB082D"/>
<stop offset="0.52967" stop-color="#F0453A"/>
<stop offset="1" stop-color="#FE693B"/>
</linearGradient>
</defs>
</svg>
