<svg width="88" height="88" viewBox="0 0 88 88" fill="none" xmlns="http://www.w3.org/2000/svg">
<path d="M65.67 56.76C66.3009 56.76 66.9177 56.5729 67.4423 56.2224C67.9669 55.8719 68.3758 55.3737 68.6172 54.7908C68.8586 54.2079 68.9218 53.5665 68.7987 52.9477C68.6756 52.3289 68.3718 51.7605 67.9257 51.3143C67.4796 50.8682 66.9112 50.5644 66.2924 50.4413C65.6736 50.3182 65.0322 50.3814 64.4493 50.6228C63.8664 50.8643 63.3682 51.2731 63.0176 51.7977C62.6671 52.3223 62.48 52.9391 62.48 53.57C62.48 54.416 62.8161 55.2274 63.4144 55.8257C64.0126 56.4239 64.824 56.76 65.67 56.76ZM56.1 56.76C56.7309 56.76 57.3477 56.5729 57.8723 56.2224C58.3969 55.8719 58.8058 55.3737 59.0472 54.7908C59.2886 54.2079 59.3518 53.5665 59.2287 52.9477C59.1056 52.3289 58.8018 51.7605 58.3557 51.3143C57.9096 50.8682 57.3412 50.5644 56.7224 50.4413C56.1036 50.3182 55.4622 50.3814 54.8793 50.6228C54.2964 50.8643 53.7982 51.2731 53.4476 51.7977C53.0971 52.3223 52.91 52.9391 52.91 53.57C52.91 54.416 53.2461 55.2274 53.8444 55.8257C54.4426 56.4239 55.254 56.76 56.1 56.76ZM36.96 63.14L36.96 83.215C36.96 84.4841 37.4642 85.7012 38.3615 86.5985C39.2589 87.4959 40.476 88 41.745 88H83.215C84.4841 88 85.7012 87.4959 86.5985 86.5985C87.4959 85.7012 88 84.4841 88 83.215V63.14H36.96Z" fill="url(#paint0_linear_968_3369)"/>
<path d="M0 14.08C0 11.6499 1.96995 9.67999 4.4 9.67999H66C68.4301 9.67999 70.4 11.6499 70.4 14.08V40.48H66V16.72C66 15.262 64.818 14.08 63.36 14.08H7.04C5.58197 14.08 4.4 15.262 4.4 16.72V51.92C4.4 53.378 5.58197 54.56 7.04 54.56H33.44V69.52H26.1282C24.8203 69.52 23.76 68.4597 23.76 67.1518C23.76 66.8057 23.8359 66.4639 23.9822 66.1502L27.3382 58.96H4.4C1.96995 58.96 0 56.99 0 54.56V14.08Z" fill="white" fill-opacity="0.8"/>
<path fill-rule="evenodd" clip-rule="evenodd" d="M41.745 44H83.215C84.4841 44 85.7011 44.5041 86.5985 45.4015C87.4959 46.2988 88 47.5159 88 48.785V63.14H36.96V48.785C36.96 47.5159 37.4641 46.2988 38.3615 45.4015C39.2589 44.5041 40.4759 44 41.745 44ZM44.7577 56.2224C45.2823 56.5729 45.8991 56.76 46.53 56.76C47.376 56.76 48.1874 56.4239 48.7857 55.8257C49.3839 55.2274 49.72 54.416 49.72 53.57C49.72 52.9391 49.5329 52.3223 49.1824 51.7977C48.8319 51.2731 48.3337 50.8643 47.7508 50.6228C47.1679 50.3814 46.5265 50.3182 45.9077 50.4413C45.2889 50.5644 44.7205 50.8682 44.2743 51.3143C43.8282 51.7605 43.5244 52.3289 43.4013 52.9477C43.2782 53.5665 43.3414 54.2079 43.5828 54.7908C43.8243 55.3737 44.2331 55.8719 44.7577 56.2224ZM54.3277 56.2224C54.8523 56.5729 55.4691 56.76 56.1 56.76C56.946 56.76 57.7574 56.4239 58.3557 55.8257C58.9539 55.2274 59.29 54.416 59.29 53.57C59.29 52.9391 59.1029 52.3223 58.7524 51.7977C58.4019 51.2731 57.9037 50.8643 57.3208 50.6228C56.7379 50.3814 56.0965 50.3182 55.4777 50.4413C54.8589 50.5644 54.2905 50.8682 53.8443 51.3143C53.3982 51.7605 53.0944 52.3289 52.9713 52.9477C52.8482 53.5665 52.9114 54.2079 53.1528 54.7908C53.3943 55.3737 53.8031 55.8719 54.3277 56.2224ZM63.8977 56.2224C64.4223 56.5729 65.0391 56.76 65.67 56.76C66.516 56.76 67.3274 56.4239 67.9257 55.8257C68.5239 55.2274 68.86 54.416 68.86 53.57C68.86 52.9391 68.6729 52.3223 68.3224 51.7977C67.9719 51.2731 67.4737 50.8643 66.8908 50.6228C66.3079 50.3814 65.6665 50.3182 65.0477 50.4413C64.4289 50.5644 63.8605 50.8682 63.4143 51.3143C62.9682 51.7605 62.6644 52.3289 62.5413 52.9477C62.4182 53.5665 62.4814 54.2079 62.7228 54.7908C62.9643 55.3737 63.3731 55.8719 63.8977 56.2224Z" fill="white" fill-opacity="0.8"/>
<defs>
<linearGradient id="paint0_linear_968_3369" x1="36.96" y1="88" x2="88" y2="88" gradientUnits="userSpaceOnUse">
<stop stop-color="#DB082D"/>
<stop offset="0.52967" stop-color="#F0453A"/>
<stop offset="1" stop-color="#FE693B"/>
</linearGradient>
</defs>
</svg>
