<svg width="88" height="88" viewBox="0 0 88 88" fill="none" xmlns="http://www.w3.org/2000/svg">
<path d="M87.3984 68.6314L83.1428 66.1737C83.5717 63.8511 83.5717 61.4696 83.1428 59.147L87.3984 56.6893C87.6361 56.5534 87.8199 56.34 87.919 56.0847C88.0181 55.8295 88.0265 55.5479 87.9427 55.2873C86.8461 51.7624 84.9751 48.5275 82.4665 45.8194C82.2821 45.618 82.0346 45.4855 81.7648 45.4435C81.495 45.4015 81.2189 45.4527 80.982 45.5884L76.7264 48.0461C74.9288 46.5136 72.866 45.3229 70.6399 44.5328V39.6174C70.6397 39.3444 70.5464 39.0796 70.3755 38.8667C70.2046 38.6538 69.9662 38.5055 69.6997 38.4463C66.1048 37.6379 62.3752 37.6379 58.7803 38.4463C58.5138 38.5055 58.2754 38.6538 58.1045 38.8667C57.9336 39.0796 57.8403 39.3444 57.8401 39.6174V44.5328C55.6139 45.3229 53.5511 46.5136 51.7536 48.0461L47.4979 45.5884C47.2609 45.4532 46.985 45.4025 46.7153 45.4444C46.4457 45.4864 46.1982 45.6185 46.0134 45.8194C43.5049 48.5275 41.6338 51.7624 40.5372 55.2873C40.4575 55.5481 40.4678 55.8283 40.5665 56.0826C40.6653 56.3369 40.8467 56.5506 41.0815 56.6893L45.3371 59.147C44.9083 61.4696 44.9083 63.8511 45.3371 66.1737L41.0815 68.6314C40.8438 68.7673 40.66 68.9807 40.5609 69.236C40.4618 69.4912 40.4535 69.7728 40.5372 70.0335C41.6376 73.5566 43.5083 76.7907 46.0134 79.5014C46.1979 79.7027 46.4454 79.8352 46.7152 79.8772C46.985 79.9192 47.261 79.8681 47.4979 79.7323L51.7536 77.2746C53.5511 78.8071 55.6139 79.9979 57.8401 80.7879V85.7033C57.8403 85.9764 57.9336 86.2411 58.1045 86.454C58.2754 86.6669 58.5138 86.8152 58.7803 86.8745C62.3752 87.6828 66.1048 87.6828 69.6997 86.8745C69.9662 86.8152 70.2046 86.6669 70.3755 86.454C70.5464 86.2411 70.6397 85.9764 70.6399 85.7033V80.7879C72.866 79.9979 74.9288 78.8071 76.7264 77.2746L80.982 79.7323C81.2191 79.8675 81.495 79.9182 81.7646 79.8763C82.0343 79.8344 82.2817 79.7022 82.4665 79.5014C84.9751 76.7932 86.8461 73.5583 87.9427 70.0335C88.0225 69.7726 88.0122 69.4925 87.9134 69.2382C87.8147 68.9839 87.6333 68.7702 87.3984 68.6314V68.6314ZM64.2565 70.6603C62.6742 70.6603 61.1276 70.1911 59.812 69.312C58.4964 68.433 57.471 67.1836 56.8655 65.7218C56.26 64.26 56.1016 62.6515 56.4103 61.0997C56.719 59.5478 57.4809 58.1224 58.5997 57.0036C59.7185 55.8848 61.1439 55.1229 62.6958 54.8142C64.2476 54.5055 65.8561 54.6639 67.3179 55.2694C68.7797 55.8749 70.0291 56.9003 70.9081 58.2159C71.7872 59.5314 72.2564 61.0781 72.2564 62.6604C72.2542 64.7814 71.4106 66.8149 69.9108 68.3147C68.411 69.8145 66.3775 70.6581 64.2565 70.6603V70.6603Z" fill="url(#paint0_linear_968_3387)"/>
<path d="M48.4 24.64C48.4 28.121 47.3678 31.5237 45.4339 34.418C43.5 37.3123 40.7512 39.5682 37.5352 40.9003C34.3193 42.2324 30.7805 42.5809 27.3664 41.9018C23.9523 41.2227 20.8163 39.5465 18.3549 37.0851C15.8935 34.6237 14.2173 31.4877 13.5382 28.0736C12.8591 24.6595 13.2076 21.1208 14.5397 17.9048C15.8718 14.6888 18.1277 11.9401 21.022 10.0061C23.9163 8.07223 27.3191 7.04001 30.8 7.04001C35.4678 7.04001 39.9444 8.89429 43.2451 12.1949C46.5457 15.4956 48.4 19.9722 48.4 24.64Z" fill="white" fill-opacity="0.8"/>
<path d="M45.2864 46.64H39.7158C36.9556 47.9377 33.9523 48.6096 30.9128 48.6096C27.8734 48.6096 24.8701 47.9377 22.1099 46.64H15.4564C11.3571 46.64 7.42569 48.3004 4.52704 51.2559C1.6284 54.2113 0 59.2206 0 63.4003V65.3702C0 66.9376 0.610666 68.4408 1.69766 69.5491C2.78465 70.6574 4.25893 71.28 5.79616 71.28H40.9631C40.8104 70.8689 40.6683 70.4532 40.5372 70.0335C40.4535 69.7728 40.4619 69.4912 40.561 69.236C40.66 68.9807 40.8438 68.7673 41.0816 68.6314L45.3372 66.1737C44.9083 63.8511 44.9083 61.4696 45.3372 59.147L41.0816 56.6893C40.8467 56.5506 40.6653 56.3369 40.5666 56.0826C40.4678 55.8283 40.4575 55.5482 40.5372 55.2873C41.5251 52.1119 43.1416 49.1717 45.2864 46.64Z" fill="white" fill-opacity="0.8"/>
<path d="M50.1458 47.1176L51.7536 48.0461C51.8665 47.9499 51.9805 47.8549 52.0954 47.7614C51.461 47.5034 50.8097 47.2882 50.1458 47.1176Z" fill="white" fill-opacity="0.8"/>
<defs>
<linearGradient id="paint0_linear_968_3387" x1="40.48" y1="87.4807" x2="88" y2="87.4807" gradientUnits="userSpaceOnUse">
<stop stop-color="#DB082D"/>
<stop offset="0.52967" stop-color="#F0453A"/>
<stop offset="1" stop-color="#FE693B"/>
</linearGradient>
</defs>
</svg>
