<svg width="88" height="88" viewBox="0 0 88 88" fill="none" xmlns="http://www.w3.org/2000/svg">
<path d="M53.992 6.58365V11.9514C53.9923 12.6277 53.8356 13.2948 53.5344 13.9003C53.2331 14.5058 52.7955 15.0331 52.2559 15.4408L45.7906 20.323C45.6086 20.4444 45.4617 20.6114 45.3646 20.8074C45.2674 21.0034 45.2235 21.2214 45.2371 21.4397C45.2506 21.658 45.3213 21.8689 45.442 22.0514C45.5627 22.2338 45.7292 22.3813 45.9249 22.4791L47.6157 23.3238C48.0305 23.5314 48.3793 23.8503 48.6231 24.2449C48.8669 24.6395 48.996 25.0942 48.9959 25.558V37.7548C48.9959 38.0861 48.8643 38.4038 48.6301 38.638C48.3958 38.8722 48.0781 39.0038 47.7469 39.0038H47.2691C47.0373 39.0037 46.8102 38.9391 46.613 38.8172C46.4159 38.6954 46.2565 38.521 46.1528 38.3138C46.0932 38.1931 45.9999 38.0922 45.8843 38.0233C45.8064 37.977 45.7201 37.9464 45.6304 37.9334C45.5406 37.9204 45.4492 37.9252 45.3614 37.9475C45.2735 37.9699 45.1909 38.0093 45.1183 38.0636C45.0457 38.1178 44.9844 38.1859 44.9381 38.2638L42.2308 42.7915C42.0082 43.1609 41.6938 43.4663 41.3181 43.678C40.9425 43.8898 40.5184 44.0007 40.0872 44H40.0388C39.7105 43.9999 39.3855 44.0646 39.0822 44.1902C38.779 44.3158 38.5034 44.5 38.2714 44.7322L37.3877 45.6159C37.1537 45.8501 37.0222 46.1677 37.0222 46.4988C37.0222 46.8299 37.1537 47.1475 37.3877 47.3817L38.2714 48.2654C38.74 48.7337 39.0033 49.3688 39.0037 50.0312V51.4942C39.0037 52.1567 38.7405 52.7921 38.272 53.2606C37.8035 53.729 37.1681 53.9922 36.5056 53.9922H35.5532C35.09 53.9913 34.6362 53.8615 34.2425 53.6175C33.8488 53.3735 33.5307 53.0249 33.3237 52.6105L29.792 45.5488C29.6445 45.2524 29.3854 45.0267 29.0715 44.9213C28.7577 44.8159 28.4148 44.8395 28.1183 44.9867C27.9964 45.0481 27.8852 45.1288 27.7889 45.2256L24.7491 48.2639C24.517 48.496 24.2415 48.6802 23.9383 48.8059C23.635 48.9315 23.31 48.9962 22.9817 48.9961H5.59985C8.04952 68.0251 24.3025 82.72 43.9998 82.72C65.3895 82.72 82.7198 65.3896 82.7198 44C82.7198 26.0654 70.5417 10.988 53.992 6.58365ZM68.9804 59.9923C68.9801 60.6547 68.7167 61.2898 68.2482 61.7581L66.754 63.2522C66.2858 63.7208 65.6506 63.9842 64.9882 63.9845H62.6213C62.2914 63.9843 61.9649 63.9189 61.6605 63.7918C61.356 63.6648 61.0798 63.4788 60.8477 63.2444L58.818 61.2148C58.3069 60.7057 57.6728 60.3375 56.9774 60.146C56.282 59.9545 55.5488 59.9462 54.8492 60.1219L51.5283 60.9525C51.3303 61.0023 51.1268 61.0275 50.9225 61.0274H49.3082C48.6495 61.0242 48.0188 60.761 47.5533 60.2952L45.6938 58.4357C45.5778 58.3196 45.4859 58.1818 45.4232 58.0302C45.3605 57.8785 45.3283 57.716 45.3284 57.552V55.9595C45.328 55.7103 45.4021 55.4667 45.5412 55.26C45.6803 55.0532 45.8781 54.8929 46.1091 54.7994L52.2512 52.3419C52.5603 52.2191 52.8534 52.0592 53.124 51.8657L56.8258 49.2287C57.0374 49.0783 57.2906 48.9975 57.5502 48.9977H59.4456C59.6925 48.9976 59.9338 49.0707 60.1392 49.2076C60.3445 49.3446 60.5047 49.5394 60.5994 49.7674L61.4347 51.7736C61.4821 51.8873 61.5622 51.9845 61.6647 52.0528C61.7672 52.1212 61.8876 52.1577 62.0108 52.1577H62.6041C62.7392 52.1577 62.8707 52.1139 62.9788 52.0328C63.0869 51.9517 63.1658 51.8378 63.2036 51.7081L63.8531 49.4457C63.891 49.316 63.9699 49.2021 64.078 49.121C64.1861 49.0399 64.3176 48.9961 64.4527 48.9961H65.3988C65.5645 48.9961 65.7233 49.0619 65.8404 49.179C65.9575 49.2961 66.0233 49.455 66.0233 49.6206V51.6503C66.0232 51.8144 66.0554 51.9769 66.1181 52.1285C66.1808 52.2801 66.2727 52.4179 66.3887 52.534L68.2482 54.3935C68.7148 54.8598 68.9781 55.4918 68.9804 56.1515V59.9923Z" fill="white" fill-opacity="0.8"/>
<path d="M45.8845 38.0234C46.0002 38.0923 46.0934 38.1931 46.1531 38.3138C46.2568 38.5211 46.4161 38.6954 46.6133 38.8173C46.8104 38.9391 47.0376 39.0037 47.2694 39.0039H47.7471C48.0784 39.0039 48.3961 38.8723 48.6303 38.638C48.8646 38.4038 48.9962 38.0861 48.9962 37.7548V25.558C48.9962 25.0942 48.8671 24.6395 48.6233 24.2449C48.3796 23.8503 48.0308 23.5314 47.616 23.3238L45.9251 22.4792C45.7295 22.3813 45.563 22.2338 45.4423 22.0514C45.3216 21.869 45.2509 21.6581 45.2373 21.4398C45.2237 21.2214 45.2677 21.0034 45.3648 20.8074C45.462 20.6114 45.6089 20.4444 45.7908 20.323L52.2561 15.4409C52.7957 15.0332 53.2334 14.5058 53.5346 13.9003C53.8359 13.2948 53.9925 12.6277 53.9923 11.9514V6.58368C50.7325 5.71612 47.3733 5.27785 44 5.28001C22.6104 5.28001 5.28003 22.6103 5.28003 44C5.27965 45.6705 5.38656 47.3393 5.60009 48.9961H22.9819C23.6444 48.9958 24.2795 48.7324 24.7478 48.2639L27.7876 45.2256C27.9274 45.0847 28.0988 44.9792 28.2876 44.9177C28.4763 44.8563 28.677 44.8407 28.8729 44.8723C29.0689 44.9039 29.2545 44.9818 29.4144 45.0994C29.5743 45.217 29.7038 45.3711 29.7923 45.5488L33.3239 52.6105C33.5309 53.0249 33.849 53.3735 34.2427 53.6175C34.6365 53.8616 35.0903 53.9913 35.5534 53.9923H36.5058C37.1684 53.9923 37.8038 53.7291 38.2722 53.2606C38.7407 52.7921 39.0039 52.1567 39.0039 51.4942V50.0313C39.0036 49.3689 38.7402 48.7337 38.2717 48.2654L37.388 47.3818C37.1539 47.1475 37.0224 46.83 37.0224 46.4988C37.0224 46.1677 37.1539 45.8502 37.388 45.6159L38.2717 44.7322C38.5037 44.5001 38.7792 44.3159 39.0825 44.1902C39.3857 44.0646 39.7108 43.9999 40.039 44H40.0874C40.5188 44 40.9429 43.8882 41.3183 43.6756C41.6937 43.463 42.0076 43.1568 42.2295 42.7869L44.9368 38.2669C45.0296 38.1092 45.1812 37.9947 45.3583 37.9488C45.5355 37.9028 45.7236 37.9291 45.8814 38.0218L45.8845 38.0234ZM68.2484 54.3857L66.3889 52.5262C66.273 52.4101 66.181 52.2723 66.1183 52.1207C66.0557 51.9691 66.0235 51.8066 66.0236 51.6425V49.6206C66.0236 49.455 65.9578 49.2962 65.8407 49.179C65.7236 49.0619 65.5647 48.9961 65.3991 48.9961H64.4529C64.3178 48.9961 64.1863 49.04 64.0782 49.121C63.9701 49.2021 63.8912 49.3161 63.8534 49.4458L63.2039 51.7081C63.1661 51.8378 63.0872 51.9518 62.9791 52.0328C62.871 52.1139 62.7395 52.1577 62.6044 52.1577H62.0111C61.8879 52.1577 61.7674 52.1212 61.6649 52.0529C61.5624 51.9845 61.4824 51.8874 61.435 51.7737L60.5997 49.7674C60.5049 49.5395 60.3448 49.3447 60.1394 49.2077C59.9341 49.0707 59.6927 48.9976 59.4459 48.9977H57.5505C57.2908 48.9976 57.0376 49.0783 56.826 49.2288L53.1242 51.8658C52.8536 52.0592 52.5606 52.2191 52.2514 52.342L46.1093 54.7994C45.8783 54.8929 45.6806 55.0533 45.5415 55.26C45.4024 55.4667 45.3283 55.7103 45.3287 55.9595V57.552C45.3286 57.7161 45.3608 57.8786 45.4234 58.0302C45.4861 58.1818 45.5781 58.3196 45.694 58.4357L47.5535 60.2952C48.0191 60.7611 48.6498 61.0242 49.3084 61.0274H50.9228C51.127 61.0275 51.3305 61.0024 51.5286 60.9525L54.8494 60.1219C55.549 59.9462 56.2822 59.9546 56.9777 60.1461C57.6731 60.3376 58.3072 60.7057 58.8182 61.2148L60.8479 63.2445C61.08 63.4788 61.3563 63.6649 61.6607 63.7919C61.9651 63.9189 62.2917 63.9844 62.6215 63.9845H64.9885C65.6509 63.9842 66.286 63.7208 66.7543 63.2523L68.2484 61.7581C68.717 61.2899 68.9804 60.6547 68.9807 59.9923V56.1515C68.9804 55.4891 68.717 54.8539 68.2484 54.3857V54.3857Z" fill="url(#paint0_linear_968_3393)"/>
<defs>
<linearGradient id="paint0_linear_968_3393" x1="5.28003" y1="63.9845" x2="68.9807" y2="63.9845" gradientUnits="userSpaceOnUse">
<stop stop-color="#DB082D"/>
<stop offset="0.52967" stop-color="#F0453A"/>
<stop offset="1" stop-color="#FE693B"/>
</linearGradient>
</defs>
</svg>
