<svg width="100" height="100" viewBox="0 0 100 100" fill="none" xmlns="http://www.w3.org/2000/svg">
<g clip-path="url(#clip0_955_7594)">
<path d="M50 54C54.3761 54 58.5729 52.2616 61.6673 49.1673C64.7616 46.0729 66.5 41.8761 66.5 37.5V35H33.5V37.5C33.5 41.8761 35.2384 46.0729 38.3327 49.1673C41.4271 52.2616 45.6239 54 50 54ZM63.2 59H61.7717C58.1898 60.7188 54.2281 61.75 50 61.75C45.7719 61.75 41.8119 60.7188 38.2283 59H36.8C31.5487 59 26.5125 61.0861 22.7993 64.7993C19.0861 68.5125 17 73.5487 17 78.8V83.75C17 85.938 17.8692 88.0365 19.4164 89.5836C20.9635 91.1308 23.062 92 25.25 92H74.75C76.938 92 79.0365 91.1308 80.5836 89.5836C82.1308 88.0365 83 85.938 83 83.75V78.8C83 73.5487 80.9139 68.5125 77.2007 64.7993C73.4875 61.0861 68.4513 59 63.2 59Z" fill="white" fill-opacity="0.8"/>
<path d="M41.6854 19.1512L49.9879 15L58.2904 19.1512L66.5929 15V28H33.3829V15L41.6854 19.1512Z" fill="url(#paint0_linear_955_7594)"/>
<path d="M16.6407 53.1782C14.4466 53.1782 12.3017 52.5278 10.4773 51.3093C8.65297 50.0908 7.23105 48.359 6.39139 46.3327C5.55173 44.3064 5.33204 42.0768 5.76009 39.9257C6.18815 37.7746 7.24473 35.7988 8.79622 34.2479C10.3477 32.6971 12.3244 31.641 14.4764 31.2131C16.6284 30.7852 18.859 31.0048 20.8861 31.8441C22.9132 32.6834 24.6458 34.1047 25.8648 35.9283C27.0838 37.7519 27.7345 39.8959 27.7345 42.0891C27.7345 45.0301 26.5657 47.8506 24.4852 49.9303C22.4047 52.0099 19.583 53.1782 16.6407 53.1782Z" fill="url(#paint1_linear_955_7594)"/>
<path d="M22.1876 58.8218H11.0938C8.15152 58.8218 5.32978 59.9902 3.24929 62.0698C1.16881 64.1494 0 66.9699 0 69.9109V75.4555C0 76.926 0.584398 78.3362 1.62464 79.376C2.66488 80.4158 4.07576 81 5.54689 81H16.9769C16.9844 80.9435 16.9921 80.887 17 80.8305V78.8C17 73.5487 19.0861 68.5125 22.7993 64.7993C24.4733 63.1252 26.4163 61.7819 28.5266 60.8113C26.6802 59.5229 24.4699 58.8196 22.1876 58.8218Z" fill="url(#paint2_linear_955_7594)"/>
<path d="M83 80.3967C83.0315 80.5973 83.0607 80.7984 83.0874 81H94.5174C95.9886 81 97.3994 80.4158 98.4397 79.376C99.4799 78.3362 100.064 76.926 100.064 75.4555V69.9109C100.064 66.9699 98.8955 64.1494 96.815 62.0698C94.7346 59.9902 91.9128 58.8218 88.9706 58.8218H77.8768C75.5839 58.8196 73.3637 59.5294 71.5121 60.8292C73.6075 61.7984 75.5369 63.1355 77.2007 64.7993C80.9139 68.5125 83 73.5487 83 78.8V80.3967Z" fill="url(#paint3_linear_955_7594)"/>
<path d="M89.587 51.3093C87.7626 52.5278 85.6178 53.1782 83.4236 53.1782C80.4814 53.1782 77.6596 52.0099 75.5791 49.9303C73.4987 47.8506 72.3298 45.0301 72.3298 42.0891C72.3298 39.8959 72.9805 37.7519 74.1995 35.9283C75.4185 34.1047 77.1511 32.6834 79.1782 31.8441C81.2053 31.0048 83.4359 30.7852 85.5879 31.2131C87.7399 31.641 89.7166 32.6971 91.2681 34.2479C92.8196 35.7988 93.8762 37.7746 94.3042 39.9257C94.7323 42.0768 94.5126 44.3064 93.6729 46.3327C92.8333 48.359 91.4114 50.0908 89.587 51.3093Z" fill="url(#paint4_linear_955_7594)"/>
</g>
<defs>
<linearGradient id="paint0_linear_955_7594" x1="0" y1="81" x2="100.064" y2="81" gradientUnits="userSpaceOnUse">
<stop stop-color="#DB082D"/>
<stop offset="0.52967" stop-color="#F0453A"/>
<stop offset="1" stop-color="#FE693B"/>
</linearGradient>
<linearGradient id="paint1_linear_955_7594" x1="0" y1="81" x2="100.064" y2="81" gradientUnits="userSpaceOnUse">
<stop stop-color="#DB082D"/>
<stop offset="0.52967" stop-color="#F0453A"/>
<stop offset="1" stop-color="#FE693B"/>
</linearGradient>
<linearGradient id="paint2_linear_955_7594" x1="0" y1="81" x2="100.064" y2="81" gradientUnits="userSpaceOnUse">
<stop stop-color="#DB082D"/>
<stop offset="0.52967" stop-color="#F0453A"/>
<stop offset="1" stop-color="#FE693B"/>
</linearGradient>
<linearGradient id="paint3_linear_955_7594" x1="0" y1="81" x2="100.064" y2="81" gradientUnits="userSpaceOnUse">
<stop stop-color="#DB082D"/>
<stop offset="0.52967" stop-color="#F0453A"/>
<stop offset="1" stop-color="#FE693B"/>
</linearGradient>
<linearGradient id="paint4_linear_955_7594" x1="0" y1="81" x2="100.064" y2="81" gradientUnits="userSpaceOnUse">
<stop stop-color="#DB082D"/>
<stop offset="0.52967" stop-color="#F0453A"/>
<stop offset="1" stop-color="#FE693B"/>
</linearGradient>
<clipPath id="clip0_955_7594">
<rect width="100" height="100" fill="white"/>
</clipPath>
</defs>
</svg>
