<svg width="88" height="88" viewBox="0 0 88 88" fill="none" xmlns="http://www.w3.org/2000/svg">
<path d="M44 3.51999C30.3884 3.51999 19.36 14.5484 19.36 28.16C19.36 41.7716 30.3884 52.8 44 52.8C57.6116 52.8 68.64 41.7716 68.64 28.16C68.64 14.5484 57.6116 3.51999 44 3.51999ZM46.3845 40.8774V42.4671C46.3845 42.8887 46.217 43.293 45.9189 43.5912C45.6208 43.8893 45.2164 44.0568 44.7948 44.0568H43.2051C42.7835 44.0568 42.3792 43.8893 42.0811 43.5912C41.783 43.293 41.6155 42.8887 41.6155 42.4671V40.8575C39.9688 40.798 38.3718 40.2782 37.0054 39.3573C36.141 38.7711 36.0119 37.559 36.7769 36.8535L37.9691 35.7308C38.5057 35.2241 39.2906 35.1943 39.9264 35.5719C40.5252 35.9252 41.2083 36.1106 41.9036 36.1084H46.3746C47.4973 36.1084 48.4113 35.0651 48.4113 33.7835C48.4113 32.7303 47.7854 31.8063 46.9011 31.5281L39.7277 29.3522C36.8464 28.4779 34.8395 25.6761 34.8395 22.5365C34.8395 18.6319 37.8797 15.4525 41.6155 15.4426V13.8529C41.6155 13.4313 41.783 13.0269 42.0811 12.7288C42.3792 12.4307 42.7835 12.2632 43.2051 12.2632H44.7948C45.2164 12.2632 45.6208 12.4307 45.9189 12.7288C46.217 13.0269 46.3845 13.4313 46.3845 13.8529V15.4624C48.0312 15.522 49.6282 16.0417 50.9946 16.9627C51.859 17.5489 51.9881 18.761 51.2231 19.4664L50.0308 20.5891C49.4943 21.0959 48.7094 21.1257 48.0735 20.7481C47.4747 20.3947 46.7917 20.2094 46.0964 20.2116H41.6254C40.5027 20.2116 39.5886 21.2548 39.5886 22.5365C39.5886 23.5897 40.2146 24.5137 41.0988 24.7919L48.2524 26.9677C51.1337 27.8421 53.1406 30.6439 53.1406 33.7835C53.1605 37.6881 50.1202 40.8575 46.3845 40.8774Z" fill="url(#paint0_linear_968_3381)"/>
<path d="M41.6154 13.8526V15.4423C37.8796 15.4523 34.8394 18.6316 34.8394 22.5363C34.8394 25.6759 36.8464 28.4777 39.7276 29.352L46.9011 31.5279C47.7853 31.8061 48.4113 32.7301 48.4113 33.7832C48.4113 35.0649 47.4972 36.1081 46.3745 36.1081H41.9035C41.2082 36.1103 40.5252 35.925 39.9264 35.5716C39.2905 35.1941 38.5056 35.2239 37.9691 35.7306L36.7768 36.8533C36.0118 37.5587 36.1409 38.7708 37.0053 39.357C38.3717 40.278 39.9687 40.7977 41.6154 40.8573V42.4668C41.6154 42.8884 41.7829 43.2928 42.081 43.5909C42.3791 43.889 42.7835 44.0565 43.2051 44.0565H44.7947C45.2163 44.0565 45.6207 43.889 45.9188 43.5909C46.2169 43.2928 46.3844 42.8884 46.3844 42.4668V40.8772C50.1202 40.8573 53.1604 37.6879 53.1405 33.7832C53.1405 30.6436 51.1336 27.8418 48.2523 26.9675L41.0987 24.7916C40.2145 24.5134 39.5885 23.5894 39.5885 22.5363C39.5885 21.2546 40.5026 20.2114 41.6253 20.2114H46.0963C46.7916 20.2091 47.4746 20.3945 48.0734 20.7479C48.7093 21.1254 49.4942 21.0956 50.0307 20.5889L51.223 19.4662C51.988 18.7608 51.8589 17.5486 50.9945 16.9625C49.6281 16.0415 48.0311 15.5218 46.3844 15.4622V13.8526C46.3844 13.431 46.2169 13.0267 45.9188 12.7286C45.6207 12.4305 45.2163 12.263 44.7947 12.263H43.2051C42.7835 12.263 42.3791 12.4305 42.081 12.7286C41.7829 13.0267 41.6154 13.431 41.6154 13.8526Z" fill="white" fill-opacity="0.8"/>
<path d="M80.4887 29.4487C81.3139 28.6236 82.433 28.16 83.6 28.16C84.7669 28.16 85.8861 28.6236 86.7113 29.4487C87.5364 30.2739 88 31.3931 88 32.56V62.59C88.0006 64.089 87.4915 65.5436 86.5562 66.715L72.2425 83.4213C71.5682 84.3084 71.0817 85.3237 70.8125 86.405C70.6865 86.8655 70.412 87.2714 70.0316 87.5598C69.6511 87.8483 69.1861 88.003 68.7087 88H50.6C50.0165 88 49.4569 87.7682 49.0444 87.3556C48.6318 86.9431 48.4 86.3835 48.4 85.8V72.16C48.402 68.3522 49.6369 64.6474 51.92 61.6L59.84 51.04C60.1867 50.5777 60.621 50.1883 61.1182 49.8939C61.6154 49.5995 62.1657 49.4059 62.7377 49.3242C63.3097 49.2425 63.8923 49.2743 64.452 49.4177C65.0117 49.5611 65.5377 49.8133 66 50.16C66.4622 50.5067 66.8517 50.941 67.1461 51.4382C67.4405 51.9354 67.6341 52.4857 67.7158 53.0578C67.7975 53.6298 67.7657 54.2123 67.6223 54.772C67.4789 55.3317 67.2267 55.8577 66.88 56.32L61.6412 63.305C61.3243 63.7287 61.1706 64.2525 61.2085 64.7803C61.2464 65.3082 61.4732 65.8046 61.8475 66.1788L63.6075 67.9387C63.8245 68.1534 64.0837 68.3207 64.3687 68.4302C64.6537 68.5396 64.9582 68.5888 65.2632 68.5746C65.5681 68.5603 65.8668 68.4831 66.1403 68.3476C66.4139 68.2121 66.6564 68.0214 66.8525 67.7875L79.2 52.965V32.56C79.2 31.3931 79.6636 30.2739 80.4887 29.4487Z" fill="white" fill-opacity="0.8"/>
<path d="M26.8818 49.8939C27.379 50.1883 27.8133 50.5777 28.16 51.04L36.08 61.6C38.3631 64.6474 39.598 68.3522 39.6 72.16V85.8C39.6 86.3835 39.3682 86.9431 38.9556 87.3556C38.5431 87.7682 37.9835 88 37.4 88H19.2912C18.8134 88.0051 18.3473 87.8512 17.9665 87.5624C17.5856 87.2737 17.3116 86.8665 17.1875 86.405C16.9183 85.3237 16.4318 84.3084 15.7575 83.4213L1.44375 66.715C0.508496 65.5436 -0.00062225 64.089 5.70757e-07 62.59V32.56C5.70757e-07 31.3931 0.463572 30.2739 1.28873 29.4487C2.11389 28.6236 3.23305 28.16 4.4 28.16C5.56695 28.16 6.68611 28.6236 7.51127 29.4487C8.33643 30.2739 8.8 31.3931 8.8 32.56V52.965L21.1475 67.7875C21.3417 68.0243 21.5835 68.2177 21.8572 68.3552C22.1309 68.4926 22.4304 68.571 22.7363 68.5852C23.0423 68.5995 23.3478 68.5493 23.6331 68.4379C23.9184 68.3266 24.1771 68.1565 24.3925 67.9387L26.1525 66.1788C26.5267 65.8046 26.7536 65.3082 26.7915 64.7803C26.8294 64.2525 26.6757 63.7287 26.3587 63.305L21.12 56.32C20.7733 55.8577 20.5211 55.3317 20.3777 54.772C20.2343 54.2123 20.2025 53.6298 20.2842 53.0578C20.3659 52.4857 20.5595 51.9354 20.8539 51.4382C21.1483 50.941 21.5377 50.5067 22 50.16C22.4623 49.8133 22.9883 49.5611 23.548 49.4177C24.1077 49.2743 24.6902 49.2425 25.2623 49.3242C25.8343 49.4059 26.3846 49.5995 26.8818 49.8939Z" fill="white" fill-opacity="0.8"/>
<defs>
<linearGradient id="paint0_linear_968_3381" x1="19.36" y1="52.8" x2="68.64" y2="52.8" gradientUnits="userSpaceOnUse">
<stop stop-color="#DB082D"/>
<stop offset="0.52967" stop-color="#F0453A"/>
<stop offset="1" stop-color="#FE693B"/>
</linearGradient>
</defs>
</svg>
