<svg height="16" viewBox="0 0 16 16" width="16" xmlns="http://www.w3.org/2000/svg" xmlns:xlink="http://www.w3.org/1999/xlink"><linearGradient id="a" x1="38.584%" x2="38.584%" y1="0%" y2="100%"><stop offset="0" stop-color="#17ead9"/><stop offset="1" stop-color="#6078ea"/></linearGradient><path d="m13.767 4.028-5.767 5.817-5.765-5.817a.992.992 0 0 0 -1.41 0 1.013 1.013 0 0 0 0 1.422l6.468 6.523a.977.977 0 0 0 .708.294.999.999 0 0 0 .708-.294l6.466-6.523a1.013 1.013 0 0 0 0-1.422.99.99 0 0 0 -1.408 0z" fill="url(#a)" fill-rule="evenodd" transform="matrix(0 1 -1 0 16 0)"/></svg>