<?xml version="1.0" encoding="utf-8"?>
<svg version="1.1" xmlns="http://www.w3.org/2000/svg" x="0px" y="0px" viewBox="0 0 157 157"
     style="enable-background:new 0 0 157 157;">
    <style type="text/css">
        .st0{fill:url(#SVGID_1_);}
        .st1{fill:#FFFFFF;}
        .st2{fill-rule:evenodd;clip-rule:evenodd;fill:#FFFFFF;}
    </style>
    <linearGradient id="SVGID_1_" gradientUnits="userSpaceOnUse" x1="48.3438" y1="128.9417" x2="132.18" y2="42.5431"
                    gradientTransform="matrix(1 0 0 -1 0 158)">
        <stop offset="0.2239" style="stop-color:#F0453A"/>
        <stop offset="1" style="stop-color:#1E40F5"/>
    </linearGradient>
    <path class="st0" d="M79.6,0.9c25.7,17.4,68.4,20,68.4,20s0.5,14.2-2.8,52.4c-3.2,38.2-26.8,62.4-65.8,82.8l-1.1,0.6l-1.1-0.6
	c-39-20.4-62.6-44.6-65.8-82.8C8.1,35.1,8.5,20.9,8.5,20.9s42.7-2.6,68.4-20L78.2,0L79.6,0.9z"/>
    <path class="st1" d="M84.8,54.2c0.3-0.8,0.8-1.5,1.4-2.1c0,0,0,0,0.1-0.1c0,0,0,0,0,0c0.7-0.7,1.4-1.2,2.2-1.6
	c0.8,0.4,1.6,0.9,2.3,1.5c0,0,0,0.1,0.1,0.1c0,0,0,0.1,0.1,0.1c0.3,0.3,0.5,0.5,0.7,0.8c0.8,1.2,1.3,2.6,1.3,4.2
	c0,1.6-0.5,3.1-1.4,4.4c-0.2,0.3-0.4,0.5-0.6,0.8c0,0,0,0,0,0c0,0,0,0,0,0c-0.7,0.7-1.4,1.3-2.3,1.6c-0.9-0.4-1.6-0.9-2.3-1.6
	c0,0-0.1-0.1-0.1-0.1c-0.5-0.6-1-1.2-1.3-2c-0.4-1-0.7-2.1-0.7-3.4C84.2,56,84.4,55.1,84.8,54.2z"/>
    <path class="st1" d="M92.1,78.8c-1.1-0.9-2.2-1.5-3.5-1.9c-1.3,0.4-2.5,1-3.6,2c-0.2,0.2-0.4,0.3-0.6,0.5c-0.9,0.9-1.5,1.8-2,2.8
	c-0.6,1.3-0.9,2.7-0.9,4.2c0,1.8,0.3,3.3,1,4.7c0.5,1,1.1,1.8,1.8,2.6c0.2,0.2,0.4,0.4,0.6,0.6c1.1,0.9,2.3,1.6,3.6,2
	c1.3-0.4,2.5-1,3.6-1.9c0.2-0.2,0.5-0.4,0.7-0.7c0.3-0.3,0.5-0.6,0.7-0.9c1.4-1.8,2.1-4,2.1-6.5c0-2.2-0.7-4.2-2.1-5.9
	c-0.3-0.3-0.6-0.7-0.9-1C92.6,79.2,92.3,79,92.1,78.8z"/>
    <path class="st1" d="M84.2,96.5c-1.8-0.3-3.4-0.9-4.7-2.1c-0.3-0.2-0.6-0.5-0.8-0.8c-1.9-2-2.8-4.4-2.8-7.4c0-2.7,1-5,2.9-6.9
	c0.2-0.2,0.3-0.3,0.5-0.5c0,0,0.1-0.1,0.1-0.1c1.4-1.2,3.1-1.9,4.9-2.2c0.5-0.1,1-0.1,1.5-0.1c0,0,0.1,0,0.1,0c0,0,0.1,0,0.1,0
	c0.4,0,0.9,0,1.3,0.1c-2.1,0.3-3.9,1.2-5.4,2.8c-0.5,0.5-1,1.1-1.4,1.7c-0.3,0.4-0.5,0.8-0.7,1.2c-0.6,1.2-0.8,2.6-0.8,4
	c0,1.7,0.3,3.3,1,4.7c0.2,0.4,0.4,0.8,0.7,1.2c0.3,0.5,0.7,1,1.2,1.5c1.5,1.6,3.4,2.5,5.5,2.8c-0.4,0.1-0.8,0.1-1.3,0.1
	c-0.1,0-0.2,0-0.3,0C85.2,96.6,84.7,96.6,84.2,96.5z"/>
    <path class="st1" d="M81.4,63.1c1.1,0.8,2.4,1.3,3.9,1.4c0.2,0,0.4,0,0.6,0c0.1,0,0.2,0,0.3,0c0.4,0,0.8-0.1,1.2-0.1
	c-1.4-0.3-2.6-0.9-3.6-2c-0.3-0.3-0.5-0.6-0.8-1c-0.3-0.4-0.5-0.8-0.7-1.2c-0.4-1-0.6-2.1-0.6-3.3c0-1,0.2-1.8,0.5-2.7
	c0.2-0.4,0.4-0.8,0.7-1.2c0.3-0.4,0.6-0.7,0.9-1.1c1-1,2.2-1.7,3.5-2c-0.4-0.1-0.9-0.1-1.3-0.1l0,0c-0.1,0-0.2,0-0.3,0
	c-0.1,0-0.2,0-0.3,0c-1.5,0.1-2.8,0.5-3.9,1.4c-0.3,0.2-0.5,0.4-0.8,0.7c-1.4,1.4-2.1,3.1-2.1,5c0,2.2,0.7,4,2.1,5.4
	C80.8,62.7,81.1,62.9,81.4,63.1z"/>
    <path class="st1"
          d="M78.7,18.6l2.1,3.7l4.2,0.8L82,26.3l0.5,4.2l-3.8-1.8l-3.9,1.8l0.5-4.2l-2.9-3.1l4.2-0.8L78.7,18.6z"/>
    <path class="st1"
          d="M61.5,27.5l1.3,2.3l2.6,0.5l-1.8,1.9l0.3,2.6l-2.4-1.1l-2.4,1.1l0.3-2.6l-1.8-1.9l2.6-0.5L61.5,27.5z"/>
    <path class="st1"
          d="M97.2,29.8l-1.3-2.3l-1.3,2.3l-2.6,0.5l1.8,1.9l-0.3,2.6l2.4-1.1l2.4,1.1L98,32.3l1.8-1.9L97.2,29.8z"/>
    <path class="st2" d="M79.6,15.7c20.7,14,55,16.2,55,16.2s0.4,11.5-2.2,42.3c-2.6,30.8-21.5,50.4-52.9,66.9l-0.9,0.5l-0.9-0.5
	c-31.4-16.5-50.3-36-52.9-66.9c-2.6-30.8-2.2-42.3-2.2-42.3s34.3-2.1,55-16.2l1.1-0.7L79.6,15.7z M44.9,113.1
	c1.7,2.1,3.5,4.2,5.5,6.2v-8.8c-2-2.2-3.9-4.6-5.5-7V113.1z M57.3,125.5c1.8,1.4,3.6,2.8,5.5,4.2v-8.3c-1.9-1.4-3.8-2.8-5.5-4.3
	V125.5z M69.7,134.2c1.8,1.1,3.6,2.2,5.5,3.3v-8.8c-1.9-0.9-3.7-1.9-5.5-3V134.2z M82.1,137.3c1.9-1.1,3.7-2.2,5.5-3.3v-8.3
	c-1.8,1-3.6,2-5.5,3V137.3z M94.5,129.5c1.9-1.4,3.8-2.8,5.5-4.2v-8.2c-1.7,1.5-3.6,2.9-5.5,4.3V129.5z M78.6,127.2l1.3-0.6
	c24.6-11.9,39.2-31.9,39.3-53.4V46.8l-2.7-0.2l0,0c-0.2,0-2.2-0.2-5.2-0.7c0.6,1,1.2,2.1,1.6,3.2c2,0.3,3.2,0.4,3.4,0.4v23.6
	c0,0.8,0,1.6-0.1,2.4c0,0.9-0.1,1.8-0.2,2.7c0,0,0,0,0,0.1c0,0,0,0,0,0.1c-0.1,0.8-0.2,1.7-0.4,2.5c0,0,0,0,0,0c0,0,0,0,0,0
	c0,0,0,0.1,0,0.1l0,0l0,0c-0.3-1.5-0.7-2.8-1.2-4c-0.3-0.7-0.7-1.5-1.2-2.2c-1.1-1.9-2.7-3.9-4.7-6c0.4-0.5,0.8-1.1,1.1-1.7
	c1.7-2.9,2.6-6,2.6-9.3c0-3.4-0.7-6.4-1.9-9.1c-0.3-0.6-0.6-1.1-0.9-1.7c-0.4-0.6-0.7-1.1-1.2-1.7c-0.6-0.7-1.2-1.4-1.8-2.1
	c-0.7-0.7-1.4-1.2-2.1-1.8c-1.5-1.1-3.2-2-5-2.7c-2.2-0.8-4.6-1.2-7.3-1.2c-0.1,0-0.1,0-0.2,0c-0.1,0-0.2,0-0.3,0
	c-0.4,0-0.9,0-1.3,0c0.8,0,1.7,0.1,2.5,0.2c2.7,0.4,5.1,1.2,7.2,2.4c1.4,0.8,2.7,1.8,3.9,2.9c0.5,0.4,0.9,0.9,1.3,1.4
	c0.7,0.8,1.3,1.7,1.8,2.5c0.2,0.3,0.3,0.6,0.5,0.9l0,0l0,0c0,0,0,0,0,0c1.5,2.8,2.2,6,2.2,9.7c0,2.9-0.7,5.7-2,8.2
	c-0.1,0.3-0.3,0.5-0.5,0.8c-0.4,0.7-0.8,1.3-1.3,1.9c2.1,2.2,3.7,4.3,4.9,6.2c0.1,0.3,0.3,0.5,0.4,0.7l0.1,0.1
	c0.2,0.4,0.4,0.7,0.5,1.1c1.1,2.5,1.6,5.5,1.6,9.1c0,1.1-0.1,2.3-0.2,3.3v0c0,0,0,0.1-0.1,0.1c0,0,0,0.1,0,0.1l0,0c0,0,0,0,0,0.1
	c-0.2,0.6-0.5,1.2-0.7,1.8c0,0.1-0.1,0.2-0.1,0.3l0,0l0,0c0,0.1-0.1,0.2-0.1,0.3c-0.2,0.5-0.5,1-0.7,1.5c-0.1,0.2-0.2,0.3-0.3,0.5
	c-0.3,0.6-0.7,1.3-1,1.9l-0.1,0.1c-0.4,0.7-0.8,1.4-1.2,2l0,0c-0.8,1.3-1.7,2.6-2.6,3.8c-0.6,0.8-1.1,1.5-1.7,2.2c0,0,0,0,0,0.1
	c-0.5,0.7-1.1,1.3-1.6,1.9l0,0l0,0c-0.7,0.8-1.5,1.6-2.3,2.4l0,0h0c-0.5,0.5-1.1,1.1-1.7,1.6l0,0l0,0c0,0,0,0,0,0
	c-0.6,0.5-1.2,1.1-1.8,1.6h0c-5.2,4.6-11.4,8.7-18.4,12.1l0,0l0,0c-6.5-3.1-12.2-6.8-17.1-11V88c0.1,0.8,0.1,1.5,0.3,2.3
	c0.4,2.3,1,4.5,2,6.5c1.1,2.4,2.7,4.5,4.7,6.5c0.1,0.1,0.1,0.1,0.2,0.2c0.1,0.1,0.1,0.1,0.2,0.2c2.7,2.5,5.8,4.3,9.3,5.4
	c2.4,0.7,5,1.1,7.8,1.1c0,0,0.1,0,0.1,0c0,0,0.1,0,0.1,0c0.4,0,0.9,0,1.3,0c0.4,0,0.9-0.1,1.3-0.1c3.6-0.3,6.8-1.3,9.7-3
	c1.7-1,3.4-2.2,4.9-3.7c0.4-0.4,0.7-0.8,1.1-1.2c3.9-4.4,5.9-9.7,5.9-16c0-3.6-0.5-6.6-1.6-9.1c-1.1-2.5-3-5.2-5.9-8.2
	c2.5-3.3,3.7-7,3.7-11c0-4-0.9-7.5-2.6-10.5c-0.6-1-1.3-2-2.1-2.9c-0.3-0.3-0.5-0.6-0.8-0.8c0,0-0.1-0.1-0.1-0.1
	c-0.1-0.1-0.1-0.2-0.2-0.2c-1.1-1.1-2.3-2-3.5-2.7c-2.5-1.5-5.3-2.4-8.5-2.8c-0.4,0-0.9-0.1-1.3-0.1c-0.4,0-0.9,0-1.3,0
	c0,0-0.1,0-0.1,0c0,0-0.1,0-0.1,0c-0.2,0-0.3,0-0.5,0c-0.1,0-0.2,0-0.2,0c-1.7,0-3.4,0.3-4.9,0.6c-0.1,0-0.2,0.1-0.3,0.1
	c-0.1,0-0.3,0.1-0.4,0.1c-3,0.8-5.6,2.3-7.9,4.4c0,0-0.1,0.1-0.1,0.1c-0.1,0.1-0.2,0.2-0.4,0.3c-3.9,3.8-5.8,8.6-5.8,14.5
	c0,4,1.2,7.7,3.7,11c-2.3,2.4-4,4.7-5.2,6.9c-0.2,0.4-0.4,0.9-0.6,1.3c-0.6,1.5-1.1,3.1-1.4,4.9c-0.1,0.7-0.2,1.5-0.3,2.3V57.4h-2
	v53.8c-1-0.9-2-1.8-2.9-2.7V57.4h-4.5c-2.8,3.2-6.7,5.9-11.1,7.5c-1,0.3-1.9,0.6-2.9,0.8c0,0-0.1,0-0.1,0s-0.1,0-0.1,0v1.8
	c0.1,0,0.2,0,0.3,0C39,67.4,40,67.2,41,67c2.2-0.5,4.4-1.3,6.3-2.2v31.3c-0.4-0.7-0.7-1.3-1.1-2c-0.1-0.1-0.1-0.3-0.2-0.4
	c-0.3-0.6-0.6-1.2-0.9-1.8c0,0,0-0.1-0.1-0.1c0,0,0-0.1-0.1-0.1v0c-2.6-5.9-4-12.2-4-18.6v-3.8c-1,0.2-2,0.4-2.9,0.5v3.3
	c0,21.5,14.7,41.5,39.2,53.4L78.6,127.2z M38.1,46.9v16.5c1-0.2,2-0.5,3-0.9v-13c0.6,0,14.8-1.5,28.7-7.5c0,0,0.1-0.1,0.1-0.1
	c0.1-0.1,0.1-0.1,0.2-0.2c3.2-3.1,7.1-5.1,11.6-5.9c-0.5-0.3-0.9-0.5-1.4-0.8l-1.6-1l-1.6,1c-15.3,9.6-35.7,11.7-36.3,11.7l0,0
	L38.1,46.9z M112.4,112.9v-9.4c-1.7,2.4-3.5,4.7-5.5,7v8.6C108.8,117.1,110.7,115,112.4,112.9z M119.2,102.2
	c3.8-7.6,6.1-15.9,6.7-25.3c1.8-27.6,1.6-41.6,1.6-41.6c-6.4-0.8-30.5-7.6-48.9-19.8C60.1,27.7,36,34.5,29.6,35.3
	c0,0-0.2,14,1.6,41.6c0.6,9.5,2.9,18,6.9,25.7V90.1c-1.9-5.4-2.9-11.1-2.9-16.9v-29l5.6-0.5l0,0c0.7-0.1,20.2-2.1,34.6-11.2l3.3-2.1
	l3.3,2.1c1.6,1,3.3,1.9,5,2.8c0.2,0,0.5,0,0.7,0c0.4,0,0.8,0,1.3,0c0.4,0,0.9,0,1.3,0c0.4,0,0.8,0,1.3,0c6.6,0,12.2,2.1,16.5,6.3
	c0.2,0.2,0.4,0.4,0.6,0.6c0.1,0.1,0.2,0.2,0.2,0.3c4.6,0.9,7.8,1.2,7.9,1.2l5.5,0.5v29c0,5.8-1,11.5-2.9,16.9V102.2z"/>
</svg>
