<svg height="28" viewBox="0 0 30 28" width="30" xmlns="http://www.w3.org/2000/svg"><path d="m16.8849923 25.099941c-.1717178.1678021-.3199147.3997639-.4887465.580398-.1015878.1120326-.2103905.2119736-.3285728.2704576-.1181823.059471-.2460327.0653935-.3665238.0157931l-.001876-.0007403-.0018759-.0014806c-.2346329-.1959337-.490911-.3077195-.7503637-.352878-.1095243-.0204818-.2194814-.0286251-.3297272-.0313396-.0076479.0004936-.0154402.0019742-.0230881.0024677-.0802312.0054289-.1595966.0019742-.2382405.0004936-.0545457.0029612-.1090914.0071562-.163637.011598-.0011545.0007404-.0021646.0024677-.003319.0029613-.0190477.0076498-.0391055.0108577-.0587304.0115981-.0116883.0004935-.0232324.0014806-.0349207.0032079-.004762.0014806-.0096682.0029612-.0144301.0056757-.0164503.0091304-.0343436.0022209-.0492066-.0111046-.0148629-.0133254-.0243868-.0389893-.0294373-.0653934-.0049062-.0261574-.0015873-.0609517.0064935-.0841479.0083695-.0249235.0225109-.0417038.0382397-.0503406.0200578-.0111046.0418472-.0145593.0629151-.0157932.0137086-.0007403.0272729-.0012338.0411257-.0034547.0012988-.0004936.0025975-.0007403.0040405-.0012339.0171718-.0071562.033622-.0032079.0492065.0108578.001443.0012339.0021645.0039483.0036075.0056757.2118335-.0192479.42511-.0268977.6378092.0012338.0531027-.0162867.105051-.0384958.1539689-.0752642l.0272729.0987072c-.0005772.0004935-.0011544.0007403-.0017316.000987v.0002468c-.0005773.0004935-.0011545.0007403-.0017317.0009871-.0025974.0024677-.0054834.0037015-.0082251.0059224.2483416.0599646.491344.1840888.7144329.379529.1095243.047873.2261192.0431844.3365093-.0034548.1118331-.0476262.2177498-.1347352.3184717-.2346762l.2997126-.3133952c.1004333-.103149.203464-.2033367.3155857-.2640416-.0402599.0281315-.0774895.0644064-.1150077.099941m21.9214362-6.487519c-.0860318.026993-.1769149.0622156-.265049.0798269-.1491002.0299557-.3012729.0307786-.4524754.0316016-.3970075.0026335-.7938533.078181-1.1885968.1242667-.5182929.0605697-1.0354538.1318379-1.5506742.2149567-1.0204144.1650854-2.0306409.3884362-3.0515405.550559-1.0263978.1629457-2.0670265.2697657-3.1066849.2138045-1.0399818-.0561257-2.0369477-.3230934-3.0381182-.5964801-.8347669-.2279594-1.9378172-.6131038-2.5980948.1830259-.2834844.3418569-.449888.7740745-.7163924 1.1312384-.2828376.3787253-.6523537.6781175-1.0390116.9404766-.3991097.2709178-.8192423.5232368-1.260236.7167965-.0480291.0210678-.1043055.0411479-.1630076.0613927-.003396.0079004-.007924.0154716-.0137457.0215615-.0008086.0006584-.0012937.0014813-.0021023.0023043-.0029108.004444-.0054982.0090525-.0079239.0138257-.0012938.0042794-.0025875.0085588-.003396.0128382-.0003235.0054315-.0008086.010863-.0001617.0164591-.0004852-.003621-.0009703-.007242-.0014555-.010863 0 .0003292-.0001617.0004937-.0001617.0008229.0024257.011686.0030726.023372 0 .035058-.0024257.0057608-.0048514.0116861-.0072771.0174468-.0024257.0047731-.006792.0080649-.0103497.0118506.0076006.0131673.0152011.026993.0223165.0423l.0006469.0013167.0003234.0013168c.0215079.0635323.0546593.1158725.0973517.1718336.0405902.0544799.0861935.1078076.1272688.166896.0412371.0615572.0734181.1211394.1106123.1771006.0164948.0312724.0378411.0543152.0603193.0755475.0181119.0240304.0498079.0319308.0824741.0584301l.0014554.0011521.0006468.0006584c.0438245.0406541.083121.0887149.1135232.1407258.0158479.0274868.0284616.0557966.0362239.0882211.0090559.0330829.0029108.0635324.0043662.0952986.0046897.062051-.0291084.1287106-.0606427.1731504-.0289467.0483899-.0671112.0995779-.0886191.1456636-.0281383.0454273-.0320194.1040219-.0464119.1611352-.0130988.0576071-.0325045.1124161-.0384879.1668959-.0168183.1097826.0658175.2106773.0821506.3285249l.0001617.0011522v.0006583c-.0032342.0543153.0268445.1045157.0578936.1502722.0308873.0460857.0640387.0949694.0711541.1517535-.0168182-.0561258-.059349-.0967799-.0970283-.1392445l-.0527187-.0694577-.0302405-.0816375v-.0003291l-.0003235-.000823c-.0158479-.0623802-.0530421-.1171893-.0816655-.1780882-.0297553-.0599113-.0470587-.132167-.0391347-.2009663.0063068-.0697869.0268445-.1320025.0347685-.1968516.0051748-.0329184.0109965-.0669888.0210228-.1002363.0132605-.03226.0294319-.0643554.044633-.0964507l-.0009703.0014813.0848998-.1504368c.0100262-.0230428.0158479-.0482253.0134222-.0752184-.0006468-.0276514.0027492-.0523401-.0085708-.07456-.0197291-.0470732-.0551444-.0938172-.0925003-.1328254-.0127754-.0162946-.0401051-.0263347-.0671113-.0464149-.0250656-.0204093-.0447947-.0444397-.0672729-.0669888-.0380028-.0485545-.0637153-.1031989-.0960581-.1548807-.0268445-.0523401-.0540124-.0984258-.0879723-.1461574-.065009-.0921713-.1442488-.1925722-.1730338-.3170034l.0008085.0031272c-.00566-.0184343-.0166565-.0390082-.0271679-.0617219-.0001617 0-.0001617 0-.0001617 0-.0084091-.0046085-.0150394-.010863-.0202142-.0187634-.0063069-.0070775-.0106732-.0154716-.0127754-.0248534-.0058217-.0309432-.00566-.0625448.0042045-.092665.007924-.0245242.0206994-.0462503.0365474-.0660013-.0588639-.3161805-.0308874-.5874275-.0087326-.7167966.0336365-.1961932.5179695-.9307657.8648457-1.9229241.1429551-.0811436.2781479-.1777589.4168983-.2656509.1827367-.1158725.3067712-.4151001.2928638-.633184-.0105114-.1642624-.0861935-.3202953-.1408527-.4728718-.0380028-.1056678-.0515868-.214792-.1049523-.3148638-.0276531-.0520109-.0612896-.0969444-.0764907-.1524118.7298147.5095757 1.4892229.1802278 1.4892229.1802278-.9575077.1030344-.8565983-1.5104574-1.6033929-2.8831517.6140275-.0185988 1.1004628-.2905042 1.1004628-.2905042-1.1853625.2449124-.8981587-1.4293138-2.6390084-1.5353108-.4320994-.0263346-.8289452.012509-1.1816432.0854231.1377803-.2268073.5886385-.5204388.5886385-.5204388-.603031.2997214-.7653917-.1522472-1.4195242.2115003-.4715577.262359-.7129964.712188-.8113185.9436038l-1.8899498-3.9098743 1.1455809 4.6831258-.5711733.5663599s-.8273281 2.0257938-1.2025042 2.3008264l.1670504.7744037.9277524.6043805s.5789356-.5317956.5757013-1.1184002c0 0 .9245181.0177759 1.8275283-.7250262 0 0-1.8603562 1.5741545-2.167936 2.4998178-.0587021.0105339-.1170808.0228783-.1744892.0391728-.2956129.0841064-.6200109.1840135-.8792383.3551888-.1710932.1130744-.3505956.2268073-.5110157.3520615-.0669496.0525047-.1122295.1377632-.1719019.1996496-.0562764.0584301-.1091568.1180122-.1458659.1915847-.0975134.1961932-.2005252.3940324-.2601976.5987844.0511016-.1022114.1434402-.1629457.2369108-.2282886.1969675-.1377632.4046081-.2111711.6326246-.2766786.1510408-.0432876.339114-.0492129.493389-.0434521.0074389.0003291.0148777.0001645.0223165.0004937-.5401243.5210971-1.1847157 1.0359398-1.1989465 1.5682291l-1.1497855-.5217554-.8614497.0340704s-1.0823509 2.346583-2.3066865 2.7718878c0 0-.18807321 2.0743484-.55095911 2.4655827 0 0-.07729922 1.475564.46007592 1.6525 0 0 .38714298-.1591601 1.01378419-1.341751 0 0-.3991098.043123-.3213254-.3174973 0 0-.1086718-1.0446631.3321602-1.7963531 0 0 1.3949437-1.5588474 1.6318545-2.0537744l.291085.0273222s.7453392 1.6217214.9913059 1.7713352c0 0-2.4695323 1.2049753-2.5773954 1.275256 0 0 .0669495 1.7533947-.6651291 2.4777625l.0844146.8125889s.5373752.176936.7687877.7388518c0 0 .4688085 1.1819326 1.3213639 1.618265 0 0 .1013946-1.2433252-.0460884-2.1077605 0 0-.9908208-.6562269-1.1349079-.9342221-.1442487-.2778307.3261769-1.854454.8151996-2.141831 0 0 .5582362-.1774298 1.2277316.1612998.6694953.3387296 2.1970444.0569487 2.3050693-.0134965 0 0 1.0364241 1.6490436 2.5490955 1.7797294 1.5128331.1305211 3.8151533.6455284 4.1579867 1.7237682.3426717 1.0782398 1.4601144 2.9532677 2.279842 3.6279288l-1.5393542 3.6759896c.3569024.0003292.7183329.003621 1.0850999.0105339.0696987-.3198016.2472605-.8007383.6955313-1.3649585.8158464-1.0268872 1.250695-1.836678 1.8598711-2.0782985l-.0240954-.2320743-.6997358-.6290692.092662-.7727577c-.0805335-.0437814-.1630075-.0846001-.2375576-.1389154-.0095412-.0067482-.01698-.0161299-.026036-.0235366-.0012937-.0009875-.0027491-.0016459-.0040428-.0026334-.0071154-.0057607-.0132605-.012509-.0200525-.0187635-.0517485-.046744-.0983221-.0994133-.1453808-.149943-.0658175-.062874-.1347076-.1260772-.203436-.1856593-.0700221-.059253-.1583179-.0877274-.2382045-.134636-.0401051-.0228782-.078593-.0505296-.1114209-.0844355-.0325045-.0335767-.0622598-.063697-.1031734-.0872336l-.2302806-.1510951c-.1592881-.0957923-.2857483-.2345431-.4219114-.3579868l-.2021423-.189445c-.0677581-.0636969-.1230643-.1405612-.1767533-.2162734-.106246-.152741-.1929246-.3173326-.3056392-.4626671-.0517484-.0755475-.1110974-.1459927-.1568624-.231745-.0221548-.0424646-.041237-.0872336-.053689-.1344714-.0063068-.0237011-.0111583-.0469086-.0143925-.072914-.002264-.0223845-.0043663-.0437814-.0100263-.06452-.0444713-.1696939-.2086109-.2811225-.3069329-.44736l-.001132-.0021397-.0017788-.004444-.221548-.5930237-.0006469-.0016459.0666261-.026993.2435411.5787042c.065009.1056678.1673738.1905971.2453199.301861.0386496.0544799.0726095.1206457.0845764.1891158.0121285.0701161.0206993.1260772.0488375.1846718.0532039.114885.141338.2133108.2168583.3222705.0739033.1110993.1395591.2238446.2105515.3337918.1326053.2269719.3389522.3917281.5208803.5787042.0470587.0450981.0918535.0934881.1408528.1356235.049161.0419709.1015563.0799915.1552453.1165309.1075397.0730787.2184754.144676.3132397.2370119l.0004852.0004938.0003234.0004938c.0630684.081802.1631693.1224562.2521119.1757839.092662.0526693.1602584.1364464.2348085.2085376.0764907.0730787.1272688.1677188.2039212.2386578.0763289.071762.1672121.1241021.254861.1802279l2.1763451.4111499s.9402044 1.8355259.8724463 3.9556308c0 0 .0143925.6438825-.0939558.8965306.2994941.0297911.7241547.0421355 1.0157248.075383.1935714-.3535428.1995549-.7245324.1374567-1.3208479-.1025266-.9865623-.5960772-3.5158419-.6052949-4.1603828l-1.6126106-1.6455872s.2595507-2.4938924-.0381645-3.8081566c2.5309836 1.4194382.922901 4.4806781 3.7758569 5.9292491 2.8612032 1.4525212 3.6314463-.5670182 3.6314463-.5670182-1.212207.5413419-3.7942922-1.0000588-4.470903-3.6267767-.6766108-2.6268825-3.1167111-2.2468405-3.1167111-2.2468405-.4345252-.7660094-1.138789-1.8154457-2.8128509-2.3246922.3583579-.1013885.7078216-.2384933 1.0676349-.3328043.4943593-.1295336 1.0078008-.2042582 1.5170377-.2347077.2359405-.0139903.5210421.0411479.7424283-.0617219.1436019-.0666596.0258742-.101553-.0711541-.114062-.2118451-.0273222-.4253074-.018105-.6376377-.0544798-.1046289-.0179405-.2535673-.0347288-.3387905-.1073137-.1080249-.0918422.0101879-.1341422.1054374-.1199873.2383662.0355517.4625016.015307.7010296-.0090526.2555079-.0261701.5084283-.0301203.7649065-.0209031.4959764.0177759.9819265.0391728 1.473375-.0502005.427248-.0776872.8156847-.2406329 1.2278933-.3667101.0598341-.0182697.2886592-.0694577.2572867-.1645917-.0331513-.1008946-.3020815-.0317662-.3753378-.0237012-.0798867.0087234-.9694746.0890441-.8228001-.1879636.0501313-.0946402.2506564-.0849293.3395991-.0949694.2335148-.0261701.4647656-.0704452.6955313-.1147204.5182929-.0992487 1.0445098-.1830259 1.5476016-.3481113.2228417-.0732433.4358188-.1665667.6714359-.1868115.0642004-.0054315.257125-.0151424.1507173-.1158725-.0507781-.0478962-.1512024-.0427938-.2160497-.0497067-.1047906-.010863-.2092577-.0185988-.3143717-.0238658-.1777236-.0087233-.401859-.0018105-.5643814-.0888794-.1541133-.082625-.0553061-.2124878.0675964-.2533066.1439253-.0477315.3101672-.0391728.4594291-.0526693.5113392-.0465794 1.0215464-.126571 1.5277108-.2129816.4587822-.0783456.916109-.1790757 1.3550004-.3382358.2291485-.0831188.4529605-.1822029.6659376-.3021902.1594499-.0898671.3641796-.193889.4903165-.3323105.0696986-.0765352.0882957-.1744672-.0360622-.185824-.1057609-.0097109-.2150795.0585946-.3111375.09069-.1955121.0651783-.4029909.0892087-.6056184.1186706-.2089343.030614-.4076806.0727495-.6101464.1315087-.0551444.01613-.113038.0286389-.170123.0343996-.032181.0032919-.1093185.0164592-.1324436-.0171175-.0388113-.0561257.0574084-.114885.0963815-.1295336.1730338-.0650137.3470379-.0684701.5116626-.1664022.3420248-.203106.7007061-.3662163 1.086232-.4717196.0297553-.0082296.0535273-.0266638.0727712-.0327537.0422073-.0131674.0863552-.0105339.1292094-.0266639.0444713-.0166237.0803718-.0549736.1271071-.0714327.149747-.0525048.3083883-.0661659.4586205-.1170247.1335756-.0452627.2504947-.1134036.3894069-.1504367.1790173-.0478962.4083275-.0655075.55953-.1853302.0562764-.0446044.0868403-.0921713.1296945-.1482971-.0590256.0060899-.1355162.0554674-.1935715.0735725" fill="#fff" fill-rule="evenodd" transform="translate(-9 -10)"/></svg>