<svg width="40" height="40" viewBox="0 0 40 40" fill="none" xmlns="http://www.w3.org/2000/svg">
<path d="M17.3958 9.18091C16.2771 9.18091 15.1948 9.32696 14.1669 9.60088L14.1665 9.53704C14.1665 6.34094 16.7575 3.75 19.9536 3.75C23.0347 3.75 25.5535 6.15796 25.7307 9.1947C25.6126 9.18619 25.4892 9.18091 25.3634 9.18091H17.3958Z" fill="url(#paint0_linear_16278_0)"/>
<path fill-rule="evenodd" clip-rule="evenodd" d="M34.4513 17.3718H36.3187C36.8167 17.3718 37.3147 17.8615 37.3147 18.3511V26.1859C37.3147 26.7368 36.8167 27.1652 36.3187 27.1652H33.2686C32.7706 27.7773 31.8992 28.6343 31.339 29.1239V34.0207C31.339 34.5715 30.841 35 30.343 35H26.3592C25.799 35 25.3632 34.5715 25.3632 34.0207V31.0826H17.3956V34.0207C17.3956 34.5715 16.8976 35 16.3997 35H12.4159C11.8556 35 11.4199 34.5715 11.4199 34.0207V29.1239C8.99227 27.3489 7.4361 24.5333 7.4361 21.2892H4.94621C2.82981 21.2892 1.21139 19.5141 1.46038 17.433C1.70937 15.7192 3.26554 14.4338 5.00846 14.4338C5.25745 14.4338 5.44419 14.6174 5.44419 14.8622V16.0252C5.44419 16.27 5.25745 16.3924 5.00846 16.3924H4.94621C4.2615 16.3924 3.57678 16.8821 3.45228 17.6166C3.26554 18.5348 4.01251 19.3305 4.94621 19.3305H7.62284C8.55654 14.8622 12.5404 11.4957 17.3956 11.4957H25.3632C25.6451 11.4957 25.9529 11.5469 26.2699 11.5997C26.4431 11.6285 26.619 11.6577 26.7949 11.6794C27.8531 10.394 29.4716 9.53704 31.339 9.53704H33.3309L32.1482 14.1889C33.0819 15.1071 33.8911 16.1476 34.4513 17.3718ZM27.3552 20.3098C27.3552 20.8607 27.7909 21.2892 28.3511 21.2892C28.8491 21.2892 29.3471 20.8607 29.3471 20.3098C29.3471 19.8202 28.8491 19.3305 28.3511 19.3305C27.7909 19.3305 27.3552 19.8202 27.3552 20.3098Z" fill="url(#paint1_linear_16278_0)"/>
<path d="M17.3957 9.18091C16.2771 9.18091 15.1947 9.32696 14.1668 9.60088L14.1665 9.53704C14.1665 6.34094 16.7574 3.75 19.9535 3.75C23.0347 3.75 25.5535 6.15796 25.7306 9.1947C25.6126 9.18619 25.4892 9.18091 25.3634 9.18091H17.3957Z" fill="black" fill-opacity="0.8"/>
<path d="M27.3555 20.3099C27.3555 20.8608 27.7912 21.2893 28.3514 21.2893C28.8494 21.2893 29.3474 20.8608 29.3474 20.3099C29.3474 19.8202 28.8494 19.3306 28.3514 19.3306C27.7912 19.3306 27.3555 19.8202 27.3555 20.3099Z" fill="black" fill-opacity="0.8"/>
<defs>
<linearGradient id="paint0_linear_16278_0" x1="19.3749" y1="9.5" x2="19.3749" y2="35" gradientUnits="userSpaceOnUse">
<stop stop-color="#C8A674"/>
<stop offset="1" stop-color="#EBC994"/>
</linearGradient>
<linearGradient id="paint1_linear_16278_0" x1="19.3749" y1="9.5" x2="19.3749" y2="35" gradientUnits="userSpaceOnUse">
<stop stop-color="#C8A674"/>
<stop offset="1" stop-color="#EBC994"/>
</linearGradient>
</defs>
</svg>
