<svg width="96" height="78" viewBox="0 0 96 78" fill="none" xmlns="http://www.w3.org/2000/svg">
<path d="M62.958 52.8713C63.7932 54.0887 69.1591 56.924 72.5694 57.9131C76.8844 59.2065 87.9565 60.7645 91.6452 60.0517L86.0331 50.4281L91.6451 42.7603C84.7509 43.656 77.3645 41.2091 74.0239 40.4482C73.9543 44.4046 75.0117 45.6348 73.6479 47.3439C71.0768 50.5656 64.0065 46.9859 62.7492 51.5779C62.7492 51.5779 62.61 52.4148 62.958 52.8713Z" fill="#B41010"/>
<path d="M32.9169 52.8713C32.0817 54.0887 26.7157 56.924 23.3055 57.9131C18.9905 59.2065 7.91836 60.7645 4.22974 60.0517L9.84175 50.4281L4.22974 42.7603C11.124 43.656 18.5104 41.2091 21.851 40.4482C21.9206 44.4046 20.8632 45.6348 22.227 47.3439C24.7981 50.5656 31.8684 46.9859 33.1257 51.5779C33.1257 51.5779 33.2649 52.4148 32.9169 52.8713Z" fill="#B41010"/>
<path d="M73.6479 47.3438C73.4927 47.5166 73.3264 47.67 73.1503 47.8063C72.017 48.9598 69.4178 52.2303 70.4341 57.1634C67.2652 55.8946 63.6328 53.8547 62.958 52.8712C62.61 52.4147 62.721 51.6394 62.721 51.6394C63.9108 47.2937 70.0442 50.2113 73.1503 47.8063C73.4505 47.5008 73.6479 47.3438 73.6479 47.3438Z" fill="#A50E21"/>
<path d="M22.2271 47.3438C22.3822 47.5166 22.5485 47.67 22.7246 47.8063C23.8579 48.9598 26.4571 52.2303 25.4409 57.1634C28.6098 55.8946 32.2422 53.8547 32.9169 52.8712C33.2649 52.4147 33.154 51.6394 33.154 51.6394C31.9642 47.2937 25.8307 50.2113 22.7246 47.8063C22.4244 47.5008 22.2271 47.3438 22.2271 47.3438Z" fill="#A50E21"/>
<path d="M33.2676 51.753C33.2676 51.753 33.2018 49.0718 26.8893 48.9269C23.0632 48.839 22.1057 47.5138 21.5826 46.1008C21.5826 46.1008 22.302 40.5668 24.0191 38.6823C27.3753 34.9887 31.0041 30.6942 32.1749 33.4832C32.331 33.7847 32.409 34.0862 32.409 34.5385C32.5651 36.8752 32.7212 39.4381 32.8773 41.9256C33.1895 46.8252 33.2676 51.753 33.2676 51.753Z" fill="#970416"/>
<path d="M62.6075 51.753C62.6075 51.753 62.6733 49.0718 68.9857 48.9269C72.8118 48.839 73.7694 47.5138 74.2924 46.1008C74.2924 46.1008 73.573 40.5668 71.8559 38.6823C68.4997 34.9887 64.871 30.6942 63.7002 33.4832C63.5441 33.7847 63.466 34.0862 63.466 34.5385C63.3099 36.8752 63.1538 39.4381 62.9977 41.9256C62.6855 46.8252 62.6075 51.753 62.6075 51.753Z" fill="#970416"/>
<path d="M26.8893 41.8621C32.1091 40.1276 32.785 40.4491 32.785 40.4491C32.7483 39.8598 32.7116 39.2697 32.6749 38.6826C28.9775 38.918 21.5826 40.7313 21.5826 46.1011C22.4246 44.6882 23.7002 42.9219 26.8893 41.8621Z" fill="#810313"/>
<path d="M33.2676 51.7534C32.9487 50.6937 32.3109 49.6339 27.2083 49.6339C22.1057 49.6339 21.5826 46.1011 21.5826 46.1011C23.3813 49.2804 26.8804 48.2781 30.3974 48.9274C32.3109 49.2806 33.2676 50.6937 33.2676 51.7534Z" fill="#810313"/>
<path d="M68.9857 41.8621C63.766 40.1276 63.09 40.4491 63.09 40.4491C63.1267 39.8598 63.1634 39.2697 63.2001 38.6826C66.8976 38.918 74.2924 40.7313 74.2924 46.1011C73.4505 44.6882 72.1748 42.9219 68.9857 41.8621Z" fill="#810313"/>
<path d="M62.6075 51.7534C62.9264 50.6937 63.5642 49.6339 68.6668 49.6339C73.7694 49.6339 74.2924 46.1011 74.2924 46.1011C72.4937 49.2804 68.9947 48.2781 65.4777 48.9274C63.5642 49.2806 62.6075 50.6937 62.6075 51.7534Z" fill="#810313"/>
<path d="M74.3001 46.1008C73.2713 39.6898 56.2964 37.8548 47.9375 38.0871C39.5787 37.8548 22.6037 39.6898 21.575 46.1008C21.2535 42.0359 20.8034 32.4427 21.575 26.5892C23.5039 24.8471 31.9914 20.666 47.9375 20.666C63.8837 20.666 72.3711 24.8471 74.3001 26.5892C75.0717 32.4427 74.6216 42.0359 74.3001 46.1008Z" fill="#D01B1B"/>
<path d="M47.9375 9.32422L57.236 15.8181L66.2854 22.6547L62.9828 33.5048L59.2771 44.224L47.9375 44.4359L36.5979 44.224L32.8922 33.5048L29.5896 22.6547L38.639 15.8181L47.9375 9.32422Z" fill="#FBD7C3"/>
<path d="M62.3697 48.4801L67.0859 34.8375L71.2893 21.0283L66.2854 22.6542L62.9828 33.5043L59.2771 44.2235L62.3697 48.4801Z" fill="#9D664A"/>
<path d="M33.5052 48.4803L47.9375 48.7499L62.3697 48.4803L59.2772 44.2236L47.9376 44.4355L36.5979 44.2236L33.5052 48.4803Z" fill="#84523A"/>
<path d="M47.9374 4.0625L36.103 12.3274L24.5856 21.0286L29.5896 22.6545L38.639 15.8178L47.9375 9.32399L47.9374 4.0625Z" fill="#DB9E7F"/>
<path d="M47.9131 10.2009L56.7889 16.3996L65.427 22.9255L62.2745 33.2824L58.7373 43.5143L47.9131 43.7166L37.0889 43.5143L33.5517 33.2824L30.3992 22.9255L39.0373 16.3996L47.9131 10.2009Z" fill="#DB9E7F"/>
<path d="M24.5856 21.0286L28.7889 34.8379L33.5052 48.4804L36.5979 44.2238L32.8922 33.5046L29.5896 22.6545L24.5856 21.0286Z" fill="#B87E61"/>
<path d="M59.7719 12.3274L47.9375 4.0625L47.9376 9.32399L57.236 15.8178L66.2854 22.6545L71.2893 21.0286L59.7719 12.3274Z" fill="#B87E61"/>
<path d="M47.9375 15.4624L54.1592 19.8414L60.2143 24.4515L58.0045 31.768L55.525 38.9962L47.9375 39.1391L40.35 38.9962L37.8705 31.768L35.6607 24.4515L41.7157 19.8414L47.9375 15.4624Z" fill="#B87E61"/>
<g filter="url(#filter0_d_2664_6868)">
<path d="M47.9375 20.7695L49.5559 25.8321H54.793L50.5561 28.9609L52.1744 34.0234L47.9375 30.8946L43.7006 34.0234L45.3189 28.9609L41.082 25.8321H46.3191L47.9375 20.7695Z" fill="#FBD7C3"/>
</g>
<defs>
<filter id="filter0_d_2664_6868" x="40.625" y="20.3125" width="14.925" height="15.025" filterUnits="userSpaceOnUse" color-interpolation-filters="sRGB">
<feFlood flood-opacity="0" result="BackgroundImageFix"/>
<feColorMatrix in="SourceAlpha" type="matrix" values="0 0 0 0 0 0 0 0 0 0 0 0 0 0 0 0 0 0 127 0" result="hardAlpha"/>
<feOffset dx="0.3" dy="0.4"/>
<feColorMatrix type="matrix" values="0 0 0 0 0.35 0 0 0 0 0.161389 0 0 0 0 0.0670833 0 0 0 0.4 0"/>
<feBlend mode="normal" in2="BackgroundImageFix" result="effect1_dropShadow_2664_6868"/>
<feBlend mode="normal" in="SourceGraphic" in2="effect1_dropShadow_2664_6868" result="shape"/>
</filter>
</defs>
</svg>
