<?xml version="1.0" encoding="UTF-8"?>
<svg width="10px" height="10px" viewBox="0 0 10 10" version="1.1" xmlns="http://www.w3.org/2000/svg" xmlns:xlink="http://www.w3.org/1999/xlink">
    <!-- Generator: Sketch 39.1 (31720) - http://www.bohemiancoding.com/sketch -->
    <title>icon-money</title>
    <desc>Created with Sketch.</desc>
    <defs></defs>
    <g id="Page-1" stroke="none" stroke-width="1" fill="none" fill-rule="evenodd">
        <g id="icon-money" fill="#000000">
            <path d="M5,10 C2.238,10 0,7.762 0,5 C0,2.239 2.238,0 5,0 C7.76,0 10,2.239 10,5 C10,7.762 7.76,10 5,10 L5,10 Z M3.25,6 L3.25,7 L4.5,7 L4.5,8 L5.5,8 L5.5,7 L6,7 C6.33,7 6.649,6.868 6.883,6.634 C7.117,6.399 7.249,6.082 7.249,5.75 C7.249,5.419 7.117,5.1 6.883,4.866 C6.649,4.632 6.331,4.5 5.999,4.5 L4,4.5 C3.934,4.5 3.87,4.474 3.823,4.427 C3.776,4.38 3.75,4.317 3.75,4.25 C3.75,4.184 3.776,4.12 3.823,4.073 C3.87,4.026 3.932,4.001 4,4.001 L6.75,4.001 L6.75,3.001 L5.5,3.001 L5.5,2.001 L4.5,2.001 L4.5,3.001 L4,3.001 C3.669,3.001 3.35,3.133 3.116,3.367 C2.882,3.602 2.75,3.92 2.75,4.251 C2.75,4.583 2.882,4.901 3.116,5.135 C3.351,5.369 3.669,5.501 4,5.501 L6,5.501 C6.066,5.501 6.13,5.527 6.177,5.574 C6.224,5.621 6.25,5.684 6.25,5.751 C6.25,5.817 6.224,5.881 6.177,5.928 C6.13,5.975 6.067,6.001 6,6.001 L3.25,6.001 L3.25,6 Z"></path>
        </g>
    </g>
</svg>