<?xml version="1.0" encoding="UTF-8"?>
<svg width="10px" height="10px" viewBox="0 0 10 10" version="1.1" xmlns="http://www.w3.org/2000/svg" xmlns:xlink="http://www.w3.org/1999/xlink">
    <!-- Generator: Sketch 39.1 (31720) - http://www.bohemiancoding.com/sketch -->
    <title>icon-star</title>
    <desc>Created with Sketch.</desc>
    <defs></defs>
    <g id="Page-1" stroke="none" stroke-width="1" fill="none" fill-rule="evenodd">
        <g id="icon-star" fill="#000000">
            <path d="M9.97246665,3.59 C9.94135554,3.49777778 9.88357776,3.41666667 9.80579998,3.35666667 C9.7280222,3.29555556 9.63579998,3.26 9.53913332,3.25222222 L6.6880222,3.02555556 L5.45468887,0.295555556 C5.41579998,0.206666667 5.35135554,0.133333333 5.27135554,0.08 C5.18913332,0.0277777778 5.09579998,0 5.00024443,0 C4.90357776,0 4.80913332,0.0277777778 4.7280222,0.08 C4.6480222,0.132222222 4.58357776,0.206666667 4.54468887,0.294444444 L3.31135554,3.02555556 L0.460244427,3.25222222 C0.364688871,3.26 0.27357776,3.29444444 0.196911093,3.35222222 C0.120244427,3.41111111 0.06357776,3.49 0.0302444267,3.58 C-0.00308890666,3.67111111 -0.00864446221,3.76888889 0.0124666489,3.86222222 C0.0346888711,3.95555556 0.0824666489,4.04111111 0.151355538,4.10888889 L2.25579998,6.16111111 L1.51135554,9.38777778 C1.48913332,9.48444444 1.49579998,9.58777778 1.53246665,9.68111111 C1.5680222,9.77444444 1.63246665,9.85444444 1.71468887,9.91111111 C1.79691109,9.96888889 1.89468887,10 1.99468887,10 C2.09468887,10 2.19357776,9.97111111 2.27579998,9.91555556 L5.00024443,8.10111111 L7.72246665,9.91555556 C7.8080222,9.97222222 7.9080222,10.0011111 8.01135554,9.99888889 C8.11246665,9.99666667 8.21135554,9.96333333 8.29468887,9.90333333 C8.37691109,9.84333333 8.43913332,9.75888889 8.47246665,9.66222222 C8.50579998,9.56555556 8.50913332,9.46111111 8.48135554,9.36222222 L7.56691109,6.16222222 L9.83357776,4.12222222 C9.98246665,3.98888889 10.0380222,3.78 9.97357776,3.59 L9.97246665,3.59 Z" id="Shape"></path>
        </g>
    </g>
</svg>