<svg xmlns="http://www.w3.org/2000/svg" width="24" height="24" fill="none" viewBox="0 0 24 24">
    <path fill="#191919" fill-rule="evenodd" d="M21.2 3.8H17V2.2c0-.11-.09-.2-.2-.2h-1.4c-.11 0-.2.09-.2.2v1.6H8.8V2.2c0-.11-.09-.2-.2-.2H7.2c-.11 0-.2.09-.2.2v1.6H2.8c-.442 0-.8.357-.8.8v16.6c0 .442.357.8.8.8h18.4c.442 0 .8-.358.8-.8V4.6c0-.442-.358-.8-.8-.8zm-1 16.4H3.8v-9.5h16.4v9.5zM3.8 9V5.6H7v1.2c0 .11.09.2.2.2h1.4c.11 0 .2-.09.2-.2V5.6h6.4v1.2c0 .11.09.2.2.2h1.4c.11 0 .2-.09.2-.2V5.6h3.2V9H3.8z" clip-rule="evenodd"/>
</svg>
