<svg xmlns="http://www.w3.org/2000/svg" width="12" height="12" fill="none" viewBox="0 0 12 12">
    <path fill="#A62337" stroke="#A62337" stroke-width=".3" d="M8.252 1.5c1.519 0 2.75 1.216 2.75 2.919 0 3.405-3.75 5.351-5 6.081-1.25-.73-5-2.676-5-6.081 0-1.703 1.25-2.919 2.75-2.919.93 0 1.75.486 2.25.973.5-.487 1.32-.973 2.25-.973zM6.469 9.091c.419-.254.822-.53 1.21-.827 1.49-1.153 2.323-2.413 2.323-3.845 0-1.148-.769-1.946-1.75-1.946-.538 0-1.12.277-1.543.688l-.707.688-.707-.688c-.423-.41-1.005-.688-1.543-.688-.97 0-1.75.806-1.75 1.946 0 1.432.833 2.692 2.322 3.845.373.288.77.557 1.211.827.15.092.297.18.467.278.17-.098.317-.186.467-.278z"/>
</svg>
