<?xml version="1.0" encoding="UTF-8"?>
<svg width="10px" height="10px" viewBox="0 0 10 10" version="1.1" xmlns="http://www.w3.org/2000/svg" xmlns:xlink="http://www.w3.org/1999/xlink">
    <!-- Generator: Sketch 39.1 (31720) - http://www.bohemiancoding.com/sketch -->
    <title>Shape</title>
    <desc>Created with Sketch.</desc>
    <defs></defs>
    <g id="Page-1" stroke="none" stroke-width="1" fill="none" fill-rule="evenodd">
        <path d="M9.325,3.521 C9.255,3.466 9.172,3.434 9.085,3.427 L6.519,3.223 L5.409,0.766 C5.374,0.686 5.316,0.62 5.244,0.572 C5.17,0.525 5.086,0.5 5,0.5 C4.913,0.5 4.828,0.525 4.755,0.572 C4.683,0.619 4.625,0.686 4.59,0.765 L3.48,3.223 L0.914,3.427 C0.828,3.434 0.746,3.465 0.677,3.517 C0.608,3.57 0.557,3.641 0.527,3.722 C0.497,3.804 0.492,3.892 0.511,3.976 C0.531,4.06 0.574,4.137 0.636,4.198 L2.53,6.045 L1.86,8.949 C1.84,9.036 1.846,9.129 1.879,9.213 C1.911,9.297 1.969,9.369 2.043,9.42 C2.117,9.472 2.205,9.5 2.295,9.5 C2.385,9.5 2.474,9.474 2.548,9.424 L5,7.791 L7.45,9.424 C7.527,9.475 7.617,9.501 7.71,9.499 C7.801,9.497 7.89,9.467 7.965,9.413 C8.039,9.359 8.095,9.283 8.125,9.196 C8.155,9.109 8.158,9.015 8.133,8.926 L7.31,6.046 L9.35,4.21 C9.484,4.09 9.534,3.902 9.476,3.731 C9.447,3.648 9.395,3.575 9.325,3.521 Z" id="Shape" fill="#000000"></path>
    </g>
</svg>