<svg xmlns="http://www.w3.org/2000/svg" width="40" height="40" viewBox="0 0 40 40">
    <path fill="#FFF" fill-rule="evenodd" d="M22.514 21c-.312.833-.774.882-1.533.603-3.895-1.437-7.891-2.396-12.076-2.332-1.377.021-2.741.18-4.018.762-2.905.993-4.794 3.634-4.884 6.826-.085 3.005 1.696 5.573 4.71 6.79l.08.021a.62.62 0 0 0 .597.247l.28.077c.205.176.435.27.709.225 4.664 1.105 8.912.16 12.766-2.63a19.78 19.78 0 0 0 3.705-3.521c.506-.618.903-.73 1.67-.382a836.251 836.251 0 0 0 15.19 6.735c.108.046.204.093.29.141v-6.83a3.048 3.048 0 0 1-.447-.116 510.266 510.266 0 0 0-12.028-3.795c-.964-.293-1.29-.52-.682-1.564 1.218-2.092 1.99-4.391 2.688-6.708.262-.87.263-1.368-.934-1.316-2.205.095-4.419-.009-6.627.038-.803.017-1.075-.199-1.064-1.038.026-2.007-.02-2.007 1.95-2.007 2.669 0 5.337-.014 8.005.01.672.005 1.07-.052 1.069-.916-.001-.877-.434-.921-1.087-.918-2.96.014-5.92-.015-8.88.022-.799.01-1.118-.203-1.05-1.056.079-.993-.026-2.001.03-2.999.04-.733-.159-1.025-.95-1.049-4.063-.122-4.096-.142-4.093 3.946.001.992-.363 1.172-1.245 1.156-2.667-.046-5.336-.005-8.004-.018-.659-.002-1.071.06-1.064.93.008.877.421.91 1.085.905a525.73 525.73 0 0 1 7.63-.008c1.7.008 1.487-.29 1.594 1.624.064 1.167-.295 1.493-1.456 1.43-1.954-.104-3.918-.013-5.877-.026-.632-.004-1.123-.012-1.123.882 0 .93.55.843 1.149.842 4.878-.007 9.756.022 14.633-.03 1.093-.012 1.295.294.872 1.246A69.577 69.577 0 0 0 22.514 21zm-3.357 5.247c-3.226 3.755-7.035 6.204-12.27 5.428-.116-.017-.241.022-.363.035-.496-.2-.992-.398-1.486-.604-3.046-1.27-4.073-4.531-2.143-6.864.364-.44.84-.787 1.264-1.177l.718-.387.379-.143.071.026.057-.05.245-.067c4.806-.74 9.198.66 13.49 2.595.9.405.368.824.038 1.208z"/>
</svg>
