<?xml version="1.0" encoding="UTF-8"?>
<svg width="38px" height="30px" viewBox="0 0 38 30" version="1.1" xmlns="http://www.w3.org/2000/svg" xmlns:xlink="http://www.w3.org/1999/xlink">
    <!-- Generator: Sketch 61.2 (89653) - https://sketch.com -->
    <title>credit-card</title>
    <desc>Created with Sketch.</desc>
    <g id="Page-1" stroke="none" stroke-width="1" fill="none" fill-rule="evenodd">
        <g id="credit-card" fill="#3B465C" fill-rule="nonzero">
            <path d="M0,26.3888889 C0,28.1371528 1.41840278,29.5555556 3.16666667,29.5555556 L34.8333333,29.5555556 C36.5815972,29.5555556 38,28.1371528 38,26.3888889 L38,14.7777778 L0,14.7777778 L0,26.3888889 Z M12.6666667,21.9027778 C12.6666667,21.4673611 13.0229167,21.1111111 13.4583333,21.1111111 L22.4305556,21.1111111 C22.8659722,21.1111111 23.2222222,21.4673611 23.2222222,21.9027778 L23.2222222,24.5416667 C23.2222222,24.9770833 22.8659722,25.3333333 22.4305556,25.3333333 L13.4583333,25.3333333 C13.0229167,25.3333333 12.6666667,24.9770833 12.6666667,24.5416667 L12.6666667,21.9027778 Z M4.22222222,21.9027778 C4.22222222,21.4673611 4.57847222,21.1111111 5.01388889,21.1111111 L9.76388889,21.1111111 C10.1993056,21.1111111 10.5555556,21.4673611 10.5555556,21.9027778 L10.5555556,24.5416667 C10.5555556,24.9770833 10.1993056,25.3333333 9.76388889,25.3333333 L5.01388889,25.3333333 C4.57847222,25.3333333 4.22222222,24.9770833 4.22222222,24.5416667 L4.22222222,21.9027778 Z M38,3.16666667 L38,6.33333333 L0,6.33333333 L0,3.16666667 C0,1.41840278 1.41840278,0 3.16666667,0 L34.8333333,0 C36.5815972,0 38,1.41840278 38,3.16666667 Z" id="Shape"></path>
        </g>
    </g>
</svg>