<svg xmlns="http://www.w3.org/2000/svg" width="40" height="40" viewBox="0 0 40 40">
    <path fill="#396dee" fill-rule="evenodd" d="M34.855 5.714c1.966 0 3.6 1.2 3.71 2.71l.006.163v22.846c0 1.51-1.542 2.764-3.505 2.848l-.211.005H5.145c-1.99 0-3.602-1.182-3.71-2.69l-.006-.163V8.567c0-1.51 1.542-2.764 3.505-2.848l.211-.005h29.71zm-1.786 7.143h-1.576l-.416 1.038H27.36l-.387.983h3.747l-.416 1.12h-3.33l-.358.93h3.33l-.505 1.283h-3.776l-.387.983h3.777l-.536 1.366h-3.39l-.356.929h3.39l-1.576 4.124c-.774-.082-1.25-.546-1.398-1.42.297-.455.574-.968.83-1.552l.151-.36h-1.487c-.56 1.67-1.488 2.834-2.736 3.511l-.237.122-.476 1.229c1.279-.601 2.29-1.202 2.974-1.776.254.857 1.099 1.27 2.585 1.285H32.683l.386-.984h-4.936l.713-1.858h4.104l.357-.928h-4.104l.536-1.42h1.873c1.208.05 2.044-.458 2.484-1.527l.073-.194.208-.547h1.25l.386-.983h-1.249l.862-2.213H31.85l.416-1.12h4.49l.387-.983h-4.49l.416-1.038zM2.867 27.007h-.01v.027l.01-.028zm13.193-14.15h-1.695l-.773 2.049h-2.468l-.417 1.12h2.469l-1.458 3.77c-.04.09-.079.17-.127.252l-.08.13H8.06l-.416 1.12h3.39c-.986 1.707-2.64 3.17-4.96 4.41l-.393.206-.416 1.12c2.676-1.011 4.728-2.322 6.125-3.961.342 1.541 1.554 2.808 3.662 3.824l.293.137.417-1.148c-2.002-1.26-2.931-2.723-2.735-4.412l.029-.204h4.936l.416-1.12h-1.308l2.022-5.244h-3.836l.773-2.049zm-6.155.055H8.269L2.867 27.006h1.596l3.776-9.86c.422.045.822.129 1.168.282l.2.1.506-1.284a9.1 9.1 0 0 0-1.098-.21l-.3-.036 1.19-3.086zm16.265-.055h-1.635l-.922 2.404h-1.427l-.417 1.038h1.428l-1.398 3.633c-.401.04-.82.082-1.254.134l-.44.057-.536 1.366c.178-.055.416-.082.684-.137.371-.068.681-.118.912-.164l.129-.027-1.576 4.07c-.11.425-.418.622-.881.63l-.13-.002h-.536l-.416 1.038h1.16c1.091 0 1.867-.46 2.375-1.402l.093-.182 1.754-4.562c.12-.054.298-.11.595-.191.357-.14.626-.26.827-.344l.095-.038.386-.984c-.401.103-.77.19-1.116.284l-.34.099 1.248-3.278h1.309l.416-1.038h-1.309l.922-2.404zM6.574 15.616h-1.1a58.679 58.679 0 0 1-2.067 4.72l-.312.634h1.16c.743-1.475 1.516-3.25 2.32-5.354zm26.317 3.578l-.179.437c-.192.605-.587.931-1.138.935l-.14-.006h-1.368l.535-1.366h2.29zM17.1 16.053l-1.576 4.125h-2.23l.148-.356 1.457-3.769h2.2zm16.652.847l-.506 1.31h-2.26l.476-1.31h2.29z"/>
</svg>
