<svg height="40" viewBox="0 0 26 29" width="40" xmlns="http://www.w3.org/2000/svg" xmlns:xlink="http://www.w3.org/1999/xlink"><mask id="a" fill="#fff"><path d="m.42857143 0h24.99999997v29h-24.99999997z" fill="#fff" fill-rule="evenodd"/></mask><path d="m22.3028965 12.2316979c.1514765-1.1051683.4545639-12.15789789-9.7723849-12.2316979-9.92372678.66328416-8.86312243 12.2316979-8.86312243 12.2316979-2.15901056 3.9053815-3.90139357 11.2369679-2.99240021 11.5316446.90912788.2948075 2.68931274-2.9472899 2.68931274-2.8368516 0 .2465234.04425911.4986735.08636581.7404863.16156593.9272108.4810656 1.8321769.93805101 2.660726.46680582.8460831 1.08710601 1.6003088 1.82215703 2.2332355-1.03383365.3607564-2.42644861.9612321-2.52088598 1.6050194-.44003511 1.1313385 6.23717153.8290725 8.52290573.6935108.5329927.0391245 1.0662545.0431808 1.5977674.0071968 2.4077495.1384404 8.886799.4108724 8.4542974-.7007076-.0949755-.6467969-1.5003704-1.2500204-2.5355493-1.6101226.3864937-.3368107.7424499-.7082969 1.0602007-1.1138044.7053208-.899863 1.2197489-1.9372504 1.5353473-3.0251463.097935-.337465.1775745-.6806874.2325957-1.0275736.0104931-.0662107.0895945-.326866.0482949-.3890203 2.196947 3.3157666 2.5756382 2.7999516 2.5756382 2.7999516 1.2879535-2.6526133-2.8785911-11.5685446-2.8785911-11.5685446" fill="#3b465c" fill-rule="evenodd" mask="url(#a)"/></svg>