<?xml version="1.0" encoding="UTF-8"?>
<svg width="40px" height="40px" viewBox="0 0 26 29" version="1.1" xmlns="http://www.w3.org/2000/svg" xmlns:xlink="http://www.w3.org/1999/xlink">
    <!-- Generator: Sketch 57.1 (83088) - https://sketch.com -->
    <title>icon_qq-h</title>
    <desc>Created with Sketch.</desc>
    <defs>
        <polygon id="path-1" points="0.428571429 0 25.4285714 0 25.4285714 29 0.428571429 29"></polygon>
    </defs>
    <g id="Page-1" stroke="none" stroke-width="1" fill="none" fill-rule="evenodd">
        <g id="Artboard" transform="translate(-431.000000, -92.000000)">
            <g id="icon_qq-h" transform="translate(431.000000, 92.000000)">
                <mask id="mask-2" fill="white">
                    <use xlink:href="#path-1"></use>
                </mask>
                <g id="Clip-2"></g>
                <path d="M22.3028965,12.2316979 C22.454373,11.1265296 22.7574604,0.0738000129 12.5305116,0 C2.60678482,0.663284159 3.66738917,12.2316979 3.66738917,12.2316979 C1.50837861,16.1370794 -0.234004399,23.4686658 0.674988959,23.7633425 C1.58411684,24.05815 3.3643017,20.8160526 3.3643017,20.9264909 C3.3643017,21.1730143 3.40856081,21.4251644 3.45066751,21.6669772 C3.61223344,22.594188 3.93173311,23.4991541 4.38871852,24.3277032 C4.85552434,25.1737863 5.47582453,25.928012 6.21087555,26.5609387 C5.1770419,26.9216951 3.78442694,27.5221708 3.68998957,28.1659581 C3.24995446,29.2972966 9.9271611,28.9950306 12.2128953,28.8594689 C12.745888,28.8985934 13.2791498,28.9026497 13.8106627,28.8666657 C16.2184122,29.0051061 22.6974617,29.2775381 22.2649601,28.1659581 C22.1699846,27.5191612 20.7645897,26.9159377 19.7294108,26.5558355 C20.1159045,26.2190248 20.4718607,25.8475386 20.7896115,25.4420311 C21.4949323,24.5421681 22.0093604,23.5047807 22.3249588,22.4168848 C22.4228938,22.0794198 22.5025333,21.7361974 22.5575545,21.3893112 C22.5680476,21.3231005 22.647149,21.0624452 22.6058494,21.0002909 C24.8027964,24.3160575 25.1814876,23.8002425 25.1814876,23.8002425 C26.4694411,21.1476292 22.3028965,12.2316979 22.3028965,12.2316979" id="Fill-1" fill="#396dee" mask="url(#mask-2)"></path>
            </g>
        </g>
    </g>
</svg>