<?xml version="1.0" encoding="UTF-8"?>
<svg width="40" height="40" viewBox="0 0 34 22" version="1.1" xmlns="http://www.w3.org/2000/svg" xmlns:xlink="http://www.w3.org/1999/xlink">
    <!-- Generator: Sketch 57.1 (83088) - https://sketch.com -->
    <title>icon_UnionPay-n</title>
    <desc>Created with Sketch.</desc>
    <g id="Page-1" stroke="none" stroke-width="1" fill="none" fill-rule="evenodd">
        <g id="Artboard" transform="translate(-339.000000, -46.000000)" fill="#396dee">
            <g id="icon_UnionPay-n" transform="translate(339.000000, 46.000000)">
                <path d="M6.4807678,0.227047137 C5.50424655,0.35389714 4.53596999,1.15492487 4.22031725,2.09905637 C4.02338764,2.68171835 0.214707483,19.2110864 0.201280464,19.5267391 C0.171599683,20.3871284 0.659801422,21.0291519 1.4690738,21.1936918 C1.77118175,21.2556446 27.3151446,21.2583535 27.6360975,21.1991097 C28.5505482,21.0238518 29.4136465,20.2927859 29.7426084,19.4161429 C29.8695762,19.0762272 33.7807257,2.21777949 33.7968617,1.93722544 C33.8427963,1.14420682 33.3815664,0.494056393 32.6045659,0.259436889 C32.429308,0.208202209 6.88805407,0.173103485 6.4807678,0.227047137 L6.4807678,0.227047137 Z M6.18407779,5.60021067 C6.18407779,5.6190556 6.15969715,5.71893379 6.13013414,5.82140315 C5.72543907,7.20250171 5.3235707,9.0555482 5.37480538,9.29287668 C5.52320928,9.98884388 6.51845769,9.93219125 6.88263613,9.20925224 C6.98510549,9.00973143 7.74844333,5.78630446 7.74844333,5.55981184 C7.74844333,5.54897599 8.94344809,5.56511198 8.95416614,5.57594783 C8.95687511,5.5786568 8.948866,5.62447354 8.93261224,5.67570822 C8.91918522,5.7269429 8.72496454,6.47685372 8.50377206,7.3453699 C8.02899734,9.2200881 7.96692684,9.4115998 7.71888032,9.77577824 C6.90418999,10.9787921 4.19334537,10.9409844 3.97215289,9.72442579 C3.92362718,9.45199863 4.50628917,6.40677411 4.76517151,5.57865677 C4.77871637,5.53543117 6.18407779,5.55710287 6.18407779,5.60021067 L6.18407779,5.60021067 Z M24.2428305,5.60021067 C25.0549296,5.77829535 25.3028583,6.43374592 24.927844,7.39931355 C24.5503563,8.36770791 23.7626378,8.801966 22.3682301,8.801966 C21.947399,8.801966 21.9796709,8.7373043 21.7073616,10.0562146 C21.6561269,10.3070878 21.6074834,10.5391161 21.5994743,10.5687969 C21.5806294,10.6550125 20.3262631,10.6550125 20.3398078,10.5687969 C21.3998357,6.02375074 21.4835779,5.63260046 21.491587,5.6002107 L21.5050141,5.54084914 L22.7809343,5.54897602 C23.8004455,5.55710287 24.0918354,5.56782092 24.2428305,5.60021067 L24.2428305,5.60021067 Z M13.3482173,7.34807883 C13.5181751,7.3913044 13.6557431,7.52616352 13.6557431,7.64747781 C13.6557431,8.0871538 12.7521283,8.38926175 12.4230485,8.06018199 C12.0858419,7.72309316 12.7655553,7.20250167 13.3482173,7.34807883 Z M10.2138326,7.68257653 C10.2138326,7.72568433 10.2031146,7.79588174 10.1922787,7.83628057 L10.1707248,7.90918692 L10.3837904,7.80129965 C10.9448985,7.51803664 11.4951708,7.56656238 11.6758466,7.919905 C11.7864429,8.13037944 11.7728981,8.25711164 11.4897529,9.57072175 C11.4385182,9.80805022 11.3737387,10.123703 11.3494758,10.2719891 C11.2874053,10.6280407 11.3333398,10.6037778 10.7021521,10.6146137 C10.1625979,10.6227405 10.1625979,10.6227405 10.1680159,10.563379 C10.1707248,10.5336982 10.2355043,10.2424261 10.3082929,9.91593753 C10.596856,8.65627107 10.6022739,8.47830416 10.3541097,8.47830416 C10.2165416,8.47830416 10.019612,8.56192859 10.0061849,8.62399909 C9.97921313,8.74531338 9.65826022,10.2828249 9.62857944,10.4339378 L9.59618969,10.5957687 L9.04320848,10.6146136 C8.37162192,10.6361675 8.42014766,10.6901112 8.56843376,10.0778862 C8.75735429,9.30100352 8.8705417,8.75073129 8.94615703,8.26523852 C9.02978146,7.73110224 8.97312883,7.7904638 9.47746656,7.70954834 C9.70678593,7.67444965 9.94140543,7.63405079 10.000767,7.61779702 C10.1761428,7.5773982 10.2165416,7.58811628 10.2138326,7.68257653 Z M18.6026577,7.66914951 C18.6026577,7.7068394 18.5918218,7.77703678 18.580986,7.82285355 L18.5594321,7.91189589 L18.7724977,7.80400862 C19.87316,7.23477365 20.2963467,7.70413043 19.9728026,9.13917263 C19.900014,9.46554345 19.805436,9.91334633 19.7651549,10.13713 C19.7245205,10.3583225 19.6761126,10.5552521 19.6598588,10.574097 C19.5979061,10.6361676 18.5511874,10.6334586 18.5566054,10.5687969 C18.5593144,10.5391161 18.6213849,10.2531442 18.6968824,9.93490023 C18.9935724,8.64826196 18.9962814,8.48101309 18.7372812,8.47830416 C18.5295158,8.47830416 18.4136194,8.54838376 18.3785207,8.70220561 C18.3325862,8.89371731 18.0656947,10.1749377 18.0197602,10.406966 L17.9847793,10.5957687 L17.431798,10.6119047 C16.7573847,10.6307497 16.8113284,10.6982381 16.9705681,10.0400786 C17.1402904,9.34140245 17.2778585,8.6752338 17.3508826,8.19504117 C17.4182533,7.73922919 17.3697275,7.79046387 17.8095213,7.7230932 C18.0090421,7.69070344 18.2464884,7.65018685 18.3355307,7.62863295 C18.5595499,7.58010717 18.6053666,7.58552508 18.6026577,7.66914951 L18.6026577,7.66914951 Z M29.3381489,7.63946873 C29.4029283,8.72375948 29.4244822,9.03929444 29.4353181,9.05283923 C29.4433272,9.06367508 29.597149,8.78853895 29.7722892,8.43778749 C30.1311675,7.72839327 30.052961,7.80659979 30.4468203,7.75006497 C30.5519986,7.73381121 30.762473,7.69612132 30.9160593,7.66644054 C31.3017916,7.58811624 31.3045006,7.56114444 30.8566977,8.33260916 C30.2525996,9.37650104 29.4189466,10.843933 29.1250833,11.3779515 C28.2268863,13.0233503 28.2323042,13.0151056 27.4608395,13.0314772 L27.0076187,13.0421952 L27.0481353,12.9100451 C27.0696892,12.8399655 27.112797,12.6915616 27.1451868,12.5836743 L27.2045483,12.3895714 L27.3447076,12.3895714 C27.5065385,12.3895714 27.5362193,12.3625996 27.6872144,12.1064262 C27.741158,12.0173839 27.8220735,11.8771068 27.870717,11.7961914 C27.9220694,11.7152759 28.0919094,11.4212948 28.2483225,11.1434498 L28.5368856,10.6417032 L28.4613881,9.9835437 C28.3750547,9.21749689 28.2617495,8.33001799 28.2159327,8.05229068 C28.1754161,7.80942653 28.1754161,7.81213547 28.49366,7.76360976 C28.6338193,7.74205586 28.8579562,7.70153923 28.9899886,7.67185845 C29.2733694,7.61249692 29.3194217,7.60707898 29.3381489,7.63946873 L29.3381489,7.63946873 Z M16.0185453,7.67174068 C17.3835078,7.92261394 16.9033152,10.2936607 15.4224563,10.6227405 C14.419081,10.8465242 13.7312352,10.4635008 13.7312352,9.67860902 C13.7285317,8.31918217 14.734616,7.43441224 16.0185453,7.67174068 Z M26.1848015,7.73381121 C26.2604168,7.76620096 26.3575861,7.83898954 26.4061118,7.89293316 C26.4870272,7.98468447 26.4923274,7.98739341 26.500572,7.93074082 C26.5112901,7.86066121 26.5031632,7.86325238 27.2072573,7.747356 C27.7789656,7.65560469 27.7548206,7.65289575 27.7143039,7.82556249 C27.4769755,8.81821969 27.2854638,9.68131796 27.2099662,10.102149 C27.0940699,10.7333367 27.1802855,10.6658483 26.4924451,10.6577214 L25.9153189,10.6497123 L25.923328,10.574097 C25.9314549,10.5013084 25.8936472,10.4743366 25.8612574,10.5282802 C25.6617366,10.8492331 24.7121872,10.714374 24.4452958,10.3286416 C23.7707647,9.34682029 25.1707082,7.25903649 26.1848015,7.73381121 L26.1848015,7.73381121 Z M13.4992124,8.25169373 C13.5073392,8.25982061 13.4992124,8.33531816 13.4776585,8.41894256 C13.3427993,8.98535079 13.083917,10.1264119 13.0434004,10.3394775 L12.9948747,10.5957687 L12.4149216,10.6119047 C11.7189544,10.6307496 11.76218,10.6631393 11.8997481,10.2477262 C12.0291893,9.84585785 12.1452035,9.33881118 12.2261189,8.81551076 C12.2934896,8.36499891 12.2234099,8.42977838 12.7305744,8.35428086 C12.9651939,8.31918217 13.2052313,8.27866554 13.2645929,8.26523852 C13.396743,8.23555774 13.4803674,8.23013983 13.4992124,8.25169373 Z M16.5957894,11.9039609 C16.5957894,11.9202146 16.5608084,11.9957122 16.5148739,12.0738009 C16.4717661,12.1548341 16.4339584,12.2276227 16.4339584,12.2357496 C17.4778503,12.2545945 17.515658,12.2573035 17.502231,12.3004113 L17.3161372,12.9288901 L15.8027707,12.9288901 L15.7191463,13.0072144 C15.5303435,13.1878902 14.4918696,13.4145006 14.4918696,13.2742236 L14.6833813,12.6322001 L14.8236583,12.6322001 C15.0636957,12.6322001 15.1257662,12.5809654 15.3361229,12.2061866 L15.5196255,11.8769881 C16.4042777,11.8768713 16.5957894,11.8877071 16.5957894,11.9039609 L16.5957894,11.9039609 Z M18.9156015,11.9093788 C18.9156015,11.9282237 18.8914564,12.022684 18.8617756,12.1197354 C18.8320948,12.2167868 18.8077142,12.303238 18.8077142,12.3139561 C18.8077142,12.3219652 18.8967565,12.2707305 19.0046438,12.1979419 C19.3956763,11.9390596 19.7221649,11.8768713 20.7201222,11.8768713 C21.1165727,11.8768713 21.4483614,11.882407 21.4564883,11.8902983 C21.4807512,11.9172701 20.8899623,13.8378051 20.8037467,14.0078806 C20.6878503,14.2370822 20.5637093,14.3638144 20.3667796,14.4556835 L20.1969396,14.53389 L19.1854374,14.5471992 L18.1738175,14.560744 L17.9931416,15.1542419 C17.6423902,16.295303 17.6317899,16.2195699 18.1495546,16.1683352 C18.5622588,16.1279364 18.535287,16.0901287 18.408437,16.5190867 L18.3005498,16.8804384 L17.7799583,16.8885653 C16.6632778,16.9072924 16.5175829,16.8400396 16.639015,16.3706828 C16.6983765,16.1440724 17.9660521,11.9335238 17.9850148,11.9012519 C18.0119866,11.8607353 18.9156015,11.8688622 18.9156015,11.9093788 L18.9156015,11.9093788 Z M23.5549901,11.9012519 C23.5549901,11.9145612 23.5361452,11.9767495 23.5144735,12.03882 C23.4551119,12.20866 23.4551119,12.20866 23.6844313,12.0926458 C23.9864215,11.9389418 24.6905155,11.8768712 26.1389847,11.8768712 L26.6029236,11.8768712 L26.6029236,12.0900546 C26.6029236,12.3409279 26.6164684,12.3570639 26.8402521,12.3840357 L27.002083,12.4029984 L26.9050316,12.7185334 L26.8105713,13.0368951 L26.4978631,13.0421952 C25.6885907,13.058449 25.5536138,12.9802425 25.5483137,12.4973409 L25.5483137,12.2681393 L25.4942523,12.4352703 L25.4403086,12.6052281 L25.2677596,12.6052281 C25.1705904,12.6052281 25.0923839,12.6106461 25.0923839,12.6187729 C25.0923839,12.626782 24.2318769,15.4914485 24.1051446,15.9014437 C24.0917176,15.9418425 24.1078536,15.9499694 24.210323,15.9499694 C24.3614358,15.9499694 24.3668537,15.9579785 24.3209192,16.0901287 C24.2669756,16.2465417 24.2669756,16.2465417 24.4529516,16.2465417 C24.5743837,16.2465417 24.6554169,16.2302879 24.7416325,16.1845889 C24.8683647,16.1225184 24.8576467,16.1332365 25.4241727,15.3349177 L25.6587922,15.0058379 L25.1787173,15.0058379 C24.6040645,15.0058379 24.64729,15.0379921 24.7524684,14.6874762 L24.838684,14.3990309 L25.4213459,14.390904 L26.001299,14.3854861 C26.1118952,14.0160075 26.1444027,13.8999933 26.1444027,13.8918664 C26.1444027,13.8811484 25.8907027,13.8701948 25.5831769,13.8676036 L25.0221865,13.8594767 L25.116529,13.5413506 L25.2082803,13.2256978 L26.7969088,13.2256978 C27.6681339,13.2256978 28.3830638,13.2337069 28.3830638,13.2445428 C28.3830638,13.2579698 28.3425472,13.3982468 28.2940215,13.5627867 L28.2048614,13.8594767 L27.6681339,13.8730215 L27.1341155,13.8865663 C27.0423641,14.1589935 27.0072655,14.2695897 26.9965474,14.3101063 L26.9801759,14.3856039 L27.4901671,14.3856039 C28.0915562,14.3856039 28.0511574,14.3586321 27.9405611,14.7119747 L27.8542278,14.9925288 L27.2716835,15.0006556 L26.6863126,15.0060735 L26.6026881,15.1139608 L26.5189459,15.2191392 L26.7429652,15.227266 L26.9667488,15.2352751 L27.0341195,15.6614063 C27.109617,16.1414812 27.1070258,16.13889 27.3389364,16.13889 C27.5223212,16.13889 27.5170211,16.1013179 27.3928801,16.5219134 L27.2904107,16.8673647 L26.9587397,16.8673647 C26.373251,16.8673647 26.2653637,16.7727867 26.1710213,16.1822334 L26.1116597,15.7856652 L25.8985941,16.0770551 C25.3185233,16.8753738 25.2862513,16.8943399 24.5336315,16.8943399 C24.0589746,16.8943399 24.0642748,16.8970455 24.1209274,16.7486416 C24.1451902,16.678562 24.1451902,16.678562 24.0049132,16.678562 C23.862045,16.678562 23.862045,16.678562 23.8350732,16.7783224 L23.8108103,16.8807918 L23.3171906,16.8889187 L22.8236888,16.8943399 L22.8398248,16.834975 C22.8884683,16.6621905 22.9855197,16.678562 21.895811,16.678562 C20.9678155,16.678562 20.908454,16.675853 20.921881,16.6299185 L21.0190502,16.3198014 C21.1189284,15.9934306 21.1108015,16.0040309 21.22128,16.0040309 C21.3050222,16.0040309 21.3130313,15.9960218 21.3535479,15.8745897 C22.1923833,13.0935477 22.4566836,12.2223226 22.4917822,12.0982993 L22.5592707,11.8769891 L23.0580727,11.8769891 C23.3310887,11.8768712 23.5549901,11.8877071 23.5549901,11.9012519 L23.5549901,11.9012519 Z M17.2890476,13.4199185 L17.1002449,14.0348524 L16.0320901,14.0348524 C15.9242028,14.3800682 15.8863952,14.5015003 15.8783861,14.5258809 C15.8648413,14.5716977 15.9026489,14.5742889 16.4042777,14.5742889 C16.7036766,14.5742889 16.9465408,14.5852425 16.9465408,14.5986695 C16.9465408,14.6093875 16.935705,14.6550866 16.919569,14.6984299 C16.9060242,14.7415377 16.8629164,14.8819325 16.8251088,15.0112559 L16.7550291,15.2487021 L15.6599026,15.2487021 L15.5357616,15.6641153 C15.3523767,16.2656222 15.3712217,16.2845849 16.0509351,16.1872979 C16.3314891,16.1496081 16.3206533,16.1253452 16.19663,16.5326315 L16.0914517,16.8805562 L15.3523767,16.8805562 C14.1951796,16.8805562 14.1736257,16.8535844 14.4784426,15.8447912 C14.5754941,15.5292562 14.6537006,15.2648382 14.6537006,15.2594202 C14.6537006,15.2541201 14.5215504,15.2485844 14.3570105,15.2485844 C14.1951796,15.2485844 14.0603205,15.2405752 14.0603205,15.2324484 C14.1897617,14.7900634 14.2329873,14.6470774 14.2382874,14.6201056 C14.2518322,14.579589 14.2896398,14.5741711 14.5593581,14.5741711 L14.864175,14.5741711 L15.0124611,14.0347346 L14.723898,14.0347346 C14.5081234,14.0347346 14.437926,14.0266078 14.437926,13.9996359 C14.437926,13.964655 14.597048,13.4440636 14.6187197,13.4062559 C14.6402735,13.3685661 17.3051836,13.3821108 17.2890476,13.4199185 L17.2890476,13.4199185 Z M20.7119954,14.7011389 C20.7039863,14.7281107 20.6797234,14.835998 20.6581695,14.9385851 C20.5555824,15.432087 20.4153054,15.5426832 19.8380613,15.5750729 C19.6384227,15.5859088 19.4711739,15.6020448 19.4605736,15.6101716 C19.417348,15.6561062 19.4226482,16.0848285 19.4684649,16.155026 L19.5143994,16.2252234 L19.8623242,16.2063784 C20.0538359,16.1955426 20.2102489,16.1900069 20.2102489,16.1955426 C20.2102489,16.2252234 20.0213283,16.8455753 20.0053102,16.8725471 C19.9783383,16.9157726 18.8859207,16.8833829 18.7429347,16.8348572 C18.524569,16.7620686 18.5271601,16.7863315 18.554132,15.6749511 L18.5782771,14.6958387 L19.0314979,14.6877118 L19.481892,14.6822939 L19.481892,15.0600172 L19.6573855,15.0600172 C19.8567885,15.0600172 19.87316,15.0437634 19.9540755,14.7955991 L19.9998923,14.6553101 L20.3613618,14.6553101 C20.6958594,14.6550866 20.7255402,14.6579133 20.7119954,14.7011389 L20.7119954,14.7011389 Z M22.3789481,7.1377222 L22.1874364,7.97926657 L22.4545634,7.98739345 C23.8085724,8.02520111 24.3832252,6.45529982 23.0559526,6.34741255 C22.8483049,6.33115879 22.6540842,6.31231386 22.6244035,6.30689592 C22.5731688,6.29617784 22.5571506,6.3581306 22.3789481,7.1377222 L22.3789481,7.1377222 Z M15.3388319,8.34344501 C14.9963251,8.48101306 14.6887992,9.75410654 14.9477994,9.95374512 C15.1419022,10.104858 15.4224563,9.85398473 15.5573154,9.40889079 C15.8054797,8.58077348 15.7245642,8.18703203 15.3388319,8.34344501 Z M25.8748023,8.42977841 C25.5214596,8.60774533 25.2490325,9.85940267 25.5294688,10.0049798 C25.8882293,10.1910736 26.3333232,9.52490498 26.3333232,8.79925703 C26.3333232,8.45404125 26.1391026,8.29762827 25.8748023,8.42977841 L25.8748023,8.42977841 Z M18.7402257,12.6376179 L18.6458833,12.9532707 C18.597122,13.1069747 18.554132,13.2500785 18.5458873,13.2688056 C18.5377604,13.2903595 18.6322207,13.2526696 18.7562439,13.1878902 C19.1015775,13.0045053 19.2175916,12.9801247 19.7300562,12.9639887 L20.1804503,12.9478527 C20.2453476,12.7293692 20.2640747,12.6511627 20.2640747,12.6349089 C20.2641925,12.5890922 18.7563617,12.5945101 18.7402257,12.6376179 L18.7402257,12.6376179 Z M18.4299909,13.6491201 L18.3517844,13.9268474 L19.8677421,13.9134204 L19.9647935,13.6302752 C18.7753244,13.6302752 18.4299909,13.6384021 18.4299909,13.6491201 Z M23.2286193,13.0099233 C23.1612487,13.230998 23.112723,13.4146184 23.1207321,13.4146184 C23.128859,13.4146184 23.2286193,13.3794019 23.3392156,13.3364119 C23.4496941,13.2931863 23.6331967,13.2446606 23.7437929,13.2285246 C23.8542714,13.2095619 23.9461405,13.1934259 23.9488494,13.1907169 C23.9568585,13.1825901 24.1215162,12.6404447 24.1215162,12.6215997 C24.1215162,12.6134729 23.9488494,12.605346 23.7359016,12.605346 L23.3501692,12.605346 L23.2286193,13.0099233 Z M22.9534832,13.9187205 C22.9480653,13.9322653 22.8888215,14.1157679 22.826751,14.3314247 C22.7646804,14.5471993 22.7080279,14.7308196 22.7026099,14.7388288 C22.6973098,14.7496646 22.7889433,14.7145659 22.9104932,14.6633312 C23.0289807,14.6119788 23.2153101,14.552735 23.3231974,14.5337722 C23.5605258,14.4932556 23.5712439,14.4879555 23.5902066,14.3934952 C23.6010425,14.3505052 23.6386146,14.2236552 23.6738311,14.1075233 L23.7386105,13.8998756 L23.352996,13.8998756 C23.139577,13.8999934 22.9589011,13.908238 22.9534832,13.9187205 L22.9534832,13.9187205 Z M22.341376,15.9552696 L23.112723,15.9769413 C23.269136,15.448223 23.3231974,15.2782652 23.3310887,15.2594202 L22.5597418,15.2217303 L22.341376,15.9552696 Z" id="Shape"></path>
            </g>
        </g>
    </g>
</svg>