<svg xmlns="http://www.w3.org/2000/svg" width="40" height="40" viewBox="0 0 40 40">
    <path fill="#3b465c" fill-rule="evenodd" d="M7.477 7.175c-1.162.151-2.315 1.105-2.69 2.229-.235.693-4.77 20.371-4.785 20.747-.036 1.024.545 1.788 1.509 1.984.36.074 30.769.077 31.151.007 1.089-.209 2.116-1.08 2.508-2.123.15-.404 4.807-20.474 4.826-20.808.055-.944-.494-1.718-1.42-1.997-.208-.061-30.614-.103-31.099-.039zm-.353 6.397c0 .022-.03.141-.064.263-.482 1.644-.96 3.85-.9 4.133.177.828 1.362.76 1.796-.1.122-.237 1.03-4.075 1.03-4.344 0-.013 1.423.006 1.436.019a.43.43 0 0 1-.026.119c-.016.06-.247.953-.51 1.987-.566 2.232-.64 2.46-.935 2.894-.97 1.432-4.197 1.387-4.46-.062-.058-.324.636-3.95.944-4.935.016-.051 1.689-.026 1.689.026zm21.498 0c.967.212 1.262.992.816 2.141-.45 1.153-1.387 1.67-3.047 1.67-.501 0-.463-.077-.787 1.493-.061.3-.119.575-.128.61-.023.103-1.516.103-1.5 0 1.262-5.41 1.362-5.876 1.371-5.914l.016-.071 1.52.01c1.213.01 1.56.022 1.74.06zm-12.97 2.08c.203.052.367.212.367.357 0 .523-1.076.883-1.468.491-.401-.401.408-1.02 1.102-.848zm-3.73.399a.863.863 0 0 1-.026.183l-.026.086.254-.128c.668-.337 1.323-.28 1.538.141.131.25.115.402-.222 1.965-.06.283-.138.659-.167.835-.074.424-.019.395-.77.408-.643.01-.643.01-.636-.06.003-.036.08-.383.167-.772.343-1.5.35-1.711.054-1.711-.164 0-.398.1-.414.173-.032.145-.414 1.975-.45 2.155l-.038.193-.658.022c-.8.026-.742.09-.566-.639.225-.925.36-1.58.45-2.158.1-.636.032-.565.633-.661.273-.042.552-.09.623-.11.208-.048.256-.035.253.078zm9.986-.016a.997.997 0 0 1-.026.183l-.026.106.254-.129c1.31-.677 1.814-.119 1.43 1.59a37.5 37.5 0 0 0-.248 1.188c-.049.263-.106.498-.126.52-.073.074-1.32.07-1.313-.006.003-.036.077-.376.167-.755.353-1.532.357-1.73.048-1.734-.247 0-.385.083-.427.267-.055.228-.372 1.753-.427 2.029l-.042.225-.658.019c-.803.022-.739.103-.549-.68.202-.833.366-1.626.453-2.197.08-.543.022-.482.546-.562.237-.039.52-.087.626-.113.267-.057.321-.05.318.049zm12.78-.036c.077 1.291.103 1.667.116 1.683.01.013.193-.315.401-.732.427-.845.334-.752.803-.819.125-.02.376-.064.559-.1.459-.093.462-.125-.07.794-.72 1.242-1.713 2.99-2.062 3.625-1.07 1.959-1.063 1.949-1.982 1.968l-.54.013.05-.157.115-.389.07-.23h.167c.193 0 .228-.033.408-.338.064-.106.16-.273.218-.37.061-.095.264-.445.45-.776l.343-.598-.09-.783a67.863 67.863 0 0 0-.292-2.3c-.048-.288-.048-.285.33-.343.168-.026.435-.074.592-.11.337-.07.392-.076.414-.038zm-15.856.039c1.625.298 1.053 3.121-.71 3.513-1.195.266-2.013-.19-2.013-1.124-.004-1.618 1.194-2.672 2.723-2.39zm12.102.074c.09.038.206.125.264.19.096.108.102.112.112.044.013-.083.003-.08.841-.218.681-.11.652-.113.604.093a60.585 60.585 0 0 0-.6 2.71c-.138.752-.036.671-.854.662l-.688-.01.01-.09c.01-.087-.035-.119-.074-.055-.237.383-1.368.222-1.686-.237-.803-1.17.864-3.655 2.071-3.09zm-15.102.616c.01.01 0 .1-.025.2-.16.674-.469 2.032-.517 2.286l-.058.305-.69.019c-.829.022-.777.061-.614-.434.154-.478.292-1.082.389-1.705.08-.536-.003-.459.6-.549.28-.041.565-.09.636-.106.157-.035.257-.041.28-.016zm3.687 4.348c0 .02-.042.11-.097.202a1.911 1.911 0 0 0-.096.193c1.243.023 1.288.026 1.272.077l-.222.748h-1.801l-.1.094c-.225.215-1.46.484-1.46.317l.227-.764h.167c.286 0 .36-.06.61-.507l.219-.392c1.053 0 1.28.013 1.28.032zm2.761.007c0 .022-.028.134-.064.25a2.624 2.624 0 0 0-.064.231c0 .01.106-.051.234-.138.466-.308.855-.382 2.043-.382.472 0 .867.006.876.016.03.032-.674 2.318-.777 2.52-.138.274-.285.425-.52.534l-.202.093-1.204.016-1.205.016-.215.707c-.417 1.358-.43 1.268.187 1.207.49-.048.459-.093.308.417l-.129.43-.62.01c-1.329.022-1.502-.058-1.358-.616.07-.27 1.58-5.283 1.603-5.321.032-.048 1.107-.039 1.107.01zm5.524-.01c0 .016-.023.09-.049.164-.07.202-.07.202.203.064.36-.183 1.197-.257 2.922-.257h.552v.254c0 .298.016.318.283.35l.192.022-.115.376-.113.379-.372.006c-.963.02-1.124-.074-1.13-.648v-.273l-.065.199-.064.202h-.205c-.116 0-.21.006-.21.016s-1.024 3.42-1.174 3.908c-.016.048.003.058.125.058.18 0 .186.01.131.167-.064.186-.064.186.158.186.144 0 .24-.02.343-.074.151-.074.138-.061.813-1.011l.28-.392h-.572c-.685 0-.633.038-.508-.38l.103-.343.693-.01.69-.006c.132-.44.171-.578.171-.587 0-.013-.302-.026-.668-.03l-.668-.009.113-.379.109-.375h1.891c1.037 0 1.888.01 1.888.022 0 .016-.048.183-.106.379l-.106.353-.639.016-.636.016c-.109.325-.15.456-.163.505l-.02.09h.607c.716 0 .668-.033.536.388l-.102.334-.694.01-.697.006-.1.129-.099.125.267.01.266.009.08.507c.09.572.087.569.363.569.219 0 .212-.045.064.456l-.122.411h-.394c-.697 0-.826-.113-.938-.816l-.07-.472-.254.347c-.691.95-.73.973-1.625.973-.565 0-.56.003-.492-.173.03-.084.03-.084-.138-.084-.17 0-.17 0-.202.119l-.029.122-.588.01-.587.006.02-.07c.057-.206.173-.187-1.125-.187-1.104 0-1.175-.003-1.16-.058l.117-.369c.118-.388.109-.376.24-.376.1 0 .11-.01.158-.154.998-3.31 1.313-4.348 1.355-4.496l.08-.263h.594c.325 0 .592.013.592.029zm-7.46 1.808l-.225.732h-1.271l-.183.584c-.016.055.029.058.626.058.356 0 .645.013.645.03a.562.562 0 0 1-.032.118c-.016.051-.067.218-.112.372l-.084.283h-1.303l-.148.495c-.218.716-.196.738.613.622.334-.045.321-.073.174.411l-.126.415h-.88c-1.377 0-1.403-.032-1.04-1.233.116-.376.209-.69.209-.697 0-.007-.158-.013-.353-.013-.193 0-.354-.01-.354-.02.154-.526.206-.696.212-.728.016-.049.061-.055.382-.055h.363l.177-.642h-.344c-.257 0-.34-.01-.34-.042 0-.042.19-.661.215-.706.026-.045 3.198-.03 3.18.016zm4.075 1.525c-.01.032-.038.16-.064.283-.122.587-.29.719-.976.758a3.321 3.321 0 0 0-.45.041c-.051.055-.045.565.01.649l.054.084.415-.023c.228-.013.414-.02.414-.013 0 .036-.225.774-.244.806-.032.052-1.333.013-1.503-.045-.26-.086-.257-.058-.225-1.38l.029-1.166.54-.01.536-.006v.45h.209c.237 0 .256-.02.353-.315l.054-.167h.43c.399 0 .434.003.418.054zm1.985-9.004l-.228 1.002.318.01c1.611.045 2.296-1.824.715-1.953a11.54 11.54 0 0 1-.513-.048c-.061-.013-.08.061-.292.99zm-8.382 1.435c-.407.164-.773 1.68-.465 1.917.231.18.565-.118.726-.648.295-.986.199-1.455-.26-1.269zm12.543.103c-.42.212-.745 1.702-.41 1.875.426.222.956-.571.956-1.435 0-.41-.231-.597-.546-.44zm-8.493 5.01l-.113.375c-.058.183-.109.354-.119.376-.01.026.103-.02.25-.096.412-.219.55-.248 1.16-.267l.536-.02c.078-.26.1-.352.1-.372 0-.054-1.795-.048-1.814.004zm-.37 1.204l-.093.33 1.805-.016.116-.337c-1.417 0-1.828.01-1.828.023zm5.713-.761c-.08.263-.138.482-.128.482.01 0 .128-.042.26-.094.131-.051.35-.109.481-.128.132-.023.241-.042.244-.045.01-.01.206-.655.206-.678 0-.01-.206-.019-.46-.019h-.458l-.145.482zm-.328 1.082a12.4 12.4 0 0 0-.15.491 9.683 9.683 0 0 1-.148.485c-.006.013.103-.029.247-.09a2.68 2.68 0 0 1 .492-.154c.282-.048.295-.055.317-.167.013-.051.058-.202.1-.34l.077-.248h-.459c-.254 0-.47.01-.476.023zm-.728 2.424l.918.026c.186-.63.25-.832.26-.854l-.918-.045-.26.873z"/>
</svg>
