<svg xmlns="http://www.w3.org/2000/svg" width="40" height="40" viewBox="0 0 40 40">
    <path fill="#3b465c" fill-rule="evenodd" d="M20.703 16.91c5.054-3.216 11.991-2.556 16.248 1.543 3.829 3.688 4.076 8.593.604 12.608-.589.68-1.332 1.226-1.922 1.904-.229.264-.373.753-.308 1.091.173.902.48 1.777.734 2.663l-.198.148c-.928-.5-1.88-.96-2.773-1.515-.657-.407-1.262-.465-2.01-.263-3.614.974-7.052.436-10.23-1.488-6.619-4.006-6.675-12.538-.145-16.692zM3.913 8.026C10.127 2.445 20.838 3.21 26.159 9.65c.889 1.077 1.409 2.462 2.07 3.72.134.255.138.578.229.995-4.077-.222-7.542.782-10.277 3.653-2.764 2.902-3.602 6.367-2.576 10.522-1.415-.093-2.728.046-3.89-.308-1.926-.586-3.512-.07-5.11.88a7.68 7.68 0 0 1-2.338.913c.327-.986.614-1.988.994-2.952.306-.778.19-1.261-.522-1.801C2.552 23.615.872 21.526.284 18.79c-.919-4.274.419-7.878 3.629-10.763zm28.002 12.758c-.764-.005-1.442.607-1.424 1.288.016.635.684 1.236 1.386 1.247.79.012 1.477-.538 1.508-1.208.034-.75-.597-1.32-1.47-1.327zm-7.764.002c-.772-.002-1.337.504-1.36 1.217-.025.728.6 1.326 1.374 1.314.788-.012 1.482-.581 1.506-1.234.025-.701-.671-1.295-1.52-1.297zm-4.76-10.259c-1.07.016-1.9.739-1.891 1.65.008.946.872 1.636 2.015 1.61.995-.024 1.576-.656 1.553-1.69-.022-1.001-.645-1.584-1.677-1.57zm-9.835 0c-1.08.009-1.908.7-1.92 1.603-.013.95.824 1.66 1.953 1.656.996-.003 1.663-.637 1.677-1.594.015-.985-.691-1.673-1.71-1.665z"/>
</svg>
