<svg xmlns="http://www.w3.org/2000/svg" width="92" height="92" viewBox="0 0 92 92">
    <g fill="none" fill-rule="evenodd">
        <circle cx="46" cy="46" r="46" fill="#002766"/>
        <path fill="#FADB14" d="M38.315 72.8c-1.464-.67-3.495-1.342-5.306-1.601v-33.47c0-.38-.55-.666-.806-.73-.258-.063-.59-.14-1.347 0-3.164.587-10.975 2.353-12.565 2.65-.185.032-.208.104-.208.104s-.057.069-.028.242l.173 1.036c.026.153.086.19.086.19s.031.077.163.096c1.117.164 7.03 1.064 6.893 1.102l.01 28.78c-1.69.219-5.756 1.14-6.854 1.739-.284.154-.499.329-.602.538-.094.186-.006.485.36.485h20.6c.169 0 .379-.089.343-.357-.044-.343-.343-.543-.912-.804m25.15-5.694c-2.315 3.965-7.648 5.018-11.651 3.751-1.856-.587-3.607-1.872-4.584-3.66-1.087-1.994-1.463-4.464-1.448-6.738.013-2.278.29-4.764 1.354-6.787 1.028-1.955 2.464-3.553 4.144-4.892.299-.238.552-.386.552-.386l.972.493c.498.248.992.5 1.478.776 1.996 1.131 3.949 2.39 5.73 3.869 1.937 1.61 3.645 3.502 4.286 6.083.608 2.44.441 5.307-.833 7.49M47.128 31.628c-.86-1.872-.9-4.329-.035-6.21.815-1.777 2.499-3.28 4.268-3.902 1.866-.657 3.755-.81 5.47-.486 2.064.392 3.788 1.199 5.125 2.611 3.01 3.179 3.237 8.477 1.188 12.282-.516.961-1.115 1.9-1.852 2.69-.703.756-1.56 1.37-2.375 1.984-.198.151-.66.393-.66.393s-.456-.226-.63-.315c-.43-.214-.857-.432-1.287-.643-1.725-.846-3.311-2.097-4.824-3.3-1.757-1.396-3.411-2.983-4.388-5.104m25.768 24.76c-1.058-6.42-6.5-10.304-11.403-13.394 2.861-2.085 6.136-3.82 8.207-6.867 1.635-2.404 2.188-5.56 1.571-8.442-.596-2.79-2.844-5.17-4.884-6.457-2.345-1.477-5.018-2.635-8-3.061-2.76-.394-6.079-.392-8.924.544-3.8 1.252-6.454 3.824-7.531 4.952-1.963 2.055-3.162 4.732-3.279 7.658-.065 1.635.04 3.307.594 4.85.57 1.592 1.494 3.104 2.527 4.404 1.929 2.422 4.428 4.232 6.894 5.988-2.843 1.664-5.773 3.179-8.057 5.673-1.734 1.894-3.018 4.173-3.345 6.813-.314 2.536.03 5.217 1.33 7.408 2.836 4.771 8.034 7.018 13.187 7.426 4.79.379 9.802-.04 13.958-2.798 2.339-1.552 4.459-3.55 5.836-6.104 1.357-2.514 1.834-5.783 1.319-8.593"/>
    </g>
</svg>
