<?xml version="1.0" encoding="UTF-8"?>
<svg width="48px" height="48px" viewBox="0 0 48 48" version="1.1" xmlns="http://www.w3.org/2000/svg" xmlns:xlink="http://www.w3.org/1999/xlink">
    <!-- Generator: Sketch 50.2 (55047) - http://www.bohemiancoding.com/sketch -->
    <title>ABC</title>
    <desc>Created with Sketch.</desc>
    <defs></defs>
    <g id="ABC" stroke="none" stroke-width="1" fill="none" fill-rule="evenodd">
        <g id="农业银行" transform="translate(2.000000, 2.000000)" fill="#148F79" fill-rule="nonzero">
            <path d="M27.3987056,0.479686253 C36.5767797,2.81530978 43.3779961,11.1087059 43.9214347,20.6140863 C44.5691696,31.9636706 36.1980195,42.2503529 24.9806784,43.7770667 C12.5529512,45.4721882 0.954105263,35.9944157 0.0922885205,23.4052392 C-0.626807018,12.8535215 6.47906433,3.03065096 16.6781442,0.460360806 L16.672655,12.5194667 C16.672655,13.9164235 16.604039,14.5900549 18.0998675,14.5900549 C18.8656219,14.5928157 19.6450994,14.5458824 20.4053645,14.5900549 C21.7584718,14.6756393 21.5196882,15.8158432 21.5196881,16.9063529 L21.5196881,21.9447843 C21.0640779,20.9923137 19.3239766,21.4036706 18.4978401,21.4036706 L15.6159688,21.4036706 C15.0231267,21.3263686 14.7514074,21.0144 14.6910254,20.4235921 L14.6910254,6.05094904 C8.57047953,8.87247059 4.55781681,15.2167529 4.55781674,21.9806745 C4.55781674,30.5832784 11.070846,38.1671529 19.5682495,39.3239215 L19.5682495,30.1360314 C19.5682495,29.7081098 19.7411618,29.2746667 19.2581053,29.2746667 L16.9663314,29.2746667 C16.2472358,29.2746667 14.8858947,29.5452235 14.7074932,28.540298 C14.5867291,27.9826196 14.69377,27.3283137 14.69377,26.7678745 L14.69377,21.5776 C14.6718129,22.0055215 14.8584483,22.3312941 15.2783781,22.4417255 C16.3817232,22.6984785 17.7622768,22.4720941 18.8930682,22.4693333 C19.6231423,22.4638118 21.3083509,22.1104313 21.5004757,23.1760941 C21.6514308,23.8165961 21.5196882,24.6282667 21.5196881,25.2853333 L21.5196881,28.7611608 C21.5196881,29.1559529 21.4757738,29.1062588 21.7392593,29.2277333 C21.9204055,29.3105568 22.304655,29.2498196 22.5077583,29.258102 L22.5077583,24.8380863 C22.5077583,24.0485019 22.2168265,22.4638118 23.4409357,22.4638118 C24.6211306,22.2981647 25.9440468,22.4638118 27.1379649,22.4638118 C27.9256764,22.4638118 29.3885692,22.7316079 29.3309318,21.5196235 C29.3391657,23.0546196 29.3309318,24.5896157 29.3309318,26.1273726 C29.3336765,26.6243137 29.0921482,27.8832314 29.3419103,28.3056314 C29.9594542,29.8571922 25.1865263,29.0703687 24.6568109,29.2719059 C24.3411773,29.3961412 24.511345,29.2001255 24.4043041,29.5893961 C24.3576452,29.7605647 24.4043041,30.039404 24.4043041,30.2160941 L24.4043041,39.3266824 C32.9044523,38.1671529 39.4174815,30.5832785 39.4174815,21.9806745 C39.4174815,15.227796 35.4322651,8.89455684 29.3336764,6.05094904 L29.3336764,18.6346039 C29.3336764,18.8720313 29.1799766,20.2689882 29.3391657,20.387702 C29.3391657,20.8570353 29.1058713,21.2849569 28.6145809,21.3871059 C27.4234075,21.6190118 25.9852164,21.4036706 24.7665965,21.4036706 C24.047501,21.4036706 22.8974971,21.1331137 22.5077583,21.9447843 L22.5077583,17.5109647 C22.5077583,16.7876392 22.1180195,14.9710432 23.0786433,14.6590745 C23.9926082,14.3691921 27.1626667,15.2388392 27.3465575,13.897098 C27.6374893,11.8071843 27.36577,9.47984309 27.3740039,7.3706039 L27.3987056,0.479686253 Z M20.4492787,13.590651 C20.0171798,13.5717082 19.6558225,13.2540906 19.5792281,12.8259137 C19.4255283,11.3102432 19.5682495,9.71174904 19.5682495,8.1877961 L19.5682495,1.5978039 C19.5682495,1.37694118 19.5023781,0.0241568412 19.6450994,0.0241568412 L24.3905809,0.0241568412 C24.5305575,0.0241568412 24.4674308,2.82635294 24.4674308,3.17973331 L24.4674308,11.4620863 C24.4674308,11.7685333 24.5827056,12.3759059 24.4674308,12.6547451 C24.4674308,12.8231529 24.3905809,13.0688627 24.2945185,13.206902 C24.0612241,13.6817569 23.2762573,13.590651 22.8673061,13.590651 L20.4492787,13.590651 Z" id="path"></path>
        </g>
    </g>
</svg>