<?xml version="1.0" encoding="UTF-8"?>
<svg width="48px" height="48px" viewBox="0 0 48 48" version="1.1" xmlns="http://www.w3.org/2000/svg" xmlns:xlink="http://www.w3.org/1999/xlink">
    <!-- Generator: Sketch 50.2 (55047) - http://www.bohemiancoding.com/sketch -->
    <title>CCB</title>
    <desc>Created with Sketch.</desc>
    <defs></defs>
    <g id="CCB" stroke="none" stroke-width="1" fill="none" fill-rule="evenodd">
        <g id="建设银行" transform="translate(3.000000, 3.000000)" fill="#0E3484" fill-rule="nonzero">
            <path d="M28.1492597,4.26647176 C24.9357791,0.779532164 21.9248998,0.758074095 21.9248998,0.758074095 C21.9248999,0.758074095 29.1425685,-2.21923585 35.6426912,3.97678755 L42.5367607,10.5483275 C42.5367607,10.5483275 43.006683,10.9318908 42.9588466,11.159883 C42.857546,11.6078206 42.587411,12.0664873 42.587411,12.0664873 L39.4302086,14.9499181 L28.1464458,4.26647176 L28.1492597,4.26647176 Z M41.7010307,22.8277193 C41.7010307,22.8277193 42.289137,22.701653 42.5733415,22.8947758 C42.8462904,23.0825342 42.8097096,23.1790956 42.8068957,23.3105263 C42.2722536,34.2487875 32.7837628,42.9580896 21.4212106,42.9580896 C9.89263804,42.9580896 0.0383394463,33.884 0.0383394463,22.5541287 C0.0383394463,12.4822378 7.52895706,4.03579725 17.8672474,2.41302924 C19.0265767,2.23331772 22.0205726,1.99727877 24.7472474,4.5937076 L37.6180532,16.8006784 L33.2002209,21.0762027 C33.2002209,21.0762027 32.5755337,21.6072905 32.1421922,21.5 C31.6750838,21.3819805 31.2839509,20.9474542 31.2839509,20.9474542 L21.7222986,11.8277661 C21.5536599,11.6696257 21.2831336,11.6696257 21.1144949,11.8277661 L10.2443763,22.1652008 C10.0766204,22.3262689 10.0766204,22.5861833 10.2443763,22.7472515 L21.0976115,33.0659104 C21.2664458,33.226846 21.5365808,33.226846 21.7054152,33.0659104 L31.9255215,23.3695361 C31.9255215,23.3695361 32.3954437,22.9940195 32.5614642,22.9242807 C32.8147158,22.814308 33.4112638,22.8277193 33.4112638,22.8277193 L41.6982167,22.8277193 L41.7010307,22.8277193 Z" id="path"></path>
        </g>
    </g>
</svg>