<?xml version="1.0" encoding="UTF-8"?>
<svg width="48px" height="48px" viewBox="0 0 48 48" version="1.1" xmlns="http://www.w3.org/2000/svg" xmlns:xlink="http://www.w3.org/1999/xlink">
    <!-- Generator: Sketch 50.2 (55047) - http://www.bohemiancoding.com/sketch -->
    <title>CEB</title>
    <desc>Created with Sketch.</desc>
    <defs></defs>
    <g id="CEB" stroke="none" stroke-width="1" fill="none" fill-rule="evenodd">
        <g id="光大银行" transform="translate(7.000000, 3.000000)" fill="#FBE900" fill-rule="nonzero">
            <path d="M0.0613333125,0.040935693 L21.928,0.040935693 C21.928,0.040935693 26.0533333,0.040935693 26.8293333,1.18844446 L22.7866667,1.18844446 L22.7866667,2.41192982 L29.0106667,2.49052632 C29.0106667,2.49052632 30.024,3.17693569 30.024,3.71139183 L22.7866667,3.78998832 L22.7866667,4.93487719 L30.8,4.93487719 C30.8,4.93487719 31.7333333,5.39335675 31.4986667,6.38629238 L6.52266669,6.38629238 L6.52266669,7.68575439 L31.8906667,7.60715789 C31.8906667,7.60715789 32.0453334,8.60271343 32.0453333,8.90923975 L6.52266669,8.90923975 L6.52266669,10.2087018 L32.1226667,10.1327252 C32.1226667,10.1327252 32.2773334,10.8951111 31.8906667,11.4321871 L6.52266669,11.6627368 L6.52266669,12.8862222 L31.4986667,12.7316491 C31.4986667,12.7316491 31.4986667,13.7272047 30.8773333,14.033731 L6.52266669,14.1856842 L6.52266669,15.333193 L30.0986667,15.176 C30.0986667,15.176 30.024,16.4021053 29.1653333,16.632655 L6.52266669,16.7060117 L6.52266669,17.9321169 L27.296,17.7775439 C27.296,17.7775439 26.8293333,19.3049357 23.6426667,19.1529825 L19.7493333,19.0796257 L19.7493333,20.2245146 L26.0533333,20.3031111 C26.0533333,20.3031111 28.6986666,20.3031111 29.088,21.3694035 L19.752,21.5999532 L19.752,22.747462 L30.7226667,22.747462 C30.7226667,22.747462 31.7333334,23.509848 31.7333333,23.9709474 L6.52266669,24.1229006 L6.52266669,25.4983392 L32.2773333,25.2704094 C32.2773333,25.2704094 33.2906666,25.9568188 33.2906667,26.645848 L6.52266669,26.7978011 L6.52266669,27.9453099 L33.6773333,27.9453099 C33.6773333,27.9453099 33.992,28.325193 33.8346667,29.0168421 L6.52266669,29.2447719 L6.52266669,30.3896608 L33.8346667,30.3896608 C33.8346667,30.3896608 34.0666667,31.07869 33.8346667,31.6157661 L6.52,31.7677193 L6.52,32.9885848 L33.5973333,32.9885848 C33.5973333,32.9885848 33.832,33.7535907 33.2106667,34.3666433 L6.52,34.3666433 L6.52,35.5901287 L32.6666667,35.5115322 C32.6666667,35.5115322 32.5866667,36.7376374 32.0426667,36.813614 L22.7866667,36.813614 L22.7866667,38.113076 L30.8,38.0344796 C30.8,38.0344796 30.2533333,39.2605848 29.7093333,39.412538 L22.7866667,39.4911345 L22.7866667,40.7879766 L27.4533333,40.712 C27.4533333,40.712 26.7546666,42.1634152 20.6053333,41.9354854 L0.0613333125,41.8568889 L0.0613333125,0.0461754386 L0.0613333125,0.040935693 Z" id="path"></path>
        </g>
    </g>
</svg>