<?xml version="1.0" encoding="UTF-8"?>
<svg width="40px" height="40px" viewBox="0 0 40 40" version="1.1" xmlns="http://www.w3.org/2000/svg" xmlns:xlink="http://www.w3.org/1999/xlink">
    <!-- Generator: sketchtool 50.2 (55047) - http://www.bohemiancoding.com/sketch -->
    <title>DDB65DC1-CE70-47F5-AF3B-7258F0436805</title>
    <desc>Created with sketchtool.</desc>
    <defs>
        <path d="M20,2.22222222 C10.1805556,2.22222222 2.22222222,10.1805556 2.22222222,20 C2.22222222,29.8194444 10.1805556,37.7777778 20,37.7777778 C29.8194444,37.7777778 37.7777778,29.8194444 37.7777778,20 C37.7777778,10.1805556 29.8194444,2.22222222 20,2.22222222 Z M30.8020833,30.8020833 C29.3993056,32.2048611 27.7638889,33.3090278 25.9444444,34.0763889 C24.0625,34.875 22.0625,35.2777778 20,35.2777778 C17.9375,35.2777778 15.9375,34.875 14.0555556,34.0798611 C12.2361111,33.3090278 10.6041667,32.2083333 9.19791667,30.8055556 C7.79513889,29.4027778 6.69097222,27.7673611 5.92361111,25.9479167 C5.125,24.0625 4.72222222,22.0625 4.72222222,20 C4.72222222,17.9375 5.125,15.9375 5.92013889,14.0555556 C6.69097222,12.2361111 7.79166667,10.6041667 9.19444444,9.19791667 C10.5972222,7.79513889 12.2326389,6.69097222 14.0520833,5.92361111 C15.9375,5.125 17.9375,4.72222222 20,4.72222222 C22.0625,4.72222222 24.0625,5.125 25.9444444,5.92013889 C27.7638889,6.69097222 29.3958333,7.79166667 30.8020833,9.19444444 C32.2048611,10.5972222 33.3090278,12.2326389 34.0763889,14.0520833 C34.875,15.9375 35.2777778,17.9375 35.2777778,20 C35.2777778,22.0625 34.875,24.0625 34.0798611,25.9444444 C33.3090278,27.7638889 32.2083333,29.3993056 30.8020833,30.8020833 Z M27.6736111,19.7222222 L21.25,19.7222222 L21.25,11.3888889 C21.25,10.6979167 20.6909722,10.1388889 20,10.1388889 C19.3090278,10.1388889 18.75,10.6979167 18.75,11.3888889 L18.75,19.7222222 C18.75,21.1041667 19.8680556,22.2222222 21.25,22.2222222 L27.6736111,22.2222222 C28.3645833,22.2222222 28.9236111,21.6631944 28.9236111,20.9722222 C28.9236111,20.28125 28.3645833,19.7222222 27.6736111,19.7222222 Z" id="path-1"></path>
    </defs>
    <g id="Screen" stroke="none" stroke-width="1" fill="none" fill-rule="evenodd">
        <g id="2.8_mb_member-cashback-bonus" transform="translate(-686.000000, -112.000000)">
            <g id="icon/clock" transform="translate(686.000000, 112.000000)">
                <rect id="@bound" x="0" y="0" width="40" height="40"></rect>
                <mask id="mask-2" fill="white">
                    <use xlink:href="#path-1"></use>
                </mask>
                <use id="Mask" fill="#000000" fill-rule="nonzero" xlink:href="#path-1"></use>
                <g id="color/white" mask="url(#mask-2)" fill="#FFFFFF">
                    <rect id="color" x="0" y="0" width="40" height="40"></rect>
                </g>
            </g>
        </g>
    </g>
</svg>