<?xml version="1.0" encoding="UTF-8"?>
<svg width="48px" height="48px" viewBox="0 0 48 48" version="1.1" xmlns="http://www.w3.org/2000/svg" xmlns:xlink="http://www.w3.org/1999/xlink">
    <!-- Generator: Sketch 50.2 (55047) - http://www.bohemiancoding.com/sketch -->
    <title>CMB</title>
    <desc>Created with Sketch.</desc>
    <defs></defs>
    <g id="CMB" stroke="none" stroke-width="1" fill="none" fill-rule="evenodd">
        <g id="招商银行" transform="translate(3.000000, 3.000000)" fill="#C7162E" fill-rule="nonzero">
            <path d="M13.5873294,15.3415282 L7.45836257,30.3353684 L31.8240234,30.3353684 L25.7057856,15.277154 L19.641193,30.1368811 L13.5900117,15.3415282 L13.5873294,15.3415282 Z M37.4460429,26.7465029 L42.3116647,26.7465029 C42.2200301,27.1111647 42.1189644,27.4733914 42.0085692,27.8328187 L37.8805692,27.8328187 L37.4460429,26.7465029 Z M36.6279532,24.7053022 L42.7193684,24.7053022 C42.6657232,25.0700897 42.6013489,25.4295127 42.5289279,25.7889357 L37.0624795,25.7889357 L36.6279532,24.7053022 Z M35.8071813,22.6641013 L42.9259025,22.6641013 C42.9071267,23.0262066 42.8776218,23.3883119 42.8427525,23.7477349 L36.2443899,23.7477349 L35.8071813,22.6641013 Z M34.9890916,20.6202183 L42.9393139,20.6202183 C42.9527251,20.9125848 42.9580897,21.2049512 42.9580896,21.5 L42.9580896,21.7065341 L35.4209357,21.7065341 L34.9864094,20.6202183 L34.9890916,20.6202183 Z M34.1710019,18.5816998 L42.7622846,18.5816998 C42.8105653,18.9384406 42.8507992,19.3005459 42.8803041,19.6653333 L34.6055282,19.6653333 L34.1710019,18.5790175 L34.1710019,18.5816998 Z M33.3529123,16.5378168 L42.3814035,16.5378168 C42.4672358,16.8972398 42.5423392,17.259345 42.6093957,17.6241326 L33.7847563,17.6241326 L33.35023,16.5378168 L33.3529123,16.5378168 Z M0.0419103523,21.5 C0.0304336626,10.7949626 7.91071942,1.71897511 18.5114301,0.228039071 C29.1121407,-1.26289697 39.190176,5.28734404 42.1319532,15.5802495 L32.9693489,15.5802495 L27.6236023,2.24941129 L21.6260663,17.1627836 L15.5078285,2.38352439 L4.16991035,30.3326861 L8.79681094,36.8478987 L34.4016764,36.8478987 L38.8300896,30.2012554 L38.2641326,28.7877037 L41.6893801,28.7877037 C38.1558205,38.6020532 28.0762967,44.4536071 17.8013364,42.655638 C7.5263762,40.8576688 0.0328132538,31.9310794 0.0419103523,21.5 Z" id="path"></path>
        </g>
    </g>
</svg>