<?xml version="1.0" encoding="UTF-8"?>
<svg width="48px" height="48px" viewBox="0 0 48 48" version="1.1" xmlns="http://www.w3.org/2000/svg" xmlns:xlink="http://www.w3.org/1999/xlink">
    <!-- Generator: Sketch 50.2 (55047) - http://www.bohemiancoding.com/sketch -->
    <title>HXB</title>
    <desc>Created with Sketch.</desc>
    <defs></defs>
    <g id="HXB" stroke="none" stroke-width="1" fill="none" fill-rule="evenodd">
        <g id="华夏银行" transform="translate(2.000000, 3.000000)" fill="#E60012" fill-rule="nonzero">
            <path d="M42.2931687,8.3270025 C42.7582966,9.25556676 41.6729983,9.87460956 41.8280409,10.0293703 C40.5877001,9.41032746 37.7969333,12.5055416 37.7969333,12.5055416 C32.3704422,8.4817632 26.1687382,7.8627204 20.1220768,13.5888665 C14.0754153,19.1602519 16.5560969,26.7435265 16.5560969,26.7435265 C22.6027583,42.5291183 36.0914646,34.6363224 36.0914646,34.6363224 C37.9519759,34.1720403 42.1381261,29.3744584 42.1381261,29.3744584 C42.9133391,28.7554156 42.7582965,30.148262 42.7582965,30.148262 C43.9986373,27.9816121 43.9986373,29.3744584 43.9986373,29.3744584 C43.8435947,30.6125441 41.6729983,33.0887153 41.6729983,33.0887153 C42.4482113,33.2434761 43.8435947,31.8506297 43.8435947,31.8506297 C40.5877001,39.7434257 32.6805275,41.4457934 32.6805275,41.4457934 C23.2229288,44.0767254 14.8506283,36.3386902 14.8506283,36.3386902 C6.9434557,29.9935013 8.33883913,18.076927 8.33883913,18.076927 C3.22243323,21.0173804 0.741751639,17.4578842 0.741751639,17.4578842 C-1.58388736,14.0531486 2.60226285,9.71984886 2.60226285,9.71984886 C2.60226291,16.3745592 10.3543929,9.87460956 10.3543929,9.87460956 C18.106523,1.05324936 25.2384826,0.27944586 25.2384826,0.27944586 C29.734718,-0.4943577 29.5796754,0.89848866 29.5796754,0.89848866 C29.5796754,1.20801006 30.6649736,2.29133502 30.6649736,2.29133502 C35.1612091,1.20801012 34.6960813,3.68418138 34.6960813,3.68418138 C34.5410387,7.2436776 40.5877001,6.16035264 40.5877001,6.16035264 L42.2931687,8.3270025 Z M23.6880566,17.7674056 L36.8666777,17.7674056 L36.8666777,27.8268514 L23.6880566,27.8268514 L23.6880566,17.7674056 Z" id="path"></path>
        </g>
    </g>
</svg>