<?xml version="1.0" encoding="UTF-8"?>
<svg width="48px" height="48px" viewBox="0 0 48 48" version="1.1" xmlns="http://www.w3.org/2000/svg" xmlns:xlink="http://www.w3.org/1999/xlink">
    <!-- Generator: Sketch 50.2 (55047) - http://www.bohemiancoding.com/sketch -->
    <title>ICBC</title>
    <desc>Created with Sketch.</desc>
    <defs></defs>
    <g id="ICBC" stroke="none" stroke-width="1" fill="none" fill-rule="evenodd">
        <g id="工商银行" transform="translate(2.000000, 2.000000)" fill="#B91D22" fill-rule="nonzero">
            <path d="M0.0227389953,21.9720765 C0.0227389953,9.83489821 9.86054783,0 21.9977261,0 C34.1309614,5.81653588e-15 43.966892,9.8359306 43.966892,21.9691659 C43.966892,34.1024012 34.1309614,43.9383318 21.9977261,43.9383318 C9.86515594,43.9399399 0.0275604162,34.1075564 0.0227389953,21.9749871 L0.0227389953,21.9720765 Z M21.9948155,41.1121447 C28.8896712,41.197168 35.2974766,37.5675235 38.7696821,31.6101707 C42.2418876,25.6528179 42.2418876,18.2884245 38.7696821,12.3310717 C35.2974766,6.37371885 28.8896712,2.74407442 21.9948155,2.82909767 C11.5153021,2.95832479 3.08787854,11.4903111 3.08787854,21.9706212 C3.08787854,32.4509313 11.5153021,40.9829176 21.9948155,41.1121447 Z M9.30753488,10.8594274 L21.2584351,10.8594274 L21.2584351,14.3608723 L12.7740527,14.3608723 L12.7740527,17.6673075 L21.2584351,17.6673075 L21.2584351,27.2198781 L12.7740527,27.2198781 L12.7740527,31.2656041 L21.2584351,31.2656041 L21.2584351,34.3857612 L9.30753488,34.3857612 L9.30753488,23.6864165 L17.9607318,23.6864165 L17.9607318,20.7874646 L9.30753488,20.7874646 L9.30753488,10.862338 L9.30753488,10.8594274 Z M34.6791855,10.8594274 L34.6791855,20.784554 L26.0259886,20.784554 L26.0259886,23.6864165 L34.6791855,23.6864165 L34.6791855,34.3857612 L22.7311959,34.3857612 L22.7311959,31.2656041 L31.2097571,31.2656041 L31.2097571,27.2198781 L22.7311959,27.2198781 L22.7311959,17.6673075 L31.2097571,17.6673075 L31.2097571,14.3608723 L22.7311959,14.3608723 L22.7311959,10.8565168 L34.6791855,10.8565168 L34.6791855,10.8594274 Z" id="path"></path>
        </g>
    </g>
</svg>