<?xml version="1.0" encoding="UTF-8"?>
<svg width="36px" height="36px" viewBox="0 0 36 36" version="1.1" xmlns="http://www.w3.org/2000/svg" xmlns:xlink="http://www.w3.org/1999/xlink">
    <!-- Generator: sketchtool 50.2 (55047) - http://www.bohemiancoding.com/sketch -->
    <title>1187B940-E7C6-401A-B2C8-154A0D2D32F1</title>
    <desc>Created with sketchtool.</desc>
    <defs></defs>
    <g id="Screen" stroke="none" stroke-width="1" fill="none" fill-rule="evenodd">
        <g id="1.1_mb_gamlist-brand" transform="translate(-255.000000, -1148.000000)">
            <g id="Content" transform="translate(0.000000, 184.000000)">
                <g id="Game" transform="translate(255.000000, 964.000000)">
                    <g id="icon/slider">
                        <rect id="@bound" x="0" y="0" width="36" height="36"></rect>
                        <path d="M7.42572943,28.571767 L3.1564999,28.571767 C2.40771195,28.571767 1.8,28.0710817 1.8,27.4541659 C1.8,26.8372501 2.40771195,26.3365648 3.1564999,26.3365648 L7.42572943,26.3365648 L7.42572943,24.8306411 C7.42572943,24.0818531 7.92641473,23.4741412 8.54333054,23.4741412 C9.16024636,23.4741412 9.66093165,24.0818531 9.66093165,24.8306411 L9.66093165,26.3365648 L32.8435001,26.3365648 C33.5936445,26.3365648 34.2,26.8372501 34.2,27.4541659 C34.2,28.0710817 33.5936445,28.571767 32.8435001,28.571767 L9.66093165,28.571767 L9.66093165,29.3396936 C9.66093165,30.0898381 9.16024636,30.6961935 8.54333054,30.6961935 C7.92641473,30.6961935 7.42572943,30.0898381 7.42572943,29.3396936 L7.42572943,28.571767 Z M29.4785473,19.3501972 L29.4785473,20.1181237 C29.4785473,20.8682682 28.977862,21.4746236 28.3609462,21.4746236 C27.7440304,21.4746236 27.2433451,20.8682682 27.2433451,20.1181237 L27.2433451,19.3501972 L3.1564999,19.3501972 C2.40771195,19.3501972 1.8,18.8495119 1.8,18.2325961 C1.8,17.6156802 2.40771195,17.1149949 3.1564999,17.1149949 L27.2433451,17.1149949 L27.2433451,15.6090712 C27.2433451,14.8602832 27.7440304,14.2525713 28.3609462,14.2525713 C28.977862,14.2525713 29.4785473,14.8602832 29.4785473,15.6090712 L29.4785473,17.1149949 L32.8435001,17.1149949 C33.5936445,17.1149949 34.2,17.6156802 34.2,18.2325961 C34.2,18.8495119 33.5936445,19.3501972 32.8435001,19.3501972 L29.4785473,19.3501972 Z M19.1218636,10.1286273 L19.1218636,11.2655524 C19.1218636,12.0156969 18.6211783,12.6220523 18.0042625,12.6220523 C17.3873467,12.6220523 16.8866614,12.0156969 16.8866614,11.2655524 L16.8866614,10.1286273 L3.1564999,10.1286273 C2.40771195,10.1286273 1.8,9.62794198 1.8,9.01102617 C1.8,8.39411036 2.40771195,7.89342506 3.1564999,7.89342506 L16.8866614,7.89342506 L16.8866614,6.7564999 C16.8866614,6.00771195 17.3873467,5.4 18.0042625,5.4 C18.6211783,5.4 19.1218636,6.00771195 19.1218636,6.7564999 L19.1218636,7.89342506 L32.8435001,7.89342506 C33.5936445,7.89342506 34.2,8.39411036 34.2,9.01102617 C34.2,9.62794198 33.5936445,10.1286273 32.8435001,10.1286273 L19.1218636,10.1286273 Z" id="path" fill="#0050B3" fill-rule="nonzero"></path>
                    </g>
                </g>
            </g>
        </g>
    </g>
</svg>