<?xml version="1.0" encoding="UTF-8"?>
<svg width="64px" height="64px" viewBox="0 0 64 64" version="1.1" xmlns="http://www.w3.org/2000/svg" xmlns:xlink="http://www.w3.org/1999/xlink">
    <!-- Generator: sketchtool 50.2 (55047) - http://www.bohemiancoding.com/sketch -->
    <title>09D18451-9E7E-4E2E-850A-9A95C5A1806C</title>
    <desc>Created with sketchtool.</desc>
    <defs>
        <linearGradient x1="50%" y1="0%" x2="50%" y2="100%" id="linearGradient-1">
            <stop stop-color="#0088DA" offset="0%"></stop>
            <stop stop-color="#0050B3" offset="100%"></stop>
        </linearGradient>
    </defs>
    <g id="Screen" stroke="none" stroke-width="1" fill="none" fill-rule="evenodd">
        <g id="2.4_mb_member-overview" transform="translate(-93.000000, -1614.000000)">
            <g id="grid/hasline" transform="translate(0.000000, 1584.000000)">
                <g id="icon/user" transform="translate(93.000000, 30.000000)">
                    <path d="M46.7692308,22.974359 C46.7692308,13.6296296 39.9443552,6.15384615 31.4132608,6.15384615 C22.8821663,6.15384615 16.0572908,13.6296296 16.0572908,22.974359 C16.0572908,29.3287749 19.1284848,34.7487179 23.9058977,37.5521368 C17.4222659,40.3555556 12.4742311,46.5230769 11.109256,54.3726496 C10.9386341,55.3071225 11.4504998,56.42849 12.4742311,56.6153846 L12.8154749,56.6153846 C13.6685843,56.6153846 14.3510719,56.0547009 14.5216938,55.1202279 C16.0572908,46.3361823 23.0527882,39.9817664 31.2426389,39.7948718 L31.5838827,39.7948718 C39.9443552,39.7948718 46.7692308,32.3190883 46.7692308,22.974359 Z M19.4697285,22.974359 C19.4697285,15.6854701 24.7590071,9.89173789 31.4132608,9.89173789 C38.0675144,9.89173789 43.356793,15.6854701 43.356793,22.974359 C43.356793,30.0763533 38.0675144,35.8700855 31.5838827,36.0569801 L31.072017,36.0569801 C24.5883852,35.8700855 19.4697285,30.0763533 19.4697285,22.974359 Z" id="Shape" fill="url(#linearGradient-1)" fill-rule="nonzero"></path>
                    <path d="M43.4200328,39.7052431 C42.5261211,39.1352383 41.4534269,39.3252399 40.9170798,40.2752478 C40.3807328,41.2252558 40.5595151,42.3652653 41.4534269,42.9352701 C45.5654211,45.9752956 48.4259388,50.1553305 49.3198506,55.0953719 C49.498633,56.0453798 50.2137624,56.6153846 51.1076742,56.6153846 L51.4652389,56.6153846 C52.3591507,56.425383 53.0742801,55.4753751 52.8954977,54.3353655 C51.8228036,48.4453162 48.4259388,43.3152733 43.4200328,39.7052431 Z" id="Path" fill="#FAAD14"></path>
                </g>
            </g>
        </g>
    </g>
</svg>