<?xml version="1.0" encoding="UTF-8"?>
<svg width="64px" height="64px" viewBox="0 0 64 64" version="1.1" xmlns="http://www.w3.org/2000/svg" xmlns:xlink="http://www.w3.org/1999/xlink">
    <!-- Generator: sketchtool 50.2 (55047) - http://www.bohemiancoding.com/sketch -->
    <title>3D111093-E07D-4258-880A-E3E0BB3225C5</title>
    <desc>Created with sketchtool.</desc>
    <defs>
        <linearGradient x1="50%" y1="0%" x2="50%" y2="100%" id="linearGradient-1">
            <stop stop-color="#0088DA" offset="0%"></stop>
            <stop stop-color="#0050B3" offset="100%"></stop>
        </linearGradient>
    </defs>
    <g id="Screen" stroke="none" stroke-width="1" fill="none" fill-rule="evenodd">
        <g id="2.4_mb_member-overview" transform="translate(-593.000000, -1074.000000)">
            <g id="grid/hasline" transform="translate(500.000000, 1044.000000)">
                <g id="icon/gift" transform="translate(93.000000, 30.000000)">
                    <path d="M55.2770929,20.2991412 L51.0582406,20.2991412 C52.1033654,20.2991412 40.9042304,20.2991412 40.7987591,20.2991412 L35.8703727,20.2991412 C35.7936663,20.2991412 35.7265482,20.0758536 35.6210769,19.9735135 C33.7801232,18.3081606 29.4174464,14.4006285 28.5544994,13.833106 C21.9769253,9.47899879 16.0225907,8.7998325 12.1968588,11.9723764 C12.1009758,12.0561092 12.0146811,12.1491457 11.9379747,12.2421822 C10.8065552,13.6842476 10.4805531,15.2937787 11.0079096,16.9405243 C11.4297948,18.2802496 12.3694483,20.2991412 13.4049847,20.2991412 L8.86013027,20.2991412 C7.87253534,20.2991412 7,21.1178622 7,22.0761379 L7,30.737834 C7,31.6961097 7,32.4683126 8.78342391,32.4683126 L8.78342391,49.4102552 C8.78342391,52.4339407 11.1613224,54.9459257 13.9898711,54.9459257 L49.9939394,54.9459257 C52.8512529,54.9459257 55.2003865,52.3781188 55.2003865,49.4102552 L55.2003865,32.4683126 C56.9838104,32.4683126 56.9838104,31.6961098 56.9838104,30.737834 L56.9838104,22.0761379 C56.9933987,21.1178622 56.2646878,20.2991412 55.2770929,20.2991412 Z M23.3576406,20.2340157 C21.9481604,20.1316756 20.8550941,20.0014245 17.4320709,18.7547357 C16.6266537,18.4942336 14.8432298,17.266152 14.4117562,15.9357304 C14.2487551,15.4240298 14.3254615,14.9681511 14.6610521,14.4843614 C18.2374881,11.7583926 24.1247046,15.0984021 26.6368394,16.7637551 C26.9916065,17.0056499 28.7366771,18.5593591 30.7310436,20.2898376 L23.6836428,20.2898376 C23.5781715,20.2991412 23.4727002,20.2433194 23.3576406,20.2340157 Z M53.4169626,23.7600982 L53.4169626,28.9608373 L10.7873787,28.9608373 C10.7394371,28.9608373 10.5668477,29.0259629 10.5668477,29.0259629 L10.5668477,23.7600982 L53.4169626,23.7600982 Z M49.9939393,51.4849687 L13.989871,51.4849687 C13.0693941,51.4849687 12.3502716,50.368531 12.3502716,49.4102552 L12.3502716,32.4217943 L51.6335387,32.4217943 L51.6335387,49.4102552 C51.6335387,50.4429601 50.8760629,51.4849687 49.9939393,51.4849687 Z" id="path" fill="url(#linearGradient-1)" fill-rule="nonzero"></path>
                    <path d="M37.7087148,16.9225612 C36.7133924,17.4408637 35.4777821,17.0703001 34.948902,16.0948841 C34.4200219,15.1194682 34.798148,13.9085701 35.7934704,13.3902676 C42.2563805,10.0247826 46.6078856,8.51024623 49.3116715,8.91485724 C53.0660512,9.47668551 53.8451155,12.8637803 52.4184954,17.7568035 C52.1088374,18.8188688 50.979265,19.4338361 49.8955248,19.1303712 C48.8117846,18.8269064 48.1842671,17.7199254 48.4939251,16.6578601 C48.9762969,15.0034205 49.1060992,13.8079859 48.9540042,13.1467305 C48.8945705,12.8883341 48.9079046,12.900801 48.6955476,12.8690226 C47.1910402,12.643879 43.3742006,13.9723256 37.7087148,16.9225612 Z" id="Path" fill="#FAAD14"></path>
                </g>
            </g>
        </g>
    </g>
</svg>