<?xml version="1.0" encoding="UTF-8"?>
<svg width="64px" height="64px" viewBox="0 0 64 64" version="1.1" xmlns="http://www.w3.org/2000/svg" xmlns:xlink="http://www.w3.org/1999/xlink">
    <!-- Generator: sketchtool 50.2 (55047) - http://www.bohemiancoding.com/sketch -->
    <title>F4D30DFB-FD62-4273-AAB2-3693103D85BD</title>
    <desc>Created with sketchtool.</desc>
    <defs>
        <linearGradient x1="50%" y1="0%" x2="50%" y2="100%" id="linearGradient-1">
            <stop stop-color="#0088DA" offset="0%"></stop>
            <stop stop-color="#0050B3" offset="100%"></stop>
        </linearGradient>
    </defs>
    <g id="Screen" stroke="none" stroke-width="1" fill="none" fill-rule="evenodd">
        <g id="2.4_mb_member-overview" transform="translate(-343.000000, -1074.000000)">
            <g id="grid/hasline" transform="translate(250.000000, 1044.000000)">
                <g id="icon/coins" transform="translate(93.000000, 30.000000)">
                    <path d="M9,46.8541667 L9,48.4354167 C9,49.6333333 10.00625,50.7354167 12.0666667,51.7416667 C14.1270833,52.7479167 16.90625,53.5625 20.4520833,54.1375 C23.9979167,54.7125 27.83125,55 32,55 C36.16875,55 40.0020833,54.7125 43.5479167,54.1375 C47.09375,53.5625 49.8729167,52.7479167 51.9333333,51.7416667 C53.99375,50.7354167 55,49.6333333 55,48.4354167 L55,46.4708333 C52.6041667,47.9083333 49.39375,49.0104167 45.2729167,49.7291667 C41.1520833,50.4479167 36.74375,50.83125 32,50.83125 C27.25625,50.83125 22.8479167,50.4479167 18.7270833,49.7291667 C14.60625,48.9625 11.3958333,47.9083333 9,46.4708333 L9,46.8541667 Z M9,38.75 L9,38.5583333 C11.3958333,39.9958333 14.60625,41.05 18.7270833,41.8166667 C22.8479167,42.5354167 27.25625,42.91875 32,42.91875 C36.74375,42.91875 41.1520833,42.5354167 45.2729167,41.8166667 C49.39375,41.0979167 52.6041667,39.9958333 55,38.5583333 L55,40.5229167 C55,41.7208333 53.99375,42.8229167 51.9333333,43.8291667 C49.8729167,44.8354167 47.09375,45.65 43.5479167,46.225 C40.0020833,46.8 36.16875,47.0875 32,47.0875 C27.83125,47.0875 23.9979167,46.8 20.4520833,46.225 C16.90625,45.65 14.1270833,44.8354167 12.0666667,43.8291667 C10.00625,42.8229167 9,41.7208333 9,40.5229167 L9,38.75 Z M51.9333333,15.2583333 C53.99375,16.2645833 55,17.3666667 55,18.5645833 L55,24.7458333 C55,25.94375 53.99375,27.0458333 51.9333333,28.0520833 C49.8729167,29.0583333 47.09375,29.8729167 43.5479167,30.4479167 C40.0020833,31.0229167 36.16875,31.3104167 32,31.3104167 C27.83125,31.3104167 23.9979167,31.0229167 20.4520833,30.4479167 C16.90625,29.8729167 14.1270833,29.0583333 12.0666667,28.0520833 C10.00625,27.0458333 9,25.94375 9,24.7458333 L9,18.5645833 C9,17.3666667 10.00625,16.2645833 12.0666667,15.2583333 C14.1270833,14.2520833 16.90625,13.4375 20.4520833,12.8625 C23.9979167,12.2875 27.83125,12 32,12 C36.16875,12 40.0020833,12.2875 43.5479167,12.8625 C47.09375,13.4375 49.8729167,14.2520833 51.9333333,15.2583333 Z M51.1666667,24.0270833 L51.1666667,19.2354167 C50.975,19.1395833 50.6875,18.9479167 50.2083333,18.7083333 C48.4833333,17.89375 46.0395833,17.175 42.8770833,16.6479167 C39.5708333,16.1208333 35.9291667,15.8333333 32,15.8333333 C28.11875,15.8333333 24.4291667,16.0729167 21.1229167,16.6479167 C17.9604167,17.175 15.5166667,17.8458333 13.7916667,18.7083333 C13.3125,18.9 13.025,19.0916667 12.8333333,19.2354167 L12.8333333,24.0270833 C13.025,24.1229167 13.3125,24.3145833 13.7916667,24.5541667 C15.46875,25.4166667 17.9604167,26.0875 21.1229167,26.6145833 C24.4291667,27.1416667 28.0708333,27.4291667 32,27.4291667 C35.88125,27.4291667 39.5708333,27.1895833 42.8770833,26.6145833 C46.0395833,26.0875 48.4833333,25.4166667 50.2083333,24.5541667 C50.6875,24.3625 50.975,24.1708333 51.1666667,24.0270833 Z" id="Shape" fill="url(#linearGradient-1)" fill-rule="nonzero"></path>
                    <path d="M9,30.6458333 L9,32.41875 C9,33.6166667 10.00625,34.71875 12.0666667,35.725 C14.1270833,36.73125 16.90625,37.5458333 20.4520833,38.1208333 C23.9979167,38.6958333 27.83125,38.9833333 32,38.9833333 C36.16875,38.9833333 40.0020833,38.6958333 43.5479167,38.1208333 C47.09375,37.5458333 49.8729167,36.73125 51.9333333,35.725 C53.99375,34.71875 55,33.6166667 55,32.41875 L55,30.4541667 C52.6041667,31.8916667 49.39375,32.99375 45.2729167,33.7125 C41.1520833,34.43125 36.74375,34.8145833 32,34.8145833 C27.25625,34.8145833 22.8479167,34.43125 18.7270833,33.7125 C14.60625,32.9458333 11.3958333,31.8916667 9,30.4541667 L9,30.6458333 Z" id="Path" fill="#FAAD14"></path>
                </g>
            </g>
        </g>
    </g>
</svg>