<svg xmlns="http://www.w3.org/2000/svg" xmlns:xlink="http://www.w3.org/1999/xlink" width="40" height="40" viewBox="0 0 40 40">
    <defs>
        <path id="a" d="M11.208 22.343a2.932 2.932 0 0 1 2.932 2.932v8.793A2.932 2.932 0 0 1 11.208 37H4.174A1.174 1.174 0 0 1 3 35.826V20c0-9.389 7.611-17 17-17s17 7.611 17 17v15.826c0 .648-.526 1.174-1.174 1.174h-7.034a2.932 2.932 0 0 1-2.932-2.932v-8.793a2.932 2.932 0 0 1 2.932-2.932h5.86V20c0-8.092-6.56-14.652-14.652-14.652-8.092 0-14.652 6.56-14.652 14.652v2.343h5.86zm23.442 2.053h-5.858a.88.88 0 0 0-.879.88v8.792c0 .485.394.879.88.879h5.857V24.396zm-29.3 0v10.55h5.858a.88.88 0 0 0 .879-.878v-8.793a.88.88 0 0 0-.88-.879H5.35z"/>
    </defs>
    <g fill="none" fill-rule="evenodd">
        <path d="M0 0h40v40H0z"/>
        <mask id="b" fill="#fff">
            <use xlink:href="#a"/>
        </mask>
        <use fill="#FFF" fill-rule="nonzero" xlink:href="#a"/>
        <g fill="#FFF" mask="url(#b)">
            <path d="M-2.5-2.857h45v46h-45z"/>
        </g>
    </g>
</svg>
