<?xml version="1.0" encoding="UTF-8"?>
<svg width="48px" height="48px" viewBox="0 0 48 48" version="1.1" xmlns="http://www.w3.org/2000/svg" xmlns:xlink="http://www.w3.org/1999/xlink">
    <!-- Generator: sketchtool 50.2 (55047) - http://www.bohemiancoding.com/sketch -->
    <title>4E8969F8-AA0A-4396-8430-E5B3FD970908</title>
    <desc>Created with sketchtool.</desc>
    <defs>
        <rect id="path-1" x="-7.10542736e-15" y="0" width="48" height="48"></rect>
    </defs>
    <g id="Screen" stroke="none" stroke-width="1" fill="none" fill-rule="evenodd">
        <g id="2.5_mb_member-deposit" transform="translate(-64.000000, -442.000000)">
            <g id="Content" transform="translate(0.000000, 184.000000)">
                <g id="input" transform="translate(40.000000, 234.000000)">
                    <g id="icon/fast" transform="translate(24.000000, 24.000000)">
                        <mask id="mask-2" fill="white">
                            <use xlink:href="#path-1"></use>
                        </mask>
                        <g id="@bound"></g>
                        <path d="M24.0221038,0 C31.7643214,0 42.8325422,3.92305476 46,3.92305476 L46,30.4886337 C45.6127789,33.7445571 42.8600802,43.4771471 24.0221038,48 C5.17979477,43.4771471 2.39500508,33.7445571 2,30.4886337 L2,3.92305476 C5.21195921,3.92305476 16.2776098,0 24.0221038,0 Z M18.1429973,14.7995867 C16.7069823,12.7880281 15.5776304,11.291128 14.7546481,10.3090306 L13.205764,11.330706 C14.0446817,12.4236075 15.1176357,13.9759456 16.4246994,15.9875763 L18.1429973,14.7995867 Z M21.9670345,30.8371942 C19.5789389,30.8212621 17.8928788,30.0294132 16.9086339,28.4612871 L16.9086339,18.2921853 L12.1651212,18.2921853 L12.1651212,20.0504157 L15.0451557,20.0504157 L15.0451557,28.0573605 C14.3997383,28.6435334 13.3670265,29.6096987 11.9472406,30.9560725 L12.9396367,32.9280531 C14.2140955,31.4075071 15.1822582,30.3461816 15.8439047,29.7443649 C16.9409453,31.5658192 18.8610416,32.4924064 21.604047,32.5242707 C25.4440194,32.6192868 30.034274,32.6508627 35.3750309,32.6192868 C35.649236,31.8905176 35.8751945,31.2649109 36.0527595,30.7422502 C30.6798381,30.8687701 25.984572,30.9005623 21.9670345,30.8371942 Z M19.1596269,14.1105397 L26.3718665,14.1105397 L26.3718665,16.4152209 L20.2969831,16.4152209 L20.2969831,23.234176 L22.0395879,23.234176 L22.0395879,22.497621 L25.7666913,22.497621 C23.7658902,24.572764 21.2972368,26.3229201 18.3608045,27.7485221 C18.9577549,28.3661988 19.3933694,28.8811457 19.6677214,29.2928581 C22.1846948,27.8197482 24.4193119,26.0220118 26.371793,23.8994329 L26.371793,30.0294132 L28.1627912,30.0294132 L28.1627912,24.8736002 C30.1795277,25.9665017 32.3174313,27.2654395 34.5764287,28.7700534 L35.6896984,27.0832653 C33.4791679,25.8161917 31.1799282,24.5408997 28.7919795,23.2579661 L28.1627912,24.2083434 L28.1627912,22.497621 L32.4949963,22.497621 L32.4949963,23.2341761 L34.2375277,23.2341761 L34.2375277,16.4152209 L28.1628647,16.4152209 L28.1628647,14.1105397 L35.7623253,14.1105397 L35.7623253,12.4711155 L28.1628647,12.4711155 L28.1628647,9.88131399 L26.3718665,9.88131399 L26.3718665,12.4711155 L19.1596269,12.4711155 L19.1596269,14.1105397 Z M26.3718665,20.953285 L22.0396614,20.953285 L22.0396614,17.9595569 L26.3718665,17.9595569 L26.3718665,20.953285 Z M28.1628647,17.9595569 L32.4950698,17.9595569 L32.4950698,20.953285 L28.1628647,20.953285 L28.1628647,17.9595569 Z" id="path" fill="#1890FF" fill-rule="nonzero"></path>
                    </g>
                </g>
            </g>
        </g>
    </g>
</svg>