<?xml version="1.0" encoding="UTF-8"?>
<svg width="52px" height="52px" viewBox="0 0 52 52" version="1.1" xmlns="http://www.w3.org/2000/svg" xmlns:xlink="http://www.w3.org/1999/xlink">
    <!-- Generator: sketchtool 50.2 (55047) - http://www.bohemiancoding.com/sketch -->
    <title>CFE1BBC1-7014-42FC-B4A5-9EF71B8D5E62</title>
    <desc>Created with sketchtool.</desc>
    <defs></defs>
    <g id="Screen" stroke="none" stroke-width="1" fill="none" fill-rule="evenodd">
        <g id="0_mb_index--fix" transform="translate(-500.000000, -1249.000000)">
            <g id="Tabbar" transform="translate(0.000000, 1236.000000)">
                <g id="bar-2" transform="translate(450.000000, 0.000000)">
                    <g id="icon-bank" transform="translate(50.000000, 13.000000)">
                        <rect id="@bound" x="0" y="0" width="52" height="52"></rect>
                        <path d="M45.5167095,23.4178771 L27.1630963,5.46927374 C26.8431877,5.15642458 26.4227364,5 25.9977149,5 C25.5772636,5 25.1568123,5.15642458 24.8323336,5.46927374 L6.48329049,23.4178771 C5.83890317,24.0480447 5.83890317,25.0670391 6.48329049,25.6927374 C7.12767781,26.322905 8.16966581,26.322905 8.809483,25.6927374 L26.0022851,8.87932961 L43.190517,25.6927374 C43.8349043,26.322905 44.8768923,26.322905 45.5167095,25.6927374 C46.1610968,25.0625698 46.1610968,24.0480447 45.5167095,23.4178771 Z M40.4164524,29.0893855 C39.506998,29.0893855 38.7712082,29.8089385 38.7712082,30.698324 L38.7712082,41.7821229 L13.1785204,41.7821229 L13.1785204,30.698324 C13.1785204,29.8089385 12.4427306,29.0893855 11.5332762,29.0893855 C10.6238218,29.0893855 9.88803199,29.8089385 9.88803199,30.698324 L9.88803199,41.7821229 C9.88803199,43.5608939 11.3596115,45 13.1785204,45 L38.7712082,45 C40.5901171,45 42.0616967,43.5608939 42.0616967,41.7821229 L42.0616967,30.698324 C42.0616967,29.8089385 41.3259069,29.0893855 40.4164524,29.0893855 Z M17.2002285,26.1396648 L17.2002285,26.3184358 C17.2002285,27.1586592 17.8948872,27.8379888 18.7540703,27.8379888 L24.3296201,27.8379888 L24.3296201,30.698324 L20.2165096,30.698324 C19.3573265,30.698324 18.6626678,31.3776536 18.6626678,32.2178771 L18.6626678,32.396648 C18.6626678,33.2368715 19.3573265,33.9162011 20.2165096,33.9162011 L24.3296201,33.9162011 L24.3296201,37.6703911 C24.3296201,38.5597765 25.0654099,39.2793296 25.9748643,39.2793296 C26.8843188,39.2793296 27.6201085,38.5597765 27.6201085,37.6703911 L27.6201085,33.9162011 L31.7332191,33.9162011 C32.5924022,33.9162011 33.2870608,33.2368715 33.2870608,32.396648 L33.2870608,32.2178771 C33.2870608,31.3776536 32.5924022,30.698324 31.7332191,30.698324 L27.6201085,30.698324 L27.6201085,27.8379888 L33.1956584,27.8379888 C34.0548415,27.8379888 34.7495001,27.1586592 34.7495001,26.3184358 L34.7495001,26.1396648 C34.7495001,25.2994413 34.0548415,24.6201117 33.1956584,24.6201117 L27.0305627,24.6201117 C27.0625536,24.5932961 27.0945444,24.5664804 27.1265353,24.5351955 L31.0065696,20.7407821 C31.6509569,20.1106145 31.6509569,19.0916201 31.0065696,18.4659218 C30.3621822,17.8357542 29.3201942,17.8357542 28.680377,18.4659218 L25.9657241,21.1206704 L23.2510711,18.4659218 C22.6066838,17.8357542 21.5646958,17.8357542 20.9248786,18.4659218 C20.2804913,19.0960894 20.2804913,20.1150838 20.9248786,20.7407821 L24.8049129,24.5351955 C24.8369037,24.5664804 24.8688946,24.5932961 24.9008855,24.6201117 L18.7540703,24.6201117 C17.8948872,24.6201117 17.2002285,25.2994413 17.2002285,26.1396648 Z" id="path" fill="#262626" fill-rule="nonzero"></path>
                    </g>
                </g>
            </g>
        </g>
    </g>
</svg>