<?xml version="1.0" encoding="UTF-8"?>
<svg width="52px" height="52px" viewBox="0 0 52 52" version="1.1" xmlns="http://www.w3.org/2000/svg" xmlns:xlink="http://www.w3.org/1999/xlink">
    <!-- Generator: sketchtool 50.2 (55047) - http://www.bohemiancoding.com/sketch -->
    <title>DFCC90AA-7FE1-4FC9-A74A-013C96D5047B</title>
    <desc>Created with sketchtool.</desc>
    <defs></defs>
    <g id="Screen" stroke="none" stroke-width="1" fill="none" fill-rule="evenodd">
        <g id="0_mb_index--fix" transform="translate(-50.000000, -1248.000000)">
            <g id="Tabbar" transform="translate(0.000000, 1236.000000)">
                <g id="bar-1">
                    <g id="icon-users" transform="translate(50.000000, 12.000000)">
                        <rect id="@bound" x="0" y="0" width="52" height="52"></rect>
                        <path d="M48,40.9797107 C48,34.5780575 44.161,29.1074582 38.72425,26.879767 C41.356,25.067631 43.08575,21.9746384 43.08575,18.4660906 C43.08575,13.674056 39.85725,9.66578997 35.51775,8.62427203 C35.4800658,8.6147088 35.440041,8.6184434 35.405,8.63479241 C35.3555,8.62953222 35.30875,8.61901184 35.25925,8.61901184 C34.32975,8.61901184 33.579,9.3948901 33.579,10.3469848 C33.579,11.2096562 34.19775,11.9224122 34.998,12.0486568 C35.14375,12.1065189 35.33075,12.1564907 35.33625,12.1564907 C37.84975,13.0349427 39.65375,15.4888221 39.65375,18.3766673 C39.65375,21.5985347 37.40975,24.270712 34.43975,24.8335525 L34.42875,24.8440729 C33.43875,24.9045651 32.655,25.7435657 32.655,26.7771933 C32.655,27.8266015 33.46075,28.6761225 34.47,28.718204 C34.4755,28.7208341 34.481,28.7313545 34.492,28.7339846 C40.454,29.3573173 44.68075,34.6017283 44.68075,40.9770806 C44.68075,41.921285 45.426,42.6866429 46.3445,42.6866429 C47.2355,42.6866429 47.9615,41.9581063 47.9945,41.042833 L48,41.0191621 L48,41.0060116 L48,40.9797107 Z M28.13125,27.1611873 C31.2745,24.9913583 33.3425,21.2987037 33.3425,17.1037009 C33.3425,10.4179974 28.09,5 21.6055,5 C15.12375,5 9.874,10.4179974 9.874,17.1037009 C9.874,21.2987037 11.942,24.9913583 15.088,27.1611873 C8.58975,29.8359947 4,36.3823032 4,44.035882 C4,44.4672177 4.02475,44.8932933 4.055,45.3114785 L4.0605,45.3114785 C4.0605,46.2425324 4.792,47 5.69675,47 C6.596,47 7.333,46.2451625 7.333,45.3114785 C7.333,45.2562465 7.322,45.2115348 7.3165,45.1563028 C7.28052775,44.7811526 7.26126033,44.4047085 7.25875,44.0279917 C7.25875,35.853654 13.68825,29.2231824 21.6165,29.2231824 C29.54475,29.2231824 35.97425,35.853654 35.97425,44.0279917 C35.97425,44.4225061 35.94675,44.8143904 35.9165,45.1931242 L35.911,45.2536164 L35.911,45.3062183 L35.9165,45.3062183 C35.944,46.2109713 36.659,46.9395078 37.5445,46.9395078 C38.43,46.9395078 39.1505,46.2162314 39.178,45.3062183 C39.211,44.885403 39.23575,44.4593274 39.23575,44.0279917 C39.22475,36.3823032 34.63225,29.8359947 28.13125,27.1611873 Z M21.611,25.7961676 C16.95525,25.7961676 13.18225,21.9062559 13.18225,17.1010708 C13.18225,12.2958858 16.958,8.40334398 21.611,8.40334398 C26.26675,8.40334398 30.03975,12.2958858 30.03975,17.1010708 C30.04525,21.9062559 26.26675,25.7961676 21.611,25.7961676 Z" id="path" fill="#000000" fill-rule="nonzero"></path>
                    </g>
                </g>
            </g>
        </g>
    </g>
</svg>