<?xml version="1.0" encoding="UTF-8"?>
<svg width="64px" height="64px" viewBox="0 0 64 64" version="1.1" xmlns="http://www.w3.org/2000/svg" xmlns:xlink="http://www.w3.org/1999/xlink">
    <!-- Generator: sketchtool 50.2 (55047) - http://www.bohemiancoding.com/sketch -->
    <title>51533910-EC1A-47CB-9B84-F19AE033E2B5</title>
    <desc>Created with sketchtool.</desc>
    <defs>
        <linearGradient x1="50%" y1="0%" x2="50%" y2="100%" id="linearGradient-1">
            <stop stop-color="#0088DA" offset="0%"></stop>
            <stop stop-color="#0050B3" offset="100%"></stop>
        </linearGradient>
    </defs>
    <g id="Screen" stroke="none" stroke-width="1" fill="none" fill-rule="evenodd">
        <g id="2.4_mb_member-overview" transform="translate(-343.000000, -1614.000000)">
            <g id="grid/hasline" transform="translate(250.000000, 1584.000000)">
                <g id="icon/unlick" transform="translate(93.000000, 30.000000)">
                    <path d="M16.3608538,32.2376847 C15.281196,32.2376847 14.4059605,33.0920685 14.4059605,34.1460043 L14.4059605,52.275041 C14.4059605,53.3289769 15.281196,54.1833607 16.3608538,54.1833607 L47.6391462,54.1833607 C48.718804,54.1833607 49.5940395,53.3289769 49.5940395,52.275041 L49.5940395,34.1460043 C49.5940395,33.0920685 48.718804,32.2376847 47.6391462,32.2376847 L16.3608538,32.2376847 Z M17.1243183,28.4210453 C15.5888889,21.202508 19.486609,13.7365577 26.5973365,11.0070052 C34.4719887,7.98420942 43.3051259,11.9148373 46.3267005,19.7863083 C46.7043974,20.7702422 46.2126228,21.8741857 45.2282912,22.2520352 C44.2439597,22.6298846 43.1398175,22.1385561 42.7621207,21.1546223 C40.4959398,15.251019 33.8710869,12.3030481 27.9650977,14.570145 C22.3719529,16.7171521 19.4293491,22.7714069 21.0580957,28.4210453 L47.6391462,28.4210453 C50.8781194,28.4210453 53.503826,30.9841968 53.503826,34.1460043 L53.503826,52.275041 C53.503826,55.4368486 50.8781194,58 47.6391462,58 L16.3608538,58 C13.1218806,58 10.496174,55.4368486 10.496174,52.275041 L10.496174,34.1460043 C10.496174,30.9841968 13.1218806,28.4210453 16.3608538,28.4210453 L17.1243183,28.4210453 Z" id="path" fill="url(#linearGradient-1)" fill-rule="nonzero"></path>
                    <path d="M30.4625017,49.4243741 C30.4625017,50.3517111 31.1976148,51.1041451 32.0996277,51.1041451 C33.0016406,51.1041451 33.7354318,50.3518638 33.7354318,49.4243741 L33.7354318,45.1116439 C35.0224061,44.481189 35.9171241,43.1450665 35.9171241,41.5847303 C35.9171241,39.4188236 34.2081759,37.6641451 32.0996277,37.6641451 C29.9897577,37.6641451 28.2807605,39.4184165 28.2807605,41.5847303 C28.2807605,43.1436926 29.1755765,44.4799677 30.4624528,45.1116439 L30.4625017,49.4243741 Z" id="path" fill="#FAAD14"></path>
                </g>
            </g>
        </g>
    </g>
</svg>