<?xml version="1.0" encoding="UTF-8"?>
<svg width="64px" height="64px" viewBox="0 0 64 64" version="1.1" xmlns="http://www.w3.org/2000/svg" xmlns:xlink="http://www.w3.org/1999/xlink">
    <!-- Generator: sketchtool 50.2 (55047) - http://www.bohemiancoding.com/sketch -->
    <title>6D05CA8F-842D-417A-AB68-F3B394B44231</title>
    <desc>Created with sketchtool.</desc>
    <defs>
        <linearGradient x1="50%" y1="0%" x2="50%" y2="100%" id="linearGradient-1">
            <stop stop-color="#0088DA" offset="0%"></stop>
            <stop stop-color="#0050B3" offset="100%"></stop>
        </linearGradient>
    </defs>
    <g id="Screen" stroke="none" stroke-width="1" fill="none" fill-rule="evenodd">
        <g id="2.4_mb_member-overview" transform="translate(-93.000000, -1074.000000)">
            <g id="grid/hasline" transform="translate(0.000000, 1044.000000)">
                <g id="icon/ticket" transform="translate(93.000000, 30.000000)">
                    <path d="M27.2265258,58.994931 C25.8596177,58.994931 24.5755525,58.4646504 23.622859,57.4958685 L19.5221346,53.335205 C18.7869037,52.5805749 18.7972591,51.3874435 19.5635561,50.6532087 C20.4230513,49.8271947 20.8993981,48.7258426 20.9201088,47.5429088 C20.9304641,46.3599751 20.4748281,45.2484253 19.6360436,44.4020158 C17.9584745,42.7091969 14.9968402,42.6786038 13.2882051,44.3204342 C12.9257673,44.6773539 12.3665777,44.8609126 11.921297,44.8609126 C11.4138841,44.8507149 10.9168266,44.6467608 10.5647442,44.2796434 L6.47437524,40.1291777 C5.54239243,39.1909889 5.02462424,37.9366712 5.04533496,36.6109696 C5.05569031,35.285268 5.60452464,34.0411481 6.56757353,33.1131569 L33.2429926,7.37415062 C35.1794458,5.5181684 38.4931625,5.5589592 40.3674834,7.45573227 L44.4682078,11.6163957 C45.2034387,12.3710258 45.1930833,13.5641573 44.4267864,14.298392 C43.5672911,15.1244061 43.0909444,16.2359559 43.0702336,17.4086919 C43.0495229,18.5814279 43.5155143,19.7031754 44.3439435,20.5495849 C46.0215126,22.2424038 48.9831468,22.272997 50.7021373,20.6209688 C51.0645751,20.2640492 51.5823433,20.1212813 52.0690455,20.0804905 C52.5764583,20.0906882 53.0735158,20.2946423 53.4255982,20.6617596 L57.5159672,24.8224231 C58.44795,25.7504142 58.9657182,27.0047319 58.9450075,28.3304334 C58.9346521,29.656135 58.3961731,30.900255 57.4331243,31.8282461 L30.7473498,57.5774501 C29.7946563,58.4952435 28.5416571,58.994931 27.2265258,58.994931 Z M23.4675285,51.8973287 L26.3773859,54.854663 C26.8123113,55.2931643 27.5993189,55.303362 28.054955,54.8648607 L54.7510847,29.105459 C54.9789027,28.8811095 55.1031671,28.5955738 55.1135225,28.279445 C55.1135225,27.9735138 54.9996135,27.6777804 54.7717954,27.4636286 L51.861938,24.5062943 C50.5778728,25.2711221 49.1074111,25.6688326 47.5748171,25.6688326 C45.3069923,25.6688326 43.1841425,24.79183 41.5997717,23.1907904 C40.046467,21.6203439 39.1973272,19.5502099 39.2283933,17.3577034 C39.249104,15.8076523 39.6943847,14.3289852 40.5228139,13.0542721 L37.6129564,10.0969378 C37.1780311,9.65843645 36.3910234,9.64823876 35.9353874,10.0867401 L9.23925766,35.8461417 C9.01143967,36.0704912 8.88717525,36.356027 8.87681989,36.6721558 C8.87681989,36.9882846 8.99072889,37.2738204 9.21854694,37.4981699 L12.1284044,40.4555042 C13.4124696,39.6906764 14.8829313,39.2929658 16.4155253,39.2929658 C18.6833501,39.2929658 20.8061999,40.1699685 22.3905706,41.771008 C23.9438753,43.3414545 24.7930152,45.4115885 24.7619491,47.604095 C24.7412384,49.1439484 24.2959577,50.6226156 23.4675285,51.8973287 Z" id="path" fill="url(#linearGradient-1)" fill-rule="nonzero"></path>
                    <path d="M22.6494548,36.8353191 C22.1523973,36.8353191 21.6656951,36.6517604 21.2825466,36.2744453 C20.526605,35.5300129 20.526605,34.3368815 21.2825466,33.592449 L32.0417704,22.997034 C32.797712,22.2526016 34.0092896,22.2526016 34.7652312,22.997034 C35.5211728,23.7414664 35.5211728,24.9345979 34.7652312,25.6790303 L24.0163628,36.284643 C23.6332144,36.6517604 23.1465122,36.8353191 22.6494548,36.8353191 Z" id="path" fill="#FAAD14"></path>
                    <path d="M28.4070374,42.5052428 C27.9099799,42.5052428 27.4232777,42.3216841 27.0401293,41.944369 C26.2841877,41.1999366 26.2841877,40.0068052 27.0401293,39.2623727 L37.799353,28.6771554 C38.5552946,27.932723 39.7668723,27.932723 40.5228139,28.6771554 C41.2787555,29.4215878 41.2787555,30.6147193 40.5228139,31.3591517 L29.7635902,41.9545667 C29.3907971,42.3216841 28.8937395,42.5052428 28.4070374,42.5052428 Z" id="path" fill="#FAAD14"></path>
                </g>
            </g>
        </g>
    </g>
</svg>