<svg xmlns="http://www.w3.org/2000/svg" width="52" height="52" viewBox="0 0 52 52">
    <g fill="none" fill-rule="evenodd">
        <path d="M0 0h52v52H0z"/>
        <path fill="#000" fill-rule="nonzero" d="M26 5.76C14.822 5.76 5.76 14.822 5.76 26c0 11.178 9.062 20.24 20.24 20.24 11.178 0 20.24-9.062 20.24-20.24 0-11.178-9.062-20.24-20.24-20.24zM26 3c12.703 0 23 10.297 23 23S38.703 49 26 49 3 38.703 3 26 13.297 3 26 3zm-4.099 35.899c.296.135.452.24.475.418.018.14-.09.186-.179.186H11.485c-.19 0-.235-.156-.187-.253.054-.108.165-.2.313-.28.571-.31 2.686-.79 3.565-.904l-.006-14.965c.072-.02-3.003-.488-3.584-.573-.069-.01-.085-.05-.085-.05s-.031-.02-.045-.099c-.024-.148-.063-.384-.09-.539-.015-.09.015-.126.015-.126s.012-.037.108-.054c.827-.154 4.888-1.073 6.534-1.378.394-.073.566-.032.7 0 .133.033.42.183.42.38v17.404c.941.135 1.997.485 2.758.833zm13.079-2.961c.662-1.136.749-2.626.433-3.895-.333-1.343-1.222-2.326-2.23-3.164-.925-.769-1.941-1.423-2.979-2.011-.252-.144-.51-.275-.768-.404l-.506-.256s-.131.077-.287.2c-.873.697-1.62 1.527-2.155 2.544-.553 1.052-.697 2.345-.704 3.53-.007 1.182.188 2.467.753 3.503.508.93 1.42 1.598 2.384 1.904 2.082.659 4.855.11 6.059-1.951zm-8.496-18.449c.508 1.103 1.368 1.928 2.282 2.654.787.625 1.611 1.276 2.508 1.716.224.11.447.223.67.334.09.047.327.164.327.164s.24-.126.344-.204c.423-.32.869-.639 1.234-1.032.384-.411.695-.899.964-1.399 1.065-1.978.947-4.733-.618-6.386-.696-.735-1.592-1.154-2.665-1.358-.892-.169-1.874-.09-2.845.252-.92.324-1.795 1.106-2.22 2.03-.45.978-.428 2.255.02 3.229zm13.4 12.875c.267 1.461.02 3.161-.686 4.468-.716 1.328-1.819 2.368-3.035 3.174-2.161 1.435-4.767 1.652-7.258 1.455-2.68-.211-5.383-1.38-6.858-3.86-.675-1.14-.854-2.534-.691-3.853.17-1.373.838-2.558 1.74-3.543 1.187-1.297 2.71-2.085 4.19-2.95-1.283-.913-2.583-1.854-3.586-3.114-.537-.676-1.017-1.462-1.314-2.29-.288-.802-.342-1.671-.309-2.522a6.094 6.094 0 0 1 1.705-3.982c.56-.587 1.94-1.924 3.916-2.575 1.48-.487 3.205-.488 4.641-.283 1.55.221 2.94.824 4.16 1.592 1.061.67 2.23 1.907 2.54 3.357.32 1.5.033 3.14-.817 4.39-1.077 1.585-2.78 2.487-4.268 3.571 2.55 1.607 5.38 3.627 5.93 6.965z"/>
    </g>
</svg>
