<?xml version="1.0" encoding="UTF-8"?>
<svg width="64px" height="65px" viewBox="0 0 64 65" version="1.1" xmlns="http://www.w3.org/2000/svg" xmlns:xlink="http://www.w3.org/1999/xlink">
    <!-- Generator: sketchtool 50.2 (55047) - http://www.bohemiancoding.com/sketch -->
    <title>3DBEF1B1-3DA2-489B-AD9F-FF822D9E002E</title>
    <desc>Created with sketchtool.</desc>
    <defs>
        <linearGradient x1="50%" y1="0%" x2="50%" y2="100%" id="linearGradient-1">
            <stop stop-color="#0088DA" offset="0%"></stop>
            <stop stop-color="#0050B3" offset="100%"></stop>
        </linearGradient>
    </defs>
    <g id="Screen" stroke="none" stroke-width="1" fill="none" fill-rule="evenodd">
        <g id="2.4_mb_member-overview" transform="translate(-593.000000, -1884.000000)">
            <g id="grid/hasline" transform="translate(500.000000, 1854.000000)">
                <g id="icon/signout" transform="translate(93.000000, 30.000000)">
                    <path d="M51.9843872,44.3812083 L47.9875097,44.3812083 L47.9875097,52.0833333 L16.0124903,52.0833333 L16.0124903,12.9166667 L47.9875097,12.9166667 L47.9875097,20.9575833 L51.9843872,20.9575833 L51.9843872,12.9166667 C51.9843872,11.8779021 51.5632888,10.8816826 50.8137289,10.1471651 C50.064169,9.41264761 49.0475476,8.99999999 47.9875097,9 L16.0124903,9 C14.9524524,8.99999999 13.935831,9.41264761 13.1862711,10.1471651 C12.4367112,10.8816826 12.0156128,11.8779021 12.0156128,12.9166667 L12.0156128,52.0833333 C12.0156128,53.1220979 12.4367112,54.1183174 13.1862711,54.8528349 C13.935831,55.5873524 14.9524524,56 16.0124903,56 L47.9875097,56 C49.0475476,56 50.064169,55.5873524 50.8137289,54.8528349 C51.5632888,54.1183174 51.9843872,53.1220979 51.9843872,52.0833333 L51.9843872,44.3812083 Z" id="path" fill="url(#linearGradient-1)" fill-rule="nonzero"></path>
                    <path d="M45.1297424,34.4583333 L38.5848556,40.87775 C37.7984168,41.6498698 37.7984168,42.9001718 38.5848556,43.6722917 C38.9619894,44.0425339 39.4739075,44.2505909 40.007744,44.2505909 C40.5415804,44.2505909 41.0534985,44.0425339 41.4306323,43.6722917 L51.3948478,33.8962917 C51.7738984,33.5265697 51.9869951,33.0240847 51.9869951,32.5 C51.9869951,31.9759153 51.7738984,31.4734303 51.3948478,31.1037083 L41.4306323,21.3277083 C41.0534985,20.9574661 40.5415804,20.7494091 40.007744,20.7494091 C39.4739075,20.7494091 38.9619894,20.9574661 38.5848556,21.3277083 C37.7984168,22.0998282 37.7984168,23.3501302 38.5848556,24.12225 L45.1297424,30.5416667 L30.0015613,30.5416667 C28.897854,30.5416667 28.0031225,31.4184424 28.0031225,32.5 C28.0031225,33.5815576 28.897854,34.4583333 30.0015613,34.4583333 L45.1297424,34.4583333 Z" id="path" fill="#FAAD14"></path>
                </g>
            </g>
        </g>
    </g>
</svg>