<?xml version="1.0" encoding="UTF-8"?>
<svg width="180px" height="180px" viewBox="0 0 180 180" version="1.1" xmlns="http://www.w3.org/2000/svg" xmlns:xlink="http://www.w3.org/1999/xlink">
    <!-- Generator: sketchtool 50.2 (55047) - http://www.bohemiancoding.com/sketch -->
    <title>9560AE8D-3587-46A9-8B08-0BEB791725AE</title>
    <desc>Created with sketchtool.</desc>
    <defs></defs>
    <g id="Screen" stroke="none" stroke-width="1" fill="none" fill-rule="evenodd">
        <g id="2.3_mb_forget-sucess" transform="translate(-285.000000, -384.000000)" fill="#67C23A">
            <g id="Content" transform="translate(100.000000, 384.000000)">
                <g id="pic-sucess" transform="translate(185.000000, 0.000000)">
                    <path d="M90.0005493,0 C40.288892,0 0,40.288892 0,90.0005493 C0,139.711108 40.288892,180 90.0005493,180 C139.711108,180 180,139.711108 180,90.0005493 C180,40.288892 139.711108,0 90.0005493,0 Z M90.0004883,10 C45.8123484,10 10,45.8123484 10,90.0004883 C10,134.187652 45.8123484,170 90.0004883,170 C134.187652,170 170,134.187652 170,90.0004883 C170,45.8123484 134.187652,10 90.0004883,10 Z M135.756025,62.6487337 L72.5621491,126.052888 L72.4927154,126.123201 C72.0704005,126.579793 71.5606342,126.984969 70.9983533,127.300717 C70.0139771,127.863877 68.9239123,128.127329 67.8690037,128.127329 C65.6717354,128.127329 63.527641,126.984969 62.3672636,124.927667 L43.2244424,91.4586566 C41.4846454,88.4176372 42.5395539,84.5511042 45.5803535,82.8284458 C48.6213728,81.0877699 52.4881256,82.1426784 54.2107839,85.1836977 L69.222521,111.463246 L126.790951,53.7188156 C129.251671,51.2400772 133.259928,51.2400772 135.738886,53.700798 C138.216746,56.1797561 138.216746,60.1880129 135.756025,62.6487337 Z" id="path"></path>
                </g>
            </g>
        </g>
    </g>
</svg>