<?xml version="1.0" encoding="utf-8"?>
<!-- Generator: Adobe Illustrator 16.0.0, SVG Export Plug-In . SVG Version: 6.00 Build 0)  -->
<!DOCTYPE svg PUBLIC "-//W3C//DTD SVG 1.1//EN" "http://www.w3.org/Graphics/SVG/1.1/DTD/svg11.dtd">
<svg version="1.1" id="圖層_1" xmlns="http://www.w3.org/2000/svg" xmlns:xlink="http://www.w3.org/1999/xlink" x="0px" y="0px"
	 width="18px" height="18px" viewBox="0 0 18 18" enable-background="new 0 0 18 18" xml:space="preserve">
<title>0732FF4A-7A32-4FC9-9615-1D1A0CD18CB4</title>
<desc>Created with sketchtool.</desc>
<g id="Symbols">
	<g id="icon_x2F_trash">
		<rect id="_x40_bound" fill="none" width="18" height="18"/>
		<path id="删除" fill="#FFFFFF" d="M14.465,5.722v7.926c0,2.004-0.027,3.003-3.001,3.003H6.536c-2.942,0-3-0.999-3-3.003V5.722
			H2.261c-0.502,0-0.911-0.408-0.911-0.911C1.35,4.304,1.758,3.9,2.261,3.9h13.477c0.502,0,0.912,0.408,0.912,0.911
			c0,0.507-0.408,0.911-0.912,0.911H14.465z M6.086,2.079c0-0.405,0.33-0.729,0.738-0.729h4.352c0.408,0,0.738,0.326,0.738,0.729
			c0,0.405-0.33,0.729-0.738,0.729H6.824C6.416,2.807,6.086,2.481,6.086,2.079z M6.997,14.465c0.302,0,0.546-0.344,0.546-0.762
			V7.576c0-0.42-0.243-0.761-0.546-0.761c-0.302,0-0.546,0.343-0.546,0.761v6.127C6.45,14.123,6.692,14.465,6.997,14.465z
			 M11.004,14.465c0.301,0,0.546-0.344,0.546-0.762V7.576c0-0.42-0.242-0.761-0.546-0.761c-0.303,0-0.547,0.343-0.547,0.761v6.127
			C10.457,14.123,10.699,14.465,11.004,14.465z"/>
	</g>
</g>
</svg>
