<?xml version="1.0" encoding="UTF-8"?>
<svg width="48px" height="48px" viewBox="0 0 48 48" version="1.1" xmlns="http://www.w3.org/2000/svg" xmlns:xlink="http://www.w3.org/1999/xlink">
    <!-- Generator: sketchtool 50.2 (55047) - http://www.bohemiancoding.com/sketch -->
    <title>AE8A7844-71DF-4E00-A2E0-A2129A984573</title>
    <desc>Created with sketchtool.</desc>
    <defs></defs>
    <g id="Screen" stroke="none" stroke-width="1" fill="none" fill-rule="evenodd">
        <g id="2.6_mb_member-withdrawal" transform="translate(-351.000000, -1156.000000)" fill="#595959">
            <g id="Content" transform="translate(0.000000, 184.000000)">
                <g id="input" transform="translate(40.000000, 912.000000)">
                    <g id="icon/plus" transform="translate(311.000000, 60.000000)">
                        <path d="M22,22 L22,2.00138927 C22,0.896052496 22.8877296,0 24,0 C25.1045695,0 26,0.894938439 26,2.00138927 L26,22 L45.9986107,22 C47.1039475,22 48,22.8877296 48,24 C48,25.1045695 47.1050616,26 45.9986107,26 L26,26 L26,45.9986107 C26,47.1039475 25.1122704,48 24,48 C22.8954305,48 22,47.1050616 22,45.9986107 L22,26 L2.00138927,26 C0.896052496,26 0,25.1122704 0,24 C0,22.8954305 0.894938439,22 2.00138927,22 L22,22 Z" id="path"></path>
                    </g>
                </g>
            </g>
        </g>
    </g>
</svg>