<?xml version="1.0" encoding="UTF-8"?>
<svg width="64px" height="64px" viewBox="0 0 64 64" version="1.1" xmlns="http://www.w3.org/2000/svg" xmlns:xlink="http://www.w3.org/1999/xlink">
    <!-- Generator: sketchtool 50.2 (55047) - http://www.bohemiancoding.com/sketch -->
    <title>C9B6FAFF-0741-4399-BA07-C3C0C2541D13</title>
    <desc>Created with sketchtool.</desc>
    <defs>
        <linearGradient x1="50%" y1="0%" x2="50%" y2="100%" id="linearGradient-1">
            <stop stop-color="#0088DA" offset="0%"></stop>
            <stop stop-color="#0050B3" offset="100%"></stop>
        </linearGradient>
    </defs>
    <g id="Screen" stroke="none" stroke-width="1" fill="none" fill-rule="evenodd">
        <g id="2.4_mb_member-overview" transform="translate(-93.000000, -1344.000000)">
            <g id="grid/hasline" transform="translate(0.000000, 1314.000000)">
                <g id="icon/clipboard-list" transform="translate(93.000000, 30.000000)">
                    <path d="M49.2011963,56 L14.7415581,56 C11.5723827,56 9,53.5186104 9,50.4615384 L9,13.5384616 C9,10.4813896 11.5723827,8 14.7415581,8 L49.1909068,8 C52.3600823,8 54.9324649,10.4813896 54.9324649,13.5384616 L54.9324649,50.4615384 C54.9427545,53.5086849 52.3600823,56 49.2011963,56 Z M14.7415581,11.6823822 C13.692026,11.6823822 12.8277054,12.5161291 12.8277054,13.5285361 L12.8277054,50.451613 C12.8277054,51.4739454 13.692026,52.2977668 14.7415581,52.2977668 L49.1909068,52.2977668 C50.2507284,52.2977668 51.1047595,51.4739455 51.1047595,50.451613 L51.1047595,13.5285361 C51.1047595,12.5161291 50.2507285,11.6823822 49.1909068,11.6823822 L14.7415581,11.6823822 Z M16.6451213,20.0694789 C16.6451213,18.540943 17.9313126,17.3002482 19.5159003,17.3002482 C21.1004881,17.3002482 22.3866794,18.540943 22.3866794,20.0694789 C22.3866794,21.5980149 21.1004881,22.8387097 19.5159003,22.8387097 C17.9313126,22.8387097 16.6451213,21.5980149 16.6451213,20.0694789 Z M29.0440058,20.0694789 C29.0440058,18.540943 30.3301971,17.3002482 31.9147849,17.3002482 C33.4993726,17.3002482 34.7855639,18.540943 34.7855639,20.0694789 C34.7855639,21.5980149 33.4993726,22.8387097 31.9147849,22.8387097 C30.3301971,22.8387097 29.0440058,21.5980149 29.0440058,20.0694789 Z M41.4943378,20.0694789 C41.4943378,18.540943 42.7805292,17.3002482 44.3651169,17.3002482 C45.9497046,17.3002482 47.235896,18.540943 47.235896,20.0694789 C47.235896,21.5980149 45.9497046,22.8387097 44.3651169,22.8387097 C42.7805292,22.8387097 41.4943378,21.5980149 41.4943378,20.0694789 Z" id="path" fill="url(#linearGradient-1)" fill-rule="nonzero"></path>
                    <path d="M39.7419122,34.936896 L18.6175058,34.936896 C17.5576841,34.936896 16.703653,34.079923 16.703653,33.0164504 C16.703653,31.9529778 17.5576841,31.0960047 18.6175058,31.0960047 L39.7419122,31.0960047 C40.8017339,31.0960047 41.6557649,31.9529777 41.6557649,33.0164504 C41.6557649,34.079923 40.8017339,34.936896 39.7419122,34.936896 Z" id="path" fill="#FAAD14"></path>
                    <path d="M45.3599959,46.3872951 L18.6072162,46.3872951 C17.5473946,46.3872951 16.6933635,45.5303221 16.6933635,44.4668495 C16.6933635,43.4033768 17.5473945,42.5464038 18.6072162,42.5464038 L45.3599959,42.5464038 C46.4198176,42.5464038 47.2738487,43.4033768 47.2738487,44.4668495 C47.2738487,45.5303221 46.4198176,46.3872951 45.3599959,46.3872951 Z" id="path" fill="#FAAD14"></path>
                </g>
            </g>
        </g>
    </g>
</svg>