<?xml version="1.0" encoding="UTF-8"?>
<svg width="310px" height="196px" viewBox="0 0 310 196" version="1.1" xmlns="http://www.w3.org/2000/svg" xmlns:xlink="http://www.w3.org/1999/xlink">
    <!-- Generator: sketchtool 50.2 (55047) - http://www.bohemiancoding.com/sketch -->
    <title>C8FFCF56-BA19-4746-88CC-63DF073B66F1</title>
    <desc>Created with sketchtool.</desc>
    <defs></defs>
    <g id="Screen" stroke="none" stroke-width="1" fill="none" fill-rule="evenodd">
        <g id="2.10_member-history--pocket--detail-wait" transform="translate(-220.000000, -360.000000)">
            <g id="Content" transform="translate(40.000000, 272.000000)">
                <g id="pic" transform="translate(180.000000, 88.000000)">
                    <rect id="bg" x="15" y="0" width="280" height="180"></rect>
                    <path d="M154.9375,67.171875 C181.576094,67.171875 204.859375,90.4555078 204.859375,117.09375 C204.859375,143.731992 181.576094,167.015625 154.9375,167.015625 C128.298906,167.015625 105.015625,143.732344 105.015625,117.09375 C105.015625,90.4551563 128.299258,67.171875 154.9375,67.171875 Z" id="Shape" fill="#FAAD14" fill-rule="nonzero"></path>
                    <path d="M122.621875,84.778125 C123.992969,83.4035156 123.992969,81.178125 122.621875,79.8035156 C121.247266,78.4324219 119.021875,78.4324219 117.647266,79.8035156 C116.276172,81.178125 116.276172,83.4035156 117.647266,84.778125 C119.021875,86.1492188 121.247266,86.1492188 122.621875,84.778125 Z" id="Shape" fill="#000000" fill-rule="nonzero"></path>
                    <path d="M154.9375,63.3046875 C146.132617,63.3046875 137.410703,65.5290234 129.713945,69.7365234 C128.010273,70.6678125 127.384141,72.8042578 128.31543,74.5075781 C129.24707,76.21125 131.383164,76.8373828 133.086484,75.9060938 C138.725547,72.8232422 145.002344,70.9754297 151.421523,70.4776172 L151.421523,74.90625 C151.421523,76.8479297 152.99582,78.421875 154.937148,78.421875 C156.878477,78.421875 158.452773,76.8479297 158.452773,74.90625 L158.452773,70.47375 C181.069492,72.2487891 199.781758,90.9614063 201.556797,113.578125 L197.125,113.578125 C195.183672,113.578125 193.609375,115.15207 193.609375,117.09375 C193.609375,119.03543 195.183672,120.609375 197.125,120.609375 L201.557148,120.609375 C199.782109,143.225742 181.069844,161.938359 158.453125,163.71375 L158.453125,159.28125 C158.453125,157.33957 156.878828,155.765625 154.9375,155.765625 C152.996172,155.765625 151.421875,157.33957 151.421875,159.28125 L151.421875,163.71375 C128.805156,161.938359 110.092891,143.225742 108.3175,120.609375 L112.75,120.609375 C114.691328,120.609375 116.265625,119.03543 116.265625,117.09375 C116.265625,115.15207 114.691328,113.578125 112.75,113.578125 L108.37832,113.578125 C108.993555,107.987227 111.074805,102.06832 114.804531,95.2466016 C115.73582,93.5429297 115.109687,91.4068359 113.406016,90.4755469 C111.702695,89.5442578 109.566602,90.1703906 108.634961,91.8737109 C103.597422,101.088516 101.148438,109.33793 101.148438,117.09375 C101.148438,131.159414 106.826523,144.583828 117.137148,154.894102 C127.447773,165.204727 140.871836,170.882812 154.9375,170.882812 C169.003164,170.882812 182.427227,165.204727 192.737852,154.894102 C203.048477,144.583828 208.726562,131.159414 208.726562,117.09375 C208.726562,103.028086 203.048477,89.6036719 192.737852,79.2933984 C182.427227,68.9827734 169.003164,63.3046875 154.9375,63.3046875 Z" id="Shape" fill="#000000" fill-rule="nonzero"></path>
                    <path d="M214.60082,71.2925391 C215.287422,71.9791406 216.18707,72.3222656 217.086719,72.3222656 C217.986367,72.3222656 218.886016,71.9787891 219.572617,71.2925391 L229.514453,61.3503516 C230.887305,59.9775 230.887305,57.7514063 229.514453,56.3785547 L214.597656,41.4617578 C213.938125,40.8025781 213.044102,40.4320313 212.111758,40.4320313 C211.179414,40.4320313 210.285039,40.8025781 209.625859,41.4617578 L199.683672,51.4039453 C199.024492,52.063125 198.653945,52.9575 198.653945,53.8898437 C198.653945,54.8221875 199.024492,55.7165625 199.683672,56.3757422 L199.697031,56.3891016 L194.635234,61.5064453 C185.858125,55.1132812 175.826289,50.8389844 165.484375,49.0875 L165.484375,41.15625 C167.425703,41.15625 169,39.5823047 169,37.640625 L169,34.125 L172.515625,34.125 C178.331172,34.125 183.0625,29.3936719 183.0625,23.578125 L183.0625,16.546875 C183.0625,10.7313281 178.331172,6 172.515625,6 L137.359375,6 C131.543828,6 126.8125,10.7313281 126.8125,16.546875 L126.8125,23.578125 C126.8125,29.3936719 131.543828,34.125 137.359375,34.125 L140.875,34.125 L140.875,37.640625 C140.875,39.5823047 142.449297,41.15625 144.390625,41.15625 L144.390625,49.0875 C134.048711,50.8386328 124.016875,55.1129297 115.239766,61.5064453 L110.177969,56.3891016 L110.191328,56.3757422 C110.850508,55.7165625 111.221055,54.8221875 111.221055,53.8898437 C111.221055,52.9575 110.850508,52.063125 110.191328,51.4039453 L100.249141,41.4617578 C99.5896094,40.8025781 98.6955859,40.4320312 97.7632422,40.4320312 C96.8308984,40.4320312 95.936875,40.8025781 95.2773438,41.4617578 L80.3605469,56.3785547 C78.9876953,57.7514062 78.9876953,59.9771484 80.3605469,61.3503516 L90.3023828,71.2925391 C90.9889844,71.9791406 91.8886328,72.3222656 92.7882813,72.3222656 C93.6879297,72.3222656 94.5875781,71.9787891 95.2741797,71.2925391 L95.2875391,71.2791797 L100.249492,76.1873437 C91.1317188,88.1710547 86.03125,102.643125 86.03125,117.09375 C86.03125,134.650078 93.5543359,152.242617 106.671484,165.359766 C119.788633,178.476914 137.381172,186 154.9375,186 C172.493828,186 190.086367,178.476914 203.203516,165.359766 C216.320664,152.242617 223.84375,134.650078 223.84375,117.09375 C223.84375,102.643125 218.743281,88.1710547 209.625508,76.1873437 L214.587461,71.2791797 L214.60082,71.2925391 Z M212.112109,48.9194531 L222.057109,58.8644531 L217.086719,63.8348438 L207.141719,53.8898437 L212.112109,48.9194531 Z M147.90625,34.125 L147.90625,27.09375 L161.96875,27.09375 L161.96875,34.125 L147.90625,34.125 Z M137.359375,27.09375 C135.420859,27.09375 133.84375,25.5166406 133.84375,23.578125 L133.84375,16.546875 C133.84375,14.6083594 135.420859,13.03125 137.359375,13.03125 L172.515625,13.03125 C174.454141,13.03125 176.03125,14.6083594 176.03125,16.546875 L176.03125,23.578125 C176.03125,25.5166406 174.454141,27.09375 172.515625,27.09375 L169,27.09375 L169,23.578125 C169,21.6364453 167.425703,20.0625 165.484375,20.0625 L144.390625,20.0625 C142.449297,20.0625 140.875,21.6364453 140.875,23.578125 L140.875,27.09375 L137.359375,27.09375 Z M151.421875,48.1875 L151.421875,41.15625 L158.453125,41.15625 L158.453125,48.1875 L151.421875,48.1875 Z M109.549375,65.7519141 L104.650352,70.6509375 L100.258984,66.3073828 L105.20582,61.3605469 L109.549375,65.7519141 Z M87.8178906,58.8644531 L97.7628906,48.9194531 L102.733281,53.8898438 L92.7882813,63.8348438 L87.8178906,58.8644531 Z M154.9375,178.96875 C121.976055,178.96875 93.0625,150.055195 93.0625,117.09375 C93.0625,84.1323047 121.976055,55.21875 154.9375,55.21875 C187.898945,55.21875 216.8125,84.1323047 216.8125,117.09375 C216.8125,150.055195 187.898945,178.96875 154.9375,178.96875 Z M205.224297,70.6509375 L200.325273,65.7519141 L204.668828,61.3608984 L209.615664,66.3073828 L205.224297,70.6509375 Z" id="Shape" fill="#000000" fill-rule="nonzero"></path>
                    <path d="M154.9375,89.2265625 C153.293842,89.2265625 151.960938,90.5591695 151.960938,92.203125 L151.960938,107.597906 C148.496516,108.826631 146.007812,112.13508 146.007812,116.015625 C146.007812,119.89617 148.496516,123.204619 151.960938,124.433344 L151.960938,127.921875 C151.960938,129.56583 153.293842,130.898438 154.9375,130.898438 C156.581158,130.898438 157.914062,129.56583 157.914062,127.921875 L157.914062,124.433344 C161.378484,123.204619 163.867188,119.89617 163.867188,116.015625 C163.867188,112.13508 161.378484,108.826631 157.914062,107.597906 L157.914062,92.203125 C157.914062,90.5591695 156.581158,89.2265625 154.9375,89.2265625 Z M154.9375,118.992188 C153.296223,118.992188 151.960938,117.656902 151.960938,116.015625 C151.960938,114.374348 153.296223,113.039062 154.9375,113.039062 C156.578777,113.039062 157.914062,114.374348 157.914062,116.015625 C157.914062,117.656902 156.578777,118.992188 154.9375,118.992188 Z" id="Shape" fill="#FFFFFF" fill-rule="nonzero"></path>
                    <path d="M39.6866485,56.4414169 C39.4686649,56.4414169 39.2779292,56.2506812 39.2779292,56.0326975 L39.2779292,45.4877384 C39.2779292,45.2697548 39.4686649,45.0790191 39.6866485,45.0790191 C39.9046322,45.0790191 40.0953678,45.2697548 40.0953678,45.4877384 L40.0953678,56.0326975 C40.0953678,56.2779292 39.9318801,56.4414169 39.6866485,56.4414169 Z" id="Shape" fill="#FA5555" fill-rule="nonzero"></path>
                    <path d="M36.4168937,54.9972752 C36.3079019,54.9972752 36.226158,54.9700272 36.1444142,54.8882834 C35.9809264,54.7247956 35.9536785,54.479564 36.1171662,54.3160763 L42.9564033,46.8501362 C43.119891,46.6866485 43.3651226,46.6594005 43.5286104,46.8228883 C43.6920981,46.986376 43.719346,47.2316076 43.5558583,47.3950954 L36.7166213,54.8610354 C36.6348774,54.9427793 36.5258856,54.9972752 36.4168937,54.9972752 Z" id="Shape" fill="#FA5555" fill-rule="nonzero"></path>
                    <path d="M43.2833787,54.9155313 C43.1743869,54.9155313 43.0653951,54.8610354 42.9836512,54.7792916 L36.1444142,47.3133515 C35.9809264,47.1498638 36.0081744,46.8773842 36.1716621,46.7411444 C36.3351499,46.5776567 36.6076294,46.6049046 36.7438692,46.7683924 L43.5831063,54.2343324 C43.746594,54.3978202 43.719346,54.6702997 43.5558583,54.8065395 C43.4741144,54.8610354 43.3651226,54.9155313 43.2833787,54.9155313 Z" id="Shape" fill="#FA5555" fill-rule="nonzero"></path>
                    <path d="M44.5367847,51.1825613 L34.8365123,51.1825613 C34.6185286,51.1825613 34.4277929,50.9918256 34.4277929,50.773842 C34.4277929,50.5558583 34.6185286,50.3651226 34.8365123,50.3651226 L44.5367847,50.3651226 C44.7547684,50.3651226 44.9455041,50.5558583 44.9455041,50.773842 C44.9455041,50.9918256 44.7547684,51.1825613 44.5367847,51.1825613 Z" id="Shape" fill="#FA5555" fill-rule="nonzero"></path>
                    <path d="M57.7520436,100.555858 L55.7356948,100.555858 C55.3542234,100.555858 55.0544959,100.256131 55.0544959,99.8746594 C55.0544959,99.493188 55.3542234,99.1934605 55.7356948,99.1934605 L57.7520436,99.1934605 C58.133515,99.1934605 58.4332425,99.493188 58.4332425,99.8746594 C58.4332425,100.256131 58.133515,100.555858 57.7520436,100.555858 Z M51.26703,100.555858 L49.2506812,100.555858 C48.8692098,100.555858 48.5694823,100.256131 48.5694823,99.8746594 C48.5694823,99.493188 48.8692098,99.1934605 49.2506812,99.1934605 L51.26703,99.1934605 C51.6485014,99.1934605 51.9482289,99.493188 51.9482289,99.8746594 C51.9482289,100.256131 51.6485014,100.555858 51.26703,100.555858 Z M51.893733,98.866485 C51.7029973,98.866485 51.5395095,98.7847411 51.4032698,98.6485014 L49.9591281,97.0953678 C49.7138965,96.8228883 49.7138965,96.386921 50.013624,96.1416894 C50.2861035,95.8964578 50.7220708,95.8964578 50.9673025,96.1961853 L52.4114441,97.7493188 C52.6566757,98.0217984 52.6566757,98.4577657 52.3569482,98.7029973 C52.2207084,98.8119891 52.0572207,98.866485 51.893733,98.866485 Z M56.7983651,103.880109 C56.6076294,103.880109 56.4441417,103.798365 56.3079019,103.662125 L54.8637602,102.108992 C54.6185286,101.836512 54.6185286,101.400545 54.9182561,101.155313 C55.1907357,100.910082 55.626703,100.910082 55.8719346,101.209809 L57.3160763,102.762943 C57.5613079,103.035422 57.5613079,103.47139 57.2615804,103.716621 C57.1525886,103.825613 56.9618529,103.880109 56.7983651,103.880109 Z M55.3814714,98.7302452 C55.2179837,98.7302452 55.0544959,98.6757493 54.9182561,98.5395095 C54.6457766,98.2942779 54.6185286,97.8583106 54.8637602,97.5858311 L56.3079019,96.0326975 C56.5531335,95.760218 56.9891008,95.73297 57.2615804,95.9782016 C57.5340599,96.2234332 57.5613079,96.6594005 57.3160763,96.9318801 L55.8719346,98.4850136 C55.7356948,98.6485014 55.5722071,98.7302452 55.3814714,98.7302452 Z M53.5558583,98.6485014 C53.1743869,98.6485014 52.8746594,98.3487738 52.8746594,97.9673025 L52.8746594,95.760218 C52.8746594,95.3787466 53.1743869,95.0790191 53.5558583,95.0790191 C53.9373297,95.0790191 54.2370572,95.3787466 54.2370572,95.760218 L54.2370572,97.9673025 C54.2370572,98.3487738 53.9373297,98.6485014 53.5558583,98.6485014 Z M53.5558583,104.970027 C53.1743869,104.970027 52.8746594,104.6703 52.8746594,104.288828 L52.8746594,102.081744 C52.8746594,101.700272 53.1743869,101.400545 53.5558583,101.400545 C53.9373297,101.400545 54.2370572,101.700272 54.2370572,102.081744 L54.2370572,104.288828 C54.2370572,104.643052 53.9373297,104.970027 53.5558583,104.970027 Z M50.5040872,103.852861 C50.3405995,103.852861 50.1771117,103.798365 50.0408719,103.662125 C49.7683924,103.416894 49.7411444,102.980926 49.986376,102.708447 L51.4305177,101.155313 C51.6757493,100.882834 52.1117166,100.855586 52.3841962,101.100817 C52.6566757,101.346049 52.6839237,101.782016 52.4386921,102.054496 L50.9945504,103.607629 C50.8855586,103.771117 50.6948229,103.852861 50.5040872,103.852861 Z" id="Shape" fill="#FADB14" fill-rule="nonzero"></path>
                    <path d="M60.9128065,45.6239782 L59.7683924,45.6239782 C58.9237057,45.6239782 58.2152589,44.9427793 58.2152589,44.0708447 L58.2152589,43.7983651 C58.2152589,42.9536785 58.8964578,42.2452316 59.7683924,42.2452316 L60.9128065,42.2452316 C61.7574932,42.2452316 62.4659401,42.9264305 62.4659401,43.7983651 L62.4659401,44.0708447 C62.4386921,44.9427793 61.7574932,45.6239782 60.9128065,45.6239782 Z" id="Shape" fill="#1890FF" fill-rule="nonzero"></path>
                    <path d="M49.5776567,133.362398 C48.8964578,133.362398 48.3514986,132.817439 48.3514986,132.13624 L48.3514986,131.918256 C48.3514986,131.237057 48.8964578,130.692098 49.5776567,130.692098 C50.2588556,130.692098 50.8038147,131.237057 50.8038147,131.918256 L50.8038147,132.13624 C50.8038147,132.817439 50.2588556,133.362398 49.5776567,133.362398 Z" id="Shape" fill="#FA5555" fill-rule="nonzero"></path>
                    <path d="M40.4495913,81.0463215 C38.4604905,81.0463215 36.852861,79.4114441 36.852861,77.4495913 L36.852861,76.7956403 C36.852861,74.8065395 38.4877384,73.1989101 40.4495913,73.1989101 C42.4386921,73.1989101 44.0463215,74.8337875 44.0463215,76.7956403 L44.0463215,77.4495913 C44.0735695,79.4386921 42.4386921,81.0463215 40.4495913,81.0463215 Z" id="Shape" fill="#9254DE" fill-rule="nonzero"></path>
                    <path d="M273.773842,93.5258856 L272.084469,93.5258856 C270.613079,93.5258856 269.414169,92.3269755 269.414169,90.8555858 L269.414169,90.5013624 C269.414169,89.0299728 270.613079,87.8310627 272.084469,87.8310627 L273.773842,87.8310627 C275.245232,87.8310627 276.444142,89.0299728 276.444142,90.5013624 L276.444142,90.8555858 C276.444142,92.3269755 275.245232,93.5258856 273.773842,93.5258856 Z M272.084469,89.1934605 C271.376022,89.1934605 270.776567,89.7929155 270.776567,90.5013624 L270.776567,90.8555858 C270.776567,91.5640327 271.376022,92.1634877 272.084469,92.1634877 L273.773842,92.1634877 C274.482289,92.1634877 275.081744,91.5640327 275.081744,90.8555858 L275.081744,90.5013624 C275.081744,89.7929155 274.482289,89.1934605 273.773842,89.1934605 L272.084469,89.1934605 Z" id="Shape" fill="#FA5555" fill-rule="nonzero"></path>
                    <path d="M260.231608,74.506812 C260.013624,74.506812 259.822888,74.3160763 259.822888,74.0980926 L259.822888,67.7220708 C259.822888,67.5040872 260.013624,67.3133515 260.231608,67.3133515 C260.449591,67.3133515 260.640327,67.5040872 260.640327,67.7220708 L260.640327,74.0980926 C260.640327,74.3160763 260.449591,74.506812 260.231608,74.506812 Z" id="Shape" fill="#1890FF" fill-rule="nonzero"></path>
                    <path d="M258.242507,73.6076294 C258.133515,73.6076294 258.051771,73.5803815 257.970027,73.4986376 C257.80654,73.3351499 257.779292,73.0899183 257.942779,72.9264305 L262.084469,68.4032698 C262.247956,68.239782 262.493188,68.2125341 262.656676,68.3760218 C262.820163,68.5395095 262.847411,68.7847411 262.683924,68.9482289 L258.542234,73.4713896 C258.46049,73.5531335 258.351499,73.6076294 258.242507,73.6076294 Z" id="Shape" fill="#1890FF" fill-rule="nonzero"></path>
                    <path d="M262.411444,73.5531335 C262.302452,73.5531335 262.19346,73.4986376 262.111717,73.4168937 L257.970027,68.9209809 C257.80654,68.7574932 257.833787,68.4850136 257.997275,68.3487738 C258.160763,68.1852861 258.433243,68.2125341 258.569482,68.3760218 L262.711172,72.8991826 C262.874659,73.0626703 262.847411,73.3351499 262.683924,73.4713896 C262.60218,73.5258856 262.493188,73.5531335 262.411444,73.5531335 Z" id="Shape" fill="#1890FF" fill-rule="nonzero"></path>
                    <path d="M263.174387,71.3188011 L257.316076,71.3188011 C257.098093,71.3188011 256.907357,71.1280654 256.907357,70.9100817 C256.907357,70.6920981 257.098093,70.5013624 257.316076,70.5013624 L263.174387,70.5013624 C263.392371,70.5013624 263.583106,70.6920981 263.583106,70.9100817 C263.583106,71.1280654 263.392371,71.3188011 263.174387,71.3188011 Z" id="Shape" fill="#1890FF" fill-rule="nonzero"></path>
                    <path d="M274.455041,117.06812 L272.438692,117.06812 C272.057221,117.06812 271.757493,116.768392 271.757493,116.386921 C271.757493,116.00545 272.057221,115.705722 272.438692,115.705722 L274.455041,115.705722 C274.836512,115.705722 275.13624,116.00545 275.13624,116.386921 C275.13624,116.768392 274.836512,117.06812 274.455041,117.06812 Z M267.970027,117.06812 L265.953678,117.06812 C265.572207,117.06812 265.27248,116.768392 265.27248,116.386921 C265.27248,116.00545 265.572207,115.705722 265.953678,115.705722 L267.970027,115.705722 C268.351499,115.705722 268.651226,116.00545 268.651226,116.386921 C268.651226,116.768392 268.351499,117.06812 267.970027,117.06812 Z M268.59673,115.405995 C268.405995,115.405995 268.242507,115.324251 268.106267,115.188011 L266.662125,113.634877 C266.416894,113.362398 266.416894,112.926431 266.716621,112.681199 C266.989101,112.435967 267.425068,112.435967 267.6703,112.735695 L269.114441,114.288828 C269.359673,114.561308 269.359673,114.997275 269.059946,115.242507 C268.923706,115.324251 268.760218,115.405995 268.59673,115.405995 Z M273.501362,120.392371 C273.310627,120.392371 273.147139,120.310627 273.010899,120.174387 L271.566757,118.621253 C271.321526,118.348774 271.321526,117.912807 271.621253,117.667575 C271.893733,117.422343 272.3297,117.422343 272.574932,117.722071 L274.019074,119.275204 C274.264305,119.547684 274.264305,119.983651 273.964578,120.228883 C273.828338,120.337875 273.66485,120.392371 273.501362,120.392371 Z M272.084469,115.242507 C271.920981,115.242507 271.757493,115.188011 271.621253,115.051771 C271.348774,114.80654 271.321526,114.370572 271.566757,114.098093 L273.010899,112.544959 C273.256131,112.27248 273.692098,112.245232 273.964578,112.490463 C274.237057,112.735695 274.264305,113.171662 274.019074,113.444142 L272.574932,114.997275 C272.438692,115.160763 272.275204,115.242507 272.084469,115.242507 Z M270.258856,115.188011 C269.877384,115.188011 269.577657,114.888283 269.577657,114.506812 L269.577657,112.299728 C269.577657,111.918256 269.877384,111.618529 270.258856,111.618529 C270.640327,111.618529 270.940054,111.918256 270.940054,112.299728 L270.940054,114.506812 C270.940054,114.888283 270.640327,115.188011 270.258856,115.188011 Z M270.258856,121.482289 C269.877384,121.482289 269.577657,121.182561 269.577657,120.80109 L269.577657,118.594005 C269.577657,118.212534 269.877384,117.912807 270.258856,117.912807 C270.640327,117.912807 270.940054,118.212534 270.940054,118.594005 L270.940054,120.80109 C270.940054,121.182561 270.640327,121.482289 270.258856,121.482289 Z M267.207084,120.365123 C267.043597,120.365123 266.880109,120.310627 266.743869,120.174387 C266.47139,119.929155 266.444142,119.493188 266.689373,119.220708 L268.133515,117.667575 C268.378747,117.395095 268.814714,117.367847 269.087193,117.613079 C269.359673,117.858311 269.386921,118.294278 269.141689,118.566757 L267.697548,120.119891 C267.588556,120.283379 267.39782,120.365123 267.207084,120.365123 Z" id="Shape" fill="#FADB14" fill-rule="nonzero"></path>
                    <path d="M257.125341,139.356948 L255.953678,139.356948 C255.626703,139.356948 255.381471,139.084469 255.381471,138.784741 L255.381471,138.675749 C255.381471,138.348774 255.653951,138.103542 255.953678,138.103542 L257.125341,138.103542 C257.452316,138.103542 257.697548,138.376022 257.697548,138.675749 L257.697548,138.784741 C257.724796,139.111717 257.452316,139.356948 257.125341,139.356948 Z" id="Shape" fill="#9254DE" fill-rule="nonzero"></path>
                    <path d="M257.479564,107.940054 L254.945504,107.940054 C253.855586,107.940054 252.983651,107.06812 252.983651,105.978202 L252.983651,105.760218 C252.983651,104.6703 253.855586,103.798365 254.945504,103.798365 L257.479564,103.798365 C258.569482,103.798365 259.441417,104.6703 259.441417,105.760218 L259.441417,105.978202 C259.414169,107.06812 258.542234,107.940054 257.479564,107.940054 Z M254.918256,105.160763 C254.591281,105.160763 254.318801,105.433243 254.318801,105.760218 L254.318801,105.978202 C254.318801,106.305177 254.591281,106.577657 254.918256,106.577657 L257.452316,106.577657 C257.779292,106.577657 258.051771,106.305177 258.051771,105.978202 L258.051771,105.760218 C258.051771,105.433243 257.779292,105.160763 257.452316,105.160763 L254.918256,105.160763 Z" id="Shape" fill="#FADB14" fill-rule="nonzero"></path>
                    <path d="M254.318801,50.0653951 C254.318801,50.6786849 254.614827,51.245388 255.095368,51.552033 C255.575909,51.8586779 256.16796,51.8586779 256.648501,51.552033 C257.129043,51.245388 257.425068,50.6786849 257.425068,50.0653951 C257.425068,49.1173314 256.729707,48.3487738 255.871935,48.3487738 C255.014163,48.3487738 254.318801,49.1173314 254.318801,50.0653951 Z" id="Shape" fill="#9254DE" fill-rule="nonzero"></path>
                </g>
            </g>
        </g>
    </g>
</svg>