<?xml version="1.0" encoding="UTF-8"?>
<svg width="84px" height="84px" viewBox="0 0 84 84" version="1.1" xmlns="http://www.w3.org/2000/svg" xmlns:xlink="http://www.w3.org/1999/xlink">
    <!-- Generator: sketchtool 50.2 (55047) - http://www.bohemiancoding.com/sketch -->
    <title>1DC0A0C4-E4D8-4F29-B947-2AD361B8C28B</title>
    <desc>Created with sketchtool.</desc>
    <defs></defs>
    <g id="Screen" stroke="none" stroke-width="1" fill="none" fill-rule="evenodd">
        <g id="2.4_mb_member-overview" transform="translate(-333.000000, -782.000000)" fill="#FFFFFF" fill-rule="nonzero">
            <g id="grid/hasline" transform="translate(250.000000, 752.000000)">
                <g id="icon/" transform="translate(83.000000, 30.000000)">
                    <path d="M64.8301277,57.5540426 L60.9145532,53.6384681 C60.116443,52.8409219 60.1159858,51.5473868 60.9135319,50.7492766 C61.7110781,49.9511664 63.0046132,49.9507092 63.8027234,50.7482553 L71.3397447,58.2852766 C72.1357602,59.0826589 72.1357602,60.374022 71.3397447,61.1714043 L64.0682553,68.4428936 C63.2707091,69.2410038 61.9771741,69.241461 61.1790639,68.4439148 C60.3809537,67.6463687 60.3804964,66.3528336 61.1780426,65.5547234 L65.093617,61.6391489 L52.7770213,61.6391489 C51.6489503,61.6391489 50.7344681,60.7246667 50.7344681,59.5965957 C50.7344681,58.4685248 51.6489503,57.5540426 52.7770213,57.5540426 L64.8301277,57.5540426 Z M37.5742979,32.4469787 L32.2350638,26.2539574 C31.7585475,25.701184 31.6131295,24.9361818 31.8535872,24.2471198 C32.094045,23.5580579 32.6838472,23.0496211 33.4008213,22.9133326 C34.1177953,22.7770441 34.8530156,23.0336095 35.3295319,23.586383 L41.9923404,31.3154043 L48.6551489,23.586383 C49.3917793,22.7318693 50.6816564,22.6363059 51.5361702,23.3729362 C52.3906839,24.1095666 52.4862473,25.3994437 51.749617,26.2539574 L46.410383,32.4469787 L53.5797447,32.4469787 C54.7078157,32.4469787 55.6222979,33.3614609 55.6222979,34.4895319 C55.6222979,35.6176029 54.7078157,36.5320851 53.5797447,36.5320851 L44.0205957,36.5320851 L44.0205957,43.362383 L56.2861277,43.362383 C57.4141986,43.362383 58.3286809,44.2768652 58.3286809,45.4049362 C58.3286809,46.5330071 57.4141986,47.4474894 56.2861277,47.4474894 L44.0205957,47.4474894 L44.0205957,59.0308085 C44.0205957,60.1588795 43.1061135,61.0733617 41.9780426,61.0733617 C40.8499716,61.0733617 39.9354894,60.1588795 39.9354894,59.0308085 L39.9354894,47.4474894 L27.6801702,47.4474894 C26.5520992,47.4474894 25.637617,46.5330071 25.637617,45.4049362 C25.637617,44.2768652 26.5520992,43.362383 27.6801702,43.362383 L39.9354894,43.362383 L39.9354894,36.5320851 L30.4049362,36.5320851 C29.2768652,36.5320851 28.362383,35.6176029 28.362383,34.4895319 C28.362383,33.3614609 29.2768652,32.4469787 30.4049362,32.4469787 L37.5742979,32.4469787 Z M71.7564255,45.3089362 C71.6329018,46.4308028 70.6233134,47.2401195 69.5014468,47.1165957 C68.3795802,46.993072 67.5702635,45.9834836 67.6937872,44.861617 C67.7979574,43.9159149 67.8510638,42.9620426 67.8510638,42 C67.8510638,27.7102979 56.2677447,16.1269787 41.9780426,16.1269787 C27.690383,16.1269787 16.1070638,27.7102979 16.1070638,42 C16.1070638,56.2897021 27.6883404,67.8730213 41.9780426,67.8730213 C44.7028085,67.8730213 47.3662979,67.4522553 49.9031489,66.6372766 C50.9770725,66.2915229 52.1279483,66.8818212 52.473702,67.9557447 C52.8194558,69.0296682 52.2291575,70.1805441 51.155234,70.5262979 C48.2139574,71.4699574 45.1297021,71.9560851 41.9780426,71.9560851 C25.4333617,71.9560851 12.0219574,58.5446809 12.0219574,42 C12.0219574,25.4553191 25.4333617,12.0418723 41.9780426,12.0418723 C58.5227234,12.0418723 71.9361702,25.4553191 71.9361702,42 C71.9361702,43.1111489 71.8748936,44.2141277 71.7564255,45.3089362 Z" id="path"></path>
                </g>
            </g>
        </g>
    </g>
</svg>