<?xml version="1.0" encoding="UTF-8"?>
<svg width="310px" height="196px" viewBox="0 0 310 196" version="1.1" xmlns="http://www.w3.org/2000/svg" xmlns:xlink="http://www.w3.org/1999/xlink">
    <!-- Generator: sketchtool 50.2 (55047) - http://www.bohemiancoding.com/sketch -->
    <title>FD40961A-E0F1-45ED-BA76-39D886440CF5</title>
    <desc>Created with sketchtool.</desc>
    <defs></defs>
    <g id="Screen" stroke="none" stroke-width="1" fill="none" fill-rule="evenodd">
        <g id="2.8_member-cashback-bonus--detail" transform="translate(-220.000000, -360.000000)">
            <g id="Content" transform="translate(40.000000, 272.000000)">
                <g id="pic" transform="translate(180.000000, 88.000000)">
                    <path d="M25.5330578,48.9271729 C25.3037082,48.9271729 25.1030274,48.7271082 25.1030274,48.498463 L25.1030274,37.4377475 C25.1030274,37.2091022 25.3037082,37.0090376 25.5330578,37.0090376 C25.7624073,37.0090376 25.9630881,37.2091022 25.9630881,37.4377475 L25.9630881,48.498463 C25.9630881,48.7556889 25.7624073,48.9271729 25.5330578,48.9271729 Z" id="Shape" fill="#FA5555" fill-rule="nonzero"></path>
                    <path d="M22.0641459,47.3838172 C21.9494711,47.3838172 21.863465,47.3552366 21.777459,47.2694946 C21.6054468,47.0980106 21.5767781,46.8407847 21.7487903,46.6693007 L28.9446322,38.8381999 C29.1166444,38.6667159 29.3746626,38.6381352 29.5466748,38.8096192 C29.7186869,38.9811032 29.7473556,39.2383291 29.5753435,39.4098131 L22.3795015,47.2409139 C22.2934954,47.3552366 22.1788207,47.3838172 22.0641459,47.3838172 Z" id="Shape" fill="#FA5555" fill-rule="nonzero"></path>
                    <path d="M29.2886565,47.3266559 C29.1739818,47.3266559 29.059307,47.2694946 28.9733009,47.1837526 L21.777459,39.3526517 C21.6054468,39.1811678 21.6341155,38.8953612 21.8061277,38.7524579 C21.9781398,38.5809739 22.2648267,38.6095546 22.4081702,38.7810385 L29.6040122,46.6121394 C29.7760243,46.7836234 29.7473556,47.06943 29.5753435,47.2123333 C29.4893374,47.2694946 29.4033313,47.3266559 29.2886565,47.3266559 Z" id="Shape" fill="#FA5555" fill-rule="nonzero"></path>
                    <path d="M30.6074164,43.4111055 L20.4300304,43.4111055 C20.2006809,43.4111055 20,43.2110408 20,42.9823956 C20,42.7537503 20.2006809,42.5536857 20.4300304,42.5536857 L30.6074164,42.5536857 C30.836766,42.5536857 31.0374468,42.7537503 31.0374468,42.9823956 C31.0374468,43.2110408 30.8654347,43.4111055 30.6074164,43.4111055 Z" id="Shape" fill="#FA5555" fill-rule="nonzero"></path>
                    <path d="M44.5117325,95.1992615 L42.3902492,95.1992615 C41.9888875,95.1992615 41.6735319,94.8848742 41.6735319,94.484745 C41.6735319,94.0846157 41.9888875,93.7702285 42.3902492,93.7702285 L44.5117325,93.7702285 C44.9130942,93.7702285 45.2284498,94.0846157 45.2284498,94.484745 C45.2284498,94.8848742 44.9130942,95.1992615 44.5117325,95.1992615 Z M37.6885836,95.1992615 L35.5671003,95.1992615 C35.1657386,95.1992615 34.850383,94.8848742 34.850383,94.484745 C34.850383,94.0846157 35.1657386,93.7702285 35.5671003,93.7702285 L37.6885836,93.7702285 C38.0899453,93.7702285 38.4053009,94.0846157 38.4053009,94.484745 C38.4053009,94.8848742 38.0899453,95.1992615 37.6885836,95.1992615 Z M38.3479635,93.4272606 C38.1472827,93.4272606 37.9752705,93.3415186 37.8319271,93.1986153 L36.3124863,91.5695177 C36.0544681,91.2837111 36.0544681,90.8264205 36.3698237,90.5691946 C36.6565106,90.3119686 37.1152097,90.3119686 37.373228,90.6263559 L38.8926687,92.2554535 C39.1506869,92.5412601 39.1506869,92.9985507 38.8353313,93.2557766 C38.6919878,93.3700992 38.5199757,93.4272606 38.3479635,93.4272606 Z M43.536997,98.686102 C43.3363161,98.686102 43.164304,98.60036 43.0209605,98.4574567 L41.5015198,96.8283591 C41.2435015,96.5425525 41.2435015,96.0852619 41.5588571,95.828036 C41.8455441,95.5708101 42.3042432,95.5708101 42.5622614,95.8851973 L44.0817021,97.5142949 C44.3397204,97.8001015 44.3397204,98.2573921 44.0243647,98.514618 C43.8810213,98.60036 43.7090091,98.686102 43.536997,98.686102 Z M42.0175562,93.2843573 C41.8455441,93.2843573 41.6735319,93.2271959 41.5301884,93.0842926 C41.2435015,92.8270667 41.2148328,92.3697761 41.4728511,92.0839695 L42.9922918,90.4548719 C43.25031,90.1690653 43.7090091,90.1404847 43.995696,90.3977106 C44.282383,90.6549365 44.3110517,91.1122271 44.0530334,91.3980337 L42.5335927,93.0271313 C42.4189179,93.1986153 42.2182371,93.2843573 42.0175562,93.2843573 Z M40.1254225,93.1986153 C39.7240608,93.1986153 39.4087052,92.884228 39.4087052,92.4840988 L39.4087052,90.1690653 C39.4087052,89.7689361 39.7240608,89.4545488 40.1254225,89.4545488 C40.5267842,89.4545488 40.8421398,89.7689361 40.8421398,90.1690653 L40.8421398,92.4840988 C40.8421398,92.884228 40.5267842,93.1986153 40.1254225,93.1986153 Z M40.1254225,99.8293284 C39.7240608,99.8293284 39.4087052,99.5149411 39.4087052,99.1148119 L39.4087052,96.7997784 C39.4087052,96.3996492 39.7240608,96.0852619 40.1254225,96.0852619 C40.5267842,96.0852619 40.8421398,96.3996492 40.8421398,96.7997784 L40.8421398,99.1148119 C40.8421398,99.4863605 40.5267842,99.8293284 40.1254225,99.8293284 Z M36.9145289,98.6289407 C36.7425167,98.6289407 36.5705046,98.5717794 36.4271611,98.4288761 C36.1404742,98.1716501 36.1118055,97.7143596 36.3698237,97.428553 L37.8892644,95.7994553 C38.1472827,95.5136487 38.6059818,95.4850681 38.8926687,95.742294 C39.1793556,95.99952 39.2080243,96.4568105 38.9500061,96.7426171 L37.4305653,98.3717147 C37.2872219,98.5717794 37.086541,98.6289407 36.9145289,98.6289407 Z" id="Shape" fill="#67C23A" fill-rule="nonzero"></path>
                    <path d="M47.8373009,37.5806508 L46.6618845,37.5806508 C45.773155,37.5806508 45.027769,36.8661343 45.027769,35.9515532 L45.027769,35.6657466 C45.027769,34.7797461 45.7444863,34.036649 46.6618845,34.036649 L47.8659696,34.036649 C48.7546991,34.036649 49.5000851,34.7511655 49.5000851,35.6657466 L49.5000851,35.9515532 C49.4714164,36.8661343 48.7260304,37.5806508 47.8373009,37.5806508 Z" id="Shape" fill="#1890FF" fill-rule="nonzero"></path>
                    <path d="M35.9397933,129.610376 C35.223076,129.610376 34.6497021,129.038763 34.6497021,128.324246 L34.6497021,128.095601 C34.6497021,127.381085 35.223076,126.809471 35.9397933,126.809471 C36.6565106,126.809471 37.2298845,127.381085 37.2298845,128.095601 L37.2298845,128.324246 C37.2012158,129.038763 36.6278419,129.610376 35.9397933,129.610376 Z" id="Shape" fill="#FA5555" fill-rule="nonzero"></path>
                    <path d="M26.3357812,74.7355089 C24.2429666,74.7355089 22.5515137,73.0206693 22.5515137,70.9628618 L22.5515137,70.2769259 C22.5515137,68.1905377 24.2716353,66.5042788 26.3357812,66.5042788 C28.4285957,66.5042788 30.1200486,68.2191184 30.1200486,70.2769259 L30.1200486,70.9628618 C30.1200486,73.0492499 28.4285957,74.7355089 26.3357812,74.7355089 Z" id="Shape" fill="#67C23A" fill-rule="nonzero"></path>
                    <path d="M286.676182,87.8254512 L284.898723,87.8254512 C283.350614,87.8254512 282.089191,86.5679021 282.089191,85.0245465 L282.089191,84.6529979 C282.089191,83.1096423 283.350614,81.8520932 284.898723,81.8520932 L286.676182,81.8520932 C288.224292,81.8520932 289.485714,83.1096423 289.485714,84.6529979 L289.485714,85.0245465 C289.485714,86.5679021 288.224292,87.8254512 286.676182,87.8254512 Z M284.898723,83.2811262 C284.153337,83.2811262 283.522626,83.9099008 283.522626,84.6529979 L283.522626,85.0245465 C283.522626,85.7676437 284.153337,86.3964182 284.898723,86.3964182 L286.676182,86.3964182 C287.421568,86.3964182 288.05228,85.7676437 288.05228,85.0245465 L288.05228,84.6529979 C288.05228,83.9099008 287.421568,83.2811262 286.676182,83.2811262 L284.898723,83.2811262 Z" id="Shape" fill="#67C23A" fill-rule="nonzero"></path>
                    <path d="M272.456511,67.8761505 C272.227161,67.8761505 272.02648,67.6760859 272.02648,67.4474406 L272.02648,60.7595661 C272.02648,60.5309208 272.227161,60.3308562 272.456511,60.3308562 C272.68586,60.3308562 272.886541,60.5309208 272.886541,60.7595661 L272.886541,67.4474406 C272.886541,67.6760859 272.68586,67.8761505 272.456511,67.8761505 Z" id="Shape" fill="#1890FF" fill-rule="nonzero"></path>
                    <path d="M270.363696,66.9329887 C270.249021,66.9329887 270.163015,66.904408 270.077009,66.8186661 C269.904997,66.6471821 269.876328,66.3899562 270.04834,66.2184722 L274.405982,61.4740826 C274.577994,61.3025987 274.836012,61.274018 275.008024,61.445502 C275.180036,61.6169859 275.208705,61.8742119 275.036693,62.0456958 L270.679052,66.7900854 C270.593046,66.8758274 270.478371,66.9329887 270.363696,66.9329887 Z" id="Shape" fill="#1890FF" fill-rule="nonzero"></path>
                    <path d="M274.721337,66.8758274 C274.606663,66.8758274 274.491988,66.8186661 274.405982,66.7329241 L270.04834,61.9885345 C269.876328,61.8170505 269.904997,61.5312439 270.077009,61.3883406 C270.249021,61.2168567 270.535708,61.2454373 270.679052,61.4169213 L275.036693,66.1613109 C275.208705,66.3327948 275.180036,66.6186014 275.008024,66.7615047 C274.922018,66.8472467 274.836012,66.8758274 274.721337,66.8758274 Z" id="Shape" fill="#1890FF" fill-rule="nonzero"></path>
                    <path d="M275.524061,64.5036326 L269.360292,64.5036326 C269.130942,64.5036326 268.930261,64.303568 268.930261,64.0749227 C268.930261,63.8462774 269.130942,63.6462128 269.360292,63.6462128 L275.524061,63.6462128 C275.75341,63.6462128 275.954091,63.8462774 275.954091,64.0749227 C275.954091,64.303568 275.75341,64.5036326 275.524061,64.5036326 Z" id="Shape" fill="#1890FF" fill-rule="nonzero"></path>
                    <path d="M287.421568,112.519141 L285.300085,112.519141 C284.898723,112.519141 284.583368,112.204754 284.583368,111.804625 C284.583368,111.404496 284.898723,111.090108 285.300085,111.090108 L287.421568,111.090108 C287.82293,111.090108 288.138286,111.404496 288.138286,111.804625 C288.138286,112.204754 287.794261,112.519141 287.421568,112.519141 Z M280.598419,112.519141 L278.476936,112.519141 C278.075574,112.519141 277.760219,112.204754 277.760219,111.804625 C277.760219,111.404496 278.075574,111.090108 278.476936,111.090108 L280.598419,111.090108 C280.999781,111.090108 281.315137,111.404496 281.315137,111.804625 C281.315137,112.204754 280.971112,112.519141 280.598419,112.519141 Z M281.229131,110.747141 C281.02845,110.747141 280.856438,110.661399 280.713094,110.518495 L279.193653,108.889398 C278.935635,108.603591 278.935635,108.1463 279.250991,107.889075 C279.566347,107.631849 279.996377,107.631849 280.254395,107.946236 L281.773836,109.575333 C282.031854,109.86114 282.031854,110.318431 281.716498,110.575657 C281.601824,110.689979 281.401143,110.747141 281.229131,110.747141 Z M286.418164,116.005982 C286.217483,116.005982 286.045471,115.92024 285.902128,115.777337 L284.382687,114.148239 C284.124669,113.862432 284.124669,113.405142 284.440024,113.147916 C284.75538,112.89069 285.18541,112.89069 285.443429,113.205077 L286.962869,114.834175 C287.220888,115.119982 287.220888,115.577272 286.905532,115.834498 C286.762188,115.948821 286.590176,116.005982 286.418164,116.005982 Z M284.898723,110.604237 C284.726711,110.604237 284.554699,110.547076 284.411356,110.404173 C284.124669,110.146947 284.096,109.689656 284.354018,109.40385 L285.873459,107.774752 C286.131477,107.488945 286.590176,107.460365 286.876863,107.717591 C287.16355,107.974817 287.192219,108.432107 286.934201,108.717914 L285.41476,110.347011 C285.300085,110.518495 285.099404,110.604237 284.898723,110.604237 Z M283.00659,110.547076 C282.605228,110.547076 282.289872,110.232689 282.289872,109.832559 L282.289872,107.517526 C282.289872,107.117397 282.605228,106.803009 283.00659,106.803009 C283.407951,106.803009 283.723307,107.117397 283.723307,107.517526 L283.723307,109.832559 C283.723307,110.232689 283.407951,110.547076 283.00659,110.547076 Z M283.00659,117.149208 C282.605228,117.149208 282.289872,116.834821 282.289872,116.434692 L282.289872,114.119658 C282.289872,113.719529 282.605228,113.405142 283.00659,113.405142 C283.407951,113.405142 283.723307,113.719529 283.723307,114.119658 L283.723307,116.434692 C283.723307,116.834821 283.407951,117.149208 283.00659,117.149208 Z M279.795696,115.977401 C279.623684,115.977401 279.451672,115.92024 279.308328,115.777337 C279.021641,115.520111 278.992973,115.06282 279.250991,114.777014 L280.770432,113.147916 C281.02845,112.862109 281.487149,112.833529 281.773836,113.090755 C282.060523,113.347981 282.089191,113.805271 281.831173,114.091078 L280.311733,115.720175 C280.168389,115.891659 279.996377,115.977401 279.795696,115.977401 Z" id="Shape" fill="#FA5555" fill-rule="nonzero"></path>
                    <path d="M269.18828,135.898121 L267.955526,135.898121 C267.611502,135.898121 267.353483,135.612315 267.353483,135.297928 L267.353483,135.183605 C267.353483,134.840637 267.64017,134.583411 267.955526,134.583411 L269.18828,134.583411 C269.532304,134.583411 269.790322,134.869218 269.790322,135.183605 L269.790322,135.297928 C269.790322,135.640895 269.532304,135.898121 269.18828,135.898121 Z" id="Shape" fill="#1890FF" fill-rule="nonzero"></path>
                    <path d="M269.532304,102.94462 L266.866116,102.94462 C265.719368,102.94462 264.80197,102.030039 264.80197,100.886813 L264.80197,100.658168 C264.80197,99.5149411 265.719368,98.60036 266.866116,98.60036 L269.532304,98.60036 C270.679052,98.60036 271.59645,99.5149411 271.59645,100.658168 L271.59645,100.886813 C271.59645,102.030039 270.679052,102.94462 269.532304,102.94462 Z M266.866116,100.029393 C266.522091,100.029393 266.235404,100.3152 266.235404,100.658168 L266.235404,100.886813 C266.235404,101.229781 266.522091,101.515587 266.866116,101.515587 L269.532304,101.515587 C269.876328,101.515587 270.163015,101.229781 270.163015,100.886813 L270.163015,100.658168 C270.163015,100.3152 269.876328,100.029393 269.532304,100.029393 L266.866116,100.029393 Z" id="Shape" fill="#FA5555" fill-rule="nonzero"></path>
                    <path d="M266.235404,42.2392984 C266.235404,43.2337322 266.967023,44.03988 267.86952,44.03988 C268.772017,44.03988 269.503635,43.2337322 269.503635,42.2392984 C269.503635,41.2448647 268.772017,40.4387168 267.86952,40.4387168 C266.967023,40.4387168 266.235404,41.2448647 266.235404,42.2392984 Z" id="Shape" fill="#1890FF" fill-rule="nonzero"></path>
                    <path d="M128.645293,94.5409818 L128.645293,60.555725 C128.645293,57.9528196 130.776311,55.8354629 133.396009,55.8354629 L201.804343,55.8354629 C204.424042,55.8354629 206.555059,57.9528196 206.555059,60.555725 L206.555059,94.5409818 C206.555059,113.801081 190.785038,129.470011 171.400678,129.470011 L163.799674,129.470011 C144.415315,129.470011 128.645293,113.801081 128.645293,94.5409818 Z" id="Path" fill="#FADB14"></path>
                    <path d="M151.850022,120.114286 C153.447809,120.114286 154.742857,118.733272 154.742857,117.028571 C154.742857,115.323871 153.447451,113.942857 151.850022,113.942857 L151.464263,113.942857 C149.866477,113.942857 148.571429,115.323871 148.571429,117.028571 C148.571429,118.733272 149.866835,120.114286 151.464263,120.114286 L151.850022,120.114286 Z" id="Shape" fill="#FFFFFF" fill-rule="nonzero"></path>
                    <path d="M162.756804,119.085714 C162.923906,119.085714 163.093852,119.071321 163.263798,119.041483 C175.610498,116.871681 184.571429,106.296137 184.571429,93.8965701 L184.571429,67.4092662 C184.571429,65.8415049 183.284388,64.5714286 181.697275,64.5714286 C180.110162,64.5714286 178.823122,65.8418559 178.823122,67.4092662 L178.823122,93.8965701 C178.823122,103.541146 171.856038,111.766803 162.256564,113.453919 C160.693628,113.728787 159.652618,115.202117 159.930648,116.745306 C160.178101,118.119993 161.389768,119.085714 162.756804,119.085714 Z" id="Shape" fill="#FFFFFF" fill-rule="nonzero"></path>
                    <g id="cup" transform="translate(65.257143, 8.000000)" fill="#000000" fill-rule="nonzero">
                        <path d="M25.9071652,173.828571 L25.5214062,173.828571 C23.9236196,173.828571 22.6285714,175.209967 22.6285714,176.914286 C22.6285714,178.618986 23.9239774,180 25.5214062,180 L25.9071652,180 C27.5049519,180 28.8,178.618986 28.8,176.914286 C28.8,175.209585 27.504594,173.828571 25.9071652,173.828571 Z" id="Shape"></path>
                        <path d="M44.4046082,126.337987 C43.2678952,125.201623 41.4247424,125.201623 40.2883895,126.337987 L26.5668204,140.059682 C25.4301075,141.196766 25.4301075,143.039576 26.5668204,144.176299 C27.1349969,144.744481 27.8803234,145.028571 28.6249298,145.028571 C29.3695361,145.028571 30.1148627,144.744481 30.6830391,144.176299 L44.4046082,130.454603 C45.5413211,129.31788 45.5413211,127.47507 44.4046082,126.337987 Z" id="Shape"></path>
                        <path d="M24.6857143,80.2285714 C24.6857143,78.5238708 23.4102581,77.1428571 21.8374304,77.1428571 L2.84828389,77.1428571 C1.27510384,77.1428571 0,78.5238708 0,80.2285714 C0,81.933272 1.27545617,83.3142856 2.84828389,83.3142856 L21.8374304,83.3142856 C23.4106105,83.3146673 24.6857143,81.9328903 24.6857143,80.2285714 Z" id="Shape"></path>
                        <path d="M40.2883895,34.1191718 C40.8565659,34.687343 41.6018924,34.9714286 42.3464988,34.9714286 C43.0911052,34.9714286 43.8364317,34.687343 44.4046082,34.1191718 C45.5413211,32.9821092 45.5413211,31.1393334 44.4046082,30.0026309 L30.6830391,16.2808282 C29.5463262,15.1444858 27.7031733,15.1444858 26.5668204,16.2808282 C25.4301075,17.4178908 25.4301075,19.2606666 26.5668204,20.3973691 L40.2883895,34.1191718 Z" id="Shape"></path>
                        <path d="M90.5142857,24.6857143 C92.2186047,24.6857143 93.6,23.4109628 93.6,21.8374304 L93.6,2.84828389 C93.6,1.27510384 92.2186047,0 90.5142857,0 C88.8099668,0 87.4285714,1.27510384 87.4285714,2.84828389 L87.4285714,21.8374304 C87.4285714,23.4109628 88.8099668,24.6857143 90.5142857,24.6857143 Z" id="Shape"></path>
                        <path d="M10.4785938,173.828571 L10.0928348,173.828571 C8.49504813,173.828571 7.2,175.209967 7.2,176.914286 C7.2,178.618986 8.49540597,180 10.0928348,180 L10.4785938,180 C12.0763804,180 13.3714286,178.618986 13.3714286,176.914286 C13.3714286,175.209585 12.0763804,173.828571 10.4785938,173.828571 Z" id="Shape"></path>
                        <path d="M150.345532,16.2805857 L136.623963,30.0024707 C135.48725,31.1395699 135.48725,32.9824052 136.623963,34.1191443 C137.19214,34.6873338 137.937466,34.9714286 138.682073,34.9714286 C139.426679,34.9714286 140.172006,34.6873338 140.740182,34.1191443 L154.461751,20.3972592 C155.598464,19.26016 155.598464,17.4173248 154.461751,16.2805857 C153.325038,15.1445667 151.481885,15.1445667 150.345532,16.2805857 Z" id="Shape"></path>
                        <path d="M177.151716,77.1428571 L158.16257,77.1428571 C156.58939,77.1428571 155.314286,78.5238708 155.314286,80.2285714 C155.314286,81.9332721 156.589742,83.3142857 158.16257,83.3142857 L177.151716,83.3142857 C178.724896,83.3142857 180,81.9328904 180,80.2285714 C180,78.5242525 178.724544,77.1428571 177.151716,77.1428571 Z" id="Shape"></path>
                        <path d="M140.740182,126.337987 C139.603469,125.201623 137.760316,125.201623 136.623963,126.337987 C135.48725,127.47507 135.48725,129.31788 136.623963,130.454603 L150.345532,144.176299 C150.913709,144.744481 151.659035,145.028571 152.403642,145.028571 C153.148248,145.028571 153.893575,144.744481 154.461751,144.176299 C155.598464,143.039215 155.598464,141.196406 154.461751,140.059682 L140.740182,126.337987 Z" id="Shape"></path>
                        <path d="M143.206854,174.335966 L126.978826,174.335966 C127.023605,174.02663 127.054984,173.71344 127.054984,173.391843 C127.054984,163.501854 118.956484,155.455267 109.002687,155.455267 L108.052474,155.455267 L108.052474,146.958866 C108.052474,143.315148 105.068556,140.350709 101.401683,140.350709 L100.451469,140.350709 L100.451469,126.593495 C116.373454,123.991991 129.223376,112.214457 133.298541,96.9252782 L135.60585,96.9252782 C141.368834,96.9252782 146.057143,92.2666731 146.057143,86.5409818 L146.057143,63.8841439 C146.057143,58.1584526 141.368834,53.4998475 135.60585,53.4998475 L134.655636,53.4998475 L134.655636,52.555725 C134.655636,46.8300337 129.967328,42.1714286 124.204343,42.1714286 L55.7956566,42.1714286 C50.0326722,42.1714286 45.3443637,46.8300337 45.3443637,52.555725 L45.3443637,53.4998475 L44.39415,53.4998475 C38.6311657,53.4998475 33.9428571,58.1584526 33.9428571,63.8841439 L33.9428571,86.5409818 C33.9428571,92.2666731 38.6311657,96.9252782 44.39415,96.9252782 L46.7014593,96.9252782 C50.7766243,112.214457 63.6265457,123.991991 79.5485308,126.593495 L79.5485308,140.350709 L78.5983171,140.350709 C74.9310917,140.350709 71.9475265,143.315499 71.9475265,146.958866 L71.9475265,155.455267 L70.9973128,155.455267 C61.0435158,155.455267 52.9450155,163.501854 52.9450155,173.391843 C52.9450155,173.71309 52.9760429,174.02663 53.0211736,174.335966 L36.7931456,174.335966 C35.2188584,174.335966 33.9428571,175.603787 33.9428571,177.167983 C33.9428571,178.732529 35.219211,180 36.7931456,180 L143.206854,180 C144.781142,180 146.057143,178.732529 146.057143,177.167983 C146.057143,175.603437 144.781142,174.335966 143.206854,174.335966 Z M134.655989,86.5409818 L134.655989,59.1642321 L135.606203,59.1642321 C138.225901,59.1642321 140.356918,61.2815888 140.356918,63.8844943 L140.356918,86.5413321 C140.356918,89.1442375 138.225901,91.2615942 135.606203,91.2615942 L134.378153,91.2615942 C134.559381,89.7121123 134.655989,88.1374071 134.655989,86.5409818 Z M44.3945026,91.2612439 C41.774804,91.2612439 39.6437867,89.1438872 39.6437867,86.5409818 L39.6437867,63.8841439 C39.6437867,61.2812385 41.774804,59.1638818 44.3945026,59.1638818 L45.3447163,59.1638818 L45.3447163,86.5406315 C45.3447163,88.1370568 45.4413243,89.711762 45.6225524,91.2608936 L44.3945026,91.2608936 L44.3945026,91.2612439 Z M51.0452933,86.5409818 L51.0452933,52.555725 C51.0452933,49.9528196 53.1763106,47.8354629 55.7960092,47.8354629 L124.204343,47.8354629 C126.824042,47.8354629 128.955059,49.9528196 128.955059,52.555725 L128.955059,86.5409818 C128.955059,105.801081 113.185038,121.470011 93.8006785,121.470011 L86.1996741,121.470011 C66.8153148,121.470011 51.0452933,105.801081 51.0452933,86.5409818 Z M94.7508922,127.122134 L94.7508922,140.350709 L85.249813,140.350709 L85.249813,127.122134 C85.5657282,127.129491 85.8823486,127.134045 86.2000267,127.134045 L93.8010311,127.134045 C94.1183566,127.134395 94.434977,127.129491 94.7508922,127.122134 Z M77.648456,146.958866 C77.648456,146.438285 78.07473,146.014743 78.5986697,146.014743 L101.401683,146.014743 C101.92527,146.014743 102.351897,146.437934 102.351897,146.958866 L102.351897,155.455267 L77.6488086,155.455267 L77.6488086,146.958866 L77.648456,146.958866 Z M120.404194,174.335966 L59.5961588,174.335966 C59.0725716,174.335966 58.6459451,173.912775 58.6459451,173.391843 C58.6459451,166.624639 64.1871541,161.119302 70.9976653,161.119302 L109.002335,161.119302 C115.812846,161.119302 121.354055,166.624639 121.354055,173.391843 C121.354055,173.912424 120.927781,174.335966 120.404194,174.335966 Z" id="Shape"></path>
                    </g>
                </g>
            </g>
        </g>
    </g>
</svg>