<?xml version="1.0" encoding="UTF-8"?>
<svg width="48px" height="48px" viewBox="0 0 48 48" version="1.1" xmlns="http://www.w3.org/2000/svg" xmlns:xlink="http://www.w3.org/1999/xlink">
    <!-- Generator: sketchtool 50.2 (55047) - http://www.bohemiancoding.com/sketch -->
    <title>B716909C-FF88-40A0-A0C6-3B37B3419DE1</title>
    <desc>Created with sketchtool.</desc>
    <defs>
        <path d="M9.0890625,19.434375 C9.075,19.434375 9.0609375,19.434375 9.046875,19.4296875 C9.028125,19.4296875 9.0140625,19.425 8.9953125,19.425 C8.9859375,19.425 8.971875,19.4203125 8.9625,19.4203125 C8.94375,19.415625 8.925,19.415625 8.9109375,19.4109375 C8.9015625,19.4109375 8.8921875,19.40625 8.8828125,19.40625 C8.8640625,19.4015625 8.8453125,19.396875 8.83125,19.3921875 C8.821875,19.3921875 8.8125,19.3875 8.803125,19.3875 C8.784375,19.3828125 8.7703125,19.378125 8.7515625,19.3734375 C8.7421875,19.36875 8.7328125,19.36875 8.7234375,19.3640625 C8.709375,19.359375 8.690625,19.3546875 8.6765625,19.35 C8.6671875,19.3453125 8.653125,19.340625 8.64375,19.340625 C8.6296875,19.3359375 8.615625,19.33125 8.6015625,19.3265625 C8.5875,19.321875 8.578125,19.3171875 8.5640625,19.3125 C8.55,19.3078125 8.540625,19.303125 8.5265625,19.2984375 C8.5125,19.29375 8.4984375,19.284375 8.484375,19.2796875 C8.475,19.275 8.465625,19.2703125 8.4515625,19.265625 C8.4375,19.25625 8.4234375,19.2515625 8.409375,19.2421875 C8.4,19.2375 8.390625,19.2328125 8.38125,19.228125 C8.3671875,19.21875 8.3484375,19.209375 8.334375,19.2 C8.325,19.1953125 8.3203125,19.190625 8.3109375,19.1859375 C8.296875,19.1765625 8.278125,19.1671875 8.2640625,19.1578125 C8.2546875,19.153125 8.25,19.1484375 8.240625,19.14375 C8.2265625,19.134375 8.2125,19.125 8.1984375,19.1109375 C8.1890625,19.10625 8.1796875,19.096875 8.175,19.0921875 C8.1609375,19.0828125 8.146875,19.0734375 8.1375,19.059375 C8.128125,19.05 8.1140625,19.040625 8.1046875,19.03125 C8.0953125,19.021875 8.0859375,19.0125 8.0765625,19.0078125 C8.034375,18.9703125 7.996875,18.9328125 7.959375,18.890625 C7.95,18.88125 7.940625,18.871875 7.9359375,18.8625 C7.9265625,18.853125 7.9171875,18.8390625 7.9078125,18.8296875 C7.8984375,18.815625 7.8890625,18.8015625 7.875,18.7921875 C7.8703125,18.7828125 7.8609375,18.7734375 7.85625,18.76875 C7.846875,18.7546875 7.8375,18.740625 7.8234375,18.7265625 C7.81875,18.7171875 7.8140625,18.7125 7.809375,18.703125 C7.8,18.6890625 7.790625,18.6703125 7.78125,18.65625 C7.7765625,18.646875 7.771875,18.6421875 7.7671875,18.6328125 C7.7578125,18.61875 7.7484375,18.6 7.7390625,18.5859375 C7.734375,18.5765625 7.7296875,18.5671875 7.725,18.5578125 C7.715625,18.54375 7.7109375,18.5296875 7.7015625,18.515625 C7.696875,18.50625 7.6921875,18.496875 7.6875,18.4875 C7.6828125,18.4734375 7.6734375,18.459375 7.66875,18.4453125 C7.6640625,18.43125 7.659375,18.421875 7.6546875,18.4078125 C7.65,18.39375 7.6453125,18.384375 7.640625,18.3703125 C7.6359375,18.35625 7.63125,18.3421875 7.6265625,18.328125 C7.621875,18.31875 7.6171875,18.3046875 7.6171875,18.2953125 C7.6125,18.28125 7.6078125,18.2625 7.603125,18.2484375 C7.5984375,18.2390625 7.5984375,18.2296875 7.59375,18.2203125 C7.5890625,18.2015625 7.584375,18.1875 7.5796875,18.16875 C7.5796875,18.159375 7.575,18.15 7.575,18.140625 C7.5703125,18.121875 7.565625,18.103125 7.565625,18.0890625 C7.565625,18.0796875 7.5609375,18.0703125 7.5609375,18.0609375 C7.55625,18.0421875 7.55625,18.0234375 7.5515625,18.009375 C7.5515625,18 7.546875,17.9859375 7.546875,17.9765625 C7.546875,17.9578125 7.5421875,17.94375 7.5421875,17.925 C7.5421875,17.9109375 7.5421875,17.896875 7.5375,17.8828125 C7.5375,17.86875 7.5375,17.8546875 7.5328125,17.8453125 C7.528125,17.7890625 7.528125,17.7328125 7.5328125,17.6765625 C7.5328125,17.6625 7.5328125,17.6484375 7.5375,17.6390625 C7.5375,17.625 7.5375,17.6109375 7.5421875,17.596875 C7.5421875,17.578125 7.546875,17.5640625 7.546875,17.5453125 C7.546875,17.5359375 7.5515625,17.521875 7.5515625,17.5125 C7.55625,17.49375 7.55625,17.475 7.5609375,17.4609375 C7.5609375,17.4515625 7.565625,17.4421875 7.565625,17.4328125 C7.5703125,17.4140625 7.575,17.3953125 7.575,17.38125 C7.575,17.371875 7.5796875,17.3625 7.5796875,17.353125 C7.584375,17.334375 7.5890625,17.3203125 7.59375,17.3015625 C7.5984375,17.2921875 7.5984375,17.2828125 7.603125,17.2734375 C7.6078125,17.259375 7.6125,17.240625 7.6171875,17.2265625 C7.621875,17.2171875 7.6265625,17.203125 7.6265625,17.19375 C7.63125,17.1796875 7.6359375,17.165625 7.640625,17.1515625 C7.6453125,17.1375 7.65,17.128125 7.6546875,17.1140625 C7.659375,17.1 7.6640625,17.090625 7.66875,17.0765625 C7.6734375,17.0625 7.6828125,17.0484375 7.6875,17.034375 C7.6921875,17.025 7.696875,17.015625 7.7015625,17.00625 C7.7109375,16.9921875 7.715625,16.978125 7.725,16.9640625 C7.7296875,16.9546875 7.734375,16.9453125 7.7390625,16.9359375 C7.7484375,16.921875 7.7578125,16.903125 7.7671875,16.8890625 C7.771875,16.8796875 7.7765625,16.875 7.78125,16.865625 C7.790625,16.8515625 7.8,16.8328125 7.809375,16.81875 C7.8140625,16.809375 7.81875,16.8046875 7.8234375,16.7953125 C7.8328125,16.78125 7.8421875,16.7671875 7.85625,16.753125 C7.8609375,16.74375 7.8703125,16.734375 7.875,16.7296875 C7.884375,16.715625 7.89375,16.7015625 7.9078125,16.6921875 C7.9171875,16.6828125 7.9265625,16.66875 7.9359375,16.659375 C7.9453125,16.65 7.9546875,16.640625 7.9640625,16.63125 C7.9828125,16.6125 8.0015625,16.5890625 8.0203125,16.5703125 L16.340625,8.25 C17.0015625,7.5890625 18.0703125,7.5890625 18.7265625,8.25 C19.3875,8.9109375 19.3875,9.9796875 18.7265625,10.6359375 L13.2890625,16.0734375 L38.79375,16.0734375 C39.7265625,16.0734375 40.48125,16.828125 40.48125,17.7609375 C40.48125,18.69375 39.7265625,19.4484375 38.79375,19.4484375 L9.215625,19.4484375 C9.215625,19.4484375 9.215625,19.4484375 9.215625,19.4484375 C9.1875,19.4484375 9.159375,19.4484375 9.13125,19.4484375 C9.1125,19.4390625 9.0984375,19.4390625 9.0890625,19.434375 Z M38.9109375,28.565625 C38.925,28.565625 38.9390625,28.565625 38.953125,28.5703125 C38.971875,28.5703125 38.9859375,28.575 39.0046875,28.575 C39.0140625,28.575 39.028125,28.5796875 39.0375,28.5796875 C39.05625,28.584375 39.075,28.584375 39.0890625,28.5890625 C39.0984375,28.5890625 39.1078125,28.59375 39.1171875,28.59375 C39.1359375,28.5984375 39.1546875,28.603125 39.16875,28.6078125 C39.178125,28.6078125 39.1875,28.6125 39.196875,28.6125 C39.215625,28.6171875 39.2296875,28.621875 39.2484375,28.6265625 C39.2578125,28.63125 39.2671875,28.63125 39.2765625,28.6359375 C39.290625,28.640625 39.309375,28.6453125 39.3234375,28.65 C39.3328125,28.6546875 39.346875,28.659375 39.35625,28.659375 C39.3703125,28.6640625 39.384375,28.66875 39.3984375,28.6734375 C39.4125,28.678125 39.421875,28.6828125 39.4359375,28.6875 C39.45,28.6921875 39.459375,28.696875 39.4734375,28.7015625 C39.4875,28.70625 39.5015625,28.715625 39.515625,28.7203125 C39.525,28.725 39.534375,28.7296875 39.5484375,28.734375 C39.5625,28.74375 39.5765625,28.7484375 39.590625,28.7578125 C39.6,28.7625 39.609375,28.7671875 39.61875,28.771875 C39.6328125,28.78125 39.6515625,28.790625 39.665625,28.8 C39.675,28.8046875 39.6796875,28.809375 39.6890625,28.8140625 C39.703125,28.8234375 39.721875,28.8328125 39.7359375,28.8421875 C39.7453125,28.846875 39.75,28.8515625 39.759375,28.85625 C39.7734375,28.865625 39.7875,28.875 39.8015625,28.8890625 C39.8109375,28.89375 39.8203125,28.903125 39.825,28.9078125 C39.8390625,28.9171875 39.853125,28.9265625 39.8625,28.940625 C39.871875,28.95 39.8859375,28.959375 39.8953125,28.96875 C39.9046875,28.978125 39.9140625,28.9875 39.9234375,28.9921875 C39.965625,29.0296875 40.003125,29.0671875 40.040625,29.109375 C40.05,29.11875 40.059375,29.128125 40.0640625,29.1375 C40.0734375,29.146875 40.0828125,29.1609375 40.0921875,29.1703125 C40.1015625,29.184375 40.1109375,29.1984375 40.125,29.2078125 C40.1296875,29.2171875 40.1390625,29.2265625 40.14375,29.23125 C40.153125,29.2453125 40.1625,29.259375 40.1765625,29.2734375 C40.18125,29.2828125 40.1859375,29.2875 40.190625,29.296875 C40.2,29.3109375 40.209375,29.3296875 40.21875,29.34375 C40.2234375,29.353125 40.228125,29.3578125 40.2328125,29.3671875 C40.2421875,29.38125 40.2515625,29.4 40.2609375,29.4140625 C40.265625,29.4234375 40.2703125,29.4328125 40.275,29.4421875 C40.284375,29.45625 40.2890625,29.4703125 40.2984375,29.484375 C40.303125,29.49375 40.3078125,29.503125 40.3125,29.5125 C40.3171875,29.5265625 40.3265625,29.540625 40.33125,29.5546875 C40.3359375,29.56875 40.340625,29.578125 40.3453125,29.5921875 C40.35,29.60625 40.3546875,29.615625 40.359375,29.6296875 C40.3640625,29.64375 40.36875,29.6578125 40.3734375,29.671875 C40.378125,29.68125 40.3828125,29.6953125 40.3828125,29.7046875 C40.3875,29.71875 40.3921875,29.7375 40.396875,29.7515625 C40.4015625,29.7609375 40.4015625,29.7703125 40.40625,29.7796875 C40.4109375,29.7984375 40.415625,29.8125 40.4203125,29.83125 C40.4203125,29.840625 40.425,29.85 40.425,29.859375 C40.4296875,29.878125 40.434375,29.896875 40.434375,29.9109375 C40.434375,29.9203125 40.4390625,29.9296875 40.4390625,29.9390625 C40.44375,29.9578125 40.44375,29.9765625 40.4484375,29.990625 C40.4484375,30 40.453125,30.0140625 40.453125,30.0234375 C40.453125,30.0421875 40.4578125,30.05625 40.4578125,30.075 C40.4578125,30.0890625 40.4578125,30.103125 40.4625,30.1171875 C40.4625,30.13125 40.4625,30.1453125 40.4671875,30.1546875 C40.471875,30.2109375 40.471875,30.2671875 40.4671875,30.3234375 C40.4671875,30.3375 40.4671875,30.3515625 40.4625,30.3609375 C40.4625,30.375 40.4625,30.3890625 40.4578125,30.403125 C40.4578125,30.421875 40.453125,30.4359375 40.453125,30.4546875 C40.453125,30.4640625 40.4484375,30.478125 40.4484375,30.4875 C40.44375,30.50625 40.44375,30.525 40.4390625,30.5390625 C40.4390625,30.5484375 40.434375,30.5578125 40.434375,30.5671875 C40.4296875,30.5859375 40.425,30.6046875 40.425,30.61875 C40.425,30.628125 40.4203125,30.6375 40.4203125,30.646875 C40.415625,30.665625 40.4109375,30.6796875 40.40625,30.6984375 C40.4015625,30.7078125 40.4015625,30.7171875 40.396875,30.7265625 C40.3921875,30.740625 40.3875,30.759375 40.3828125,30.7734375 C40.378125,30.7828125 40.3734375,30.796875 40.3734375,30.80625 C40.36875,30.8203125 40.3640625,30.834375 40.359375,30.8484375 C40.3546875,30.8625 40.35,30.871875 40.3453125,30.8859375 C40.340625,30.9 40.3359375,30.909375 40.33125,30.9234375 C40.3265625,30.9375 40.3171875,30.9515625 40.3125,30.965625 C40.3078125,30.975 40.303125,30.984375 40.2984375,30.99375 C40.2890625,31.0078125 40.284375,31.021875 40.275,31.0359375 C40.2703125,31.0453125 40.265625,31.0546875 40.2609375,31.0640625 C40.2515625,31.078125 40.2421875,31.096875 40.2328125,31.1109375 C40.228125,31.1203125 40.2234375,31.125 40.21875,31.134375 C40.209375,31.1484375 40.2,31.1671875 40.190625,31.18125 C40.1859375,31.190625 40.18125,31.1953125 40.1765625,31.2046875 C40.1671875,31.21875 40.1578125,31.2328125 40.14375,31.246875 C40.1390625,31.25625 40.1296875,31.265625 40.125,31.2703125 C40.115625,31.284375 40.10625,31.2984375 40.0921875,31.3078125 C40.0828125,31.3171875 40.0734375,31.33125 40.0640625,31.340625 C40.0546875,31.35 40.0453125,31.359375 40.0359375,31.36875 C40.0171875,31.3875 39.9984375,31.4109375 39.9796875,31.4296875 L31.6640625,39.759375 C31.003125,40.4203125 29.934375,40.4203125 29.278125,39.759375 C28.6171875,39.0984375 28.6171875,38.0296875 29.278125,37.3734375 L34.715625,31.9359375 L9.2109375,31.9359375 C8.278125,31.9359375 7.5234375,31.18125 7.5234375,30.2484375 C7.5234375,29.315625 8.278125,28.5609375 9.2109375,28.5609375 L38.7890625,28.5609375 C38.7890625,28.5609375 38.7890625,28.5609375 38.7890625,28.5609375 C38.8171875,28.5609375 38.8453125,28.5609375 38.8734375,28.5609375 C38.8875,28.5609375 38.9015625,28.5609375 38.9109375,28.565625 Z" id="path-1"></path>
    </defs>
    <g id="Screen" stroke="none" stroke-width="1" fill="none" fill-rule="evenodd">
        <g id="2.7_member-transfer" transform="translate(-351.000000, -538.000000)">
            <g id="Content" transform="translate(0.000000, 184.000000)">
                <g id="icon/swap" transform="translate(351.000000, 354.000000)">
                    <rect id="@bound" x="0" y="0" width="48" height="48"></rect>
                    <mask id="mask-2" fill="white">
                        <use xlink:href="#path-1"></use>
                    </mask>
                    <g id="Mask" fill-rule="nonzero" transform="translate(24.002344, 24.004687) rotate(-270.000000) translate(-24.002344, -24.004687) "></g>
                    <g id="color/grayDarker" mask="url(#mask-2)" fill="#595959" fill-rule="evenodd">
                        <rect id="color" x="0" y="0" width="48" height="48"></rect>
                    </g>
                </g>
            </g>
        </g>
    </g>
</svg>