<?xml version="1.0" encoding="UTF-8"?>
<svg width="48px" height="48px" viewBox="0 0 48 48" version="1.1" xmlns="http://www.w3.org/2000/svg" xmlns:xlink="http://www.w3.org/1999/xlink">
    <!-- Generator: sketchtool 50.2 (55047) - http://www.bohemiancoding.com/sketch -->
    <title>C19BAB10-B2ED-48BC-B529-1F7B35E4EBC6</title>
    <desc>Created with sketchtool.</desc>
    <defs></defs>
    <g id="Screen" stroke="none" stroke-width="1" fill="none" fill-rule="evenodd">
        <g id="2.5_mb_member-deposit" transform="translate(-64.000000, -578.000000)" fill="#9254DE" fill-rule="nonzero">
            <g id="Content" transform="translate(0.000000, 184.000000)">
                <g id="input" transform="translate(40.000000, 370.000000)">
                    <g id="icon/card-point" transform="translate(24.000000, 24.000000)">
                        <path d="M44.125,8 L3.875,8 C1.575,8 1,9.50743802 1,10.9090909 L1,16.7272727 L47,16.7272727 L47,10.9090909 C47,9.34876033 46.2420455,8 44.125,8 Z M1,37.0909091 C1,38.492562 2.07159091,40 3.875,40 L44.125,40 C46.1113636,40 47,38.8892562 47,37.0909091 L47,22.5454545 L1,22.5454545 L1,37.0909091 Z M32.625,25.4545455 L41.25,25.4545455 C42.8443182,25.4545455 44.125,26.7504132 44.125,28.3636364 C44.125,29.9768595 42.8443182,31.2727273 41.25,31.2727273 L32.625,31.2727273 C31.0306818,31.2727273 29.75,29.9768595 29.75,28.3636364 C29.75,26.7504132 31.0306818,25.4545455 32.625,25.4545455 Z" id="Shape"></path>
                    </g>
                </g>
            </g>
        </g>
    </g>
</svg>