<?xml version="1.0" encoding="utf-8"?>
<!-- Generator: Adobe Illustrator 16.0.0, SVG Export Plug-In . SVG Version: 6.00 Build 0)  -->
<!DOCTYPE svg PUBLIC "-//W3C//DTD SVG 1.1//EN" "http://www.w3.org/Graphics/SVG/1.1/DTD/svg11.dtd">
<svg version="1.1" id="圖層_1" xmlns="http://www.w3.org/2000/svg" xmlns:xlink="http://www.w3.org/1999/xlink" x="0px" y="0px"
	 width="18px" height="18px" viewBox="0 0 18 18" enable-background="new 0 0 18 18" xml:space="preserve">
<title>F47F8086-8B6D-421B-8A08-271ED8BE1F4D</title>
<desc>Created with sketchtool.</desc>
<g id="Symbols">
	<g id="icon_x2F_home">
		<rect id="_x40_bound" fill="none" width="18" height="18"/>
		<g id="Mask">
			<path id="path-1_1_" fill="#FFFFFF" d="M1.603,8.417c-0.171,0-0.343-0.061-0.457-0.245C0.917,7.927,0.974,7.498,1.203,7.314
				l6.741-5.946c0.628-0.49,1.542-0.49,2.113,0l6.74,5.885c0.229,0.184,0.286,0.613,0.058,0.858c-0.229,0.245-0.571,0.306-0.8,0.061
				L9.371,2.41c-0.171-0.123-0.514-0.123-0.685,0L1.945,8.295C1.831,8.417,1.717,8.417,1.603,8.417z M14.455,17h-3.713
				c-0.343,0-0.571-0.245-0.571-0.613v-2.881c0-0.43-0.686-0.858-1.199-0.858c-0.514,0-1.143,0.368-1.143,0.858v2.881
				C7.829,16.755,7.601,17,7.258,17H3.659c-0.856,0-1.485-0.674-1.485-1.533V9.644c0-0.368,0.229-0.613,0.571-0.613
				s0.571,0.245,0.571,0.613v5.823c0,0.185,0.114,0.307,0.342,0.307h3.085v-2.268c0-1.227,1.2-2.084,2.285-2.084
				s2.343,0.857,2.343,2.084v2.268h3.142c0.171,0,0.285,0,0.285-0.367V9.644c0-0.368,0.229-0.613,0.571-0.613
				s0.571,0.245,0.571,0.613v5.823C15.883,16.387,15.312,17,14.455,17z"/>
		</g>
		<defs>
			<filter id="Adobe_OpacityMaskFilter" filterUnits="userSpaceOnUse" x="-1.125" y="-1.286" width="20" height="21">
				<feColorMatrix  type="matrix" values="1 0 0 0 0  0 1 0 0 0  0 0 1 0 0  0 0 0 1 0"/>
			</filter>
		</defs>
		<mask maskUnits="userSpaceOnUse" x="-1.125" y="-1.286" width="20" height="21" id="mask-2">
			<g filter="url(#Adobe_OpacityMaskFilter)">
				<path id="path-1" fill="#FFFFFF" d="M1.603,8.417c-0.171,0-0.343-0.061-0.457-0.245C0.917,7.927,0.974,7.498,1.203,7.314
					l6.741-5.946c0.628-0.49,1.542-0.49,2.113,0l6.74,5.885c0.229,0.184,0.286,0.613,0.058,0.858
					c-0.229,0.245-0.571,0.306-0.8,0.061L9.371,2.41c-0.171-0.123-0.514-0.123-0.685,0L1.945,8.295
					C1.831,8.417,1.717,8.417,1.603,8.417z M14.455,17h-3.713c-0.343,0-0.571-0.245-0.571-0.613v-2.881
					c0-0.43-0.686-0.858-1.199-0.858c-0.514,0-1.143,0.368-1.143,0.858v2.881C7.829,16.755,7.601,17,7.258,17H3.659
					c-0.856,0-1.485-0.674-1.485-1.533V9.644c0-0.368,0.229-0.613,0.571-0.613s0.571,0.245,0.571,0.613v5.823
					c0,0.185,0.114,0.307,0.342,0.307h3.085v-2.268c0-1.227,1.2-2.084,2.285-2.084s2.343,0.857,2.343,2.084v2.268h3.142
					c0.171,0,0.285,0,0.285-0.367V9.644c0-0.368,0.229-0.613,0.571-0.613s0.571,0.245,0.571,0.613v5.823
					C15.883,16.387,15.312,17,14.455,17z"/>
			</g>
		</mask>
		<g id="color_x2F_grayDarker" mask="url(#mask-2)">
			<g id="color" transform="translate(-1.125000, -1.285714)">
				<rect y="0" fill="#FFFFFF" width="20" height="21"/>
			</g>
		</g>
	</g>
</g>
</svg>
