<?xml version="1.0" encoding="UTF-8"?>
<svg width="84px" height="84px" viewBox="0 0 84 84" version="1.1" xmlns="http://www.w3.org/2000/svg" xmlns:xlink="http://www.w3.org/1999/xlink">
    <!-- Generator: sketchtool 50.2 (55047) - http://www.bohemiancoding.com/sketch -->
    <title>E2E5FA83-AA31-4176-8181-F5B6CEA72A0B</title>
    <desc>Created with sketchtool.</desc>
    <defs></defs>
    <g id="Screen" stroke="none" stroke-width="1" fill="none" fill-rule="evenodd">
        <g id="2.4_mb_member-overview" transform="translate(-583.000000, -782.000000)" fill="#FFFFFF">
            <g id="grid/hasline" transform="translate(500.000000, 752.000000)">
                <g id="icon/transfer" transform="translate(83.000000, 30.000000)">
                    <path d="M46.0956596,50.4036478 L42.1800851,46.4880734 C41.3819749,45.6905272 41.3815177,44.3969921 42.1790639,43.5988819 C42.97661,42.8007717 44.2701451,42.8003145 45.0682553,43.5978606 L52.6052766,51.1348819 C53.4012921,51.9322642 53.4012921,53.2236273 52.6052766,54.0210095 L45.3337872,61.2924989 C44.536241,62.090609 43.242706,62.0910663 42.4445958,61.2935201 C41.6464856,60.495974 41.6460284,59.2024389 42.4435745,58.4043287 L46.3591489,54.4887542 L34.0425532,54.4887542 C32.9144822,54.4887542 32,53.574272 32,52.446201 C32,51.3181301 32.9144822,50.4036478 34.0425532,50.4036478 L46.0956596,50.4036478 Z" id="path"></path>
                    <path d="M46.0956596,30.4036478 L42.1800851,26.4880734 C41.3819749,25.6905272 41.3815177,24.3969921 42.1790639,23.5988819 C42.97661,22.8007717 44.2701451,22.8003145 45.0682553,23.5978606 L52.6052766,31.1348819 C53.4012921,31.9322642 53.4012921,33.2236273 52.6052766,34.0210095 L45.3337872,41.2924989 C44.536241,42.090609 43.242706,42.0910663 42.4445958,41.2935201 C41.6464856,40.495974 41.6460284,39.2024389 42.4435745,38.4043287 L46.3591489,34.4887542 L34.0425532,34.4887542 C32.9144822,34.4887542 32,33.574272 32,32.446201 C32,31.3181301 32.9144822,30.4036478 34.0425532,30.4036478 L46.0956596,30.4036478 Z" id="path" transform="translate(42.601144, 32.445690) scale(-1, 1) translate(-42.601144, -32.445690) "></path>
                    <path d="M42.5,73 C25.6553151,73 12,59.3446849 12,42.5 C12,25.6553151 25.6553151,12 42.5,12 C59.3446849,12 73,25.6553151 73,42.5 C73,59.3446849 59.3446849,73 42.5,73 Z M42.5,68 C56.5832611,68 68,56.5832611 68,42.5 C68,28.4167389 56.5832611,17 42.5,17 C28.4167389,17 17,28.4167389 17,42.5 C17,56.5832611 28.4167389,68 42.5,68 Z" id="path" fill-rule="nonzero"></path>
                </g>
            </g>
        </g>
    </g>
</svg>