<svg xmlns="http://www.w3.org/2000/svg" width="30" height="30" viewBox="0 0 30 30">
    <defs>
        <filter id="a" width="106.1%" height="114.2%" x="-3.1%" y="-7.1%" filterUnits="objectBoundingBox">
            <feOffset in="SourceAlpha" result="shadowOffsetOuter1"/>
            <feGaussianBlur in="shadowOffsetOuter1" result="shadowBlurOuter1" stdDeviation="3"/>
            <feColorMatrix in="shadowBlurOuter1" result="shadowMatrixOuter1" values="0 0 0 0 0 0 0 0 0 0 0 0 0 0 0 0 0 0 0.05 0"/>
            <feMerge>
                <feMergeNode in="shadowMatrixOuter1"/>
                <feMergeNode in="SourceGraphic"/>
            </feMerge>
        </filter>
    </defs>
    <g fill="none" fill-rule="evenodd" filter="url(#a)" transform="translate(-276 -228)">
        <path d="M276 228h30v30h-30z"/>
        <path fill="#67C23A" d="M290.23 244.683l-11.833-11.833a.808.808 0 0 1-.254-.585c0-.22.085-.415.254-.584l1.27-1.27a.803.803 0 0 1 .584-.253c.219 0 .414.085.584.254l9.98 9.979 9.98-9.98a.801.801 0 0 1 .583-.253c.22 0 .415.085.584.254l1.271 1.269a.8.8 0 0 1 0 1.169l-11.834 11.833a.798.798 0 0 1-1.17 0zm11.732-4.52l1.271 1.269a.8.8 0 0 1 0 1.169l-11.834 11.834a.8.8 0 0 1-1.17 0l-11.832-11.834a.804.804 0 0 1-.254-.585c0-.22.085-.415.254-.584l1.27-1.27a.805.805 0 0 1 .584-.254c.219 0 .414.086.584.254l9.98 9.981 9.98-9.98a.803.803 0 0 1 .583-.255c.22 0 .415.086.584.254z"/>
    </g>
</svg>
