<?xml version="1.0" encoding="UTF-8"?>
<svg width="64px" height="64px" viewBox="0 0 64 64" version="1.1" xmlns="http://www.w3.org/2000/svg" xmlns:xlink="http://www.w3.org/1999/xlink">
    <!-- Generator: sketchtool 50.2 (55047) - http://www.bohemiancoding.com/sketch -->
    <title>D5D5F2F9-C49F-493A-A509-0097965888C0</title>
    <desc>Created with sketchtool.</desc>
    <defs>
        <linearGradient x1="50%" y1="0%" x2="50%" y2="100%" id="linearGradient-1">
            <stop stop-color="#0088DA" offset="0%"></stop>
            <stop stop-color="#0050B3" offset="100%"></stop>
        </linearGradient>
    </defs>
    <g id="Screen" stroke="none" stroke-width="1" fill="none" fill-rule="evenodd">
        <g id="2.4_mb_member-overview" transform="translate(-343.000000, -1344.000000)">
            <g id="grid/hasline" transform="translate(250.000000, 1314.000000)">
                <g id="icon/chartbar" transform="translate(93.000000, 30.000000)">
                    <path d="M36.0003138,57 L28.0015692,57 C26.8977424,57 26.001883,56.0589474 26.001883,54.8947368 L26.001883,31.7368421 C26.001883,30.5747368 26.8977424,29.6315789 28.0015692,29.6315789 L36.0003138,29.6315789 C37.1061403,29.6315789 38,30.5747368 38,31.7368421 L38,54.8947368 C38,56.0589474 37.1061403,57 36.0003138,57 Z M30.0012554,52.7894737 L34.0006277,52.7894737 L34.0006277,33.8421053 L30.0012554,33.8421053 L30.0012554,52.7894737 Z M18.9984308,57 L10.9996862,57 C9.8958594,57 9,56.0589474 9,54.8947368 L9,19.1052632 C9,17.9431579 9.8958594,17 10.9996862,17 L18.9984308,17 C20.1022576,17 20.998117,17.9431579 20.998117,19.1052632 L20.998117,54.8947368 C20.998117,56.0589474 20.1022576,57 18.9984308,57 Z M12.9993723,52.7894737 L16.9987446,52.7894737 L16.9987446,21.2105263 L12.9993723,21.2105263 L12.9993723,52.7894737 Z" id="path" fill="url(#linearGradient-1)" fill-rule="nonzero"></path>
                    <path d="M53,57 L45,57 C43.894,57 43,56.06875 43,54.9166667 L43,9.08333333 C43,7.93333333 43.894,7 45,7 L53,7 C54.106,7 55,7.93333333 55,9.08333333 L55,54.9166667 C55,56.06875 54.106,57 53,57 Z M47,52.8333333 L51,52.8333333 L51,11.1666667 L47,11.1666667 L47,52.8333333 Z" id="path" fill="#FAAD14"></path>
                </g>
            </g>
        </g>
    </g>
</svg>