<?xml version="1.0" encoding="UTF-8"?>
<svg width="64px" height="64px" viewBox="0 0 64 64" version="1.1" xmlns="http://www.w3.org/2000/svg" xmlns:xlink="http://www.w3.org/1999/xlink">
    <!-- Generator: sketchtool 50.2 (55047) - http://www.bohemiancoding.com/sketch -->
    <title>1C546DEA-8F4F-4D8C-95F1-2D29792ACFFC</title>
    <desc>Created with sketchtool.</desc>
    <defs>
        <linearGradient x1="50%" y1="0%" x2="50%" y2="100%" id="linearGradient-1">
            <stop stop-color="#0088DA" offset="0%"></stop>
            <stop stop-color="#0050B3" offset="100%"></stop>
        </linearGradient>
    </defs>
    <g id="Screen" stroke="none" stroke-width="1" fill="none" fill-rule="evenodd">
        <g id="2.4_mb_member-overview" transform="translate(-343.000000, -1884.000000)">
            <g id="grid/hasline" transform="translate(250.000000, 1854.000000)">
                <g id="icon/comment" transform="translate(93.000000, 30.000000)">
                    <path d="M58.9546649,28.1469222 C58.9546649,15.4136639 46.8595992,5.05948713 31.9892957,5.05948713 C17.1189923,5.05948713 5.01357122,15.4136639 5.01357122,28.1469222 C5.01357122,35.1496971 8.8036346,41.7387187 15.4207125,46.2279422 C16.3009185,46.8278845 17.5021408,46.6003202 18.0923966,45.7210944 C18.6930077,44.8418686 18.4651897,43.641984 17.5849838,43.0523855 C12.0448638,39.2975741 8.86576687,33.8670618 8.86576687,28.1572661 C8.86576687,17.5444935 19.2314868,8.9177368 31.9789405,8.9177368 C44.7263942,8.9177368 55.0921141,17.5548373 55.0921141,28.1572661 C55.0921141,38.7596949 44.7263942,47.3967953 31.9789405,47.3967953 C31.8546761,47.3967953 31.7614778,47.4381706 31.6475688,47.4692022 C30.7362967,47.3037008 29.8146692,47.7795172 29.493653,48.6794306 C29.1208598,49.7241578 26.6977045,51.4826094 23.8292686,53.1169349 C24.8751604,49.6207194 24.3781029,48.8656196 24.0363759,48.3691156 C23.6325167,47.7691733 22.959418,47.4071392 22.2345425,47.4071392 C21.16794,47.4071392 20.3084446,48.2656773 20.3084446,49.3310921 C20.3084446,49.6827825 20.4016429,50.0034412 20.5673288,50.2930686 C20.3705769,51.3895149 19.5317923,53.9547854 18.5790988,56.2924917 C18.2787932,57.01656 18.4548344,57.8544104 19.0243795,58.4026336 C19.3868173,58.7543239 19.8735194,58.9405129 20.3602215,58.9405129 C20.6191056,58.9405129 20.8883451,58.8887937 21.1472292,58.7750116 C23.3425664,57.7923474 30.0321319,54.6167908 32.4449319,51.2240135 C47.0977726,51.006793 58.9546649,40.7560546 58.9546649,28.1469222 Z" id="path" fill="url(#linearGradient-1)" fill-rule="nonzero"></path>
                    <path d="M39.5487118,26.2229693 L24.1399295,26.2229693 C23.0733269,26.2229693 22.2138316,25.3644312 22.2138316,24.2990163 C22.2138316,23.2336015 23.0733269,22.3750634 24.1399295,22.3750634 L39.5487118,22.3750635 C40.6153144,22.3750635 41.4748097,23.2336016 41.4748097,24.2990164 C41.4748097,25.3644312 40.6153144,26.2229693 39.5487118,26.2229693 Z" id="path" fill="#FAAD14"></path>
                    <path d="M35.2817975,33.918781 L24.7514001,33.918781 C23.7957782,33.918781 23.0257138,33.1495743 23.0257138,32.1950164 C23.0257138,31.2404586 23.805056,30.4712518 24.7514001,30.4712518 L35.2817975,30.4712518 C36.2374195,30.4712518 37.0074838,31.2404586 37.0074838,32.1950164 C37.0074838,33.1495743 36.2374195,33.918781 35.2817975,33.918781 Z" id="path" fill="#FAAD14"></path>
                </g>
            </g>
        </g>
    </g>
</svg>