<?xml version="1.0" encoding="UTF-8"?>
<svg width="64px" height="64px" viewBox="0 0 64 64" version="1.1" xmlns="http://www.w3.org/2000/svg" xmlns:xlink="http://www.w3.org/1999/xlink">
    <!-- Generator: sketchtool 50.2 (55047) - http://www.bohemiancoding.com/sketch -->
    <title>C6FDB5FA-F30B-475F-907C-BCE603A87D28</title>
    <desc>Created with sketchtool.</desc>
    <defs>
        <rect id="path-1" x="-7.10542736e-15" y="0" width="64" height="64"></rect>
        <linearGradient x1="50%" y1="0%" x2="50%" y2="100%" id="linearGradient-3">
            <stop stop-color="#0088DA" offset="0%"></stop>
            <stop stop-color="#0050B3" offset="100%"></stop>
        </linearGradient>
    </defs>
    <g id="Screen" stroke="none" stroke-width="1" fill="none" fill-rule="evenodd">
        <g id="2.4_mb_member-overview" transform="translate(-93.000000, -1884.000000)">
            <g id="grid/hasline" transform="translate(0.000000, 1854.000000)">
                <g id="icon/pocket" transform="translate(93.000000, 30.000000)">
                    <mask id="mask-2" fill="white">
                        <use xlink:href="#path-1"></use>
                    </mask>
                    <g id="Mask-"></g>
                    <path d="M51.0716313,53.7692308 L12.7519748,53.7692308 C9.58071938,53.7692308 7,51.2536564 7,48.1624528 L7,14.3760087 C7,11.2848052 9.58071938,8.76923077 12.7519748,8.76923077 L51.2480252,8.76923077 C54.4192806,8.76923077 57,11.2848052 57,14.3760087 L57,19.8687822 C57,20.9004294 56.1429557,21.7377082 55.0826751,21.7377082 C54.0223944,21.7377082 53.1653501,20.9004294 53.1653501,19.8687822 L53.1653501,14.3760087 C53.1653501,13.3462305 52.3063885,12.5070828 51.2480252,12.5070828 L12.7519748,12.5070828 C11.6955288,12.5070828 10.8346499,13.3462305 10.8346499,14.3760087 L10.8346499,48.1624528 C10.8346499,49.1940999 11.6955288,50.0313788 12.7519748,50.0313788 L51.0716313,50.0313788 C52.1299946,50.0313788 52.9889562,49.1940999 52.9889562,48.1624528 L52.9889562,42.3837336 C52.9889562,41.3502176 53.8460005,40.5148076 54.9062812,40.5148076 C55.9665619,40.5148076 56.8236061,41.3502176 56.8236061,42.3837336 L56.8236061,48.1624528 C56.8236061,51.2536564 54.244804,53.7692308 51.0716313,53.7692308 Z" id="path" fill="url(#linearGradient-3)" fill-rule="nonzero" mask="url(#mask-2)"></path>
                    <path d="M37.9251476,31.4339372 C37.9251476,32.3175928 38.641492,33.0339372 39.5251477,33.0339372 C40.4088033,33.0339372 41.1251477,32.3175928 41.1251477,31.4339372 C41.1251477,30.5502816 40.4088033,29.8339371 39.5251477,29.8339371 C38.641492,29.8339371 37.9251476,30.5502816 37.9251476,31.4339372 Z" id="path" fill="url(#linearGradient-3)" mask="url(#mask-2)"></path>
                    <path d="M55.1428571,38.7692308 L35.8571429,38.7692308 C33.7299286,38.7692308 32,37.0873558 32,35.0192308 L32,27.5192308 C32,25.4511058 33.7299286,23.7692308 35.8571429,23.7692308 L55.1428571,23.7692308 C57.2700714,23.7692308 59,25.4511058 59,27.5192308 L59,35.0192308 C59,37.0873558 57.2700714,38.7692308 55.1428571,38.7692308 Z M34.9305,27.1589417 L34.9305,35.3795198 L56.0733571,35.3795198 L56.0691294,27.1589417 L34.9305,27.1589417 Z" id="path" fill="#FAAD14" fill-rule="nonzero" mask="url(#mask-2)"></path>
                </g>
            </g>
        </g>
    </g>
</svg>