<svg xmlns="http://www.w3.org/2000/svg" xmlns:xlink="http://www.w3.org/1999/xlink" width="160" height="48" viewBox="0 0 160 48">
    <defs>
        <path id="a" d="M0 .02h37.315v36.908H0z"/>
    </defs>
    <g fill="none" fill-rule="evenodd">
        <g transform="translate(6 5.008)">
            <mask id="b" fill="#fff">
                <use xlink:href="#a"/>
            </mask>
            <path fill="#FADB14" d="M13.806 36.137c-.99-.44-2.362-.883-3.586-1.053V13.057c0-.25-.373-.439-.546-.48-.173-.042-.397-.093-.91 0-2.138.385-7.417 1.548-8.492 1.743-.126.022-.14.069-.14.069s-.04.045-.02.16l.118.681c.016.1.057.124.057.124s.022.052.11.064c.756.108 4.752.7 4.66.725l.006 18.94c-1.141.144-3.89.751-4.632 1.145-.193.101-.337.216-.407.354-.064.122-.005.32.243.32H14.19c.115 0 .257-.06.232-.236-.03-.226-.232-.357-.617-.529m17-3.747c-1.566 2.61-5.17 3.303-7.875 2.469-1.255-.387-2.439-1.233-3.099-2.41-.735-1.311-.988-2.937-.979-4.433.01-1.5.197-3.136.915-4.467.695-1.287 1.666-2.339 2.802-3.22.201-.156.373-.253.373-.253l.657.324c.337.163.67.329.998.51 1.35.745 2.67 1.573 3.873 2.547 1.31 1.06 2.465 2.304 2.898 4.003.41 1.606.298 3.493-.563 4.93M19.762 9.04c-.582-1.232-.608-2.849-.024-4.086.552-1.17 1.69-2.16 2.886-2.569 1.26-.432 2.538-.533 3.697-.32 1.394.258 2.56.79 3.463 1.719 2.036 2.092 2.189 5.579.803 8.083-.349.632-.753 1.25-1.252 1.77-.475.497-1.053.902-1.605 1.306-.134.1-.445.258-.445.258l-.427-.207c-.29-.14-.579-.285-.87-.423-1.165-.557-2.238-1.38-3.26-2.171-1.188-.92-2.306-1.964-2.966-3.36m17.416 16.295c-.714-4.225-4.392-6.781-7.706-8.815 1.933-1.372 4.146-2.514 5.547-4.519 1.105-1.583 1.479-3.66 1.062-5.556-.404-1.835-1.923-3.402-3.302-4.249-1.585-.972-3.392-1.735-5.407-2.015-1.866-.259-4.108-.258-6.032.359-2.567.823-4.361 2.516-5.09 3.258-1.326 1.353-2.136 3.114-2.216 5.04-.043 1.076.027 2.176.401 3.192.386 1.047 1.01 2.043 1.708 2.898 1.305 1.594 2.994 2.785 4.66 3.94-1.922 1.096-3.902 2.093-5.446 3.734-1.171 1.247-2.04 2.746-2.26 4.484-.213 1.669.02 3.433.899 4.875 1.916 3.14 5.43 4.619 8.912 4.887 3.238.25 6.625-.026 9.434-1.841 1.581-1.021 3.014-2.337 3.946-4.017.917-1.655 1.239-3.806.89-5.655" mask="url(#b)"/>
        </g>
        <path fill="#FFF" d="M64.644 26.062H49.081v-3.01h10.737v-4.817h-8.044v-2.846h8.044v-2.305h6.176v2.305h8.03v2.846h-8.03v5.61zM64.147 26.123v10.83c0 .647.59 1.17 1.32 1.17h16.537v3.796H60.37c-1.285 0-2.327-.893-2.327-2.035v-11.48l6.105-2.281zM92.344 20.03h17.536c.73 0 1.32.524 1.32 1.172v4.865h5.28v-5.759c0-1.142-1.008-2.035-2.293-2.035h-10.28v-1.851h9.417v-2.328h-9.417v-1.278h-5.28v5.457h-10.59c-1.251 0-2.293.893-2.293 2.035v14.459c0 2.682-.52 4.994-1.771 7.213h5.349c1.146-2.033 1.702-4.316 1.702-7.492V21.202c0-.648.59-1.172 1.32-1.172"/>
        <path fill="#FFF" d="M112.693 37.883v-1.185c0-1.111-1.008-2.066-2.257-2.066H96.337c-1.286 0-2.328.955-2.328 2.066v.617c0 2.128-.695 3.247-2.639 4.665h5.8c1.423-.894 2.143-2.43 2.143-4.209 0-.487.273-.836.642-.836h6.825c.587 0 .67.212.67.86v2.152c0 1.139.598 2.033 1.883 2.033h7.214v-1.972h-2.535c-.729 0-1.319-.893-1.319-2.125M135.29 18.55c-.728 0-1.318.524-1.318 1.171v14.891c0 2.56 0 5.458-.66 7.307h-5.243c.798-1.91.832-4.132.832-7.307V18.86c0-1.143 1.042-2.067 2.328-2.067h23.918v1.757H135.29z"/>
        <path fill="#FFF" d="M155.147 41.63h-5.27c-4.415-11.131-5.11-18.535-5.709-29.166h4.957c.315 10.63 2.455 20.527 6.022 29.166M125.776 13.864h-5.175v5.056h-2.049v1.758h2.05v17.779l-2.05.007v1.697h9.341v-1.697h-2.117V20.678h2.117V18.92h-2.117z"/>
        <path fill="#FADB14" d="M97.018 34.001h6.257l6.393-7.935v-3.021H94.205v3.007h9.163zM134.546 37.221h5.569l4.863-9.323-.67-4.854h-9.687v2.966h6.518zM68.025 37.393h6.454L82.5 26.067v-3.015h-6.964l-6.199 3.008h7.161z"/>
        <path fill="#FFF" d="M81.106 15.553v3.417c-3.195 1.942-29.003 14.553-32.024 15.662v-3.448c4.584-1.697 27.023-12.734 32.024-15.631M151.28 23.045L142.49 39.71h3.868l8.788-16.666zM155.147 14.501c0 1.126-.888 2.038-1.983 2.038-1.097 0-1.985-.912-1.985-2.038 0-1.125.888-2.037 1.985-2.037 1.095 0 1.983.912 1.983 2.037"/>
    </g>
</svg>
