<?xml version="1.0" encoding="UTF-8"?>
<svg width="80px" height="80px" viewBox="0 0 80 80" version="1.1" xmlns="http://www.w3.org/2000/svg" xmlns:xlink="http://www.w3.org/1999/xlink">
    <!-- Generator: sketchtool 50.2 (55047) - http://www.bohemiancoding.com/sketch -->
    <title>F36AE48C-32D0-4400-A611-9D89C5F9A3D8</title>
    <desc>Created with sketchtool.</desc>
    <defs></defs>
    <g id="Screen" stroke="none" stroke-width="1" fill="none" fill-rule="evenodd">
        <g id="2.10_member-history--pocket" transform="translate(-40.000000, -420.000000)" fill="#08979C" fill-rule="nonzero">
            <g id="Content" transform="translate(0.000000, 184.000000)">
                <g id="transation" transform="translate(0.000000, 194.000000)">
                    <g id="pic_deposit" transform="translate(40.000000, 42.000000)">
                        <path d="M40.0000023,0 C62.0896019,0 80,17.9103981 80,39.9999977 C80,62.0927988 62.091205,80.0015984 40.0000023,80.0015984 C17.9087997,80.0015984 0,62.0927988 0,39.9999977 C4.68749993e-06,17.9087997 17.9088043,0 40.0000023,0 Z M17.0645785,21.8686051 L17.0645785,25.4629707 L29.3053251,25.4629707 C26.0344914,33.1863892 21.695115,39.8896376 16.2872884,45.5728084 C17.1940652,46.7713927 17.9710778,47.9371429 18.6189737,49.0702439 C20.5778298,47.0628302 22.423755,44.87691 24.1563794,42.5127605 L24.1563794,64.1284359 L27.896695,64.1284359 L27.896695,36.8781471 C29.9689444,33.3808042 31.8554729,29.5761153 33.5556332,25.4631556 L64.5216349,25.4631557 L64.5216349,21.8686977 L34.9641709,21.8686977 C35.5144893,20.3790458 36.0407603,18.8569298 36.5428911,17.3025346 L32.5596956,16.2824569 C31.9929139,18.1932179 31.3776671,20.0554215 30.7139554,21.8686051 L17.0645785,21.8686051 Z M30.1239203,43.4285631 L30.1239203,46.9746486 L46.8819951,46.9746486 L46.8819951,57.2722625 C46.8819951,58.9884236 46.0235909,59.8468278 44.3074298,59.8468278 C42.817593,59.8468278 40.5186493,59.684877 37.4098589,59.3610678 C37.6686472,60.7534197 37.8793406,62.0649349 38.0412914,63.2956134 C40.9880384,63.3926359 43.3360021,63.4412859 45.0845348,63.4412859 C48.7763854,63.4412859 50.6221256,61.5954531 50.6221256,57.9036951 L50.6221256,46.9745562 L64.9516775,46.9745562 L64.9516775,43.4284707 L50.6221256,43.4284707 L50.6221256,41.9713755 C54.5403004,39.316066 58.1511292,36.6765722 61.4542421,34.0536344 L61.4542421,30.1190889 L33.3782908,30.1190889 L33.3782908,33.6650818 L55.9169288,33.6650819 C53.3262701,35.8349088 50.3145947,38.0208291 46.8820876,40.2226577 L46.8820876,43.4285631 L30.1239203,43.4285631 Z" id="Shape"></path>
                    </g>
                </g>
            </g>
        </g>
    </g>
</svg>