<?xml version="1.0" encoding="UTF-8"?>
<svg width="80px" height="80px" viewBox="0 0 80 80" version="1.1" xmlns="http://www.w3.org/2000/svg" xmlns:xlink="http://www.w3.org/1999/xlink">
    <!-- Generator: sketchtool 50.2 (55047) - http://www.bohemiancoding.com/sketch -->
    <title>19E3B271-B6C0-4176-B163-9AC24203F667</title>
    <desc>Created with sketchtool.</desc>
    <defs></defs>
    <g id="Screen" stroke="none" stroke-width="1" fill="none" fill-rule="evenodd">
        <g id="2.10_member-history--pocket" transform="translate(-40.000000, -748.000000)" fill="#CF1322" fill-rule="nonzero">
            <g id="Content" transform="translate(0.000000, 184.000000)">
                <g id="transation" transform="translate(0.000000, 522.000000)">
                    <g id="pic_withdrawal" transform="translate(40.000000, 42.000000)">
                        <path d="M40.0000023,0 C17.9088043,0 4.68749993e-06,17.9087997 0,39.9999977 C0,62.0927988 17.9087997,80.0015984 40.0000023,80.0015984 C62.091205,80.0015984 80,62.0927988 80,39.9999977 C80,17.9103981 62.0896019,0 40.0000023,0 Z M17.5170821,63.8356765 L16.7213217,60.1221281 C18.7015273,60.2630661 20.1514026,60.3343308 21.0714785,60.3343308 C22.3090627,60.3343308 22.9282527,59.7681916 22.9282527,58.6367087 L22.9282527,45.3740357 C20.7705927,46.2229352 18.719034,46.9482266 16.774284,47.5492025 L15.8725107,43.7295527 C18.2066527,43.1642091 20.5583015,42.4214995 22.9282527,41.5014236 L22.9282527,29.5118788 L16.5090305,29.5118788 L16.5090305,25.851381 L22.9282527,25.851381 L22.9282527,15.8248002 L26.8539155,15.8248002 L26.8539155,25.851381 L32.2121238,25.851381 L32.2121238,29.5118788 L26.8539155,29.5118788 L26.8539155,39.8567637 C28.9046784,38.8670146 30.4257301,38.0886726 31.4163635,37.5225333 L31.4163635,41.3952338 C30.4258186,41.9257407 28.9047668,42.6866644 26.8539155,43.6764135 L26.8539155,59.5916211 C26.8539155,62.4207261 25.3684962,63.8356765 22.3977458,63.8356765 L17.5170821,63.8356765 Z M32.6365293,39.6445609 L62.9816136,39.6445609 L62.9816136,43.0398052 L49.7189406,43.0398052 L49.7189406,49.0345335 L60.8063584,49.0345335 L60.8063584,52.4828285 L49.7189406,52.4828285 L49.7189406,59.3263677 C51.8409683,59.6447603 54.3516807,59.803824 57.2520505,59.803824 C59.7985721,59.803824 62.1675508,59.7151409 64.3608432,59.5385705 L63.2998293,63.2521189 L57.5173039,63.1990683 C50.5493608,63.1634358 45.7747985,62.4911068 43.1936171,61.1830535 C41.1420584,60.0864958 39.3209166,58.0713652 37.7293958,55.135363 C36.4562676,58.4601383 34.6872923,61.483232 32.4243266,64.2070314 L29.6126399,61.7666995 C33.644581,56.8860358 35.8726216,51.4043962 36.2971155,45.320985 L39.6922714,45.6923399 C39.5861699,47.5673282 39.3209166,49.4058884 38.896511,51.2095234 C40.5941332,54.7465015 42.5570972,57.0277697 44.7851378,58.0530627 L46.0583544,58.5304305 L46.0583544,43.0398052 L32.6365293,43.0398052 L32.6365293,39.6445609 Z M36.3500778,17.5224223 L59.4800911,17.5224223 L59.4800911,35.9310126 L36.3500778,35.9310126 L36.3500778,17.5224223 Z M40.0636263,25.2678234 L55.7665427,25.2678234 L55.7665427,20.6524132 L40.0636263,20.6524132 L40.0636263,25.2678234 Z M55.7665427,32.8010217 L55.7665427,28.2386621 L40.0636263,28.2386621 L40.0636263,32.8010217 L55.7665427,32.8010217 Z" id="Shape"></path>
                    </g>
                </g>
            </g>
        </g>
    </g>
</svg>