<?xml version="1.0" encoding="UTF-8"?>
<svg width="80px" height="80px" viewBox="0 0 80 80" version="1.1" xmlns="http://www.w3.org/2000/svg" xmlns:xlink="http://www.w3.org/1999/xlink">
    <!-- Generator: sketchtool 50.2 (55047) - http://www.bohemiancoding.com/sketch -->
    <title>5D7DCB89-0C2E-4A73-90D2-BECA3B3B312B</title>
    <desc>Created with sketchtool.</desc>
    <defs></defs>
    <g id="Screen" stroke="none" stroke-width="1" fill="none" fill-rule="evenodd">
        <g id="2.10_member-history--pocket" transform="translate(-40.000000, -912.000000)" fill="#096DD9" fill-rule="nonzero">
            <g id="Content" transform="translate(0.000000, 184.000000)">
                <g id="transation" transform="translate(0.000000, 686.000000)">
                    <g id="pic_transfer" transform="translate(40.000000, 42.000000)">
                        <path d="M40.0000023,0 C17.9088043,0 4.68749993e-06,17.9087997 0,39.9999977 C0,62.0927988 17.9087997,80.0015984 40.0000023,80.0015984 C62.091205,80.0015984 80,62.0927988 80,39.9999977 C80,17.9103981 62.0896019,0 40.0000023,0 Z M37.6650337,50.611199 C34.8490322,51.379199 34.6426322,51.4304006 30.6522338,52.3520005 L30.6522338,58.5471973 C30.6522338,60.6463957 30.7530338,62.2335972 31.0090322,63.9215988 L27.2218323,63.9215988 C27.4778307,62.1296003 27.5818323,60.4911973 27.5818323,58.4943973 L27.5818323,53.015999 C22.818634,53.9871974 22.818634,53.9871974 20.053834,54.4496005 C19.031434,54.6032005 18.6730325,54.7055989 17.7514325,54.9599989 L17.2922356,51.427199 C19.7482371,51.326399 23.2298355,50.8640006 27.2234354,50.0960006 C27.3770354,50.0464021 27.4266339,50.0464021 27.5834354,50.0463975 L27.5834354,41.9055976 L22.002634,41.9055976 C20.365834,41.9055976 19.7002325,41.9551961 18.6746356,42.1103992 L17.4970325,39.5504008 C18.2154341,38.6783992 18.4682309,38.2192024 18.8810356,37.1439977 L22.1066355,26.2383979 L21.388234,26.2383979 C19.391434,26.2383979 18.369034,26.2911979 17.0378356,26.494401 L17.0378356,23.0639995 C18.2154341,23.2688011 19.3402372,23.319998 21.441034,23.319998 L22.9258324,23.319998 L23.0794324,22.859198 L23.7450339,19.7360012 C23.9482324,18.8656028 23.9482324,18.8656028 24.1546324,16.9199997 L27.8922339,17.5856012 C27.4298354,18.9167996 27.2266323,19.4800027 27.0202323,20.094398 C26.8995953,20.4645189 26.7976015,20.8404585 26.7146354,21.2207996 L26.2026339,23.0639995 L26.1002355,23.319998 L32.1434353,23.319998 C34.2410353,23.319998 35.2154353,23.2687964 36.4442353,23.0639995 L36.4442353,26.494401 C35.0602368,26.2912026 34.0874353,26.2384026 32.0906353,26.2383979 L25.2810339,26.2383979 L21.5434324,39.0896008 L27.5866323,39.0896008 L27.5866323,35.1968009 C27.5866323,33.6112025 27.4842339,32.4335994 27.2778339,31.102401 L30.9658322,31.102401 C30.7098338,32.5871994 30.6602307,33.6095993 30.6602354,35.1968009 L30.6602354,39.0896008 L31.2730322,39.0896008 C33.6298322,39.0896008 35.1642337,38.9872024 36.5978353,38.7824008 L36.5978353,42.2127976 C35.0602368,42.0095992 33.0666338,41.9071961 31.2730322,41.9072007 L30.6602354,41.9072007 L30.6602354,49.4319975 C35.4202368,48.3567975 35.4202368,48.3567975 37.7226337,47.6912006 L37.6650337,50.611199 Z M63.9274316,36.1232009 C62.2955045,35.9545604 60.6560496,35.8691154 59.0154333,35.8671977 L47.2906319,35.8671977 C47.1370319,36.5855993 47.1370319,36.5855993 46.6746335,38.3264008 C46.4714351,39.0928024 46.1658335,40.1168008 45.500232,42.3695992 L54.3034318,42.3695992 C56.6602317,42.3695992 57.6314302,42.3183976 58.7066348,42.1647976 L60.8074317,44.6735991 C60.2954301,45.4400007 59.6298332,46.6175991 56.7098349,52.0959974 C55.6346349,54.1967989 55.0218333,55.2191989 53.5386334,57.5247973 L53.8442349,57.8303989 C55.1754333,59.1104004 55.9946349,60.0320004 57.7354317,62.1824003 L55.2266349,64.4351987 C51.3354334,59.6735988 47.9082335,56.3967973 43.1450351,53.0175974 L45.5514335,50.8160006 C48.213835,52.761599 49.135435,53.4784021 51.233035,55.3743974 C51.3354334,55.1679974 51.3898365,55.1183989 51.593035,54.7583989 C53.2842334,52.147199 54.4618365,49.9455975 56.6122317,45.2367976 L45.1434335,45.2367976 C44.9370335,45.2367976 44.477832,45.286396 43.709832,45.3392007 C43.1978304,45.3887991 42.5850336,45.3887991 40.7418336,45.4928007 C42.0234336,42.8800023 43.0442351,40.0640008 44.1738335,35.8655993 L40.9482336,35.8655993 C39.1546321,35.8655993 37.5162337,35.9679977 35.9802337,36.1215977 L35.9802337,32.6912009 C37.1578321,32.8960025 38.5930321,32.9471994 40.9482336,32.9471994 L44.938632,32.9471994 C45.8602319,29.158401 45.8602319,29.158401 46.4762351,26.3423995 L43.1978351,26.3423995 C41.3034336,26.3423995 40.0266336,26.393601 38.5418352,26.5983979 L38.5418352,23.1680011 C39.8202336,23.3728027 40.9978367,23.4239995 43.1978351,23.4239995 L47.1418319,23.4239995 C47.7050304,20.7104012 47.9098319,18.9695996 47.9098319,17.4335997 L51.6970318,17.6895981 C51.4410334,18.5599965 50.9818318,20.454398 50.316235,23.4224011 L57.0730317,23.4224011 C59.3754332,23.4224011 60.6570332,23.3200027 61.8362348,23.1152011 L61.8362348,26.5967995 C60.2490332,26.3919979 59.0202333,26.340801 57.0730317,26.340801 L49.701835,26.340801 C48.986635,29.4640025 48.986635,29.4640025 48.065035,32.9456009 L58.9674333,32.9456009 C61.3738316,32.9456009 62.7050347,32.8943994 63.9338347,32.6895978 L63.9338347,36.1232009 L63.9274316,36.1232009 Z" id="Shape"></path>
                    </g>
                </g>
            </g>
        </g>
    </g>
</svg>