<svg xmlns="http://www.w3.org/2000/svg" width="580" height="360" viewBox="0 0 580 360">
    <defs>
        <linearGradient id="a" x1="50%" x2="50%" y1="0%" y2="100%">
            <stop offset="0%" stop-color="#FAD961"/>
            <stop offset="100%" stop-color="#F76B1C"/>
        </linearGradient>
        <linearGradient id="b" x1="50.03%" x2="50.03%" y1="0%" y2="100%">
            <stop offset="0%" stop-color="#00EFD1"/>
            <stop offset="100%" stop-color="#00ACEA"/>
        </linearGradient>
        <linearGradient id="c" x1="50%" x2="50%" y1="0%" y2="100%">
            <stop offset="0%" stop-color="#35C3FF"/>
            <stop offset="100%" stop-color="#1890FF"/>
        </linearGradient>
        <linearGradient id="d" x1="79.267%" x2="22.446%" y1="13.335%" y2="88.859%">
            <stop offset="0%" stop-color="#35C3FF"/>
            <stop offset="100%" stop-color="#0072DC"/>
        </linearGradient>
        <linearGradient id="e" x1="22.611%" x2="80.221%" y1="11.375%" y2="84.37%">
            <stop offset="0%" stop-color="#00EFD1"/>
            <stop offset="100%" stop-color="#0094CA"/>
        </linearGradient>
    </defs>
    <g fill="none" fill-rule="evenodd">
        <g fill="#1890FF" opacity=".301">
            <path d="M231.468 219.765c33.291 19.203 87.29 19.203 120.366 0 33.074-19.203 32.898-50.451-.393-69.654-33.292-19.203-87.291-19.203-120.366 0s-32.899 50.453.393 69.654m121.79-70.71c34.302 19.785 34.484 51.98.406 71.765-34.079 19.787-89.714 19.787-124.014 0-34.303-19.784-34.474-51.974-.397-71.759 34.08-19.786 89.704-19.792 124.006-.005"/>
            <path d="M190.57 243.512c55.997 32.297 146.801 32.302 202.433.003 55.624-32.293 55.33-84.847-.667-117.145-55.99-32.295-146.801-32.293-202.426 0-55.634 32.3-55.328 84.848.66 117.142m203.584-118.199c57.006 32.883 57.297 86.377.672 119.252-56.638 32.882-149.07 32.884-206.074.002-57-32.875-57.309-86.37-.673-119.252 56.627-32.877 149.075-32.877 206.075-.002"/>
            <path d="M142.4 271.478c82.732 47.72 216.893 47.714 299.08-.002 82.185-47.715 81.759-125.354-.974-173.074-82.725-47.715-216.896-47.715-299.082.002-82.185 47.717-81.748 125.359.975 173.074M442.324 97.347c83.733 48.298 84.176 126.886.986 175.184-83.189 48.3-218.996 48.3-302.729.002-83.733-48.298-84.176-126.886-.987-175.184 83.188-48.298 218.995-48.3 302.73-.002"/>
            <path d="M93.322 299.975c109.964 63.429 288.319 63.429 397.568-.001 109.252-63.429 108.66-166.635-1.302-230.062-109.965-63.428-288.305-63.428-397.554.002-109.25 63.428-108.677 166.635 1.288 230.061m398.082-231.12c110.976 64.01 111.57 168.164 1.317 232.176-110.252 64.01-290.245 64.011-401.217 0C-19.473 237.02-20.05 132.868 90.203 68.857c110.254-64.01 290.226-64.012 401.2-.002"/>
        </g>
        <path fill="#FFF" d="M235.844 301.158l18.64-10.823-.054 18.826-18.64 10.822z"/>
        <path fill="url(#a)" d="M219.446 291.699l18.637-10.823 16.4 9.46-18.638 10.821z"/>
        <path fill="url(#b)" d="M235.844 301.158l-.053 18.825-16.4-9.458.054-18.825z"/>
        <path fill="#FFF" d="M528.77 95.905l15.245-8.204-.044 14.272-15.245 8.205z"/>
        <path fill="url(#b)" d="M515.355 88.733L530.6 80.53l13.415 7.172-15.246 8.204z"/>
        <path fill="url(#c)" d="M528.77 95.905l-.044 14.273-13.415-7.172.045-14.273z"/>
        <path fill="#FFF" d="M11.485 192.13l11.055-6.22-.031 10.82-11.056 6.22z"/>
        <path fill="url(#b)" d="M1.757 186.694l9.728 5.436 11.056-6.22-9.728-5.437z"/>
        <path fill="url(#a)" d="M1.726 197.513l9.727 5.437.032-10.82-9.728-5.437z"/>
        <path fill="#00BEFF" d="M385.345 64.108l-.019 6.598-2.96 12.913.02-6.598z"/>
        <path fill="url(#a)" d="M382.386 77.02l-.02 6.599L363.02 72.46l.02-6.6z"/>
        <path fill="#FFF" d="M385.345 64.108l-2.96 12.913-19.345-11.16z"/>
        <path fill="url(#c)" d="M103.611 254.764l-5.711-3.316 9.632-20.173 5.711 3.314z"/>
        <path fill="#FFF" d="M113.243 234.588l9.713 9.017-19.345 11.158z"/>
        <path fill="url(#a)" d="M562.659 210.892l9.63 20.176 5.711-3.316-9.632-20.175z"/>
        <path fill="#FFF" d="M562.659 210.892l-9.716 9.016 19.346 11.16z"/>
        <ellipse cx="289.706" cy="19.373" fill="url(#d)" rx="9.382" ry="9.373"/>
        <ellipse cx="88.838" cy="299.298" fill="url(#e)" rx="8.956" ry="8.947"/>
        <ellipse cx="417.221" cy="332.531" fill="url(#a)" rx="5.544" ry="5.539"/>
        <path fill="url(#c)" d="M94.715 75.702c.07-.448.137-.896.2-1.346.054-.372.12-.742.169-1.118.038-.306.053-.615.088-.922.14-1.192.254-2.386.345-3.586.037-.513.085-1.022.113-1.537a83.55 83.55 0 0 0 .152-5.05c-.035-12.677-3.406-23.002-10.006-26.834L61.979 21.493c6.6 3.832 9.971 14.157 10.005 26.832a83.505 83.505 0 0 1-.152 5.05c-.028.515-.075 1.028-.113 1.54a85.564 85.564 0 0 1-.345 3.585c-.08.681-.16 1.36-.254 2.04-.067.45-.133.9-.204 1.348a85.392 85.392 0 0 1-.493 2.78c-.072.372-.139.748-.216 1.118-.11.53-.243 1.048-.364 1.574a83.836 83.836 0 0 1-.732 2.992 78.834 78.834 0 0 1-.61 2.108c-.173.583-.344 1.168-.531 1.746a71.253 71.253 0 0 1-1.012 2.897c-.081.224-.156.454-.24.678a72.393 72.393 0 0 1-1.415 3.412c-.115.255-.233.509-.35.763-.45.983-.917 1.949-1.406 2.897-.07.135-.14.276-.21.41a61.185 61.185 0 0 1-1.732 3.057c-.128.208-.252.415-.38.62a55.055 55.055 0 0 1-1.905 2.885c-.095.137-.198.264-.295.4a50.253 50.253 0 0 1-1.779 2.312c-.218.27-.437.538-.66.803a49.766 49.766 0 0 1-1.445 1.605c-.376.406-.75.819-1.137 1.207a43.342 43.342 0 0 1-2.335 2.198c-.1.087-.204.165-.304.25a39.921 39.921 0 0 1-2.309 1.816c-.232.168-.465.339-.7.503a37.89 37.89 0 0 1-2.756 1.776c-.765.44-1.512.82-2.248 1.173a33.1 33.1 0 0 1-.602.276c-.419.19-.825.345-1.232.504-.58.226-1.15.422-1.707.592-.344.106-.69.213-1.026.296-.315.078-.625.141-.934.2-.427.084-.85.154-1.264.202-.224.026-.449.052-.67.069-.525.037-1.04.05-1.543.031-.098-.004-.198.004-.294-.002a12.611 12.611 0 0 1-1.72-.222c-.146-.028-.285-.065-.428-.1a11.65 11.65 0 0 1-1.291-.381c-.13-.047-.264-.085-.393-.137a11.78 11.78 0 0 1-1.572-.756l23.797 13.817c.044.027.089.051.135.077.402.226.814.43 1.238.607.065.026.135.045.2.07.128.053.26.092.391.14.226.08.445.172.677.238.2.058.41.093.615.143.142.032.283.069.428.098.089.017.174.045.265.061.446.078.906.132 1.375.161.026.002.053 0 .08 0 .096.006.198 0 .292.004.375.011.75.024 1.138.01.133-.008.274-.034.408-.043.22-.017.446-.041.67-.069.206-.024.406-.03.62-.06.209-.034.431-.099.644-.14.308-.06.617-.124.932-.202.156-.038.306-.055.464-.1.181-.05.378-.14.563-.196.56-.168 1.128-.366 1.708-.592.19-.074.367-.115.56-.195.22-.092.448-.209.67-.309a33.42 33.42 0 0 0 2.852-1.45 37.854 37.854 0 0 0 2.754-1.775c.236-.164.469-.333.7-.503.788-.576 1.56-1.18 2.31-1.816.1-.085.205-.163.303-.248a44.78 44.78 0 0 0 1.983-1.824c.12-.118.232-.253.352-.374.39-.39.76-.801 1.138-1.209.322-.346.66-.672.973-1.033.163-.185.315-.385.474-.574.223-.262.44-.529.658-.797.222-.276.456-.54.673-.82.38-.487.743-.993 1.106-1.496.098-.136.198-.263.295-.398.04-.056.081-.11.122-.165.465-.661.917-1.337 1.358-2.026.147-.23.282-.468.428-.7.126-.203.25-.407.375-.614.148-.246.303-.483.448-.733a61.39 61.39 0 0 0 1.195-2.146c.032-.059.061-.12.091-.18.072-.134.137-.275.208-.41.292-.561.583-1.124.86-1.698.19-.392.366-.798.548-1.196.118-.255.237-.51.352-.768.076-.174.161-.342.237-.518.393-.907.77-1.828 1.127-2.76.018-.043.031-.09.048-.134.083-.218.156-.442.237-.66.295-.79.586-1.578.854-2.382.06-.175.106-.357.163-.535.188-.573.356-1.155.529-1.736.153-.513.324-1.015.468-1.531.054-.193.091-.39.141-.585a75.65 75.65 0 0 0 .734-2.99c.093-.396.206-.785.29-1.185.029-.127.05-.259.075-.388.076-.37.14-.745.213-1.117.18-.924.349-1.851.497-2.784" transform="translate(239.748 75.05)"/>
        <path fill="url(#a)" d="M24.487 96.189c.118-1.392.226-2.786.406-4.173.016-.126.038-.248.055-.372.235-1.766.53-3.525.858-5.278.084-.448.169-.896.258-1.344.235-1.16.513-2.31.787-3.464.236-.996.467-1.995.732-2.986.356-1.325.749-2.642 1.155-3.952.174-.558.328-1.119.51-1.672a107.797 107.797 0 0 1 1.934-5.391c.139-.355.293-.705.433-1.06a107.884 107.884 0 0 1 1.853-4.333c.195-.426.386-.851.584-1.273a104.431 104.431 0 0 1 2.478-4.949c.124-.235.26-.463.387-.696.787-1.442 1.61-2.858 2.46-4.254.229-.374.453-.748.685-1.118.985-1.568 2-3.11 3.063-4.612.187-.265.387-.518.576-.781a98.012 98.012 0 0 1 2.737-3.606c.47-.59.954-1.167 1.436-1.744a92.175 92.175 0 0 1 2.112-2.437 89.278 89.278 0 0 1 2.593-2.756c.682-.698 1.358-1.4 2.058-2.072a92.754 92.754 0 0 1 4.238-3.782c.528-.44 1.057-.883 1.592-1.307a83.115 83.115 0 0 1 3.019-2.26c.48-.343.95-.702 1.436-1.031a72.36 72.36 0 0 1 4.616-2.922 70.412 70.412 0 0 1 4.028-2.136 55.991 55.991 0 0 1 3.108-1.422c.128-.054.252-.098.38-.15a48.52 48.52 0 0 1 2.158-.822c.275-.096.545-.183.816-.272a43.149 43.149 0 0 1 1.68-.52c.243-.069.482-.133.723-.198a34.91 34.91 0 0 1 3.319-.711c.193-.032.382-.057.573-.085a29.39 29.39 0 0 1 2.774-.28h.02c.812-.035 1.6-.02 2.374.02a22.08 22.08 0 0 1 2.346.243c.152.022.31.039.461.067.68.122 1.342.274 1.988.457.149.043.291.094.438.139.502.157.997.331 1.482.524a18.762 18.762 0 0 1 2.014.946c.163.087.33.165.491.257L76.913 2.805l-.21-.12c-.09-.052-.189-.09-.281-.14a19.038 19.038 0 0 0-1.45-.706c-.094-.043-.179-.097-.274-.135-.094-.04-.194-.065-.29-.102a17.985 17.985 0 0 0-1.483-.522c-.11-.036-.213-.084-.324-.115-.035-.011-.076-.017-.111-.026a20.383 20.383 0 0 0-1.987-.457c-.042-.008-.078-.02-.118-.028-.113-.02-.234-.022-.345-.04a23.09 23.09 0 0 0-1.71-.2c-.117-.01-.223-.032-.34-.04-.096-.007-.198.002-.296-.001a24.623 24.623 0 0 0-2.372-.02h-.024c-.899.04-1.829.144-2.774.279-.113.016-.219.016-.334.033-.077.013-.16.039-.239.052a34.584 34.584 0 0 0-3.318.71c-.091.025-.175.034-.263.058-.149.04-.306.098-.458.14a39.34 39.34 0 0 0-1.68.521c-.273.089-.542.174-.818.272-.71.25-1.432.526-2.163.824-.109.044-.215.08-.326.124-.016.007-.033.017-.05.024a54.626 54.626 0 0 0-3.105 1.422 66.92 66.92 0 0 0-4.028 2.136 72.36 72.36 0 0 0-4.617 2.922c-.487.33-.958.688-1.436 1.033a76.436 76.436 0 0 0-3.015 2.256c-.54.426-1.069.869-1.597 1.311a81.01 81.01 0 0 0-2.704 2.359c-.515.468-1.028.938-1.532 1.421-.29.276-.591.533-.877.813-.407.404-.782.848-1.184 1.26a91.52 91.52 0 0 0-2.592 2.755c-.28.315-.584.6-.864.919-.428.492-.83 1.016-1.249 1.518-.481.577-.963 1.151-1.434 1.742-.228.287-.472.559-.7.851-.699.9-1.368 1.83-2.039 2.757-.189.263-.389.515-.576.78-.052.071-.106.142-.157.214-.829 1.18-1.635 2.38-2.417 3.6-.167.262-.322.534-.487.799-.232.37-.456.744-.684 1.118-.335.55-.682 1.09-1.008 1.647-.502.86-.978 1.737-1.456 2.613-.126.23-.26.455-.384.688-.054.098-.111.193-.163.293a101.43 101.43 0 0 0-1.874 3.693c-.153.318-.29.644-.44.965-.2.422-.392.847-.584 1.273-.25.552-.515 1.096-.758 1.653-.384.883-.736 1.783-1.095 2.68-.143.353-.295.703-.434 1.06-.055.143-.118.283-.174.426a106.03 106.03 0 0 0-1.638 4.563c-.043.133-.078.269-.122.402-.182.555-.338 1.116-.512 1.675-.319 1.028-.654 2.052-.943 3.09-.078.281-.132.572-.21.855-.264.994-.496 1.994-.733 2.994-.18.757-.395 1.509-.558 2.271-.085.395-.148.795-.228 1.189-.09.448-.174.896-.258 1.344-.33 1.757-.624 3.52-.86 5.287-.016.12-.036.239-.053.36-.004.036-.011.075-.017.112-.178 1.383-.281 2.772-.4 4.16-.057.681-.152 1.36-.195 2.042a93.208 93.208 0 0 0-.196 6.311c.028 9.738 1.6 17.8 4.518 23.89 1.299 2.707 2.863 5.025 4.675 6.928.454.476.923.924 1.406 1.348.97.846 1.998 1.586 3.087 2.22l23.797 13.816c-8.71-5.058-13.636-17.075-13.686-34.386a94.417 94.417 0 0 1 .196-6.31c.046-.712.143-1.425.206-2.14" transform="translate(239.748 75.05)"/>
        <path fill="#FFF" d="M309.146 193.56c16.957-9.781 26.448-33.285 26.383-56.367-.057-20.788-9.081-35.248-26.615-25.135-17.405 10.038-26.607 33.871-26.543 56.607.063 22.422 9.944 34.604 26.775 24.896m.139-97.946c28.08-16.196 44.693-1.353 44.782 30.076.106 36.974-19.366 69.34-45.883 84.635-27.075 15.619-44.26 1.766-44.352-30.637-.095-33.873 18.376-68.454 45.453-84.074"/>
        <path fill="#2F558C" d="M202.662 95.132l.725.418.057-20.995-.722-.417z"/>
        <path fill="url(#c)" d="M110.524 37.517a745.04 745.04 0 0 0 3.008-.567l1.484-.281c1.05-.202 2.122-.407 3.2-.618.423-.082.843-.161 1.271-.247 1.514-.294 3.052-.598 4.64-.912l.06-20.994c-1.575.313-3.099.611-4.601.906l-1.396.27c-1.036.202-2.06.398-3.07.592l-1.573.3c-.975.183-1.94.367-2.9.544a760.283 760.283 0 0 1-4.951.91c-.232.042-.464.086-.696.127-1.64.296-3.278.583-4.929.87l-1.265.217c-1.675.289-3.356.574-5.08.859l-54.2 6.235-.06 20.993 54.201-6.235a786.6 786.6 0 0 0 6.317-1.072c1.664-.287 3.32-.58 4.976-.875l.06-.011c.16-.028.32-.06.477-.087 1.225-.223 2.453-.447 3.69-.674.442-.084.893-.167 1.337-.25" transform="translate(78.533 60.24)"/>
        <path fill="#4578C2" d="M118.059 85.968l-.06 20.993-.546.102.06-20.993z"/>
        <path fill="url(#b)" d="M54.495 54.36l-.059 20.993L.572 44.285l.06-20.995z" transform="translate(78.533 60.24)"/>
        <path fill="url(#a)" d="M164.006 15.366l-.059 20.994-71.35 41.424.06-20.993z" transform="translate(78.533 60.24)"/>
        <path fill="url(#b)" d="M91.122 75.486l-.06 20.993-15.383-8.873.059-20.993z" transform="translate(78.533 60.24)"/>
        <path fill="url(#a)" d="M108.04 65.664l-.059 20.993-16.92 9.823.061-20.993zM75.738 66.613l-.059 20.993-30.034 17.437.06-20.993z" transform="translate(78.533 60.24)"/>
        <path fill="#FFF" d="M182.16 86.076c6.727-3.907 13.824-7.824 21.285-11.52l-.725-.417c-11.131 2.208-20.244 3.906-30.46 5.594l-54.201 6.235-.547.102 32.435 18.707 32.214-18.701zm-10.97 30.955l15.384 8.873-16.92 9.823-15.382-8.873-30.034 17.437-21.243-12.254L133.03 114.6 79.163 83.53l14.554-8.447 122.258-14.8 26.565 15.324-71.35 41.424z"/>
        <path fill="url(#b)" d="M45.705 84.05l-.059 20.993-21.243-12.251.06-20.996z" transform="translate(78.533 60.24)"/>
        <path fill="#2F558C" d="M463.894 231.633l.725.418.059-20.995-.725-.417z"/>
        <g>
            <path fill="url(#b)" d="M250.367 99.955c.961-.18 1.929-.36 2.903-.546l1.577-.3a1632.76 1632.76 0 0 0 4.444-.86c1.508-.292 3.04-.594 4.623-.908l.06-20.994a1204.693 1204.693 0 0 1-6.006 1.178 868.5 868.5 0 0 1-3.098.598c-.504.096-1.003.192-1.501.285-.984.187-1.959.372-2.926.55-.486.09-.971.183-1.453.272-1.21.224-2.415.444-3.613.66l-.573.104a786.938 786.938 0 0 1-6.195 1.087 875.76 875.76 0 0 1-5.097.863l-54.202 6.233-.06 20.995 54.202-6.237a878.68 878.68 0 0 0 5.098-.859l1.24-.216c1.658-.287 3.307-.576 4.955-.872.022-.004.04-.008.063-.011l.483-.09a650.025 650.025 0 0 0 5.076-.932" transform="translate(199.98 134.291)"/>
            <path fill="#4578C2" d="M379.292 222.468l-.06 20.995-.546.102.059-20.995z"/>
            <path fill="url(#a)" d="M194.28 116.81l-.06 20.993-53.864-31.068.062-20.993z" transform="translate(199.98 134.291)"/>
            <path fill="url(#c)" d="M303.78 77.823l-.058 20.993-71.339 41.419.06-20.996z" transform="translate(199.98 134.291)"/>
            <path fill="url(#a)" d="M230.906 137.937l-.06 20.993-15.383-8.873.06-20.995z" transform="translate(199.98 134.291)"/>
            <path fill="url(#c)" d="M247.826 128.113l-.06 20.995-16.92 9.82.06-20.99zM215.523 129.062l-.06 20.995-30.032 17.437.06-20.995z" transform="translate(199.98 134.291)"/>
            <path fill="#FFF" d="M443.393 222.576c6.727-3.904 13.824-7.823 21.284-11.52l-.722-.417c-11.133 2.209-20.245 3.905-30.462 5.595l-54.202 6.233-.546.102 32.435 18.71 32.213-18.703zm-10.97 30.955l15.384 8.874-16.92 9.822-15.384-8.875-30.032 17.438-21.243-12.252L394.26 251.1l-53.862-31.068 14.552-8.45 122.246-14.793 26.565 15.325-71.338 41.416z"/>
            <path fill="url(#a)" d="M185.49 146.499l-.059 20.995-21.243-12.254.06-20.993z" transform="translate(199.98 134.291)"/>
            <path fill="#FFF" d="M215.464 137.242l-.4 5.438c-.013.181-.278.318-.58.309a.796.796 0 0 1-.382-.095c-.107-.06-.172-.15-.166-.246l.348-4.719-8.159.215a.813.813 0 0 1-.42-.093c-.099-.057-.162-.135-.17-.222-.014-.176.221-.33.538-.337l9.391-.25z" opacity=".301"/>
            <path fill="#FFF" d="M220.24 134.47l-.401 5.436c-.013.183-.278.32-.588.315a.787.787 0 0 1-.374-.098c-.107-.063-.172-.15-.167-.246l.347-4.721-8.157.216a.852.852 0 0 1-.432-.096c-.096-.055-.157-.13-.165-.215-.007-.18.228-.333.545-.34l9.391-.25zM210.69 140.015l-.4 5.435c-.006.18-.27.317-.58.311a.804.804 0 0 1-.38-.094c-.11-.063-.174-.15-.167-.247l.347-4.72-8.158.216a.851.851 0 0 1-.424-.098c-.096-.055-.16-.131-.167-.218-.007-.178.228-.332.538-.335l9.39-.25zM225.036 239.946c.088.05.148.12.153.199.015.172-.205.316-.502.323l-8.817.234.37-5.106c.02-.167.262-.3.557-.293.13.004.258.041.345.091.102.058.163.14.157.23l-.32 4.435 7.656-.203a.772.772 0 0 1 .4.09" opacity=".301"/>
            <path fill="#FFF" d="M221.624 232.793c.101.057.16.14.155.23l-.319 4.435 7.657-.204a.79.79 0 0 1 .397.093c.089.05.146.12.15.2.022.168-.206.316-.497.32l-8.815.233.37-5.106c.012-.163.26-.3.551-.288.134 0 .262.037.35.087" opacity=".301"/>
            <path fill="#FFF" d="M233.997 234.747c.089.05.146.12.148.198.015.172-.208.317-.502.324l-8.81.23.362-5.103c.02-.166.263-.3.557-.292.136 0 .258.04.345.09.102.058.163.141.158.23l-.32 4.436 7.656-.204a.789.789 0 0 1 .406.09M403.893 182.956l4.757 3.23c.16.1.146.424-.02.694a.853.853 0 0 1-.29.296c-.112.067-.227.08-.313.023l-4.13-2.805-4.103 7.555a.885.885 0 0 1-.311.335c-.104.06-.206.076-.287.037-.176-.072-.185-.383-.026-.666l4.723-8.7z" opacity=".301"/>
            <path fill="#FFF" d="M403.877 177.14l4.755 3.23c.161.11.148.422-.019.694a.853.853 0 0 1-.289.296c-.113.067-.228.08-.313.023l-4.13-2.805-4.103 7.555a.866.866 0 0 1-.308.335c-.105.06-.207.076-.29.037-.177-.074-.186-.374-.026-.666l4.723-8.7z" opacity=".301"/>
            <path fill="#FFF" d="M403.86 171.333l4.756 3.22c.16.11.148.423-.019.704a.825.825 0 0 1-.29.287c-.112.067-.229.08-.312.024l-4.13-2.806-4.103 7.555a.887.887 0 0 1-.317.344c-.1.058-.2.076-.284.037-.174-.083-.183-.383-.024-.675l4.724-8.69z" opacity=".301"/>
        </g>
    </g>
</svg>
