<?xml version="1.0" encoding="UTF-8"?>
<svg width="80px" height="80px" viewBox="0 0 80 80" version="1.1" xmlns="http://www.w3.org/2000/svg" xmlns:xlink="http://www.w3.org/1999/xlink">
    <!-- Generator: sketchtool 50.2 (55047) - http://www.bohemiancoding.com/sketch -->
    <title>6AF09022-174C-4ED1-9B61-0C75569AC1BA</title>
    <desc>Created with sketchtool.</desc>
    <defs></defs>
    <g id="Screen" stroke="none" stroke-width="1" fill="none" fill-rule="evenodd">
        <g id="2.10_member-history--pocket" transform="translate(-40.000000, -1670.000000)" fill="#FAAD14" fill-rule="nonzero">
            <g id="Content" transform="translate(0.000000, 184.000000)">
                <g id="transation" transform="translate(0.000000, 1444.000000)">
                    <g id="pic_bonus" transform="translate(40.000000, 42.000000)">
                        <path d="M40.0000023,0 C62.0896019,0 80,17.9103981 80,39.9999977 C80,62.0927988 62.091205,80.0015984 40.0000023,80.0015984 C17.9087997,80.0015984 0,62.0927988 0,39.9999977 C4.68749993e-06,17.9087997 17.9088043,0 40.0000023,0 Z M33.6686671,51.8586813 C28.6542324,53.6661862 22.8374882,55.1222319 16.2184344,56.2268181 L16.8201666,60.8962058 C23.0882099,59.7916195 28.7043767,58.2853655 33.6686671,56.427652 L33.6686671,51.8586813 Z M25.1441281,16.0600421 C23.1383543,21.5327653 20.8317143,26.5034039 18.1239196,30.9719578 C17.5221875,31.8757103 16.8201666,32.4782119 16.017857,32.8296711 L17.2714658,37.197808 C20.0795493,36.8463487 22.8374883,36.4948894 25.4951386,36.0932216 C22.8876326,40.41115 20.6812813,43.4236583 18.9262291,45.1809547 C18.324497,45.7332479 17.6224761,46.1851241 16.7700222,46.5867919 L18.0737753,50.9549288 C23.1884986,50.2520102 28.6542325,48.7959646 34.370688,46.6872089 L34.370688,42.3190719 C30.910728,43.6244922 27.5009124,44.67887 24.0910969,45.4822056 C27.2000464,41.6663618 31.0611611,35.5409286 35.6242967,27.1059056 L31.3620273,25.4992344 C30.2087073,27.708407 29.1055316,29.7669544 28.0023559,31.7250848 C25.9464377,32.0263357 23.8905195,32.3275864 21.8847457,32.5284203 C24.5423961,28.7125766 27.1499021,23.842355 29.7072638,17.867547 L25.1441281,16.0600421 Z M46.0543208,23.6917295 L46.0543208,55.674525 L34.7216984,55.674525 L34.7216984,60.2937042 L61.9500788,60.2937042 L61.9500788,55.674525 L50.8180338,55.674525 L50.8180338,23.6917295 L60.6463258,23.6917295 L60.6463258,19.0725503 L36.1257401,19.0725503 L36.1257401,23.6917295 L46.0543208,23.6917295 Z" id="Shape"></path>
                    </g>
                </g>
            </g>
        </g>
    </g>
</svg>