<?xml version="1.0" encoding="UTF-8"?>
<svg width="48px" height="48px" viewBox="0 0 48 48" version="1.1" xmlns="http://www.w3.org/2000/svg" xmlns:xlink="http://www.w3.org/1999/xlink">
    <!-- Generator: Sketch 50.2 (55047) - http://www.bohemiancoding.com/sketch -->
    <title>SPDB</title>
    <desc>Created with Sketch.</desc>
    <defs></defs>
    <g id="SPDB" stroke="none" stroke-width="1" fill="none" fill-rule="evenodd">
        <g id="浦发银行" transform="translate(1.000000, 3.000000)" fill="#0E3868" fill-rule="nonzero">
            <path d="M10.0532865,16.349481 C12.4582941,14.0780996 15.6665973,13.0654687 18.8250292,13.580872 C18.1306355,12.0151972 15.4334035,7.03914187 9.37897854,7.03914187 C3.7951345,7.04224224 0.0448343304,12.362436 0.0448343304,17.3291903 L0.0448343304,35.7235433 C0.0448343304,36.8892734 0.85974269,37.5961523 0.85974269,37.5961523 L5.82379725,41.7103114 C5.82379725,41.7103114 6.808,42.6094117 6.808,41.2359585 L6.808,24.503391 C6.808,24.4692872 6.79365304,24.3235709 6.79365304,24.0755432 C6.79365304,22.8292041 7.07198445,19.1304913 10.0532865,16.3556816 M45.9436881,6.27955712 C45.9436881,5.12002773 45.1287798,4.40074743 45.1287797,4.40074743 L40.1876803,0.292788903 C40.1876803,0.292788903 39.1948694,-0.606311419 39.1948694,0.767141844 C39.1948694,5.43006228 39.1833918,17.2206782 39.1833918,17.2206782 C39.1948694,17.2516817 39.2006082,17.4004983 39.2006082,17.6454256 C39.2006082,18.8917647 38.930885,22.5904775 35.9381053,25.3621869 C33.537115,27.6326409 30.3330479,28.6463936 27.1778402,28.1338962 C27.8808421,29.699571 30.5637271,34.6756263 36.6267602,34.6756263 C42.2106043,34.6756263 45.9580351,29.3554326 45.9580351,24.3886782 C45.9580351,24.3886782 45.9465575,14.8520138 45.9465575,6.27335638 M30.1074932,15.9929412 L30.2567018,15.8441245 C33.2293957,13.2305328 36.7931852,13.4661592 37.9897232,13.6366782 C37.5047953,12.1361107 35.3642261,7.12595158 28.9999064,7.12595158 C25.3988148,7.12595158 23.0487797,9.18768166 21.7202495,10.9269758 C20.1420819,12.9794048 19.7518441,15.391474 19.6628928,16.6533149 C19.1464016,22.6276817 16.190924,25.489301 15.8580741,25.7993356 C12.5668772,28.7446643 9.19246784,28.3571211 7.98445222,28.0842906 C8.55833134,29.6840692 10.8854113,34.7996401 17.2009513,34.6260208 C19.7202807,34.5454118 21.9383236,33.4912941 23.8005614,31.4729689 C25.8780039,29.2283183 26.3198908,25.7373287 26.4059727,24.7142146 C26.8535984,19.601744 29.134768,16.9168443 30.1074932,15.9929412" id="path"></path>
        </g>
    </g>
</svg>