<svg xmlns="http://www.w3.org/2000/svg" width="80" height="80" viewBox="0 0 80 80">
    <path fill="#000" fill-rule="evenodd" d="M40 80C17.909 80 0 62.091 0 40S17.909 0 40 0s40 17.909 40 40-17.909 40-40 40zm0-60c-11.047 0-20 8.953-20 20s8.953 20 20 20 20-8.953 20-20-8.953-20-20-20zm12.152 32.152a17.098 17.098 0 0 1-5.465 3.684A17.022 17.022 0 0 1 40 57.188c-2.32 0-4.57-.454-6.688-1.348a17.205 17.205 0 0 1-5.464-3.684 17.098 17.098 0 0 1-3.684-5.465A17.055 17.055 0 0 1 22.812 40c0-2.32.454-4.57 1.348-6.688a17.205 17.205 0 0 1 3.684-5.464 17.098 17.098 0 0 1 5.465-3.684A17.055 17.055 0 0 1 40 22.812c2.32 0 4.57.454 6.688 1.348a17.205 17.205 0 0 1 5.464 3.684 17.098 17.098 0 0 1 3.684 5.465A17.055 17.055 0 0 1 57.188 40a17.088 17.088 0 0 1-5.036 12.152zm-3.52-12.465h-7.226v-9.374a1.405 1.405 0 1 0-2.812 0v9.375a2.81 2.81 0 0 0 2.812 2.812h7.227a1.405 1.405 0 1 0 0-2.813z" opacity=".1"/>
</svg>
