<svg xmlns="http://www.w3.org/2000/svg" width="80" height="80" viewBox="0 0 80 80">
    <path fill="#000" fill-rule="evenodd" d="M40 80C17.909 80 0 62.091 0 40S17.909 0 40 0s40 17.909 40 40-17.909 40-40 40zm8.523-34.9h-1.825l-.684-.684c2.281-2.51 3.65-5.933 3.65-9.584A14.803 14.803 0 0 0 34.833 20 14.803 14.803 0 0 0 20 34.832a14.803 14.803 0 0 0 14.832 14.832c3.651 0 7.074-1.369 9.584-3.65l.685.684v1.825l11.41 11.41 3.422-3.423-11.41-11.41zm-13.69 0a10.226 10.226 0 0 1-10.27-10.268 10.226 10.226 0 0 1 10.27-10.268A10.226 10.226 0 0 1 45.1 34.832a10.226 10.226 0 0 1-10.269 10.269z" opacity=".1"/>
</svg>
