<svg xmlns="http://www.w3.org/2000/svg" width="80" height="80" viewBox="0 0 80 80">
    <path fill="#000" fill-rule="evenodd" d="M40 80c22.091 0 40-17.909 40-40S62.091 0 40 0 0 17.909 0 40s17.909 40 40 40zm19.028-48.772a11.867 11.867 0 0 0-2.564-3.83c-2.123-2.123-4.909-3.293-7.844-3.293-3.344 0-6.478 1.51-8.64 4.16-2.161-2.65-5.295-4.16-8.64-4.16-2.93 0-5.717 1.178-7.847 3.316a11.86 11.86 0 0 0-2.568 3.846A11.97 11.97 0 0 0 20.004 36c.027 3.551 1.565 6.863 4.218 9.094.121.1.235.197.348.302.581.519 2.263 2.045 4.394 3.977 3.649 3.312 8.191 7.433 10.049 9.071a1.464 1.464 0 0 0 1.943 0c1.346-1.189 4.129-3.714 7.08-6.39 2.895-2.626 5.888-5.345 7.64-6.902 2.712-2.243 4.277-5.593 4.289-9.191a12.138 12.138 0 0 0-.937-4.733zm-16.702-.723c1.596-2.06 3.95-3.242 6.463-3.242 2.138 0 4.171.86 5.729 2.417a8.849 8.849 0 0 1 1.92 2.87 9.274 9.274 0 0 1 .706 3.575 9.106 9.106 0 0 1-.886 3.923 9.016 9.016 0 0 1-2.33 3.002l-.07.062a1123.259 1123.259 0 0 0-7.707 6.964c-2.81 2.552-4.726 4.287-5.998 5.43-1.94-1.74-5.1-4.601-7.895-7.134l-1.846-1.674a649.27 649.27 0 0 0-3.676-3.327c-.031-.027-.062-.054-.094-.085-.101-.089-.206-.182-.32-.275-1.99-1.677-3.141-4.171-3.16-6.844a9.13 9.13 0 0 1 .694-3.57 8.912 8.912 0 0 1 1.928-2.89c1.569-1.572 3.606-2.436 5.729-2.436 2.509 0 4.866 1.177 6.462 3.234a2.774 2.774 0 0 0 2.178 1.061 2.754 2.754 0 0 0 2.173-1.061zm2.451 8.966h-3.43v-3.43c0-.777-.632-1.41-1.41-1.41-.777 0-1.41.633-1.41 1.41v3.43h-3.43c-.777 0-1.41.633-1.41 1.41 0 .778.633 1.41 1.41 1.41h3.43v3.43c0 .778.633 1.41 1.41 1.41.778 0 1.41-.632 1.41-1.41v-3.43h3.43a1.41 1.41 0 1 0 0-2.82z" opacity=".1"/>
</svg>
