<?xml version="1.0" encoding="UTF-8"?>
<svg width="150px" height="37px" viewBox="0 0 150 37" version="1.1" xmlns="http://www.w3.org/2000/svg" xmlns:xlink="http://www.w3.org/1999/xlink">
    <!-- Generator: Sketch 51.2 (57519) - http://www.bohemiancoding.com/sketch -->
    <title>logo</title>
    <desc>Created with Sketch.</desc>
    <defs>
        <polygon id="path-1" points="0 0.02 37.315 0.02 37.315 36.928 0 36.928"></polygon>
    </defs>
    <g id="Page-1" stroke="none" stroke-width="1" fill="none" fill-rule="evenodd">
        <g id="logo">
            <g id="Group" transform="translate(0.000000, 0.008000)">
                <g id="Clipped">
                    <mask id="mask-2" fill="white">
                        <use xlink:href="#path-1"></use>
                    </mask>
                    <g id="a"></g>
                    <path d="M13.806,36.137 C12.816,35.697 11.444,35.254 10.22,35.084 L10.22,13.057 C10.22,12.807 9.847,12.618 9.674,12.577 C9.501,12.535 9.277,12.484 8.764,12.577 C6.626,12.962 1.347,14.125 0.272,14.32 C0.146,14.342 0.132,14.389 0.132,14.389 C0.132,14.389 0.092,14.434 0.112,14.549 L0.23,15.23 C0.246,15.33 0.287,15.354 0.287,15.354 C0.287,15.354 0.309,15.406 0.397,15.418 C1.153,15.526 5.149,16.118 5.057,16.143 L5.063,35.083 C3.922,35.227 1.173,35.834 0.431,36.228 C0.238,36.329 0.094,36.444 0.024,36.582 C-0.04,36.704 0.019,36.902 0.267,36.902 L14.19,36.902 C14.305,36.902 14.447,36.842 14.422,36.666 C14.392,36.44 14.19,36.309 13.805,36.137 M30.805,32.39 C29.239,35 25.635,35.693 22.93,34.859 C21.675,34.472 20.491,33.626 19.831,32.449 C19.096,31.138 18.843,29.512 18.852,28.016 C18.862,26.516 19.049,24.88 19.767,23.549 C20.462,22.262 21.433,21.21 22.569,20.329 C22.77,20.173 22.942,20.076 22.942,20.076 L23.599,20.4 C23.936,20.563 24.269,20.729 24.597,20.91 C25.947,21.655 27.267,22.483 28.47,23.457 C29.78,24.517 30.935,25.761 31.368,27.46 C31.778,29.066 31.666,30.953 30.805,32.39 M19.762,9.04 C19.18,7.808 19.154,6.191 19.738,4.954 C20.29,3.784 21.428,2.794 22.624,2.385 C23.884,1.953 25.162,1.852 26.321,2.065 C27.715,2.323 28.881,2.855 29.784,3.784 C31.82,5.876 31.973,9.363 30.587,11.867 C30.238,12.499 29.834,13.117 29.335,13.637 C28.86,14.134 28.282,14.539 27.73,14.943 C27.596,15.043 27.285,15.201 27.285,15.201 L26.858,14.994 C26.568,14.854 26.279,14.709 25.988,14.571 C24.823,14.014 23.75,13.191 22.728,12.4 C21.54,11.48 20.422,10.436 19.762,9.04 M37.178,25.335 C36.464,21.11 32.786,18.554 29.472,16.52 C31.405,15.148 33.618,14.006 35.019,12.001 C36.124,10.418 36.498,8.341 36.081,6.445 C35.677,4.61 34.158,3.043 32.779,2.196 C31.194,1.224 29.387,0.461 27.372,0.181 C25.506,-0.078 23.264,-0.077 21.34,0.54 C18.773,1.363 16.979,3.056 16.25,3.798 C14.924,5.151 14.114,6.912 14.034,8.838 C13.991,9.914 14.061,11.014 14.435,12.03 C14.821,13.077 15.445,14.073 16.143,14.928 C17.448,16.522 19.137,17.713 20.803,18.868 C18.881,19.964 16.901,20.961 15.357,22.602 C14.186,23.849 13.317,25.348 13.097,27.086 C12.884,28.755 13.117,30.519 13.996,31.961 C15.912,35.101 19.426,36.58 22.908,36.848 C26.146,37.098 29.533,36.822 32.342,35.007 C33.923,33.986 35.356,32.67 36.288,30.99 C37.205,29.335 37.527,27.184 37.178,25.335" id="Shape" fill="#FADB14" fill-rule="nonzero" mask="url(#mask-2)"></path>
                </g>
            </g>
            <path d="M58.644,21.062 L43.081,21.062 L43.081,18.052 L53.818,18.052 L53.818,13.235 L45.774,13.235 L45.774,10.389 L53.818,10.389 L53.818,8.084 L59.994,8.084 L59.994,10.389 L68.024,10.389 L68.024,13.235 L59.994,13.235 L59.994,18.845 L58.644,21.062 Z M58.147,21.123 L58.147,31.953 C58.147,32.6 58.737,33.123 59.467,33.123 L76.004,33.123 L76.004,36.919 L54.37,36.919 C53.085,36.919 52.043,36.026 52.043,34.884 L52.043,23.404 L58.148,21.123 L58.147,21.123 Z M86.344,15.03 L103.88,15.03 C104.61,15.03 105.2,15.554 105.2,16.202 L105.2,21.067 L110.48,21.067 L110.48,15.308 C110.48,14.166 109.472,13.273 108.187,13.273 L97.907,13.273 L97.907,11.422 L107.324,11.422 L107.324,9.094 L97.907,9.094 L97.907,7.816 L92.627,7.816 L92.627,13.273 L82.037,13.273 C80.786,13.273 79.744,14.166 79.744,15.308 L79.744,29.767 C79.744,32.449 79.224,34.761 77.973,36.98 L83.322,36.98 C84.468,34.947 85.024,32.664 85.024,29.488 L85.024,16.202 C85.024,15.554 85.614,15.03 86.344,15.03 Z" id="Shape" fill="#FFFFFF" fill-rule="nonzero"></path>
            <path d="M106.693,32.883 L106.693,31.698 C106.693,30.587 105.685,29.632 104.436,29.632 L90.337,29.632 C89.051,29.632 88.009,30.587 88.009,31.698 L88.009,32.315 C88.009,34.443 87.314,35.562 85.37,36.98 L91.17,36.98 C92.593,36.086 93.313,34.55 93.313,32.771 C93.313,32.284 93.586,31.935 93.955,31.935 L100.78,31.935 C101.367,31.935 101.45,32.147 101.45,32.795 L101.45,34.947 C101.45,36.086 102.048,36.98 103.333,36.98 L110.547,36.98 L110.547,35.008 L108.012,35.008 C107.283,35.008 106.693,34.115 106.693,32.883 Z M129.29,13.55 C128.562,13.55 127.972,14.074 127.972,14.721 L127.972,29.612 C127.972,32.172 127.972,35.07 127.312,36.919 L122.069,36.919 C122.867,35.009 122.901,32.787 122.901,29.612 L122.901,13.86 C122.901,12.717 123.943,11.793 125.229,11.793 L149.147,11.793 L149.147,13.55 L129.29,13.55 Z" id="Shape" fill="#FFFFFF" fill-rule="nonzero"></path>
            <path d="M149.147,36.63 L143.877,36.63 C139.462,25.499 138.767,18.095 138.168,7.464 L143.125,7.464 C143.44,18.094 145.58,27.991 149.147,36.63 Z M119.776,8.864 L114.601,8.864 L114.601,13.92 L112.552,13.92 L112.552,15.678 L114.602,15.678 L114.602,33.457 L112.552,33.464 L112.552,35.161 L121.893,35.161 L121.893,33.464 L119.776,33.464 L119.776,15.678 L121.893,15.678 L121.893,13.92 L119.776,13.92 L119.776,8.864 Z" id="Shape" fill="#FFFFFF" fill-rule="nonzero"></path>
            <path d="M91.018,29.001 L97.275,29.001 L103.668,21.066 L103.668,18.045 L88.205,18.045 L88.205,21.052 L97.368,21.052 L91.018,29.001 Z M128.546,32.221 L134.115,32.221 L138.978,22.898 L138.308,18.044 L128.621,18.044 L128.621,21.01 L135.139,21.01 L128.546,32.221 Z M62.025,32.393 L68.479,32.393 L76.5,21.067 L76.5,18.052 L69.536,18.052 L63.337,21.06 L70.498,21.06 L62.025,32.393 Z" id="Shape" fill="#FADB14" fill-rule="nonzero"></path>
            <path d="M75.106,10.553 L75.106,13.97 C71.911,15.912 46.103,28.523 43.082,29.632 L43.082,26.184 C47.666,24.487 70.105,13.45 75.106,10.553 Z M145.28,18.045 L136.49,34.71 L140.358,34.71 L149.146,18.044 L145.28,18.045 Z M149.147,9.501 C149.147,10.627 148.259,11.539 147.164,11.539 C146.067,11.539 145.179,10.627 145.179,9.501 C145.179,8.376 146.067,7.464 147.164,7.464 C148.259,7.464 149.147,8.376 149.147,9.501 Z" id="Shape" fill="#FFFFFF" fill-rule="nonzero"></path>
        </g>
    </g>
</svg>