<svg xmlns="http://www.w3.org/2000/svg" width="580" height="360" viewBox="0 0 580 360">
    <defs>
        <linearGradient id="a" x1="79.267%" x2="22.446%" y1="13.335%" y2="88.859%">
            <stop offset="0%" stop-color="#35C3FF"/>
            <stop offset="60.358%" stop-color="#1592EA"/>
            <stop offset="100%" stop-color="#0072DC"/>
        </linearGradient>
        <linearGradient id="b" x1="50%" x2="50%" y1="0%" y2="100%">
            <stop offset="0%" stop-color="#FAD961"/>
            <stop offset="100%" stop-color="#F76B1C"/>
        </linearGradient>
        <linearGradient id="c" x1="50.03%" x2="50.03%" y1="0%" y2="100%">
            <stop offset="0%" stop-color="#00EFD1"/>
            <stop offset="100%" stop-color="#00ACEA"/>
        </linearGradient>
        <linearGradient id="d" x1="50.03%" x2="50.03%" y1="13.758%" y2="80.31%">
            <stop offset="0%" stop-color="#00EFD1"/>
            <stop offset="100%" stop-color="#00ACEA"/>
        </linearGradient>
        <linearGradient id="e" x1="79.267%" x2="22.446%" y1="13.335%" y2="88.859%">
            <stop offset="0%" stop-color="#35C3FF"/>
            <stop offset="100%" stop-color="#0072DC"/>
        </linearGradient>
        <linearGradient id="f" x1="100%" x2="24.966%" y1="0%" y2="100%">
            <stop offset="0%" stop-color="#FAD961"/>
            <stop offset="100%" stop-color="#F76B1C"/>
        </linearGradient>
        <linearGradient id="g" x1="50%" x2="50%" y1="0%" y2="100%">
            <stop offset="0%" stop-color="#35C3FF"/>
            <stop offset="100%" stop-color="#1890FF"/>
        </linearGradient>
        <linearGradient id="h" x1="50%" x2="50%" y1="0%" y2="73.154%">
            <stop offset="0%" stop-color="#FAD961"/>
            <stop offset="100%" stop-color="#F76B1C"/>
        </linearGradient>
        <linearGradient id="i" x1="50%" x2="50%" y1="15.577%" y2="68.555%">
            <stop offset="0%" stop-color="#35C3FF"/>
            <stop offset="60.358%" stop-color="#1592EA"/>
            <stop offset="100%" stop-color="#0072DC"/>
        </linearGradient>
        <linearGradient id="j" x1="50%" x2="50%" y1="0%" y2="100%">
            <stop offset="0%" stop-color="#00EFD1"/>
            <stop offset="100%" stop-color="#0094CA"/>
        </linearGradient>
        <linearGradient id="k" x1="54.217%" x2="50%" y1="0%" y2="100%">
            <stop offset="0%" stop-color="#35C3FF"/>
            <stop offset="60.358%" stop-color="#1592EA"/>
            <stop offset="100%" stop-color="#0072DC"/>
        </linearGradient>
    </defs>
    <g fill="none" fill-rule="evenodd">
        <path stroke="#1890FF" stroke-linecap="round" d="M65.192 169.208L347.03 324.63l168.494-107.315-273.9-150.395z" opacity=".4"/>
        <path stroke="#1890FF" stroke-linecap="round" d="M3.982 162.032l358.454 197.404 214.298-136.303-348.359-191.02z" opacity=".4"/>
        <path stroke="#1890FF" d="M359.407 279.305l-24.367 15.993-223.883-124.886 108.132-64.35" opacity=".4"/>
        <path fill="url(#a)" d="M238.537 203.58c-.012.034-.018.065-.03.096-.092.273-.233.54-.408.8-.028.05-.059.093-.092.142a4.82 4.82 0 0 1-.685.752c-.168.153-.39.297-.595.441-.178.126-.328.261-.534.381l-56.54 32.858c-.774.448-1.68.77-2.63 1.012-.135.031-.27.071-.409.102-.954.205-1.954.328-2.964.331h-.11a14.174 14.174 0 0 1-3.118-.35l-.12-.027c-1.009-.243-1.963-.593-2.786-1.068l-32.21-18.596c-1.672-.966-2.507-2.24-2.504-3.516l-.01 3.483c-.002 1.276.835 2.553 2.505 3.52l32.21 18.592a8.81 8.81 0 0 0 1.234.595c.334.132.684.248 1.043.35.163.049.337.083.51.125l.116.028c.089.022.175.046.267.065.282.06.564.107.85.147.28.043.558.073.838.095.279.021.561.037.846.046.105.003.212-.003.317-.003h.113c.147 0 .3.003.451 0a14.468 14.468 0 0 0 2.05-.218c.16-.028.307-.083.463-.113.141-.034.27-.068.408-.105.249-.061.51-.11.752-.184a9.623 9.623 0 0 0 1.878-.828l56.538-32.858c.037-.022.073-.04.107-.062.163-.098.282-.214.43-.319.208-.147.426-.285.598-.442a.861.861 0 0 1 .055-.04c.203-.184.378-.377.531-.57.037-.046.062-.095.092-.138.037-.05.068-.099.095-.145.053-.076.114-.153.157-.23a3.08 3.08 0 0 0 .23-.49c.01-.025.012-.05.022-.077.012-.031.018-.065.027-.092.034-.105.07-.212.09-.316.033-.163.054-.326.057-.491v-.077l.013-3.483a3.112 3.112 0 0 1-.148.878" transform="translate(110.387)"/>
        <path fill="#FFF" d="M346.54 199.163c3.36 1.937 3.378 5.088.043 7.027l-56.544 32.858c-3.336 1.94-8.776 1.94-12.133 0l-32.21-18.595c-3.33-1.92-3.348-5.075-.013-7.015l56.544-32.858c3.332-1.936 8.776-1.936 12.105-.015l32.208 18.598z"/>
        <path fill="url(#b)" d="M197.136 181.633l36.414 21.198-53.171 30.608c-.015.01-36.878-20.574-36.878-20.574l53.635-31.232z" transform="translate(110.387)"/>
        <path fill="url(#a)" d="M254.045 240.61c-.012.034-.019.064-.03.098a3.44 3.44 0 0 1-.403.792c-.03.049-.061.095-.095.144a4.726 4.726 0 0 1-.675.746c-.166.15-.38.288-.58.43-.181.128-.331.266-.54.383l-32.65 18.972c-.766.448-1.665.765-2.61 1.004-.136.034-.27.074-.409.104-.95.206-1.951.325-2.958.329h-.113a14.306 14.306 0 0 1-3.112-.353l-.122-.028c-1.01-.242-1.961-.595-2.784-1.07l-16.732-9.66c-1.694-.976-2.535-2.262-2.532-3.545l-.01 3.483c-.005 1.283.839 2.568 2.532 3.547l16.733 9.66a10.013 10.013 0 0 0 2.277.945c.166.046.338.083.51.126.036.01.076.018.12.027.088.019.174.047.266.065a13.123 13.123 0 0 0 1.69.242c.283.025.568.04.85.046.102.003.203 0 .305 0h.113c.154-.003.31.003.463-.003.32-.012.639-.033.955-.064a12.81 12.81 0 0 0 1.092-.15c.157-.028.295-.08.448-.114.141-.028.27-.064.408-.101.252-.062.516-.11.758-.187a9.657 9.657 0 0 0 1.854-.817l32.649-18.975a.666.666 0 0 0 .101-.059c.169-.101.288-.215.439-.325.196-.138.411-.276.577-.427.015-.012.04-.024.055-.04.2-.18.374-.374.528-.564.037-.05.058-.098.092-.144.037-.046.067-.095.095-.141.052-.077.113-.15.153-.224a3.06 3.06 0 0 0 .227-.491c.013-.025.016-.053.025-.077.012-.034.018-.068.028-.095.033-.102.07-.209.089-.31.033-.166.052-.329.058-.494v-.074l.01-3.486c0 .295-.056.586-.145.875" transform="translate(110.387)"/>
        <path fill="#FFF" d="M362.044 236.19c3.357 1.939 3.375 5.09.065 7.011l-32.65 18.976c-3.308 1.924-8.751 1.924-12.105-.015l-16.736-9.663c-3.354-1.933-3.372-5.088-.064-7.012l32.652-18.972c3.308-1.924 8.748-1.924 12.105.015l16.733 9.66z"/>
        <path fill="url(#c)" d="M228.118 226.903l22.536 13.01-34.844 20.25-22.535-13.01z" transform="translate(110.387)"/>
        <path fill="url(#b)" d="M227.432 166.59c-2.071-1.113-3.59-3.958-3.59-1.755 0 6.21 1.442 6.484 3.421 7.754l24.064 15.426c1.982 1.27 5.192 1.221 7.131-.104l19.927-13.612c1.94-1.33 3.532-4.336 3.532-6.69v-6.781c0-2.354-1.363-5.637-3.023-7.3l-.236-.234c-1.663-1.663-3.022-1.095-3.022 1.252v7.887c0 2.347-1.495 5.486-3.32 6.965l-12.465 10.11c-1.826 1.483-5.014 1.787-7.088.676l-25.33-13.594z" transform="translate(110.387)"/>
        <path fill="#FFF" d="M357.894 125.438c-1.5-.767-2.734-.015-2.734 1.672v19.157c0 1.691-1.139 3.851-2.532 4.806l-18.092 12.387c-1.393.951-1.374 2.483.04 3.4l28.344 18.393c1.415.92 3.716.893 5.112-.052l18.792-12.765c1.396-.945 2.54-3.103 2.54-4.79v-23.079c0-1.684-1.233-3.697-2.733-4.464l-28.737-14.665z"/>
        <path fill="url(#d)" d="M162.307 92.803l-.006-.144c-.003-.046-.01-.098-.013-.147l-.018-.148c-.006-.049-.012-.1-.021-.147-.007-.052-.013-.104-.025-.153-.01-.052-.021-.105-.03-.16l-.04-.16c-.013-.048-.028-.104-.04-.156-.013-.046-.025-.092-.04-.135v-.006a.044.044 0 0 1-.007-.022l-.052-.156-.052-.157c-.018-.046-.037-.098-.058-.147-.019-.049-.04-.098-.058-.147a1.214 1.214 0 0 0-.065-.144 3.5 3.5 0 0 0-.064-.148c-.025-.055-.052-.107-.08-.162-.03-.059-.061-.123-.092-.181l-.117-.209a.067.067 0 0 0-.009-.015 7.885 7.885 0 0 0-.255-.411 5.426 5.426 0 0 0-.193-.27l-.135-.182-.117-.144a4.645 4.645 0 0 0-.254-.288l-.006-.006-.099-.105a5.169 5.169 0 0 0-.26-.248l-.135-.117a1.62 1.62 0 0 0-.135-.11 1.473 1.473 0 0 0-.132-.098 1.4 1.4 0 0 0-.13-.096 4.48 4.48 0 0 0-.254-.16l-.025-.018L8.78.812 8.683.757 8.56.692c-.04-.018-.08-.037-.123-.055a1.407 1.407 0 0 0-.12-.052C8.279.569 8.24.554 8.197.539c-.037-.013-.077-.028-.12-.04a2.517 2.517 0 0 1-.122-.034 8.403 8.403 0 0 0-.126-.028.855.855 0 0 0-.132-.018C7.666.413 7.63.409 7.6.407h-.01c-.009-.003-.018-.003-.03-.003a1.3 1.3 0 0 0-.298.003 1.66 1.66 0 0 0-.39.083c-.088.03-.168.067-.245.116L.601 4.107c.274-.162.602-.23.964-.2h.006c.365.035.764.164 1.181.406l150.512 86.895c.411.242.807.567 1.172.95l.006.007c.356.384.678.828.951 1.295l.01.018c.27.47.49.97.644 1.47v.003c.153.507.236 1.01.233 1.488l-.264 93.25c0 .476-.086.878-.239 1.206-.153.325-.374.57-.647.73l6.026-3.504c.209-.12.39-.292.531-.512.043-.068.077-.135.114-.21 0-.002.003-.005.003-.005v-.003c.024-.052.049-.108.067-.166.022-.05.04-.101.055-.157.016-.049.028-.1.04-.153.013-.049.022-.095.028-.147.01-.05.015-.095.021-.144.006-.046.013-.096.016-.145l.009-.14c.003-.047.003-.096.003-.142v-.01l.267-93.249c0-.046-.003-.089-.003-.135" transform="translate(294.5 .496)"/>
        <path fill="url(#c)" d="M337.375 91.705c1.663.96 3.022 3.317 3.016 5.232l-.264 93.25c-.003 1.911-1.371 2.69-3.038 1.727L186.578 105.02c-1.663-.963-3.023-3.317-3.016-5.228l.264-93.25c.006-1.915 1.371-2.694 3.037-1.734l150.512 86.898z" transform="translate(110.387)"/>
        <path fill="#FFF" d="M450.543 183.183l.236-86.248c.006-1.911-1.353-4.268-3.016-5.231L297.25 4.809c-1.666-.96-3.031-.181-3.037 1.73l-.246 86.877 156.575 89.767z"/>
        <path fill="url(#b)" d="M256.853 262.878l-3.013-1.75-.188-66.369 3.01 1.75z" transform="translate(110.387)"/>
        <path fill="#FFF" d="M367.052 196.509l-3.01-1.75 49.157-28.38 3.014 1.749z"/>
        <path fill="#BEBEBE" d="M397.188 213.128l-3.01-1.75 7.751-13.43 3.013 1.749z"/>
        <path fill="#FFF" d="M404.944 199.697l-3.014-1.749 18.451-10.654 3.014 1.75zM361.54 233.708l-3.012-1.749 5.538-3.212 3.149 1.752z"/>
        <path fill="url(#b)" d="M251.285 280.255l-3.013-1.75-.132-46.546 3.013 1.75z" transform="translate(110.387)"/>
        <path fill="url(#a)" d="M305.824 168.128l.19 66.369-49.161 28.38-.19-66.368z" transform="translate(110.387)"/>
        <path fill="url(#c)" d="M313.006 189.044l.16 55.485-61.88 35.727-.132-46.546 35.647-20.581 7.754-13.431z" transform="translate(110.387)"/>
        <path stroke="#1890FF" stroke-linecap="round" d="M308.387 259.126L290.49 270.55M261.553 231.332l-19.037 12.566M193.398 192.493L174.36 205.06M350.27 152.515l-98.616-56.35" opacity=".4"/>
        <path fill="url(#b)" d="M219.338 149.291l-.012.018a1.546 1.546 0 0 1-.506.442l-101.151 58.784c-.458.267-1.062.399-1.667.399h-.015c-.604 0-1.209-.132-1.672-.399l-63.948-36.924c-.467-.266-.7-.622-.7-.978l-.012 3.869c0 .356.233.709.7.979l63.947 36.92c.108.062.221.114.341.163.092.037.187.07.288.095a2.918 2.918 0 0 0 .482.104c.077.01.157.019.233.025.077.006.157.012.234.012.033.003.064 0 .095 0H116.125c.09-.003.178-.009.264-.018a3.497 3.497 0 0 0 .755-.15 2.8 2.8 0 0 0 .515-.23L218.81 153.62l.028-.019c.114-.067.212-.144.3-.22.053-.053.102-.102.145-.157.012-.016.021-.034.03-.046.007-.006.01-.012.016-.022.015-.024.037-.049.052-.076a.98.98 0 0 0 .101-.27c.01-.043.013-.09.016-.132v-.022l.012-3.87a.92.92 0 0 1-.172.504" transform="translate(110.387)"/>
        <path fill="#FFF" d="M329.183 147.787c.927.534.933 1.408.012 1.945l-101.15 58.781c-.921.534-2.43.534-3.358 0l-63.95-36.92c-.924-.534-.927-1.409-.007-1.946l101.148-58.78c.92-.535 2.427-.535 3.354 0l63.951 36.92z"/>
        <path fill="url(#b)" d="M48.363 168.874zm103.272-143.12c.073-.006.126.031.196.037-.07-.006-.126-.043-.2-.037h.004zm1.03 1.182c-.002-.531-.192-.902-.5-1.077h.004-.006l-3.348-1.927-.01-.006a1.019 1.019 0 0 0-.172-.07c-.033-.01-.064-.02-.094-.022a1.08 1.08 0 0 0-.105-.013h-.11l-.04.003c-.003 0-.006.003-.012.003-.025 0-.05.003-.074.007-.046.009-.098.018-.147.033a1.653 1.653 0 0 0-.427.184L46.077 83.3a2.71 2.71 0 0 0-.555.435c-.028.028-.052.056-.08.086l-.027.03c-.028.029-.053.053-.074.08a2.37 2.37 0 0 0-.138.17c-.04.049-.077.098-.11.153a3.062 3.062 0 0 0-.102.147c-.028.046-.055.095-.086.144-.003.003-.003.01-.006.013l-.003.003c-.025.043-.05.086-.068.126l-.073.144c-.025.049-.043.098-.065.147a1.632 1.632 0 0 0-.064.153c-.022.053-.037.105-.055.16-.01.028-.016.055-.025.083l-.006.021c-.006.022-.015.046-.021.065a4.589 4.589 0 0 0-.05.196 6.96 6.96 0 0 0-.033.23c-.016.11-.022.221-.022.329l.596 80.73c.006.53.196.902.497 1.077l3.354 1.927c-.102-.062-.172-.172-.246-.276.295.414.822.518 1.442.156l101.547-59.247c.918-.54 1.666-1.85 1.663-2.912l-.601-80.733z" transform="translate(110.387)"/>
        <path fill="#FFF" d="M261.472 26.196c.923-.537 1.684-.11 1.694.955l.595 80.733c.01 1.064-.74 2.375-1.663 2.912l-101.547 59.25c-.918.537-1.685.104-1.688-.957l-.601-80.734c-.006-1.061.74-2.375 1.663-2.908l101.547-59.25z"/>
        <path fill="url(#a)" d="M148.306 32.742l.553 74.446-96.509 56.31-.552-74.448z" transform="translate(110.387)"/>
        <path fill="url(#e)" d="M103.31 187.615l-5.018 2.912-5.047-2.915 5.014-2.912zM90.688 180.327l-5.017 2.912-5.045-2.912 5.01-2.915zM84.377 176.683l-5.017 2.915-5.048-2.915 5.014-2.915z" transform="translate(110.387)"/>
        <path fill="#FFF" d="M182.277 169.075l-5.014 2.912-5.047-2.915 5.01-2.912zM189.988 164.625l-5.017 2.915-5.048-2.915 5.017-2.915z"/>
        <path fill="url(#e)" d="M92.087 172.236l-5.017 2.912-5.048-2.912 5.014-2.915zM98.398 175.877l-5.017 2.915-5.048-2.915 5.014-2.912zM104.706 179.52l-5.048-2.911-12.725 7.361 5.05 2.912zM111.02 183.165l-5.017 2.915-5.048-2.915 5.014-2.915zM111.823 175.37l-5.014 2.916-5.048-2.916 5.011-2.912zM118.134 179.014l-5.018 2.915-5.044-2.915 5.014-2.912zM99.201 168.083l-5.014 2.915-5.048-2.915 5.014-2.912zM105.512 171.73l-5.014 2.912-5.048-2.915 5.01-2.912z" transform="translate(110.387)"/>
        <path fill="#FFF" d="M197.102 160.474l-5.014 2.912-5.048-2.912 5.01-2.915z"/>
        <path fill="url(#e)" d="M125.25 174.864l-5.016 2.912-5.048-2.912 5.014-2.915zM112.629 167.576l-5.017 2.915-5.045-2.915 5.014-2.915zM118.943 171.22l-5.017 2.915-5.048-2.915 5.014-2.915z" transform="translate(110.387)"/>
        <path fill="#FFF" d="M204.222 156.321l-5.017 2.915-5.048-2.915 5.014-2.912z"/>
        <path fill="url(#e)" d="M106.318 163.932l-5.017 2.916-5.048-2.916 5.014-2.915z" transform="translate(110.387)"/>
        <path fill="#FFF" d="M211.338 152.168l-5.02 2.915-5.044-2.912 5.014-2.915z"/>
        <path fill="url(#e)" d="M113.438 159.78l-5.017 2.914-5.048-2.915 5.014-2.915zM119.749 163.423l-5.02 2.915-5.048-2.915 5.017-2.915zM126.057 167.067l-5.017 2.915-5.045-2.915 5.014-2.915zM126.566 159.57l-5.017 2.914-5.048-2.915 5.014-2.912zM132.877 163.213l-5.017 2.915-5.048-2.915 5.014-2.915z" transform="translate(110.387)"/>
        <path fill="#FFF" d="M218.159 148.317l-5.02 2.915-5.045-2.915 5.014-2.915z"/>
        <path fill="url(#e)" d="M120.255 155.925l-5.017 2.916-5.045-2.912 5.014-2.916z" transform="translate(110.387)"/>
        <path fill="#FFF" d="M224.979 144.164l-5.02 2.915-5.045-2.915 5.014-2.915z"/>
        <path fill="url(#e)" d="M127.079 151.775l-5.017 2.915-5.048-2.915 5.014-2.915zM133.39 155.42l-5.02 2.911-5.049-2.912 5.018-2.915zM139.697 159.06l-5.017 2.915-5.044-2.912 5.014-2.915zM146.814 154.91l-5.017 2.912-5.045-2.912 5.014-2.915zM153.125 158.554l-5.05-2.915-25.77 15.072 5.05 2.915zM140.503 151.266l-5.014 2.915-5.047-2.915 5.01-2.915z" transform="translate(110.387)"/>
        <path fill="#FFF" d="M232.093 140.014l-5.014 2.912-5.048-2.912 5.014-2.916z"/>
        <path fill="url(#e)" d="M134.192 147.622l-5.014 2.915-5.047-2.915 5.01-2.912zM159.649 154.994l-5.017 2.915-5.048-2.915 5.014-2.912zM153.34 151.353l-5.016 2.915-5.05-2.915 5.016-2.915zM147.027 147.709l-5.017 2.912-5.045-2.912 5.014-2.915z" transform="translate(110.387)"/>
        <path fill="#FFF" d="M238.62 136.453l-5.018 2.916-5.047-2.916 5.014-2.912z"/>
        <path fill="url(#e)" d="M140.716 144.065l-5.017 2.915-5.048-2.915 5.014-2.915zM166.17 151.14l-5.015 2.915-5.044-2.915 5.01-2.912zM159.862 147.499l-5.018 2.912-5.047-2.915 5.014-2.912zM153.55 143.855l-5.013 2.912-5.051-2.915 5.014-2.912z" transform="translate(110.387)"/>
        <path fill="#FFF" d="M245.14 132.6l-5.014 2.915-5.048-2.915 5.011-2.915z"/>
        <path fill="url(#e)" d="M147.24 140.211l-5.017 2.912-5.045-2.912 5.01-2.915z" transform="translate(110.387)"/>
        <path fill="#FFF" d="M251.667 128.746l-5.017 2.912-5.048-2.912 5.014-2.915z"/>
        <path fill="url(#e)" d="M153.763 136.355l-5.014 2.915-5.047-2.915 5.01-2.915zM160.074 139.999l-5.017 2.915-5.045-2.915 5.014-2.916zM166.388 143.642l-5.017 2.916-5.048-2.916 5.014-2.915zM179.22 143.433l-5.051-2.916-11.538 6.77 5.048 2.915zM172.909 139.789l-5.014 2.912-5.051-2.915 5.014-2.912z" transform="translate(110.387)"/>
        <path fill="#FFF" d="M258.188 124.89l-5.014 2.915-5.048-2.916 5.01-2.912z"/>
        <path fill="url(#e)" d="M166.598 136.145l-5.014 2.912-5.048-2.912 5.011-2.915zM186.04 139.576l-5.017 2.915-5.048-2.915 5.014-2.915zM173.418 132.288l-5.017 2.915-5.045-2.915 5.014-2.912zM179.732 135.932l-5.017 2.915-5.048-2.915 5.014-2.915z" transform="translate(110.387)"/>
        <path fill="#FFF" d="M271.187 125.004l-5.017 2.912-5.048-2.912 5.014-2.916z"/>
        <path fill="url(#e)" d="M78.066 173.04l-5.017 2.914L68 173.04l5.014-2.915zM85.776 168.59l-5.017 2.914-5.048-2.912 5.014-2.915zM92.89 164.442l-5.014 2.912-5.047-2.915 5.01-2.912zM100.01 160.289l-5.017 2.915-5.048-2.915 5.014-2.916zM107.124 156.135l-5.017 2.915-5.045-2.915 5.014-2.912zM113.944 152.285l-5.017 2.912-5.047-2.912 5.014-2.915zM120.765 148.131l-5.017 2.912-5.045-2.912 5.014-2.915zM127.882 143.978l-5.014 2.915-5.048-2.915 5.014-2.912zM134.408 140.421l-5.017 2.915-5.048-2.915 5.014-2.915zM140.929 136.567l-5.017 2.912-5.048-2.912 5.014-2.915zM147.455 132.71l-5.017 2.916-5.047-2.915 5.014-2.915zM153.976 128.857l-5.014 2.912-5.048-2.912 5.011-2.915zM160.8 125.004l-5.018 2.912-5.048-2.912 5.014-2.916z" transform="translate(110.387)"/>
        <path fill="#FFF" d="M182.277 169.075l-5.014 2.912-5.047-2.915 5.01-2.912zM189.988 164.625l-5.017 2.915-5.048-2.915 5.017-2.915zM197.102 160.474l-5.014 2.912-5.048-2.912 5.01-2.915zM204.222 156.321l-5.017 2.915-5.048-2.915 5.014-2.912zM211.338 152.168l-5.02 2.915-5.044-2.912 5.014-2.915zM218.159 148.317l-5.02 2.915-5.045-2.915 5.014-2.915zM224.979 144.164l-5.02 2.915-5.045-2.915 5.014-2.915zM232.093 140.014l-5.014 2.912-5.048-2.912 5.014-2.916zM238.62 136.453l-5.018 2.916-5.047-2.916 5.014-2.912zM245.14 132.6l-5.014 2.915-5.048-2.915 5.011-2.915zM251.667 128.746l-5.017 2.912-5.048-2.912 5.014-2.915zM258.188 124.89l-5.014 2.915-5.048-2.916 5.01-2.912z"/>
        <path fill="url(#e)" d="M71.89 169.075l-5.014 2.912-5.048-2.915 5.011-2.912zM79.6 164.625l-5.017 2.915-5.048-2.915 5.017-2.915zM86.714 160.474l-5.014 2.912-5.048-2.912 5.011-2.915zM93.834 156.321l-5.017 2.915-5.048-2.915 5.014-2.912zM100.951 152.168l-5.02 2.915-5.045-2.912 5.014-2.915zM107.771 148.317l-5.02 2.915-5.044-2.915 5.014-2.915zM114.592 144.164l-5.02 2.915-5.045-2.915 5.014-2.915zM121.706 140.014l-5.014 2.912-5.048-2.912 5.014-2.916zM128.232 136.453l-5.017 2.916-5.048-2.916 5.014-2.912zM134.753 132.6l-5.014 2.915-5.048-2.915 5.01-2.915zM141.28 128.746l-5.018 2.912-5.047-2.912 5.014-2.915zM147.8 124.89l-5.014 2.915-5.048-2.916 5.011-2.912zM154.623 121.036l-5.017 2.915-5.048-2.915 5.014-2.915zM167.11 128.644l-5.05-2.912-11.836 6.77 5.048 2.912z" transform="translate(110.387)"/>
        <path fill="url(#c)" d="M171.413 170.489c.46.267.464.703.006.97l-22.572 13.118c-.46.267-1.215.267-1.675 0l-15.15-8.746c-.46-.267-.463-.702-.002-.97l22.572-13.12c.457-.264 1.212-.264 1.672 0l15.15 8.748z" transform="translate(110.387)"/>
        <ellipse cx="462.934" cy="295.928" fill="url(#a)" rx="5.934" ry="5.928"/>
        <ellipse cx="161.971" cy="248.965" fill="url(#f)" rx="5.971" ry="5.965"/>
        <g>
            <path fill="#FFF" d="M33.81 177.208l12.497-6.954-.035 12.097-12.497 6.953z"/>
            <path fill="url(#c)" d="M.035 6.955l10.996 6.077L23.527 6.08 12.532 0z" transform="translate(22.78 164.176)"/>
            <path fill="url(#b)" d="M0 19.05l10.995 6.08.036-12.098L.036 6.954z" transform="translate(22.78 164.176)"/>
        </g>
        <g>
            <path fill="url(#g)" d="M5.284 21.732L0 18.664 8.912 0l5.284 3.066z" transform="translate(122 196)"/>
            <path fill="#FFF" d="M136.195 199.065l8.987 8.343-17.898 10.323z"/>
        </g>
        <ellipse cx="560" cy="213.996" fill="url(#b)" rx="4" ry="3.996"/>
        <g>
            <path fill="#00BEFF" d="M318.859 325l-.016 5.494-2.5 10.752.016-5.494z"/>
            <path fill="url(#h)" d="M16.36 10.752l-.018 5.494L0 6.956.017 1.46z" transform="translate(300 325)"/>
            <path fill="#FFF" d="M318.859 325l-2.5 10.752-16.342-9.292z"/>
        </g>
        <g>
            <path fill="url(#b)" d="M15.255 0l-.013 4.248-2.022 8.314.013-4.248z" transform="translate(106 135)"/>
            <path fill="url(#i)" d="M13.233 8.314l-.014 4.248L0 5.378l.014-4.25z" transform="translate(106 135)"/>
            <path fill="#FFF" d="M121.255 135l-2.022 8.314-13.22-7.185z"/>
        </g>
        <ellipse cx="112.923" cy="98.05" fill="url(#j)" rx="5.088" ry="5.083"/>
        <g>
            <path fill="#FFF" d="M248.664 268.867l8.683-4.731-.025 8.231-8.682 4.731z"/>
            <path fill="url(#k)" d="M.026 4.731L8.706 0l7.64 4.136-8.682 4.731z" transform="translate(241 260)"/>
            <path fill="url(#c)" d="M7.664 8.867l-.024 8.231L0 12.963.026 4.73z" transform="translate(241 260)"/>
        </g>
        <g>
            <path fill="url(#c)" d="M8.989 3.068l8.91 18.666 5.284-3.068L14.27 0z" transform="translate(471 221)"/>
            <path fill="#FFF" d="M479.989 224.067L471 232.41l17.899 10.324z"/>
        </g>
        <g>
            <path fill="#FFF" d="M393.524 296.745l10.539-6.008-.03 10.45-10.54 6.009z"/>
            <path fill="url(#b)" d="M.252 6.494L10.79.487l9.272 5.251-10.538 6.007z" transform="translate(384 285)"/>
            <path fill="url(#c)" d="M9.524 11.745l-.03 10.45-9.273-5.25.03-10.45z" transform="translate(384 285)"/>
        </g>
    </g>
</svg>
