<svg xmlns="http://www.w3.org/2000/svg" xmlns:xlink="http://www.w3.org/1999/xlink" width="140" height="140" viewBox="0 0 140 140">
    <defs>
        <path id="a" d="M0 .273h139.727v139.709H0z"/>
    </defs>
    <g fill="none" fill-rule="evenodd">
        <g>
            <mask id="b" fill="#fff">
                <use xlink:href="#a"/>
            </mask>
            <path fill="#FA5555" d="M139.727 70.166c-.017 38.585-31.309 69.85-69.893 69.834C31.249 139.983-.016 108.691 0 70.107.017 31.522 31.309.257 69.893.273c38.585.017 69.85 31.309 69.834 69.893" mask="url(#b)"/>
        </g>
        <path fill="#FFFFFE" d="M70.07 126.667c-31.384 0-56.666-25.282-56.666-56.667s25.282-56.667 56.667-56.667c31.384 0 56.667 25.282 56.667 56.667s-25.283 56.667-56.667 56.667"/>
        <path fill="#262626" d="M100.918 47.22v51.37c0 5.223-4.782 9.576-10.435 8.706-9.565-1.741-18.695-1.741-27.39 0-3.479.435-7.827-.87-9.566-4.789-6.521-15.236-2.174-6.965-19.13-35.697-1.739-3.047-.87-6.53 2.174-8.271 3.043-1.741 6.522-.87 8.26 2.177l7.392 12.624V41.126c0-2.612 1.739-4.789 4.348-5.224 3.043-.435 5.217 2.176 5.217 4.789v25.684c0 .87.87 1.306 1.74 1.306.869 0 1.304-.436 1.304-1.306V34.16c0-2.611 1.739-4.788 4.347-5.223 3.044-.436 5.218 2.176 5.218 4.788V65.94c0 .87.87 1.305 1.304 1.305.435 0 1.739-.435 1.739-1.305V40.255c0-2.612 1.74-4.788 4.348-5.224 3.043-.435 5.217 2.177 5.217 4.789v25.684c0 .871.435 1.306 1.305 1.306.869 0 1.739-.435 1.739-1.306V46.35c0-2.612 1.739-4.789 4.347-5.224 3.913.87 6.522 3.047 6.522 6.094"/>
    </g>
</svg>
