<svg width="40" height="40" viewBox="0 0 40 40" fill="none" xmlns="http://www.w3.org/2000/svg">
<path d="M35.9337 29.1184C36.4109 29.5956 36.6495 30.1596 36.6495 30.8103C36.6495 31.461 36.4109 32.0249 35.9337 32.5021L32.4849 35.9509C32.0511 36.4281 31.4872 36.6666 30.7931 36.6666C30.1424 36.6666 29.5784 36.4281 29.1013 35.9509L21.488 28.3376C20.7505 27.6001 20.295 26.7108 20.1215 25.6697C19.948 24.6286 20.0998 23.6742 20.577 22.8066L13.6144 15.844H9.58004L3.33325 7.51496L7.49778 3.35044L15.8268 9.59723V13.6316L22.7894 20.5942C23.657 20.117 24.6114 19.9652 25.6525 20.1387C26.6936 20.3122 27.5829 20.7677 28.3204 21.5052L35.9337 29.1184ZM24.9367 17.9914C24.3728 17.9914 23.8305 18.0564 23.31 18.1866L17.9742 12.8508C17.9308 10.2046 18.8201 7.94877 20.6421 6.08341C21.8133 4.91213 23.1798 4.1096 24.7415 3.67579C26.3466 3.24199 27.9517 3.2203 29.5568 3.61072C29.8604 3.69748 30.0339 3.89269 30.0773 4.19636C30.1641 4.50002 30.099 4.73861 29.8821 4.91213L25.0669 9.79244L25.7827 14.2172L30.2075 14.933L35.0878 10.1178C35.3047 9.90089 35.5433 9.83582 35.8035 9.92258C36.1072 9.96596 36.3024 10.1395 36.3892 10.4431C36.7796 12.0048 36.7579 13.5882 36.3241 15.1933C35.8903 16.7984 35.0878 18.1866 33.9165 19.3578C33.0923 20.1387 32.1379 20.7677 31.0534 21.2449L29.817 20.0085C28.4722 18.6637 26.8455 17.9914 24.9367 17.9914ZM18.1694 23.3272C17.8657 24.6719 17.9742 26.0384 18.4947 27.4266L10.426 35.4303C9.60173 36.2545 8.60398 36.6666 7.43271 36.6666C6.30482 36.6666 5.32875 36.2545 4.50453 35.4303C3.72368 34.6495 3.33325 33.6734 3.33325 32.5021C3.33325 31.3742 3.74537 30.3982 4.5696 29.5739L14.4603 19.6181L18.1694 23.3272ZM6.39158 33.6083C6.69524 33.912 7.06397 34.0638 7.49778 34.0638C7.93158 34.0638 8.30032 33.912 8.60398 33.6083C8.90764 33.3047 9.05948 32.9359 9.05948 32.5021C9.05948 32.0683 8.90764 31.6996 8.60398 31.3959C8.30032 31.0923 7.93158 30.9404 7.49778 30.9404C7.06397 30.9404 6.69524 31.0923 6.39158 31.3959C6.08791 31.6996 5.93608 32.0683 5.93608 32.5021C5.93608 32.9359 6.08791 33.3047 6.39158 33.6083Z" fill="white"/>
</svg>
