<svg width="72" height="72" viewBox="0 0 72 72" fill="none" xmlns="http://www.w3.org/2000/svg">
<path d="M33.7886 66.6286H9.76095V31.8602C9.76095 30.7022 8.84343 29.7758 7.69652 29.7758C6.54962 29.7758 5.60342 30.6733 5.60342 31.8602V68.7419C5.60342 69.8999 6.52095 70.8262 7.66785 70.8262H33.7886C34.9355 70.8262 35.853 69.8999 35.853 68.7419C35.853 67.5839 34.9355 66.6286 33.7886 66.6286ZM57.9883 1H29.6024C29.3157 1 29.0576 1.0579 28.8282 1.1737C28.5989 1.26055 28.3981 1.40529 28.1974 1.57899L28.1688 1.60794L6.20555 23.9859C5.60342 24.5939 5.43139 25.4913 5.77546 26.2729C6.09086 27.0546 6.83635 27.5757 7.69652 27.5757H29.6597C30.8066 27.5757 31.7242 26.6493 31.7242 25.4913V5.22663H55.8952V34.2051C55.8952 35.3631 56.8127 36.2895 57.9596 36.2895C59.1065 36.2895 60.024 35.3631 60.024 34.2051V3.08437C60.0527 1.92638 59.1352 1 57.9883 1ZM27.5666 23.378H12.6569L27.5666 8.20843V23.378Z" fill="#071F44" fill-opacity="0.1"/>
<path d="M49.0424 35.9708C39.4657 35.9708 31.7241 43.8161 31.7241 53.4853C31.7241 63.1544 39.4944 70.9998 49.0424 70.9998C58.619 70.9998 66.3893 63.1544 66.3893 53.4853C66.3893 43.8161 58.619 35.9708 49.0424 35.9708ZM51.2502 65.3835C50.7341 65.9046 50.0459 66.1941 49.3291 66.1941C48.6123 66.1941 47.9241 65.9046 47.408 65.3835C46.8919 64.8914 46.6052 64.1677 46.6052 63.4439C46.6052 62.7202 46.8919 62.0254 47.408 61.5043C48.4116 60.4911 50.218 60.4911 51.2502 61.5043C51.7663 62.0254 52.053 62.7202 52.053 63.4439C52.053 64.1677 51.7663 64.8625 51.2502 65.3835ZM53.716 54.8749C52.4544 55.5118 51.5656 56.0039 51.5656 56.4671C51.5656 57.7119 50.562 58.7252 49.3578 58.7252C48.1249 58.7252 47.15 57.7119 47.15 56.4671C47.15 53.2247 49.7879 51.8641 51.7376 50.8798C53.7734 49.8376 54.4042 49.3455 54.4042 48.4191C54.4042 47.348 52.3397 46.219 49.0137 46.219C45.7164 46.219 43.996 47.898 43.6806 48.9692C43.3365 50.1561 42.1036 50.8509 40.928 50.4745C39.7525 50.1271 39.0643 48.8823 39.4084 47.6954C40.2399 44.8004 43.5946 41.7318 48.985 41.7318C54.8629 41.7318 58.8197 44.4241 58.8197 48.4191C58.8197 52.2694 55.7518 53.8327 53.716 54.8749Z" fill="#071F44" fill-opacity="0.2"/>
</svg>
