<svg width="56" height="68" viewBox="0 0 56 68" fill="none" xmlns="http://www.w3.org/2000/svg">
<path d="M28.0053 0L15.5 20.0211L28.0263 40L40.5526 20.0211L28.0053 0Z" fill="white"/>
<path d="M28.0051 1.2627L16.2998 20.0206L28.0261 38.7364L39.7524 20.0206L28.0051 1.2627Z" fill="black"/>
<path d="M28.0049 4.29492L18.1943 20.0212L28.0259 35.7055L37.8575 20.0212L28.0049 4.29492Z" fill="white"/>
<path d="M28.026 5.68457L19.0576 20.0214L28.026 34.3161L36.9945 20.0214L28.026 5.68457Z" fill="black"/>
<path d="M28.0266 6.7998L19.7529 20.0209L28.0266 33.1998L36.3003 20.0209L28.0266 6.7998Z" fill="white"/>
<path d="M28.005 6.50488L25.5207 10.2312H30.5734L28.005 6.50488ZM32.4892 26.6733H23.6471L20.3418 21.4312H35.6471L32.4892 26.6733ZM23.7313 13.1996H32.3628L35.5207 18.4417H20.426L23.7313 13.1996ZM28.005 33.7259L25.4365 29.5996H30.7418L28.005 33.7259Z" fill="black"/>
<path d="M23.8789 26.6104H30.0894C31.8789 26.6104 33.4368 24.9051 33.4368 22.5683C33.4368 21.242 32.8473 20.442 32.5315 20.0209C32.8894 19.642 33.4157 19.1578 33.4157 17.2841C33.4157 15.9367 32.2789 13.3262 29.6263 13.3262H23.8789V26.6104Z" fill="black"/>
<path d="M24.3418 26.1681H29.4997C31.1629 26.1681 32.9313 25.0944 32.9313 22.6102C32.9313 21.3681 32.3629 20.6313 31.9418 20.0418C32.2786 19.705 32.9734 19.1576 32.9734 17.3892C32.9734 16.1471 32.2576 13.7471 29.226 13.7471H24.3418V26.1681Z" fill="white"/>
<path d="M24.7842 25.7263H29.1421C31.0579 25.7263 32.4894 24.7158 32.4894 22.421C32.4894 21.2842 31.6894 20.2737 31.2894 20.0421C31.6473 19.8316 32.5315 19.221 32.5315 17.5789C32.5315 16.2737 31.8368 14.1895 29.0158 14.1895H24.7842V25.7263Z" fill="black"/>
<path d="M26.7002 20.9685H28.9318C29.6686 20.9685 30.3633 21.3895 30.3633 22.1685C30.3633 23.1159 29.6897 23.4317 28.8055 23.4317H26.7212L26.7002 20.9685ZM26.7002 16.3369H28.616C29.2476 16.3369 30.1318 16.4632 30.1318 17.5369C30.1318 18.7159 29.2897 18.779 28.616 18.779H26.7002V16.3369Z" fill="white"/>
<path d="M27.1631 16.7793H28.5526C28.9947 16.7793 29.6262 16.8004 29.6262 17.5582C29.6262 18.2951 29.0368 18.3372 28.5526 18.3372H27.1631V16.7793ZM27.2052 21.4109H28.721C29.2052 21.4109 29.8368 21.6846 29.8368 22.2109C29.8368 22.8846 29.2262 22.9898 28.6368 22.9898H27.2052V21.4109Z" fill="black"/>
<path d="M8.428 51.492C8.4 51.842 8.358 52.192 8.316 52.556H4.914V53.438H8.19C8.134 53.788 8.078 54.138 8.008 54.488H5.25V57.848H12.6V54.488H8.96C9.03 54.152 9.1 53.802 9.17 53.438H12.936V52.556H9.296C9.324 52.262 9.366 51.954 9.394 51.632L8.428 51.492ZM4.942 58.8V59.724H12.894V58.8H4.942ZM11.718 57.008H10.374V55.342H11.718V57.008ZM9.576 57.008H8.274V55.342H9.576V57.008ZM7.476 57.008H6.132V55.342H7.476V57.008ZM3.486 51.492C2.898 52.836 1.932 54.04 0.616 55.076L0.91 56.056C2.506 54.852 3.668 53.466 4.382 51.912L3.486 51.492ZM3.808 55.076C3.164 56.476 2.114 57.736 0.686 58.828L0.98 59.78C1.526 59.374 2.03 58.954 2.492 58.506V64.4H3.472V57.428C3.948 56.812 4.354 56.168 4.676 55.482L3.808 55.076ZM12.208 60.298L11.368 60.578C11.844 61.432 12.292 62.426 12.684 63.56L13.51 63.182C13.146 62.16 12.712 61.194 12.208 60.298ZM5.054 60.62C4.83 61.642 4.48 62.58 4.004 63.434L4.83 63.952C5.32 63.056 5.698 62.006 5.95 60.802L5.054 60.62ZM10.192 64.288C10.626 64.288 10.948 64.204 11.144 64.036C11.368 63.826 11.522 63.252 11.606 62.328L10.724 62.034C10.682 62.692 10.598 63.098 10.486 63.238C10.402 63.336 10.248 63.392 10.024 63.392H8.162C7.798 63.392 7.63 63.21 7.63 62.874V60.536H6.692V63.084C6.692 63.882 7.084 64.288 7.868 64.288H10.192ZM9.142 60.088L8.414 60.55C8.974 61.18 9.422 61.768 9.758 62.3L10.5 61.768C10.178 61.292 9.73 60.732 9.142 60.088ZM20.454 53.046V55.538H16.842V53.046H20.454ZM16.842 56.476H20.454V58.954H16.842V56.476ZM20.454 59.892V64.442H21.434V59.892H25.158V60.718H26.138V52.094H15.862V60.746H16.842V59.892H20.454ZM21.434 58.954V56.476H25.158V58.954H21.434ZM25.158 55.538H21.434V53.046H25.158V55.538ZM39.2 64.288C40.124 64.288 40.586 63.812 40.586 62.86V52.29H34.23V53.214H39.606V62.58C39.606 63.112 39.396 63.378 38.99 63.378L37.744 63.35L37.996 64.288H39.2ZM29.386 53.886V64.414H30.366V53.886H29.386ZM31.416 51.436L30.492 51.842C31.136 52.598 31.71 53.466 32.242 54.446L33.152 53.97C32.648 53.046 32.06 52.206 31.416 51.436ZM42.658 57.89V58.87H55.342V57.89H51.548C52.416 56.35 53.27 54.39 54.082 51.982L53.074 51.632C52.374 53.9 51.52 55.986 50.484 57.89H42.658ZM44.492 52.444L43.554 52.892C44.254 54.096 44.898 55.482 45.514 57.022L46.466 56.546C45.85 55.062 45.192 53.69 44.492 52.444ZM47.894 51.632L46.942 52.08C47.628 53.368 48.272 54.824 48.888 56.434L49.812 55.972C49.224 54.404 48.58 52.948 47.894 51.632ZM46.494 59.64C45.57 61.208 44.45 62.552 43.148 63.672L43.974 64.26C45.29 63.084 46.438 61.698 47.39 60.088L46.494 59.64ZM51.576 59.584L50.736 60.116C52.08 61.628 53.144 63 53.928 64.232L54.824 63.602C54.068 62.468 52.99 61.124 51.576 59.584Z" fill="#071F44" fill-opacity="0.4"/>
</svg>
