<svg fill="none" height="191" viewBox="0 0 170 191" width="170" xmlns="http://www.w3.org/2000/svg"><g fill="#071f44"><path d="m12 65h146v94h-146z" fill-opacity=".2"/><path d="m12 65-12 36.5v83.5l12-46.275z" fill-opacity=".1"/><path d="m170 185-12-46.275v-73.725l12 36z" fill-opacity=".1"/></g><rect fill="#fff" fill-opacity=".8" height="110" rx="8" width="110" x="31" y="10"/><path clip-rule="evenodd" d="m114.15 22.5207c-1.22-2.641-4.985-2.7432-6.294-.0112l-4.118 8.7891-9.28 1.3829-.0149.0023c-2.9637.4756-3.8542 4.1169-1.9098 6.1452l6.6713 6.8265-1.5885 9.6111-.0036.0229c-.4121 2.7937 2.5035 5.2255 5.1585 3.7801l.005-.0026 8.255-4.5356 8.189 4.5336.008.0046c2.656 1.4454 5.572-.9864 5.16-3.7801l-1.593-9.634 6.663-6.8173.009-.0092c1.944-2.0283 1.054-5.6696-1.91-6.1452l-9.231-1.3851zm-3.877 1.1403-4.719 10.0721-10.6919 1.5932c-.3065.0514-.5456.2665-.6479.6102-.1033.3473-.0339.7401.2491 1.0379l7.6037 7.7808-1.807 10.9336c-.054.3933.114.7344.39.9417.276.2071.58.2309.839.0904l9.547-5.2455 9.473 5.2446.003.0018c.26.1395.562.1154.838-.0913.276-.2073.444-.5484.39-.9417l-1.807-10.9336 7.604-7.7808c.283-.2978.352-.6906.249-1.0379-.103-.3439-.342-.5591-.649-.6103l-10.618-1.5931-4.799-10.0885c-.28-.6094-1.126-.6467-1.447.0164z" fill="#071f44" fill-opacity=".1" fill-rule="evenodd"/><circle cx="111" cy="40" r="38" style="stroke:#071f44;stroke-opacity:.1;stroke-width:3;stroke-linecap:round;stroke-linejoin:round;stroke-dasharray:1 12"/><path d="m0 101h170v86c0 2.209-1.791 4-4 4h-162c-2.20914 0-4-1.791-4-4z" fill="#fff"/><path d="m143.468 146.804c1.216.225 1.775 1.63.962 2.561-4.937 5.66-12.926 10.515-23.082 13.993-11.38 3.897-24.8982 5.865-38.6165 5.622s-26.9328-2.685-37.7495-6.976c-9.6328-3.821-16.9236-8.933-21.0765-14.737-.7223-1.01-.0644-2.364 1.164-2.542.7217-.105 1.4281.247 1.8212.861 3.7572 5.871 10.8858 11.048 20.4924 14.858 10.1677 4.033 22.5893 6.328 35.4845 6.557s25.6024-1.621 36.2994-5.284c10.198-3.492 18.07-8.462 22.606-14.252.403-.514 1.053-.78 1.695-.661z" fill="#071f44" fill-opacity=".1"/><circle cx="129" cy="135" fill="#071f44" fill-opacity=".1" r="5"/><circle fill="#071f44" fill-opacity=".1" r="5" transform="matrix(-1 0 0 1 41 135)"/></svg>