<svg width="64" height="64" viewBox="0 0 64 64" fill="none" xmlns="http://www.w3.org/2000/svg">
<path fill-rule="evenodd" clip-rule="evenodd" d="M28.3236 0.340276C26.7645 -0.248188 24.9422 -0.0646773 23.5293 0.823145C22.15 1.69251 21.2846 3.31848 21.3201 4.9588C21.3496 6.28028 21.7741 7.63969 22.6822 8.61568C23.575 9.57937 24.9148 10.0397 26.2068 9.95152C27.6786 9.85617 29.1372 9.36715 30.3571 8.52546C30.2419 8.02383 30.1263 7.52232 30.0106 7.02085C29.7857 6.04547 29.5607 5.07024 29.3394 4.09455C28.8872 4.19476 28.4359 4.29791 27.9848 4.40104C27.6374 4.48045 27.29 4.55986 26.9422 4.63791C26.966 4.74429 26.9899 4.85066 27.0137 4.95703C27.1624 5.62159 27.3111 6.28604 27.4643 6.94973C26.6791 7.47053 25.5679 7.57203 24.7787 7.00612C24.0799 6.54785 23.7752 5.66721 23.8056 4.85525C23.8381 3.98076 24.3948 3.1524 25.1941 2.80895C26.0392 2.42246 27.0032 2.55573 27.8686 2.79768C27.9872 2.13279 28.1117 1.46925 28.2364 0.805424C28.2655 0.650398 28.2946 0.495355 28.3236 0.340276ZM40.2748 0.420242C38.5724 -0.255364 36.4973 0.0070866 35.0986 1.22912C33.8178 2.28918 33.2845 4.05047 33.4277 5.67746C33.5262 6.8913 34.1489 8.0467 35.0996 8.79612C36.1946 9.65113 37.6369 10.0079 39.0051 9.89513C39.1981 8.94682 39.3931 7.99851 39.5902 7.05123C38.608 7.4039 37.3952 7.30138 36.6324 6.53043C35.897 5.83842 35.768 4.62356 36.2962 3.77162C36.7157 3.09806 37.51 2.71259 38.2901 2.72694C38.9056 2.71259 39.4978 2.93198 40.0239 3.23954C40.0438 3.01564 40.0635 2.7918 40.0833 2.56799C40.1466 1.85206 40.2098 1.13645 40.2748 0.420242ZM52.8049 8.36758C52.356 5.95939 49.7679 4.19912 47.387 4.72608C45.3179 5.07362 43.6217 6.86874 43.2915 8.94477C43.0071 10.4518 43.4571 12.1055 44.5572 13.1829C45.4155 14.0656 46.6222 14.5885 47.8481 14.5998C49.5627 14.5823 51.2427 13.634 52.1335 12.1516C52.8446 11.0434 53.0802 9.65421 52.8049 8.36758ZM45.8177 10.1022C45.578 8.88326 46.4749 7.61201 47.6552 7.34136C48.3713 7.16297 49.1645 7.38954 49.6887 7.91239C50.1549 8.36451 50.3977 9.03294 50.3489 9.68291C50.2747 10.7963 49.3636 11.8184 48.2483 11.9332C47.129 12.1003 45.9711 11.2381 45.8177 10.1022ZM12.0643 6.66893C11.4745 7.18457 10.8849 7.70003 10.3004 8.222C10.9998 9.99894 11.701 11.7752 12.4021 13.5514C12.9338 14.8987 13.4656 16.2459 13.9966 17.5933C14.3737 17.2801 14.7396 16.9541 15.1053 16.6282C15.3799 16.3835 15.6544 16.1389 15.9337 15.8997C15.9218 15.8699 15.9099 15.84 15.898 15.8102C15.7707 15.4906 15.6435 15.1714 15.5274 14.8479C16.1259 14.3342 16.7158 13.8101 17.3057 13.286C17.5446 13.0737 17.7835 12.8614 18.023 12.6498C18.343 12.8436 18.6619 13.0394 18.9809 13.2363C19.3382 12.9201 19.6964 12.6048 20.0546 12.2896C20.349 12.0305 20.6434 11.7714 20.9372 11.5119C19.8947 10.8835 18.8505 10.258 17.8063 9.63239C16.0019 8.5513 14.1973 7.47015 12.4009 6.3746C12.2887 6.47274 12.1765 6.57084 12.0643 6.66893ZM13.2359 9.7688C13.2068 9.70224 13.1776 9.63568 13.1485 9.56912C13.9506 10.0512 14.7401 10.5563 15.5291 11.061C15.6663 11.1488 15.8035 11.2366 15.9408 11.3243C15.811 11.438 15.681 11.5516 15.551 11.6652C15.1959 11.9758 14.8405 12.2866 14.4872 12.5996C14.0631 11.6591 13.6495 10.7141 13.2359 9.7688ZM55.0769 16.1654C53.5566 17.0159 52.0364 17.8663 50.5134 18.7108C50.8212 19.2806 51.1333 19.848 51.4453 20.4152C51.5319 20.5726 51.6184 20.7299 51.7049 20.8873C52.4342 20.4834 53.1618 20.0767 53.8897 19.67C54.3368 19.4202 54.7839 19.1703 55.2315 18.921C54.9449 19.3285 54.6581 19.7361 54.3712 20.1437C53.7974 20.9592 53.2235 21.7747 52.6506 22.5902C52.815 22.8822 52.9756 23.1765 53.1363 23.4707C53.4094 23.9709 53.6824 24.4712 53.9741 24.9604C54.4999 24.1706 55.0338 23.3863 55.5677 22.6019C55.9022 22.1105 56.2367 21.619 56.5693 21.1262C57.0192 21.5168 57.6175 21.7187 58.2107 21.6521C59.4286 21.5219 60.616 20.5828 60.7978 19.3188C60.9268 18.3479 60.5703 17.3924 60.1223 16.5507C59.9654 16.2662 59.8096 15.981 59.6538 15.6958C59.3628 15.1631 59.0718 14.6304 58.7734 14.1015C57.5401 14.7875 56.3085 15.4765 55.0769 16.1654ZM56.1524 18.5353C56.1308 18.4971 56.1094 18.4591 56.0878 18.4217C56.7795 18.0485 57.4702 17.6723 58.1508 17.2766C58.1732 17.3186 58.1963 17.3608 58.2196 17.4033C58.3706 17.6785 58.5273 17.964 58.5185 18.2864C58.5093 19.0994 57.4946 19.6868 56.7938 19.2952C56.4901 19.1338 56.3175 18.828 56.1524 18.5353ZM7.60561 15.2385C6.84787 14.936 5.95301 14.9535 5.24199 15.3748C4.41416 15.8679 3.84535 16.6881 3.38725 17.5206C3.24966 17.7755 3.11098 18.0301 2.97226 18.2848C2.73004 18.7294 2.48767 19.1744 2.25064 19.6222C4.15935 20.6712 6.05884 21.7364 7.95817 22.8015C8.80604 23.277 9.65388 23.7524 10.5025 24.2264C10.7798 23.7076 11.0686 23.1946 11.3572 22.6817C11.4724 22.477 11.5876 22.2723 11.7021 22.0673C10.9667 21.6695 10.2313 21.2697 9.5152 20.8371C9.53331 20.7003 9.6028 20.5752 9.67189 20.4508C9.70744 20.3868 9.74288 20.323 9.77117 20.2578C10.2404 19.3659 10.4243 18.2587 10.016 17.3083C9.58326 16.2862 8.61018 15.6106 7.60561 15.2385ZM6.59012 19.2123C6.20127 18.9904 5.81247 18.7686 5.41873 18.556C5.62086 18.1039 5.9591 17.6282 6.4883 17.5739C7.06219 17.5616 7.72141 17.9747 7.75086 18.6011C7.77698 18.9598 7.60867 19.283 7.44806 19.5915C7.43377 19.6189 7.41954 19.6462 7.40551 19.6735C7.13257 19.5218 6.86133 19.3671 6.59012 19.2123ZM3.04596 26.9913C2.68233 26.4316 1.93881 26.2788 1.32226 26.3957C0.897678 26.4746 0.443643 26.7504 0.369494 27.2138C-0.128218 30.4145 -0.120092 33.6941 0.375588 36.8948C1.38726 43.4899 4.51269 49.7149 9.11399 54.4974C13.9591 59.5763 20.4862 62.9974 27.4064 64C27.8749 60.3409 28.3419 56.6815 28.8088 53.0221C29.2662 49.4377 29.7236 45.8533 30.1824 42.2689C30.2556 41.7245 30.2251 41.1422 29.959 40.6511C29.7203 40.1959 29.2571 39.8617 28.7452 39.8104C28.0738 39.7274 27.4176 40.1067 27.0347 40.648C26.7637 41.0051 26.6265 41.4338 26.491 41.8572C26.4685 41.9273 26.4461 41.9974 26.4232 42.0669C26.0893 43.0791 25.7537 44.0907 25.4181 45.1024C24.9929 46.384 24.5676 47.6657 24.1459 48.9491C18.7828 48.9532 13.4197 48.9419 8.0566 48.9275C3.91848 42.9004 2.09219 35.2852 3.15668 28.0217C3.22169 27.6772 3.25114 27.2958 3.04596 26.9913ZM63.2965 26.6684C62.7033 26.2388 61.8288 26.2583 61.2376 26.6817C60.8506 26.9555 60.7145 27.4701 60.8283 27.9202C61.9222 35.2155 60.1051 42.8809 55.9355 48.9316C53.9669 48.932 51.9985 48.9364 50.0301 48.9408C46.6369 48.9483 43.2437 48.9559 39.8502 48.9429C39.4494 47.7186 39.0439 46.4963 38.6385 45.274C38.2611 44.136 37.8836 42.9981 37.51 41.8588C37.2763 40.9002 36.6151 39.874 35.5476 39.8033C34.9848 39.7571 34.4201 40.0524 34.1204 40.5322C33.7873 41.0437 33.7416 41.6855 33.8188 42.2781C34.7512 49.518 35.6826 56.759 36.6131 64C42.6425 63.1204 48.3865 60.421 52.9583 56.3612C57.6673 52.2071 61.1553 46.6557 62.8343 40.5722C63.9903 36.4242 64.2919 32.0374 63.715 27.7684C63.7073 27.7158 63.7004 27.6616 63.6935 27.6068C63.6495 27.2582 63.6019 26.881 63.2965 26.6684ZM6.08607 27.0159C5.44209 26.7935 4.50863 27.0242 4.33392 27.7695C3.81488 30.9086 3.85144 34.1421 4.44565 37.269C5.10893 40.8038 6.49236 44.1706 8.30038 47.2606C9.18537 47.2697 10.0704 47.2674 10.9553 47.2651C11.1633 47.2646 11.3712 47.264 11.5792 47.2636C7.69398 41.9182 5.99262 35.0115 6.96367 28.4533C7.09571 27.833 6.68637 27.182 6.08607 27.0159ZM59.6632 27.7592C59.3514 26.6623 57.587 26.6848 57.1401 27.6721C56.9898 27.955 57 28.2841 57.0538 28.5917C57.9913 35.1089 56.291 41.9644 52.42 47.2667C52.8779 47.265 53.3359 47.2656 53.794 47.2662C54.4283 47.2671 55.0627 47.268 55.6968 47.2626C57.0528 44.9528 58.1782 42.4954 58.9258 39.916C60.0817 35.9895 60.3377 31.7975 59.6632 27.7592ZM10.0546 27.6126C9.36386 27.3983 8.46087 27.7715 8.32476 28.5384C7.30597 35.1212 9.16274 42.0946 13.3202 47.2698C13.949 47.2644 14.5776 47.2652 15.2062 47.266C15.7777 47.2668 16.3492 47.2675 16.9209 47.2636C15.1393 45.4101 13.6604 43.2561 12.6234 40.893C10.987 37.2034 10.405 33.0421 10.9972 29.0417C11.1434 28.3979 10.6782 27.7469 10.0546 27.6126ZM54.0391 27.5942C53.4205 27.6977 52.8923 28.2954 52.9939 28.9474C53.4306 31.8457 53.2773 34.8331 52.5236 37.6647C51.5759 41.2734 49.6704 44.6176 47.065 47.2657C47.4707 47.2653 47.8765 47.2658 48.2823 47.2662C49.0939 47.2672 49.9057 47.2681 50.7176 47.2626C52.1112 45.4921 53.2661 43.5309 54.1213 41.4405C55.7861 37.3858 56.3397 32.8688 55.6744 28.5312C55.5474 27.7992 54.7095 27.4219 54.0391 27.5942ZM13.313 28.2083C12.8143 28.3056 12.3887 28.7342 12.3329 29.2519C11.8758 32.3747 12.1693 35.6051 13.1769 38.5935C14.2678 41.8608 16.2069 44.8329 18.7472 47.1365C18.8387 47.2318 18.9595 47.2841 19.0926 47.2677C19.6793 47.2681 20.2661 47.2715 20.853 47.2749C21.7333 47.2799 22.6138 47.285 23.4938 47.28C21.1678 45.8735 19.1302 43.9676 17.6584 41.6619C15.4217 38.2162 14.4344 33.9524 14.9931 29.866L14.9949 29.8529C15.0401 29.5223 15.0893 29.1628 14.9169 28.8603C14.6162 28.2995 13.9073 28.074 13.313 28.2083ZM51.453 28.6829C50.8943 27.9417 49.6125 28.0237 49.1249 28.8029C48.934 29.093 48.9411 29.4569 48.9969 29.7881C49.5322 33.5854 48.742 37.5468 46.8375 40.8623C45.3332 43.5175 43.1057 45.7258 40.5003 47.28C41.3248 47.2854 42.1493 47.2804 42.9739 47.2755C43.5785 47.2719 44.1831 47.2683 44.7877 47.2688C44.8178 47.2674 44.8491 47.2675 44.8808 47.2676C45.0151 47.2682 45.1574 47.2688 45.2519 47.156C47.0752 45.4952 48.5957 43.496 49.7059 41.2847C51.4753 37.7887 52.2046 33.7669 51.7648 29.865C51.7528 29.7817 51.7439 29.6964 51.735 29.6105C51.7007 29.282 51.6656 28.9454 51.453 28.6829ZM31.6964 13.5394C31.656 13.8614 31.6156 14.1834 31.5669 14.5039C31.378 15.9052 31.1888 17.3065 30.9997 18.7078C30.8105 20.1094 30.6213 21.511 30.4323 22.9125C29.8863 22.2293 29.3471 21.5406 28.8078 20.8519C28.105 19.9544 27.4021 19.0568 26.6842 18.171C26.7798 19.3528 26.8864 20.5332 26.9931 21.7136C27.0746 22.6161 27.1562 23.5186 27.2327 24.4216C26.2536 23.7898 25.279 23.1504 24.3046 22.5111C22.9975 21.6536 21.6905 20.7962 20.3724 19.9569C21.2158 21.2997 22.072 22.6346 22.9283 23.9698C23.5542 24.9456 24.1801 25.9214 24.8011 26.9006C23.9843 26.806 23.1682 26.7077 22.3521 26.6094C21.0085 26.4475 19.665 26.2857 18.3196 26.1409C19.2636 26.8609 20.217 27.5688 21.1706 28.2768C21.948 28.854 22.7255 29.4313 23.4979 30.0151C22.3061 30.2884 21.1093 30.5396 19.9125 30.7908C18.6001 31.0662 17.2878 31.3416 15.9824 31.6462C17.7045 32.0602 19.4275 32.4715 21.1505 32.8828C22.0129 33.0887 22.8753 33.2946 23.7376 33.5008C21.9895 34.7905 20.2333 36.071 18.4761 37.3494C19.8294 37.208 21.1812 37.0528 22.533 36.8976C23.4548 36.7918 24.3766 36.686 25.2988 36.5846C24.6155 37.5971 23.9296 38.6079 23.2435 39.6189C22.4069 40.8517 21.5702 42.0847 20.7381 43.3212C22.2886 42.373 23.824 41.399 25.3592 40.4251C26.0085 40.0133 26.6576 39.6015 27.3079 39.1917C28.5512 38.4945 30.3267 39.3167 30.5776 40.7397C30.8034 42.3055 31.0101 43.8744 31.2167 45.4434C31.4477 47.1976 31.6787 48.9519 31.9366 50.7016C32.1786 48.8991 32.4236 47.0973 32.6687 45.2954C32.866 43.8443 33.0634 42.3932 33.2591 40.9417C33.3079 40.5808 33.4216 40.2251 33.6339 39.9288C34.2566 39.0123 35.5872 38.6545 36.5592 39.1988C36.7932 39.3471 37.0272 39.4954 37.2611 39.6437C39.2047 40.8756 41.1481 42.1075 43.1037 43.3181C42.3037 42.1001 41.4863 40.8937 40.6689 39.6871C39.9699 38.6555 39.2708 37.6237 38.5826 36.5846C39.5296 36.6903 40.4764 36.7988 41.4234 36.9074C42.7363 37.0579 44.0495 37.2085 45.3637 37.3514C44.0563 36.3825 42.742 35.424 41.4277 34.4654C40.9899 34.1461 40.552 33.8267 40.1143 33.5069C41.2418 33.227 42.3728 32.9606 43.5038 32.6942C44.9618 32.3508 46.4199 32.0073 47.8705 31.6349C46.4005 31.3065 44.9267 30.9958 43.4529 30.6851C42.4195 30.4672 41.3861 30.2493 40.354 30.0254C41.3596 29.2614 42.3747 28.5105 43.3896 27.7597C44.1248 27.2159 44.8599 26.6721 45.5912 26.1235C43.9554 26.3213 42.319 26.5155 40.6824 26.7099C40.1474 26.7734 39.6123 26.8369 39.0773 26.9006C40.2521 25.0515 41.4333 23.2077 42.6148 21.3634C42.9216 20.8844 43.2285 20.4053 43.5353 19.9261C42.199 20.7876 40.8678 21.6566 39.5365 22.5255C38.5658 23.1592 37.595 23.7929 36.6222 24.4237C36.7015 23.4856 36.7862 22.5481 36.8708 21.6107C36.9748 20.4592 37.0787 19.3079 37.1728 18.1556C36.4647 19.0459 35.7624 19.9404 35.0602 20.835C34.5163 21.5278 33.9723 22.2206 33.4257 22.9115C33.1733 21.082 32.9275 19.2517 32.6816 17.4213C32.4358 15.5912 32.19 13.761 31.9376 11.9316C31.8315 12.4633 31.764 13.0014 31.6964 13.5394Z" fill="#071F44" fill-opacity="0.4"/>
</svg>
