<svg xmlns="http://www.w3.org/2000/svg" xmlns:xlink="http://www.w3.org/1999/xlink" width="120" height="36" viewBox="0 0 120 36">
    <defs>
        <path id="a" d="M0 .015h27.987v27.68H0z"/>
    </defs>
    <g fill="none" fill-rule="evenodd">
        <g transform="translate(4.5 3.756)">
            <mask id="b" fill="#fff">
                <use xlink:href="#a"/>
            </mask>
            <path fill="#FADB14" d="M10.354 27.103c-.742-.33-1.771-.662-2.69-.79V9.793c0-.187-.278-.33-.408-.36-.13-.032-.299-.07-.683 0-1.604.289-5.563 1.16-6.37 1.307-.093.016-.104.052-.104.052s-.03.034-.015.12l.088.51c.013.076.044.094.044.094s.015.038.082.048c.566.08 3.564.525 3.494.543l.006 14.206c-.857.108-2.919.563-3.475.858-.144.076-.253.162-.305.265-.048.092-.003.24.182.24h10.443c.085 0 .192-.044.174-.176-.023-.17-.174-.268-.463-.397m12.75-2.81c-1.174 1.957-3.877 2.476-5.907 1.851-.94-.29-1.828-.924-2.323-1.807-.552-.984-.742-2.203-.735-3.325.007-1.125.147-2.352.687-3.35.52-.965 1.25-1.754 2.1-2.415.152-.117.28-.19.28-.19l.493.243c.253.123.503.247.75.383 1.01.558 2 1.18 2.904 1.91.982.794 1.848 1.728 2.173 3.002.308 1.205.223 2.62-.423 3.697M14.822 6.781c-.437-.924-.457-2.137-.018-3.065.413-.877 1.267-1.62 2.164-1.926.945-.325 1.903-.4 2.772-.24 1.047.193 1.92.592 2.598 1.289 1.527 1.569 1.641 4.184.603 6.062-.262.474-.566.937-.94 1.328-.356.372-.79.676-1.203.979-.1.074-.335.194-.335.194l-.32-.156c-.217-.105-.433-.213-.652-.317-.874-.418-1.678-1.035-2.445-1.629-.89-.689-1.73-1.472-2.224-2.52m13.062 12.222c-.536-3.169-3.295-5.086-5.78-6.611 1.45-1.03 3.11-1.886 4.16-3.39.829-1.186 1.11-2.744.796-4.167-.302-1.376-1.441-2.55-2.475-3.186C23.395.918 22.04.347 20.529.137c-1.4-.195-3.081-.194-4.524.268-1.926.618-3.271 1.888-3.817 2.444-.995 1.015-1.603 2.336-1.662 3.78-.033.807.02 1.632.3 2.394.29.786.758 1.532 1.282 2.174.978 1.195 2.244 2.089 3.495 2.955-1.442.822-2.927 1.57-4.085 2.8-.879.935-1.53 2.06-1.696 3.363-.159 1.252.016 2.575.675 3.657 1.437 2.355 4.072 3.464 6.684 3.665 2.429.187 4.97-.02 7.076-1.381 1.186-.766 2.26-1.753 2.959-3.013.687-1.24.929-2.854.668-4.241" mask="url(#b)"/>
        </g>
        <path fill="#FFF" d="M48.483 19.546H36.811V17.29h8.053v-3.613H38.83v-2.134h6.033V9.813h4.632v1.729h6.021v2.134h-6.021v4.208zM48.11 19.592v8.123c0 .485.443.878.99.878h12.403v2.847H45.277c-.964 0-1.745-.67-1.745-1.527v-8.61l4.578-1.71zM69.258 15.022H82.41c.547 0 .99.393.99.88v3.648h3.96v-4.319c0-.856-.756-1.527-1.72-1.527h-7.71v-1.388h7.063V10.57H77.93v-.958h-3.96v4.092h-7.943c-.938 0-1.72.67-1.72 1.527v10.844c0 2.012-.389 3.746-1.328 5.41h4.012c.86-1.525 1.277-3.237 1.277-5.619v-9.965c0-.486.442-.879.99-.879"/>
        <path fill="#FFF" d="M84.52 28.413v-.89c0-.833-.756-1.55-1.693-1.55H72.253c-.965 0-1.746.717-1.746 1.55v.464c0 1.596-.521 2.434-1.98 3.498h4.35c1.068-.67 1.608-1.822 1.608-3.156 0-.366.205-.627.481-.627h5.12c.44 0 .502.158.502.644v1.614c0 .854.448 1.525 1.412 1.525h5.41v-1.479h-1.9c-.548 0-.99-.67-.99-1.593M101.468 13.912c-.547 0-.99.394-.99.879v11.168c0 1.92 0 4.093-.494 5.48h-3.932c.598-1.433.624-3.099.624-5.48V14.144c0-.857.781-1.55 1.746-1.55h17.938v1.318h-14.892z"/>
        <path fill="#FFF" d="M116.36 31.223h-3.953c-3.31-8.35-3.832-13.902-4.28-21.875h3.717c.236 7.973 1.841 15.395 4.516 21.875M94.332 10.398h-3.881v3.792h-1.537v1.318h1.537v13.335l-1.537.005v1.272h7.006v-1.272h-1.588v-13.34h1.588V14.19h-1.588z"/>
        <path fill="#FADB14" d="M72.764 25.5h4.693l4.794-5.95v-2.266H70.654v2.255h6.872zM100.91 27.916h4.176l3.647-6.992-.502-3.64h-7.265v2.224h4.888zM51.019 28.045h4.84l6.016-8.495V17.29h-5.223l-4.65 2.256h5.372z"/>
        <path fill="#FFF" d="M60.83 11.664v2.563c-2.397 1.457-21.753 10.915-24.018 11.747v-2.586c3.438-1.273 20.267-9.55 24.018-11.724M113.46 17.284l-6.592 12.5h2.901l6.591-12.5zM116.36 10.876c0 .844-.666 1.528-1.487 1.528-.823 0-1.489-.684-1.489-1.528s.666-1.528 1.49-1.528c.82 0 1.486.684 1.486 1.528"/>
    </g>
</svg>
