<svg width="26" height="28" viewBox="0 0 26 28" fill="none" xmlns="http://www.w3.org/2000/svg">
<path fill-rule="evenodd" clip-rule="evenodd" d="M18.5246 2.84375C17.3527 3.88281 16.2924 4.97656 15.3996 6.125C13.8929 4.04688 11.9955 1.96875 9.875 0C4.35045 5.03125 0.5 11.4844 0.5 15.4219C0.5 22.3672 6.08036 28 13 28C19.8638 28 25.5 22.3672 25.5 15.4219C25.5 12.5234 22.5982 6.50781 18.5246 2.84375ZM18.5765 14.25L15.3855 17.875C15.3855 17.875 10.3173 11.4375 9.9419 11C7.31397 14.1875 6 16.0625 6 18.1875C6 22.4375 9.19106 25 13.133 25C14.6972 25 16.1989 24.5625 17.3877 23.6875C20.0782 21.8125 20.7039 18.1875 19.2022 15.3125C19.1349 15.2003 19.0675 15.0801 18.9972 14.9548C18.8717 14.7308 18.737 14.4904 18.5765 14.25Z" fill="#071F44"/>
</svg>
