<?xml version="1.0" encoding="UTF-8"?>
<svg width="36px" height="36px" viewBox="0 0 36 36" version="1.1" xmlns="http://www.w3.org/2000/svg" xmlns:xlink="http://www.w3.org/1999/xlink">
    <!-- Generator: Sketch 51.3 (57544) - http://www.bohemiancoding.com/sketch -->
    <title>icon-qq</title>
    <desc>Created with Sketch.</desc>
    <defs></defs>
    <g id="Compaign" stroke="none" stroke-width="1" fill="none" fill-rule="evenodd">
        <g id="Compaign_-MoonMGM_1_share" transform="translate(-720.000000, -1304.000000)" fill="#FFFFFF" fill-rule="nonzero">
            <g id="Group-21" transform="translate(240.000000, 1302.000000)">
                <g id="QQ" transform="translate(468.000000, 0.000000)">
                    <g id="qq" transform="translate(12.000000, 2.000000)">
                        <path d="M25.0384929,21.9367006 C25.0384929,21.9367006 24.5215071,23.328554 23.6068839,24.6008961 C23.6068839,24.6008961 25.2771079,25.1576782 25.1180041,26.6686762 C25.1180041,26.6686762 25.1577189,28.3389002 21.6186558,28.2195519 C21.6186558,28.2195519 19.113442,28.0207332 18.3578411,26.907332 L17.6818737,26.907332 C16.9262729,28.0207739 14.4210591,28.2195519 14.4210591,28.2195519 C10.8819552,28.3387373 10.9217108,26.6686762 10.9217108,26.6686762 C10.8025255,25.1973523 12.432831,24.6008961 12.432831,24.6008961 C11.5182892,23.3284318 11.001222,21.9367006 11.001222,21.9367006 C8.77441955,25.6348676 9.01295316,21.4197149 9.01295316,21.4197149 C9.4105499,18.914501 11.1602851,17.2840733 11.1602851,17.2840733 C10.9216701,15.0173523 11.8362525,14.6198778 11.8362525,14.6198778 C12.0350713,7.58138493 17.8805703,7.7007332 17.9999185,7.7007332 C18.1192668,7.7007332 23.9646843,7.58154786 24.1635845,14.6596741 C24.1635845,14.6596741 25.0781263,15.0572709 24.8395519,17.3238697 C24.8395519,17.3238697 26.5495316,18.9542159 26.9868839,21.4595112 C26.9868839,21.4595112 27.225499,25.6746232 25.0382892,21.9367006 L25.0384929,21.9367006 Z" id="Shape"></path>
                    </g>
                </g>
            </g>
        </g>
    </g>
</svg>