<?xml version="1.0" encoding="UTF-8"?>
<svg width="36px" height="36px" viewBox="0 0 36 36" version="1.1" xmlns="http://www.w3.org/2000/svg" xmlns:xlink="http://www.w3.org/1999/xlink">
    <!-- Generator: Sketch 51.3 (57544) - http://www.bohemiancoding.com/sketch -->
    <title>icon-copy</title>
    <desc>Created with Sketch.</desc>
    <defs></defs>
    <g id="Compaign" stroke="none" stroke-width="1" fill="none" fill-rule="evenodd">
        <g id="Compaign_-MoonMGM_1_share" transform="translate(-954.000000, -1304.000000)" fill="#FFFFFF">
            <g id="Group-21" transform="translate(240.000000, 1302.000000)">
                <g id="else" transform="translate(702.000000, 0.000000)">
                    <g transform="translate(12.000000, 2.000000)" id="Fill-1">
                        <path d="M21.1706976,7.57707744 L9.80508146,7.57707744 C8.75935477,7.57707744 7.90785138,8.42858083 7.90785138,9.47430752 L7.90785138,22.7371538 L9.80508146,22.7371538 L9.80508146,9.47430752 L21.1706976,9.47430752 L21.1706976,7.57707744 Z M24.0165427,11.3656162 L13.5936202,11.3656162 C12.5526306,11.3656162 11.6963901,12.2218567 11.6963901,13.2628462 L11.6963901,26.5256925 C11.6963901,27.566682 12.5526306,28.4229226 13.5936202,28.4229226 L24.0165427,28.4229226 C25.056348,28.4229226 25.9078514,27.566682 25.9078514,26.5256925 L25.9078514,13.2628462 C25.9078514,12.2218567 25.056348,11.3656162 24.0165427,11.3656162 Z"></path>
                    </g>
                </g>
            </g>
        </g>
    </g>
</svg>