<?xml version="1.0" encoding="UTF-8"?>
<svg width="36px" height="36px" viewBox="0 0 36 36" version="1.1" xmlns="http://www.w3.org/2000/svg" xmlns:xlink="http://www.w3.org/1999/xlink">
    <!-- Generator: Sketch 51.2 (57519) - http://www.bohemiancoding.com/sketch -->
    <title>icon-wechat</title>
    <desc>Created with Sketch.</desc>
    <defs></defs>
    <g id="Compaign" stroke="none" stroke-width="1" fill="none" fill-rule="evenodd">
        <g id="Compaign_-MoonMGM_1_share" transform="translate(-252.000000, -1304.000000)" fill="#FFFFFF" fill-rule="nonzero">
            <g id="Group-21" transform="translate(240.000000, 1302.000000)">
                <g id="wechat">
                    <g id="icon" transform="translate(12.000000, 2.000000)">
                        <path d="M15.1108293,18.4443359 C15.1010732,18.4736328 15.0913171,18.4882812 15.081561,18.5175781 C15.0718049,18.546875 15.0620488,18.5615234 15.0522927,18.5908203 C15.0425366,18.6201172 15.0327805,18.6347656 15.0230244,18.6640625 C15.0132683,18.6933594 15.0035122,18.7080078 14.9937561,18.7373047 C14.984,18.7666016 14.9742439,18.78125 14.9644878,18.8105469 C14.9547317,18.8398438 14.9449756,18.8544922 14.9352195,18.8837891 C14.9254634,18.9130859 14.9157073,18.9277344 14.9059512,18.9570312 C14.8961951,18.9863281 14.886439,19.0009766 14.8766829,19.0302734 C14.8669268,19.0595703 14.8571707,19.0742188 14.8571707,19.1035156 C14.8474146,19.1328125 14.8376585,19.1474609 14.8376585,19.1767578 C14.8279024,19.2060547 14.8181463,19.2207031 14.8181463,19.25 C14.8083902,19.2792969 14.8083902,19.2939453 14.7986341,19.3232422 C14.788878,19.3525391 14.779122,19.3671875 14.779122,19.3964844 C14.7693659,19.4257812 14.7693659,19.4404297 14.7596098,19.4697266 C14.7498537,19.4990234 14.7498537,19.5136719 14.7400976,19.5429688 C14.7303415,19.5722656 14.7303415,19.5869141 14.7205854,19.6162109 C14.7108293,19.6455078 14.7108293,19.6601562 14.7010732,19.6894531 C14.6913171,19.71875 14.6913171,19.7333984 14.681561,19.7626953 C14.6718049,19.7919922 14.6718049,19.8066406 14.6620488,19.8359375 C14.6522927,19.8652344 14.6522927,19.8798828 14.6425366,19.9091797 C14.6327805,19.9384766 14.6327805,19.953125 14.6230244,19.9824219 C14.6230244,20.0117188 14.6132683,20.0263672 14.6132683,20.0556641 C14.6132683,20.0849609 14.6035122,20.0996094 14.6035122,20.1289062 C14.6035122,20.1582031 14.5937561,20.1728516 14.5937561,20.2021484 C14.5937561,20.2314453 14.584,20.2460938 14.584,20.2753906 C14.584,20.3046875 14.5742439,20.3193359 14.5742439,20.3486328 C14.5742439,20.3779297 14.5644878,20.3925781 14.5644878,20.421875 C14.5644878,20.4511719 14.5547317,20.4658203 14.5547317,20.4951172 C14.5547317,20.5244141 14.5449756,20.5390625 14.5449756,20.5683594 C14.5449756,20.5976562 14.5352195,20.6123047 14.5352195,20.6416016 C14.5352195,20.6708984 14.5352195,20.6855469 14.5254634,20.7148438 C14.5254634,20.7441406 14.5157073,20.7587891 14.5157073,20.7880859 C14.5157073,20.8173828 14.5157073,20.8320312 14.5059512,20.8613281 C14.5059512,20.890625 14.5059512,20.9052734 14.4961951,20.9345703 C14.4961951,20.9638672 14.4961951,20.9785156 14.486439,21.0078125 L14.486439,21.8867188 C14.486439,21.9160156 14.486439,21.9306641 14.4961951,21.9599609 C14.4961951,21.9892578 14.4961951,22.0039062 14.5059512,22.0332031 C14.5059512,22.0625 14.5059512,22.0771484 14.5157073,22.1064453 C14.5157073,22.1357422 14.5157073,22.1503906 14.5254634,22.1796875 C14.5254634,22.2089844 14.5352195,22.2236328 14.5352195,22.2529297 C14.5352195,22.2822266 14.5449756,22.296875 14.5449756,22.3261719 C14.5449756,22.3554688 14.5547317,22.3701172 14.5547317,22.3994141 C14.5547317,22.4287109 14.5644878,22.4433594 14.5644878,22.4726562 C14.5644878,22.5019531 14.5742439,22.5166016 14.5742439,22.5458984 C14.5742439,22.5751953 14.584,22.5898438 14.584,22.6191406 C14.584,22.6484375 14.5937561,22.6630859 14.5937561,22.6923828 C14.5937561,22.7216797 14.6035122,22.7363281 14.6035122,22.765625 C14.6035122,22.7949219 14.6132683,22.8095703 14.6132683,22.8388672 C14.6132683,22.8681641 14.6230244,22.8828125 14.6327805,22.9121094 C14.6425366,22.9414062 14.6425366,22.9560547 14.6522927,22.9853516 C14.6620488,23.0146484 14.6620488,23.0292969 14.6718049,23.0585938 C14.681561,23.0878906 14.681561,23.1025391 14.6913171,23.1318359 C14.7010732,23.1611328 14.7010732,23.1757812 14.7108293,23.2050781 C14.7205854,23.234375 14.7205854,23.2490234 14.7303415,23.2783203 C14.7400976,23.3076172 14.7400976,23.3222656 14.7498537,23.3515625 C14.7596098,23.3808594 14.7596098,23.3955078 14.7693659,23.4248047 C14.779122,23.4541016 14.779122,23.46875 14.788878,23.4980469 C14.7986341,23.5273438 14.7986341,23.5419922 14.8083902,23.5712891 L14.8181463,23.6054688 C14.6522927,23.6152344 14.481561,23.6347656 14.3205854,23.6347656 C14.1742439,23.6445312 14.0376585,23.6445312 13.8913171,23.6445312 C13.7547317,23.6445312 13.6181463,23.6445312 13.481561,23.6347656 C13.1986341,23.625 12.9352195,23.6005859 12.6718049,23.5615234 C12.5059512,23.5419922 12.3547317,23.5175781 12.188878,23.4882812 C12.0522927,23.46875 11.9254634,23.4443359 11.788878,23.4150391 C11.6718049,23.3955078 11.5449756,23.3710938 11.4279024,23.3417969 C11.3108293,23.3125 11.1986341,23.2978516 11.081561,23.2685547 C10.9742439,23.2392578 10.8522927,23.2246094 10.7352195,23.1953125 C10.6279024,23.1757812 10.5157073,23.1513672 10.4083902,23.1318359 L10.281561,23.1953125 L10.1352195,23.2685547 L9.97912195,23.2148438 L9.83278049,23.2880859 L9.68643902,23.3613281 L9.54009756,23.4345703 L9.3937561,23.5078125 L9.24741463,23.5810547 L9.10107317,23.6542969 L8.95473171,23.7275391 L8.80839024,23.8007812 L8.70107317,23.8544922 L8.55473171,23.9277344 L8.40839024,24.0009766 L8.26204878,24.0742188 L8.11570732,24.1474609 L7.96936585,24.2207031 L7.82302439,24.2939453 L7.67668293,24.3671875 L7.53034146,24.4404297 L7.384,24.5136719 L7.23765854,24.5869141 L7.09131707,24.6601562 L6.94497561,24.7333984 L6.84741463,24.7871094 L6.86692683,24.7333984 L6.89619512,24.6601562 L6.92546341,24.5869141 L6.95473171,24.5136719 L6.984,24.4404297 L7.01326829,24.3671875 L7.04253659,24.2939453 L7.07180488,24.2207031 L7.10107317,24.1474609 L7.13034146,24.0742188 L7.15960976,24.0009766 L7.18887805,23.9277344 L7.21814634,23.8544922 L7.24741463,23.78125 L7.27668293,23.7080078 L7.30595122,23.6347656 L7.33521951,23.5615234 L7.3644878,23.4882812 L7.3937561,23.4150391 L7.42302439,23.3417969 L7.45229268,23.2685547 L7.48156098,23.1953125 L7.51082927,23.1220703 L7.54009756,23.0488281 L7.56936585,22.9755859 L7.59863415,22.9023438 L7.62790244,22.8291016 L7.65717073,22.7558594 L7.68643902,22.6826172 L7.71570732,22.609375 L7.74497561,22.5361328 L7.7742439,22.4628906 L7.8035122,22.3896484 L7.83278049,22.3164062 L7.86204878,22.2431641 L7.89131707,22.1699219 L7.92058537,22.0966797 L7.94985366,22.0234375 L7.97912195,21.9501953 L8.00839024,21.8769531 L8.03765854,21.8037109 L8.06692683,21.7304688 L8.08643902,21.6865234 C8.06692683,21.6767578 8.05717073,21.6669922 8.04253659,21.6572266 C8.00839024,21.6279297 7.97912195,21.6132812 7.94497561,21.5839844 C7.91082927,21.5546875 7.88156098,21.5400391 7.84741463,21.5107422 C7.81326829,21.4814453 7.784,21.4667969 7.74985366,21.4375 C7.72058537,21.4082031 7.68643902,21.3935547 7.65717073,21.3642578 C7.62790244,21.3349609 7.5937561,21.3203125 7.5644878,21.2910156 C7.53521951,21.2617188 7.50107317,21.2470703 7.47180488,21.2177734 C7.44253659,21.1884766 7.40839024,21.1738281 7.37912195,21.1445312 C7.34985366,21.1152344 7.32546341,21.1005859 7.28643902,21.0712891 C7.25717073,21.0419922 7.23278049,21.0273438 7.2035122,20.9980469 C7.1742439,20.96875 7.14985366,20.9541016 7.12058537,20.9248047 C7.09131707,20.8955078 7.06692683,20.8808594 7.03765854,20.8515625 C7.00839024,20.8222656 6.984,20.8076172 6.95473171,20.7783203 C6.92546341,20.7490234 6.90107317,20.734375 6.87180488,20.7050781 C6.84253659,20.6757812 6.81814634,20.6611328 6.78887805,20.6318359 C6.75960976,20.6025391 6.73521951,20.5878906 6.71570732,20.5585938 C6.68643902,20.5292969 6.66204878,20.5146484 6.64253659,20.4853516 L6.56936585,20.4121094 L6.49619512,20.3388672 L6.42302439,20.265625 L6.34985366,20.1923828 C6.32058537,20.1630859 6.30595122,20.1484375 6.28643902,20.1191406 C6.26692683,20.0898438 6.24253659,20.0751953 6.22302439,20.0458984 C6.2035122,20.0166016 6.17912195,20.0019531 6.15960976,19.9726562 C6.14009756,19.9433594 6.11570732,19.9287109 6.09619512,19.8994141 C6.07668293,19.8701172 6.05229268,19.8554688 6.03278049,19.8261719 C6.01326829,19.796875 5.98887805,19.7822266 5.96936585,19.7529297 C5.94985366,19.7236328 5.93521951,19.7089844 5.90595122,19.6796875 C5.88643902,19.6503906 5.87180488,19.6357422 5.84253659,19.6064453 C5.82302439,19.5771484 5.80839024,19.5625 5.78887805,19.5332031 C5.76936585,19.5039062 5.75473171,19.4892578 5.73521951,19.4599609 C5.71570732,19.4306641 5.70107317,19.4160156 5.68156098,19.3867188 C5.66204878,19.3574219 5.64741463,19.3427734 5.62790244,19.3134766 C5.60839024,19.2841797 5.5937561,19.2695312 5.5742439,19.2402344 C5.55473171,19.2109375 5.54009756,19.1962891 5.52058537,19.1669922 C5.50107317,19.1376953 5.48643902,19.1230469 5.46692683,19.09375 C5.44741463,19.0644531 5.43278049,19.0498047 5.41326829,19.0205078 C5.3937561,18.9912109 5.37912195,18.9765625 5.36936585,18.9472656 C5.34985366,18.9179688 5.33521951,18.9033203 5.32546341,18.8740234 C5.30595122,18.8447266 5.29619512,18.8300781 5.28156098,18.8007812 C5.26204878,18.7714844 5.25229268,18.7568359 5.23765854,18.7275391 C5.21814634,18.6982422 5.20839024,18.6835938 5.1937561,18.6542969 C5.1742439,18.625 5.1644878,18.6103516 5.14985366,18.5810547 C5.13034146,18.5517578 5.12058537,18.5371094 5.10595122,18.5078125 C5.08643902,18.4785156 5.07668293,18.4638672 5.06204878,18.4345703 C5.05229268,18.4052734 5.03278049,18.390625 5.02790244,18.3613281 C5.01814634,18.3320312 4.99863415,18.3173828 4.9937561,18.2880859 C4.984,18.2587891 4.9644878,18.2441406 4.95960976,18.2148438 C4.94985366,18.1855469 4.93034146,18.1708984 4.92546341,18.1416016 C4.91570732,18.1123047 4.89619512,18.0976562 4.89131707,18.0683594 C4.88156098,18.0390625 4.86204878,18.0244141 4.85717073,17.9951172 C4.84741463,17.9658203 4.82790244,17.9511719 4.82302439,17.921875 C4.81326829,17.8925781 4.8035122,17.8779297 4.78887805,17.8486328 C4.77912195,17.8193359 4.76936585,17.8046875 4.75473171,17.7753906 C4.74497561,17.7460938 4.73521951,17.7314453 4.72058537,17.7021484 C4.71082927,17.6728516 4.70107317,17.6582031 4.69131707,17.6289062 C4.68156098,17.5996094 4.67180488,17.5849609 4.66204878,17.5556641 C4.65229268,17.5263672 4.64253659,17.5117188 4.63278049,17.4824219 C4.62302439,17.453125 4.61326829,17.4384766 4.6035122,17.4091797 C4.5937561,17.3798828 4.584,17.3652344 4.5742439,17.3359375 C4.5644878,17.3066406 4.55473171,17.2919922 4.54497561,17.2626953 C4.53521951,17.2333984 4.52546341,17.21875 4.51570732,17.1894531 C4.50595122,17.1601562 4.49619512,17.1455078 4.48643902,17.1162109 C4.47668293,17.0869141 4.46692683,17.0722656 4.45717073,17.0429688 C4.44741463,17.0136719 4.43765854,16.9990234 4.42790244,16.9697266 C4.41814634,16.9404297 4.40839024,16.9257812 4.40839024,16.8964844 C4.39863415,16.8671875 4.38887805,16.8525391 4.38887805,16.8232422 C4.37912195,16.7939453 4.36936585,16.7792969 4.36936585,16.75 C4.35960976,16.7207031 4.35960976,16.7060547 4.34985366,16.6767578 C4.34009756,16.6474609 4.34009756,16.6328125 4.33034146,16.6035156 C4.32058537,16.5742188 4.32058537,16.5595703 4.31082927,16.5302734 C4.30107317,16.5009766 4.30107317,16.4863281 4.29131707,16.4570312 C4.28156098,16.4277344 4.28156098,16.4130859 4.27180488,16.3837891 C4.26204878,16.3544922 4.26204878,16.3398438 4.25229268,16.3105469 C4.24253659,16.28125 4.24253659,16.2666016 4.23278049,16.2373047 C4.22302439,16.2080078 4.22302439,16.1933594 4.21326829,16.1640625 C4.2035122,16.1347656 4.2035122,16.1201172 4.2035122,16.0908203 C4.2035122,16.0615234 4.1937561,16.046875 4.1937561,16.0175781 C4.1937561,15.9882812 4.184,15.9736328 4.184,15.9443359 C4.184,15.9150391 4.1742439,15.9003906 4.1742439,15.8710938 C4.1742439,15.8417969 4.1644878,15.8271484 4.1644878,15.7978516 C4.1644878,15.7685547 4.15473171,15.7539062 4.15473171,15.7246094 C4.15473171,15.6953125 4.14497561,15.6806641 4.14497561,15.6513672 C4.14497561,15.6220703 4.13521951,15.6074219 4.13521951,15.578125 C4.13521951,15.5488281 4.12546341,15.5341797 4.12546341,15.5048828 C4.12546341,15.4755859 4.12546341,15.4609375 4.11570732,15.4316406 C4.11570732,15.4023438 4.11570732,15.3876953 4.10595122,15.3583984 C4.10595122,15.3291016 4.10595122,15.3144531 4.09619512,15.2851562 C4.09619512,15.2558594 4.09619512,15.2412109 4.08643902,15.2119141 L4.08643902,14.2646484 C4.08643902,14.2353516 4.08643902,14.2207031 4.09619512,14.1914062 C4.09619512,14.1621094 4.09619512,14.1474609 4.10595122,14.1181641 C4.10595122,14.0888672 4.10595122,14.0742188 4.11570732,14.0449219 C4.11570732,14.015625 4.12546341,14.0009766 4.12546341,13.9716797 C4.12546341,13.9423828 4.13521951,13.9277344 4.13521951,13.8984375 C4.13521951,13.8691406 4.14497561,13.8544922 4.14497561,13.8251953 C4.14497561,13.7958984 4.15473171,13.78125 4.15473171,13.7519531 C4.15473171,13.7226562 4.1644878,13.7080078 4.1644878,13.6787109 C4.1644878,13.6494141 4.1742439,13.6347656 4.1742439,13.6054688 C4.1742439,13.5761719 4.184,13.5615234 4.184,13.5322266 C4.184,13.5029297 4.1937561,13.4882812 4.1937561,13.4589844 C4.1937561,13.4296875 4.2035122,13.4150391 4.2035122,13.3857422 C4.2035122,13.3564453 4.21326829,13.3417969 4.22302439,13.3125 C4.22302439,13.2832031 4.23278049,13.2685547 4.24253659,13.2392578 C4.25229268,13.2099609 4.25229268,13.1953125 4.26204878,13.1660156 C4.27180488,13.1367188 4.27180488,13.1220703 4.28156098,13.0927734 C4.29131707,13.0634766 4.29131707,13.0488281 4.30107317,13.0195312 C4.31082927,12.9902344 4.31082927,12.9755859 4.32058537,12.9462891 C4.33034146,12.9169922 4.33034146,12.9023438 4.34009756,12.8730469 C4.34985366,12.84375 4.34985366,12.8291016 4.35960976,12.7998047 C4.36936585,12.7705078 4.36936585,12.7558594 4.37912195,12.7265625 C4.38887805,12.6972656 4.38887805,12.6826172 4.39863415,12.6533203 C4.40839024,12.6240234 4.40839024,12.609375 4.41814634,12.5800781 C4.42790244,12.5507812 4.43765854,12.5361328 4.43765854,12.5068359 C4.44741463,12.4775391 4.45717073,12.4628906 4.45717073,12.4335938 C4.46692683,12.4042969 4.47668293,12.3896484 4.47668293,12.3603516 C4.48643902,12.3310547 4.49619512,12.3164062 4.50595122,12.2871094 C4.51570732,12.2578125 4.52546341,12.2431641 4.53521951,12.2138672 C4.54497561,12.1845703 4.55473171,12.1699219 4.5644878,12.140625 C4.5742439,12.1113281 4.584,12.0966797 4.5937561,12.0673828 C4.6035122,12.0380859 4.61326829,12.0234375 4.62302439,11.9941406 C4.63278049,11.9648438 4.64253659,11.9501953 4.65229268,11.9208984 C4.66204878,11.8916016 4.67180488,11.8769531 4.68156098,11.8476562 C4.69131707,11.8183594 4.70107317,11.8037109 4.71082927,11.7744141 C4.72058537,11.7451172 4.73034146,11.7304688 4.74009756,11.7011719 C4.74985366,11.671875 4.75960976,11.6572266 4.76936585,11.6279297 C4.77912195,11.5986328 4.78887805,11.5839844 4.79863415,11.5546875 C4.80839024,11.5253906 4.81814634,11.5107422 4.83278049,11.4814453 C4.84253659,11.4521484 4.85229268,11.4375 4.86692683,11.4082031 C4.87668293,11.3789062 4.88643902,11.3642578 4.90107317,11.3349609 C4.91082927,11.3056641 4.93034146,11.2910156 4.93521951,11.2617188 C4.94497561,11.2324219 4.9644878,11.2177734 4.96936585,11.1884766 C4.97912195,11.1591797 4.99863415,11.1445312 5.0035122,11.1152344 C5.01326829,11.0859375 5.03278049,11.0712891 5.03765854,11.0419922 C5.04741463,11.0126953 5.06692683,10.9980469 5.07180488,10.96875 C5.08156098,10.9394531 5.10107317,10.9248047 5.10595122,10.8955078 C5.11570732,10.8662109 5.13521951,10.8515625 5.14985366,10.8222656 C5.16936585,10.7929688 5.17912195,10.7783203 5.1937561,10.7490234 C5.21326829,10.7197266 5.22302439,10.7050781 5.23765854,10.6757812 C5.25717073,10.6464844 5.26692683,10.6318359 5.28156098,10.6025391 C5.30107317,10.5732422 5.31082927,10.5585938 5.32546341,10.5292969 C5.34497561,10.5 5.35473171,10.4853516 5.36936585,10.4560547 C5.38887805,10.4267578 5.39863415,10.4121094 5.41326829,10.3828125 C5.43278049,10.3535156 5.44741463,10.3388672 5.45717073,10.3095703 C5.47668293,10.2802734 5.49131707,10.265625 5.50107317,10.2363281 C5.52058537,10.2070312 5.53521951,10.1923828 5.54497561,10.1630859 C5.5644878,10.1337891 5.57912195,10.1191406 5.59863415,10.0898438 C5.61814634,10.0605469 5.63278049,10.0458984 5.65229268,10.0166016 C5.67180488,9.98730469 5.68643902,9.97265625 5.70595122,9.94335938 C5.72546341,9.9140625 5.74009756,9.89941406 5.75960976,9.87011719 C5.77912195,9.84082031 5.7937561,9.82617188 5.81326829,9.796875 C5.83278049,9.76757812 5.84741463,9.75292969 5.86692683,9.72363281 C5.88643902,9.69433594 5.90107317,9.6796875 5.92058537,9.65039062 C5.94009756,9.62109375 5.95473171,9.60644531 5.984,9.57714844 C6.0035122,9.54785156 6.01814634,9.53320312 6.04741463,9.50390625 C6.06692683,9.47460938 6.09131707,9.45996094 6.11082927,9.43066406 C6.13034146,9.40136719 6.15473171,9.38671875 6.1742439,9.35742188 C6.1937561,9.328125 6.21814634,9.31347656 6.23765854,9.28417969 C6.25717073,9.25488281 6.28156098,9.24023438 6.30107317,9.2109375 C6.32058537,9.18164062 6.34497561,9.16699219 6.3644878,9.13769531 L6.43765854,9.06445312 L6.51082927,8.99121094 L6.584,8.91796875 L6.65717073,8.84472656 C6.68643902,8.81542969 6.71082927,8.80078125 6.73034146,8.77148438 C6.75960976,8.7421875 6.784,8.72753906 6.81326829,8.69824219 C6.84253659,8.66894531 6.86692683,8.65429688 6.89619512,8.625 C6.92546341,8.59570312 6.94985366,8.58105469 6.97912195,8.55175781 C7.00839024,8.52246094 7.03278049,8.5078125 7.06204878,8.47851562 C7.09131707,8.44921875 7.11570732,8.43457031 7.14497561,8.40527344 C7.1742439,8.37597656 7.19863415,8.36132812 7.23765854,8.33203125 C7.26692683,8.30273438 7.30107317,8.28808594 7.33034146,8.25878906 C7.35960976,8.22949219 7.3937561,8.21484375 7.42302439,8.18554688 C7.45229268,8.15625 7.48643902,8.14160156 7.51570732,8.11230469 C7.54985366,8.08300781 7.57912195,8.06835938 7.61326829,8.0390625 C7.64741463,8.00976562 7.67668293,7.99511719 7.71082927,7.96582031 C7.74497561,7.93652344 7.784,7.921875 7.80839024,7.89257812 C7.84253659,7.86328125 7.88156098,7.84863281 7.91570732,7.81933594 C7.94985366,7.79003906 7.98887805,7.77539062 8.02302439,7.74609375 C8.05717073,7.71679688 8.09619512,7.70214844 8.13034146,7.67285156 C8.1644878,7.64355469 8.2035122,7.62890625 8.24741463,7.59960938 C8.28156098,7.5703125 8.33034146,7.55566406 8.3644878,7.52636719 C8.39863415,7.49707031 8.44741463,7.48242188 8.48156098,7.453125 C8.52546341,7.42382812 8.5644878,7.40917969 8.60839024,7.37988281 C8.65229268,7.35058594 8.70107317,7.3359375 8.73521951,7.30664062 C8.77912195,7.27734375 8.82790244,7.26269531 8.87180488,7.23339844 C8.91570732,7.20410156 8.9644878,7.18945312 9.01814634,7.16015625 C9.06204878,7.13085938 9.11570732,7.11621094 9.1644878,7.08691406 C9.21814634,7.05761719 9.26204878,7.04296875 9.32058537,7.01367188 C9.3742439,6.984375 9.42790244,6.96972656 9.48643902,6.94042969 C9.54009756,6.91113281 9.5937561,6.89648438 9.65229268,6.8671875 C9.70595122,6.83789062 9.76936585,6.82324219 9.82302439,6.79394531 C9.88643902,6.76464844 9.94009756,6.75 10.0035122,6.72070312 C10.0669268,6.69140625 10.1303415,6.67675781 10.1937561,6.64746094 C10.2669268,6.61816406 10.3303415,6.60351562 10.4035122,6.57421875 C10.4766829,6.54492188 10.5498537,6.53027344 10.6230244,6.50097656 C10.7059512,6.47167969 10.788878,6.45703125 10.8571707,6.42773438 C10.9498537,6.3984375 11.0279024,6.38378906 11.1205854,6.35449219 C11.2181463,6.32519531 11.3108293,6.31054688 11.4132683,6.28125 C11.5205854,6.25195312 11.6327805,6.23730469 11.7498537,6.20800781 C11.886439,6.17871094 12.0132683,6.1640625 12.1498537,6.13476562 C12.3205854,6.10546875 12.4961951,6.08105469 12.6669268,6.06152344 C13.0961951,6.01757812 13.5303415,5.98828125 13.9644878,5.98828125 L14.0620488,5.98828125 C14.4961951,5.98828125 14.9352195,6.01757812 15.3693659,6.06152344 C15.5400976,6.08105469 15.7157073,6.10546875 15.886439,6.13476562 C16.0230244,6.15429688 16.1596098,6.17871094 16.286439,6.20800781 C16.3937561,6.22753906 16.5157073,6.25195312 16.6230244,6.28125 C16.7205854,6.30078125 16.8230244,6.32519531 16.9205854,6.35449219 C17.0099028,6.37308546 17.0978985,6.39755258 17.184,6.42773437 C17.2667634,6.44697227 17.3482271,6.47143525 17.4279024,6.50097656 C17.5010732,6.53027344 17.584,6.54492188 17.6571707,6.57421875 C17.7303415,6.60351562 17.8035122,6.61816406 17.8669268,6.64746094 C17.9303415,6.67675781 18.0035122,6.69140625 18.0669268,6.72070312 C18.1303415,6.75 18.1937561,6.76464844 18.2571707,6.79394531 C18.3205854,6.82324219 18.3742439,6.83789062 18.4376585,6.8671875 C18.4913171,6.89648438 18.5547317,6.91113281 18.6083902,6.94042969 C18.6620488,6.96972656 18.7157073,6.984375 18.7742439,7.01367188 C18.8279024,7.04296875 18.881561,7.05761719 18.9303415,7.08691406 C18.984,7.11621094 19.0279024,7.13085938 19.0766829,7.16015625 C19.1205854,7.18945312 19.1742439,7.20410156 19.2230244,7.23339844 C19.2669268,7.26269531 19.3157073,7.27734375 19.3596098,7.30664062 C19.4035122,7.3359375 19.4522927,7.35058594 19.4961951,7.37988281 C19.5400976,7.40917969 19.588878,7.42382812 19.6230244,7.453125 C19.6669268,7.48242188 19.7059512,7.49707031 19.7498537,7.52636719 C19.7937561,7.55566406 19.8327805,7.5703125 19.8669268,7.59960938 C19.9010732,7.62890625 19.9498537,7.64355469 19.984,7.67285156 C20.0181463,7.70214844 20.0571707,7.71679688 20.1010732,7.74609375 C20.1352195,7.77539062 20.1742439,7.79003906 20.2083902,7.81933594 C20.2425366,7.84863281 20.281561,7.86328125 20.3157073,7.89257812 C20.3498537,7.921875 20.388878,7.93652344 20.4230244,7.96582031 C20.4571707,7.99511719 20.4961951,8.00976562 20.5205854,8.0390625 C20.5547317,8.06835938 20.584,8.08300781 20.6181463,8.11230469 C20.6522927,8.14160156 20.681561,8.15625 20.7157073,8.18554688 C20.7498537,8.21484375 20.779122,8.22949219 20.8083902,8.25878906 C20.8376585,8.28808594 20.8718049,8.30273438 20.9010732,8.33203125 C20.9303415,8.36132812 20.9644878,8.37597656 20.9937561,8.40527344 C21.0230244,8.43457031 21.0474146,8.44921875 21.086439,8.47851562 C21.1157073,8.5078125 21.1400976,8.52246094 21.179122,8.55175781 C21.2083902,8.58105469 21.2327805,8.59570312 21.2620488,8.625 C21.2913171,8.65429688 21.3157073,8.66894531 21.3449756,8.69824219 C21.3742439,8.72753906 21.3986341,8.7421875 21.4279024,8.77148438 C21.4571707,8.80078125 21.481561,8.81542969 21.5108293,8.84472656 C21.5400976,8.87402344 21.5644878,8.88867188 21.584,8.91796875 C21.6132683,8.94726562 21.6376585,8.96191406 21.6571707,8.99121094 L21.7303415,9.06445312 L21.8035122,9.13769531 L21.8766829,9.2109375 L21.9498537,9.28417969 C21.979122,9.31347656 21.9937561,9.328125 22.0132683,9.35742188 C22.0327805,9.38671875 22.0571707,9.40136719 22.0766829,9.43066406 C22.0961951,9.45996094 22.1205854,9.47460938 22.1400976,9.50390625 C22.1596098,9.53320312 22.184,9.54785156 22.2035122,9.57714844 C22.2230244,9.60644531 22.2474146,9.62109375 22.2669268,9.65039062 C22.286439,9.6796875 22.3010732,9.69433594 22.3303415,9.72363281 C22.3498537,9.75292969 22.3644878,9.76757812 22.3937561,9.796875 C22.4132683,9.82617188 22.4279024,9.84082031 22.4474146,9.87011719 C22.4669268,9.89941406 22.481561,9.9140625 22.5010732,9.94335938 C22.5205854,9.97265625 22.5352195,9.98730469 22.5547317,10.0166016 C22.5742439,10.0458984 22.588878,10.0605469 22.6083902,10.0898438 C22.6279024,10.1191406 22.6425366,10.1337891 22.6620488,10.1630859 C22.681561,10.1923828 22.6961951,10.2070312 22.7157073,10.2363281 C22.7352195,10.265625 22.7498537,10.2802734 22.7693659,10.3095703 C22.788878,10.3388672 22.8035122,10.3535156 22.8132683,10.3828125 C22.8327805,10.4121094 22.8474146,10.4267578 22.8571707,10.4560547 C22.8766829,10.4853516 22.8913171,10.5 22.9010732,10.5292969 C22.9205854,10.5585938 22.9303415,10.5732422 22.9449756,10.6025391 C22.9644878,10.6318359 22.9742439,10.6464844 22.988878,10.6757812 C23.0083902,10.7050781 23.0181463,10.7197266 23.0327805,10.7490234 C23.0522927,10.7783203 23.0620488,10.7929688 23.0766829,10.8222656 C23.0961951,10.8515625 23.1059512,10.8662109 23.1205854,10.8955078 C23.1400976,10.9248047 23.1498537,10.9394531 23.1644878,10.96875 C23.184,10.9980469 23.1937561,11.0126953 23.1986341,11.0419922 C23.2083902,11.0712891 23.2279024,11.0859375 23.2327805,11.1152344 C23.2425366,11.1445312 23.2620488,11.1591797 23.2669268,11.1884766 C23.2766829,11.2177734 23.2961951,11.2324219 23.3010732,11.2617188 C23.3108293,11.2910156 23.3303415,11.3056641 23.3352195,11.3349609 C23.3449756,11.3642578 23.3644878,11.3789062 23.3693659,11.4082031 C23.379122,11.4375 23.3986341,11.4521484 23.4035122,11.4814453 C23.4132683,11.5107422 23.4327805,11.5253906 23.4376585,11.5546875 C23.4474146,11.5839844 23.4571707,11.5986328 23.4718049,11.6279297 C23.481561,11.6572266 23.4913171,11.671875 23.5059512,11.7011719 C23.5157073,11.7304688 23.5254634,11.7451172 23.5352195,11.7744141 C23.5449756,11.8037109 23.5547317,11.8183594 23.5644878,11.8476562 C23.5742439,11.8769531 23.584,11.8916016 23.5937561,11.9208984 C23.6035122,11.9501953 23.6132683,11.9648438 23.6230244,11.9941406 C23.6327805,12.0234375 23.6425366,12.0380859 23.6522927,12.0673828 C23.6620488,12.0966797 23.6718049,12.1113281 23.681561,12.140625 C23.6913171,12.1699219 23.7010732,12.1845703 23.7108293,12.2138672 C23.7205854,12.2431641 23.7303415,12.2578125 23.7400976,12.2871094 C23.7498537,12.3164062 23.7596098,12.3310547 23.7693659,12.3603516 C23.779122,12.3896484 23.788878,12.4042969 23.7986341,12.4335938 C23.8083902,12.4628906 23.8181463,12.4775391 23.8279024,12.5068359 C23.8376585,12.5361328 23.8474146,12.5507812 23.8474146,12.5800781 C23.8571707,12.609375 23.8669268,12.6240234 23.8669268,12.6533203 C23.8766829,12.6826172 23.8766829,12.6972656 23.886439,12.7265625 C23.8961951,12.7558594 23.9059512,12.7705078 23.9059512,12.7998047 C23.9157073,12.8291016 23.9157073,12.84375 23.9254634,12.8730469 C23.9352195,12.9023438 23.9352195,12.9169922 23.9449756,12.9462891 C23.9547317,12.9755859 23.9547317,12.9902344 23.9644878,13.0195312 C23.9742439,13.0488281 23.9742439,13.0634766 23.984,13.0927734 C23.9937561,13.1220703 23.9937561,13.1367188 24.0035122,13.1660156 C24.0035122,13.1855469 24.0132683,13.1953125 24.0132683,13.2099609 C23.8327805,13.1904297 23.6522927,13.1757812 23.4669268,13.1660156 C23.3303415,13.15625 23.1937561,13.15625 23.0474146,13.15625 C22.8913171,13.15625 22.7303415,13.15625 22.5742439,13.1660156 C22.3108293,13.1757812 22.0571707,13.2001953 21.8132683,13.2392578 C21.6669268,13.2587891 21.5157073,13.2832031 21.3693659,13.3125 C21.2522927,13.3320312 21.1400976,13.3564453 21.0230244,13.3857422 C20.9254634,13.4052734 20.8230244,13.4296875 20.7303415,13.4589844 C20.6474146,13.4785156 20.5596098,13.5029297 20.4766829,13.5322266 C20.4035122,13.5517578 20.3205854,13.5761719 20.2474146,13.6054688 C20.1742439,13.625 20.1108293,13.6494141 20.0376585,13.6787109 C19.9742439,13.7080078 19.9108293,13.7226562 19.8474146,13.7519531 C19.784,13.78125 19.7303415,13.7958984 19.6669268,13.8251953 C19.6132683,13.8544922 19.5498537,13.8691406 19.4961951,13.8984375 C19.4425366,13.9277344 19.388878,13.9423828 19.3303415,13.9716797 C19.2766829,14.0009766 19.2327805,14.015625 19.1742439,14.0449219 C19.1303415,14.0742188 19.0766829,14.0888672 19.0279024,14.1181641 C18.984,14.1474609 18.9352195,14.1621094 18.8913171,14.1914062 C18.8474146,14.2207031 18.7986341,14.2353516 18.7547317,14.2646484 C18.7108293,14.2939453 18.6718049,14.3085938 18.6279024,14.3378906 C18.5937561,14.3671875 18.5449756,14.3818359 18.5108293,14.4111328 C18.4766829,14.4404297 18.4279024,14.4550781 18.3937561,14.484375 C18.3596098,14.5136719 18.3205854,14.5283203 18.2766829,14.5576172 C18.2425366,14.5869141 18.2035122,14.6015625 18.1693659,14.6308594 C18.1352195,14.6601562 18.0961951,14.6748047 18.0620488,14.7041016 C18.0279024,14.7333984 17.988878,14.7480469 17.9644878,14.7773438 C17.9303415,14.8066406 17.9010732,14.8212891 17.8669268,14.8505859 C17.8327805,14.8798828 17.8035122,14.8945312 17.7693659,14.9238281 C17.7400976,14.953125 17.7059512,14.9677734 17.6766829,14.9970703 C17.6474146,15.0263672 17.6132683,15.0410156 17.584,15.0703125 C17.5547317,15.0996094 17.5205854,15.1142578 17.4913171,15.1435547 C17.4620488,15.1728516 17.4376585,15.1875 17.4083902,15.2167969 C17.379122,15.2460938 17.3547317,15.2607422 17.3254634,15.2900391 C17.2961951,15.3193359 17.2718049,15.3339844 17.2425366,15.3632812 C17.2132683,15.3925781 17.188878,15.4072266 17.1596098,15.4365234 C17.1303415,15.4658203 17.1059512,15.4804688 17.0766829,15.5097656 C17.0474146,15.5390625 17.0230244,15.5537109 17.0035122,15.5830078 L16.9303415,15.65625 L16.8571707,15.7294922 L16.784,15.8027344 C16.7547317,15.8320312 16.7400976,15.8466797 16.7205854,15.8759766 C16.7010732,15.9052734 16.6766829,15.9199219 16.6571707,15.9492188 C16.6376585,15.9785156 16.6132683,15.9931641 16.5937561,16.0224609 C16.5742439,16.0517578 16.5498537,16.0664062 16.5303415,16.0957031 C16.5108293,16.125 16.486439,16.1396484 16.4669268,16.1689453 C16.4474146,16.1982422 16.4327805,16.2128906 16.4035122,16.2421875 C16.384,16.2714844 16.3693659,16.2861328 16.3400976,16.3154297 C16.3205854,16.3447266 16.3059512,16.359375 16.286439,16.3886719 C16.2669268,16.4179688 16.2522927,16.4326172 16.2327805,16.4619141 C16.2132683,16.4912109 16.1986341,16.5058594 16.179122,16.5351562 C16.1596098,16.5644531 16.1449756,16.5791016 16.1254634,16.6083984 C16.1059512,16.6376953 16.0913171,16.6523438 16.0718049,16.6816406 C16.0522927,16.7109375 16.0376585,16.7255859 16.0181463,16.7548828 C15.9986341,16.7841797 15.984,16.7988281 15.9742439,16.828125 C15.9547317,16.8574219 15.9400976,16.8720703 15.9303415,16.9013672 C15.9108293,16.9306641 15.9010732,16.9453125 15.886439,16.9746094 C15.8669268,17.0039062 15.8571707,17.0185547 15.8425366,17.0478516 C15.8230244,17.0771484 15.8132683,17.0917969 15.7986341,17.1210938 C15.779122,17.1503906 15.7693659,17.1650391 15.7547317,17.1943359 C15.7352195,17.2236328 15.7254634,17.2382812 15.7108293,17.2675781 C15.6913171,17.296875 15.681561,17.3115234 15.6669268,17.3408203 C15.6474146,17.3701172 15.6376585,17.3847656 15.6230244,17.4140625 C15.6132683,17.4433594 15.5937561,17.4580078 15.588878,17.4873047 C15.579122,17.5166016 15.5596098,17.53125 15.5547317,17.5605469 C15.5449756,17.5898438 15.5254634,17.6044922 15.5205854,17.6337891 C15.5108293,17.6630859 15.4913171,17.6777344 15.486439,17.7070312 C15.4766829,17.7363281 15.4571707,17.7509766 15.4522927,17.7802734 C15.4425366,17.8095703 15.4230244,17.8242188 15.4181463,17.8535156 C15.4083902,17.8828125 15.388878,17.8974609 15.384,17.9267578 C15.3742439,17.9560547 15.3644878,17.9707031 15.3498537,18 C15.3400976,18.0292969 15.3303415,18.0439453 15.3157073,18.0732422 C15.3059512,18.1025391 15.2961951,18.1171875 15.281561,18.1464844 C15.2718049,18.1757812 15.2620488,18.1904297 15.2522927,18.2197266 C15.1303415,18.4003906 15.1205854,18.4199219 15.1108293,18.4443359 Z M32.0327805,21.2275391 L32.0327805,21.671875 C32.0327805,21.6914062 32.0327805,21.7060547 32.0230244,21.7353516 C32.0230244,21.7548828 32.0230244,21.7695312 32.0132683,21.7988281 C32.0132683,21.8183594 32.0132683,21.8330078 32.0035122,21.8623047 C32.0035122,21.8818359 31.9937561,21.8964844 31.9937561,21.9257812 C31.9937561,21.9453125 31.984,21.9599609 31.984,21.9892578 C31.984,22.0087891 31.9742439,22.0234375 31.9742439,22.0527344 C31.9742439,22.0722656 31.9644878,22.0869141 31.9644878,22.1162109 C31.9644878,22.1357422 31.9547317,22.1503906 31.9547317,22.1796875 C31.9547317,22.1992188 31.9449756,22.2138672 31.9449756,22.2431641 C31.9449756,22.2626953 31.9352195,22.2773438 31.9352195,22.3066406 C31.9352195,22.3261719 31.9254634,22.3408203 31.9254634,22.3701172 C31.9254634,22.3896484 31.9157073,22.4042969 31.9157073,22.4335938 C31.9157073,22.453125 31.9059512,22.4677734 31.8961951,22.4970703 C31.886439,22.5166016 31.886439,22.53125 31.8766829,22.5605469 C31.8669268,22.5800781 31.8669268,22.5947266 31.8571707,22.6240234 C31.8474146,22.6435547 31.8474146,22.6582031 31.8376585,22.6875 C31.8279024,22.7070312 31.8279024,22.7216797 31.8181463,22.7509766 C31.8083902,22.7705078 31.8083902,22.7851562 31.7986341,22.8144531 C31.788878,22.8339844 31.788878,22.8486328 31.779122,22.8779297 C31.7693659,22.8974609 31.7693659,22.9121094 31.7596098,22.9414062 C31.7498537,22.9609375 31.7498537,22.9755859 31.7400976,23.0048828 C31.7303415,23.0244141 31.7303415,23.0390625 31.7205854,23.0683594 C31.7108293,23.0878906 31.7010732,23.1025391 31.7010732,23.1318359 C31.6913171,23.1513672 31.681561,23.1660156 31.681561,23.1953125 C31.6718049,23.2148438 31.6620488,23.2294922 31.6620488,23.2587891 C31.6522927,23.2783203 31.6425366,23.2929688 31.6327805,23.3222656 C31.6230244,23.3417969 31.6132683,23.3564453 31.6035122,23.3857422 C31.5937561,23.4052734 31.584,23.4199219 31.5742439,23.4492188 C31.5644878,23.46875 31.5547317,23.4833984 31.5449756,23.5126953 C31.5352195,23.5322266 31.5254634,23.546875 31.5157073,23.5761719 C31.5059512,23.5957031 31.4961951,23.6103516 31.486439,23.6396484 C31.4766829,23.6591797 31.4669268,23.6738281 31.4571707,23.703125 C31.4474146,23.7226562 31.4376585,23.7373047 31.4279024,23.7666016 C31.4181463,23.7861328 31.4083902,23.8007812 31.3986341,23.8300781 C31.388878,23.8496094 31.379122,23.8642578 31.3693659,23.8935547 C31.3596098,23.9130859 31.3498537,23.9277344 31.3400976,23.9570312 C31.3303415,23.9765625 31.3205854,23.9912109 31.3059512,24.0205078 C31.2961951,24.0400391 31.286439,24.0546875 31.2718049,24.0839844 C31.2620488,24.1035156 31.2522927,24.1181641 31.2376585,24.1474609 C31.2279024,24.1669922 31.2181463,24.1816406 31.2035122,24.2109375 C31.1937561,24.2304688 31.1742439,24.2451172 31.1693659,24.2744141 C31.1596098,24.2939453 31.1400976,24.3085938 31.1352195,24.3378906 C31.1254634,24.3574219 31.1059512,24.3720703 31.1010732,24.4013672 C31.0913171,24.4208984 31.0718049,24.4355469 31.0669268,24.4648438 C31.0571707,24.484375 31.0376585,24.4990234 31.0327805,24.5283203 C31.0230244,24.5478516 31.0035122,24.5625 30.9986341,24.5917969 C30.988878,24.6113281 30.9693659,24.6259766 30.9644878,24.6552734 C30.9547317,24.6748047 30.9352195,24.6894531 30.9303415,24.71875 C30.9108293,24.7382812 30.9010732,24.7529297 30.886439,24.7822266 C30.8669268,24.8017578 30.8571707,24.8164062 30.8425366,24.8457031 C30.8230244,24.8652344 30.8132683,24.8798828 30.7986341,24.9091797 C30.779122,24.9287109 30.7693659,24.9433594 30.7547317,24.9726562 C30.7352195,24.9921875 30.7254634,25.0068359 30.7108293,25.0361328 C30.6913171,25.0556641 30.681561,25.0703125 30.6669268,25.0996094 C30.6474146,25.1191406 30.6376585,25.1337891 30.6230244,25.1630859 C30.6035122,25.1826172 30.5937561,25.1972656 30.579122,25.2265625 C30.5596098,25.2460938 30.5498537,25.2607422 30.5352195,25.2900391 C30.5157073,25.3095703 30.5010732,25.3242188 30.4913171,25.3535156 C30.4718049,25.3730469 30.4571707,25.3876953 30.4474146,25.4169922 C30.4279024,25.4365234 30.4132683,25.4511719 30.3937561,25.4804688 C30.3742439,25.5 30.3596098,25.5146484 30.3400976,25.5439453 C30.3205854,25.5634766 30.3059512,25.578125 30.286439,25.6074219 C30.2669268,25.6269531 30.2522927,25.6416016 30.2327805,25.6708984 C30.2132683,25.6904297 30.1986341,25.7050781 30.179122,25.734375 C30.1596098,25.7539062 30.1449756,25.7685547 30.1254634,25.7978516 C30.1059512,25.8173828 30.0913171,25.8320312 30.0718049,25.8613281 C30.0522927,25.8808594 30.0376585,25.8955078 30.0181463,25.9248047 C29.9986341,25.9443359 29.984,25.9589844 29.9644878,25.9882812 C29.9449756,26.0078125 29.9303415,26.0224609 29.9108293,26.0517578 L29.8474146,26.1152344 L29.784,26.1787109 C29.7644878,26.1982422 29.7400976,26.2128906 29.7205854,26.2421875 C29.7010732,26.2617188 29.6766829,26.2763672 29.6571707,26.3056641 C29.6376585,26.3251953 29.6132683,26.3398438 29.5937561,26.3691406 C29.5742439,26.3886719 29.5498537,26.4033203 29.5303415,26.4326172 C29.5108293,26.4521484 29.486439,26.4667969 29.4669268,26.4960938 C29.4474146,26.515625 29.4230244,26.5302734 29.4035122,26.5595703 C29.384,26.5791016 29.3596098,26.59375 29.3400976,26.6230469 C29.3108293,26.6425781 29.2961951,26.6572266 29.2669268,26.6865234 C29.2376585,26.7060547 29.2230244,26.7207031 29.1937561,26.75 C29.1644878,26.7695312 29.1498537,26.7841797 29.1205854,26.8134766 C29.0913171,26.8330078 29.0766829,26.8476562 29.0474146,26.8769531 C29.0181463,26.8964844 29.0035122,26.9111328 28.9742439,26.9404297 C28.9449756,26.9599609 28.9303415,26.9746094 28.9010732,27.0039062 C28.8718049,27.0234375 28.8474146,27.0380859 28.8279024,27.0673828 C28.7986341,27.0869141 28.7742439,27.1015625 28.7547317,27.1308594 C28.7254634,27.1503906 28.7010732,27.1650391 28.6718049,27.1943359 C28.6425366,27.2138672 28.6181463,27.2285156 28.588878,27.2578125 L28.5596098,27.2773438 L28.5693659,27.3115234 L28.588878,27.375 L28.6083902,27.4384766 L28.6279024,27.5019531 L28.6474146,27.5654297 L28.6669268,27.6289062 L28.686439,27.6923828 L28.7059512,27.7558594 L28.7254634,27.8193359 L28.7449756,27.8828125 L28.7644878,27.9462891 L28.784,28.0097656 L28.8035122,28.0732422 L28.8230244,28.1367188 L28.8425366,28.2001953 L28.8620488,28.2636719 L28.881561,28.3271484 L28.9010732,28.390625 L28.9205854,28.4541016 L28.9400976,28.5175781 L28.9596098,28.5810547 L28.979122,28.6445312 L28.9986341,28.7080078 L29.0181463,28.7714844 L29.0376585,28.8349609 L29.0571707,28.8984375 L29.0766829,28.9619141 L29.0961951,29.0253906 L29.1157073,29.0888672 L29.1352195,29.1523438 L29.1547317,29.2158203 L29.1742439,29.2792969 L29.1937561,29.3427734 L29.2132683,29.40625 L29.2327805,29.4697266 L29.2522927,29.5332031 L29.2718049,29.5966797 L29.2913171,29.6601562 L29.3108293,29.7236328 L29.3303415,29.7871094 L29.3498537,29.8505859 L29.3596098,29.8945312 L29.2766829,29.8505859 L29.1693659,29.7871094 L29.0620488,29.7236328 L28.9547317,29.6601562 L28.8474146,29.5966797 L28.7400976,29.5332031 L28.6327805,29.4697266 L28.5254634,29.40625 L28.4181463,29.3427734 L28.3108293,29.2792969 L28.2035122,29.2158203 L28.0961951,29.1523438 L27.988878,29.0888672 L27.881561,29.0253906 L27.7742439,28.9619141 L27.6669268,28.8984375 L27.5596098,28.8349609 L27.4522927,28.7714844 L27.3449756,28.7080078 L27.2376585,28.6445312 L27.1303415,28.5810547 L27.0230244,28.5175781 L26.9157073,28.4541016 L26.8083902,28.390625 L26.7010732,28.3271484 L26.681561,28.3173828 L26.6474146,28.3271484 C26.5644878,28.3466797 26.481561,28.3613281 26.4132683,28.390625 C26.3303415,28.4101562 26.2474146,28.4248047 26.1693659,28.4541016 C26.086439,28.4736328 26.0035122,28.4882812 25.9157073,28.5175781 C25.8230244,28.5371094 25.7449756,28.5517578 25.6522927,28.5810547 C25.5596098,28.6005859 25.4620488,28.625 25.3693659,28.6445312 C25.2620488,28.6640625 25.1596098,28.6884766 25.0522927,28.7080078 C24.9254634,28.7275391 24.7986341,28.7519531 24.6718049,28.7714844 C24.4620488,28.8007812 24.2522927,28.8154297 24.0522927,28.8349609 C23.9449756,28.8447266 23.8230244,28.8447266 23.7157073,28.8447266 C23.5693659,28.8447266 23.4230244,28.8447266 23.281561,28.8349609 C23.0279024,28.8251953 22.784,28.8056641 22.5352195,28.7714844 C22.388878,28.7519531 22.2425366,28.7373047 22.1059512,28.7080078 C21.9986341,28.6884766 21.8766829,28.6738281 21.7693659,28.6445312 C21.6766829,28.625 21.579122,28.6103516 21.486439,28.5810547 C21.4035122,28.5615234 21.3205854,28.546875 21.2425366,28.5175781 C21.1693659,28.4980469 21.0961951,28.4833984 21.0230244,28.4541016 C20.9498537,28.4345703 20.886439,28.4199219 20.8230244,28.390625 C20.7596098,28.3710938 20.6961951,28.3564453 20.6327805,28.3271484 C20.579122,28.3076172 20.5157073,28.2929688 20.4620488,28.2636719 C20.4083902,28.2441406 20.3547317,28.2294922 20.2961951,28.2001953 C20.2425366,28.1806641 20.1986341,28.1660156 20.1400976,28.1367188 C20.0961951,28.1171875 20.0425366,28.1025391 19.9937561,28.0732422 C19.9498537,28.0537109 19.9010732,28.0390625 19.8474146,28.0097656 C19.8035122,27.9902344 19.7547317,27.9755859 19.7108293,27.9462891 C19.6669268,27.9267578 19.6279024,27.9121094 19.584,27.8828125 C19.5400976,27.8632812 19.5010732,27.8486328 19.4571707,27.8193359 C19.4230244,27.7998047 19.3742439,27.7851562 19.3400976,27.7558594 C19.3059512,27.7363281 19.2669268,27.7216797 19.2230244,27.6923828 C19.188878,27.6728516 19.1498537,27.6582031 19.1157073,27.6289062 C19.081561,27.609375 19.0425366,27.5947266 19.0083902,27.5654297 C18.9742439,27.5458984 18.9352195,27.53125 18.9108293,27.5019531 C18.8766829,27.4824219 18.8474146,27.4677734 18.8132683,27.4384766 C18.779122,27.4189453 18.7498537,27.4042969 18.7157073,27.375 C18.686439,27.3554688 18.6522927,27.3408203 18.6230244,27.3115234 C18.5937561,27.2919922 18.5596098,27.2773438 18.5303415,27.2480469 C18.5010732,27.2285156 18.4669268,27.2138672 18.4376585,27.1845703 C18.4083902,27.1650391 18.384,27.1503906 18.3449756,27.1210938 C18.3157073,27.1015625 18.2913171,27.0869141 18.2620488,27.0576172 C18.2327805,27.0380859 18.2083902,27.0234375 18.179122,26.9941406 C18.1498537,26.9746094 18.1254634,26.9599609 18.0961951,26.9306641 C18.0669268,26.9111328 18.0425366,26.8964844 18.0132683,26.8671875 C17.984,26.8476562 17.9596098,26.8330078 17.9400976,26.8037109 C17.9108293,26.7841797 17.886439,26.7695312 17.8669268,26.7402344 C17.8376585,26.7207031 17.8230244,26.7060547 17.7937561,26.6767578 C17.7644878,26.6572266 17.7498537,26.6425781 17.7205854,26.6132812 C17.6913171,26.59375 17.6766829,26.5791016 17.6474146,26.5498047 C17.6181463,26.5302734 17.6035122,26.515625 17.5742439,26.4863281 C17.5547317,26.4667969 17.5303415,26.4521484 17.5108293,26.4228516 C17.4913171,26.4033203 17.4669268,26.3886719 17.4474146,26.359375 C17.4279024,26.3398438 17.4035122,26.3251953 17.384,26.2958984 C17.3644878,26.2763672 17.3400976,26.2617188 17.3205854,26.2324219 L17.2571707,26.1689453 L17.1937561,26.1054688 C17.1742439,26.0859375 17.1596098,26.0712891 17.1400976,26.0419922 C17.1205854,26.0224609 17.1059512,26.0078125 17.086439,25.9785156 C17.0669268,25.9589844 17.0522927,25.9443359 17.0327805,25.9150391 C17.0132683,25.8955078 16.9986341,25.8808594 16.979122,25.8515625 C16.9596098,25.8320312 16.9449756,25.8173828 16.9254634,25.7880859 C16.9059512,25.7685547 16.8913171,25.7539062 16.8718049,25.7246094 C16.8522927,25.7050781 16.8376585,25.6904297 16.8181463,25.6611328 C16.7986341,25.6416016 16.784,25.6269531 16.7742439,25.5976562 C16.7547317,25.578125 16.7400976,25.5634766 16.7303415,25.5341797 C16.7108293,25.5146484 16.6961951,25.5 16.686439,25.4707031 C16.6669268,25.4511719 16.6571707,25.4365234 16.6425366,25.4072266 C16.6230244,25.3876953 16.6132683,25.3730469 16.5986341,25.34375 C16.579122,25.3242188 16.5693659,25.3095703 16.5547317,25.2802734 C16.5352195,25.2607422 16.5254634,25.2460938 16.5108293,25.2167969 C16.4913171,25.1972656 16.481561,25.1826172 16.4669268,25.1533203 C16.4474146,25.1337891 16.4376585,25.1191406 16.4230244,25.0898438 C16.4035122,25.0703125 16.3937561,25.0556641 16.379122,25.0263672 C16.3693659,25.0068359 16.3498537,24.9921875 16.3449756,24.9628906 C16.3352195,24.9433594 16.3157073,24.9287109 16.3108293,24.8994141 C16.3010732,24.8798828 16.281561,24.8652344 16.2766829,24.8359375 C16.2669268,24.8164062 16.2474146,24.8017578 16.2425366,24.7724609 C16.2327805,24.7529297 16.2132683,24.7382812 16.2083902,24.7089844 C16.1986341,24.6894531 16.179122,24.6748047 16.1742439,24.6455078 C16.1644878,24.6259766 16.1449756,24.6113281 16.1400976,24.5820312 C16.1303415,24.5625 16.1108293,24.5478516 16.1059512,24.5185547 C16.0961951,24.4990234 16.086439,24.484375 16.0718049,24.4550781 C16.0620488,24.4355469 16.0522927,24.4208984 16.0376585,24.3916016 C16.0279024,24.3720703 16.0181463,24.3574219 16.0083902,24.328125 C15.9986341,24.3085938 15.988878,24.2939453 15.979122,24.2646484 C15.9693659,24.2451172 15.9596098,24.2304688 15.9498537,24.2011719 C15.9400976,24.1816406 15.9303415,24.1669922 15.9205854,24.1376953 C15.9108293,24.1181641 15.9010732,24.1035156 15.8913171,24.0742188 C15.881561,24.0546875 15.8718049,24.0400391 15.8620488,24.0107422 C15.8522927,23.9912109 15.8425366,23.9765625 15.8327805,23.9472656 C15.8230244,23.9277344 15.8132683,23.9130859 15.8035122,23.8837891 C15.7937561,23.8642578 15.784,23.8496094 15.7742439,23.8203125 C15.7644878,23.8007812 15.7547317,23.7861328 15.7449756,23.7568359 C15.7352195,23.7373047 15.7254634,23.7226562 15.7157073,23.6933594 C15.7059512,23.6738281 15.6961951,23.6591797 15.686439,23.6298828 C15.6766829,23.6103516 15.6669268,23.5957031 15.6669268,23.5664062 C15.6571707,23.546875 15.6474146,23.5322266 15.6474146,23.5029297 C15.6376585,23.4833984 15.6279024,23.46875 15.6279024,23.4394531 C15.6181463,23.4199219 15.6083902,23.4052734 15.6083902,23.3759766 C15.5986341,23.3564453 15.588878,23.3417969 15.588878,23.3125 C15.579122,23.2929688 15.579122,23.2783203 15.5693659,23.2490234 C15.5596098,23.2294922 15.5596098,23.2148438 15.5498537,23.1855469 C15.5400976,23.1660156 15.5400976,23.1513672 15.5303415,23.1220703 C15.5205854,23.1025391 15.5205854,23.0878906 15.5108293,23.0585938 C15.5010732,23.0390625 15.5010732,23.0244141 15.4913171,22.9951172 C15.481561,22.9755859 15.481561,22.9609375 15.4718049,22.9316406 C15.4620488,22.9121094 15.4620488,22.8974609 15.4522927,22.8681641 C15.4425366,22.8486328 15.4425366,22.8339844 15.4327805,22.8046875 C15.4230244,22.7851562 15.4230244,22.7705078 15.4132683,22.7412109 C15.4035122,22.7216797 15.4035122,22.7070312 15.4035122,22.6777344 C15.4035122,22.6582031 15.3937561,22.6435547 15.3937561,22.6142578 C15.3937561,22.5947266 15.384,22.5800781 15.384,22.5507812 C15.384,22.53125 15.3742439,22.5166016 15.3742439,22.4873047 C15.3742439,22.4677734 15.3644878,22.453125 15.3644878,22.4238281 C15.3644878,22.4042969 15.3547317,22.3896484 15.3547317,22.3603516 C15.3547317,22.3408203 15.3449756,22.3261719 15.3449756,22.296875 C15.3449756,22.2773438 15.3352195,22.2626953 15.3352195,22.2333984 C15.3352195,22.2138672 15.3254634,22.1992188 15.3254634,22.1699219 C15.3254634,22.1503906 15.3157073,22.1357422 15.3157073,22.1064453 C15.3157073,22.0869141 15.3059512,22.0722656 15.3059512,22.0429688 C15.3059512,22.0234375 15.2961951,22.0087891 15.2961951,21.9794922 C15.2961951,21.9599609 15.2961951,21.9453125 15.286439,21.9160156 C15.286439,21.8964844 15.286439,21.8818359 15.2766829,21.8525391 C15.2766829,21.8330078 15.2766829,21.8183594 15.2669268,21.7890625 L15.2669268,20.65625 C15.2669268,20.6367188 15.2669268,20.6220703 15.2766829,20.5927734 C15.2766829,20.5732422 15.2766829,20.5585938 15.286439,20.5292969 C15.286439,20.5097656 15.286439,20.4951172 15.2961951,20.4658203 C15.2961951,20.4462891 15.3059512,20.4316406 15.3059512,20.4023438 C15.3059512,20.3828125 15.3157073,20.3681641 15.3157073,20.3388672 C15.3157073,20.3193359 15.3254634,20.3046875 15.3254634,20.2753906 C15.3254634,20.2558594 15.3352195,20.2412109 15.3352195,20.2119141 C15.3352195,20.1923828 15.3449756,20.1777344 15.3449756,20.1484375 C15.3449756,20.1289062 15.3547317,20.1142578 15.3547317,20.0849609 C15.3547317,20.0654297 15.3644878,20.0507812 15.3644878,20.0214844 C15.3644878,20.0019531 15.3742439,19.9873047 15.3742439,19.9580078 C15.3742439,19.9384766 15.384,19.9238281 15.384,19.8945312 C15.384,19.875 15.3937561,19.8603516 15.3937561,19.8310547 C15.3937561,19.8115234 15.4035122,19.796875 15.4035122,19.7675781 C15.4035122,19.7480469 15.4132683,19.7333984 15.4132683,19.7041016 C15.4230244,19.6845703 15.4230244,19.6699219 15.4327805,19.640625 C15.4425366,19.6210938 15.4425366,19.6064453 15.4522927,19.5771484 C15.4620488,19.5576172 15.4620488,19.5429688 15.4718049,19.5136719 C15.481561,19.4941406 15.481561,19.4794922 15.4913171,19.4501953 C15.5010732,19.4306641 15.5010732,19.4160156 15.5108293,19.3867188 C15.5205854,19.3671875 15.5205854,19.3525391 15.5303415,19.3232422 C15.5400976,19.3037109 15.5400976,19.2890625 15.5498537,19.2597656 C15.5596098,19.2402344 15.5596098,19.2255859 15.5693659,19.1962891 C15.579122,19.1767578 15.579122,19.1621094 15.588878,19.1328125 C15.5986341,19.1132812 15.6083902,19.0986328 15.6083902,19.0693359 C15.6181463,19.0498047 15.6279024,19.0351562 15.6279024,19.0058594 C15.6376585,18.9863281 15.6474146,18.9716797 15.6474146,18.9423828 C15.6571707,18.9228516 15.6669268,18.9082031 15.6669268,18.8789062 C15.6766829,18.859375 15.686439,18.8447266 15.686439,18.8154297 C15.6961951,18.7958984 15.7059512,18.78125 15.7157073,18.7519531 C15.7254634,18.7324219 15.7352195,18.7177734 15.7449756,18.6884766 C15.7547317,18.6689453 15.7644878,18.6542969 15.7742439,18.625 C15.784,18.6054688 15.7937561,18.5908203 15.8035122,18.5615234 C15.8132683,18.5419922 15.8230244,18.5273438 15.8327805,18.4980469 C15.8425366,18.4785156 15.8522927,18.4638672 15.8620488,18.4345703 C15.8718049,18.4150391 15.881561,18.4003906 15.8913171,18.3710938 C15.9010732,18.3515625 15.9108293,18.3369141 15.9205854,18.3076172 C15.9303415,18.2880859 15.9400976,18.2734375 15.9498537,18.2441406 C15.9596098,18.2246094 15.9693659,18.2099609 15.979122,18.1806641 C15.988878,18.1611328 15.9986341,18.1464844 16.0083902,18.1171875 C16.0181463,18.0976562 16.0279024,18.0830078 16.0425366,18.0537109 C16.0522927,18.0341797 16.0620488,18.0195312 16.0766829,17.9902344 C16.086439,17.9707031 16.0961951,17.9560547 16.1108293,17.9267578 C16.1205854,17.9072266 16.1400976,17.8925781 16.1449756,17.8632812 C16.1547317,17.84375 16.1742439,17.8291016 16.179122,17.7998047 C16.188878,17.7802734 16.2083902,17.765625 16.2132683,17.7363281 C16.2230244,17.7167969 16.2425366,17.7021484 16.2474146,17.6728516 C16.2571707,17.6533203 16.2766829,17.6386719 16.281561,17.609375 C16.2913171,17.5898438 16.3108293,17.5751953 16.3157073,17.5458984 C16.3254634,17.5263672 16.3449756,17.5117188 16.3498537,17.4824219 C16.3596098,17.4628906 16.379122,17.4482422 16.384,17.4189453 C16.3937561,17.3994141 16.4132683,17.3847656 16.4279024,17.3554688 C16.4474146,17.3359375 16.4571707,17.3212891 16.4718049,17.2919922 C16.4913171,17.2724609 16.5010732,17.2578125 16.5157073,17.2285156 C16.5352195,17.2089844 16.5449756,17.1943359 16.5596098,17.1650391 C16.579122,17.1455078 16.588878,17.1308594 16.6035122,17.1015625 C16.6230244,17.0820312 16.6327805,17.0673828 16.6474146,17.0380859 C16.6669268,17.0185547 16.6766829,17.0039062 16.6913171,16.9746094 C16.7108293,16.9550781 16.7254634,16.9404297 16.7352195,16.9111328 C16.7547317,16.8916016 16.7693659,16.8769531 16.779122,16.8476562 C16.7986341,16.828125 16.8132683,16.8134766 16.8230244,16.7841797 C16.8425366,16.7646484 16.8571707,16.75 16.8766829,16.7207031 C16.8961951,16.7011719 16.9108293,16.6865234 16.9303415,16.6572266 C16.9498537,16.6376953 16.9644878,16.6230469 16.984,16.59375 C17.0035122,16.5742188 17.0181463,16.5595703 17.0376585,16.5302734 C17.0571707,16.5107422 17.0718049,16.4960938 17.0913171,16.4667969 C17.1108293,16.4472656 17.1254634,16.4326172 17.1449756,16.4033203 C17.1644878,16.3837891 17.179122,16.3691406 17.1986341,16.3398438 L17.2620488,16.2763672 L17.3254634,16.2128906 C17.3449756,16.1933594 17.3693659,16.1787109 17.388878,16.1494141 C17.4083902,16.1298828 17.4327805,16.1152344 17.4522927,16.0859375 C17.4718049,16.0664062 17.4961951,16.0517578 17.5157073,16.0224609 C17.5352195,16.0029297 17.5596098,15.9882812 17.579122,15.9589844 C17.5986341,15.9394531 17.6230244,15.9248047 17.6522927,15.8955078 C17.681561,15.8759766 17.6961951,15.8613281 17.7254634,15.8320312 C17.7547317,15.8125 17.7693659,15.7978516 17.7986341,15.7685547 C17.8279024,15.7490234 17.8425366,15.734375 17.8718049,15.7050781 C17.9010732,15.6855469 17.9254634,15.6708984 17.9449756,15.6416016 C17.9742439,15.6220703 17.9986341,15.6074219 18.0181463,15.578125 C18.0474146,15.5585938 18.0718049,15.5439453 18.1010732,15.5146484 C18.1303415,15.4951172 18.1547317,15.4804688 18.184,15.4511719 C18.2132683,15.4316406 18.2376585,15.4169922 18.2669268,15.3876953 C18.2961951,15.3681641 18.3205854,15.3535156 18.3498537,15.3242188 C18.379122,15.3046875 18.4035122,15.2900391 18.4425366,15.2607422 C18.4718049,15.2412109 18.5059512,15.2265625 18.5352195,15.1972656 C18.5644878,15.1777344 18.5986341,15.1630859 18.6279024,15.1337891 C18.6571707,15.1142578 18.6913171,15.0996094 18.7205854,15.0703125 C18.7547317,15.0507812 18.784,15.0361328 18.8181463,15.0068359 C18.8522927,14.9873047 18.881561,14.9726562 18.9157073,14.9433594 C18.9498537,14.9238281 18.988878,14.9091797 19.0132683,14.8798828 C19.0474146,14.8603516 19.086439,14.8457031 19.1205854,14.8164062 C19.1547317,14.796875 19.1937561,14.7822266 19.2279024,14.7529297 C19.2620488,14.7333984 19.3010732,14.71875 19.3449756,14.6894531 C19.379122,14.6699219 19.4279024,14.6552734 19.4620488,14.6259766 C19.5059512,14.6064453 19.5449756,14.5917969 19.588878,14.5625 C19.6327805,14.5429688 19.6718049,14.5283203 19.7157073,14.4990234 C19.7596098,14.4794922 19.8083902,14.4648438 19.8522927,14.4355469 C19.8961951,14.4160156 19.9449756,14.4013672 19.9986341,14.3720703 C20.0425366,14.3525391 20.0961951,14.3378906 20.1449756,14.3085938 C20.1986341,14.2890625 20.2425366,14.2744141 20.3010732,14.2451172 C20.3547317,14.2255859 20.4083902,14.2109375 20.4669268,14.1816406 C20.5205854,14.1621094 20.584,14.1474609 20.6376585,14.1181641 C20.7010732,14.0986328 20.7644878,14.0839844 20.8279024,14.0546875 C20.8913171,14.0351562 20.9644878,14.0205078 21.0279024,13.9912109 C21.1010732,13.9716797 21.1742439,13.9570312 21.2571707,13.9277344 C21.3400976,13.9082031 21.4230244,13.8837891 21.5010732,13.8642578 C21.5937561,13.8447266 21.6913171,13.8203125 21.784,13.8007812 C21.8913171,13.78125 22.0132683,13.7568359 22.1205854,13.7373047 C22.2669268,13.7080078 22.4132683,13.6933594 22.5547317,13.6738281 C22.9157073,13.6298828 23.3010732,13.6103516 23.681561,13.6103516 L23.7352195,13.6103516 C24.0961951,13.6103516 24.4522927,13.6396484 24.8083902,13.6738281 C24.9547317,13.6933594 25.0913171,13.7080078 25.2279024,13.7373047 C25.3352195,13.7568359 25.4474146,13.7714844 25.5547317,13.8007812 C25.6474146,13.8203125 25.7352195,13.8349609 25.8279024,13.8642578 C25.9108293,13.8837891 25.9937561,13.8984375 26.0718049,13.9277344 C26.1449756,13.9472656 26.2181463,13.9619141 26.2913171,13.9912109 C26.3547317,14.0107422 26.4279024,14.0253906 26.4913171,14.0546875 C26.5547317,14.0742188 26.6181463,14.0888672 26.6718049,14.1181641 C26.7254634,14.1376953 26.788878,14.1523438 26.8425366,14.1816406 C26.8961951,14.2011719 26.9498537,14.2158203 27.0083902,14.2451172 C27.0620488,14.2646484 27.1059512,14.2792969 27.1644878,14.3085938 C27.2083902,14.328125 27.2620488,14.3427734 27.3108293,14.3720703 C27.3547317,14.3916016 27.4035122,14.40625 27.4474146,14.4355469 C27.4913171,14.4550781 27.5400976,14.4697266 27.584,14.4990234 C27.6279024,14.5185547 27.6669268,14.5332031 27.7108293,14.5625 C27.7547317,14.5820312 27.7937561,14.5966797 27.8376585,14.6259766 C27.8718049,14.6455078 27.9205854,14.6601562 27.9547317,14.6894531 C27.988878,14.7089844 28.0279024,14.7236328 28.0718049,14.7529297 C28.1059512,14.7724609 28.1449756,14.7871094 28.179122,14.8164062 C28.2132683,14.8359375 28.2522927,14.8505859 28.286439,14.8798828 C28.3205854,14.8994141 28.3596098,14.9140625 28.384,14.9433594 C28.4181463,14.9628906 28.4474146,14.9775391 28.481561,15.0068359 C28.5157073,15.0263672 28.5449756,15.0410156 28.579122,15.0703125 C28.6132683,15.0898438 28.6425366,15.1044922 28.6766829,15.1337891 C28.7059512,15.1533203 28.7400976,15.1679688 28.7693659,15.1972656 C28.7986341,15.2167969 28.8327805,15.2314453 28.8620488,15.2607422 C28.8913171,15.2802734 28.9157073,15.2949219 28.9547317,15.3242188 C28.984,15.34375 29.0083902,15.3583984 29.0376585,15.3876953 C29.0669268,15.4072266 29.0913171,15.421875 29.1205854,15.4511719 C29.1498537,15.4707031 29.1742439,15.4853516 29.2035122,15.5146484 C29.2327805,15.5341797 29.2571707,15.5488281 29.286439,15.578125 C29.3157073,15.5976562 29.3400976,15.6123047 29.3596098,15.6416016 C29.388878,15.6611328 29.4132683,15.6757812 29.4327805,15.7050781 C29.4620488,15.7246094 29.4766829,15.7392578 29.5059512,15.7685547 C29.5352195,15.7880859 29.5498537,15.8027344 29.579122,15.8320312 C29.6083902,15.8515625 29.6230244,15.8662109 29.6522927,15.8955078 C29.681561,15.9150391 29.6961951,15.9296875 29.7254634,15.9589844 C29.7449756,15.9785156 29.7693659,15.9931641 29.788878,16.0224609 C29.8083902,16.0419922 29.8327805,16.0566406 29.8522927,16.0859375 C29.8718049,16.1054688 29.8961951,16.1201172 29.9157073,16.1494141 C29.9352195,16.1689453 29.9596098,16.1835938 29.979122,16.2128906 C29.9986341,16.2324219 30.0230244,16.2470703 30.0425366,16.2763672 L30.1059512,16.3398438 L30.1693659,16.4033203 C30.188878,16.4228516 30.2035122,16.4375 30.2230244,16.4667969 C30.2425366,16.4863281 30.2571707,16.5009766 30.2766829,16.5302734 C30.2961951,16.5498047 30.3108293,16.5644531 30.3303415,16.59375 C30.3498537,16.6132812 30.3644878,16.6279297 30.384,16.6572266 C30.4035122,16.6767578 30.4181463,16.6914062 30.4376585,16.7207031 C30.4571707,16.7402344 30.4718049,16.7548828 30.4913171,16.7841797 C30.5108293,16.8037109 30.5254634,16.8183594 30.5449756,16.8476562 C30.5644878,16.8671875 30.579122,16.8818359 30.5986341,16.9111328 C30.6181463,16.9306641 30.6327805,16.9453125 30.6425366,16.9746094 C30.6620488,16.9941406 30.6718049,17.0087891 30.686439,17.0380859 C30.7059512,17.0576172 30.7205854,17.0722656 30.7303415,17.1015625 C30.7498537,17.1210938 30.7596098,17.1357422 30.7742439,17.1650391 C30.7937561,17.1845703 30.8035122,17.1992188 30.8181463,17.2285156 C30.8376585,17.2480469 30.8474146,17.2626953 30.8620488,17.2919922 C30.881561,17.3115234 30.8913171,17.3261719 30.9059512,17.3554688 C30.9254634,17.375 30.9352195,17.3896484 30.9498537,17.4189453 C30.9693659,17.4384766 30.979122,17.453125 30.9937561,17.4824219 C31.0132683,17.5019531 31.0230244,17.5166016 31.0279024,17.5458984 C31.0376585,17.5654297 31.0571707,17.5800781 31.0620488,17.609375 C31.0718049,17.6289062 31.0913171,17.6435547 31.0961951,17.6728516 C31.1059512,17.6923828 31.1254634,17.7070312 31.1303415,17.7363281 C31.1400976,17.7558594 31.1596098,17.7705078 31.1644878,17.7998047 C31.1742439,17.8193359 31.1937561,17.8339844 31.1986341,17.8632812 C31.2083902,17.8828125 31.2279024,17.8974609 31.2327805,17.9267578 C31.2425366,17.9462891 31.2522927,17.9609375 31.2669268,17.9902344 C31.2766829,18.0097656 31.2961951,18.0244141 31.3010732,18.0537109 C31.3108293,18.0732422 31.3205854,18.0878906 31.3352195,18.1171875 C31.3449756,18.1367188 31.3547317,18.1513672 31.3693659,18.1806641 C31.379122,18.2001953 31.388878,18.2148438 31.4035122,18.2441406 C31.4132683,18.2636719 31.4230244,18.2783203 31.4327805,18.3076172 C31.4425366,18.3271484 31.4522927,18.3417969 31.4620488,18.3710938 C31.4718049,18.390625 31.481561,18.4052734 31.4913171,18.4345703 C31.5010732,18.4541016 31.5108293,18.46875 31.5205854,18.4980469 C31.5303415,18.5175781 31.5400976,18.5322266 31.5498537,18.5615234 C31.5596098,18.5810547 31.5693659,18.5957031 31.579122,18.625 C31.588878,18.6445312 31.5986341,18.6591797 31.6083902,18.6884766 C31.6181463,18.7080078 31.6279024,18.7226562 31.6376585,18.7519531 C31.6474146,18.7714844 31.6571707,18.7861328 31.6669268,18.8154297 C31.6766829,18.8349609 31.686439,18.8496094 31.6961951,18.8789062 C31.7059512,18.8984375 31.7157073,18.9130859 31.7254634,18.9423828 C31.7352195,18.9619141 31.7449756,18.9765625 31.7449756,19.0058594 C31.7547317,19.0253906 31.7644878,19.0400391 31.7644878,19.0693359 C31.7742439,19.0888672 31.784,19.1035156 31.784,19.1328125 C31.7937561,19.1523438 31.7937561,19.1669922 31.8035122,19.1962891 C31.8132683,19.2158203 31.8132683,19.2304688 31.8230244,19.2597656 C31.8327805,19.2792969 31.8327805,19.2939453 31.8425366,19.3232422 C31.8522927,19.3427734 31.8522927,19.3574219 31.8620488,19.3867188 C31.8718049,19.40625 31.8718049,19.4208984 31.881561,19.4501953 C31.8913171,19.4697266 31.8913171,19.484375 31.9010732,19.5136719 C31.9108293,19.5332031 31.9108293,19.5478516 31.9205854,19.5771484 C31.9303415,19.5966797 31.9303415,19.6113281 31.9400976,19.640625 C31.9498537,19.6601562 31.9498537,19.6748047 31.9596098,19.7041016 C31.9693659,19.7236328 31.9693659,19.7382812 31.979122,19.7675781 C31.988878,19.7871094 31.988878,19.8017578 31.9986341,19.8310547 C32.0083902,19.8505859 32.0083902,19.8652344 32.0181463,19.8945312 C32.0181463,19.9140625 32.0279024,19.9287109 32.0279024,19.9580078 C32.0279024,19.9775391 32.0376585,19.9921875 32.0376585,20.0214844 C32.0376585,20.0410156 32.0474146,20.0556641 32.0474146,20.0849609 C32.0474146,20.1044922 32.0571707,20.1191406 32.0571707,20.1484375 C32.0571707,20.1679688 32.0669268,20.1826172 32.0669268,20.2119141 C32.0669268,20.2314453 32.0766829,20.2460938 32.0766829,20.2753906 C32.0766829,20.2949219 32.086439,20.3095703 32.086439,20.3388672 C32.086439,20.3583984 32.0961951,20.3730469 32.0961951,20.4023438 C32.0961951,20.421875 32.1059512,20.4365234 32.1059512,20.4658203 C32.1059512,20.4853516 32.1059512,20.5 32.1157073,20.5292969 C32.1157073,20.5488281 32.1157073,20.5634766 32.1254634,20.5927734 C32.1254634,20.6123047 32.1254634,20.6269531 32.1352195,20.65625 C32.1352195,20.6757812 32.1352195,20.6904297 32.1449756,20.7197266 C32.1449756,20.7392578 32.1449756,20.7539062 32.1547317,20.7832031 L32.1547317,21.2275391 L32.0327805,21.2275391 Z M20.8571707,18 C20.3644878,18 19.8669268,18.4980469 19.8669268,18.9912109 C19.8669268,19.4892578 20.3644878,19.9824219 20.8571707,19.9824219 C21.6132683,19.9824219 22.1010732,19.4892578 22.1010732,18.9912109 C22.0961951,18.4980469 21.6035122,18 20.8571707,18 Z M26.3157073,18 C25.8230244,18 25.3254634,18.4980469 25.3254634,18.9912109 C25.3254634,19.4892578 25.8230244,19.9824219 26.3157073,19.9824219 C27.0620488,19.9824219 27.5596098,19.4892578 27.5596098,18.9912109 C27.5596098,18.4980469 27.0620488,18 26.3157073,18 Z M10.6718049,10.7832031 C9.92546341,10.7832031 9.1742439,11.2763672 9.1742439,12.0185547 C9.1742439,12.765625 9.93034146,13.2636719 10.6718049,13.2636719 C11.4132683,13.2636719 11.9157073,12.765625 11.9157073,12.0185547 C11.9157073,11.2714844 11.4132683,10.7832031 10.6718049,10.7832031 Z M17.6279024,10.7832031 C16.881561,10.7832031 16.1400976,11.2763672 16.1400976,12.0185547 C16.1400976,12.765625 16.886439,13.2636719 17.6279024,13.2636719 C18.3742439,13.2636719 18.8718049,12.765625 18.8718049,12.0185547 C18.8718049,11.2714844 18.3693659,10.7832031 17.6279024,10.7832031 Z" id="Shape"></path>
                    </g>
                </g>
            </g>
        </g>
    </g>
</svg>