<?xml version="1.0" encoding="UTF-8"?>
<svg width="36px" height="36px" viewBox="0 0 36 36" version="1.1" xmlns="http://www.w3.org/2000/svg" xmlns:xlink="http://www.w3.org/1999/xlink">
    <!-- Generator: Sketch 51.2 (57519) - http://www.bohemiancoding.com/sketch -->
    <title>icon-Weibo</title>
    <desc>Created with Sketch.</desc>
    <defs></defs>
    <g id="Compaign" stroke="none" stroke-width="1" fill="none" fill-rule="evenodd">
        <g id="Compaign_-MoonMGM_1_share" transform="translate(-486.000000, -1304.000000)" fill="#FFFFFF" fill-rule="nonzero">
            <g id="Group-21" transform="translate(240.000000, 1302.000000)">
                <g id="Weibo" transform="translate(234.000000, 0.000000)">
                    <g id="icon" transform="translate(12.000000, 2.000000)">
                        <path d="M14.0625,21.75 C13.3061108,21.4760197 12.4607627,21.7612598 12.025,22.4375 C11.8244063,22.7335245 11.7601963,23.1012842 11.8486096,23.4477686 C11.9370228,23.794253 12.1695928,24.0862826 12.4875,24.25 C13.2552076,24.5534822 14.1303203,24.2705116 14.575,23.575 C14.7766811,23.2717122 14.8360494,22.8955434 14.7375766,22.5448843 C14.6391038,22.1942252 14.3925852,21.9039561 14.0625,21.75 Z M15.7875,21.0375 C15.4973548,20.9423355 15.1800852,21.0619617 15.025,21.325 C14.94647,21.437316 14.9234024,21.5792965 14.9623358,21.7106968 C15.0012692,21.842097 15.0979597,21.9485937 15.225,22 C15.5224867,22.1088665 15.855128,21.987426 16.0125,21.7125 C16.095506,21.5978778 16.1197548,21.4508849 16.0779627,21.3156752 C16.0361707,21.1804654 15.933207,21.0727928 15.8,21.025 L15.7875,21.0375 Z M14.6875,16.35 C10.175,16.75 6.75,19.55 7.025,22.5125 C7.3,25.475 11.225,27.5125 15.775,27.075 C20.325,26.6375 23.7375,23.8625 23.45,20.9 C23.1625,17.9375 19.25,15.8875 14.7,16.3375 L14.6875,16.35 Z M18.6625,23.3375 C17.5929919,25.4895624 15.1206147,26.5483963 12.825,25.8375 C11.8377576,25.5848892 11.0191739,24.8966464 10.6007901,23.9674453 C10.1824064,23.0382441 10.2097181,21.969127 10.675,21.0625 C11.7740263,19.1184085 14.0290196,18.1388639 16.2,18.6625 C17.2125168,18.8469546 18.0848005,19.4849472 18.5673491,20.3939909 C19.0498978,21.3030347 19.0895633,22.3830069 18.675,23.325 L18.6625,23.3375 Z M15.8,29.05 C10.1125,29.05 4.25,26.3125 4.25,21.75 C4.25,19.3875 5.75,16.6625 8.325,14.0875 C11.775,10.65 15.825,9.0875 17.3,10.6 C17.980679,11.5256795 18.0960102,12.7510733 17.6,13.7875 C17.375,14.475 18.25,14.1 18.25,14.1 C21.0375,12.9375 23.4625,12.85 24.3625,14.1 C24.8226509,14.9456214 24.8226509,15.9668786 24.3625,16.8125 C24.1625,17.3125 24.3625,17.4 24.8125,17.5125 C26.6307875,17.8814994 27.9832351,19.4125722 28.125,21.2625 C28.1875,24.7375 23.2375,29.05 15.8,29.05 Z M26.075,14.7125 C26.277073,14.1183662 26.1379845,13.4612931 25.7125,13 C25.2976008,12.5482275 24.6752382,12.3486913 24.075,12.475 C23.7601597,12.5419873 23.433498,12.4359208 23.2180651,12.1967548 C23.0026322,11.9575887 22.9311576,11.6216581 23.0305651,11.3155048 C23.1299725,11.0093514 23.3851597,10.7794873 23.7,10.7125 C24.9312133,10.4465123 26.2107927,10.857714 27.0565617,11.7911541 C27.9023306,12.7245942 28.1857422,14.0384009 27.8,15.2375 C27.634459,15.691796 27.139542,15.9341109 26.679185,15.7862591 C26.2188281,15.6384072 25.9575584,15.1532294 26.0875,14.6875 L26.075,14.7125 Z M31.3375,16.4 C31.2213887,16.7572656 30.9234985,17.025448 30.5560417,17.1035254 C30.188585,17.1816028 29.8073872,17.0577135 29.5560417,16.7785254 C29.3046963,16.4993373 29.2213887,16.1072656 29.3375,15.75 C29.9019678,14.0018351 29.4900536,12.0853078 28.2571559,10.723446 C27.0242583,9.36158408 25.1580212,8.76165975 23.3625,9.15 C22.9788655,9.28366272 22.5525492,9.18402856 22.2678933,8.89418001 C21.9832373,8.60433145 21.8913253,8.17628393 22.0319005,7.79512807 C22.1724758,7.41397221 22.520311,7.1481092 22.925,7.1125 C25.4513286,6.56937337 28.0755811,7.41437899 29.8103354,9.32956835 C31.5450897,11.2447577 32.1271478,13.9395571 31.3375,16.4 Z" id="Shape"></path>
                    </g>
                </g>
            </g>
        </g>
    </g>
</svg>