<svg width="132" height="132" viewBox="0 0 132 132" fill="none" xmlns="http://www.w3.org/2000/svg">
<path d="M110.982 29.3556C110.982 29.3556 83.7429 27.6667 67.3484 16.5778L66.4984 16L65.6484 16.5722C49.2485 27.6611 22.0151 29.35 22.0151 29.35C22.0151 29.35 21.7151 38.4167 23.7873 62.7833C25.854 87.15 40.8873 102.633 65.7984 115.633L66.4984 116L67.1984 115.633C92.1096 102.628 107.143 87.15 109.21 62.7833C111.282 38.4167 110.982 29.3556 110.982 29.3556Z" fill="url(#paint0_linear_2_2)"/>
<path d="M93.3374 52.2056V52.9722H88.954V52.2056H83.5096V52.9722H79.1263V52.2056H73.6818V52.9722H69.2985V52.2056H63.854V52.9722H59.4707V52.2056H54.0262V52.9722H49.6429V52.2056H44.1985V52.9722H39.8151V52.2056H34.3707V89.5944C41.5818 99.2 52.2207 107.033 65.804 114.122L66.504 114.489L67.204 114.122C80.8874 106.983 91.5763 99.0889 98.7874 89.3889V52.2056H93.3374Z" fill="url(#paint1_linear_2_2)"/>
<path d="M34.3651 47.2222V89.5611C36.004 91.7445 37.8207 93.8389 39.8096 95.85V47.2222H34.3651Z" fill="url(#paint2_linear_2_2)"/>
<path d="M63.8485 47.2222V113.067C64.5151 113.428 65.1873 113.783 65.8707 114.139L66.5707 114.506L67.2707 114.139C67.954 113.783 68.6262 113.422 69.2929 113.067V47.2222H63.8485Z" fill="url(#paint3_linear_2_2)"/>
<path d="M54.0207 47.2222V107.25C55.7707 108.394 57.5818 109.511 59.4651 110.611V47.2222H54.0207Z" fill="url(#paint4_linear_2_2)"/>
<path d="M44.1929 47.2222V99.9278C45.9096 101.4 47.7262 102.833 49.6373 104.228V47.2222H44.1929Z" fill="url(#paint5_linear_2_2)"/>
<path d="M83.5096 47.2222V104.228C85.4207 102.833 87.2373 101.406 88.954 99.9278V47.2222H83.5096Z" fill="url(#paint6_linear_2_2)"/>
<path d="M73.6762 47.2222V110.611C75.5596 109.511 77.3762 108.389 79.1207 107.25V47.2222H73.6762Z" fill="url(#paint7_linear_2_2)"/>
<path d="M93.3374 47.2222V95.85C95.3262 93.8389 97.1429 91.7445 98.7818 89.5611V47.2222H93.3374Z" fill="url(#paint8_linear_2_2)"/>
<path d="M66.5818 26.8778L63.5207 28.2778L63.9096 24.9334L61.6318 22.4611L64.9263 21.7945L66.5818 18.8667L68.2318 21.7945L71.5263 22.4611L69.254 24.9334L69.6374 28.2778L66.5818 26.8778Z" fill="url(#paint9_linear_2_2)"/>
<path d="M52.9818 30.8667L51.0874 31.739L51.3263 29.6612L49.9096 28.1278L51.9596 27.7112L52.9818 25.8945L54.0096 27.7112L56.054 28.1278L54.6429 29.6612L54.8818 31.739L52.9818 30.8667Z" fill="url(#paint10_linear_2_2)"/>
<path d="M80.2985 30.8667L82.1985 31.739L81.9596 29.6612L83.3707 28.1279L81.3262 27.7112L80.2985 25.8945L79.2762 27.7112L77.2262 28.1279L78.6429 29.6612L78.404 31.739L80.2985 30.8667Z" fill="url(#paint11_linear_2_2)"/>
<path d="M101.098 39.0778L96.6985 38.6833C96.5429 38.6667 80.8373 37.1333 69.2151 29.8667L66.5707 28.2222L63.9318 29.8722C52.3096 37.1389 36.6096 38.6722 36.4596 38.6833L32.0485 39.0778V61.9722C32.0485 79.8278 44.1429 96.3278 64.3985 106.106L66.5707 107.156L68.7429 106.106C89.004 96.3278 101.098 79.8333 101.098 61.9722V39.0778Z" fill="url(#paint12_linear_2_2)"/>
<path d="M66.5707 104.639L65.5151 104.128C46.0096 94.7111 34.3596 78.9389 34.3596 61.9333V41.1667L36.4707 40.9778C36.6318 40.9611 53.004 39.3944 65.2873 31.7167L66.5651 30.9167L67.8429 31.7167C80.1262 39.3944 96.4929 40.9611 96.6596 40.9778L98.7707 41.1667V61.9333C98.7707 78.9389 87.1262 94.7167 67.6151 104.128L66.5707 104.639ZM36.704 43.2611V61.9333C36.704 78.0444 47.8651 93.05 66.554 102.072L66.5762 102.083L66.5985 102.072C85.2818 93.0555 96.4429 78.05 96.4429 61.9333V43.2556C95.8651 43.2 79.2262 41.5389 66.5929 33.6444L66.5707 33.6333L66.5485 33.6444C53.9151 41.55 37.2596 43.2056 36.704 43.2611Z" fill="url(#paint13_linear_2_2)"/>
<path d="M76.854 91.15C79.4096 91.15 81.7707 90.75 83.9318 89.9723C84.5651 89.3334 85.1762 88.6889 85.7596 88.0334C82.8874 89.9389 79.5762 90.9723 75.8207 91.1334C76.1707 91.1389 76.5096 91.15 76.854 91.15Z" fill="url(#paint14_linear_2_2)"/>
<path d="M95.8762 68.1556C95.6651 66.9834 95.3485 65.9112 94.9318 64.95C94.6873 64.3834 94.3762 63.7945 94.0096 63.2C93.1096 61.7167 91.8651 60.1445 90.2485 58.4723C90.5762 58.0389 90.8596 57.5945 91.1318 57.1445C92.5096 54.8723 93.204 52.4223 93.204 49.7945C93.204 46.5445 92.454 43.7 90.9596 41.2612C90.3096 40.2 89.5207 39.2167 88.5873 38.3112C86.9485 36.7223 85.0651 35.5612 82.9373 34.8167C81.0651 34.1612 79.0096 33.8334 76.7651 33.8334C76.4207 33.8334 76.0818 33.8445 75.7485 33.8612C80.0818 34.0612 83.6818 35.5445 86.5373 38.3167C87.5151 39.2667 88.3373 40.3 89.004 41.4167C89.1429 41.65 89.2762 41.8889 89.3985 42.1278C90.5707 44.3667 91.154 46.9223 91.154 49.7945C91.154 52.1 90.6151 54.2723 89.554 56.3112C89.4373 56.5278 89.3151 56.7445 89.1873 56.9612C88.8873 57.4723 88.5651 57.9778 88.1929 58.4778C89.8762 60.2223 91.1651 61.8612 92.0707 63.3945C92.2096 63.6278 92.3318 63.8612 92.454 64.0889C92.6096 64.3834 92.7485 64.6723 92.8762 64.9612C93.7318 66.9334 94.154 69.3334 94.154 72.1612C94.154 73.0723 94.0985 73.9556 93.9929 74.8167C94.8429 72.6334 95.4707 70.4167 95.8762 68.1556Z" fill="url(#paint15_linear_2_2)"/>
<path d="M85.7151 58.4667C87.6874 55.8278 88.6762 52.9334 88.6762 49.7889C88.6762 45.5889 87.4262 42.0778 84.9318 39.2389C84.654 38.9223 84.3651 38.6112 84.054 38.3112C83.1874 37.4723 82.2485 36.75 81.2485 36.15C79.2707 34.9612 77.0318 34.2278 74.5207 33.9556C74.1818 33.9167 73.8374 33.8889 73.4929 33.8723C73.1596 33.8556 72.8151 33.8389 72.4707 33.8389C72.3929 33.8389 72.3151 33.8334 72.2374 33.8334C70.4262 33.8334 68.7429 34.05 67.1762 34.4889C64.8096 35.15 62.7207 36.3112 60.9096 37.9667C60.7762 38.0889 60.6429 38.2056 60.5151 38.3334C57.4485 41.3334 55.9151 45.1389 55.9151 49.7556C55.9151 52.9556 56.8985 55.8612 58.8762 58.4778C57.0485 60.3723 55.6762 62.1945 54.754 63.9389C54.5707 64.2834 54.404 64.6223 54.254 64.9556C53.7485 66.1223 53.3874 67.4056 53.1707 68.7945C53.0818 69.3723 53.0151 69.9667 52.9707 70.5834V64.5278V49.5056H51.3874V50.0445V91.0167V91.5112V92.0334C51.904 92.5001 52.4318 92.9556 52.9707 93.4056V92.1112V79.8778V73.6834C53.0096 74.2945 53.0762 74.8889 53.1707 75.4723C53.454 77.3 53.9818 79.0112 54.754 80.6C55.654 82.4612 56.8874 84.1667 58.454 85.7056C58.5707 85.8167 58.6874 85.9223 58.804 86.0334C60.9485 88.0445 63.3985 89.4612 66.1485 90.2834C68.0596 90.8556 70.1096 91.1445 72.3151 91.1445C72.3929 91.1445 72.4707 91.1389 72.5485 91.1389C72.8874 91.1334 73.2262 91.1278 73.5596 91.1112C73.904 91.0945 74.2429 91.0667 74.5818 91.0334C77.404 90.7612 79.9596 89.9667 82.2596 88.6556C83.6485 87.8612 84.9429 86.8778 86.1374 85.7056C86.4429 85.4056 86.7262 85.1001 87.004 84.7945C90.1151 81.3334 91.6762 77.1167 91.6762 72.15C91.6762 69.3223 91.2485 66.9223 90.3985 64.95C89.5374 62.9778 87.9762 60.8167 85.7151 58.4667ZM74.4318 43.9778C75.0929 44.2556 75.6985 44.6612 76.2429 45.1945C76.2874 45.2334 76.3207 45.2778 76.3596 45.3223C76.5651 45.5334 76.7485 45.7556 76.9151 45.9889C77.5929 46.9389 77.9318 48.05 77.9318 49.3223C77.9318 50.6056 77.554 51.7556 76.8096 52.7612C76.6596 52.9667 76.4985 53.1667 76.3207 53.3556C76.2985 53.3778 76.2874 53.4 76.2651 53.4167C75.7151 53.9945 75.1096 54.4223 74.4596 54.7167C73.7762 54.4334 73.1707 54.0223 72.6374 53.4723C72.6096 53.4389 72.5818 53.4056 72.554 53.3778C72.1207 52.9112 71.7818 52.3945 71.5318 51.8278C71.1818 51.0389 70.9985 50.1556 70.9985 49.1667C70.9985 48.3889 71.1485 47.6612 71.4485 46.9834C71.7096 46.3834 72.0874 45.8278 72.5818 45.3056C72.6096 45.2778 72.6318 45.2445 72.6651 45.2167C73.1985 44.6667 73.7929 44.2556 74.4318 43.9778ZM68.1151 45.2167C68.3096 45.0167 68.5151 44.8445 68.7207 44.6834C69.6374 43.9612 70.6818 43.5834 71.854 43.5389C71.9318 43.5334 72.0096 43.5278 72.0874 43.5278C72.1707 43.5278 72.2485 43.5334 72.3318 43.5389C72.6929 43.55 73.0429 43.5889 73.3762 43.6556C72.3429 43.8778 71.4207 44.3945 70.6096 45.2167C70.3429 45.4889 70.1096 45.7723 69.904 46.0667C69.6874 46.3778 69.504 46.7056 69.3651 47.0445C69.0874 47.7056 68.9429 48.4112 68.9429 49.1667C68.9429 50.1278 69.1151 50.9889 69.4485 51.7612C69.5929 52.0945 69.7651 52.4112 69.9707 52.7056C70.154 52.9723 70.354 53.2278 70.5874 53.4667C71.3874 54.2889 72.3485 54.8112 73.4762 55.0334C73.1651 55.1 72.8429 55.1389 72.5096 55.15C72.4374 55.15 72.3651 55.1612 72.2929 55.1612C72.1318 55.1612 71.9762 55.15 71.8151 55.1389C70.6207 55.0612 69.5929 54.6889 68.7207 54.0223C68.4985 53.8556 68.2874 53.6723 68.0874 53.4667C66.9929 52.3389 66.4485 50.9056 66.4485 49.1612C66.454 47.6612 67.0096 46.3445 68.1151 45.2167ZM72.4651 80.4945C72.3874 80.4945 72.3096 80.5056 72.2318 80.5056C71.7985 80.5056 71.3818 80.4667 70.9762 80.4112C69.5596 80.2112 68.3096 79.6723 67.2318 78.7834C67.004 78.5945 66.7874 78.4 66.5762 78.1834C65.0762 76.6334 64.3262 74.6945 64.3262 72.3612C64.3262 70.2223 65.0985 68.3945 66.6485 66.8778C66.8096 66.7167 66.9762 66.5723 67.1485 66.4334C68.2874 65.4778 69.5818 64.9 71.0318 64.6945C71.4207 64.6389 71.8207 64.6056 72.2318 64.6056C72.3096 64.6056 72.3874 64.6167 72.4596 64.6167C72.804 64.6278 73.1374 64.6556 73.4651 64.7056C71.8262 64.95 70.3818 65.6667 69.1429 66.8834C68.7096 67.3056 68.3429 67.7556 68.0318 68.2278C67.8207 68.5445 67.6429 68.8723 67.4874 69.2056C67.0429 70.1723 66.8151 71.2223 66.8151 72.3667C66.8151 73.7278 67.0762 74.95 67.5874 76.0445C67.7429 76.3723 67.9096 76.6945 68.1096 77C68.3818 77.4223 68.6985 77.8167 69.0651 78.1889C70.2818 79.4445 71.754 80.1834 73.4707 80.4223C73.154 80.4556 72.8151 80.4834 72.4651 80.4945ZM78.4707 77.5C78.2874 77.7334 78.0985 77.9612 77.8874 78.1778C77.7096 78.3612 77.5207 78.5334 77.3318 78.7C76.4929 79.4167 75.554 79.9167 74.504 80.2056C73.4262 79.9112 72.4651 79.3834 71.6096 78.6389C71.4429 78.4945 71.2818 78.3445 71.1207 78.1834C70.5096 77.5556 70.0318 76.8612 69.6707 76.1C69.1429 74.9889 68.8707 73.7445 68.8707 72.3612C68.8707 71.1667 69.1207 70.0778 69.604 69.0778C69.9874 68.2834 70.5096 67.55 71.1985 66.8778C71.3485 66.7334 71.504 66.6 71.6596 66.4667C72.5151 65.7389 73.4596 65.2167 74.4929 64.9167C75.4874 65.2056 76.404 65.7056 77.2429 66.4C77.4318 66.5556 77.6151 66.7223 77.7985 66.9C78.0596 67.1556 78.2929 67.4278 78.5096 67.7C79.5929 69.0556 80.1429 70.6112 80.1429 72.3667C80.1374 74.3612 79.5818 76.0778 78.4707 77.5Z" fill="url(#paint16_linear_2_2)"/>
<path d="M45.4985 49.5056C42.7151 52.6 38.7596 55.2556 34.1485 56.1167V57.5389C36.5762 57.3278 39.4318 56.4611 41.6874 55.4V79.4556V80.15C43.6429 83.5889 46.1318 86.85 49.1151 89.8667V88.3111V85.5445V51.2889V50.0445V49.5056H47.3374H45.4985Z" fill="url(#paint17_linear_2_2)"/>
<path d="M92.5318 58.3C94.1707 55.6834 94.9985 52.8278 94.9985 49.7945C94.9985 44.65 93.2596 40.3556 89.8374 37.0389C86.4262 33.7334 82.0318 32.0556 76.7762 32.0556C76.4318 32.0556 76.0929 32.0667 75.7596 32.0778C75.4207 32.0611 75.0762 32.0556 74.7318 32.0556C74.3929 32.0556 74.054 32.0611 73.7207 32.0778C73.3818 32.0611 73.0429 32.0556 72.6985 32.0556C67.4929 32.0556 63.1318 33.7389 59.7318 37.0611C56.7873 39.9445 55.0985 43.5278 54.6929 47.7334H44.704L44.1762 48.3222C41.304 51.5167 37.6262 53.6611 33.8262 54.3722L32.3707 54.6445V59.4889L34.304 59.3167C36.0207 59.1667 37.9929 58.7111 39.904 58.05V76.6611C40.4318 77.8445 41.0318 79.0111 41.6873 80.1611V79.4667V55.4111C39.4318 56.4722 36.5762 57.3389 34.1485 57.55V56.1278C38.7596 55.2667 42.7151 52.6111 45.4985 49.5167H47.3318H49.1096V50.0556V51.3V85.55V88.3167V89.8722C49.8429 90.6111 50.5985 91.3389 51.3874 92.0445V91.5222V91.0278V50.0445V49.5056H52.9707V64.5278V70.5722C53.0096 69.9556 53.0762 69.3611 53.1707 68.7833C53.3874 67.3945 53.7485 66.1111 54.254 64.9445C54.3985 64.6056 54.5707 64.2667 54.754 63.9278C55.6762 62.1833 57.0485 60.3611 58.8762 58.4667C56.904 55.8556 55.9151 52.9445 55.9151 49.7445C55.9151 45.1334 57.4485 41.3222 60.5151 38.3222C60.6429 38.1945 60.7762 38.0778 60.9096 37.9556C62.7207 36.3 64.804 35.1389 67.1762 34.4778C68.7429 34.0445 70.4262 33.8222 72.2374 33.8222C72.3151 33.8222 72.3929 33.8278 72.4707 33.8278C72.8151 33.8334 73.154 33.8445 73.4929 33.8611C73.8429 33.8834 74.1874 33.9111 74.5207 33.9445C77.0262 34.2167 79.2707 34.9445 81.2485 36.1389C82.254 36.7445 83.1874 37.4611 84.054 38.3C84.3651 38.6 84.654 38.9111 84.9318 39.2278C87.4262 42.0667 88.6762 45.5834 88.6762 49.7778C88.6762 52.9222 87.6874 55.8167 85.7151 58.4556C87.9818 60.8 89.5429 62.9611 90.3929 64.9333C91.2485 66.9056 91.6707 69.3056 91.6707 72.1333C91.6707 77.1 90.1096 81.3167 86.9985 84.7778C86.7207 85.0889 86.4318 85.3945 86.1318 85.6889C84.9374 86.8611 83.6429 87.8445 82.254 88.6389C79.9596 89.9556 77.3985 90.7445 74.5762 91.0167C74.2374 91.05 73.8985 91.0722 73.554 91.0945C73.2207 91.1111 72.8818 91.1222 72.5429 91.1222C72.4651 91.1222 72.3873 91.1278 72.3096 91.1278C70.1096 91.1278 68.054 90.8389 66.1429 90.2667C63.3929 89.4444 60.9429 88.0278 58.7985 86.0167C58.6818 85.9056 58.5651 85.8 58.4485 85.6889C56.8818 84.15 55.6485 82.4445 54.7485 80.5833C53.9762 78.9945 53.4485 77.2833 53.1651 75.4556C53.0762 74.8722 53.0096 74.2722 52.9651 73.6667V79.8611V92.1111V93.4111C53.5429 93.8944 54.1429 94.3667 54.7429 94.8333V83.3945C55.5596 84.6667 56.5318 85.8667 57.6651 86.9778C61.6873 90.9278 66.7707 92.9278 72.7707 92.9278C73.1096 92.9278 73.4485 92.9167 73.7818 92.9056C74.1207 92.9167 74.454 92.9278 74.7985 92.9278C75.1429 92.9278 75.4818 92.9167 75.8207 92.9056C76.1596 92.9167 76.504 92.9278 76.8485 92.9278C78.3485 92.9278 79.7874 92.8 81.1707 92.55C82.1318 91.7111 83.0485 90.85 83.9262 89.9667C81.7596 90.7445 79.404 91.1444 76.8485 91.1444C76.504 91.1444 76.1596 91.1389 75.8207 91.1222C79.5762 90.9667 82.8818 89.9278 85.7596 88.0222C89.4096 83.9445 92.1929 79.4889 93.9985 74.8C94.104 73.9389 94.1596 73.0556 94.1596 72.1445C94.1596 69.3167 93.7318 66.9167 92.8818 64.9445C92.7596 64.6611 92.6151 64.3667 92.4596 64.0722C92.3374 63.8445 92.2151 63.6111 92.0762 63.3778C91.1707 61.8445 89.8818 60.2056 88.1985 58.4611C88.5707 57.9667 88.8929 57.4611 89.1929 56.9445C89.3207 56.7278 89.4485 56.5111 89.5596 56.2945C90.6207 54.2611 91.1596 52.0889 91.1596 49.7778C91.1596 46.9 90.5707 44.3445 89.404 42.1111C89.2762 41.8722 89.1485 41.6334 89.0096 41.4C88.3429 40.2834 87.5207 39.25 86.5429 38.3C83.6874 35.5334 80.0874 34.05 75.754 33.8445C76.0874 33.8278 76.4262 33.8167 76.7707 33.8167C79.0151 33.8167 81.0707 34.15 82.9429 34.8C85.0707 35.5445 86.954 36.7056 88.5929 38.2945C89.5262 39.2 90.3151 40.1834 90.9651 41.2445C92.4596 43.6834 93.2096 46.5222 93.2096 49.7778C93.2096 52.4056 92.5096 54.8556 91.1374 57.1278C90.8651 57.5778 90.5762 58.0222 90.254 58.4556C91.8707 60.1278 93.1151 61.7 94.0151 63.1833C94.3762 63.7833 94.6873 64.3667 94.9373 64.9333C95.354 65.9 95.6651 66.9722 95.8818 68.1389C96.1374 66.7111 96.3096 65.2722 96.3873 63.8222C95.5596 62.0833 94.2929 60.2611 92.5318 58.3ZM57.0651 58.3056C56.1762 59.3 55.4096 60.2889 54.754 61.2556V51.9889C55.0596 54.2334 55.8318 56.3445 57.0651 58.3056Z" fill="url(#paint18_linear_2_2)"/>
<path d="M76.3596 45.3167C76.3207 45.2722 76.2818 45.2334 76.2429 45.1889C75.6985 44.6556 75.0929 44.25 74.4318 43.9722C73.7929 44.2556 73.1985 44.6667 72.6596 45.2111C72.6318 45.2389 72.604 45.2722 72.5762 45.3C72.0818 45.8167 71.704 46.3778 71.4429 46.9778C71.1429 47.6556 70.9929 48.3834 70.9929 49.1611C70.9929 50.15 71.1762 51.0334 71.5262 51.8222C71.7762 52.3889 72.1151 52.9056 72.5485 53.3722C72.5762 53.4056 72.604 53.4389 72.6318 53.4667C73.1651 54.0167 73.7762 54.4334 74.454 54.7111C75.1096 54.4222 75.7096 53.9889 76.2596 53.4111C76.2818 53.3889 76.2985 53.3667 76.3151 53.35C76.4929 53.1556 76.654 52.9556 76.804 52.7556C77.5485 51.7445 77.9262 50.6 77.9262 49.3167C77.9262 48.0445 77.5818 46.9389 76.9096 45.9834C76.7485 45.7556 76.5651 45.5334 76.3596 45.3167ZM75.4485 52.1889C75.1985 52.45 74.9429 52.6611 74.6707 52.8334C74.3985 52.6722 74.1485 52.4722 73.9151 52.2278C73.1485 51.4389 72.7762 50.4334 72.7762 49.1611C72.7762 48.1222 73.1429 47.2611 73.9318 46.4611C74.1707 46.2167 74.4207 46.0167 74.6818 45.85C74.954 46.0167 75.2151 46.2111 75.4596 46.4556C76.254 47.2334 76.6207 48.1445 76.6207 49.3111C76.6207 50.4222 76.2374 51.3611 75.4485 52.1889Z" fill="url(#paint19_linear_2_2)"/>
<path d="M74.4874 64.9112C73.454 65.2112 72.5096 65.7334 71.654 66.4612C71.4985 66.5945 71.3429 66.7278 71.1929 66.8723C70.5096 67.5445 69.9818 68.2778 69.5985 69.0723C69.1151 70.0723 68.8651 71.1667 68.8651 72.3556C68.8651 73.7445 69.1374 74.9889 69.6651 76.0945C70.0262 76.85 70.504 77.55 71.1151 78.1778C71.2707 78.3389 71.4374 78.4889 71.604 78.6334C72.4596 79.3834 73.4207 79.9056 74.4985 80.2C75.5485 79.9112 76.4873 79.4112 77.3262 78.6945C77.5151 78.5334 77.704 78.3612 77.8818 78.1723C78.0929 77.9556 78.2818 77.7278 78.4651 77.4945C79.5762 76.0667 80.1318 74.3556 80.1318 72.35C80.1318 70.5945 79.5818 69.0445 78.4985 67.6834C78.2818 67.4112 78.0485 67.1445 77.7873 66.8834C77.604 66.7056 77.4207 66.5389 77.2318 66.3834C76.3929 65.7001 75.4762 65.2001 74.4874 64.9112ZM78.8262 72.3556C78.8262 74.2223 78.254 75.7223 77.0762 76.9389C76.3929 77.6389 75.6207 78.1278 74.7373 78.4112C73.854 78.1223 73.0818 77.6389 72.3985 76.9389C71.2207 75.7223 70.6485 74.2278 70.6485 72.3556C70.6485 70.7001 71.2318 69.3223 72.4374 68.1445C73.1262 67.4723 73.8818 67.0001 74.7151 66.7112C75.5485 67.0001 76.3096 67.4778 77.0096 68.1667C78.2318 69.3612 78.8262 70.7334 78.8262 72.3556Z" fill="url(#paint20_linear_2_2)"/>
<path d="M66.5818 78.1778C66.7929 78.3945 67.0151 78.5945 67.2373 78.7778C68.3151 79.6667 69.5596 80.2056 70.9818 80.4056C71.3873 80.4611 71.804 80.5 72.2373 80.5C72.3151 80.5 72.3929 80.4945 72.4707 80.4889C72.8207 80.4778 73.154 80.45 73.4873 80.4056C71.7707 80.1667 70.2985 79.4278 69.0818 78.1722C68.7207 77.8 68.404 77.4 68.1262 76.9834C67.9262 76.6778 67.754 76.3611 67.604 76.0278C67.0929 74.9334 66.8318 73.7111 66.8318 72.35C66.8318 71.2056 67.0596 70.1556 67.504 69.1889C67.6596 68.85 67.8373 68.5222 68.0485 68.2111C68.3596 67.7389 68.7262 67.2889 69.1596 66.8667C70.3985 65.65 71.8429 64.9334 73.4818 64.6889C73.154 64.6389 72.8207 64.6111 72.4762 64.6C72.3985 64.6 72.3262 64.5889 72.2485 64.5889C71.8373 64.5889 71.4373 64.6278 71.0485 64.6778C69.5985 64.8834 68.304 65.4611 67.1651 66.4167C66.9985 66.5611 66.8262 66.7056 66.6651 66.8611C65.1151 68.3778 64.3429 70.2056 64.3429 72.3445C64.3262 74.6889 65.0762 76.6278 66.5818 78.1778Z" fill="url(#paint21_linear_2_2)"/>
<path d="M72.0929 43.5278C72.0151 43.5278 71.9373 43.5334 71.8596 43.539C70.6873 43.5834 69.6429 43.9667 68.7262 44.6834C68.5207 44.8445 68.3151 45.0223 68.1207 45.2167C67.0096 46.3445 66.454 47.6612 66.454 49.1612C66.454 50.9056 66.9985 52.339 68.0929 53.4667C68.2929 53.6723 68.504 53.8556 68.7262 54.0223C69.5985 54.689 70.6262 55.0612 71.8207 55.1389C71.9762 55.1501 72.1318 55.1612 72.2985 55.1612C72.3707 55.1612 72.4429 55.1556 72.5151 55.1501C72.8485 55.139 73.1707 55.1001 73.4818 55.0334C72.354 54.8112 71.3929 54.2945 70.5929 53.4667C70.3596 53.2278 70.1596 52.9723 69.9762 52.7056C69.7707 52.4056 69.5985 52.089 69.454 51.7612C69.1207 50.989 68.9485 50.1278 68.9485 49.1667C68.9485 48.4112 69.0873 47.7056 69.3707 47.0445C69.5151 46.7056 69.6929 46.3834 69.9096 46.0667C70.1151 45.7723 70.3485 45.489 70.6151 45.2167C71.4207 44.3945 72.3485 43.8778 73.3818 43.6556C73.0485 43.589 72.6985 43.5501 72.3373 43.539C72.254 43.5334 72.1707 43.5278 72.0929 43.5278Z" fill="url(#paint22_linear_2_2)"/>
<path d="M110.982 29.3556C110.982 29.3556 83.7429 27.6667 67.3484 16.5778L66.4984 16L65.6484 16.5722C49.2485 27.6611 22.0151 29.35 22.0151 29.35C22.0151 29.35 21.7151 38.4167 23.7873 62.7833C25.854 87.15 40.8873 102.633 65.7984 115.633L66.4984 116L67.1984 115.633C92.1096 102.628 107.143 87.15 109.21 62.7833C111.282 38.4167 110.982 29.3556 110.982 29.3556ZM104.087 64.9111C102.671 86.7278 89.9651 101.7 66.4984 114.211C43.0262 101.706 30.3262 86.7278 28.9096 64.9111C27.4929 43.0944 27.6485 32.0444 27.6485 32.0444C32.6929 31.3944 51.8318 26.0056 66.4984 16.4389C81.1596 26.0056 100.304 31.3944 105.348 32.0444C105.348 32.0444 105.504 43.0944 104.087 64.9111Z" fill="url(#paint23_linear_2_2)"/>
<defs>
<linearGradient id="paint0_linear_2_2" x1="66.497" y1="23.7408" x2="66.497" y2="114.386" gradientUnits="userSpaceOnUse">
<stop/>
<stop offset="0.0979" stop-color="#090102"/>
<stop offset="0.2577" stop-color="#210307"/>
<stop offset="0.4595" stop-color="#49070F"/>
<stop offset="0.6954" stop-color="#800C1A"/>
<stop offset="0.9572" stop-color="#C61329"/>
<stop offset="1" stop-color="#D2142B"/>
</linearGradient>
<linearGradient id="paint1_linear_2_2" x1="66.5731" y1="48.1714" x2="66.5731" y2="106.017" gradientUnits="userSpaceOnUse">
<stop stop-color="#2F050A"/>
<stop offset="0.1785" stop-color="#4E0810"/>
<stop offset="0.7448" stop-color="#AC1123"/>
<stop offset="1" stop-color="#D2142B"/>
</linearGradient>
<linearGradient id="paint2_linear_2_2" x1="37.0872" y1="104.141" x2="37.0872" y2="63.0575" gradientUnits="userSpaceOnUse">
<stop stop-color="#9D5D23"/>
<stop offset="0.0745" stop-color="#B57D3C"/>
<stop offset="0.1726" stop-color="#D0A058"/>
<stop offset="0.2723" stop-color="#E4BB6D"/>
<stop offset="0.3728" stop-color="#F3CE7D"/>
<stop offset="0.4747" stop-color="#FCDA86"/>
<stop offset="0.5799" stop-color="#FFDE89"/>
<stop offset="0.6492" stop-color="#FFDF8E"/>
<stop offset="0.7293" stop-color="#FFE39C"/>
<stop offset="0.8148" stop-color="#FFEAB3"/>
<stop offset="0.904" stop-color="#FFF3D3"/>
<stop offset="0.9954" stop-color="#FFFEFD"/>
<stop offset="1" stop-color="white"/>
</linearGradient>
<linearGradient id="paint3_linear_2_2" x1="66.5731" y1="104.141" x2="66.5731" y2="63.0575" gradientUnits="userSpaceOnUse">
<stop stop-color="#9D5D23"/>
<stop offset="0.0745" stop-color="#B57D3C"/>
<stop offset="0.1726" stop-color="#D0A058"/>
<stop offset="0.2723" stop-color="#E4BB6D"/>
<stop offset="0.3728" stop-color="#F3CE7D"/>
<stop offset="0.4747" stop-color="#FCDA86"/>
<stop offset="0.5799" stop-color="#FFDE89"/>
<stop offset="0.6492" stop-color="#FFDF8E"/>
<stop offset="0.7293" stop-color="#FFE39C"/>
<stop offset="0.8148" stop-color="#FFEAB3"/>
<stop offset="0.904" stop-color="#FFF3D3"/>
<stop offset="0.9954" stop-color="#FFFEFD"/>
<stop offset="1" stop-color="white"/>
</linearGradient>
<linearGradient id="paint4_linear_2_2" x1="56.7444" y1="104.141" x2="56.7444" y2="63.0574" gradientUnits="userSpaceOnUse">
<stop stop-color="#9D5D23"/>
<stop offset="0.0745" stop-color="#B57D3C"/>
<stop offset="0.1726" stop-color="#D0A058"/>
<stop offset="0.2723" stop-color="#E4BB6D"/>
<stop offset="0.3728" stop-color="#F3CE7D"/>
<stop offset="0.4747" stop-color="#FCDA86"/>
<stop offset="0.5799" stop-color="#FFDE89"/>
<stop offset="0.6492" stop-color="#FFDF8E"/>
<stop offset="0.7293" stop-color="#FFE39C"/>
<stop offset="0.8148" stop-color="#FFEAB3"/>
<stop offset="0.904" stop-color="#FFF3D3"/>
<stop offset="0.9954" stop-color="#FFFEFD"/>
<stop offset="1" stop-color="white"/>
</linearGradient>
<linearGradient id="paint5_linear_2_2" x1="46.9158" y1="104.141" x2="46.9158" y2="63.0575" gradientUnits="userSpaceOnUse">
<stop stop-color="#9D5D23"/>
<stop offset="0.0745" stop-color="#B57D3C"/>
<stop offset="0.1726" stop-color="#D0A058"/>
<stop offset="0.2723" stop-color="#E4BB6D"/>
<stop offset="0.3728" stop-color="#F3CE7D"/>
<stop offset="0.4747" stop-color="#FCDA86"/>
<stop offset="0.5799" stop-color="#FFDE89"/>
<stop offset="0.6492" stop-color="#FFDF8E"/>
<stop offset="0.7293" stop-color="#FFE39C"/>
<stop offset="0.8148" stop-color="#FFEAB3"/>
<stop offset="0.904" stop-color="#FFF3D3"/>
<stop offset="0.9954" stop-color="#FFFEFD"/>
<stop offset="1" stop-color="white"/>
</linearGradient>
<linearGradient id="paint6_linear_2_2" x1="86.2303" y1="104.141" x2="86.2303" y2="63.0575" gradientUnits="userSpaceOnUse">
<stop stop-color="#9D5D23"/>
<stop offset="0.0745" stop-color="#B57D3C"/>
<stop offset="0.1726" stop-color="#D0A058"/>
<stop offset="0.2723" stop-color="#E4BB6D"/>
<stop offset="0.3728" stop-color="#F3CE7D"/>
<stop offset="0.4747" stop-color="#FCDA86"/>
<stop offset="0.5799" stop-color="#FFDE89"/>
<stop offset="0.6492" stop-color="#FFDF8E"/>
<stop offset="0.7293" stop-color="#FFE39C"/>
<stop offset="0.8148" stop-color="#FFEAB3"/>
<stop offset="0.904" stop-color="#FFF3D3"/>
<stop offset="0.9954" stop-color="#FFFEFD"/>
<stop offset="1" stop-color="white"/>
</linearGradient>
<linearGradient id="paint7_linear_2_2" x1="76.4017" y1="104.141" x2="76.4017" y2="63.0575" gradientUnits="userSpaceOnUse">
<stop stop-color="#9D5D23"/>
<stop offset="0.0745" stop-color="#B57D3C"/>
<stop offset="0.1726" stop-color="#D0A058"/>
<stop offset="0.2723" stop-color="#E4BB6D"/>
<stop offset="0.3728" stop-color="#F3CE7D"/>
<stop offset="0.4747" stop-color="#FCDA86"/>
<stop offset="0.5799" stop-color="#FFDE89"/>
<stop offset="0.6492" stop-color="#FFDF8E"/>
<stop offset="0.7293" stop-color="#FFE39C"/>
<stop offset="0.8148" stop-color="#FFEAB3"/>
<stop offset="0.904" stop-color="#FFF3D3"/>
<stop offset="0.9954" stop-color="#FFFEFD"/>
<stop offset="1" stop-color="white"/>
</linearGradient>
<linearGradient id="paint8_linear_2_2" x1="96.0589" y1="104.141" x2="96.0589" y2="63.0575" gradientUnits="userSpaceOnUse">
<stop stop-color="#9D5D23"/>
<stop offset="0.0745" stop-color="#B57D3C"/>
<stop offset="0.1726" stop-color="#D0A058"/>
<stop offset="0.2723" stop-color="#E4BB6D"/>
<stop offset="0.3728" stop-color="#F3CE7D"/>
<stop offset="0.4747" stop-color="#FCDA86"/>
<stop offset="0.5799" stop-color="#FFDE89"/>
<stop offset="0.6492" stop-color="#FFDF8E"/>
<stop offset="0.7293" stop-color="#FFE39C"/>
<stop offset="0.8148" stop-color="#FFEAB3"/>
<stop offset="0.904" stop-color="#FFF3D3"/>
<stop offset="0.9954" stop-color="#FFFEFD"/>
<stop offset="1" stop-color="white"/>
</linearGradient>
<linearGradient id="paint9_linear_2_2" x1="66.5803" y1="28.5968" x2="66.5803" y2="18.8363" gradientUnits="userSpaceOnUse">
<stop stop-color="#FFDE89"/>
<stop offset="0.1649" stop-color="#FFDF8E"/>
<stop offset="0.3556" stop-color="#FFE39C"/>
<stop offset="0.5591" stop-color="#FFEAB3"/>
<stop offset="0.7716" stop-color="#FFF3D3"/>
<stop offset="0.9891" stop-color="#FFFEFD"/>
<stop offset="1" stop-color="white"/>
</linearGradient>
<linearGradient id="paint10_linear_2_2" x1="52.9834" y1="31.7379" x2="52.9834" y2="25.895" gradientUnits="userSpaceOnUse">
<stop stop-color="#FFDE89"/>
<stop offset="0.1649" stop-color="#FFDF8E"/>
<stop offset="0.3556" stop-color="#FFE39C"/>
<stop offset="0.5591" stop-color="#FFEAB3"/>
<stop offset="0.7716" stop-color="#FFF3D3"/>
<stop offset="0.9891" stop-color="#FFFEFD"/>
<stop offset="1" stop-color="white"/>
</linearGradient>
<linearGradient id="paint11_linear_2_2" x1="80.3005" y1="31.7379" x2="80.3005" y2="25.895" gradientUnits="userSpaceOnUse">
<stop stop-color="#FFDE89"/>
<stop offset="0.1649" stop-color="#FFDF8E"/>
<stop offset="0.3556" stop-color="#FFE39C"/>
<stop offset="0.5591" stop-color="#FFEAB3"/>
<stop offset="0.7716" stop-color="#FFF3D3"/>
<stop offset="0.9891" stop-color="#FFFEFD"/>
<stop offset="1" stop-color="white"/>
</linearGradient>
<linearGradient id="paint12_linear_2_2" x1="32.0491" y1="67.6878" x2="101.097" y2="67.6878" gradientUnits="userSpaceOnUse">
<stop stop-color="#D2142B"/>
<stop offset="0.1307" stop-color="#B30C1A"/>
<stop offset="0.2746" stop-color="#98060C"/>
<stop offset="0.4024" stop-color="#880103"/>
<stop offset="0.5" stop-color="#2F050A"/>
<stop offset="1"/>
</linearGradient>
<linearGradient id="paint13_linear_2_2" x1="34.3636" y1="67.7774" x2="98.7824" y2="67.7774" gradientUnits="userSpaceOnUse">
<stop stop-color="#FFEFBD"/>
<stop offset="0.2055" stop-color="#FFDE89"/>
<stop offset="0.224" stop-color="#F8D582"/>
<stop offset="0.4138" stop-color="#B77F3E"/>
<stop offset="0.5" stop-color="#D4AA58"/>
<stop offset="1" stop-color="#9D5D23"/>
</linearGradient>
<linearGradient id="paint14_linear_2_2" x1="80.7983" y1="97.4731" x2="80.7983" y2="37.2324" gradientUnits="userSpaceOnUse">
<stop stop-color="#9D5D23"/>
<stop offset="0.0745" stop-color="#B57D3C"/>
<stop offset="0.1726" stop-color="#D0A058"/>
<stop offset="0.2723" stop-color="#E4BB6D"/>
<stop offset="0.3728" stop-color="#F3CE7D"/>
<stop offset="0.4747" stop-color="#FCDA86"/>
<stop offset="0.5799" stop-color="#FFDE89"/>
<stop offset="0.6492" stop-color="#FFDF8E"/>
<stop offset="0.7293" stop-color="#FFE39C"/>
<stop offset="0.8148" stop-color="#FFEAB3"/>
<stop offset="0.904" stop-color="#FFF3D3"/>
<stop offset="0.9954" stop-color="#FFFEFD"/>
<stop offset="1" stop-color="white"/>
</linearGradient>
<linearGradient id="paint15_linear_2_2" x1="85.819" y1="97.473" x2="85.819" y2="37.2334" gradientUnits="userSpaceOnUse">
<stop stop-color="#9D5D23"/>
<stop offset="0.0745" stop-color="#B57D3C"/>
<stop offset="0.1726" stop-color="#D0A058"/>
<stop offset="0.2723" stop-color="#E4BB6D"/>
<stop offset="0.3728" stop-color="#F3CE7D"/>
<stop offset="0.4747" stop-color="#FCDA86"/>
<stop offset="0.5799" stop-color="#FFDE89"/>
<stop offset="0.6492" stop-color="#FFDF8E"/>
<stop offset="0.7293" stop-color="#FFE39C"/>
<stop offset="0.8148" stop-color="#FFEAB3"/>
<stop offset="0.904" stop-color="#FFF3D3"/>
<stop offset="0.9954" stop-color="#FFFEFD"/>
<stop offset="1" stop-color="white"/>
</linearGradient>
<linearGradient id="paint16_linear_2_2" x1="71.5305" y1="97.473" x2="71.5305" y2="37.2334" gradientUnits="userSpaceOnUse">
<stop stop-color="#9D5D23"/>
<stop offset="0.0745" stop-color="#B57D3C"/>
<stop offset="0.1726" stop-color="#D0A058"/>
<stop offset="0.2723" stop-color="#E4BB6D"/>
<stop offset="0.3728" stop-color="#F3CE7D"/>
<stop offset="0.4747" stop-color="#FCDA86"/>
<stop offset="0.5799" stop-color="#FFDE89"/>
<stop offset="0.6492" stop-color="#FFDF8E"/>
<stop offset="0.7293" stop-color="#FFE39C"/>
<stop offset="0.8148" stop-color="#FFEAB3"/>
<stop offset="0.904" stop-color="#FFF3D3"/>
<stop offset="0.9954" stop-color="#FFFEFD"/>
<stop offset="1" stop-color="white"/>
</linearGradient>
<linearGradient id="paint17_linear_2_2" x1="41.6289" y1="97.4729" x2="41.6289" y2="37.2334" gradientUnits="userSpaceOnUse">
<stop stop-color="#9D5D23"/>
<stop offset="0.0745" stop-color="#B57D3C"/>
<stop offset="0.1726" stop-color="#D0A058"/>
<stop offset="0.2723" stop-color="#E4BB6D"/>
<stop offset="0.3728" stop-color="#F3CE7D"/>
<stop offset="0.4747" stop-color="#FCDA86"/>
<stop offset="0.5799" stop-color="#FFDE89"/>
<stop offset="0.6492" stop-color="#FFDF8E"/>
<stop offset="0.7293" stop-color="#FFE39C"/>
<stop offset="0.8148" stop-color="#FFEAB3"/>
<stop offset="0.904" stop-color="#FFF3D3"/>
<stop offset="0.9954" stop-color="#FFFEFD"/>
<stop offset="1" stop-color="white"/>
</linearGradient>
<linearGradient id="paint18_linear_2_2" x1="33.6621" y1="63.4413" x2="99.0894" y2="63.4413" gradientUnits="userSpaceOnUse">
<stop stop-color="#D2142B"/>
<stop offset="0.1307" stop-color="#B30C1A"/>
<stop offset="0.2746" stop-color="#98060C"/>
<stop offset="0.4024" stop-color="#880103"/>
<stop offset="0.5" stop-color="#2F050A"/>
<stop offset="1"/>
</linearGradient>
<linearGradient id="paint19_linear_2_2" x1="33.6621" y1="49.346" x2="99.0891" y2="49.346" gradientUnits="userSpaceOnUse">
<stop stop-color="#D2142B"/>
<stop offset="0.1307" stop-color="#B30C1A"/>
<stop offset="0.2746" stop-color="#98060C"/>
<stop offset="0.4024" stop-color="#880103"/>
<stop offset="0.5" stop-color="#2F050A"/>
<stop offset="1"/>
</linearGradient>
<linearGradient id="paint20_linear_2_2" x1="33.662" y1="72.557" x2="99.0891" y2="72.557" gradientUnits="userSpaceOnUse">
<stop stop-color="#D2142B"/>
<stop offset="0.1307" stop-color="#B30C1A"/>
<stop offset="0.2746" stop-color="#98060C"/>
<stop offset="0.4024" stop-color="#880103"/>
<stop offset="0.5" stop-color="#2F050A"/>
<stop offset="1"/>
</linearGradient>
<linearGradient id="paint21_linear_2_2" x1="33.6621" y1="72.5487" x2="99.0892" y2="72.5487" gradientUnits="userSpaceOnUse">
<stop stop-color="#D2142B"/>
<stop offset="0.1307" stop-color="#B30C1A"/>
<stop offset="0.2746" stop-color="#98060C"/>
<stop offset="0.4024" stop-color="#880103"/>
<stop offset="0.5" stop-color="#2F050A"/>
<stop offset="1"/>
</linearGradient>
<linearGradient id="paint22_linear_2_2" x1="33.6618" y1="49.3432" x2="99.0893" y2="49.3432" gradientUnits="userSpaceOnUse">
<stop stop-color="#D2142B"/>
<stop offset="0.1307" stop-color="#B30C1A"/>
<stop offset="0.2746" stop-color="#98060C"/>
<stop offset="0.4024" stop-color="#880103"/>
<stop offset="0.5" stop-color="#2F050A"/>
<stop offset="1"/>
</linearGradient>
<linearGradient id="paint23_linear_2_2" x1="66.497" y1="23.7408" x2="66.497" y2="114.386" gradientUnits="userSpaceOnUse">
<stop stop-color="white"/>
<stop offset="0.00455849" stop-color="#FFFEFD"/>
<stop offset="0.096" stop-color="#FFF3D3"/>
<stop offset="0.1852" stop-color="#FFEAB3"/>
<stop offset="0.2707" stop-color="#FFE39C"/>
<stop offset="0.3508" stop-color="#FFDF8E"/>
<stop offset="0.4201" stop-color="#FFDE89"/>
<stop offset="0.5253" stop-color="#FCDA86"/>
<stop offset="0.6272" stop-color="#F3CE7D"/>
<stop offset="0.7277" stop-color="#E4BB6D"/>
<stop offset="0.8274" stop-color="#D0A058"/>
<stop offset="0.9255" stop-color="#B57D3C"/>
<stop offset="1" stop-color="#9D5D23"/>
</linearGradient>
</defs>
</svg>
