<?xml version="1.0" standalone="no"?>
<!DOCTYPE svg PUBLIC "-//W3C//DTD SVG 20010904//EN"
 "http://www.w3.org/TR/2001/REC-SVG-20010904/DTD/svg10.dtd">
<svg version="1.0" xmlns="http://www.w3.org/2000/svg"
 width="700.000000pt" height="700.000000pt" viewBox="0 0 700.000000 700.000000"
 preserveAspectRatio="xMidYMid meet">
<metadata>
Created by potrace 1.14, written by Peter Selinger 2001-2017
</metadata>
<g transform="translate(0.000000,700.000000) scale(0.100000,-0.100000)"
fill="#000000" stroke="none">
<path d="M3425 6958 c-422 -286 -1059 -538 -1755 -693 -76 -17 -211 -45 -235
-50 -16 -2 -41 -7 -55 -10 -14 -3 -38 -8 -55 -10 -16 -3 -66 -12 -110 -20 -44
-8 -98 -17 -120 -20 -22 -3 -51 -8 -65 -10 -47 -8 -108 -17 -280 -40 -14 -2
-58 -7 -99 -10 -41 -4 -82 -8 -90 -10 -9 -1 -53 -6 -99 -10 -80 -7 -82 -8 -83
-34 -3 -123 11 -609 26 -861 2 -36 6 -112 10 -170 8 -155 15 -268 20 -330 2
-30 7 -95 11 -145 3 -49 7 -110 9 -135 3 -25 7 -85 10 -135 5 -85 8 -121 20
-240 2 -27 7 -86 10 -130 3 -44 7 -98 9 -120 2 -22 7 -73 11 -113 4 -41 8 -81
10 -90 1 -9 6 -39 9 -67 14 -98 17 -121 32 -200 28 -149 108 -459 133 -520 5
-11 28 -72 51 -135 47 -128 195 -437 260 -545 113 -186 280 -417 404 -560 106
-121 128 -145 261 -275 205 -201 379 -349 625 -528 69 -51 130 -95 135 -99 52
-39 105 -73 113 -73 6 0 12 -4 14 -8 3 -8 271 -181 333 -216 17 -9 39 -22 50
-29 59 -37 131 -78 335 -189 80 -43 160 -87 179 -97 l33 -18 77 42 c42 23 115
62 162 88 71 38 155 86 404 231 171 100 601 397 731 505 17 14 48 40 69 56
313 249 669 621 864 905 182 264 313 504 414 761 38 95 94 255 103 294 2 6 12
42 23 80 20 65 63 251 75 320 3 17 8 39 10 50 4 22 16 96 21 135 2 14 6 43 9
65 7 49 14 120 21 205 6 80 14 171 20 230 3 25 7 83 10 130 3 47 8 105 10 130
3 25 7 83 10 130 3 47 8 112 10 145 9 112 14 200 20 300 4 55 8 127 10 160 2
33 6 125 10 205 4 80 9 168 10 195 2 28 7 195 10 373 l7 322 -36 1 c-20 1 -44
2 -53 3 -10 1 -54 6 -98 10 -44 4 -93 9 -110 11 -71 10 -202 27 -220 30 -11 1
-42 6 -70 9 -27 4 -72 11 -100 16 -27 5 -68 12 -90 15 -22 3 -47 7 -55 10 -8
2 -33 6 -55 10 -46 6 -167 29 -270 51 -38 8 -79 16 -90 18 -11 2 -40 9 -65 16
-25 7 -56 14 -70 17 -56 10 -444 115 -485 131 -11 5 -92 32 -180 62 -88 29
-164 57 -170 61 -5 5 -14 9 -21 9 -7 0 -77 27 -156 61 -258 110 -474 224 -660
350 -31 22 -58 39 -60 38 -2 0 -30 -18 -63 -41z"/>
</g>
</svg>
