<svg width="32" height="32" viewBox="0 0 32 32" fill="none" xmlns="http://www.w3.org/2000/svg">
<path d="M24.5 26H18.5C17.675 26 17 25.325 17 24.5V18.5C17 17.675 17.675 17 18.5 17H24.5C25.325 17 26 17.675 26 18.5V24.5C26 25.34 25.325 26 24.5 26Z" fill="white" fill-opacity="0.3"/>
<path d="M24.5 15H18.5C17.675 15 17 14.325 17 13.5V7.5C17 6.675 17.675 6 18.5 6H24.5C25.325 6 26 6.675 26 7.5V13.5C26 14.325 25.325 15 24.5 15Z" fill="white"/>
<path d="M13.5 26H7.5C6.675 26 6 25.325 6 24.5V18.5C6 17.675 6.675 17 7.5 17H13.5C14.325 17 15 17.675 15 18.5V24.5C15 25.34 14.325 26 13.5 26Z" fill="white"/>
<path d="M7.5 15H13.5C14.325 15 15 14.325 15 13.5V7.5C15 6.675 14.325 6 13.5 6H7.5C6.675 6 6 6.675 6 7.5V13.5C6 14.325 6.675 15 7.5 15Z" fill="white"/>
</svg>
