<svg width="32" height="32" viewBox="0 0 32 32" fill="none" xmlns="http://www.w3.org/2000/svg">
<path d="M11.79 10.6799C10.915 10.6799 10.29 10.0549 10.29 9.17993C10.29 8.36743 10.915 7.67993 11.79 7.67993C12.6025 7.67993 13.29 8.36743 13.29 9.17993C13.29 10.0549 12.6025 10.6799 11.79 10.6799Z" fill="#DADDE3"/>
<path d="M11.7852 16.2849C10.9102 16.2849 10.2852 15.6599 10.2852 14.7849C10.2852 13.9724 10.9102 13.2849 11.7852 13.2849C12.5977 13.2849 13.2852 13.9724 13.2852 14.7849C13.2852 15.6599 12.5977 16.2849 11.7852 16.2849Z" fill="#DADDE3"/>
<path d="M15.8896 14.78C15.8896 15.655 16.5146 16.28 17.3896 16.28C18.2021 16.28 18.8896 15.655 18.8896 14.78C18.8896 13.9675 18.2021 13.28 17.3896 13.28C16.5146 13.28 15.8896 13.9675 15.8896 14.78Z" fill="#DADDE3"/>
<path d="M6.17969 16.28C5.30469 16.28 4.67969 15.655 4.67969 14.78C4.67969 13.9675 5.30469 13.28 6.17969 13.28C6.99219 13.28 7.67969 13.9675 7.67969 14.78C7.67969 15.655 6.99219 16.28 6.17969 16.28Z" fill="#DADDE3"/>
<path d="M10.29 20.3899C10.29 21.2649 10.915 21.8899 11.79 21.8899C12.6025 21.8899 13.29 21.2649 13.29 20.3899C13.29 19.5774 12.6025 18.8899 11.79 18.8899C10.915 18.8899 10.29 19.5774 10.29 20.3899Z" fill="#DADDE3"/>
<path fill-rule="evenodd" clip-rule="evenodd" d="M22.697 13.364H27.9012C29.0383 13.364 30.0004 14.3261 30.0004 15.4632V25.2594C30.0004 26.4402 29.0383 27.3585 27.9012 27.3585H18.105C16.9243 27.3585 16.0059 26.4402 16.0059 25.2594V23.2477L21.9535 17.3C23.0031 16.2504 23.2218 14.676 22.697 13.364ZM21 20.36C21 21.5267 21.8333 22.36 23 22.36C24.0833 22.36 25 21.5267 25 20.36C25 19.2767 24.0833 18.36 23 18.36C21.8333 18.36 21 19.2767 21 20.36Z" fill="#DADDE3"/>
<path fill-rule="evenodd" clip-rule="evenodd" d="M20.9473 13.2765L13.294 5.62319C12.4631 4.79227 11.1074 4.79227 10.2765 5.62319L2.62319 13.2765C1.79227 14.1074 1.79227 15.4631 2.62319 16.294L10.2765 23.9473C11.1074 24.7782 12.4631 24.7782 13.294 23.9473L20.9473 16.294C21.7782 15.4631 21.7782 14.1074 20.9473 13.2765ZM10.29 9.17993C10.29 10.0549 10.915 10.6799 11.79 10.6799C12.6025 10.6799 13.29 10.0549 13.29 9.17993C13.29 8.36743 12.6025 7.67993 11.79 7.67993C10.915 7.67993 10.29 8.36743 10.29 9.17993ZM10.2852 14.7849C10.2852 15.6599 10.9102 16.2849 11.7852 16.2849C12.5977 16.2849 13.2852 15.6599 13.2852 14.7849C13.2852 13.9724 12.5977 13.2849 11.7852 13.2849C10.9102 13.2849 10.2852 13.9724 10.2852 14.7849ZM17.3896 16.28C16.5146 16.28 15.8896 15.655 15.8896 14.78C15.8896 13.9675 16.5146 13.28 17.3896 13.28C18.2021 13.28 18.8896 13.9675 18.8896 14.78C18.8896 15.655 18.2021 16.28 17.3896 16.28ZM4.67969 14.78C4.67969 15.655 5.30469 16.28 6.17969 16.28C6.99219 16.28 7.67969 15.655 7.67969 14.78C7.67969 13.9675 6.99219 13.28 6.17969 13.28C5.30469 13.28 4.67969 13.9675 4.67969 14.78ZM11.79 21.8899C10.915 21.8899 10.29 21.2649 10.29 20.3899C10.29 19.5774 10.915 18.8899 11.79 18.8899C12.6025 18.8899 13.29 19.5774 13.29 20.3899C13.29 21.2649 12.6025 21.8899 11.79 21.8899Z" fill="#071F44" fill-opacity="0.6"/>
<path d="M23 22.3601C21.8333 22.3601 21 21.5268 21 20.3601C21 19.2768 21.8333 18.3601 23 18.3601C24.0833 18.3601 25 19.2768 25 20.3601C25 21.5268 24.0833 22.3601 23 22.3601Z" fill="#071F44" fill-opacity="0.6"/>
</svg>
