<svg width="32" height="32" viewBox="0 0 32 32" fill="none" xmlns="http://www.w3.org/2000/svg">
<path fill-rule="evenodd" clip-rule="evenodd" d="M17.5409 8.91725C17.3553 9.59671 17.8003 10.7384 18.6259 10.9639C19.4515 11.1894 20.3452 10.4133 20.5308 9.73382C20.5985 9.4859 19.9493 9.18944 19.1237 8.96394C18.9028 8.90361 18.7 8.82357 18.518 8.7517C18.0198 8.55501 17.6768 8.4196 17.5409 8.91725ZM27.5718 12.2892L25.505 14.9703L25.1176 13.8934L23.1807 14.9703L22.5 13.8934L21 15.0001L20 14.0001L17.5 16.0001L19 18.0001L20 17.0001L21 18.0001L22.5 17.0001L23.1807 18.0001L24.5 17.0001L25.1176 18.0693C23.6861 20.2163 16.3031 20.0491 14.271 19.7057C14.0361 20.9363 13.4909 22.4574 12.2358 22.2649C12.8066 21.1519 12.0427 20.0653 11.4572 19.455C10.4844 19.5902 9.49192 19.9772 8.84865 20.7809C7.58548 22.3592 10.8955 24.4607 15.0157 24.4607C15.0157 24.4607 14.2258 25.1072 11.0577 24.6546C5.63505 23.8799 4.85956 18.8441 9.12089 15.7449C13.3822 12.6458 21.7887 11.5647 27.5718 12.2892Z" fill="white" fill-opacity="0.3"/>
<path fill-rule="evenodd" clip-rule="evenodd" d="M15.5171 7L9.07188 5C9.07188 5 10.3809 8.23691 9.62301 9.5C8.84885 9.98198 7.38129 11.1892 6.11186 12.7877C4.68944 12.8928 3.12473 13.447 1.875 15.0092C2.9756 15.0092 3.85416 15.1017 4.55517 15.2463C4.01344 16.3965 3.69891 17.6339 3.81226 18.8832C4.1668 22.7907 6.94971 24.0223 8.17067 24.5626C8.28088 24.6114 8.37897 24.6548 8.46075 24.6938C8.46151 25.4685 9.62287 27.4054 9.62287 27.4054C9.75225 26.5015 13.4673 24.8487 15.0168 25.4685C15.398 25.8577 15.65 26.2771 15.8959 26.6863C16.6175 27.8873 17.2861 29 21.0116 29C18.7167 27.8379 18.0168 25 18.0168 25C18.0168 25 19.0168 23 21.6014 22.5C17.9838 22.0572 17.5702 22.3987 15.7861 23.8721C15.5559 24.0622 15.3028 24.2712 15.0172 24.4997C15.0172 24.4997 14.139 25.1336 11.0581 24.6935C5.63546 23.9187 4.85997 18.8829 9.12131 15.7838C9.47439 15.527 9.85592 15.2838 10.2621 15.0541C10.5231 15.4921 10.8732 15.8788 11.318 16.1649C11.6477 16.3771 13.2422 16.585 13.2422 16.585C13.2422 16.585 12.416 15.1829 12.0863 14.9708C11.8743 14.8344 11.6879 14.6442 11.5352 14.4122C11.9512 14.2249 12.3849 14.049 12.8333 13.8845C13.1199 14.2929 13.4707 14.6335 13.81 14.9033C14.1168 15.1474 15.6576 15.3952 15.6576 15.3952C15.6576 15.3952 15.0008 14.036 14.6939 13.7919C14.5444 13.673 14.4027 13.5446 14.2744 13.4085C18.5026 12.1551 23.6425 11.7951 27.5716 12.2873C28.5718 11.2446 31.0421 8.49687 29.7658 8.0361C28.1845 7.46525 19.8114 5.73671 15.5171 7ZM17.5409 8.91715C17.3553 9.59661 17.8003 10.7383 18.6259 10.9638C19.4515 11.1893 20.3452 10.4132 20.5308 9.73373C20.5985 9.48581 19.9493 9.18934 19.1237 8.96385C18.9028 8.90351 18.7 8.82347 18.518 8.75161C18.0198 8.55491 17.6768 8.4195 17.5409 8.91715Z" fill="white"/>
</svg>
