<svg width="32" height="32" viewBox="0 0 32 32" fill="none" xmlns="http://www.w3.org/2000/svg">
<path d="M29.9385 20.8578L28.4785 11.702C28.0909 9.52719 26.361 7.77427 24.0746 7.23943H24.0715C18.7631 6.00027 13.236 6.00027 7.92759 7.23943C5.63856 7.77427 3.9091 9.52676 3.52147 11.702L2.06152 20.8578C1.61045 23.3896 3.69735 25.6947 6.44095 25.6947C8.61403 25.6947 10.5434 24.3935 11.2308 22.4649L11.5598 21.5406H20.4411L20.7688 22.4649C21.4566 24.3935 23.386 25.6947 25.5591 25.6947C28.3027 25.6947 30.3896 23.3896 29.9385 20.8578ZM14.25 15.1365C14.25 15.2742 14.1947 15.4062 14.0962 15.5036C13.9978 15.601 13.8642 15.6557 13.725 15.6557H11.4499V17.9058C11.4499 18.0435 11.3946 18.1756 11.2962 18.273C11.1977 18.3704 11.0642 18.4251 10.9249 18.4251H9.87493C9.73568 18.4251 9.60215 18.3704 9.50369 18.273C9.40523 18.1756 9.34992 18.0435 9.34992 17.9058V15.6557H7.07489C6.93565 15.6557 6.80211 15.601 6.70365 15.5036C6.6052 15.4062 6.54988 15.2742 6.54988 15.1365V14.0979C6.54988 13.9602 6.6052 13.8282 6.70365 13.7308C6.80211 13.6334 6.93565 13.5787 7.07489 13.5787H9.34992V11.3286C9.34992 11.1909 9.40523 11.0588 9.50369 10.9614C9.60215 10.864 9.73568 10.8093 9.87493 10.8093H10.9249C11.0642 10.8093 11.1977 10.864 11.2962 10.9614C11.3946 11.0588 11.4499 11.1909 11.4499 11.3286V13.5787H13.725C13.8642 13.5787 13.9978 13.6334 14.0962 13.7308C14.1947 13.8282 14.25 13.9602 14.25 14.0979V15.1365ZM20.9001 18.4251C20.5539 18.4251 20.2156 18.3236 19.9278 18.1334C19.64 17.9432 19.4157 17.6729 19.2833 17.3566C19.1508 17.0403 19.1161 16.6923 19.1837 16.3566C19.2512 16.0208 19.4179 15.7124 19.6626 15.4703C19.9074 15.2283 20.2192 15.0634 20.5586 14.9966C20.8981 14.9298 21.25 14.9641 21.5698 15.0951C21.8895 15.2261 22.1629 15.448 22.3552 15.7326C22.5474 16.0173 22.6501 16.3519 22.6501 16.6942C22.6501 17.1533 22.4657 17.5935 22.1375 17.9181C21.8093 18.2427 21.3642 18.4251 20.9001 18.4251ZM23.7001 14.271C23.354 14.271 23.0156 14.1695 22.7278 13.9793C22.44 13.7891 22.2157 13.5188 22.0833 13.2025C21.9508 12.8863 21.9162 12.5383 21.9837 12.2025C22.0512 11.8668 22.2179 11.5583 22.4626 11.3163C22.7074 11.0742 23.0192 10.9094 23.3587 10.8426C23.6982 10.7758 24.05 10.8101 24.3698 10.9411C24.6896 11.0721 24.9629 11.2939 25.1552 11.5786C25.3475 11.8632 25.4501 12.1978 25.4501 12.5402C25.4501 12.9992 25.2657 13.4395 24.9375 13.7641C24.6094 14.0887 24.1642 14.271 23.7001 14.271Z" fill="white"/>
<path d="M14.2499 15.1365C14.2499 15.2742 14.1946 15.4063 14.0961 15.5036C13.9977 15.601 13.8641 15.6557 13.7249 15.6557H11.4499V17.9058C11.4499 18.0435 11.3946 18.1756 11.2961 18.273C11.1976 18.3704 11.0641 18.4251 10.9249 18.4251H9.87485C9.73561 18.4251 9.60207 18.3704 9.50361 18.273C9.40515 18.1756 9.34984 18.0435 9.34984 17.9058V15.6557H7.07481C6.93557 15.6557 6.80203 15.601 6.70358 15.5036C6.60512 15.4063 6.5498 15.2742 6.5498 15.1365V14.098C6.5498 13.9602 6.60512 13.8282 6.70358 13.7308C6.80203 13.6334 6.93557 13.5787 7.07481 13.5787H9.34984V11.3286C9.34984 11.1909 9.40515 11.0588 9.50361 10.9614C9.60207 10.864 9.73561 10.8093 9.87485 10.8093H10.9249C11.0641 10.8093 11.1976 10.864 11.2961 10.9614C11.3946 11.0588 11.4499 11.1909 11.4499 11.3286V13.5787H13.7249C13.8641 13.5787 13.9977 13.6334 14.0961 13.7308C14.1946 13.8282 14.2499 13.9602 14.2499 14.098V15.1365Z" fill="white" fill-opacity="0.3"/>
<path d="M23.7001 14.271C23.3539 14.271 23.0156 14.1695 22.7278 13.9793C22.44 13.7891 22.2157 13.5188 22.0833 13.2026C21.9508 12.8863 21.9162 12.5383 21.9837 12.2025C22.0512 11.8668 22.2179 11.5583 22.4626 11.3163C22.7074 11.0742 23.0192 10.9094 23.3587 10.8426C23.6981 10.7758 24.05 10.8101 24.3698 10.9411C24.6896 11.0721 24.9629 11.2939 25.1552 11.5786C25.3475 11.8632 25.4501 12.1979 25.4501 12.5402C25.4501 12.9992 25.2657 13.4395 24.9375 13.7641C24.6093 14.0887 24.1642 14.271 23.7001 14.271Z" fill="white" fill-opacity="0.3"/>
<path d="M20.9 18.4251C20.5539 18.4251 20.2156 18.3236 19.9278 18.1334C19.64 17.9432 19.4157 17.6729 19.2832 17.3566C19.1508 17.0403 19.1161 16.6923 19.1836 16.3566C19.2512 16.0208 19.4178 15.7124 19.6626 15.4703C19.9073 15.2283 20.2192 15.0634 20.5586 14.9966C20.8981 14.9299 21.25 14.9641 21.5697 15.0951C21.8895 15.2261 22.1628 15.448 22.3551 15.7326C22.5474 16.0173 22.6501 16.3519 22.6501 16.6942C22.6501 17.1533 22.4657 17.5935 22.1375 17.9181C21.8093 18.2427 21.3642 18.4251 20.9 18.4251Z" fill="white" fill-opacity="0.3"/>
</svg>
