<svg width="32" height="32" viewBox="0 0 32 32" fill="none" xmlns="http://www.w3.org/2000/svg">
<path d="M23.8835 26.8654L19.2291 25.8761C20.4991 25.1632 21.2167 23.6842 20.898 22.1846L20.2972 19.3581C20.4066 19.3644 20.5188 19.3357 20.6146 19.2679L24.4147 16.7169C25.5126 15.9763 25.7922 14.4236 24.9644 13.3408C24.2412 12.3978 22.909 12.2657 21.912 12.9271L21.5384 13.1835L21.2854 12.7939C20.7294 11.8998 19.6516 11.4649 18.6857 11.7769L17.541 6.3912C17.444 5.93512 17.2603 5.51978 17.0107 5.15879C17.3778 5.00358 17.7944 4.95534 18.2138 5.04448L28.0761 7.14078C29.1655 7.37233 29.8609 8.44314 29.6293 9.5325L26.2753 25.3122C26.0437 26.4016 24.9729 27.097 23.8835 26.8654Z" fill="white" fill-opacity="0.3"/>
<path d="M10.4092 12.8465C10.523 12.6712 10.7641 12.6199 10.9394 12.7338L11.1458 12.8617C12.2117 13.5218 14.5647 14.9792 14.9713 15.269C15.3678 15.5542 15.6596 15.9792 15.7689 16.4934C16.0012 17.5859 15.3374 18.6507 14.2483 18.899C13.6411 19.0448 13.0402 18.9038 12.5852 18.5807C12.7116 19.1752 12.7789 19.4128 13.693 19.6048C13.9223 19.6568 14.1021 19.8705 14.1017 20.1056C14.1082 20.373 13.9334 20.578 13.6763 20.6327L11.1216 21.1757C10.8806 21.2269 10.6376 21.1107 10.5255 20.8994C10.4261 20.6686 10.5 20.3842 10.7044 20.24C11.4549 19.6975 11.4076 19.4402 11.3026 18.8688L11.2999 18.8539C11.0157 19.3342 10.5401 19.7039 9.94219 19.8142C8.83354 20.0499 7.77464 19.3345 7.53558 18.2098C7.4297 17.7117 7.52689 17.2209 7.7731 16.7991C8.0151 16.3658 9.61317 14.0167 10.3029 13.0027L10.4092 12.8465Z" fill="white" fill-opacity="0.3"/>
<path fill-rule="evenodd" clip-rule="evenodd" d="M3.93753 7.23087C2.84817 7.46242 2.15277 8.53323 2.38432 9.62259L5.7384 25.4023C5.96996 26.4917 7.04077 27.1871 8.13013 26.9555L17.9924 24.8592C19.0818 24.6277 19.7772 23.5568 19.5457 22.4675L16.1916 6.68777C15.96 5.59841 14.8892 4.90302 13.7998 5.13457L3.93753 7.23087ZM10.4092 12.8465C10.5231 12.6712 10.7641 12.6199 10.9394 12.7338L11.1459 12.8617C12.2117 13.5218 14.5647 14.9791 14.9713 15.269C15.3678 15.5542 15.6597 15.9792 15.7689 16.4934C16.0012 17.5859 15.3374 18.6507 14.2483 18.899C13.6411 19.0448 13.0402 18.9038 12.5853 18.5807C12.7116 19.1752 12.7789 19.4128 13.693 19.6048C13.9223 19.6568 14.1021 19.8705 14.1017 20.1056C14.1082 20.373 13.9334 20.578 13.6764 20.6327L11.1216 21.1757C10.8806 21.2269 10.6376 21.1107 10.5255 20.8994C10.4261 20.6686 10.5 20.3842 10.7044 20.24C11.4549 19.6975 11.4076 19.4402 11.3026 18.8688L11.2999 18.8539C11.0157 19.3342 10.5401 19.7039 9.9422 19.8142C8.83355 20.0499 7.77466 19.3345 7.53559 18.2098C7.42972 17.7117 7.5269 17.2209 7.77311 16.7991C8.01512 16.3658 9.61326 14.0165 10.303 13.0026L10.4092 12.8465Z" fill="white"/>
<path d="M21.2852 12.7938C20.7292 11.8997 19.6514 11.4648 18.6855 11.7768L20.297 19.358C20.4064 19.3643 20.5186 19.3356 20.6144 19.2678L24.4145 16.7169C25.5124 15.9762 25.792 14.4235 24.9642 13.3407C24.241 12.3977 22.9088 12.2656 21.9118 12.927L21.5382 13.1834L21.2852 12.7938Z" fill="white"/>
</svg>
