<svg width="32" height="32" viewBox="0 0 32 32" fill="none" xmlns="http://www.w3.org/2000/svg">
<circle cx="16" cy="16" r="7" fill="white" fill-opacity="0.3"/>
<path d="M13.145 19.1787H14.3799V12.71H13.3779C13.2373 13.1025 12.978 13.4468 12.6001 13.7427C12.2222 14.0356 11.8721 14.2349 11.5498 14.3403V15.4609C12.1621 15.2588 12.6938 14.9468 13.145 14.5249V19.1787Z" fill="white"/>
<path fill-rule="evenodd" clip-rule="evenodd" d="M16.5903 15.1489C16.7368 15.3833 16.9697 15.5679 17.2891 15.7026C16.917 15.8608 16.6445 16.0864 16.4717 16.3794C16.2988 16.6694 16.2124 16.9888 16.2124 17.3374C16.2124 17.9702 16.4424 18.4683 16.9023 18.8315C17.292 19.1392 17.7798 19.293 18.3657 19.293C18.9956 19.293 19.4995 19.1069 19.8774 18.7349C20.2583 18.3628 20.4487 17.8794 20.4487 17.2847C20.4487 16.9243 20.355 16.6064 20.1675 16.3311C19.9829 16.0557 19.7119 15.8462 19.3545 15.7026C19.6357 15.5796 19.854 15.4023 20.0093 15.1709C20.1646 14.9365 20.2422 14.6699 20.2422 14.3711C20.2422 13.8906 20.0723 13.4937 19.7324 13.1802C19.3955 12.8667 18.9209 12.71 18.3086 12.71C17.6904 12.71 17.2129 12.8667 16.876 13.1802C16.542 13.4937 16.375 13.8906 16.375 14.3711C16.375 14.6523 16.4468 14.9116 16.5903 15.1489ZM17.7505 15.0347C17.6128 14.897 17.5439 14.7051 17.5439 14.459C17.5439 14.2275 17.6143 14.0415 17.7549 13.9009C17.8955 13.7603 18.0845 13.6899 18.3218 13.6899C18.5503 13.6899 18.7334 13.7603 18.8711 13.9009C19.0117 14.0386 19.082 14.2231 19.082 14.4546C19.082 14.7007 19.0117 14.894 18.8711 15.0347C18.7305 15.1724 18.543 15.2412 18.3086 15.2412C18.0771 15.2412 17.8911 15.1724 17.7505 15.0347ZM17.689 18.0142C17.5161 17.8237 17.4297 17.5586 17.4297 17.2188C17.4297 16.9756 17.5029 16.75 17.6494 16.542C17.7988 16.334 18.0244 16.23 18.3262 16.23C18.5869 16.23 18.8022 16.3223 18.9722 16.5068C19.1421 16.6885 19.2271 16.9302 19.2271 17.2319C19.2271 17.5776 19.1436 17.8428 18.9766 18.0273C18.8096 18.209 18.5986 18.2998 18.3438 18.2998C18.083 18.2998 17.8647 18.2046 17.689 18.0142Z" fill="white"/>
<path fill-rule="evenodd" clip-rule="evenodd" d="M16 28C22.6274 28 28 22.6274 28 16C28 9.37258 22.6274 4 16 4C9.37258 4 4 9.37258 4 16C4 22.6274 9.37258 28 16 28ZM23 16C23 19.866 19.866 23 16 23C12.134 23 9 19.866 9 16C9 12.134 12.134 9 16 9C19.866 9 23 12.134 23 16Z" fill="white"/>
</svg>
