<svg width="32" height="32" viewBox="0 0 32 32" fill="none" xmlns="http://www.w3.org/2000/svg">
<path d="M16.8341 24.007V23.1231C18.1129 23.1231 19.0966 22.0428 19.1458 20.766C19.1458 19.6856 18.408 18.7526 17.4243 18.4579L15.0142 17.7704C14.7191 17.6722 14.5716 17.3776 14.5716 17.0829C14.5716 16.6901 14.8175 16.3954 15.1618 16.3954H16.6865C16.8833 16.3954 17.1784 16.4937 17.3751 16.5919C17.4243 16.641 17.5227 16.641 17.6211 16.641C17.7194 16.641 17.8178 16.5919 17.9162 16.5428L18.5556 15.9535C18.6048 15.8553 18.654 15.757 18.654 15.6588C18.654 15.5115 18.6048 15.3642 18.5064 15.3151C18.1129 15.0204 17.326 14.7258 16.8341 14.7258V13.8419C16.8341 13.5963 16.6374 13.3999 16.3914 13.3999H15.5553C15.3094 13.3999 15.1126 13.5963 15.1126 13.8419V14.7258C13.8338 14.7258 12.8501 15.8062 12.8501 17.0829C12.8501 18.1633 13.5387 19.0963 14.5224 19.391L16.9325 20.0785C17.2276 20.1767 17.3751 20.4713 17.3751 20.766C17.3751 21.1588 17.1292 21.4535 16.7849 21.4535H15.2602C15.0634 21.4535 14.7683 21.4044 14.5716 21.257C14.5224 21.2079 14.424 21.2079 14.3257 21.2079C14.2273 21.2079 14.1289 21.257 14.0305 21.3062L13.3911 21.8954C13.342 21.9937 13.2928 22.0919 13.2928 22.1901C13.2928 22.3374 13.342 22.4847 13.4403 22.5338C13.8338 22.8285 14.6208 23.1231 15.1126 23.1231V24.007C15.1126 24.2526 15.3094 24.3999 15.5553 24.3999H16.3914C16.6374 24.3999 16.8341 24.2526 16.8341 24.007Z" fill="white" fill-opacity="0.3"/>
<path fill-rule="evenodd" clip-rule="evenodd" d="M18.7764 9.125H13.2676L11.2019 6.07422C11.1588 5.98828 11.0728 5.81641 11.0728 5.6875C11.0728 5.34375 11.4171 5 11.7613 5H20.2397C20.5839 5 20.9282 5.34375 20.9282 5.6875C20.9282 5.81641 20.8422 5.98828 20.7991 6.07422L18.7764 9.125ZM13.2676 10.5H18.7764C27.1121 15.2616 27.0158 21.5792 26.9977 22.7632C26.997 22.8079 26.9965 22.8453 26.9965 22.875C26.9965 25.1523 24.8877 27 22.3054 27H9.69557C7.11334 27 5.00453 25.1523 5.00453 22.875C5.00453 22.8433 5.00381 22.8028 5.00295 22.7541C4.98163 21.5497 4.87087 15.2905 13.2676 10.5ZM16.8341 23.1231V24.007C16.8341 24.2526 16.6374 24.3999 16.3914 24.3999H15.5553C15.3094 24.3999 15.1126 24.2526 15.1126 24.007V23.1231C14.6208 23.1231 13.8338 22.8285 13.4403 22.5338C13.342 22.4847 13.2928 22.3374 13.2928 22.1901C13.2928 22.0919 13.342 21.9937 13.3911 21.8954L14.0305 21.3062C14.1289 21.257 14.2273 21.2079 14.3257 21.2079C14.424 21.2079 14.5224 21.2079 14.5716 21.257C14.7683 21.4044 15.0634 21.4535 15.2602 21.4535H16.7849C17.1292 21.4535 17.3751 21.1588 17.3751 20.766C17.3751 20.4713 17.2276 20.1767 16.9325 20.0785L14.5224 19.391C13.5387 19.0963 12.8501 18.1633 12.8501 17.0829C12.8501 15.8062 13.8338 14.7258 15.1126 14.7258V13.8419C15.1126 13.5963 15.3094 13.3999 15.5553 13.3999H16.3914C16.6374 13.3999 16.8341 13.5963 16.8341 13.8419V14.7258C17.326 14.7258 18.1129 15.0204 18.5064 15.3151C18.6048 15.3642 18.654 15.5115 18.654 15.6588C18.654 15.757 18.6048 15.8553 18.5556 15.9535L17.9162 16.5428L17.9162 16.5428C17.8178 16.5919 17.7194 16.641 17.6211 16.641C17.5227 16.641 17.4243 16.641 17.3751 16.5919C17.1784 16.4937 16.8833 16.3954 16.6865 16.3954H15.1618C14.8175 16.3954 14.5716 16.6901 14.5716 17.0829C14.5716 17.3776 14.7191 17.6722 15.0142 17.7704L17.4243 18.4579C18.408 18.7526 19.1458 19.6856 19.1458 20.766C19.0966 22.0428 18.1129 23.1231 16.8341 23.1231Z" fill="white"/>
</svg>
