<svg width="32" height="32" viewBox="0 0 32 32" fill="none" xmlns="http://www.w3.org/2000/svg">
<path d="M2.125 9H7.57031V13.3999H3V15.0666H6.00866L3.25974 20.8783H5.39177L7.57031 16.024V24H2.125C1.50625 24 1 23.4375 1 22.75V10.25C1 9.5625 1.50625 9 2.125 9Z" fill="#DADDE3"/>
<path d="M29.8754 24H24.4307V20.8783H26.3918L29 15.0666V13.3999H24.4307V9H29.8754C30.4941 9 31.0004 9.5625 31.0004 10.25V22.75C31.0004 23.4375 30.4941 24 29.8754 24Z" fill="#DADDE3"/>
<path d="M24.4307 15.0666V20.5169L27.0087 15.0666H24.4307Z" fill="#DADDE3"/>
<path d="M20.2778 12.8527V10H11.7197V12.8527H16.8694L12.1643 22.8H15.8135L20.2778 12.8527Z" fill="#DADDE3"/>
<path fill-rule="evenodd" clip-rule="evenodd" d="M10.75 6H21.25C22.2125 6 23 6.75 23 7.66667V24.3333C23 25.25 22.2125 26 21.25 26H10.75C9.7875 26 9 25.25 9 24.3333V7.66667C9 6.75 9.7875 6 10.75 6ZM20.2778 10V12.8527L15.8135 22.8H12.1643L16.8694 12.8527H11.7197V10H20.2778Z" fill="#071F44" fill-opacity="0.6"/>
<path d="M7.57031 13.3999H3V15.0666H6.00866L3.25974 20.8783H5.39177L7.57031 16.024V13.3999Z" fill="#071F44" fill-opacity="0.6"/>
<path d="M24.4307 20.8783H26.3918L29 15.0666V13.3999H24.4307V15.0666H27.0087L24.4307 20.5169V20.8783Z" fill="#071F44" fill-opacity="0.6"/>
</svg>
