<svg width="32" height="32" viewBox="0 0 32 32" fill="none" xmlns="http://www.w3.org/2000/svg">
<circle cx="16" cy="16" r="11" fill="#071F44" fill-opacity="0.6"/>
<path d="M12.468 14.9885L15.6566 12.4342V8.67991L12.8795 7.58276C10.8909 8.31991 9.22805 9.74276 8.16519 11.5599L8.67947 13.7199L12.468 14.9885Z" fill="#DADDE3"/>
<path d="M8.4911 14.3887L12.2454 15.6401L13.1882 19.4629L11.3368 21.9315L8.78253 21.5201C7.66824 20.0458 6.98253 18.2287 6.94824 16.2401L8.4911 14.3887Z" fill="#DADDE3"/>
<path d="M11.9197 22.3087L13.754 19.8744H18.2454L20.114 22.3258L18.7597 24.6915C17.8854 24.9658 16.9597 25.1201 15.9997 25.1201C15.1254 25.1201 14.2854 24.983 13.4797 24.743L11.9197 22.3087Z" fill="#DADDE3"/>
<path d="M19.7541 15.6401L23.4912 14.3887L25.0341 16.2401C24.9998 18.2287 24.3141 20.0458 23.1998 21.5201L20.6627 21.9144L18.7941 19.4458L19.7541 15.6401Z" fill="#DADDE3"/>
<path d="M23.3202 13.7199L23.8345 11.5599C22.7716 9.72562 21.1088 8.31991 19.1031 7.58276L16.3431 8.67991V12.4342L19.5316 14.9885L23.3202 13.7199Z" fill="#DADDE3"/>
<path fill-rule="evenodd" clip-rule="evenodd" d="M16 4C9.38286 4 4 9.38286 4 16C4 22.6171 9.38286 28 16 28C22.6171 28 28 22.6171 28 16C28 9.38286 22.6171 4 16 4ZM5.4 16C5.4 10.1561 10.1561 5.4 16 5.4C21.8439 5.4 26.6 10.1561 26.6 16C26.6 21.8439 21.8439 26.6 16 26.6C10.1561 26.6 5.4 21.8439 5.4 16Z" fill="#DADDE3"/>
</svg>
