<svg width="32" height="32" viewBox="0 0 32 32" fill="none" xmlns="http://www.w3.org/2000/svg">
<path fill-rule="evenodd" clip-rule="evenodd" d="M15.9999 5.3999C10.156 5.3999 5.3999 10.156 5.3999 15.9999C5.3999 21.8438 10.156 26.5999 15.9999 26.5999C21.8438 26.5999 26.5999 21.8438 26.5999 15.9999C26.5999 10.156 21.8438 5.3999 15.9999 5.3999ZM15.6565 12.4341L12.4679 14.9884L8.67938 13.7198L8.16509 11.5598C9.22795 9.74267 10.8908 8.31981 12.8794 7.58267L15.6565 8.67981V12.4341ZM12.2453 15.64L8.491 14.3886L6.94814 16.24C6.98243 18.2286 7.66814 20.0457 8.78243 21.52L11.3367 21.9314L13.1881 19.4628L12.2453 15.64ZM11.9196 22.3086L13.7539 19.8743H18.2453L20.1139 22.3257L18.7596 24.6914C17.8853 24.9657 16.9596 25.12 15.9996 25.12C15.1253 25.12 14.2853 24.9829 13.4796 24.7429L11.9196 22.3086ZM23.4911 14.3886L19.754 15.64L18.794 19.4457L20.6626 21.9143L23.1997 21.52C24.314 20.0457 24.9997 18.2286 25.034 16.24L23.4911 14.3886ZM23.3201 13.7198L23.8344 11.5598C22.7715 9.72552 21.1087 8.31981 19.103 7.58267L16.343 8.67981V12.4341L19.5315 14.9884L23.3201 13.7198Z" fill="white"/>
<path d="M12.468 14.9885L15.6566 12.4342V8.67991L12.8795 7.58276C10.8909 8.31991 9.22805 9.74276 8.16519 11.5599L8.67947 13.7199L12.468 14.9885Z" fill="white" fill-opacity="0.3"/>
<path d="M8.4911 14.3887L12.2454 15.6401L13.1882 19.4629L11.3368 21.9315L8.78253 21.5201C7.66824 20.0458 6.98253 18.2287 6.94824 16.2401L8.4911 14.3887Z" fill="white" fill-opacity="0.3"/>
<path d="M11.9197 22.3087L13.754 19.8744H18.2454L20.114 22.3258L18.7597 24.6915C17.8854 24.9658 16.9597 25.1201 15.9997 25.1201C15.1254 25.1201 14.2854 24.983 13.4797 24.743L11.9197 22.3087Z" fill="white" fill-opacity="0.3"/>
<path d="M19.7541 15.6401L23.4912 14.3887L25.0341 16.2401C24.9998 18.2287 24.3141 20.0458 23.1998 21.5201L20.6627 21.9144L18.7941 19.4458L19.7541 15.6401Z" fill="white" fill-opacity="0.3"/>
<path d="M23.3202 13.7199L23.8345 11.5599C22.7716 9.72562 21.1088 8.31991 19.1031 7.58276L16.3431 8.67991V12.4342L19.5316 14.9885L23.3202 13.7199Z" fill="white" fill-opacity="0.3"/>
<path fill-rule="evenodd" clip-rule="evenodd" d="M16 4C9.38286 4 4 9.38286 4 16C4 22.6171 9.38286 28 16 28C22.6171 28 28 22.6171 28 16C28 9.38286 22.6171 4 16 4ZM5.4 16C5.4 10.1561 10.1561 5.4 16 5.4C21.8439 5.4 26.6 10.1561 26.6 16C26.6 21.8439 21.8439 26.6 16 26.6C10.1561 26.6 5.4 21.8439 5.4 16Z" fill="white" fill-opacity="0.3"/>
</svg>
