<?xml version="1.0" standalone="no"?><!DOCTYPE svg PUBLIC "-//W3C//DTD SVG 1.1//EN" "http://www.w3.org/Graphics/SVG/1.1/DTD/svg11.dtd"><svg t="1591672704553" class="icon" viewBox="0 0 1024 1024" version="1.1" xmlns="http://www.w3.org/2000/svg" p-id="896" xmlns:xlink="http://www.w3.org/1999/xlink" width="200" height="200"><defs><style type="text/css"></style></defs><path d="M837.818182 977.454545H232.727273c-55.854545 0-102.4-46.545455-102.4-102.4v-88.436363c0-18.618182 13.963636-32.581818 32.581818-32.581818s32.581818 13.963636 32.581818 32.581818v88.436363c0 18.618182 18.618182 37.236364 37.236364 37.236364h605.090909c18.618182 0 37.236364-18.618182 37.236363-37.236364V153.6c0-18.618182-18.618182-37.236364-37.236363-37.236364H232.727273c-18.618182 0-37.236364 18.618182-37.236364 37.236364V232.727273c0 18.618182-13.963636 32.581818-32.581818 32.581818s-32.581818-18.618182-32.581818-37.236364V153.6C130.327273 93.090909 176.872727 46.545455 232.727273 46.545455h605.090909c55.854545 0 102.4 46.545455 102.4 102.4v721.454545c0 60.509091-46.545455 107.054545-102.4 107.054545z" fill="#333333" p-id="897"></path><path d="M209.454545 404.945455h-93.090909c-18.618182 0-32.581818-13.963636-32.581818-32.581819s13.963636-32.581818 32.581818-32.581818h93.090909c18.618182 0 32.581818 13.963636 32.581819 32.581818s-13.963636 32.581818-32.581819 32.581819zM209.454545 544.581818h-93.090909c-18.618182 0-32.581818-13.963636-32.581818-32.581818s13.963636-32.581818 32.581818-32.581818h93.090909c18.618182 0 32.581818 13.963636 32.581819 32.581818s-13.963636 32.581818-32.581819 32.581818zM209.454545 684.218182h-93.090909c-18.618182 0-32.581818-13.963636-32.581818-32.581818s13.963636-32.581818 32.581818-32.581819h93.090909c18.618182 0 32.581818 13.963636 32.581819 32.581819s-13.963636 32.581818-32.581819 32.581818zM619.054545 516.654545c32.581818-23.272727 55.854545-65.163636 55.854546-111.70909 0-79.127273-60.509091-139.636364-139.636364-139.636364s-139.636364 60.509091-139.636363 139.636364c0 46.545455 23.272727 83.781818 55.854545 111.70909-83.781818 32.581818-148.945455 116.363636-148.945454 214.109091 0 13.963636 9.309091 23.272727 23.272727 23.272728s23.272727-9.309091 23.272727-23.272728c0-102.4 83.781818-186.181818 186.181818-186.181818s186.181818 83.781818 186.181818 186.181818c0 13.963636 9.309091 23.272727 23.272728 23.272728s23.272727-9.309091 23.272727-23.272728c0-97.745455-60.509091-181.527273-148.945455-214.109091zM442.181818 409.6c0-51.2 41.890909-93.090909 93.090909-93.090909s93.090909 41.890909 93.090909 93.090909-41.890909 93.090909-93.090909 93.090909-93.090909-46.545455-93.090909-93.090909z" fill="#333333" p-id="898"></path></svg>