<?xml version="1.0" standalone="no"?><!DOCTYPE svg PUBLIC "-//W3C//DTD SVG 1.1//EN" "http://www.w3.org/Graphics/SVG/1.1/DTD/svg11.dtd"><svg t="1592361279109" class="icon" viewBox="0 0 1024 1024" version="1.1" xmlns="http://www.w3.org/2000/svg" p-id="1284" xmlns:xlink="http://www.w3.org/1999/xlink" width="200" height="200"><defs><style type="text/css"></style></defs><path d="M582.115 702.04V580.415c0-33.446 27.367-60.813 60.813-60.813h212.845V397.976H247.644c-33.584 0-60.813-27.229-60.813-60.813s27.229-60.813 60.813-60.813h608.129v-60.813c0-33.446-27.367-60.813-60.813-60.813H126.018c-33.446 0-60.813 27.367-60.813 60.813v592.926c0 33.446 27.367 60.813 60.813 60.813H794.96c33.446 0 60.813-27.367 60.813-60.813v-45.61H642.928c-33.446 0-60.813-27.366-60.813-60.813z" p-id="1285"></path><path d="M926.795 557.442H656.323c-17.6 0-32 14.4-32 32v103.236c0 17.6 14.4 32 32 32h270.471c17.6 0 32-14.4 32-32V589.442c0.001-17.6-14.399-32-31.999-32zM715.543 686.67c-25.19 0-45.61-20.42-45.61-45.61 0-25.19 20.42-45.61 45.61-45.61 25.19 0 45.61 20.42 45.61 45.61 0 25.189-20.421 45.61-45.61 45.61z" p-id="1286"></path></svg>