<svg width="158" height="144" viewBox="0 0 158 144" fill="none" xmlns="http://www.w3.org/2000/svg">
<path d="M0.0122021 112.921C0.373845 111.384 0.572952 109.782 1.12964 108.318C2.09267 105.795 3.06382 103.232 4.40474 100.9C20.9293 72.2395 37.4863 43.5929 54.0758 14.9598C58.3099 7.62302 64.275 2.48447 72.6456 0.720246C85.5632 -2.00112 96.896 3.07659 103.527 14.4731C120.35 43.4388 137.117 72.4369 153.828 101.468C159.972 112.166 159.286 122.8 152.061 132.757C146.994 139.741 139.871 143.363 131.228 143.959C130.508 144.008 129.789 143.999 129.07 143.999C95.6255 143.999 62.1796 143.999 28.7324 143.999C19.7157 143.999 12.239 140.706 6.45676 133.775C3.19523 129.858 1.06795 125.127 0.304755 120.091C0.228067 119.749 0.126206 119.413 0 119.085L0.0122021 112.921ZM78.8423 131.232C95.3885 131.232 111.933 131.232 128.477 131.232C132.504 131.232 136.197 130.364 139.359 127.748C144.986 123.088 146.917 114.803 142.642 107.47C129.797 85.4922 117.12 63.4171 104.365 41.3866C100.106 34.0296 95.9411 26.6117 91.4917 19.3683C88.2735 14.1324 81.7801 11.7477 75.7907 13.0495C71.004 14.0918 67.7004 16.9389 65.2908 21.1041C51.589 44.838 37.8642 68.557 24.1163 92.2611C20.8331 97.9391 17.432 103.548 14.3641 109.344C11.2069 115.338 12.9094 122.946 17.9765 127.408C21.2029 130.247 24.9981 131.228 29.1996 131.22C45.7404 131.217 62.2825 131.225 78.826 131.244L78.8423 131.232Z" fill="#CDA269"/>
<path d="M87.0011 54.3406C86.3834 64.4663 85.7685 74.5947 85.1563 84.7258C85.0669 86.2102 85.0994 87.6986 85.0709 89.1871C84.9937 92.9751 82.4216 95.6762 78.9068 95.6762C75.3919 95.6762 72.9904 93.1049 72.7751 89.3331C72.1141 77.7717 71.4165 66.2103 70.6824 54.6489C70.4264 50.5567 71.4951 47.0931 75.2985 45.0166C80.2193 42.3317 86.5175 45.8277 86.932 51.4165C87.0052 52.3817 86.932 53.3591 86.932 54.3284L87.0011 54.3406Z" fill="#CDA269"/>
<path d="M70.834 109.311C70.8415 107.165 71.7011 105.109 73.2243 103.594C74.7476 102.079 76.8103 101.228 78.9608 101.228C83.459 101.228 86.917 104.817 86.9048 109.445C86.8749 111.542 86.0326 113.546 84.5545 115.036C83.0764 116.526 81.0775 117.387 78.9771 117.439C74.613 117.503 70.8421 113.732 70.834 109.311Z" fill="#CDA269"/>
</svg>
