<svg width="25" height="25" viewBox="0 0 25 25" fill="none" xmlns="http://www.w3.org/2000/svg">
<mask id="path-1-inside-1_2413_854" fill="white">
<path fill-rule="evenodd" clip-rule="evenodd" d="M12.5 13H19V11.4599L13 6.31708L7 11.4599V20H12.5V13ZM6 21V11L13 5L20 11V21H6ZM15 20H13.5V14H19V15.5H15V20ZM16 20H19V16.5H16V20Z"/>
</mask>
<path fill-rule="evenodd" clip-rule="evenodd" d="M12.5 13H19V11.4599L13 6.31708L7 11.4599V20H12.5V13ZM6 21V11L13 5L20 11V21H6ZM15 20H13.5V14H19V15.5H15V20ZM16 20H19V16.5H16V20Z" fill="#967140"/>
<path d="M12.5 13V12H11.5V13H12.5ZM19 13V14H20V13H19ZM19 11.4599H20V11L19.6508 10.7007L19 11.4599ZM13 6.31708L13.6508 5.55782L13 5L12.3492 5.55782L13 6.31708ZM7 11.4599L6.34921 10.7007L6 11V11.4599H7ZM7 20H6V21H7V20ZM12.5 20V21H13.5V20H12.5ZM6 21H5V22H6V21ZM6 11L5.34921 10.2407L5 10.5401V11H6ZM13 5L13.6508 4.24074L13 3.68292L12.3492 4.24074L13 5ZM20 11H21V10.5401L20.6508 10.2407L20 11ZM20 21V22H21V21H20ZM15 20V21H16V20H15ZM13.5 20H12.5V21H13.5V20ZM13.5 14V13H12.5V14H13.5ZM19 14H20V13H19V14ZM19 15.5V16.5H20V15.5H19ZM15 15.5V14.5H14V15.5H15ZM19 20V21H20V20H19ZM16 20H15V21H16V20ZM19 16.5H20V15.5H19V16.5ZM16 16.5V15.5H15V16.5H16ZM18 11.4599V13H20V11.4599H18ZM12.3492 7.07633L18.3492 12.2192L19.6508 10.7007L13.6508 5.55782L12.3492 7.07633ZM7.65079 12.2192L13.6508 7.07633L12.3492 5.55782L6.34921 10.7007L7.65079 12.2192ZM8 20V11.4599H6V20H8ZM12.5 19H7V21H12.5V19ZM6.65079 11.7593L13.6508 5.75926L12.3492 4.24074L5.34921 10.2407L6.65079 11.7593ZM12.3492 5.75926L19.3492 11.7593L20.6508 10.2407L13.6508 4.24074L12.3492 5.75926ZM15 19H13.5V21H15V19ZM14.5 20V14H12.5V20H14.5ZM13.5 15H19V13H13.5V15ZM18 14V15.5H20V14H18ZM19 19H16V21H19V19ZM18 16.5V20H20V16.5H18ZM16 17.5H19V15.5H16V17.5ZM17 20V16.5H15V20H17ZM19 12H12.5V14H19V12ZM11.5 13V20H13.5V13H11.5ZM20 20H6V22H20V20ZM7 21V11H5V21H7ZM19 11V21H21V11H19ZM19 14.5H15V16.5H19V14.5ZM14 15.5V20H16V15.5H14Z" fill="#CDA269" mask="url(#path-1-inside-1_2413_854)"/>
</svg>
