<svg width="25" height="25" viewBox="0 0 25 25" fill="none" xmlns="http://www.w3.org/2000/svg">
<path fill-rule="evenodd" clip-rule="evenodd" d="M19 12.5C19 16.0899 16.0899 19 12.5 19C12.2169 19 11.9381 18.9819 11.6646 18.9468C13.7531 18.4739 15.3125 16.6066 15.3125 14.375C15.3125 11.7862 13.2138 9.6875 10.625 9.6875C8.39344 9.6875 6.5261 11.2469 6.05319 13.3354C6.01809 13.0619 6 12.7831 6 12.5C6 8.91015 8.91015 6 12.5 6C16.0899 6 19 8.91015 19 12.5ZM20 12.5C20 16.6421 16.6421 20 12.5 20C8.35786 20 5 16.6421 5 12.5C5 8.35786 8.35786 5 12.5 5C16.6421 5 20 8.35786 20 12.5ZM10.625 18.0625C12.6616 18.0625 14.3125 16.4116 14.3125 14.375C14.3125 12.3384 12.6616 10.6875 10.625 10.6875C8.58845 10.6875 6.9375 12.3384 6.9375 14.375C6.9375 14.4739 6.94139 14.5718 6.94903 14.6687C7.24012 13.4257 8.35571 12.5 9.6875 12.5C11.2408 12.5 12.5 13.7592 12.5 15.3125C12.5 16.6443 11.5743 17.7599 10.3313 18.051C10.4282 18.0586 10.5261 18.0625 10.625 18.0625ZM9.6875 17.125C10.6885 17.125 11.5 16.3135 11.5 15.3125C11.5 14.3115 10.6885 13.5 9.6875 13.5C8.68648 13.5 7.875 14.3115 7.875 15.3125C7.875 16.3135 8.68648 17.125 9.6875 17.125Z" fill="#818181"/>
</svg>
