<svg width="25" height="25" viewBox="0 0 25 25" fill="none" xmlns="http://www.w3.org/2000/svg">
<path fill-rule="evenodd" clip-rule="evenodd" d="M10.1562 5H20L20 14.375C20 15.3596 19.8054 16.7321 19.1949 17.8768C18.5724 19.0439 17.4958 20 15.7812 20H7.8125C7.07656 20 6.52057 19.6446 6.12486 19.1277C5.74173 18.6272 5.49964 17.9678 5.34069 17.2953C5.02202 15.9471 5 14.3736 5 13.4375V12.9688H10.1563L10.1562 5ZM10.154 13.9062H5.94015C5.95145 14.8243 6.00711 16.0391 6.25306 17.0797C6.3988 17.6963 6.60202 18.2087 6.86928 18.5578C7.12397 18.8905 7.42344 19.0625 7.8125 19.0625C8.36331 19.0625 8.75926 18.863 9.06576 18.5384C9.38567 18.1995 9.62425 17.7053 9.79412 17.1061C10.085 16.0798 10.1432 14.8651 10.154 13.9062ZM9.85426 19.0625H15.7812C17.0667 19.0625 17.8651 18.378 18.3676 17.4357C18.8821 16.471 19.0625 15.2654 19.0625 14.375L19.0625 5.9375H11.0938L11.0938 13.4375C11.0938 14.4311 11.0773 16.0169 10.6961 17.3617C10.52 17.9828 10.2572 18.587 9.85426 19.0625Z" fill="#CDA269"/>
<mask id="path-2-inside-1_2413_875" fill="white">
<path fill-rule="evenodd" clip-rule="evenodd" d="M14.8438 9.39813C13.7875 9.60555 12.9688 10.5 12.9688 11.6071V11.9031L16.6863 13.6734C16.5505 14.2533 16.0028 14.7098 15.3125 14.7098C14.514 14.7098 13.9062 14.0989 13.9062 13.3929H12.9688C12.9688 14.5 13.7875 15.3945 14.8438 15.6019V16.25H15.7812V15.6019C16.8375 15.3945 17.6562 14.5 17.6562 13.3929V13.0969L13.9387 11.3266C14.0745 10.7467 14.6222 10.2902 15.3125 10.2902C16.111 10.2902 16.7188 10.9011 16.7188 11.6071H17.6562C17.6562 10.5 16.8375 9.60555 15.7812 9.39813V8.75H14.8438V9.39813Z"/>
</mask>
<path fill-rule="evenodd" clip-rule="evenodd" d="M14.8438 9.39813C13.7875 9.60555 12.9688 10.5 12.9688 11.6071V11.9031L16.6863 13.6734C16.5505 14.2533 16.0028 14.7098 15.3125 14.7098C14.514 14.7098 13.9062 14.0989 13.9062 13.3929H12.9688C12.9688 14.5 13.7875 15.3945 14.8438 15.6019V16.25H15.7812V15.6019C16.8375 15.3945 17.6562 14.5 17.6562 13.3929V13.0969L13.9387 11.3266C14.0745 10.7467 14.6222 10.2902 15.3125 10.2902C16.111 10.2902 16.7188 10.9011 16.7188 11.6071H17.6562C17.6562 10.5 16.8375 9.60555 15.7812 9.39813V8.75H14.8438V9.39813Z" fill="#967140"/>
<path d="M14.8438 9.39813L15.0364 10.3794L15.8438 10.2209V9.39813H14.8438ZM12.9688 11.9031H11.9688V12.5345L12.5388 12.806L12.9688 11.9031ZM16.6863 13.6734L17.66 13.9014L17.8437 13.1169L17.1162 12.7705L16.6863 13.6734ZM13.9062 13.3929H14.9062V12.3929H13.9062V13.3929ZM12.9688 13.3929V12.3929H11.9688V13.3929H12.9688ZM14.8438 15.6019H15.8438V14.7791L15.0364 14.6206L14.8438 15.6019ZM14.8438 16.25H13.8438V17.25H14.8438V16.25ZM15.7812 16.25V17.25H16.7812V16.25H15.7812ZM15.7812 15.6019L15.5886 14.6206L14.7812 14.7791V15.6019H15.7812ZM17.6562 13.0969H18.6562V12.4655L18.0862 12.194L17.6562 13.0969ZM13.9387 11.3266L12.965 11.0986L12.7813 11.8831L13.5088 12.2295L13.9387 11.3266ZM16.7188 11.6071H15.7188V12.6071H16.7188V11.6071ZM17.6562 11.6071V12.6071H18.6562V11.6071H17.6562ZM15.7812 9.39813H14.7812V10.2209L15.5886 10.3794L15.7812 9.39813ZM15.7812 8.75H16.7812V7.75H15.7812V8.75ZM14.8438 8.75V7.75H13.8438V8.75H14.8438ZM14.6511 8.41687C13.1712 8.70747 11.9688 9.97715 11.9688 11.6071H13.9688C13.9688 11.0228 14.4038 10.5036 15.0364 10.3794L14.6511 8.41687ZM11.9688 11.6071V11.9031H13.9688V11.6071H11.9688ZM15.7126 13.4454C15.6865 13.5568 15.5552 13.7098 15.3125 13.7098V15.7098C16.4503 15.7098 17.4145 14.9497 17.66 13.9014L15.7126 13.4454ZM15.3125 13.7098C15.0247 13.7098 14.9062 13.5059 14.9062 13.3929H12.9062C12.9062 14.6919 14.0034 15.7098 15.3125 15.7098V13.7098ZM13.9062 12.3929H12.9688V14.3929H13.9062V12.3929ZM11.9688 13.3929C11.9688 15.0228 13.1712 16.2925 14.6511 16.5831L15.0364 14.6206C14.4038 14.4964 13.9688 13.9772 13.9688 13.3929H11.9688ZM13.8438 15.6019V16.25H15.8438V15.6019H13.8438ZM14.8438 17.25H15.7812V15.25H14.8438V17.25ZM16.7812 16.25V15.6019H14.7812V16.25H16.7812ZM15.9739 16.5831C17.4538 16.2925 18.6562 15.0228 18.6562 13.3929H16.6562C16.6562 13.9772 16.2212 14.4964 15.5886 14.6206L15.9739 16.5831ZM18.6562 13.3929V13.0969H16.6562V13.3929H18.6562ZM14.9124 11.5546C14.9385 11.4432 15.0698 11.2902 15.3125 11.2902V9.29018C14.1747 9.29018 13.2105 10.0503 12.965 11.0986L14.9124 11.5546ZM15.3125 11.2902C15.6003 11.2902 15.7188 11.4941 15.7188 11.6071H17.7188C17.7188 10.3081 16.6216 9.29018 15.3125 9.29018V11.2902ZM16.7188 12.6071H17.6562V10.6071H16.7188V12.6071ZM18.6562 11.6071C18.6562 9.97715 17.4538 8.70747 15.9739 8.41687L15.5886 10.3794C16.2212 10.5036 16.6562 11.0228 16.6562 11.6071H18.6562ZM16.7812 9.39813V8.75H14.7812V9.39813H16.7812ZM15.7812 7.75H14.8438V9.75H15.7812V7.75ZM13.8438 8.75V9.39813H15.8438V8.75H13.8438ZM12.5388 12.806L16.2564 14.5762L17.1162 12.7705L13.3987 11.0003L12.5388 12.806ZM18.0862 12.194L14.3686 10.4238L13.5088 12.2295L17.2263 13.9997L18.0862 12.194Z" fill="#CDA269" mask="url(#path-2-inside-1_2413_875)"/>
</svg>
