<svg width="25" height="25" viewBox="0 0 25 25" fill="none" xmlns="http://www.w3.org/2000/svg">
<path fill-rule="evenodd" clip-rule="evenodd" d="M10.1562 5H20L20 14.375C20 15.3596 19.8054 16.7321 19.1949 17.8768C18.5724 19.0439 17.4958 20 15.7812 20H7.8125C7.07656 20 6.52057 19.6446 6.12486 19.1277C5.74173 18.6272 5.49964 17.9678 5.34069 17.2953C5.02202 15.9471 5 14.3736 5 13.4375V12.9688H10.1563L10.1562 5ZM10.154 13.9062H5.94015C5.95145 14.8243 6.00711 16.0391 6.25306 17.0797C6.3988 17.6963 6.60202 18.2087 6.86928 18.5578C7.12397 18.8905 7.42344 19.0625 7.8125 19.0625C8.36331 19.0625 8.75926 18.863 9.06576 18.5384C9.38567 18.1995 9.62425 17.7053 9.79412 17.1061C10.085 16.0798 10.1432 14.8651 10.154 13.9062ZM9.85426 19.0625H15.7812C17.0667 19.0625 17.8651 18.378 18.3676 17.4357C18.8821 16.471 19.0625 15.2654 19.0625 14.375L19.0625 5.9375H11.0938L11.0938 13.4375C11.0938 14.4311 11.0773 16.0169 10.6961 17.3617C10.52 17.9828 10.2572 18.587 9.85426 19.0625Z" fill="#818181"/>
<path fill-rule="evenodd" clip-rule="evenodd" d="M14.8438 9.39813C13.7875 9.60555 12.9688 10.5 12.9688 11.6071V11.9031L16.6863 13.6734C16.5505 14.2533 16.0028 14.7098 15.3125 14.7098C14.514 14.7098 13.9062 14.0989 13.9062 13.3929H12.9688C12.9688 14.5 13.7875 15.3945 14.8438 15.6019V16.25H15.7812V15.6019C16.8375 15.3945 17.6562 14.5 17.6562 13.3929V13.0969L13.9387 11.3266C14.0745 10.7467 14.6222 10.2902 15.3125 10.2902C16.111 10.2902 16.7188 10.9011 16.7188 11.6071H17.6562C17.6562 10.5 16.8375 9.60555 15.7812 9.39813V8.75H14.8438V9.39813Z" fill="#818181"/>
</svg>
