<svg width="32" height="32" viewBox="0 0 32 32" fill="none" xmlns="http://www.w3.org/2000/svg">
<path fill-rule="evenodd" clip-rule="evenodd" d="M27 8.375H5C4.44772 8.375 4 8.82272 4 9.375V26.125C4 26.6773 4.44772 27.125 5 27.125H27C27.5523 27.125 28 26.6773 28 26.125V9.375C28 8.82272 27.5523 8.375 27 8.375ZM5 6.375C3.34315 6.375 2 7.71815 2 9.375V26.125C2 27.7819 3.34315 29.125 5 29.125H27C28.6569 29.125 30 27.7819 30 26.125V9.375C30 7.71815 28.6569 6.375 27 6.375H5Z" fill="#CDA269"/>
<path fill-rule="evenodd" clip-rule="evenodd" d="M30 12.5H2V10.5H30V12.5Z" fill="#CDA269"/>
<path fill-rule="evenodd" clip-rule="evenodd" d="M16.6529 14.6415C16.4009 14.1307 15.622 14.1085 15.3471 14.6415L13.8579 17.5952L10.4902 18.0615C9.89453 18.1504 9.66543 18.861 10.1007 19.283L12.5063 21.5704L11.9335 24.7906C11.8419 25.3681 12.4833 25.8122 13.0103 25.5457L16.0115 24.0134L18.9897 25.5457C19.5167 25.8122 20.1581 25.3681 20.0665 24.7906L19.8825 23.756L19.4937 21.5704L21.8993 19.283C22.3346 18.861 22.1055 18.1504 21.5098 18.0615L18.165 17.5952L17.1235 15.5606L16.6529 14.6415ZM16.0086 17.7719L15.1715 19.4323L13.4158 19.6755L14.6636 20.862L14.3518 22.6151L16.0149 21.766L17.6464 22.6054L17.3364 20.862L18.5865 19.6733L16.8586 19.4324L16.0086 17.7719Z" fill="#CDA269"/>
<path d="M8.125 3.75C8.125 3.26675 8.51675 2.875 9 2.875C9.48325 2.875 9.875 3.26675 9.875 3.75V6.375C9.875 6.85825 9.48325 7.25 9 7.25C8.51675 7.25 8.125 6.85825 8.125 6.375V3.75Z" fill="#967140"/>
<path fill-rule="evenodd" clip-rule="evenodd" d="M8.125 6.375C8.125 6.85825 8.51675 7.25 9 7.25C9.48325 7.25 9.875 6.85825 9.875 6.375V3.75C9.875 3.26675 9.48325 2.875 9 2.875C8.51675 2.875 8.125 3.26675 8.125 3.75V6.375Z" fill="#CDA269"/>
<path d="M22.125 3.75C22.125 3.26675 22.5168 2.875 23 2.875C23.4832 2.875 23.875 3.26675 23.875 3.75V6.375C23.875 6.85825 23.4832 7.25 23 7.25C22.5168 7.25 22.125 6.85825 22.125 6.375V3.75Z" fill="#967140"/>
<path fill-rule="evenodd" clip-rule="evenodd" d="M22.125 6.375C22.125 6.85825 22.5168 7.25 23 7.25C23.4832 7.25 23.875 6.85825 23.875 6.375V3.75C23.875 3.26675 23.4832 2.875 23 2.875C22.5168 2.875 22.125 3.26675 22.125 3.75V6.375Z" fill="#CDA269"/>
</svg>
