<svg width="30" height="31" viewBox="0 0 30 31" fill="none" xmlns="http://www.w3.org/2000/svg">
<circle cx="15" cy="15.0251" r="15" fill="white"/>
<path d="M15 2.02515C22.176 2.02515 28 7.84915 28 15.0251C28 22.2011 22.176 28.0251 15 28.0251C7.824 28.0251 2 22.2011 2 15.0251C2 7.84915 7.824 2.02515 15 2.02515ZM15 4.60786C9.24528 4.60786 4.58272 9.27043 4.58272 15.0251C4.58272 20.7799 9.24528 25.4424 15 25.4424C20.7547 25.4424 25.4173 20.7799 25.4173 15.0251C25.4173 9.27043 20.7547 4.60786 15 4.60786ZM22.3147 8.14387V13.8984H17.964V15.8571H22.3147V21.7331H15.936V19.8611H20.2867V17.7291H15.936V11.9744H20.2867V10.0159H15.936V8.14387H22.3147ZM14.064 8.14387V10.0159H9.71328V11.9744H14.064V17.7291H9.71328V19.8611H14.064V21.7331H7.68528V15.8571H12.036V13.8984H7.68528V8.14387H14.064Z" fill="#CDA269"/>
</svg>
