<svg width="17" height="19" viewBox="0 0 17 19" fill="none" xmlns="http://www.w3.org/2000/svg">
<path d="M15.7028 2.57031C16.0192 2.92188 16.195 3.30859 16.195 3.76562V13.1875C16.195 13.6797 16.0192 14.0664 15.7028 14.3828C15.3512 14.7344 14.9645 14.875 14.5075 14.875H11.695V16.5625C11.695 17.0547 11.5192 17.4414 11.2028 17.7578C10.8512 18.1094 10.4645 18.25 10.0075 18.25H2.1325C1.64031 18.25 1.25359 18.1094 0.937187 17.7578C0.585625 17.4414 0.445 17.0547 0.445 16.5625V5.3125C0.445 4.85547 0.585625 4.46875 0.937187 4.11719C1.25359 3.80078 1.64031 3.625 2.1325 3.625H4.945V1.9375C4.945 1.48047 5.08562 1.09375 5.43719 0.742188C5.75359 0.425781 6.14031 0.25 6.6325 0.25H12.6794C13.1364 0.25 13.5231 0.425781 13.8747 0.742188L15.7028 2.57031ZM9.79656 16.5625C9.83172 16.5625 9.86687 16.5625 9.93719 16.4922C9.97234 16.457 10.0075 16.4219 10.0075 16.3516V14.875H6.6325C6.14031 14.875 5.75359 14.7344 5.43719 14.3828C5.08562 14.0664 4.945 13.6797 4.945 13.1875V5.3125H2.34344C2.27312 5.3125 2.23797 5.34766 2.20281 5.38281C2.1325 5.45312 2.1325 5.48828 2.1325 5.52344V16.3516C2.1325 16.4219 2.1325 16.457 2.20281 16.4922C2.23797 16.5625 2.27312 16.5625 2.34344 16.5625H9.79656ZM14.2966 13.1875C14.3317 13.1875 14.3669 13.1875 14.4372 13.1172C14.4723 13.082 14.5075 13.0469 14.5075 12.9766V5.875H11.4137C11.1677 5.875 10.9567 5.80469 10.8161 5.62891C10.6403 5.48828 10.57 5.27734 10.57 5.03125V1.9375H6.84344C6.77312 1.9375 6.73797 1.97266 6.70281 2.00781C6.6325 2.07812 6.6325 2.11328 6.6325 2.14844V12.9766C6.6325 13.0469 6.6325 13.082 6.70281 13.1172C6.73797 13.1875 6.77312 13.1875 6.84344 13.1875H14.2966ZM14.5075 4.1875V3.83594C14.5075 3.80078 14.4723 3.76562 14.4372 3.69531L12.7497 2.00781C12.6794 1.97266 12.6442 1.9375 12.6091 1.9375H12.2575V4.1875H14.5075Z" fill="#CDA269"/>
</svg>
