<svg width="32" height="32" viewBox="0 0 32 32" fill="none" xmlns="http://www.w3.org/2000/svg">
<path d="M28.05 9.42806L28.0487 9.42777C28.0257 9.52772 28.004 9.62893 27.9822 9.73066C27.9335 9.95849 27.8842 10.1889 27.8175 10.4136L27.8174 10.4138C27.5731 11.229 27.1189 11.9206 26.518 12.5163L26.5179 12.5164C24.4911 14.5173 22.465 16.5198 20.4397 18.5242L20.4396 18.5243C18.8287 20.1085 16.608 20.4961 14.5875 19.5124L14.5874 19.5124C14.1086 19.2781 13.6775 18.9303 13.2765 18.5843C12.8354 18.2039 12.8567 17.5537 13.2472 17.1464C13.4307 16.9513 13.6844 16.8357 13.9534 16.8244C14.2224 16.813 14.4852 16.9068 14.6848 17.0857C15.1599 17.5077 15.6754 17.8273 16.307 17.927L16.307 17.927C17.225 18.0726 18.0781 17.8945 18.7356 17.2571C20.9189 15.1399 23.0902 13.0108 25.2206 10.8402L25.2206 10.8402C26.2818 9.76002 26.1875 7.98363 25.104 6.89647C24.5798 6.37737 23.8767 6.07273 23.1351 6.04354C22.3934 6.01434 21.668 6.26273 21.1037 6.73897C20.9993 6.82789 20.8998 6.92392 20.8013 7.02193L20.8011 7.02206C19.7331 8.07663 18.6655 9.13197 17.5983 10.1881L17.5983 10.1881C17.4396 10.3449 17.2635 10.4544 17.0713 10.5041C16.8787 10.5539 16.6731 10.5429 16.4574 10.4637C16.4574 10.4637 16.4574 10.4637 16.4574 10.4637L16.4746 10.4168C16.0933 10.2769 15.8734 9.98892 15.8313 9.58478L28.05 9.42806ZM28.05 9.42806L28.05 9.41644M28.05 9.42806L28.05 9.41644M28.05 9.41644L28.0482 8.49425L28.0496 8.49425L28.0469 8.4827C28.0412 8.45916 28.0354 8.43689 28.0297 8.41528C28.0183 8.37208 28.0076 8.33153 28.0008 8.28879L28.0008 8.28862M28.05 9.41644L28.0008 8.28862M28.0008 8.28862C27.6911 6.37576 26.6411 5.00031 24.8148 4.31133L28.0008 8.28862ZM27.9514 8.29661C27.9586 8.34179 27.9703 8.38644 27.9821 8.4311C27.9876 8.45216 27.9932 8.47322 27.9982 8.49435L28 9.41653C27.9766 9.51816 27.9547 9.62028 27.9328 9.72248C27.8843 9.94937 27.8357 10.1766 27.7695 10.3994C27.528 11.2054 27.0788 11.8899 26.4828 12.4808C24.4559 14.4817 22.4299 16.4843 20.4046 18.4886C18.8084 20.0584 16.6103 20.4417 14.6094 19.4675C14.1368 19.2362 13.7099 18.8922 13.3092 18.5464C12.8928 18.1874 12.9097 17.5705 13.2835 17.1808C13.458 16.9952 13.6994 16.8851 13.9555 16.8743C14.2116 16.8635 14.4616 16.9528 14.6515 17.123C15.1306 17.5485 15.6546 17.8746 16.2992 17.9764L27.9514 8.29661Z" fill="#CDA269" stroke="#CDA269" stroke-width="0.1"/>
<path d="M9.38765 27.0501L9.38796 27.0487C9.27581 27.0229 9.16138 26.9997 9.04621 26.9764C8.79093 26.9247 8.53198 26.8723 8.28599 26.7887L8.28592 26.7886C5.24001 25.7481 4.00833 22.2661 5.74093 19.5817L5.7412 19.5813C5.9457 19.2712 6.18293 18.9835 6.44889 18.723C8.22229 16.9549 10.0025 15.1928 11.7895 13.4367L11.7896 13.4366C13.1456 12.108 14.7674 11.6622 16.6217 12.1304C17.446 12.3381 18.1542 12.7654 18.7557 13.3557L18.756 13.356C18.94 13.5394 19.0454 13.7863 19.0499 14.045C19.0543 14.3037 18.9576 14.554 18.78 14.7436C18.6024 14.9332 18.3578 15.0474 18.0973 15.0626C17.8368 15.0777 17.5804 14.9925 17.3817 14.8248L17.3807 14.824L17.3808 14.824C16.919 14.4137 16.4185 14.1063 15.8035 14.0104C14.9137 13.872 14.1192 14.0783 13.4425 14.6663C13.2023 14.8753 12.9781 15.101 12.7526 15.3281C12.6708 15.4105 12.5887 15.4931 12.5057 15.5752M9.38765 27.0501L12.4706 15.5396M9.38765 27.0501L9.39948 27.05M9.38765 27.0501L9.39948 27.05M12.5057 15.5752L12.4706 15.5396M12.5057 15.5752C12.5057 15.5752 12.5057 15.5751 12.5057 15.5751L12.4706 15.5396M12.5057 15.5752C10.9611 17.1036 9.41693 18.6331 7.87311 20.1634M12.4706 15.5396C10.926 17.0681 9.38175 18.5975 7.83791 20.1279M7.87311 20.1634C7.87314 20.1634 7.87316 20.1634 7.87318 20.1634L7.83791 20.1279M7.87311 20.1634L7.83791 20.1279M7.87311 20.1634L7.83791 20.1279M9.39948 27.05L10.3096 27.0444L10.3202 27.0443M9.39948 27.05L10.3202 27.0443M10.3202 27.0443L10.3298 27.04M10.3202 27.0443L10.3298 27.04M10.3298 27.04C10.3659 27.0238 10.4036 27.0113 10.4423 27.0026L10.3298 27.04ZM7.55975 23.8995C7.55975 23.8995 7.55975 23.8995 7.55974 23.8995L7.51975 23.9295L7.55975 23.8995ZM15.5597 21.2356C15.5595 21.2356 15.5594 21.2355 15.5592 21.2355L15.5476 21.2841L15.5601 21.2357C15.56 21.2357 15.5598 21.2357 15.5597 21.2356ZM16.0533 22.8166L16.0913 22.8491C16.0914 22.849 16.0914 22.8489 16.0915 22.8488C16.0916 22.8487 16.0916 22.8486 16.0917 22.8486L16.0533 22.8166ZM15.7587 23.1897C15.7587 23.1897 15.7588 23.1897 15.7588 23.1896L15.7237 23.154L15.7585 23.19C15.7585 23.1899 15.7586 23.1898 15.7587 23.1897ZM13.1852 25.7207C13.1852 25.7207 13.1852 25.7207 13.1852 25.7207L13.1506 25.6846L13.1852 25.7207Z" fill="#CDA269" stroke="#CDA269" stroke-width="0.1"/>
<path d="M26.9686 19.0038L26.9687 18.9538C26.8377 18.9534 26.7066 18.9529 26.5755 18.9525C25.7226 18.9495 24.8684 18.9465 24.0151 18.9608L24.0151 18.9608L24.0137 18.9609C23.804 18.9703 23.5998 19.0314 23.4193 19.1388C23.0389 19.3605 22.8801 19.8191 22.9786 20.2546L22.9786 20.2547C23.0692 20.6546 23.4081 21.0207 23.8401 21.0315L23.8402 21.0315C24.9407 21.0575 26.0427 21.0539 27.1434 21.0344L27.1434 21.0344C27.533 21.0275 27.7944 20.7668 27.9556 20.4318C27.9696 20.4034 27.9826 20.3761 27.9953 20.3493C28.0117 20.3149 28.0275 20.2815 28.0446 20.248L28.05 20.2373V20.2253V19.8036V19.7946L28.0469 19.7862C27.956 19.5405 27.8301 19.332 27.6536 19.1848C27.4762 19.0368 27.2513 18.9538 26.9686 18.9538V19.0038ZM26.9686 19.0038C27.5128 19.0038 27.8219 19.3223 28 19.8036M26.9686 19.0038C26.8375 19.0034 26.7064 19.0029 26.5753 19.0025C25.7223 18.9995 24.8687 18.9965 24.0159 19.0108C23.8144 19.0199 23.6182 19.0787 23.4447 19.1819C23.0861 19.3907 22.9328 19.8254 23.0274 20.2436L28 19.8036M28 19.8036V20.2253V19.8036ZM23.0274 20.2436L23.0274 20.2436L23.0274 20.2436Z" fill="#CDA269" stroke="#CDA269" stroke-width="0.1"/>
<path d="M20.7904 27.05L20.7824 27.0472C20.474 26.9399 20.2595 26.7728 20.1256 26.5485C19.9922 26.3252 19.9419 26.0505 19.9511 25.7334C19.9664 25.1922 19.9634 24.6522 19.9603 24.1111L20.7904 27.05ZM20.7904 27.05H20.7989M20.7904 27.05H20.7989M20.7989 27.05H21.2179H21.2273L21.236 27.0466C21.4851 26.9498 21.6883 26.8153 21.8291 26.6314C21.9703 26.4469 22.0459 26.2166 22.0459 25.9339C22.0462 25.7069 22.047 25.4798 22.0479 25.2525C22.0507 24.5196 22.0535 23.7858 22.0366 23.0525L22.0366 23.0525L22.0365 23.0513C22.0254 22.8108 21.9514 22.5774 21.8218 22.375L21.8218 22.375M20.7989 27.05L21.8218 22.375M21.8218 22.375C21.5762 21.9917 21.0978 21.8635 20.6704 22.0076C20.2407 22.1525 19.9599 22.5357 19.9598 23.0187L21.8218 22.375Z" fill="#CDA269" stroke="#CDA269" stroke-width="0.1"/>
<path d="M7.79362 5.95033L7.79362 5.95034C7.90738 5.94707 8.02056 5.96766 8.12589 6.01078C8.23105 6.05382 8.32607 6.11837 8.40488 6.20029C8.47131 6.26637 8.53774 6.33245 8.60417 6.39851C9.33559 7.12597 10.0665 7.85291 10.7884 8.58816L7.79362 5.95033ZM7.79362 5.95033L7.79324 5.95035M7.79362 5.95033L7.79324 5.95035M7.79324 5.95035C7.61791 5.95672 7.46176 6.00051 7.33126 6.0853C7.20055 6.17024 7.09837 6.29451 7.02848 6.45722L7.02847 6.45724C6.95372 6.63153 6.93229 6.8021 6.96453 6.96405C6.99674 7.12587 7.08178 7.27535 7.21391 7.4089C7.99902 8.20596 8.78945 8.99754 9.58521 9.78363L9.58524 9.78366M7.79324 5.95035L9.58524 9.78366M9.58524 9.78366C9.94136 10.1348 10.4648 10.1361 10.7988 9.80321C11.1323 9.47075 11.1386 8.94432 10.7884 8.58819L9.58524 9.78366Z" fill="#CDA269" stroke="#CDA269" stroke-width="0.1"/>
<path d="M26.0497 24.1956C26.0528 24.0848 26.0328 23.9746 25.9908 23.872C25.949 23.7695 25.8861 23.6769 25.8064 23.6C25.0071 22.7992 24.2068 21.9993 23.4056 21.2004L23.4056 21.2004L23.4051 21.1999C23.3674 21.1632 23.3264 21.13 23.2826 21.1005C23.1341 20.9981 22.9568 20.9455 22.7763 20.9503C22.5957 20.9552 22.4214 21.0173 22.2786 21.1277L22.2786 21.1276L22.2784 21.1277C22.0673 21.2919 21.9561 21.5193 21.9502 21.7583C21.9444 21.9968 22.0436 22.243 22.2459 22.4465L22.246 22.4466C22.891 23.0925 23.5368 23.7376 24.1834 24.3819L24.1834 24.3819C24.2212 24.4195 24.2589 24.4579 24.2969 24.4965C24.4172 24.619 24.54 24.7439 24.6732 24.8526M26.0497 24.1956C26.0455 24.3672 26.0051 24.5203 25.9248 24.6499C25.8444 24.7797 25.7256 24.8832 25.5693 24.9578C25.4134 25.0321 25.2569 25.0626 25.1045 25.0453C24.952 25.0281 24.8068 24.9634 24.6732 24.8526M26.0497 24.1956C26.0497 24.1956 26.0497 24.1957 26.0497 24.1957L25.9997 24.1943M26.0497 24.1956C26.0497 24.1956 26.0497 24.1955 26.0497 24.1955L25.9997 24.1943M24.6732 24.8526C24.6732 24.8525 24.6731 24.8525 24.6731 24.8525L24.705 24.814M24.6732 24.8526C24.6733 24.8526 24.6733 24.8527 24.6734 24.8527L24.705 24.814M24.705 24.814C24.9592 25.0249 25.2502 25.0545 25.5477 24.9126C25.8453 24.7708 25.9917 24.5232 25.9997 24.1943M24.705 24.814L25.9997 24.1943M23.3703 21.2358C24.1716 22.0348 24.972 22.8348 25.7714 23.6357L22.3091 21.1672C22.4436 21.0633 22.6077 21.0049 22.7777 21.0003C22.9476 20.9957 23.1146 21.0453 23.2545 21.1418C23.2958 21.1697 23.3346 21.2011 23.3703 21.2358Z" fill="#CDA269" stroke="#CDA269" stroke-width="0.1"/>
<path d="M13.0483 7.93773H13.0483C13.0428 8.57004 12.6158 9.03611 12.021 9.04972C12.021 9.04972 12.021 9.04972 12.021 9.04972L12.0198 8.99973C11.4843 9.01206 11.0321 8.59919 11.0181 8.01306L13.0483 7.93773ZM13.0483 7.93773V7.93729M13.0483 7.93773V7.93729M13.0483 7.93729V7.93446V7.93162V7.92879V7.92595V7.92312V7.92028V7.91744V7.91461V7.91177V7.90894V7.9061V7.90327V7.90043V7.89759V7.89476V7.89192V7.88909V7.88625V7.88341V7.88058V7.87774V7.87491V7.87207V7.86924V7.8664V7.86356V7.86073V7.85789V7.85506V7.85222V7.84938V7.84655V7.84371V7.84088V7.83804V7.8352V7.83237V7.82953V7.8267V7.82386V7.82102V7.81819V7.81535V7.81252V7.80968V7.80684V7.80401V7.80117V7.79833V7.7955V7.79266V7.78983V7.78699V7.78415V7.78132V7.77848V7.77564V7.77281V7.76997V7.76714V7.7643V7.76146V7.75863V7.75579V7.75295V7.75012V7.74728V7.74445V7.74161V7.73877V7.73594V7.7331V7.73026V7.72743V7.72459V7.72175V7.71892V7.71608V7.71324V7.71041V7.70757V7.70473V7.7019V7.69906V7.69623V7.69339V7.69055V7.68772V7.68488V7.68204V7.67921V7.67637V7.67353V7.6707V7.66786V7.66502V7.66219V7.65935V7.65651V7.65368V7.65084V7.648V7.64517V7.64233V7.63949V7.63666V7.63382V7.63098V7.62815V7.62531V7.62247V7.61964V7.6168V7.61396V7.61112V7.60829V7.60545V7.60261V7.59978V7.59694V7.5941V7.59127V7.58843V7.58559V7.58276V7.57992V7.57708V7.57425V7.57141V7.56857V7.56574V7.5629V7.56006V7.55722V7.55439V7.55155V7.54871V7.54588V7.54304V7.5402V7.53737V7.53453V7.53169V7.52886V7.52602V7.52318V7.52034V7.51751V7.51467V7.51183V7.509V7.50616V7.50332V7.50049V7.49765V7.49481V7.49197V7.48914V7.4863V7.48346V7.48063V7.47779V7.47495V7.47211V7.46928V7.46644V7.4636V7.46077V7.45793V7.45509V7.45225V7.44942V7.44658V7.44374V7.44091V7.43807V7.43523V7.43239V7.42956V7.42672V7.42388V7.42105V7.41821V7.41537V7.41253V7.4097V7.40686V7.40402V7.40119V7.39835V7.39551V7.39267V7.38984V7.387V7.38416V7.38133V7.37849V7.37565V7.37281V7.36998V7.36714V7.3643V7.36146V7.35863V7.35579V7.35295V7.35012V7.34728V7.34444V7.3416V7.33877V7.33593V7.33309V7.33026V7.32742V7.32458V7.32174V7.31891V7.31607V7.31323V7.31039V7.30756V7.30472V7.30188V7.29905V7.29621V7.29337V7.29053V7.2877V7.28486V7.28202V7.27918V7.27635V7.27351V7.27067V7.26783V7.265V7.26216V7.25932V7.25649V7.25365V7.25081V7.24797V7.24514V7.2423V7.23946V7.23662V7.23379V7.23095V7.22811V7.22528V7.22244V7.2196V7.21676V7.21393V7.21109V7.20825V7.20541V7.20258V7.19974V7.1969V7.19406V7.19123V7.18839V7.18555V7.18272V7.17988V7.17704V7.1742V7.17137V7.16853V7.16569V7.16285V7.16002V7.15718V7.15434V7.15151V7.14867V7.14583V7.14299V7.14016V7.13732V7.13448V7.13164V7.12881V7.12597V7.12313V7.1203V7.11746V7.11462V7.11178V7.10895V7.10611V7.10327V7.10043V7.0976V7.09476V7.09192V7.08908V7.08625V7.08341V7.08057V7.07774V7.0749V7.07206V7.06922V7.06639V7.06355V7.06071V7.05788V7.05504V7.0522V7.04936V7.04653V7.04369V7.04085V7.03801V7.03518V7.03234V7.0295V7.02667V7.02383V7.02099V7.01815V7.01532V7.01248V7.00964V7.00681V7.00397V7.00113V6.99829V6.99546V6.99262V6.98978V6.98695V6.98411V6.98127V6.97843V6.9756V6.97276V6.96992V6.96709V6.96425V6.96141V6.95857V6.95574V6.9529V6.95006V6.94723V6.94439V6.94155V6.93871V6.93588V6.93304V6.9302V6.92737V6.92453V6.92169V6.91886V6.91602V6.91318V6.91034V6.90751V6.90467V6.90183V6.899V6.89616V6.89332V6.89049V6.88765V6.88481V6.88197V6.87914V6.8763V6.87346V6.87063V6.86779V6.86495V6.86212V6.85928V6.85644V6.8536V6.85077V6.84793V6.84509V6.84226V6.83942V6.83658V6.83375V6.83091V6.82807V6.82524V6.8224V6.81956V6.81673V6.81389V6.81105V6.80822V6.80538V6.80254V6.79971V6.79687V6.79403V6.79119V6.78836V6.78552V6.78268V6.77985V6.77701V6.77417V6.77134V6.7685V6.76566V6.76283V6.75999V6.75715V6.75432V6.75148V6.74864V6.74581V6.74297V6.74013V6.7373V6.73446V6.73163V6.72879V6.72595V6.72312V6.72028V6.71744V6.71461V6.71177V6.70893V6.7061V6.70326V6.70042V6.69759V6.69475V6.69191V6.68908V6.68624V6.6834V6.68057V6.67773V6.6749V6.67206V6.66922V6.66639V6.66355V6.66071V6.65788V6.65504V6.65221V6.64937V6.64653V6.6437V6.64086V6.63802V6.63519V6.63235V6.62952V6.62668V6.62384V6.62101V6.61817V6.61533V6.6125V6.60966V6.60683V6.60399V6.60115V6.59832V6.59548V6.59265V6.58981V6.58697V6.58414V6.5813V6.57847V6.57563V6.57279V6.56996V6.56712V6.56429V6.56145V6.55861V6.55578V6.55294V6.55011V6.54727V6.54443V6.5416V6.53876V6.53593V6.53309V6.53025V6.52742V6.52458V6.52175V6.51891V6.51608V6.51324V6.5104V6.50757V6.50473V6.5019V6.49906V6.49623V6.49339V6.49056V6.48772V6.48488C13.0483 6.31669 13.0487 6.14842 13.0491 5.98023C13.0499 5.67206 13.0507 5.36413 13.0488 5.05742L13.0488 5.05729M13.0483 7.93729L13.0488 5.05729M13.0488 5.05729C13.0434 4.43274 12.6183 3.9698 12.0402 3.9506C11.4637 3.93147 10.9828 4.36834 10.9681 4.99075L13.0488 5.05729Z" fill="#CDA269" stroke="#CDA269" stroke-width="0.1"/>
<path d="M6.06224 12.0482H6.06186C5.42717 12.0434 4.95944 11.614 4.95014 11.0211L6.06224 12.0482ZM6.06224 12.0482H6.06508H6.06791H6.07075H6.07359H6.07642H6.07926H6.0821H6.08493H6.08777H6.0906H6.09344H6.09628H6.09911H6.10195H6.10479H6.10762H6.11046H6.11329H6.11613H6.11897H6.1218H6.12464H6.12748H6.13031H6.13315H6.13598H6.13882H6.14166H6.14449H6.14733H6.15017H6.153H6.15584H6.15867H6.16151H6.16435H6.16718H6.17002H6.17286H6.17569H6.17853H6.18136H6.1842H6.18704H6.18987H6.19271H6.19555H6.19838H6.20122H6.20406H6.20689H6.20973H6.21256H6.2154H6.21824H6.22107H6.22391H6.22675H6.22958H6.23242H6.23525H6.23809H6.24093H6.24376H6.2466H6.24944H6.25227H6.25511H6.25794H6.26078H6.26362H6.26645H6.26929H6.27213H6.27496H6.2778H6.28063H6.28347H6.28631H6.28914H6.29198H6.29482H6.29765H6.30049H6.30332H6.30616H6.309H6.31183H6.31467H6.31751H6.32034H6.32318H6.32601H6.32885H6.33169H6.33452H6.33736H6.3402H6.34303H6.34587H6.34871H6.35154H6.35438H6.35721H6.36005H6.36289H6.36572H6.36856H6.3714H6.37423H6.37707H6.3799H6.38274H6.38558H6.38841H6.39125H6.39409H6.39692H6.39976H6.40259H6.40543H6.40827H6.4111H6.41394H6.41678H6.41961H6.42245H6.42528H6.42812H6.43096H6.43379H6.43663H6.43947H6.4423H6.44514H6.44797H6.45081H6.45365H6.45648H6.45932H6.46216H6.46499H6.46783H6.47066H6.4735H6.47634H6.47917H6.48201H6.48485H6.48768H6.49052H6.49336H6.49619H6.49903H6.50186H6.5047H6.50754H6.51037H6.51321H6.51605H6.51888H6.52172H6.52455H6.52739H6.53023H6.53306H6.5359H6.53874H6.54157H6.54441H6.54724H6.55008H6.55292H6.55575H6.55859H6.56143H6.56426H6.5671H6.56993H6.57277H6.57561H6.57844H6.58128H6.58412H6.58695H6.58979H6.59262H6.59546H6.5983H6.60113H6.60397H6.60681H6.60964H6.61248H6.61531H6.61815H6.62099H6.62382H6.62666H6.6295H6.63233H6.63517H6.638H6.64084H6.64368H6.64651H6.64935H6.65219H6.65502H6.65786H6.6607H6.66353H6.66637H6.6692H6.67204H6.67488H6.67771H6.68055H6.68339H6.68622H6.68906H6.69189H6.69473H6.69757H6.7004H6.70324H6.70608H6.70891H6.71175H6.71458H6.71742H6.72026H6.72309H6.72593H6.72877H6.7316H6.73444H6.73727H6.74011H6.74295H6.74578H6.74862H6.75146H6.75429H6.75713H6.75996H6.7628H6.76564H6.76847H6.77131H6.77415H6.77698H6.77982H6.78265H6.78549H6.78833H6.79116H6.794H6.79684H6.79967H6.80251H6.80534H6.80818H6.81102H6.81385H6.81669H6.81953H6.82236H6.8252H6.82804H6.83087H6.83371H6.83654H6.83938H6.84222H6.84505H6.84789H6.85073H6.85356H6.8564H6.85923H6.86207H6.86491H6.86774H6.87058H6.87342H6.87625H6.87909H6.88192H6.88476H6.8876H6.89043H6.89327H6.89611H6.89894H6.90178H6.90461H6.90745H6.91029H6.91312H6.91596H6.9188H6.92163H6.92447H6.9273H6.93014H6.93298H6.93581H6.93865H6.94149H6.94432H6.94716H6.94999H6.95283H6.95567H6.9585H6.96134H6.96418H6.96701H6.96985H6.97268H6.97552H6.97836H6.98119H6.98403H6.98687H6.9897H6.99254H6.99538H6.99821H7.00105H7.00388H7.00672H7.00956H7.01239H7.01523H7.01807H7.0209H7.02374H7.02657H7.02941H7.03225H7.03508H7.03792H7.04076H7.04359H7.04643H7.04926H7.0521H7.05494H7.05777H7.06061H7.06345H7.06628H7.06912H7.07195H7.07479H7.07763H7.08046H7.0833H7.08614H7.08897H7.09181H7.09464H7.09748H7.10032H7.10315H7.10599H7.10883H7.11166H7.1145H7.11733H7.12017H7.12301H7.12584H7.12868H7.13152H7.13435H7.13719H7.14003H7.14286H7.1457H7.14853H7.15137H7.15421H7.15704H7.15988H7.16272H7.16555H7.16839H7.17122H7.17406H7.1769H7.17973H7.18257H7.18541H7.18824H7.19108H7.19391H7.19675H7.19959H7.20242H7.20526H7.2081H7.21093H7.21377H7.2166H7.21944H7.22228H7.22511H7.22795H7.23079H7.23362H7.23646H7.23929H7.24213H7.24497H7.2478H7.25064H7.25348H7.25631H7.25915H7.26198H7.26482H7.26766H7.27049H7.27333H7.27617H7.279H7.28184H7.28468H7.28751H7.29035H7.29318H7.29602H7.29886H7.30169H7.30453H7.30737H7.3102H7.31304H7.31587H7.31871H7.32155H7.32438H7.32722H7.33006H7.33289H7.33573H7.33856H7.3414H7.34424H7.34707H7.34991H7.35275H7.35558H7.35842H7.36125H7.36409H7.36693H7.36976H7.3726H7.37544H7.37827H7.38111H7.38394H7.38678H7.38962H7.39245H7.39529H7.39813H7.40096H7.4038H7.40663H7.40947H7.41231H7.41514H7.41798H7.42082H7.42365H7.42649H7.42933H7.43216H7.435H7.43783H7.44067H7.44351H7.44634H7.44918H7.45202H7.45485H7.45769H7.46052H7.46336H7.4662H7.46903H7.47187H7.47471H7.47754H7.48038H7.48321H7.48605H7.48889H7.49172H7.49456H7.4974H7.50023H7.50307H7.5059H7.50874H7.51158H7.51441C7.98321 12.0482 8.45132 12.0482 8.92 12.05L8.92046 12.05C9.5688 12.0464 10.0425 11.618 10.0499 11.0151M6.06224 12.0482L9.99991 11.0144M8.98404 9.96489C7.99176 9.94504 6.99967 9.94504 6.00778 9.96489L6.00766 9.96489C5.38391 9.9789 4.94088 10.4439 4.95014 11.0211L5.00014 11.0203C4.99132 10.4718 5.41135 10.0283 6.00879 10.0149L9.99991 11.0144M8.98404 9.96489L8.98304 10.0149L8.98396 9.96489C8.98399 9.96489 8.98401 9.96489 8.98404 9.96489ZM8.98404 9.96489C9.60862 9.97649 10.0573 10.4405 10.0499 11.0151M10.0499 11.0151L9.99991 11.0144M10.0499 11.0151C10.0499 11.0151 10.0499 11.0151 10.0499 11.0151L9.99991 11.0144" fill="#CDA269" stroke="#CDA269" stroke-width="0.1"/>
</svg>
