<svg width="25" height="25" viewBox="0 0 25 25" fill="none" xmlns="http://www.w3.org/2000/svg">
<path fill-rule="evenodd" clip-rule="evenodd" d="M15.3125 9.625C16.3135 9.625 17.125 8.81352 17.125 7.8125C17.125 6.81148 16.3135 6 15.3125 6C14.3115 6 13.5 6.81148 13.5 7.8125C13.5 8.81352 14.3115 9.625 15.3125 9.625ZM17.0535 10.0215C17.7061 9.50643 18.125 8.70838 18.125 7.8125C18.125 6.2592 16.8658 5 15.3125 5C13.7592 5 12.5 6.2592 12.5 7.8125C12.5 8.70838 12.9189 9.50643 13.5715 10.0215C13.1865 10.1756 12.8267 10.3793 12.5 10.6247C12.4998 9.07151 11.2407 7.8125 9.6875 7.8125C8.1342 7.8125 6.875 9.0717 6.875 10.625C6.875 11.5209 7.29388 12.3189 7.94646 12.834C6.21971 13.5252 5 15.2139 5 17.1875V19V20H6H13.375H14.375V19V17.1875H19H20V16.1875V14.375C20 12.4014 18.7803 10.7127 17.0535 10.0215ZM14.2681 16.1875H19V14.375C19 12.3384 17.3491 10.6875 15.3125 10.6875C13.7467 10.6875 12.4089 11.6634 11.874 13.0401C13.0777 13.676 13.9711 14.8205 14.2681 16.1875ZM11.6385 14.0578C12.4075 14.5382 12.9867 15.2942 13.2378 16.1875H11.625V14.375C11.625 14.2681 11.6295 14.1623 11.6385 14.0578ZM10.6829 13.6359C10.6448 13.8767 10.625 14.1235 10.625 14.375V16.1875V17.1875H11.625H13.375V19H6V17.1875C6 15.1509 7.65095 13.5 9.6875 13.5C10.0324 13.5 10.3663 13.5474 10.6829 13.6359ZM11.5 10.625C11.5 11.626 10.6885 12.4375 9.6875 12.4375C8.68648 12.4375 7.875 11.626 7.875 10.625C7.875 9.62398 8.68648 8.8125 9.6875 8.8125C10.6885 8.8125 11.5 9.62398 11.5 10.625Z" fill="#CDA269"/>
</svg>
