<svg width="24" height="25" viewBox="0 0 24 25" fill="none" xmlns="http://www.w3.org/2000/svg">
<mask id="path-1-outside-1_4905_20935" maskUnits="userSpaceOnUse" x="1" y="0" width="22" height="25" fill="black">
<rect fill="white" x="1" width="22" height="25"/>
<path fill-rule="evenodd" clip-rule="evenodd" d="M19.2807 20.7088C18.3969 21.7074 17.1086 22.2805 15.7424 22.2805H8.2264C6.86028 22.2805 5.57032 21.7074 4.68813 20.7088C3.80436 19.7102 3.42673 18.3969 3.65045 17.1064L4.31051 13.3079C4.93883 9.69944 8.16611 7.08048 11.9836 7.08048C15.8027 7.08048 19.03 9.69944 19.6567 13.3079L20.3168 17.1064C20.5421 18.3969 20.1645 19.7102 19.2807 20.7088ZM11.0234 5.56117C9.44629 5.56117 8.07541 4.45765 7.76125 2.93765C7.7311 2.78717 7.79774 2.68381 7.839 2.63365C7.88342 2.58197 7.96117 2.52117 8.07859 2.52117H15.8882C16.0072 2.52117 16.0833 2.58197 16.1293 2.63365C16.1706 2.68381 16.2372 2.78717 16.2071 2.93765C15.8929 4.45765 14.522 5.56117 12.9449 5.56117H11.0234ZM21.8829 16.8551L21.2228 13.0566C20.6818 9.94824 18.4985 7.45696 15.6187 6.29112C16.6945 5.6056 17.4958 4.52944 17.7639 3.22984C17.9987 2.07616 17.0943 1 15.8885 1H8.0789C6.87462 1 5.96863 2.07616 6.20504 3.22984C6.47319 4.52944 7.27446 5.6056 8.34863 6.29112C5.472 7.45696 3.28716 9.94824 2.74611 13.0566L2.08606 16.8551C1.45456 20.4894 4.37879 23.8 8.22646 23.8H15.7425C19.5886 23.8 22.5144 20.4894 21.8829 16.8551Z"/>
</mask>
<path fill-rule="evenodd" clip-rule="evenodd" d="M19.2807 20.7088C18.3969 21.7074 17.1086 22.2805 15.7424 22.2805H8.2264C6.86028 22.2805 5.57032 21.7074 4.68813 20.7088C3.80436 19.7102 3.42673 18.3969 3.65045 17.1064L4.31051 13.3079C4.93883 9.69944 8.16611 7.08048 11.9836 7.08048C15.8027 7.08048 19.03 9.69944 19.6567 13.3079L20.3168 17.1064C20.5421 18.3969 20.1645 19.7102 19.2807 20.7088ZM11.0234 5.56117C9.44629 5.56117 8.07541 4.45765 7.76125 2.93765C7.7311 2.78717 7.79774 2.68381 7.839 2.63365C7.88342 2.58197 7.96117 2.52117 8.07859 2.52117H15.8882C16.0072 2.52117 16.0833 2.58197 16.1293 2.63365C16.1706 2.68381 16.2372 2.78717 16.2071 2.93765C15.8929 4.45765 14.522 5.56117 12.9449 5.56117H11.0234ZM21.8829 16.8551L21.2228 13.0566C20.6818 9.94824 18.4985 7.45696 15.6187 6.29112C16.6945 5.6056 17.4958 4.52944 17.7639 3.22984C17.9987 2.07616 17.0943 1 15.8885 1H8.0789C6.87462 1 5.96863 2.07616 6.20504 3.22984C6.47319 4.52944 7.27446 5.6056 8.34863 6.29112C5.472 7.45696 3.28716 9.94824 2.74611 13.0566L2.08606 16.8551C1.45456 20.4894 4.37879 23.8 8.22646 23.8H15.7425C19.5886 23.8 22.5144 20.4894 21.8829 16.8551Z" fill="#CDA269"/>
<path d="M4.68813 20.7088L4.91297 20.5102L4.91279 20.51L4.68813 20.7088ZM3.65045 17.1064L3.35488 17.055L3.35486 17.0552L3.65045 17.1064ZM4.31051 13.3079L4.01495 13.2565L4.01493 13.2566L4.31051 13.3079ZM19.6567 13.3079L19.3612 13.3593L19.3612 13.3593L19.6567 13.3079ZM20.3168 17.1064L20.0212 17.1578L20.0213 17.158L20.3168 17.1064ZM7.76125 2.93765L7.46709 2.99658L7.46746 2.99837L7.76125 2.93765ZM7.839 2.63365L7.61145 2.43804L7.6073 2.44309L7.839 2.63365ZM16.1293 2.63365L16.3612 2.44295L16.3534 2.43416L16.1293 2.63365ZM16.2071 2.93765L16.5009 2.99838L16.5012 2.99658L16.2071 2.93765ZM21.2228 13.0566L21.5184 13.0053L21.5184 13.0052L21.2228 13.0566ZM15.6187 6.29112L15.4575 6.03812L14.9668 6.35084L15.5062 6.5692L15.6187 6.29112ZM17.7639 3.22984L18.0577 3.29046L18.0579 3.28968L17.7639 3.22984ZM6.20504 3.22984L5.91115 3.29006L5.91123 3.29046L6.20504 3.22984ZM8.34863 6.29112L8.46131 6.56915L8.99991 6.35087L8.51002 6.03823L8.34863 6.29112ZM2.74611 13.0566L2.45055 13.0052L2.45054 13.0053L2.74611 13.0566ZM2.08606 16.8551L1.79048 16.8038L1.79048 16.8038L2.08606 16.8551ZM19.056 20.51C18.2307 21.4426 17.0249 21.9805 15.7424 21.9805V22.5805C17.1923 22.5805 18.5632 21.9722 19.5054 20.9076L19.056 20.51ZM15.7424 21.9805H8.2264V22.5805H15.7424V21.9805ZM8.2264 21.9805C6.94382 21.9805 5.73659 21.4425 4.91297 20.5102L4.4633 20.9074C5.40404 21.9723 6.77674 22.5805 8.2264 22.5805V21.9805ZM4.91279 20.51C4.08826 19.5783 3.73819 18.3566 3.94604 17.1576L3.35486 17.0552C3.11528 18.4372 3.52046 19.842 4.46347 20.9076L4.91279 20.51ZM3.94602 17.1578L4.60608 13.3593L4.01493 13.2566L3.35488 17.055L3.94602 17.1578ZM4.60606 13.3594C5.20781 9.90346 8.30272 7.38048 11.9836 7.38048V6.78048C8.02949 6.78048 4.66984 9.49542 4.01495 13.2565L4.60606 13.3594ZM11.9836 7.38048C15.6662 7.38048 18.761 9.9035 19.3612 13.3593L19.9523 13.2566C19.2991 9.49538 15.9393 6.78048 11.9836 6.78048V7.38048ZM19.3612 13.3593L20.0212 17.1578L20.6124 17.055L19.9523 13.2566L19.3612 13.3593ZM20.0213 17.158C20.2306 18.3567 19.8806 19.5783 19.056 20.51L19.5054 20.9076C20.4484 19.842 20.8537 18.437 20.6123 17.0548L20.0213 17.158ZM11.0234 5.26117C9.58544 5.26117 8.33977 4.25455 8.05504 2.87693L7.46746 2.99837C7.81105 4.66075 9.30714 5.86117 11.0234 5.86117V5.26117ZM8.05541 2.87872C8.05344 2.86889 8.05352 2.8625 8.05383 2.85879C8.05415 2.85493 8.05494 2.85156 8.05611 2.84826C8.05873 2.84088 8.06363 2.83281 8.0707 2.82421L7.6073 2.44309C7.53829 2.52699 7.41181 2.72061 7.4671 2.99658L8.05541 2.87872ZM8.06649 2.82922C8.07086 2.82414 8.07421 2.82188 8.0752 2.82134C8.07541 2.82122 8.07521 2.82134 8.07489 2.82142C8.07446 2.82154 8.07545 2.82117 8.07859 2.82117V2.22117C7.84552 2.22117 7.69151 2.34502 7.6115 2.43809L8.06649 2.82922ZM8.07859 2.82117H15.8882V2.22117H8.07859V2.82117ZM15.8882 2.82117C15.892 2.82117 15.8933 2.82162 15.8928 2.8215C15.8925 2.8214 15.8922 2.82124 15.8923 2.82134C15.8932 2.8218 15.8976 2.82453 15.9053 2.83314L16.3534 2.43416C16.2752 2.34633 16.124 2.22117 15.8882 2.22117V2.82117ZM15.8976 2.82421C15.9047 2.83281 15.9096 2.84088 15.9122 2.84826C15.9134 2.85156 15.9142 2.85493 15.9145 2.85879C15.9148 2.8625 15.9149 2.86889 15.9129 2.87872L16.5012 2.99658C16.5565 2.72061 16.43 2.52699 16.361 2.44309L15.8976 2.82421ZM15.9133 2.87693C15.6286 4.25455 14.3829 5.26117 12.9449 5.26117V5.86117C14.6612 5.86117 16.1573 4.66075 16.5009 2.99837L15.9133 2.87693ZM12.9449 5.26117H11.0234V5.86117H12.9449V5.26117ZM22.1785 16.8038L21.5184 13.0053L20.9273 13.108L21.5873 16.9065L22.1785 16.8038ZM21.5184 13.0052C20.958 9.7858 18.6984 7.21424 15.7313 6.01304L15.5062 6.5692C18.2986 7.69968 20.4056 10.1107 20.9273 13.1081L21.5184 13.0052ZM15.78 6.54412C16.9184 5.81868 17.7719 4.67589 18.0577 3.29046L17.4701 3.16922C17.2197 4.38299 16.4706 5.39252 15.4575 6.03812L15.78 6.54412ZM18.0579 3.28968C18.3323 1.94136 17.2751 0.7 15.8885 0.7V1.3C16.9136 1.3 17.6651 2.21096 17.4699 3.17L18.0579 3.28968ZM15.8885 0.7H8.0789V1.3H15.8885V0.7ZM8.0789 0.7C6.69416 0.7 5.63474 1.94123 5.91115 3.29006L6.49893 3.16962C6.30251 2.21109 7.05507 1.3 8.0789 1.3V0.7ZM5.91123 3.29046C6.19708 4.67585 7.05053 5.81858 8.18724 6.54401L8.51002 6.03823C7.49838 5.39262 6.7493 4.38303 6.49885 3.16922L5.91123 3.29046ZM8.23595 6.01309C5.27213 7.21426 3.01093 9.78576 2.45055 13.0052L3.04166 13.1081C3.56339 10.1107 5.67188 7.69966 8.46131 6.56915L8.23595 6.01309ZM2.45054 13.0053L1.79048 16.8038L2.38163 16.9065L3.04168 13.108L2.45054 13.0053ZM1.79048 16.8038C1.12454 20.6364 4.20792 24.1 8.22646 24.1V23.5C4.54965 23.5 1.78459 20.3425 2.38163 16.9065L1.79048 16.8038ZM8.22646 24.1H15.7425V23.5H8.22646V24.1ZM15.7425 24.1C19.7594 24.1 22.8444 20.6364 22.1785 16.8038L21.5873 16.9065C22.1844 20.3425 19.4178 23.5 15.7425 23.5V24.1Z" fill="#CDA269" mask="url(#path-1-outside-1_4905_20935)"/>
<path fill-rule="evenodd" clip-rule="evenodd" d="M13.9675 15.4403C14.4054 15.4403 14.7609 15.0999 14.7609 14.6803C14.7609 14.2608 14.4054 13.9203 13.9675 13.9203H13.3582L14.1992 13.1147C14.5102 12.8168 14.5102 12.3365 14.1992 12.0401C13.8898 11.7422 13.3884 11.7422 13.0774 12.0401L11.9842 13.0874L10.891 12.0401C10.58 11.7422 10.0786 11.7422 9.7692 12.0401C9.45821 12.3365 9.45821 12.8168 9.7692 13.1147L10.6101 13.9203H10.0009C9.56293 13.9203 9.20752 14.2608 9.20752 14.6803C9.20752 15.0999 9.56293 15.4403 10.0009 15.4403H11.1909V16.2003H10.0009C9.56293 16.2003 9.20752 16.5408 9.20752 16.9603C9.20752 17.3799 9.56293 17.7203 10.0009 17.7203H11.1909V18.4803C11.1909 18.8999 11.5463 19.2403 11.9842 19.2403C12.4221 19.2403 12.7775 18.8999 12.7775 18.4803V17.7203H13.9675C14.4054 17.7203 14.7609 17.3799 14.7609 16.9603C14.7609 16.5408 14.4054 16.2003 13.9675 16.2003H12.7775V15.4403H13.9675Z" fill="#CDA269"/>
</svg>
