<svg width="32" height="32" viewBox="0 0 32 32" fill="none" xmlns="http://www.w3.org/2000/svg">
<path fill-rule="evenodd" clip-rule="evenodd" d="M13.8438 8.15625C13.8438 9.34711 14.8091 10.3125 16 10.3125C17.1909 10.3125 18.1562 9.34711 18.1562 8.15625C18.1562 6.96539 17.1909 6 16 6C14.8091 6 13.8438 6.96539 13.8438 8.15625ZM16 4C13.7046 4 11.8438 5.86082 11.8438 8.15625C11.8438 10.4517 13.7046 12.3125 16 12.3125C18.2954 12.3125 20.1562 10.4517 20.1562 8.15625C20.1562 5.86082 18.2954 4 16 4Z" fill="#CDA269"/>
<path fill-rule="evenodd" clip-rule="evenodd" d="M4 24.125C4 24.9534 4.67157 25.625 5.5 25.625C6.32843 25.625 7 24.9534 7 24.125C7 23.2966 6.32843 22.625 5.5 22.625C4.67157 22.625 4 23.2966 4 24.125ZM5.5 20.625C3.567 20.625 2 22.192 2 24.125C2 26.058 3.567 27.625 5.5 27.625C7.433 27.625 9 26.058 9 24.125C9 22.192 7.433 20.625 5.5 20.625Z" fill="#CDA269"/>
<path fill-rule="evenodd" clip-rule="evenodd" d="M14.5 24.125C14.5 24.9534 15.1716 25.625 16 25.625C16.8284 25.625 17.5 24.9534 17.5 24.125C17.5 23.2966 16.8284 22.625 16 22.625C15.1716 22.625 14.5 23.2966 14.5 24.125ZM16 20.625C14.067 20.625 12.5 22.192 12.5 24.125C12.5 26.058 14.067 27.625 16 27.625C17.933 27.625 19.5 26.058 19.5 24.125C19.5 22.192 17.933 20.625 16 20.625Z" fill="#CDA269"/>
<path fill-rule="evenodd" clip-rule="evenodd" d="M25 24.125C25 24.9534 25.6716 25.625 26.5 25.625C27.3284 25.625 28 24.9534 28 24.125C28 23.2966 27.3284 22.625 26.5 22.625C25.6716 22.625 25 23.2966 25 24.125ZM26.5 20.625C24.567 20.625 23 22.192 23 24.125C23 26.058 24.567 27.625 26.5 27.625C28.433 27.625 30 26.058 30 24.125C30 22.192 28.433 20.625 26.5 20.625Z" fill="#CDA269"/>
<path fill-rule="evenodd" clip-rule="evenodd" d="M16 10.875C16.5523 10.875 17 11.3227 17 11.875V15.25H23.5C25.7091 15.25 27.5 17.0409 27.5 19.25V20.625C27.5 21.1773 27.0523 21.625 26.5 21.625C25.9477 21.625 25.5 21.1773 25.5 20.625V19.25C25.5 18.1454 24.6046 17.25 23.5 17.25H17V20.625C17 21.1773 16.5523 21.625 16 21.625C15.4477 21.625 15 21.1773 15 20.625V17.25H8.5C7.39543 17.25 6.5 18.1454 6.5 19.25V20.625C6.5 21.1773 6.05228 21.625 5.5 21.625C4.94772 21.625 4.5 21.1773 4.5 20.625V19.25C4.5 17.0409 6.29086 15.25 8.5 15.25H15V11.875C15 11.3227 15.4477 10.875 16 10.875Z" fill="#CDA269"/>
</svg>
