<svg width="20" height="22" viewBox="0 0 20 22" fill="none" xmlns="http://www.w3.org/2000/svg">
<path d="M3.80678 5.61536C3.80678 7.04292 4.4289 8.32422 5.41442 9.19758C2.67349 10.4093 0.75918 13.1715 0.75918 16.3845V20.9999C0.75918 21.0827 0.826337 21.1499 0.90918 21.1499H16.1472C16.23 21.1499 16.2972 21.0827 16.2972 20.9999V16.3845C16.2972 13.1715 14.3829 10.4093 11.642 9.19758C12.6275 8.32422 13.2496 7.04292 13.2496 5.61536C13.2496 2.98488 11.1371 0.85 8.52819 0.85C5.91928 0.85 3.80678 2.98488 3.80678 5.61536ZM11.4258 5.61536C11.4258 7.23321 10.1271 8.54227 8.52819 8.54227C6.92924 8.54227 5.63059 7.23321 5.63059 5.61536C5.63059 3.99752 6.92924 2.68845 8.52819 2.68845C10.1271 2.68845 11.4258 3.99752 11.4258 5.61536ZM2.58298 16.3845C2.58298 13.0674 5.24609 10.3807 8.52819 10.3807C11.8103 10.3807 14.4734 13.0674 14.4734 16.3845V19.3114H2.58298V16.3845Z" fill="#967140" stroke="#967140" stroke-width="0.3" stroke-linejoin="round"/>
<path d="M16.8181 1C16.629 1 16.4758 1.15328 16.4758 1.34236V2.94098H14.8771C14.6939 2.94098 14.5454 3.08951 14.5454 3.27272C14.5454 3.45593 14.6939 3.60445 14.8771 3.60445H16.4758V5.20307C16.4758 5.39215 16.629 5.54543 16.8181 5.54543C17.0072 5.54543 17.1605 5.39215 17.1605 5.20307V3.60445H18.7591C18.9423 3.60445 19.0908 3.45593 19.0908 3.27272C19.0908 3.08951 18.9423 2.94098 18.7591 2.94098H17.1605V1.34236C17.1605 1.15328 17.0072 1 16.8181 1Z" fill="#967140" stroke="#967140"/>
</svg>
