<svg width="20" height="20" viewBox="0 0 20 20" fill="none" xmlns="http://www.w3.org/2000/svg">
<path d="M5.87715 5.06402C5.87715 6.344 6.40929 7.49917 7.26253 8.31573C4.79357 9.4783 3.0835 12.0059 3.0835 14.9358V19.1666C3.0835 19.3047 3.19542 19.4166 3.3335 19.4166H17.3018C17.4398 19.4166 17.5518 19.3047 17.5518 19.1666V14.9358C17.5518 12.0059 15.8417 9.4783 13.3727 8.31573C14.226 7.49917 14.7581 6.344 14.7581 5.06402C14.7581 2.59162 12.7723 0.583252 10.3176 0.583252C7.86297 0.583252 5.87715 2.59162 5.87715 5.06402ZM12.8613 5.06402C12.8613 6.48594 11.7202 7.63453 10.3176 7.63453C8.91505 7.63453 7.77397 6.48594 7.77397 5.06402C7.77397 3.64211 8.91505 2.49351 10.3176 2.49351C11.7202 2.49351 12.8613 3.64211 12.8613 5.06402ZM4.98032 14.9358C4.98032 11.9562 7.37216 9.54479 10.3176 9.54479C13.2631 9.54479 15.6549 11.9562 15.6549 14.9358V17.5063H4.98032V14.9358Z" fill="#CDA269" stroke="#CDA269" stroke-width="0.5" stroke-linejoin="round"/>
</svg>
