<svg width="25" height="25" viewBox="0 0 25 25" fill="none" xmlns="http://www.w3.org/2000/svg">
<path fill-rule="evenodd" clip-rule="evenodd" d="M7.39286 5H8.45961H12.8261H13.8929L13.5214 6L12.6747 8.27955C14.2156 9.0307 15.2788 10.6096 15.2857 12.4375L15.2857 12.4554V12.5H17C18.1046 12.5 19 13.3954 19 14.5V18C19 19.1046 18.1046 20 17 20H13.5714C12.5088 20 11.6398 19.1713 11.5753 18.125H11.5H7H6V17.125V12.4554C6 10.6199 7.06511 9.03315 8.61098 8.27955L7.76429 6L7.39286 5ZM9.48104 7.75L8.83104 6H12.4547L11.8047 7.75H9.48104ZM7 17.125V12.4554C7 10.4435 8.63096 8.8125 10.6429 8.8125C12.6488 8.8125 14.2761 10.4338 14.2857 12.4375H13.5C12.3954 12.4375 11.5 13.3329 11.5 14.4375V17.125H7ZM13.5714 13.5C13.0191 13.5 12.5714 13.9477 12.5714 14.5V18C12.5714 18.0858 12.5822 18.169 12.6025 18.2485L17.2694 13.5367C17.1837 13.5128 17.0933 13.5 17 13.5H13.5714ZM17.9689 14.2515L13.302 18.9633C13.3877 18.9872 13.4781 19 13.5714 19H17C17.5523 19 18 18.5523 18 18V14.5C18 14.4142 17.9892 14.331 17.9689 14.2515ZM17.5143 17.75C17.5143 18.1642 17.1817 18.5 16.7714 18.5C16.3612 18.5 16.0286 18.1642 16.0286 17.75C16.0286 17.3358 16.3612 17 16.7714 17C17.1817 17 17.5143 17.3358 17.5143 17.75ZM13.7998 15.5C14.21 15.5 14.5426 15.1642 14.5426 14.75C14.5426 14.3358 14.21 14 13.7998 14C13.3895 14 13.0569 14.3358 13.0569 14.75C13.0569 15.1642 13.3895 15.5 13.7998 15.5Z" fill="#818181"/>
</svg>
