<svg width="24" height="24" viewBox="0 0 24 24" fill="none" xmlns="http://www.w3.org/2000/svg">
<mask id="path-1-outside-1_4905_20956" maskUnits="userSpaceOnUse" x="1" y="1.29932" width="22" height="22" fill="black">
<rect fill="white" x="1" y="1.29932" width="22" height="22"/>
<path fill-rule="evenodd" clip-rule="evenodd" d="M14.3663 2.29932H3.83051H3.69688C2.75966 2.29932 2 3.05898 2 3.9962V21.2453C2 22.1825 2.75966 22.9422 3.69688 22.9422H20.4387C21.3759 22.9422 22.1356 22.1825 22.1356 21.2453V21.1117V10.5366C22.1356 10.0314 21.7255 9.62135 21.2203 9.62135C20.7151 9.62135 20.3051 10.0314 20.3051 10.5366V21.1117H3.83051V4.12982H14.3663C14.8715 4.12982 15.2816 3.71979 15.2816 3.21457C15.2816 2.70935 14.8715 2.29932 14.3663 2.29932Z"/>
</mask>
<path fill-rule="evenodd" clip-rule="evenodd" d="M14.3663 2.29932H3.83051H3.69688C2.75966 2.29932 2 3.05898 2 3.9962V21.2453C2 22.1825 2.75966 22.9422 3.69688 22.9422H20.4387C21.3759 22.9422 22.1356 22.1825 22.1356 21.2453V21.1117V10.5366C22.1356 10.0314 21.7255 9.62135 21.2203 9.62135C20.7151 9.62135 20.3051 10.0314 20.3051 10.5366V21.1117H3.83051V4.12982H14.3663C14.8715 4.12982 15.2816 3.71979 15.2816 3.21457C15.2816 2.70935 14.8715 2.29932 14.3663 2.29932Z" fill="#CDA269"/>
<path d="M20.3051 21.1117V21.4117H20.6051V21.1117H20.3051ZM3.83051 21.1117H3.53051V21.4117H3.83051V21.1117ZM3.83051 4.12982V3.82982H3.53051V4.12982H3.83051ZM14.3663 1.99932H3.83051V2.59932H14.3663V1.99932ZM3.83051 1.99932H3.69688V2.59932H3.83051V1.99932ZM3.69688 1.99932C2.59397 1.99932 1.7 2.89329 1.7 3.9962H2.3C2.3 3.22466 2.92535 2.59932 3.69688 2.59932V1.99932ZM1.7 3.9962V21.2453H2.3V3.9962H1.7ZM1.7 21.2453C1.7 22.3482 2.59398 23.2422 3.69688 23.2422V22.6422C2.92535 22.6422 2.3 22.0168 2.3 21.2453H1.7ZM3.69688 23.2422H20.4387V22.6422H3.69688V23.2422ZM20.4387 23.2422C21.5416 23.2422 22.4356 22.3482 22.4356 21.2453H21.8356C21.8356 22.0168 21.2102 22.6422 20.4387 22.6422V23.2422ZM22.4356 21.2453V21.1117H21.8356V21.2453H22.4356ZM22.4356 21.1117V10.5366H21.8356V21.1117H22.4356ZM22.4356 10.5366C22.4356 9.8657 21.8912 9.32135 21.2203 9.32135V9.92135C21.5599 9.92135 21.8356 10.1971 21.8356 10.5366H22.4356ZM21.2203 9.32135C20.5494 9.32135 20.0051 9.8657 20.0051 10.5366H20.6051C20.6051 10.1971 20.8808 9.92135 21.2203 9.92135V9.32135ZM20.0051 10.5366V21.1117H20.6051V10.5366H20.0051ZM20.3051 20.8117H3.83051V21.4117H20.3051V20.8117ZM4.13051 21.1117V4.12982H3.53051V21.1117H4.13051ZM3.83051 4.42982H14.3663V3.82982H3.83051V4.42982ZM14.3663 4.42982C15.0372 4.42982 15.5816 3.88548 15.5816 3.21457H14.9816C14.9816 3.55411 14.7058 3.82982 14.3663 3.82982V4.42982ZM15.5816 3.21457C15.5816 2.54366 15.0372 1.99932 14.3663 1.99932V2.59932C14.7058 2.59932 14.9816 2.87504 14.9816 3.21457H15.5816Z" fill="#CDA269" mask="url(#path-1-outside-1_4905_20956)"/>
<path fill-rule="evenodd" clip-rule="evenodd" d="M20.1535 2C19.9647 2 19.7745 2.07282 19.6289 2.21697L13.9982 7.84931C13.9002 7.94739 13.8303 8.06925 13.7946 8.203L13.0264 11.0697C12.8956 11.5527 13.2701 12 13.7367 12C13.8006 12 13.866 11.9911 13.9314 11.9733L16.7965 11.2049C16.9302 11.1693 17.0521 11.0994 17.1502 11.0013L22.7838 5.37049C23.0721 5.07921 23.0721 4.61109 22.7838 4.3213L20.678 2.21697C20.5324 2.07282 20.3437 2 20.1535 2Z" fill="#CDA269"/>
<path fill-rule="evenodd" clip-rule="evenodd" d="M12.0679 13H6.57639C6.07117 13 5.66113 13.41 5.66113 13.9153C5.66113 14.4205 6.07117 14.8305 6.57639 14.8305H12.0679C12.5731 14.8305 12.9832 14.4205 12.9832 13.9153C12.9832 13.41 12.5731 13 12.0679 13Z" fill="#CDA269"/>
<path fill-rule="evenodd" clip-rule="evenodd" d="M12.0679 16.7129H6.57639C6.07117 16.7129 5.66113 17.1229 5.66113 17.6281C5.66113 18.1334 6.07117 18.5434 6.57639 18.5434H12.0679C12.5731 18.5434 12.9832 18.1334 12.9832 17.6281C12.9832 17.1229 12.5731 16.7129 12.0679 16.7129Z" fill="#CDA269"/>
</svg>
