<svg width="17" height="17" viewBox="0 0 17 17" fill="none" xmlns="http://www.w3.org/2000/svg">
<path d="M0.445 7.125V0.375H7.195V7.125H0.445ZM1.85125 1.78125V5.71875H5.78875V1.78125H1.85125ZM9.445 0.375H16.195V7.125H9.445V0.375ZM14.7887 5.71875V1.78125H10.8512V5.71875H14.7887ZM0.445 16.125V9.375H7.195V16.125H0.445ZM1.85125 10.7812V14.7188H5.78875V10.7812H1.85125ZM2.97625 11.9062V13.5938H4.66375V11.9062H2.97625ZM2.97625 2.90625V4.59375H4.66375V2.90625H2.97625ZM13.6637 4.59375V2.90625H11.9762V4.59375H13.6637ZM15.07 9.375V10.5H12.82V9.375H9.445V16.125H10.57V12.75H11.695V13.875H16.195V9.375H15.07ZM15.07 15V16.125H16.195V15H15.07ZM12.82 15V16.125H13.945V15H12.82Z" fill="#CDA269"/>
</svg>
