<svg xmlns="http://www.w3.org/2000/svg" width="40" height="40" viewBox="0 0 40 40">
    <g fill="none" fill-rule="evenodd">
        <path d="M0 0H40V40H0z"/>
        <path fill="#575759" d="M14.87 21.113h.792l15.085.018c.934.001.954-.03.973-.967.096-4.977-2.185-8.542-6.47-10.924-.458-.255-.877-.33-1.305.056-1.3 1.172-2.61 2.333-3.909 3.506-.1.091-.152.238-.314.503 2.569.33 3.985 1.874 4.796 4.225-.296.025-.51.059-.724.06-2.652.003-5.303.004-7.955 0-.762-.001-.925-.181-.552-.827.47-.812 1.027-1.588 1.646-2.294.606-.692 1.357-1.254 2.008-1.91 2.268-2.287 4.762-4.255 7.965-5.617l-2.266-1.07c2.017-.863 3.964-1.225 5.943-.433 1.4.56 2.085 1.763 2.302 3.31-1.374-2.4-3.368-2.614-5.863-1.773 3.985 2.43 6.43 5.78 7.183 10.26.515 3.055.083 6.008-1.373 8.742-3.337 6.262-9.149 8.17-14.611 7.632 1.234-.554 2.004-1.759 3.507-2.016 4.549-.78 7.704-3.376 9.383-7.705.279-.718.157-.918-.621-.928-1.876-.023-3.753-.039-5.628.02-.341.01-.723.338-.996.61-.51.508-.906 1.137-1.437 1.617-1.107 1-2.424 1.249-3.846.815-1.953-.597-3.774-2.97-3.714-4.91zm9.42-15.194c-1.058.636-2.044 1.27-3.073 1.825-.327.176-.767.202-1.154.198-7.609-.089-13.32 6.642-11.954 14.108.055.303.174.595.321 1.084.697-1.31 1.238-2.474 1.912-3.554.66-1.06 1.457-2.034 2.318-2.948-.936 1.698-1.98 3.347-2.778 5.106-.789 1.739-1.33 3.59-1.96 5.334-2.409-2.744-3.656-9.522-.22-15.04C11.643 5.7 19.226 4.039 24.289 5.919zM10.47 27.27c2.443 2.873 5.534 4.383 9.298 4.508-.816 1.179-2.69 1.827-3.94 1.43-1.904-.604-3.617-1.54-5.17-2.803-.471-.383-.66-.772-.588-1.337.072-.557.14-1.114.21-1.67l.19-.128zm5.553 6.921c-1.693 1.105-4.518 1.06-6.07-.024-1.541-1.075-2.351-3.668-1.798-6.032.6 1.05 1.718 1.558 1.863 2.855.29 2.604 2.108 3.807 4.885 3.4.337-.05.67-.118 1.12-.199z"/>
    </g>
</svg>
