<svg xmlns="http://www.w3.org/2000/svg" width="24" height="24" viewBox="0 0 24 24">
    <g fill="none" fill-rule="evenodd">
        <path d="M0 0H24V24H0z"/>
        <path fill="#8E8E93" d="M19.762 5.081H16.22v-1.35c0-.093-.076-.168-.169-.168h-1.181c-.093 0-.169.075-.169.168v1.35H9.3v-1.35c0-.093-.076-.168-.169-.168H7.95c-.093 0-.169.075-.169.168v1.35H4.238c-.374 0-.676.302-.676.675v14.006c0 .374.302.675.675.675h15.525c.374 0 .675-.301.675-.675V5.756c0-.373-.301-.675-.675-.675zM18.92 18.92H5.08V6.6h2.7v1.013c0 .092.076.168.169.168h1.181c.093 0 .169-.076.169-.168V6.6h5.4v1.013c0 .092.076.168.169.168h1.181c.093 0 .169-.076.169-.168V6.6h2.7v12.319zm-4.23-8.986h-.949c-.063 0-.122.036-.15.093l-1.548 3.067h-.059l-1.548-3.067c-.03-.057-.087-.093-.15-.093h-.97c-.028 0-.057.006-.08.02-.083.045-.112.149-.068.23l1.884 3.46h-1.025c-.093 0-.17.076-.17.169v.45c0 .092.077.168.17.168h1.373v.71h-1.373c-.093 0-.17.077-.17.17v.449c0 .093.077.169.17.169h1.373v1.134c0 .093.076.17.169.17h.87c.094 0 .17-.077.17-.17v-1.134h1.379c.093 0 .169-.076.169-.17v-.448c0-.093-.076-.17-.169-.17h-1.38v-.71h1.38c.093 0 .169-.076.169-.169v-.449c0-.093-.076-.169-.169-.169h-1.036l1.884-3.461c.013-.026.021-.053.021-.08.002-.093-.072-.17-.167-.17z"/>
    </g>
</svg>
