<?xml version="1.0" encoding="UTF-8"?>
<svg width="20px" height="21px" viewBox="0 0 20 21" version="1.1" xmlns="http://www.w3.org/2000/svg" xmlns:xlink="http://www.w3.org/1999/xlink">
    <!-- Generator: Sketch 39.1 (31720) - http://www.bohemiancoding.com/sketch -->
    <title>Group</title>
    <desc>Created with Sketch.</desc>
    <defs></defs>
    <g id="Page-1" stroke="none" stroke-width="1" fill="none" fill-rule="evenodd">
        <g id="Group" transform="translate(-4.000000, -3.000000)">
            <polygon id="Shape" points="0 0 28 0 28 28 0 28"></polygon>
            <path d="M18.221,16.824 C18.817,16.504 19.498,16.321 20.224,16.321 L20.227,16.321 C20.301,16.321 20.335,16.233 20.281,16.184 C19.523,15.504 18.667,14.961 17.729,14.564 L17.699,14.552 C19.228,13.442 20.222,11.638 20.222,9.603 C20.222,6.232 17.495,3.5 14.132,3.5 C10.767,3.5 8.042,6.232 8.042,9.603 C8.042,11.638 9.037,13.443 10.568,14.553 C10.558,14.557 10.548,14.559 10.538,14.564 C9.438,15.029 8.451,15.696 7.602,16.548 C6.753,17.397 6.089,18.386 5.624,19.488 C5.168,20.567 4.924,21.711 4.9,22.888 C4.898,22.998 4.986,23.089 5.097,23.089 L6.571,23.089 C6.677,23.089 6.765,23.003 6.768,22.897 C6.818,20.997 7.578,19.218 8.924,17.869 C10.314,16.474 12.164,15.706 14.134,15.706 C15.529,15.706 16.868,16.093 18.022,16.816 C18.083,16.853 18.157,16.858 18.222,16.824 L18.221,16.824 Z M14.134,13.836 C13.006,13.836 11.946,13.396 11.146,12.596 C10.349,11.796 9.908,10.733 9.908,9.603 C9.908,8.473 10.348,7.41 11.146,6.611 C11.943,5.811 13.004,5.371 14.134,5.371 C15.264,5.371 16.321,5.811 17.121,6.611 C17.918,7.411 18.359,8.474 18.359,9.603 C18.359,10.733 17.919,11.796 17.121,12.596 C16.321,13.396 15.261,13.836 14.134,13.836 L14.134,13.836 Z M23.184,19.693 L21.118,19.693 L21.118,17.626 C21.118,17.517 21.029,17.429 20.921,17.429 L19.543,17.429 C19.434,17.429 19.346,17.517 19.346,17.626 L19.346,19.693 L17.279,19.693 C17.17,19.693 17.082,19.782 17.082,19.89 L17.082,21.268 C17.082,21.376 17.17,21.465 17.279,21.465 L19.346,21.465 L19.346,23.532 C19.346,23.64 19.434,23.729 19.543,23.729 L20.921,23.729 C21.029,23.729 21.118,23.64 21.118,23.532 L21.118,21.465 L23.185,21.465 C23.293,21.465 23.382,21.376 23.382,21.268 L23.382,19.89 C23.382,19.782 23.293,19.693 23.185,19.693 L23.184,19.693 Z" id="Shape" fill="#000000"></path>
        </g>
    </g>
</svg>