<svg xmlns="http://www.w3.org/2000/svg" width="28" height="28" viewBox="0 0 28 28">
    <g fill="none" fill-rule="evenodd">
        <path d="M0 0H28V28H0z"/>
        <path fill="#202020" d="M6.15 20.99c0 .435.352.787.787.787h14.126c.435 0 .787-.352.787-.788v-5.734c0-4.336-3.514-7.85-7.85-7.85s-7.85 3.514-7.85 7.85v5.734zm1.771-5.735c0-3.357 2.722-6.078 6.079-6.078 3.357 0 6.079 2.721 6.079 6.078v4.75h-8.737v-4.209c0-.135-.11-.246-.246-.246h-1.083c-.135 0-.246.111-.246.246v4.209H7.921v-4.75zM6.738 9.041l.974-.974c.077-.077.077-.202 0-.278l-1.67-1.671c-.077-.077-.202-.077-.279 0l-.974.974c-.077.076-.077.202 0 .278l1.67 1.671c.077.076.2.076.279 0zm16.478-1.949l-.974-.974c-.077-.077-.202-.077-.278 0l-1.671 1.67c-.077.077-.077.202 0 .279l.974.974c.076.076.202.076.278 0l1.671-1.67c.076-.08.076-.203 0-.279zm-1.341 16.26H6.125c-.436 0-.787.351-.787.787v.59c0 .109.088.198.196.198h16.932c.108 0 .197-.089.197-.197v-.59c0-.437-.352-.788-.788-.788zM13.311 5.83h1.378c.108 0 .197-.089.197-.197V3.27c0-.108-.089-.197-.197-.197h-1.378c-.108 0-.197.089-.197.197v2.363c0 .108.089.197.197.197z"/>
    </g>
</svg>
