<svg xmlns="http://www.w3.org/2000/svg" width="40" height="40" viewBox="0 0 40 40">
    <g fill="none" fill-rule="evenodd">
        <path d="M0 0H40V40H0z"/>
        <path fill="#575759" d="M12.561 18.07L8.272 10.64C11.113 7.073 15.426 4.996 19.987 5c5.486 0 10.282 2.948 12.894 7.347H20.654c-.221-.02-.444-.03-.666-.03-3.567 0-6.573 2.449-7.426 5.753zm12.791-3.558h8.59c.683 1.744 1.033 3.6 1.03 5.473 0 8.22-6.617 14.892-14.814 14.984l6.129-10.615c.893-1.282 1.37-2.807 1.369-4.369 0-2.06-.83-4.033-2.303-5.473h-.001zm-10.808 5.473c0-3.001 2.441-5.444 5.444-5.444s5.445 2.442 5.445 5.444-2.443 5.445-5.445 5.445c-3.002 0-5.444-2.443-5.444-5.445zm7.497 7.39l-4.29 7.43C10.535 33.725 5 27.502 5 19.986c0-2.67.699-5.175 1.923-7.347l6.118 10.596c1.225 2.609 3.877 4.42 6.944 4.42.711 0 1.4-.098 2.054-.28h.001z"/>
    </g>
</svg>
