<svg xmlns="http://www.w3.org/2000/svg" width="24" height="24" viewBox="0 0 24 24">
    <g fill="none" fill-rule="evenodd">
        <path d="M0 0H24V24H0z"/>
        <path fill="#FFF" d="M12 3.9c-4.474 0-8.1 3.626-8.1 8.1v7.594c0 .28.226.506.506.506h3.881c.745 0 1.35-.605 1.35-1.35v-4.387c0-.745-.605-1.35-1.35-1.35H5.42V12c0-3.634 2.947-6.581 6.581-6.581 3.634 0 6.581 2.947 6.581 6.581v1.012h-2.868c-.745 0-1.35.606-1.35 1.35v4.388c0 .745.605 1.35 1.35 1.35h3.88c.281 0 .507-.226.507-.506V12c0-4.474-3.626-8.1-8.1-8.1zM8.119 14.531v4.05h-2.7v-4.05h2.7zm10.462 4.05h-2.7v-4.05h2.7v4.05z"/>
    </g>
</svg>
