<svg xmlns="http://www.w3.org/2000/svg" width="28" height="28" viewBox="0 0 28 28">
    <g fill="none" fill-rule="evenodd">
        <path d="M0 0H28V28H0z"/>
        <path fill="#202020" d="M7.742 19.906c.05 0 .098-.005.147-.012l4.14-.726c.049-.01.096-.032.13-.069L22.591 8.667c.096-.096.096-.25 0-.347l-4.09-4.092c-.047-.047-.108-.072-.175-.072-.066 0-.128.025-.174.072L7.72 14.66c-.037.036-.06.08-.07.13l-.725 4.14c-.047.272.037.538.231.733.163.157.367.243.586.243zM9.4 15.614l8.925-8.923 1.804 1.804-8.926 8.923-2.187.387.384-2.19zm13.655 6.36H4.944c-.436 0-.788.351-.788.787v.886c0 .108.089.197.197.197h19.294c.108 0 .197-.089.197-.197v-.886c0-.436-.352-.788-.788-.788z"/>
    </g>
</svg>
