<svg xmlns="http://www.w3.org/2000/svg" width="24" height="24" viewBox="0 0 24 24">
    <g fill="none" fill-rule="evenodd">
        <path d="M0 0H24V24H0z"/>
        <path fill="#8E8E93" d="M19.762 7.634h-5.4V5.25c0-.373-.301-.675-.675-.675H5.082v-.844c0-.093-.076-.168-.169-.168h-1.18c-.094 0-.17.075-.17.168V20.27c0 .093.076.169.17.169h1.18c.093 0 .17-.076.17-.17V14.7h5.23v2.384c0 .373.302.675.676.675h8.774c.374 0 .675-.302.675-.675V8.309c0-.374-.301-.675-.675-.675zM5.082 13.18V6.094h7.762v7.087H5.08zm13.837 3.059H11.83V14.7h2.363c.093 0 .168-.076.168-.169V9.152h4.557v7.088z"/>
    </g>
</svg>
