<svg xmlns="http://www.w3.org/2000/svg" width="40" height="40" viewBox="0 0 40 40">
    <g fill="none" fill-rule="evenodd">
        <path d="M0 0H40V40H0z"/>
        <path fill="#575759" d="M32.868 14.234c.562-1.547.82-2.93.774-4.149-.07-1.335-.504-2.402-1.3-3.2-.774-.772-2.08-1.095-3.92-.965-1.84.128-3.873.685-6.1 1.669-.305-.023-.621-.035-.95-.035-1.523 0-3 .246-4.43.738-1.36.492-2.614 1.195-3.762 2.11-2.367 1.875-3.914 4.254-4.64 7.136l-.247.985.598-.774c1.617-2.086 3.375-3.68 5.274-4.781-.516.492-.81.784-.879.878-1.71 1.711-3.188 3.574-4.43 5.59-1.149 1.875-2.027 3.75-2.637 5.625-.586 1.758-.867 3.34-.844 4.747.023 1.406.351 2.437.984 3.093.867.844 2.028 1.266 3.481 1.266 1.617 0 3.492-.516 5.625-1.547 1.829.915 3.797 1.372 5.906 1.372 2.836 0 5.403-.82 7.7-2.462 2.297-1.64 3.902-3.797 4.816-6.469l.106-.28h-7.488l-.035.105c-.492.89-1.172 1.594-2.04 2.11-.867.515-1.811.773-2.83.773-1.02.001-1.963-.257-2.83-.774-.869-.517-1.536-1.22-2.004-2.11-.423-.75-.645-1.558-.669-2.425h18.387l.035-.175c.047-.469.071-.973.071-1.512 0-2.344-.574-4.524-1.722-6.54v.001zM9.066 25.696c1.055 2.602 2.766 4.676 5.133 6.222-1.265.54-2.379.844-3.34.915-1.054.07-1.84-.164-2.355-.703-.54-.54-.762-1.372-.669-2.497.094-1.125.504-2.437 1.231-3.937zM32.2 13.18c-.703-.985-1.523-1.864-2.461-2.637-.914-.75-1.91-1.37-2.988-1.863 2.531-.984 4.277-.996 5.238-.035.867.891.938 2.403.212 4.535zM16.134 18.63c.117-1.336.68-2.461 1.688-3.375 1.008-.915 2.191-1.372 3.55-1.372 1.36 0 2.537.457 3.534 1.372.997.914 1.565 2.039 1.705 3.375H16.133z"/>
    </g>
</svg>
