<?xml version="1.0" encoding="UTF-8"?>
<svg width="21px" height="20px" viewBox="0 0 21 20" version="1.1" xmlns="http://www.w3.org/2000/svg" xmlns:xlink="http://www.w3.org/1999/xlink">
    <!-- Generator: Sketch 64 (93537) - https://sketch.com -->
    <title>letter</title>
    <desc>Created with Sketch.</desc>
    <g id="Page-1" stroke="none" stroke-width="1" fill="none" fill-rule="evenodd">
        <g id="letter" transform="translate(-4.000000, -4.000000)">
            <polygon id="Path" points="0 0 28 0 28 28 0 28"></polygon>
            <path d="M4.348,5.357 C4.852,4.315 6.079,3.857 7.135,4.296 L7.252,4.348 L23.125,12.029 C23.565,12.242 23.921,12.598 24.134,13.038 C24.638,14.08 24.236,15.326 23.238,15.883 L23.125,15.942 L7.25,23.625 C6.954,23.768 6.63,23.842 6.3,23.842 C6.028,23.842 5.758,23.789 5.505,23.689 C4.427,23.26 3.88,22.067 4.241,20.979 L4.285,20.859 L7.045,14.011 L4.285,7.112 C4.076,6.592 4.078,6.012 4.285,5.496 L4.347,5.356 L4.348,5.357 Z M22.032,14.757 L8.388,14.757 L5.718,21.432 C5.664,21.569 5.658,21.72 5.704,21.86 L5.736,21.941 C5.876,22.231 6.209,22.365 6.506,22.265 L6.58,22.235 L22.032,14.757 Z M5.874,5.846 C5.702,6.001 5.634,6.237 5.691,6.458 L5.719,6.539 L8.389,13.214 L22.033,13.214 L6.578,5.738 C6.346,5.618 6.063,5.662 5.874,5.846 Z" id="Shape" fill="#000000" fill-rule="nonzero"></path>
        </g>
    </g>
</svg>