<svg xmlns="http://www.w3.org/2000/svg" width="28" height="28" viewBox="0 0 28 28">
    <g fill="none" fill-rule="evenodd">
        <path d="M0 0H28V28H0z"/>
        <path fill="#FFF" d="M21.875 12.819h-1.673V7.306c0-1.74-1.41-3.15-3.15-3.15h-6.104c-1.74 0-3.15 1.41-3.15 3.15v5.513H6.125c-.436 0-.787.352-.787.787v9.45c0 .436.351.788.787.788h15.75c.436 0 .788-.352.788-.788v-9.45c0-.435-.352-.787-.788-.787zm-7.186 5.832v1.304c0 .109-.089.197-.197.197h-.984c-.108 0-.197-.088-.197-.197v-1.304c-.298-.214-.492-.563-.492-.96 0-.652.529-1.18 1.181-1.18s1.181.528 1.181 1.18c0 .397-.194.746-.492.96zm3.74-5.832H9.57V7.306c0-.76.618-1.378 1.378-1.378h6.104c.76 0 1.378.618 1.378 1.378v5.513z"/>
    </g>
</svg>
