<svg xmlns="http://www.w3.org/2000/svg" width="24" height="24" viewBox="0 0 24 24">
    <g fill="none" fill-rule="evenodd">
        <path d="M0 0H24V24H0z"/>
        <path fill="#8E8E93" d="M12.205 2.93C8.988 2.92 6.157 4.586 4.539 7.1c-.072.112.009.26.141.26h1.483c.102 0 .197-.045.26-.123.147-.18.306-.352.472-.517.688-.685 1.487-1.225 2.378-1.6.92-.389 1.898-.587 2.908-.587s1.99.196 2.91.586c.89.376 1.689.916 2.377 1.601.687.686 1.225 1.485 1.603 2.373.39.92.586 1.897.586 2.907s-.198 1.987-.586 2.907c-.376.888-.916 1.687-1.604 2.373-.687.685-1.487 1.225-2.377 1.6-.92.389-1.898.587-2.909.587-1.01 0-1.989-.198-2.908-.586-.89-.376-1.69-.916-2.378-1.601-.166-.167-.322-.34-.472-.517-.063-.078-.16-.122-.26-.122H4.68c-.132 0-.215.147-.14.26 1.615 2.507 4.433 4.17 7.641 4.17 4.983 0 9.029-4.01 9.08-8.978.05-5.048-4.002-9.15-9.056-9.163zM9.533 14.363v-1.604H2.909c-.093 0-.169-.076-.169-.168v-1.182c0-.092.076-.168.17-.168h6.623V9.637c0-.14.164-.221.274-.132l2.993 2.362c.086.068.086.198 0 .266l-2.993 2.362c-.11.087-.274.009-.274-.132z"/>
    </g>
</svg>
