<svg xmlns="http://www.w3.org/2000/svg" width="24" height="24" viewBox="0 0 24 24">
    <g fill="none" fill-rule="evenodd">
        <path d="M0 0H24V24H0z"/>
        <path fill="#8E8E93" d="M20.427 15.98c-.032-.088-.129-.133-.217-.1l-1.291.47V4.997c0-.793-.642-1.434-1.435-1.434H6.516c-.793 0-1.435.64-1.435 1.434V16.35l-1.293-.47c-.019-.007-.038-.011-.057-.011-.093 0-.168.076-.168.168v1.258c0 .07.044.132.111.158l8.094 2.944c.15.055.312.055.462 0l8.096-2.942c.067-.025.111-.089.111-.158v-1.258c0-.02-.004-.04-.01-.059zM12 18.866l-5.4-1.964V5.082h10.8v11.82L12 18.866zm3.135-11.085h-1.15c-.063 0-.122.036-.15.093l-1.786 3.56h-.07l-1.787-3.56c-.03-.057-.086-.093-.15-.093H8.869c-.028 0-.055.007-.08.021-.083.045-.112.148-.068.228l2.192 4.042H9.709c-.093 0-.169.076-.169.168v.572c0 .093.076.169.17.169h1.602v.823H9.71c-.093 0-.169.075-.169.168v.572c0 .093.076.169.17.169h1.602v1.337c0 .093.076.169.17.169h1.052c.092 0 .168-.076.168-.169v-1.34h1.61c.093 0 .169-.075.169-.168v-.572c0-.093-.076-.169-.17-.169h-1.609v-.822h1.61c.093 0 .169-.076.169-.169v-.572c0-.092-.076-.168-.17-.168h-1.214l2.187-4.042c.013-.025.021-.053.021-.08-.002-.09-.078-.167-.17-.167z"/>
    </g>
</svg>
