<svg xmlns="http://www.w3.org/2000/svg" width="28" height="28" viewBox="0 0 28 28">
    <g fill="none" fill-rule="evenodd">
        <path d="M0 0H28V28H0z"/>
        <path fill="#202020" d="M10.653 4.156c.108 0 .197.089.197.197v1.575h6.3V4.353c0-.108.089-.197.197-.197h1.378c.108 0 .197.089.197.197v1.575h4.134c.436 0 .788.352.788.788v16.34c0 .436-.352.788-.788.788H4.944c-.436 0-.788-.352-.788-.788V6.716c0-.436.352-.788.788-.788h4.134V4.353c0-.108.089-.197.197-.197zM9.078 7.7h-3.15v14.372h16.144V7.7h-3.15v1.181c0 .109-.089.197-.197.197h-1.378c-.108 0-.197-.088-.197-.197V7.7h-6.3v1.181c0 .109-.089.197-.197.197H9.275c-.108 0-.197-.088-.197-.197V7.7zm1.881 4.21c.194 0 .349.076.465.225.117.15.175.356.175.618v6.262l-.004.151c-.033.632-.281.948-.745.948-.222 0-.401-.075-.536-.224-.135-.15-.202-.37-.202-.662v-4.976l-.194.146c-.82.613-1.379.92-1.677.92-.153 0-.289-.061-.407-.183-.119-.122-.178-.264-.178-.424 0-.186.059-.323.175-.41.117-.088.323-.2.618-.34.441-.207.794-.426 1.058-.656.265-.23.499-.486.703-.77.204-.285.337-.46.4-.526.061-.065.178-.098.35-.098zm7.104-.054c.554 0 .832.317.832.952v4.233h.235l.161.004c.207.012.378.05.514.11.17.077.254.245.254.504 0 .211-.069.365-.207.462-.139.096-.347.145-.624.145h-.333v1.017l-.006.134c-.017.214-.077.378-.18.492-.124.137-.29.205-.498.205-.204 0-.37-.07-.495-.21-.126-.14-.189-.348-.189-.621v-1.017h-2.745l-.143-.005c-.276-.02-.488-.096-.636-.23-.173-.157-.26-.37-.26-.64 0-.07.013-.14.038-.21.026-.072.064-.147.115-.225.051-.079.104-.154.159-.227l.126-.168.076-.1 2.898-3.877.11-.145c.141-.182.26-.319.358-.41.122-.115.269-.173.44-.173zm-.536 2.007l-2.351 3.178h2.351v-3.178z"/>
    </g>
</svg>
