<svg xmlns="http://www.w3.org/2000/svg" width="28" height="28" viewBox="0 0 28 28">
    <g fill="none" fill-rule="evenodd">
        <path d="M0 0H28V28H0z"/>
        <g>
            <path fill="#202020" d="M21.656 2.756c-.093 0-.19.017-.285.057l-14.185 5.7H3.15c-.217 0-.394.181-.394.408v7.358c0 .227.177.409.394.409h2.503c-.091.285-.14.588-.14.895 0 1.622 1.323 2.941 2.953 2.941 1.363 0 2.512-.925 2.852-2.175l10.055 4.04c.096.038.192.057.286.057.416 0 .787-.35.787-.817V3.573c-.002-.467-.371-.817-.79-.817zM8.466 18.76c-.653 0-1.182-.527-1.182-1.177 0-.275.096-.539.271-.748l2.09.84c-.05.605-.56 1.085-1.18 1.085zm12.206 1.437L7.845 15.044l-.317-.128h-3v-4.632h3l.317-.128 12.827-5.153v15.194z" transform="translate(1.4 1.4)"/>
        </g>
    </g>
</svg>
