<svg xmlns="http://www.w3.org/2000/svg" width="28" height="28" viewBox="0 0 28 28">
    <g fill="none" fill-rule="evenodd">
        <path d="M0 0H28V28H0z"/>
        <path fill="#FFF" d="M21.698 16.49c-.394-1.264-.847-2.328-1.543-4.067.108-4.57-1.792-8.267-6.167-8.267-4.425 0-6.283 3.77-6.165 8.267-.699 1.742-1.15 2.798-1.543 4.067-.837 2.695-.566 3.81-.36 3.835.444.054 1.726-2.028 1.726-2.028 0 1.206.62 2.778 1.964 3.913-.65.199-2.11.736-1.762 1.324.28.475 4.828.302 6.14.155 1.311.147 5.86.32 6.14-.155.347-.586-1.115-1.125-1.762-1.324 1.343-1.137 1.964-2.71 1.964-3.913 0 0 1.282 2.082 1.725 2.028.209-.027.48-1.142-.357-3.835z"/>
    </g>
</svg>
