<?xml version="1.0" encoding="UTF-8"?>
<svg width="24px" height="24px" viewBox="0 0 24 24" version="1.1" xmlns="http://www.w3.org/2000/svg" xmlns:xlink="http://www.w3.org/1999/xlink">
    <title>icon_qrcode</title>
    <g id="screen" stroke="none" stroke-width="1" fill="none" fill-rule="evenodd">
        <g id="3v3_web_1-首页--all" transform="translate(-40.000000, -635.000000)">
            <g id="Group-2" transform="translate(40.000000, 635.000000)">
                <g id="icon/Scan-Copy">
                    <rect id="@bound" x="0" y="0" width="24" height="24"></rect>
                    <g id="Group-48-Copy-2" stroke-width="1" fill-rule="evenodd" transform="translate(3.600000, 3.000000)" fill="#8E8E93">
                        <path d="M12.19968,1.75318418 L15.3371393,1.75318418 C15.4859657,1.75318418 15.6063086,1.8737644 15.6063086,2.02235341 L15.6063086,5.15981275 C15.6063086,5.30863912 15.4859657,5.42898198 15.3371393,5.42898198 L12.19968,5.42898198 C12.051091,5.42898198 11.9305108,5.30863912 11.9305108,5.15981275 L11.9305108,2.02235341 C11.9305108,1.8737644 12.051091,1.75318418 12.19968,1.75318418 M10.9744141,6.65401055 L16.5624053,6.65401055 C16.7109943,6.65401055 16.8315745,6.53390505 16.8315745,6.38507868 L16.8315745,0.797087473 C16.8315745,0.648498462 16.7109943,0.527918242 16.5624053,0.527918242 L10.9744141,0.527918242 C10.8258251,0.527918242 10.7052448,0.648498462 10.7052448,0.797087473 L10.7052448,6.38507868 C10.7052448,6.53390505 10.8258251,6.65401055 10.9744141,6.65401055" id="Fill-12"></path>
                        <path d="M12.8123367,2.36581714 L14.7245301,2.36581714 C14.8733565,2.36581714 14.9936993,2.48639736 14.9936993,2.63498637 L14.9936993,4.54717978 C14.9936993,4.69576879 14.8733565,4.81634901 14.7245301,4.81634901 L12.8123367,4.81634901 C12.6637477,4.81634901 12.5431675,4.69576879 12.5431675,4.54717978 L12.5431675,2.63498637 C12.5431675,2.48639736 12.6637477,2.36581714 12.8123367,2.36581714" id="Fill-14"></path>
                        <path d="M4.92235516,5.42905319 L1.78489582,5.42905319 C1.63630681,5.42905319 1.51572659,5.30847297 1.51572659,5.15964659 L1.51572659,2.02218725 C1.51572659,1.87359824 1.63630681,1.75325538 1.78489582,1.75325538 L4.92235516,1.75325538 C5.07118154,1.75325538 5.1915244,1.87359824 5.1915244,2.02218725 L5.1915244,5.15964659 C5.1915244,5.30847297 5.07118154,5.42905319 4.92235516,5.42905319 M6.1476211,0.527989451 L0.55962989,0.527989451 C0.411040879,0.527989451 0.290460659,0.648332308 0.290460659,0.796921319 L0.290460659,6.38491253 C0.290460659,6.5337389 0.411040879,6.65408176 0.55962989,6.65408176 L6.1476211,6.65408176 C6.29644747,6.65408176 6.41679033,6.5337389 6.41679033,6.38491253 L6.41679033,0.796921319 C6.41679033,0.648332308 6.29644747,0.527989451 6.1476211,0.527989451" id="Fill-16"></path>
                        <path d="M2.39757626,2.36581714 L4.30976967,2.36581714 C4.45859604,2.36581714 4.5789389,2.48639736 4.5789389,2.63498637 L4.5789389,4.54717978 C4.5789389,4.69576879 4.45859604,4.81634901 4.30976967,4.81634901 L2.39757626,4.81634901 C2.24898725,4.81634901 2.12840703,4.69576879 2.12840703,4.54717978 L2.12840703,2.63498637 C2.12840703,2.48639736 2.24898725,2.36581714 2.39757626,2.36581714" id="Fill-18"></path>
                        <path d="M1.7849433,12.7805776 L4.92240264,12.7805776 C5.07122901,12.7805776 5.19157187,12.9011578 5.19157187,13.0497468 L5.19157187,16.1872062 C5.19157187,16.3360325 5.07122901,16.456138 4.92240264,16.456138 L1.7849433,16.456138 C1.63635429,16.456138 1.51577407,16.3360325 1.51577407,16.1872062 L1.51577407,13.0497468 C1.51577407,12.9011578 1.63635429,12.7805776 1.7849433,12.7805776 M0.559677363,17.681404 L6.14766857,17.681404 C6.29649495,17.681404 6.4168378,17.5610611 6.4168378,17.4124721 L6.4168378,11.8244809 C6.4168378,11.6758919 6.29649495,11.5553116 6.14766857,11.5553116 L0.559677363,11.5553116 C0.411088352,11.5553116 0.290508132,11.6758919 0.290508132,11.8244809 L0.290508132,17.4124721 C0.290508132,17.5610611 0.411088352,17.681404 0.559677363,17.681404" id="Fill-20"></path>
                        <path d="M2.39757626,13.3932105 L4.30976967,13.3932105 C4.45859604,13.3932105 4.5789389,13.5137908 4.5789389,13.6623798 L4.5789389,15.5743358 C4.5789389,15.7231622 4.45859604,15.8435051 4.30976967,15.8435051 L2.39757626,15.8435051 C2.24898725,15.8435051 2.12840703,15.7231622 2.12840703,15.5743358 L2.12840703,13.6623798 C2.12840703,13.5137908 2.24898725,13.3932105 2.39757626,13.3932105" id="Fill-22"></path>
                        <path d="M11.930582,12.4370426 L11.930582,13.1242075 C11.930582,13.2727965 12.0511622,13.3931393 12.1997512,13.3931393 L15.3372105,13.3931393 C15.4860369,13.3931393 15.6061424,13.5137196 15.6061424,13.6623086 L15.6061424,16.1871349 C15.6061424,16.3359613 15.4860369,16.4563042 15.3372105,16.4563042 L14.6502831,16.4563042 C14.5014567,16.4563042 14.3811138,16.3359613 14.3811138,16.1871349 L14.3811138,14.2749415 C14.3811138,14.1261152 14.2605336,14.0057723 14.1117073,14.0057723 L10.9744853,14.0057723 C10.8258963,14.0057723 10.705316,14.1261152 10.705316,14.2749415 L10.705316,14.961869 C10.705316,15.1106954 10.8258963,15.2310382 10.9744853,15.2310382 L12.8866787,15.2310382 C13.0352677,15.2310382 13.1558479,15.3513811 13.1558479,15.5002075 L13.1558479,17.4124009 C13.1558479,17.5609899 13.2764281,17.6815701 13.4250171,17.6815701 L16.5624765,17.6815701 C16.7110655,17.6815701 16.8314084,17.5609899 16.8314084,17.4124009 L16.8314084,12.4370426 C16.8314084,12.2884536 16.7110655,12.1678734 16.5624765,12.1678734 L12.1997512,12.1678734 C12.0511622,12.1678734 11.930582,12.2884536 11.930582,12.4370426" id="Fill-24"></path>
                        <path d="M8.52381099,12.7805776 L9.21097582,12.7805776 C9.35956484,12.7805776 9.47990769,12.6599974 9.47990769,12.5114084 L9.47990769,11.8244809 C9.47990769,11.6758919 9.35956484,11.5553116 9.21097582,11.5553116 L7.29854505,11.5553116 C7.14995604,11.5553116 7.02937582,11.6758919 7.02937582,11.8244809 L7.02937582,14.9617029 C7.02937582,15.1105292 7.14995604,15.2311095 7.29854505,15.2311095 L8.59810549,15.2311095 C8.74669451,15.2311095 8.86727473,15.3514523 8.86727473,15.5002787 L8.86727473,16.1872062 C8.86727473,16.3360325 8.74669451,16.456138 8.59810549,16.456138 L7.29854505,16.456138 C7.14995604,16.456138 7.02937582,16.5767182 7.02937582,16.7253073 L7.02937582,17.4124721 C7.02937582,17.5610611 7.14995604,17.681404 7.29854505,17.681404 L9.82360879,17.681404 C9.9721978,17.681404 10.0925407,17.5610611 10.0925407,17.4124721 L10.0925407,14.2750127 C10.0925407,14.1261864 9.9721978,14.0058435 9.82360879,14.0058435 L8.52381099,14.0058435 C8.37522198,14.0058435 8.25464176,13.8852633 8.25464176,13.7366743 L8.25464176,13.0497468 C8.25464176,12.9011578 8.37522198,12.7805776 8.52381099,12.7805776" id="Fill-26"></path>
                        <path d="M10.9743903,16.4562092 L11.6615552,16.4562092 C11.8101442,16.4562092 11.930487,16.5767895 11.930487,16.7253785 L11.930487,17.4123059 C11.930487,17.5608949 11.8101442,17.6814752 11.6615552,17.6814752 L10.9743903,17.6814752 C10.8258013,17.6814752 10.7052211,17.5608949 10.7052211,17.4123059 L10.7052211,16.7253785 C10.7052211,16.5767895 10.8258013,16.4562092 10.9743903,16.4562092" id="Fill-28"></path>
                        <path d="M7.29852132,0.527870769 L9.82358505,0.527870769 C9.97217407,0.527870769 10.0925169,0.648450989 10.0925169,0.79704 L10.0925169,1.48396747 C10.0925169,1.63255648 9.97217407,1.7531367 9.82358505,1.7531367 L7.29852132,1.7531367 C7.14993231,1.7531367 7.02935209,1.63255648 7.02935209,1.48396747 L7.02935209,0.79704 C7.02935209,0.648450989 7.14993231,0.527870769 7.29852132,0.527870769" id="Fill-30"></path>
                        <path d="M15.8755727,10.3299745 L16.5625002,10.3299745 C16.7110892,10.3299745 16.8314321,10.4505547 16.8314321,10.5991437 L16.8314321,11.2860712 C16.8314321,11.4346602 16.7110892,11.5552404 16.5625002,11.5552404 L15.8755727,11.5552404 C15.7267464,11.5552404 15.6061662,11.4346602 15.6061662,11.2860712 L15.6061662,10.5991437 C15.6061662,10.4505547 15.7267464,10.3299745 15.8755727,10.3299745" id="Fill-32"></path>
                        <path d="M15.6062136,7.53588396 L15.6062136,8.22304879 C15.6062136,8.3716378 15.4858708,8.49198066 15.3370444,8.49198066 L14.6503543,8.49198066 C14.5015279,8.49198066 14.3811851,8.3716378 14.3811851,8.22304879 L14.3811851,7.53588396 C14.3811851,7.38729495 14.2606048,7.26671473 14.1117785,7.26671473 L13.4250884,7.26671473 C13.2764993,7.26671473 13.1559191,7.38729495 13.1559191,7.53588396 L13.1559191,8.22304879 C13.1559191,8.3716378 13.0353389,8.49198066 12.8867499,8.49198066 L12.1995851,8.49198066 C12.050996,8.49198066 11.9306532,8.3716378 11.9306532,8.22304879 L11.9306532,7.53588396 C11.9306532,7.38729495 11.810073,7.26671473 11.661484,7.26671473 L10.3616862,7.26671473 C10.2130971,7.26671473 10.0925169,7.38729495 10.0925169,7.53588396 L10.0925169,12.5114796 C10.0925169,12.6600686 10.2130971,12.7806488 10.3616862,12.7806488 L11.048851,12.7806488 C11.19744,12.7806488 11.3180202,12.6600686 11.3180202,12.5114796 L11.3180202,9.98641582 C11.3180202,9.83782681 11.4383631,9.71724659 11.5869521,9.71724659 L16.5623103,9.71724659 C16.7108993,9.71724659 16.8314796,9.59690374 16.8314796,9.44831473 L16.8314796,7.53588396 C16.8314796,7.38729495 16.7108993,7.26671473 16.5623103,7.26671473 L15.8756202,7.26671473 C15.7267938,7.26671473 15.6062136,7.38729495 15.6062136,7.53588396" id="Fill-34"></path>
                        <path d="M12.19968,10.3299745 L12.8868448,10.3299745 C13.0354338,10.3299745 13.1557767,10.4505547 13.1557767,10.5991437 L13.1557767,11.2860712 C13.1557767,11.4346602 13.0354338,11.5552404 12.8868448,11.5552404 L12.19968,11.5552404 C12.051091,11.5552404 11.9305108,11.4346602 11.9305108,11.2860712 L11.9305108,10.5991437 C11.9305108,10.4505547 12.051091,10.3299745 12.19968,10.3299745" id="Fill-36"></path>
                        <path d="M14.0376264,10.3299745 L14.7245538,10.3299745 C14.8733802,10.3299745 14.9937231,10.4505547 14.9937231,10.5991437 L14.9937231,11.2860712 C14.9937231,11.4346602 14.8733802,11.5552404 14.7245538,11.5552404 L14.0376264,11.5552404 C13.8888,11.5552404 13.7684571,11.4346602 13.7684571,11.2860712 L13.7684571,10.5991437 C13.7684571,10.4505547 13.8888,10.3299745 14.0376264,10.3299745" id="Fill-38"></path>
                        <path d="M1.7849433,8.49205187 L2.47210813,8.49205187 C2.62069714,8.49205187 2.74104,8.37147165 2.74104,8.22288264 L2.74104,7.53595516 C2.74104,7.38736615 2.62069714,7.26678593 2.47210813,7.26678593 L0.559677363,7.26678593 C0.411088352,7.26678593 0.290508132,7.38736615 0.290508132,7.53595516 L0.290508132,10.6734145 C0.290508132,10.8220035 0.411088352,10.9425837 0.559677363,10.9425837 L2.47210813,10.9425837 C2.62069714,10.9425837 2.74104,10.8220035 2.74104,10.6734145 L2.74104,9.98648703 C2.74104,9.83789802 2.62069714,9.7173178 2.47210813,9.7173178 L1.7849433,9.7173178 C1.63635429,9.7173178 1.51577407,9.59673758 1.51577407,9.44814857 L1.51577407,8.7612211 C1.51577407,8.61263209 1.63635429,8.49205187 1.7849433,8.49205187" id="Fill-40"></path>
                        <path d="M8.86734593,9.44821978 L8.86734593,7.53578901 C8.86734593,7.3872 8.74676571,7.26685714 8.5981767,7.26685714 L7.91124923,7.26685714 C7.76266022,7.26685714 7.64208,7.3872 7.64208,7.53578901 L7.64208,9.44821978 C7.64208,9.59680879 7.52149978,9.71738901 7.37291077,9.71738901 L6.6859833,9.71738901 C6.53739429,9.71738901 6.41681407,9.59680879 6.41681407,9.44821978 L6.41681407,7.53578901 C6.41681407,7.3872 6.29647121,7.26685714 6.14764484,7.26685714 L4.23545143,7.26685714 C4.08662505,7.26685714 3.96651956,7.3872 3.96651956,7.53578901 L3.96651956,8.22295385 C3.96651956,8.37154286 4.08662505,8.49212308 4.23545143,8.49212308 L4.9223789,8.49212308 C5.07120527,8.49212308 5.19154813,8.61246593 5.19154813,8.76105495 L5.19154813,9.44821978 C5.19154813,9.59680879 5.07120527,9.71738901 4.9223789,9.71738901 L4.23545143,9.71738901 C4.08662505,9.71738901 3.96651956,9.83796923 3.96651956,9.98655824 L3.96651956,10.6734857 C3.96651956,10.8220747 4.08662505,10.9426549 4.23545143,10.9426549 L9.21080967,10.9426549 C9.35939868,10.9426549 9.4799789,10.8220747 9.4799789,10.6734857 L9.4799789,9.98655824 C9.4799789,9.83796923 9.35939868,9.71738901 9.21080967,9.71738901 L9.13651516,9.71738901 C8.98792615,9.71738901 8.86734593,9.59680879 8.86734593,9.44821978" id="Fill-42"></path>
                        <path d="M3.01023297,8.49205187 L3.6973978,8.49205187 C3.84598681,8.49205187 3.96632967,8.61263209 3.96632967,8.7612211 L3.96632967,9.44814857 C3.96632967,9.59673758 3.84598681,9.7173178 3.6973978,9.7173178 L3.01023297,9.7173178 C2.86164396,9.7173178 2.74106374,9.59673758 2.74106374,9.44814857 L2.74106374,8.7612211 C2.74106374,8.61263209 2.86164396,8.49205187 3.01023297,8.49205187" id="Fill-44"></path>
                        <path d="M10.0926356,6.38498374 L10.0926356,5.69805626 C10.0926356,5.54922989 9.97205538,5.4291244 9.82346637,5.4291244 L9.74917187,5.4291244 C9.60058286,5.4291244 9.48000264,5.30854418 9.48000264,5.1597178 L9.48000264,3.86015736 C9.48000264,3.71156835 9.60058286,3.59098813 9.74917187,3.59098813 L9.82346637,3.59098813 C9.97205538,3.59098813 10.0926356,3.47064527 10.0926356,3.32205626 L10.0926356,2.63489143 C10.0926356,2.48630242 9.97205538,2.3657222 9.82346637,2.3657222 L7.29864,2.3657222 C7.15005099,2.3657222 7.02947077,2.48630242 7.02947077,2.63489143 L7.02947077,3.32205626 C7.02947077,3.47064527 7.15005099,3.59098813 7.29864,3.59098813 L7.98556747,3.59098813 C8.13415648,3.59098813 8.2547367,3.71156835 8.2547367,3.86015736 L8.2547367,5.1597178 C8.2547367,5.30854418 8.13415648,5.4291244 7.98556747,5.4291244 L7.29864,5.4291244 C7.15005099,5.4291244 7.02947077,5.54922989 7.02947077,5.69805626 L7.02947077,6.38498374 C7.02947077,6.53381011 7.15005099,6.65415297 7.29864,6.65415297 L9.82346637,6.65415297 C9.97205538,6.65415297 10.0926356,6.53381011 10.0926356,6.38498374" id="Fill-46"></path>
                    </g>
                </g>
            </g>
        </g>
    </g>
</svg>