<svg xmlns="http://www.w3.org/2000/svg" width="24" height="24" viewBox="0 0 24 24">
    <g fill="none" fill-rule="evenodd">
        <path d="M0 0H24V24H0z"/>
        <path fill="#FF6D00" d="M12 2.55c-5.219 0-9.45 4.231-9.45 9.45 0 5.219 4.231 9.45 9.45 9.45 5.219 0 9.45-4.231 9.45-9.45 0-5.219-4.231-9.45-9.45-9.45zm3.263 9.587l-5.189 3.755c-.112.08-.268 0-.268-.137v-.99c0-.215.104-.42.279-.546L13.152 12l-3.067-2.22c-.175-.126-.279-.328-.279-.545v-.99c0-.137.156-.217.268-.137l5.19 3.755c.092.067.092.207 0 .274z"/>
    </g>
</svg>
