<svg xmlns="http://www.w3.org/2000/svg" width="24" height="24" viewBox="0 0 24 24">
    <g fill="none" fill-rule="evenodd">
        <path d="M0 0H24V24H0z"/>
        <path fill="#8E8E93" d="M4.069 9.3H5.25c.093 0 .169-.076.169-.169V5.42H9.13c.093 0 .169-.076.169-.169V4.069c0-.093-.076-.169-.169-.169H5.334c-.793 0-1.434.641-1.434 1.434v3.797c0 .093.076.169.169.169zm10.8-3.881h3.712V9.13c0 .093.076.169.169.169h1.181c.093 0 .169-.076.169-.169V5.334c0-.793-.641-1.434-1.434-1.434h-3.797c-.093 0-.169.076-.169.169V5.25c0 .093.076.169.169.169zM9.13 18.58H5.42V14.87c0-.093-.076-.169-.169-.169H4.069c-.093 0-.169.076-.169.169v3.797c0 .793.641 1.434 1.434 1.434h3.797c.093 0 .169-.076.169-.169V18.75c0-.093-.076-.169-.169-.169zm10.8-3.881H18.75c-.093 0-.169.076-.169.169v3.712H14.87c-.093 0-.169.076-.169.169v1.181c0 .093.076.169.169.169h3.797c.793 0 1.434-.641 1.434-1.434v-3.797c0-.093-.076-.169-.169-.169zm.338-3.46H3.73c-.093 0-.168.077-.168.17v1.18c0 .093.075.17.168.17H20.27c.093 0 .169-.077.169-.17v-1.18c0-.093-.076-.17-.17-.17z"/>
    </g>
</svg>
