<svg xmlns="http://www.w3.org/2000/svg" width="24" height="24" viewBox="0 0 24 24">
    <g fill="none" fill-rule="evenodd">
        <path d="M0 0H24V24H0z"/>
        <path fill="#8E8E93" d="M14.403 3.626c-.125 0-.251.034-.367.112L6.558 8.625h-3.46c-.185 0-.337.152-.337.338v6.075c0 .185.152.337.337.337h3.46l7.478 4.887c.116.076.244.112.367.112.352 0 .677-.28.677-.677V4.303c0-.397-.325-.677-.677-.677zm-.842 14.512l-6.172-4.035-.38-.247H4.28v-3.712h2.73l.378-.247 6.174-4.035v12.276zm7.34-6.897h-2.7c-.185 0-.337.152-.337.337v.844c0 .185.152.337.338.337h2.7c.185 0 .337-.152.337-.337v-.844c0-.185-.152-.337-.337-.337zm-.883 5.522l-2.327-1.344c-.053-.03-.11-.044-.167-.044-.116 0-.23.061-.29.169l-.42.727c-.093.16-.038.368.122.46l2.327 1.344c.052.03.11.044.166.044.116 0 .23-.06.291-.168l.42-.728c.093-.16.036-.367-.122-.46zM17.23 8.456c.061.108.175.169.291.169.057 0 .114-.015.167-.044l2.327-1.344c.16-.093.215-.3.122-.46l-.418-.725c-.06-.108-.175-.17-.29-.17-.058 0-.115.016-.167.045l-2.327 1.344c-.16.093-.215.3-.122.46l.417.725z"/>
    </g>
</svg>
