<svg xmlns="http://www.w3.org/2000/svg" width="24" height="24" viewBox="0 0 24 24">
    <g fill="none" fill-rule="evenodd">
        <path d="M0 0H24V24H0z"/>
        <path fill="#8E8E93" d="M20.269 16.957H3.73c-.093 0-.168.076-.168.169v1.181c0 .093.075.169.168.169H20.27c.093 0 .169-.076.169-.169v-1.181c0-.093-.076-.169-.17-.169zm-15.574-2.64l.838.832c.065.066.173.066.238 0l4.95-4.934 2.06 2.053c.263.261.69.261.953 0l5.573-5.552c.065-.065.065-.173 0-.238l-.838-.836c-.065-.065-.173-.065-.238 0L13.26 10.6 11.2 8.547c-.264-.262-.69-.262-.954 0l-5.55 5.53c-.065.066-.067.174 0 .24z"/>
    </g>
</svg>
