<svg xmlns="http://www.w3.org/2000/svg" width="24" height="24" viewBox="0 0 24 24">
    <g fill="none" fill-rule="evenodd">
        <path d="M0 0H24V24H0z"/>
        <path fill="#8E8E93" d="M19.492 16.51c-.61-.61-1.312-1.097-2.073-1.45 1.087-.88 1.78-2.225 1.78-3.732 0-2.659-2.217-4.84-4.876-4.8-2.618.041-4.728 2.175-4.728 4.8 0 1.507.696 2.851 1.78 3.732-.76.353-1.46.838-2.073 1.45-1.31 1.313-2.054 3.045-2.102 4.893-.002.108.084.197.192.197h1.344c.103 0 .19-.082.192-.185.046-1.392.61-2.695 1.6-3.684 1.035-1.034 2.41-1.603 3.872-1.603 1.461 0 2.836.569 3.87 1.603.99.99 1.554 2.292 1.602 3.684.002.103.088.185.192.185h1.344c.108 0 .194-.089.192-.197-.048-1.848-.792-3.58-2.108-4.893zM14.4 14.4c-.821 0-1.594-.319-2.172-.9-.588-.588-.91-1.37-.9-2.203.007-.787.321-1.548.871-2.112.576-.59 1.346-.919 2.17-.929.813-.007 1.603.31 2.183.879.596.583.922 1.363.922 2.193 0 .821-.32 1.591-.9 2.172-.58.581-1.353.9-2.174.9zm-6.012-2.438c-.022-.209-.034-.42-.034-.634 0-.381.036-.753.104-1.116.016-.086-.03-.175-.108-.21-.327-.147-.627-.349-.886-.603-.62-.605-.953-1.423-.929-2.29.022-.77.331-1.502.871-2.054.593-.607 1.39-.938 2.237-.929.766.007 1.505.303 2.064.826.19.177.353.374.49.585.048.075.141.106.223.077.422-.146.869-.25 1.327-.298.134-.014.211-.158.151-.278-.78-1.543-2.373-2.609-4.217-2.637C7.02 2.36 4.802 4.54 4.802 7.198c0 1.507.694 2.851 1.781 3.732-.763.353-1.466.84-2.076 1.45-1.315 1.312-2.059 3.045-2.107 4.895-.002.108.084.197.192.197h1.346c.104 0 .19-.081.192-.185.046-1.392.61-2.695 1.601-3.684.706-.705 1.57-1.195 2.513-1.432.094-.024.156-.113.144-.21z"/>
    </g>
</svg>
