<svg xmlns="http://www.w3.org/2000/svg" width="202" height="32" viewBox="0 0 202 32">
    <g fill="none" fill-rule="evenodd">
        <path fill="#F76B1C" d="M2.232 26L202 26 199.768 32 0 32z"/>
        <path fill="#202020" fill-rule="nonzero" d="M1.117 14.61c6.486-3.085 11.977-6.746 16.437-10.983 2.906 4.509 6.84 8.17 11.774 10.95l2.536-3.323C26.874 8.576 22.772 4.915 19.522.271h-2.509C12.178 4.678 6.518 8.34 0 11.254l1.117 3.356zm17.058 1.56l2.526-2.95c-2.04-1.728-4.374-3.186-6.996-4.406l-2.53 2.813c2.481 1.085 4.835 2.61 7 4.542zm-7.567 15.66c7.31-2.813 12.562-6.949 15.757-12.406l.576-2.712H2.602L1.903 20H22.04c-2.929 3.729-7.311 6.644-13.175 8.712l1.744 3.119zm27.704-.203l.505-2.373h14.949l-.497 2.34h3.559l6.415-30.17H41.175l-6.422 30.203h3.56zM57.175 13.22H42.226l1.773-8.339h14.95l-1.774 8.34zm-2.674 12.577H39.552l1.939-9.119H56.44l-1.939 9.119zm24.464-2.34c2.29-1.525 4.26-3.457 5.876-5.796.89.915 1.752 1.966 2.591 3.119l2.649-3.051c-1.014-1.288-2.091-2.44-3.25-3.526.878-1.898 1.603-4.034 2.16-6.339h3.459l-.736 3.458c-1.11 5.22-1.099 8.678.013 10.305.611.95 1.554 1.458 2.835 1.492.61 0 1.15-.305 1.679-.882.764-.881 1.547-2.813 2.351-5.796l-2.397-1.322c-.23 1.084-.514 2.101-.81 3.017-.338.949-.616 1.457-.785 1.457-.136 0-.24-.305-.314-.915-.18-1.306.107-3.617.804-6.965l1.552-7.306h-6.915l.865-4.068h-3.458l-.865 4.068h-3.457l-.735 3.457h3.457c-.377 1.458-.809 2.848-1.32 4.136-.557-.407-1.149-.814-1.74-1.22l-2.456 2.78c.834.542 1.654 1.152 2.451 1.864-1.48 2.339-3.341 4.237-5.617 5.695l2.113 2.339zm-8.071-.304c2.17 0 3.5-1.153 3.99-3.458l.98-4.61c1.217-.305 2.434-.61 3.659-.95l.72-3.39-3.673 1.018.865-4.068h3.729l.735-3.458h-3.73l.823-3.864h-3.56l-.821 3.864h-4.407l-.735 3.458h4.406L72.83 12.61c-1.808.373-3.635.678-5.482.915l.148 3.289c1.55-.272 3.072-.577 4.628-.882l-.613 2.882c-.165.78-.59 1.186-1.201 1.186-.881 0-1.809-.102-2.763-.237l.093 3.39h3.254zm20.445 8.745l3.39-2.067c-.69-1.865-1.753-4.034-3.254-6.543l-3.263 1.797c1.399 2.508 2.441 4.78 3.127 6.813zM66.47 32c1.956-1.864 3.822-4.102 5.563-6.712l-2.646-1.424c-1.65 2.34-3.465 4.34-5.378 6L66.47 32zm15.772-.203l3.706-.848c-.241-2.373-.627-4.542-1.144-6.576l-3.474.712c.539 1.932.843 4.17.912 6.712zm-7.81.067l3.739-.847c-.074-2.203-.21-4.271-.485-6.17l-3.466.678c.22 1.83.316 3.933.211 6.34zm36.698-24.17l3.54-1.66C113.95 3.83 113.02 1.83 111.85 0l-3.53 1.458c1.11 1.796 2.06 3.864 2.81 6.237zm12.201 23.764c2.678 0 4.323-1.356 4.892-4.034l5.456-25.661h-16.068l-.692 3.254h12.61l-4.555 21.424c-.252 1.186-.822 1.796-1.67 1.796l-2.927-.101.243 3.322h2.711zm-20.776.305L108.032 6h-3.457l-5.478 25.763h3.458zm39.67-5.627l1.147-5.39h12.542l-1.146 5.39h3.458l1.232-5.797c1.071.542 2.312 1.085 3.703 1.56l2.065-3.018c-2.786-.61-4.959-1.39-6.486-2.339h6.17l.59-2.78h-8.915l.281-1.321h3.966l.534-2.509H157.4l.266-1.254h4.61l.548-2.576h-4.61l.252-1.187h5.255l-.67 3.153h3.39L167.73 2h-12.475c-.18-.746-.383-1.39-.592-2l-3.892.61c.245.44.483.915.721 1.39h-12.305l-1.29 6.068h3.39l.67-3.153h5.22l-.252 1.187h-4.576l-.548 2.576h4.576l-.266 1.254h-3.899l-.533 2.509h3.898l-.28 1.322h-8.814l-.591 2.78h5.898c-1.897.949-4.334 1.728-7.325 2.406l1.17 2.95c1.572-.543 3.05-1.12 4.442-1.763l-1.276 6h3.424zm12.532-20.034h-4.373l.252-1.187h4.373l-.252 1.187zm-.815 3.83h-4.373l.267-1.254h4.373l-.267 1.254zm-.814 3.83h-4.373l.28-1.321h4.374l-.281 1.322zm2.869 4.204h-12c.643-.474 1.252-.95 1.828-1.424h8.915c.306.475.747.95 1.257 1.424zM135.419 32c5.66-.475 9.361-1.458 11.11-2.983 1.574-1.186 2.974-3.627 4.193-7.288l-3.223-.305c-.732 2.644-1.874 4.508-3.393 5.593-1.688 1.085-4.808 1.729-9.394 1.932L135.42 32zm22.475 0l2.388-2.78c-2.741-1.457-5.83-2.712-9.275-3.728l-2.31 2.576c3.255.949 6.303 2.237 9.197 3.932zm21.409-.407c2.339 0 3.756-1.085 4.217-3.254l.331-1.56h10.475l.944-4.44h3.322l.598-2.814h-3.322l.937-4.406h-10.474l.331-1.56h10.034l1.514-7.118h-10.034l.324-1.526h12.882l.634-2.983h-12.881l.353-1.66h-3.526l-.353 1.66h-12.881l-.634 2.983h12.88l-.323 1.526h-10.034l-1.514 7.118h10.034l-.332 1.56h-10.711l-.577 2.712h10.712l-.36 1.694h-13.797l-.598 2.814h13.796L180.917 24h-10.746l-.59 2.78h10.745l-.151.712c-.144.677-.623 1.016-1.403 1.016-1.186 0-2.419-.101-3.678-.237l.04 3.322h4.169zm14.416-20.61h-6.509l.411-1.932h6.509l-.411 1.932zm-10.034 0h-6.509l.411-1.932h6.509l-.411 1.932zm8.828 8.542h-7.12l.361-1.694h7.119l-.36 1.694zM191.56 24h-7.119l.354-1.661h7.118L191.561 24z"/>
    </g>
</svg>
