<svg xmlns="http://www.w3.org/2000/svg" width="24" height="24" viewBox="0 0 24 24">
    <g fill="none" fill-rule="evenodd">
        <path d="M0 0H24V24H0z"/>
        <g>
            <path fill="#ffffff" d="M14.103 6.75c0-.093-.076-.169-.168-.169h-1.15c-.063 0-.122.036-.15.093l-1.786 3.56h-.07l-1.787-3.56c-.03-.057-.086-.093-.15-.093H7.668c-.028 0-.055.007-.08.021-.083.045-.112.148-.068.228l2.192 4.042H8.509c-.093 0-.169.076-.169.168v.572c0 .093.076.169.17.169h1.602v.823H8.51c-.093 0-.169.075-.169.168v.572c0 .093.076.169.17.169h1.602v1.337c0 .093.076.169.17.169h1.052c.092 0 .168-.076.168-.169v-1.34h1.61c.093 0 .169-.075.169-.168v-.572c0-.093-.076-.169-.17-.169h-1.609v-.822h1.61c.093 0 .169-.076.169-.169v-.572c0-.092-.076-.168-.17-.168h-1.214l2.187-4.042c.01-.023.02-.05.02-.078zM3.331 10.635c.02-.95.217-1.87.584-2.74.375-.888.913-1.687 1.599-2.373.685-.685 1.483-1.225 2.37-1.6.92-.389 1.897-.587 2.903-.587 1.009 0 1.985.196 2.903.586.888.376 1.685.916 2.37 1.601.212.211.408.433.59.663l-1.055.824c-.112.087-.074.264.063.298l3.307.808c.106.025.21-.055.21-.163l.016-3.406c0-.142-.162-.222-.272-.133l-1.008.789c-1.654-2.116-4.23-3.472-7.122-3.472-4.946 0-8.969 3.967-9.06 8.897-.001.095.075.173.17.173h1.265c.09 0 .165-.074.167-.165zm16.37.165h-1.265c-.09 0-.167.074-.169.165-.02.95-.217 1.87-.584 2.74-.376.888-.913 1.687-1.599 2.373-.686.685-1.483 1.225-2.371 1.6-.92.389-1.896.587-2.902.587-1.007 0-1.985-.196-2.903-.586-.888-.376-1.685-.916-2.37-1.601-.212-.211-.408-.433-.59-.663l1.053-.824c.112-.087.074-.264-.063-.298l-3.308-.808c-.105-.025-.208.055-.208.163l-.017 3.41c0 .142.162.222.272.133l1.008-.788c1.658 2.111 4.234 3.467 7.126 3.467 4.946 0 8.969-3.967 9.06-8.897.001-.095-.075-.173-.17-.173z" transform="translate(1.2 1.2)"/>
        </g>
    </g>
</svg>
