<svg xmlns="http://www.w3.org/2000/svg" width="24" height="24" viewBox="0 0 24 24">
    <g fill="none" fill-rule="evenodd">
        <path d="M0 0H24V24H0z"/>
        <path fill="#22d8da" d="M12 3.605c2.89 0 5.231 2.341 5.231 5.23 0 1.745-.854 3.292-2.168 4.24.008.005.017.007.025.011.945.401 1.793.973 2.52 1.7.729.728 1.302 1.576 1.701 2.521.392.926.601 1.907.622 2.915.002.095-.074.173-.169.173h-.532v.005H4.81v-.005h-.572c-.076 0-.14-.05-.162-.118l-.007-.055c.02-1.008.23-1.989.622-2.913.4-.945.972-1.793 1.7-2.52.728-.73 1.576-1.302 2.52-1.7l.026-.011C7.623 12.127 6.77 10.58 6.77 8.836c0-2.89 2.341-5.231 5.231-5.231zm0 10.462c-1.692 0-3.28.658-4.476 1.854-.834.834-1.407 1.86-1.677 2.979h12.306c-.27-1.119-.843-2.145-1.677-2.979-1.196-1.196-2.784-1.854-4.476-1.854zm0-8.86c-.968 0-1.88.378-2.565 1.064-.686.685-1.063 1.597-1.063 2.565s.377 1.88 1.063 2.565c.686.685 1.597 1.063 2.565 1.063s1.88-.378 2.565-1.063c.686-.686 1.063-1.597 1.063-2.565s-.377-1.88-1.063-2.565c-.686-.686-1.597-1.063-2.565-1.063z"/>
    </g>
</svg>
