<svg xmlns="http://www.w3.org/2000/svg" width="28" height="28" viewBox="0 0 28 28">
    <g fill="none" fill-rule="evenodd">
        <path d="M0 0H28V28H0z"/>
        <path fill="#202020" d="M20.942 5.075c.547 0 .991.444.991.992v2.975h.992c.548 0 .992.444.992.991v10.909c0 .547-.444.991-.992.991H7.058c-1.196 0-2.975-.792-2.975-2.975V8.05c0-2.183 1.78-2.975 2.975-2.975zM6.067 10.859v8.1c0 .798.545.98 1.003.991h14.863v-8.925H7.058c-.306 0-.648-.052-.991-.166zM19.95 14v2.975h-1.983V14h1.983zm0-6.942H7.058c-.446.012-.991.194-.991.992s.545.98 1.003.992h12.88V7.058z"/>
    </g>
</svg>
