<svg xmlns="http://www.w3.org/2000/svg" width="28" height="28" viewBox="0 0 28 28">
    <g fill="none" fill-rule="evenodd">
        <path d="M0 0H28V28H0z"/>
        <path fill="#FFF" d="M18.383 10.688c.145 0 .29.005.433.012-.6-3.167-3.896-5.589-7.872-5.589-4.4 0-7.969 2.968-7.969 6.63 0 1.996 1.073 3.795 2.754 5.01.135.096.224.254.224.433 0 .06-.013.114-.027.17-.136.5-.35 1.3-.36 1.337-.017.064-.041.128-.041.194 0 .145.118.266.265.266.057 0 .104-.022.153-.05l1.745-1.006c.13-.076.27-.123.423-.123.079 0 .157.012.234.034.814.234 1.693.365 2.601.365.148 0 .293-.003.438-.01-.175-.517-.268-1.06-.268-1.624 0-3.342 3.253-6.05 7.267-6.05zM13.6 8.558c.586 0 1.063.476 1.063 1.062 0 .585-.475 1.06-1.063 1.06-.585 0-1.063-.475-1.063-1.06 0-.586.478-1.061 1.063-1.061zM8.288 10.68c-.586 0-1.063-.475-1.063-1.06 0-.586.475-1.061 1.063-1.061s1.063.475 1.063 1.06c0 .586-.477 1.061-1.063 1.061zm14.44 10.228c1.401-1.014 2.295-2.51 2.295-4.176 0-3.052-2.973-5.525-6.643-5.525-3.666 0-6.642 2.473-6.642 5.525 0 3.051 2.973 5.524 6.642 5.524.758 0 1.492-.108 2.169-.302.064-.02.128-.03.194-.03.128 0 .244.04.352.101l1.454.837c.042.024.082.042.128.042.06 0 .116-.022.158-.064.042-.042.064-.099.064-.158 0-.054-.022-.108-.035-.162-.007-.03-.187-.697-.3-1.115-.012-.047-.022-.094-.022-.14.002-.146.076-.276.187-.357zm-6.557-5.057c-.49 0-.886-.397-.886-.884s.396-.883.886-.883.885.396.885.883-.398.884-.885.884zm4.427 0c-.49 0-.886-.397-.886-.884s.396-.883.886-.883.886.396.886.883c-.003.487-.399.884-.886.884z"/>
    </g>
</svg>
