<svg height="28" viewBox="0 0 28 28" width="28" xmlns="http://www.w3.org/2000/svg"><g fill="none" fill-rule="evenodd"><path d="m0 0h28v28h-28z"/><path d="m10.653 4.156c.108 0 .197.089.197.197v1.575h6.3v-1.575c0-.108.089-.197.197-.197h1.378c.108 0 .197.089.197.197v1.575h4.134c.436 0 .788.352.788.788v16.34c0 .436-.352.788-.788.788h-18.112c-.436 0-.788-.352-.788-.788v-16.34c0-.436.352-.788.788-.788h4.134v-1.575c0-.108.089-.197.197-.197zm-1.575 3.544h-3.15v14.372h16.144v-14.372h-3.15v1.181c0 .109-.089.197-.197.197h-1.378c-.108 0-.197-.088-.197-.197v-1.181h-6.3v1.181c0 .109-.089.197-.197.197h-1.378c-.108 0-.197-.088-.197-.197zm6.634 4.156.167.005c.264.015.462.068.593.16.157.109.235.29.235.54 0 .154-.092.356-.276.608-.184.251-.394.53-.629.834s-.478.682-.727 1.134c-.25.453-.479 1.005-.687 1.658-.087.288-.15.526-.186.716s-.076.436-.12.738c-.044.303-.082.534-.115.695-.076.372-.185.63-.325.774s-.327.216-.56.216c-.223 0-.402-.078-.537-.233s-.202-.384-.202-.686c0-.233.05-.55.148-.952.098-.4.258-.881.48-1.44.223-.56.501-1.135.835-1.723.333-.59.73-1.175 1.19-1.759h-2.926l-.147-.004c-.234-.016-.414-.07-.54-.162-.151-.112-.227-.286-.227-.523 0-.251.08-.413.24-.486.161-.073.386-.11.674-.11z" fill="#202020"/></g></svg>