<svg xmlns="http://www.w3.org/2000/svg" width="28" height="28" viewBox="0 0 28 28">
    <g fill="none" fill-rule="evenodd">
        <path d="M0 0H28V28H0z"/>
        <path fill="#202020" d="M14 2.975C7.912 2.975 2.975 7.912 2.975 14S7.912 25.025 14 25.025 25.025 20.088 25.025 14 20.088 2.975 14 2.975zm0 20.18c-5.055 0-9.155-4.1-9.155-9.155S8.945 4.845 14 4.845s9.155 4.1 9.155 9.155-4.1 9.155-9.155 9.155zm3.928-14.397h-1.465c-.073 0-.142.042-.174.108l-2.23 4.43h-.084l-2.23-4.43c-.034-.066-.1-.108-.174-.108h-1.494c-.032 0-.064.008-.093.025-.096.051-.13.172-.079.268l2.741 5.04h-1.51c-.109 0-.197.089-.197.197v.736c0 .108.088.197.196.197h2.011v1.018h-2.01c-.109 0-.197.089-.197.197v.736c0 .108.088.197.196.197h2.011v1.676c0 .108.089.197.197.197h1.336c.108 0 .197-.089.197-.197v-1.676h2.018c.108 0 .197-.089.197-.197v-.736c0-.108-.089-.197-.197-.197h-2.018v-1.02h2.018c.108 0 .197-.09.197-.198v-.736c0-.108-.089-.196-.197-.196h-1.526l2.734-5.04c.015-.03.025-.062.025-.094-.002-.108-.091-.197-.2-.197z"/>
    </g>
</svg>
