<?xml version="1.0" encoding="utf-8"?>
<svg version="1.1" xmlns="http://www.w3.org/2000/svg" x="0px" y="0px" viewBox="0 0 24 24"
     style="enable-background:new 0 0 24 24;">
    <style type="text/css">
        .st0{fill:#FFFFFF;}
        .st1{fill:#F4ACA7;}
    </style>
    <circle class="st0" cx="12" cy="12" r="10"/>
    <path class="st1" d="M12,24C5.4,24,0,18.6,0,12C0,5.4,5.4,0,12,0c6.6,0,12,5.4,12,12C24,18.6,18.6,24,12,24z M12,2C6.5,2,2,6.5,2,12
	c0,5.5,4.5,10,10,10c5.5,0,10-4.5,10-10C22,6.5,17.5,2,12,2z"/>
    <path class="st1" d="M10,16.5c0.2,0.2,0.6,0.2,0.9,0l7-6.8c0.2-0.2,0.2-0.6,0-0.9L17,8c-0.2-0.2-0.6-0.2-0.9,0l-5.7,5.6l-2.7-2.6
	c-0.2-0.2-0.6-0.2-0.9,0l-0.9,0.8c-0.2,0.2-0.2,0.6,0,0.9L10,16.5z"/>
</svg>
