<svg width="20" height="20" viewBox="0 0 20 20" fill="none" xmlns="http://www.w3.org/2000/svg">
    <path d="M11.5728 9.97653L16.4085 5.18779L17.3944 4.20188C17.5352 4.06103 17.5352 3.82629 17.3944 3.6385L16.3615 2.60563C16.1737 2.46479 15.939 2.46479 15.7981 2.60563L10.0235 8.42723L4.20188 2.60563C4.06103 2.46479 3.82629 2.46479 3.6385 2.60563L2.60563 3.6385C2.46479 3.82629 2.46479 4.06103 2.60563 4.20188L8.42723 9.97653L2.60563 15.7981C2.46479 15.939 2.46479 16.1737 2.60563 16.3615L3.6385 17.3944C3.82629 17.5352 4.06103 17.5352 4.20188 17.3944L10.0235 11.5728L14.8122 16.4085L15.7981 17.3944C15.939 17.5352 16.1737 17.5352 16.3615 17.3944L17.3944 16.3615C17.5352 16.1737 17.5352 15.939 17.3944 15.7981L11.5728 9.97653Z"
          fill="#071F44"/>
</svg>
