<svg width="20" height="21" viewBox="0 0 20 21" fill="none" xmlns="http://www.w3.org/2000/svg">
    <path d="M17.6389 3C18.0527 3 18.4028 3.16741 18.7211 3.46875C19.0075 3.80357 19.1667 4.17188 19.1667 4.60714V16.3929C19.1667 16.8616 19.0075 17.2299 18.7211 17.5313C18.4028 17.8661 18.0527 18 17.6389 18H2.36112C1.91552 18 1.5654 17.8661 1.27895 17.5313C0.960658 17.2299 0.833344 16.8616 0.833344 16.3929V4.60714C0.833344 4.17188 0.960658 3.80357 1.27895 3.46875C1.5654 3.16741 1.91552 3 2.36112 3H17.6389ZM2.55209 4.60714C2.48844 4.60714 2.45661 4.64063 2.42478 4.67411C2.36112 4.74107 2.36112 4.77455 2.36112 4.80804V6.21429H17.6389V4.80804C17.6389 4.77455 17.6071 4.74107 17.5752 4.67411C17.5116 4.64063 17.4798 4.60714 17.4479 4.60714H2.55209ZM17.4479 16.3929C17.4798 16.3929 17.5116 16.3929 17.5752 16.3259C17.6071 16.2924 17.6389 16.2589 17.6389 16.192V10.5H2.36112V16.192C2.36112 16.2589 2.36112 16.2924 2.42478 16.3259C2.45661 16.3929 2.48844 16.3929 2.55209 16.3929H17.4479ZM6.94445 13.0446C6.94445 12.9442 6.8808 12.8438 6.81714 12.7768C6.75348 12.7098 6.658 12.6429 6.56251 12.6429H4.27084C4.14353 12.6429 4.04804 12.7098 3.98439 12.7768C3.92073 12.8438 3.8889 12.9442 3.8889 13.0446V14.3839C3.8889 14.5179 3.92073 14.6183 3.98439 14.6853C4.04804 14.7522 4.14353 14.7857 4.27084 14.7857H6.56251C6.658 14.7857 6.75348 14.7522 6.81714 14.6853C6.8808 14.6183 6.94445 14.5179 6.94445 14.3839V13.0446ZM13.0556 13.0446C13.0556 12.9442 12.9919 12.8438 12.9283 12.7768C12.8646 12.7098 12.7691 12.6429 12.6736 12.6429H8.34492C8.2176 12.6429 8.12212 12.7098 8.05846 12.7768C7.9948 12.8438 7.96297 12.9442 7.96297 13.0446V14.3839C7.96297 14.5179 7.9948 14.6183 8.05846 14.6853C8.12212 14.7522 8.2176 14.7857 8.34492 14.7857H12.6736C12.7691 14.7857 12.8646 14.7522 12.9283 14.6853C12.9919 14.6183 13.0556 14.5179 13.0556 14.3839V13.0446Z"
          fill="#3A87FC"/>
</svg>
