<svg width="20" height="21" viewBox="0 0 20 21" fill="none" xmlns="http://www.w3.org/2000/svg">
    <path d="M10.0102 10.1146C9.50844 10.1146 9.15006 10.5089 9.15006 10.9748C9.1859 13.5909 8.82752 16.0638 8.14659 18.5724C8.03908 18.9308 8.21827 19.6476 8.97087 19.6476C9.36509 19.6476 9.68763 19.4326 9.79515 19.0383C10.2969 17.3181 10.9061 14.5586 10.8703 10.9748C10.8703 10.5089 10.4761 10.1146 10.0102 10.1146ZM9.97434 7.21174C7.78821 7.21174 6.24717 8.89614 6.28301 10.8314C6.28301 12.5516 6.13966 14.2719 5.78128 15.9204C5.7096 16.3863 5.9963 16.8522 6.4622 16.9597C6.9281 17.0314 7.39399 16.7447 7.46567 16.2788C7.85989 14.4869 8.00324 12.6591 8.00324 10.7956C7.9674 9.86377 8.72 8.93198 9.9385 8.93198C11.0495 8.93198 11.9813 9.82793 12.0171 10.9031C12.0171 12.6233 11.9096 14.3794 11.6229 16.0638C11.5512 16.5297 11.8738 16.9597 12.3397 17.0314C13.0564 17.1748 13.3073 16.4938 13.3073 16.3505C13.6298 14.5586 13.7373 12.695 13.7373 10.8672C13.7015 8.89614 12.0171 7.24758 9.97434 7.21174ZM5.9963 6.49498C5.63792 6.20828 5.10035 6.24411 4.77781 6.6025C3.88185 7.74932 3.38012 9.18284 3.41596 10.6164C3.41596 11.9782 3.30844 13.3401 3.05758 14.6302C2.9859 15.132 3.30844 15.562 3.77434 15.6337C4.4911 15.7771 4.74197 15.132 4.77781 14.9528C5.02867 13.5193 5.13619 12.0499 5.13619 10.6164C5.10035 9.54123 5.45873 8.53776 6.13966 7.71348C6.42636 7.31926 6.35469 6.78169 5.9963 6.49498ZM9.9385 4.27302C9.36509 4.23718 8.82752 4.30885 8.28995 4.45221C7.82405 4.55972 7.53735 5.02562 7.64486 5.45568C7.75237 5.92157 8.21827 6.20828 8.68417 6.10076C9.07839 6.02909 9.47261 5.99325 9.90266 5.99325C12.5905 6.02909 14.8483 8.17938 14.8842 10.7956C14.8842 12.1574 14.8125 13.5193 14.6691 14.8811C14.6333 15.347 14.9558 15.7771 15.4217 15.8129C16.031 15.8846 16.3535 15.4187 16.3894 15.0603C16.4969 14.021 16.6044 12.3366 16.6044 11.2973C16.6044 11.1539 16.6044 10.9031 16.6044 10.7597C16.5327 7.24758 13.5582 4.30885 9.9385 4.27302ZM18.9697 8.60943C18.8622 8.14354 18.3963 7.85683 17.9304 7.96435C17.4645 8.07186 17.1778 8.50192 17.2853 8.96781C17.4287 9.75625 17.4645 10.3297 17.4287 11.1898C17.4287 11.6557 17.8229 12.0499 18.2888 12.0499C18.7905 12.0499 19.1489 11.6915 19.1489 11.1898C19.1847 10.4013 19.1847 9.6129 18.9697 8.60943ZM17.5004 5.34816C15.7801 2.87533 12.9131 1.37012 9.86683 1.33429C7.39399 1.29845 5.06451 2.1944 3.34428 3.91463C1.69573 5.59903 0.799772 7.82099 0.83561 10.1505V10.9389C0.799772 11.4048 1.19399 11.799 1.65989 11.799C1.65989 11.799 1.65989 11.799 1.69573 11.799C2.12578 11.799 2.52 11.4406 2.52 10.9748L2.55584 10.1146C2.52 8.25105 3.23677 6.49498 4.56278 5.13313C5.96047 3.77128 7.82405 3.01868 9.86683 3.05452C12.3397 3.09036 14.6691 4.30885 16.1027 6.35163C16.3894 6.74585 16.9269 6.81752 17.3212 6.56666C17.6795 6.27995 17.7871 5.74238 17.5004 5.34816Z"
          fill="#3A87FC"/>
</svg>
