<svg width="21" height="20" viewBox="0 0 21 20" fill="none" xmlns="http://www.w3.org/2000/svg">
    <path d="M19.6903 6.84874C19.8691 6.66867 19.8691 6.41657 19.6903 6.23649L16.1148 2.63505C15.936 2.45498 15.65 2.45498 15.507 2.63505L14.7919 3.35534C14.6131 3.4994 14.6131 3.78751 14.7919 3.96759L16.6154 5.66026H1.95588C1.70559 5.66026 1.52682 5.87635 1.52682 6.09244V6.95678C1.52682 7.20888 1.70559 7.38896 1.95588 7.38896H16.6154L14.7919 9.11765C14.6131 9.29772 14.6131 9.58583 14.7919 9.72989L15.507 10.4502C15.65 10.6303 15.936 10.6303 16.1148 10.4502L19.6903 6.84874ZM1.63408 13.7635L5.20957 17.3649C5.38835 17.545 5.67439 17.545 5.81741 17.3649L6.5325 16.6447C6.71128 16.5006 6.71128 16.2125 6.5325 16.0324L4.709 14.3037H19.4043C19.6188 14.3037 19.8333 14.1236 19.8333 13.8715V13.0072C19.8333 12.7911 19.6188 12.575 19.4043 12.575H4.709L6.5325 10.8824C6.71128 10.7023 6.71128 10.4142 6.5325 10.2701L5.81741 9.54982C5.67439 9.36975 5.38835 9.36975 5.20957 9.54982L1.63408 13.1513C1.45531 13.3313 1.45531 13.5834 1.63408 13.7635Z"
          fill="white"/>
</svg>
