<svg width="20" height="20" viewBox="0 0 20 20" fill="none" xmlns="http://www.w3.org/2000/svg">
    <path fill-rule="evenodd" clip-rule="evenodd"
          d="M3.29612 10.3843C3.50556 10.5981 3.86027 10.6165 4.0524 10.3797L9.01954 5.3429V17.7917C9.01954 18.1035 9.24479 18.3334 9.55038 18.3334H10.4829C10.748 18.3334 11.0138 18.1106 11.0138 17.7917V5.34437L15.9475 10.3795C16.1396 10.6165 16.4944 10.5981 16.7039 10.3843L17.3334 9.70814C17.5641 9.51183 17.5457 9.15072 17.3367 8.93736L10.3758 1.83342C10.2704 1.72577 10.1379 1.66675 10 1.66675C9.86206 1.66675 9.72963 1.72577 9.62415 1.83342L2.66332 8.93736C2.45426 9.15072 2.43588 9.51183 2.66665 9.70815L3.29375 10.3819L3.29612 10.3843Z"
          fill="white"/>
</svg>
