<svg width="20" height="21" viewBox="0 0 20 21" fill="none" xmlns="http://www.w3.org/2000/svg">
    <path d="M17.6389 3H2.36112C1.50175 3 0.833344 3.70023 0.833344 4.52778V15.7315C0.833344 16.5909 1.50175 17.2593 2.36112 17.2593H17.6389C18.4664 17.2593 19.1667 16.5909 19.1667 15.7315V4.52778C19.1667 3.70023 18.4664 3 17.6389 3ZM17.6389 15.7315H10.4774C10.5093 15.6042 10.5093 15.8588 10.5093 15.0312C10.5093 14.0127 9.52258 13.1852 8.34492 13.1852C8.02663 13.1852 7.772 13.4398 6.94445 13.4398C6.08508 13.4398 5.86228 13.1852 5.51216 13.1852C4.3345 13.1852 3.37964 14.0127 3.37964 15.0312C3.37964 15.8588 3.34781 15.6042 3.37964 15.7315H2.36112V6.56481H17.6389V15.7315ZM12.2917 13.1852H15.8565C15.9838 13.1852 16.1111 13.0897 16.1111 12.9306V12.4213C16.1111 12.294 15.9838 12.1667 15.8565 12.1667H12.2917C12.1325 12.1667 12.037 12.294 12.037 12.4213V12.9306C12.037 13.0897 12.1325 13.1852 12.2917 13.1852ZM12.2917 11.1481H15.8565C15.9838 11.1481 16.1111 11.0527 16.1111 10.8935V10.3843C16.1111 10.2569 15.9838 10.1296 15.8565 10.1296H12.2917C12.1325 10.1296 12.037 10.2569 12.037 10.3843V10.8935C12.037 11.0527 12.1325 11.1481 12.2917 11.1481ZM12.2917 9.11111H15.8565C15.9838 9.11111 16.1111 9.01562 16.1111 8.85648V8.34722C16.1111 8.21991 15.9838 8.09259 15.8565 8.09259H12.2917C12.1325 8.09259 12.037 8.21991 12.037 8.34722V8.85648C12.037 9.01562 12.1325 9.11111 12.2917 9.11111ZM6.94445 12.1667C8.05846 12.1667 8.98149 11.2755 8.98149 10.1296C8.98149 9.01562 8.05846 8.09259 6.94445 8.09259C5.79862 8.09259 4.90742 9.01562 4.90742 10.1296C4.90742 11.2755 5.79862 12.1667 6.94445 12.1667Z"
          fill="#3A87FC"/>
</svg>
