<svg width="20" height="21" viewBox="0 0 20 21" fill="none" xmlns="http://www.w3.org/2000/svg">
    <path d="M10.9646 6.93333C11.0134 6.82187 11.0841 6.71666 11.1765 6.61979C11.1798 6.61646 11.1827 6.6127 11.1858 6.60879C11.1875 6.60659 11.1892 6.60433 11.1911 6.60208C11.2918 6.5 11.403 6.42291 11.5224 6.36979C11.646 6.42187 11.7593 6.49791 11.8611 6.59791C11.8647 6.60208 11.8683 6.60599 11.872 6.60989C11.8756 6.6138 11.8793 6.61771 11.8829 6.62187C11.9213 6.66146 11.9556 6.70312 11.9868 6.74687C12.1125 6.92604 12.1769 7.13333 12.1769 7.37187C12.1769 7.6125 12.1062 7.82708 11.967 8.01666C11.939 8.05416 11.9089 8.09166 11.8756 8.12812C11.8742 8.12957 11.8727 8.13124 11.8712 8.13304C11.8694 8.13511 11.8675 8.13735 11.8652 8.13958C11.7624 8.24791 11.6502 8.32916 11.5276 8.38333C11.4009 8.33125 11.2866 8.25312 11.1869 8.15C11.1817 8.1448 11.1765 8.13856 11.1714 8.13232C11.0903 8.04482 11.0269 7.94791 10.9802 7.84166C10.9148 7.69375 10.8805 7.52812 10.8805 7.34271C10.8805 7.19687 10.9085 7.06041 10.9646 6.93333Z"
          fill="#3A87FC"/>
    <path d="M12.047 10.574C11.8902 10.4427 11.7188 10.35 11.5328 10.2958C11.3396 10.3521 11.163 10.45 11.003 10.5865C10.974 10.6115 10.9449 10.6365 10.9168 10.6635C10.7891 10.7896 10.6904 10.9271 10.6187 11.076C10.5283 11.2635 10.4816 11.4688 10.4816 11.6917C10.4816 11.9521 10.5325 12.1854 10.6312 12.3927C10.6987 12.5344 10.788 12.6656 10.9023 12.7833C10.9314 12.8135 10.9625 12.8417 10.9937 12.8688C11.1537 13.0094 11.3334 13.1073 11.5349 13.1625C11.7312 13.1083 11.9068 13.0146 12.0636 12.8802C12.099 12.85 12.1343 12.8177 12.1675 12.7823C12.207 12.7417 12.2423 12.699 12.2766 12.6552C12.4843 12.3875 12.5882 12.0667 12.5882 11.6906C12.5882 11.3615 12.4854 11.0708 12.2828 10.8156C12.2423 10.7646 12.1987 10.7146 12.1499 10.6656C12.1166 10.6344 12.0823 10.6042 12.047 10.574Z"
          fill="#3A87FC"/>
    <path d="M10.8774 13.2021C10.6114 13.1646 10.3787 13.0635 10.1772 12.8969C10.1346 12.8615 10.0931 12.824 10.0567 12.7833C9.77625 12.4927 9.63602 12.1292 9.63602 11.6917C9.63602 11.2896 9.78041 10.9469 10.0702 10.6625C10.0946 10.6389 10.1203 10.6167 10.1458 10.5947C10.1517 10.5896 10.1579 10.5843 10.1637 10.5792C10.3767 10.4 10.6187 10.2917 10.8898 10.2531C10.9625 10.2437 11.0373 10.2365 11.1142 10.2365C11.1215 10.2365 11.1285 10.237 11.1355 10.2375C11.1425 10.238 11.1495 10.2385 11.1568 10.2385C11.2212 10.2406 11.2835 10.2458 11.3448 10.2552C11.0384 10.301 10.7683 10.4354 10.5366 10.6635C10.4556 10.7427 10.3871 10.8271 10.3289 10.9156C10.2894 10.974 10.2562 11.0354 10.2271 11.099C10.144 11.2802 10.1014 11.4771 10.1014 11.6917C10.1014 11.9469 10.1502 12.176 10.2458 12.3812C10.2738 12.4437 10.306 12.5031 10.3434 12.5604C10.3954 12.6385 10.4546 12.7135 10.5221 12.7833C10.7496 13.0187 11.0249 13.1573 11.3458 13.2021C11.2835 13.2104 11.2212 13.2156 11.1557 13.2177C11.1412 13.2187 11.1267 13.2198 11.1121 13.2198C11.0311 13.2198 10.9532 13.2125 10.8774 13.2021Z"
          fill="#3A87FC"/>
    <path d="M10.4556 8.25417C10.6187 8.37917 10.8109 8.44896 11.0342 8.46355C11.0633 8.46563 11.0924 8.46771 11.1235 8.46771C11.137 8.46771 11.1506 8.46667 11.1641 8.46563C11.2264 8.46355 11.2866 8.45625 11.3448 8.44376C11.1339 8.40209 10.9542 8.30521 10.8046 8.15C10.761 8.10521 10.7236 8.0573 10.6893 8.0073C10.6509 7.95105 10.6187 7.89167 10.5917 7.83021C10.5294 7.68542 10.4972 7.52396 10.4972 7.34376C10.4972 7.20209 10.5231 7.0698 10.5761 6.94584C10.6031 6.8823 10.6364 6.82188 10.6769 6.76251C10.7153 6.7073 10.7589 6.65417 10.8088 6.60313C10.9594 6.44896 11.1329 6.35209 11.3261 6.31042C11.2638 6.29792 11.1983 6.29063 11.1308 6.28855L11.1281 6.28836C11.1135 6.28739 11.0998 6.28646 11.0851 6.28646C11.0706 6.28646 11.056 6.2875 11.0415 6.28855C10.8223 6.29688 10.627 6.36875 10.4556 6.50313C10.4172 6.53334 10.3787 6.56667 10.3424 6.60313C10.1346 6.81459 10.0308 7.06146 10.0308 7.34271C10.0308 7.6698 10.1326 7.93855 10.3372 8.15C10.3746 8.18959 10.4141 8.22292 10.4556 8.25417Z"
          fill="#3A87FC"/>
    <path d="M10.0546 1.6625L10.3632 2.21146L10.9792 2.33646L10.5543 2.8L10.626 3.42709L10.0546 3.16459L9.48228 3.42709L9.55499 2.8L9.12909 2.33646L9.74509 2.21146L10.0546 1.6625Z"
          fill="#3A87FC"/>
    <path d="M7.51172 2.98021L7.70389 3.32084L8.08616 3.39896L7.82231 3.68646L7.86698 4.07605L7.51172 3.91251L7.1575 4.07605L7.20216 3.68646L6.93728 3.39896L7.32058 3.32084L7.51172 2.98021Z"
          fill="#3A87FC"/>
    <path d="M12.8116 3.32084L12.6194 2.98021L12.4282 3.32084L12.0449 3.39896L12.3098 3.68646L12.2652 4.07605L12.6194 3.91251L12.9746 4.07605L12.93 3.68646L13.1938 3.39896L12.8116 3.32084Z"
          fill="#3A87FC"/>
    <path fill-rule="evenodd" clip-rule="evenodd"
          d="M10.198 1.23333C13.2634 3.3125 18.3565 3.62917 18.3565 3.62917C18.3565 3.62917 18.4126 5.32812 18.0252 9.89687C17.6388 14.4656 14.8278 17.3677 10.1699 19.8062L10.0391 19.875L9.90818 19.8062C5.2503 17.3687 2.43937 14.4656 2.05295 9.89687C1.66548 5.32812 1.72158 3.62812 1.72158 3.62812C1.72158 3.62812 6.81366 3.31146 9.88013 1.23229L10.0391 1.125L10.198 1.23333ZM5.04878 15.6583C5.29912 15.9729 5.57232 16.2771 5.86837 16.5729V15.2646C5.56713 14.9333 5.29289 14.5885 5.04878 14.2333V15.6583ZM6.88638 17.4885C7.14711 17.699 7.42031 17.9062 7.70597 18.1094V16.8792C7.41927 16.676 7.14607 16.4635 6.88638 16.2437V17.4885ZM8.72397 18.7833C8.98886 18.9469 9.26102 19.1083 9.54357 19.2667V17.9688C9.26102 17.8292 8.98782 17.6833 8.72397 17.5302V18.7833ZM10.5616 19.25C10.8441 19.0906 11.1173 18.9292 11.3812 18.7656V17.5292C11.1163 17.6823 10.8431 17.8281 10.5616 17.9677V19.25ZM12.4002 18.0896C12.6859 17.8854 12.9601 17.6781 13.2198 17.4656V16.2437C12.9601 16.4635 12.6869 16.676 12.4002 16.8792V18.0896ZM10.0526 17.7448L10.2499 17.649C13.8981 15.8844 16.0754 12.926 16.0816 9.73646V5.84271L15.6869 5.80729L15.6832 5.80691C15.6465 5.80321 15.3561 5.77394 14.9078 5.69687C14.9992 5.84792 15.0792 6.00521 15.1436 6.17083C15.4365 6.21458 15.6194 6.23333 15.6443 6.23542V9.7375C15.6443 9.85729 15.6401 9.97604 15.6329 10.0948C15.6256 10.2281 15.6142 10.3604 15.5986 10.4917C15.5981 10.4943 15.5978 10.4969 15.5976 10.4995C15.5973 10.5021 15.597 10.5047 15.5965 10.5073C15.582 10.6313 15.5633 10.7542 15.5415 10.8771C15.5409 10.8793 15.5405 10.8817 15.5402 10.884C15.5398 10.8862 15.5396 10.8884 15.5393 10.8906C15.5388 10.8951 15.5383 10.8996 15.5373 10.9042L15.5368 10.9026L15.5363 10.901C15.4968 10.6833 15.4386 10.4833 15.3607 10.3031C15.314 10.1969 15.2558 10.0875 15.1883 9.975C15.02 9.69687 14.7873 9.40208 14.485 9.08854C14.5453 9.00729 14.5993 8.92396 14.6502 8.83958C14.9068 8.41354 15.0377 7.95417 15.0377 7.46146C15.0377 6.95833 14.941 6.50729 14.7499 6.10833C14.7094 6.02396 14.6668 5.94062 14.618 5.86146C14.565 5.775 14.5068 5.69271 14.4445 5.6125C14.3625 5.50625 14.2731 5.40521 14.1734 5.30833C14.0737 5.21146 13.9677 5.12708 13.8586 5.04688C13.6312 4.88021 13.385 4.74688 13.117 4.65312C12.7887 4.5375 12.4293 4.47812 12.0387 4.47083C12.0298 4.47047 12.021 4.46999 12.0124 4.46951C11.996 4.4686 11.9799 4.46771 11.9629 4.46771C11.8985 4.46771 11.8351 4.46979 11.7728 4.47292C11.8985 4.47812 12.019 4.49167 12.1384 4.50938C12.5321 4.56667 12.8895 4.6875 13.2104 4.87188C13.4182 4.99167 13.6125 5.13438 13.7901 5.30729C13.8576 5.37292 13.9199 5.44167 13.9791 5.51146C14.0809 5.63125 14.1724 5.75625 14.2513 5.88854C14.2773 5.93228 14.3011 5.97706 14.325 6.02183L14.3257 6.02337L14.3261 6.02448C14.3261 6.02448 14.3266 6.02604 14.3271 6.02708C14.5442 6.44583 14.6533 6.92292 14.6533 7.46042C14.6533 7.89271 14.5525 8.3 14.3541 8.68125C14.3334 8.72187 14.3095 8.7625 14.2856 8.80312C14.2295 8.9 14.1692 8.99479 14.0996 9.0875C14.4144 9.41458 14.6554 9.72083 14.8247 10.0094C14.8467 10.0465 14.8665 10.0836 14.886 10.1201L14.8964 10.1396C14.9255 10.1948 14.9525 10.25 14.9753 10.3031C15.1343 10.6729 15.2142 11.1229 15.2142 11.6531C15.2142 11.8229 15.2039 11.9875 15.1841 12.1479V12.151C15.181 12.1573 15.1779 12.1646 15.1758 12.1708C15.1743 12.175 15.1727 12.1789 15.1711 12.1828L15.1696 12.1867C15.1686 12.1893 15.1675 12.192 15.1665 12.1948C15.1322 12.2833 15.0948 12.3719 15.0564 12.4594C15.0507 12.4717 15.0451 12.4843 15.0395 12.4968L15.0392 12.4974L15.039 12.4979C15.0333 12.5105 15.0277 12.5231 15.0221 12.5354C14.9888 12.6083 14.9546 12.6812 14.9192 12.7531C14.9057 12.7792 14.8933 12.8042 14.8808 12.8302C14.833 12.924 14.7842 13.0177 14.7323 13.1104L14.7198 13.1323C14.6637 13.2333 14.6045 13.3333 14.5422 13.4333L14.5411 13.4344C14.4206 13.6281 14.2908 13.8177 14.1516 14.0042C14.0685 14.1156 13.9823 14.2271 13.8929 14.3365C13.8908 14.3385 13.8877 14.3417 13.8857 14.3448C13.8067 14.4417 13.7257 14.5365 13.6415 14.6302L13.6412 14.631L13.6405 14.6313C13.5304 14.7542 13.4172 14.875 13.2987 14.9938L13.2977 14.9948H13.2987C13.2177 15.076 13.1346 15.1573 13.0494 15.2375L13.0484 15.2382L13.0468 15.2396C13.0461 15.2404 13.0453 15.2411 13.0442 15.2417C12.9591 15.3219 12.8718 15.4 12.7835 15.4781H12.7814C12.0086 16.1562 11.0955 16.7604 10.0557 17.2635L10.0515 17.2656L10.0474 17.2635C9.08962 16.8 8.2399 16.2521 7.50756 15.6396V11.9375C7.51587 12.051 7.52834 12.1635 7.54496 12.2729C7.59794 12.6156 7.69662 12.9365 7.84101 13.2344C8.00929 13.5833 8.2399 13.9031 8.53284 14.1917C8.54374 14.2021 8.55465 14.2122 8.56555 14.2224C8.57646 14.2325 8.58738 14.2427 8.59828 14.2531C8.99925 14.6302 9.45735 14.8958 9.97154 15.05C10.3278 15.1573 10.7122 15.2115 11.1235 15.2115C11.1308 15.2115 11.1381 15.2112 11.1454 15.2109C11.1526 15.2107 11.1599 15.2104 11.1672 15.2104C11.2305 15.2104 11.2939 15.2083 11.3562 15.2052C11.4206 15.201 11.484 15.1969 11.5474 15.1906C12.0751 15.1396 12.5539 14.9906 12.983 14.7448C13.2427 14.5958 13.4847 14.4115 13.708 14.1917C13.7641 14.1365 13.8181 14.0792 13.8701 14.0208C14.4518 13.3719 14.7437 12.5813 14.7437 11.65C14.7437 11.1198 14.6647 10.6698 14.5048 10.3C14.3458 9.93021 14.0539 9.525 13.6301 9.08542C13.9989 8.59062 14.1838 8.04792 14.1838 7.45833C14.1838 6.87083 14.0539 6.35417 13.7932 5.90833C13.7059 5.75833 13.6031 5.61458 13.4847 5.48021C13.4473 5.43854 13.4078 5.39792 13.3683 5.35729C13.3633 5.35189 13.3582 5.34639 13.3532 5.34084C13.3426 5.32932 13.3317 5.31746 13.3206 5.30625C13.1585 5.14896 12.984 5.01458 12.796 4.90104C12.4262 4.67708 12.0065 4.54063 11.538 4.48958C11.4747 4.48333 11.4113 4.47813 11.3458 4.47396C11.2825 4.47083 11.2191 4.46875 11.1547 4.46771C11.1474 4.46771 11.1402 4.46745 11.1329 4.46719C11.1256 4.46693 11.1184 4.46667 11.1111 4.46667C11.0872 4.46667 11.0641 4.46757 11.0408 4.46848C11.0287 4.46896 11.0165 4.46944 11.0041 4.46979C10.7465 4.47708 10.5034 4.50833 10.2728 4.56354C10.2556 4.56797 10.2384 4.57194 10.2213 4.57588C10.2023 4.58028 10.1834 4.58464 10.1648 4.58958C9.7212 4.71354 9.33166 4.93125 8.99301 5.24167C8.98663 5.24754 8.98025 5.25334 8.97388 5.25912C8.95538 5.27592 8.93704 5.29259 8.91926 5.31042C8.34586 5.87292 8.05915 6.5875 8.05915 7.45208C8.05915 8.05208 8.24406 8.59792 8.61282 9.0875C8.27106 9.44271 8.01449 9.78437 7.84205 10.1115C7.80777 10.175 7.77557 10.2385 7.74856 10.3021C7.65403 10.5208 7.58651 10.7615 7.546 11.0219C7.52834 11.1302 7.51587 11.2417 7.5086 11.3573V7.40729H7.21255V15.3833C7.06505 15.251 6.92273 15.1146 6.78665 14.976V7.40625H6.11145C5.6897 7.87604 5.12357 8.2875 4.46706 8.51458C4.32579 8.56354 4.18036 8.60521 4.02974 8.63542C4.02299 8.63646 4.01624 8.63828 4.00948 8.6401C4.00273 8.64193 3.99598 8.64375 3.98923 8.64479V8.91146C4.00272 8.90938 4.01625 8.90729 4.02974 8.90625C4.16997 8.89167 4.31748 8.86563 4.46706 8.83125C4.78909 8.75625 5.11838 8.64167 5.39781 8.50937V13.1521C5.34275 13.0531 5.28978 12.9542 5.23888 12.8542C5.22849 12.8354 5.21914 12.8167 5.20979 12.7979C5.16512 12.7094 5.12253 12.6198 5.08202 12.5302C5.07943 12.5245 5.07658 12.5185 5.07373 12.5126C5.07089 12.5066 5.06799 12.5005 5.0654 12.4948V12.4917C4.67378 11.6125 4.46706 10.6854 4.46706 9.73646V9.17396C4.31644 9.20625 4.1679 9.23125 4.02974 9.24375V9.7375C4.02974 12.926 6.20805 15.8833 9.8552 17.649L10.0526 17.7448ZM4.03078 5.84375V8.29479C4.17828 8.26146 4.32475 8.21979 4.47018 8.16458V6.23646C4.55536 6.22917 6.66927 6.01771 8.7302 5.12292C8.73708 5.11602 8.74356 5.10871 8.75008 5.10136C8.75831 5.09207 8.76663 5.08268 8.77591 5.07396C9.25167 4.60729 9.82819 4.31354 10.4961 4.19479C10.4276 4.15417 10.36 4.11354 10.2936 4.07188L10.0536 3.92188L9.81469 4.07188C7.54032 5.49744 4.51624 5.79938 4.42829 5.80816L4.42655 5.80833L4.03078 5.84375ZM15.0574 15.624V14.2333C14.8122 14.5885 14.539 14.9333 14.2378 15.2646V16.5448C14.5338 16.2469 14.807 15.9406 15.0574 15.624ZM16.0754 14.0406C16.6457 12.9177 16.9781 11.6802 17.0674 10.2958C17.3323 6.20521 17.3032 4.13333 17.3032 4.13333C16.36 4.01146 12.7804 3.00104 10.0391 1.20729C7.29669 3.00104 3.71811 4.01146 2.7749 4.13333C2.7749 4.13333 2.74581 6.20521 3.0107 10.2958C3.10211 11.7042 3.44283 12.9604 4.03078 14.0979V12.249C3.74615 11.4427 3.59761 10.6031 3.59761 9.74583V5.45312L4.4224 5.37917L4.42523 5.37887C4.53174 5.36786 7.41617 5.06964 9.55915 3.72604L10.0526 3.41667L10.547 3.72604C10.7849 3.87604 11.0332 4.01146 11.2856 4.13646C11.3199 4.13646 11.3552 4.1375 11.3895 4.13854C11.4518 4.13542 11.5152 4.13437 11.5785 4.13437C11.6429 4.13437 11.7073 4.13542 11.7707 4.13854C11.833 4.13646 11.8964 4.13437 11.9608 4.13437C12.9435 4.13437 13.7652 4.44896 14.403 5.06875C14.4323 5.09739 14.4595 5.12758 14.4865 5.1575C14.4977 5.16997 14.509 5.18255 14.5203 5.19479C15.2101 5.33229 15.6744 5.37813 15.6859 5.37917L16.5086 5.45312V9.74583C16.5086 10.6021 16.359 11.4427 16.0754 12.249V14.0406Z"
          fill="#3A87FC"/>
</svg>
