<svg width="16" height="17" viewBox="0 0 16 17" fill="none" xmlns="http://www.w3.org/2000/svg">
<path d="M12.2188 4.94531C12.2656 4.89844 12.3125 4.875 12.4062 4.875C12.4766 4.875 12.5469 4.89844 12.6172 4.94531L13.2734 5.625C13.3203 5.67188 13.3672 5.74219 13.3672 5.8125C13.3672 5.90625 13.3203 5.97656 13.2734 6.02344L6.24219 13.0547C6.19531 13.1016 6.125 13.125 6.05469 13.125C5.96094 13.125 5.89062 13.1016 5.84375 13.0547L2.72656 9.91406C2.65625 9.86719 2.63281 9.82031 2.63281 9.72656C2.63281 9.65625 2.65625 9.58594 2.72656 9.51562L3.38281 8.85938C3.42969 8.8125 3.5 8.76562 3.59375 8.76562C3.66406 8.76562 3.73438 8.8125 3.78125 8.85938L6.05469 11.1328L12.2188 4.94531Z" fill="white"/>
</svg>
