<svg width="73" height="72" viewBox="0 0 73 72" fill="none" xmlns="http://www.w3.org/2000/svg">
<g clip-path="url(#clip0_243_301)">
<path d="M24.7888 20.024H48.2467C49.5117 20.024 50.5599 18.9758 50.5599 17.7107C50.5599 16.4457 49.5117 15.3975 48.2467 15.3975H24.7888C23.5238 15.3975 22.4756 16.4457 22.4756 17.7107C22.4756 18.9758 23.4876 20.024 24.7888 20.024ZM48.2105 25.5541H24.7888C23.5238 25.5541 22.4756 26.6023 22.4756 27.8673C22.4756 29.1324 23.5238 30.1806 24.7888 30.1806H48.2467C49.5117 30.1806 50.5599 29.1324 50.5599 27.8673C50.5599 26.6023 49.4756 25.5541 48.2105 25.5541ZM48.2105 35.7107H24.7888C23.5238 35.7107 22.4756 36.7589 22.4756 38.024C22.4756 39.289 23.5238 40.3372 24.7888 40.3372H48.2467C49.5117 40.3372 50.5599 39.289 50.5599 38.024C50.5599 36.7589 49.4756 35.7107 48.2105 35.7107ZM38.4153 45.9035H24.7888C23.5238 45.9035 22.4756 46.9517 22.4756 48.2167C22.4756 49.4818 23.5238 50.53 24.7888 50.53H38.4515C39.7166 50.53 40.7647 49.4818 40.7647 48.2167C40.7647 46.9517 39.6804 45.9035 38.4153 45.9035Z" fill="#071F44" fill-opacity="0.2"/>
<path d="M64.5482 0H19.6928C15.3193 0 11.741 3.57831 11.741 7.95181V55.4096C11.741 56.6747 12.7892 57.7229 14.0542 57.7229C15.3193 57.7229 16.3675 56.6747 16.3675 55.4096V7.95181C16.3675 6.10843 17.8494 4.62651 19.6928 4.62651H57.3554C56.8855 5.63855 56.5964 6.75904 56.5964 7.95181V64.0482C56.5964 65.8916 55.1145 67.3735 53.2711 67.3735C51.4277 67.3735 49.9458 65.8916 49.9458 64.0482V61.1928C49.9458 59.9277 48.8976 58.8795 47.6325 58.8795H2.81325C1.54819 58.8795 0.5 59.8916 0.5 61.1928V64.0482C0.5 68.4217 4.04217 72 8.45181 72H53.2711C57.6446 72 61.2229 68.4217 61.2229 64.0482V7.95181C61.2229 6.10843 62.7048 4.62651 64.5482 4.62651C66.3193 4.62651 67.8012 6.03614 67.8735 7.80723H64.7289C63.4639 7.80723 62.4157 8.85542 62.4157 10.1205C62.4157 11.3855 63.4639 12.4337 64.7289 12.4337H70.1868C71.4518 12.4337 72.5 11.3855 72.5 10.1205V7.95181C72.5 3.57831 68.9217 0 64.5482 0ZM8.45181 67.3735C6.60843 67.3735 5.12651 65.8916 5.12651 64.0482V63.4699H45.3554V64.0482C45.3554 65.241 45.6084 66.3614 46.0783 67.3735H8.45181Z" fill="#071F44" fill-opacity="0.1"/>
</g>
<defs>
<clipPath id="clip0_243_301">
<rect width="72" height="72" fill="white" transform="translate(0.5)"/>
</clipPath>
</defs>
</svg>
