<svg width="17" height="17" viewBox="0 0 17 17" fill="none" xmlns="http://www.w3.org/2000/svg">
<path d="M13.375 13H3.625C3.41406 13 3.25 13.1875 3.25 13.375V14.125C3.25 14.3359 3.41406 14.5 3.625 14.5H13.375C13.5625 14.5 13.75 14.3359 13.75 14.125V13.375C13.75 13.1875 13.5625 13 13.375 13ZM14.875 5.5C14.2422 5.5 13.75 6.01562 13.75 6.625C13.75 6.8125 13.7734 6.95312 13.8438 7.09375L12.1562 8.125C11.7812 8.33594 11.3125 8.21875 11.1016 7.84375L9.20312 4.49219C9.46094 4.30469 9.625 3.97656 9.625 3.625C9.625 3.01562 9.10938 2.5 8.5 2.5C7.86719 2.5 7.375 3.01562 7.375 3.625C7.375 3.97656 7.53906 4.30469 7.77344 4.49219L5.875 7.84375C5.66406 8.21875 5.19531 8.33594 4.84375 8.125L3.13281 7.09375C3.20312 6.95312 3.25 6.8125 3.25 6.625C3.25 6.01562 2.73438 5.5 2.125 5.5C1.49219 5.5 1 6.01562 1 6.625C1 7.25781 1.49219 7.75 2.125 7.75C2.17188 7.75 2.24219 7.75 2.28906 7.75L4 12.25H13L14.6875 7.75C14.7344 7.75 14.8047 7.75 14.875 7.75C15.4844 7.75 16 7.25781 16 6.625C16 6.01562 15.4844 5.5 14.875 5.5Z" fill="url(#paint0_linear_1113_4246)"/>
<defs>
<linearGradient id="paint0_linear_1113_4246" x1="8.5" y1="2.5" x2="8.5" y2="14.5" gradientUnits="userSpaceOnUse">
<stop stop-color="#DFB577"/>
<stop offset="1" stop-color="#FFE2B0"/>
</linearGradient>
</defs>
</svg>
