<svg width="40" height="40" viewBox="0 0 40 40" fill="none" xmlns="http://www.w3.org/2000/svg">
    <path fill-rule="evenodd" clip-rule="evenodd"
          d="M20.0181 30.16C19.2035 25.3281 20.6099 20.9337 13.9491 26.2446L16.0758 22.7026C16.0758 22.7026 12.4897 23.2597 12.5387 23.2475C12.5878 23.2354 15.3839 21.018 15.3839 21.018L11.2388 20.0921L15.4093 19.159L12.5265 17.0219L16.1401 17.5172L13.9613 14.0248L17.44 16.1527L16.9537 12.6846L19.1734 15.365L19.9829 9.71191L20.8658 15.3893L22.9875 12.7334L22.6441 16.096L26.078 13.9761L23.9195 17.4483L27.3657 17.0219L24.6922 19.093L28.6043 20.0312L24.6063 20.9693L27.3166 23.0404L23.9441 22.6741L26.1638 26.2203C19.3085 21.0164 20.9477 25.3211 20.0181 30.16Z"
          fill="#FCD116"/>
    <path fill-rule="evenodd" clip-rule="evenodd"
          d="M21.0621 25.3553C21.0064 24.9294 21.4772 24.4878 21.8838 24.4537C22.2464 24.4233 22.6023 24.7251 22.7418 25.1242C23.3151 26.7648 24.2364 29.4203 24.2364 29.4203L33.1259 29.3817C35.6533 25.7863 36.4638 22.2731 35.9584 18.1849C35.909 17.8492 36.0989 17.4008 36.5627 17.3476C37.1691 17.278 37.3128 18.0725 37.3506 18.3875C38.6329 27.8982 31.4856 36.5379 22.5706 37.4655C22.5706 37.4655 21.5313 28.9367 21.0621 25.3553Z"
          fill="#006C35"/>
    <path fill-rule="evenodd" clip-rule="evenodd"
          d="M35.2235 18.4991C35.1627 18.2277 35.089 17.5973 34.4604 17.6376C33.8232 17.6785 33.8269 18.3567 33.8707 18.6714C34.2251 22.8383 33.5038 25.0727 31.3125 28.3724H33.0729C34.9624 25.0839 35.6548 21.9139 35.2235 18.4991Z"
          fill="#006C35"/>
    <path fill-rule="evenodd" clip-rule="evenodd"
          d="M33.0403 18.8648C32.9795 18.5934 32.9058 17.963 32.2771 18.0033C31.64 18.0442 31.6437 18.7224 31.6875 19.0371C31.8338 23.3419 31.1143 25.2275 28.4409 28.3726H30.3644C32.5483 25.206 33.4715 22.2796 33.0403 18.8648Z"
          fill="#006C35"/>
    <path fill-rule="evenodd" clip-rule="evenodd"
          d="M30.7824 19.2007C30.7216 18.9293 30.6479 18.2989 30.0193 18.3392C29.3822 18.3801 29.3858 19.0583 29.4296 19.373C29.784 23.54 27.7186 26.6923 24.7642 28.3724H27.3614C30.0487 25.5664 31.2137 22.6155 30.7824 19.2007Z"
          fill="#006C35"/>
    <path fill-rule="evenodd" clip-rule="evenodd"
          d="M18.9378 25.39C18.9936 24.9641 18.5228 24.5225 18.1161 24.4884C17.7535 24.458 17.3976 24.7598 17.2582 25.1589C16.6848 26.7994 15.7636 29.455 15.7636 29.455L6.87407 29.4164C4.34662 25.821 3.53616 22.3077 4.04149 18.2196C4.0909 17.8838 3.90102 17.4355 3.43723 17.3822C2.83087 17.3126 2.6871 18.1072 2.64937 18.4221C1.36706 27.9329 8.51429 36.5725 17.4293 37.5002C17.4293 37.5002 18.4687 28.9713 18.9378 25.39Z"
          fill="#006C35"/>
    <path fill-rule="evenodd" clip-rule="evenodd"
          d="M4.77647 18.5337C4.83724 18.2623 4.91094 17.6319 5.53959 17.6723C6.17672 17.7131 6.17303 18.3913 6.12928 18.706C5.77485 22.873 6.49617 25.1074 8.68746 28.407H6.92708C5.03751 25.1186 4.34519 21.9485 4.77647 18.5337Z"
          fill="#006C35"/>
    <path fill-rule="evenodd" clip-rule="evenodd"
          d="M6.95933 18.899C7.0201 18.6276 7.0938 17.9972 7.72245 18.0375C8.35958 18.0784 8.35589 18.7566 8.31213 19.0713C8.16583 23.3761 8.88524 25.2617 11.5587 28.4068H9.63518C7.45128 25.2401 6.52805 22.3138 6.95933 18.899Z"
          fill="#006C35"/>
    <path fill-rule="evenodd" clip-rule="evenodd"
          d="M9.21746 19.2354C9.27823 18.964 9.35193 18.3336 9.98058 18.3739C10.6177 18.4148 10.614 19.093 10.5703 19.4077C10.2158 23.5747 12.2813 26.727 15.2357 28.4071H12.6385C9.95111 25.601 8.78618 22.6502 9.21746 19.2354Z"
          fill="#006C35"/>
    <path fill-rule="evenodd" clip-rule="evenodd"
          d="M6.81281 8.97566C6.56052 8.97316 6.31897 9.03049 6.12099 9.15183C5.58681 9.47921 4.77686 10.7628 4.77686 10.7628L8.36939 13.3668L9.02551 12.5018L8.0201 11.788C8.0201 11.788 8.36939 11.3404 8.42769 11.0987C8.75151 9.75644 7.71385 8.98462 6.81281 8.97566ZM6.81907 10.1176C6.91276 10.1147 7.01851 10.1406 7.13559 10.2115C7.58536 10.4836 7.22235 11.1332 7.22235 11.1332L6.30311 10.5043C6.30311 10.5043 6.48447 10.1279 6.81907 10.1176Z"
          fill="#006C35"/>
    <path fill-rule="evenodd" clip-rule="evenodd"
          d="M10.9424 4.77588L9.9624 5.42196L10.9597 10.1602L11.931 9.49678L11.8702 8.85925L13.1883 8.05808L13.6306 8.3769L14.6018 7.71352L10.9424 4.77588ZM11.1505 6.28347L12.3211 7.30861L11.5147 7.81691L11.1505 6.28347Z"
          fill="#006C35"/>
    <path fill-rule="evenodd" clip-rule="evenodd"
          d="M18.4624 2.54823L18.2611 3.62159C17.5863 3.44985 17.2054 3.47021 16.7922 3.72471C16.3789 3.97921 16.2298 4.43277 16.2426 4.87524C16.2625 5.56151 17.0234 6.23888 18.1067 5.7768L17.9228 4.66812L18.9529 4.48537L19.3208 6.54435C17.2094 7.67374 15.5234 6.6042 15.2125 5.15545C14.9554 3.08411 16.7289 2.28604 18.4624 2.54823Z"
          fill="#006C35"/>
    <path fill-rule="evenodd" clip-rule="evenodd"
          d="M24.0053 5.94754L23.7355 7.23897C22.1752 7.03881 21.0158 6.44607 21.246 4.53428C21.4144 3.13537 22.9095 2.332 24.5623 2.80425L24.2997 4.13223C23.3582 3.50814 22.3387 3.88847 22.3007 4.86323C22.266 5.75193 23.1048 6.12039 24.0053 5.94754Z"
          fill="#006C35"/>
    <path d="M28.1563 4.65283C27.5623 4.65284 26.9926 4.89118 26.5725 5.31543C26.1525 5.73967 25.9165 6.31507 25.9165 6.91504C25.9165 7.51504 26.1525 8.09046 26.5725 8.51472C26.9926 8.93899 27.5623 9.17734 28.1563 9.17735C28.7503 9.17734 29.32 8.93899 29.7401 8.51472C30.1601 8.09046 30.3961 7.51504 30.3961 6.91504C30.3961 6.31507 30.1601 5.73967 29.74 5.31543C29.32 4.89118 28.7503 4.65284 28.1563 4.65283ZM28.1647 5.78865C28.314 5.78865 28.4618 5.81772 28.5997 5.87418C28.7377 5.93064 28.863 6.0134 28.9686 6.11772C29.0741 6.22205 29.1578 6.3459 29.215 6.4822C29.2721 6.61851 29.3015 6.7646 29.3015 6.91213C29.3015 7.21007 29.1817 7.4958 28.9685 7.70647C28.7553 7.91715 28.4662 8.0355 28.1647 8.03551C28.0154 8.03552 27.8676 8.00647 27.7297 7.95002C27.5917 7.89357 27.4664 7.81082 27.3608 7.70651C27.2553 7.60219 27.1715 7.47835 27.1144 7.34205C27.0573 7.20575 27.0278 7.05966 27.0278 6.91213C27.0278 6.76459 27.0572 6.61849 27.1144 6.48218C27.1715 6.34587 27.2552 6.22201 27.3608 6.11769C27.4664 6.01336 27.5917 5.93061 27.7296 5.87415C27.8676 5.81769 28.0154 5.78864 28.1647 5.78865Z"
          fill="#006C35"/>
    <path fill-rule="evenodd" clip-rule="evenodd"
          d="M33.4805 8.41992L29.8384 11.0388L30.5235 11.9864L31.989 10.9355L31.061 12.6843L31.8068 13.7008L32.7781 11.7366C33.6944 12.0741 35.0651 11.2852 34.7553 10.1601C34.6337 9.71862 33.4805 8.41992 33.4805 8.41992ZM33.3677 9.90167C33.3677 9.90167 33.9007 10.4315 33.4458 10.7632C32.999 11.0889 32.4919 10.5909 32.4919 10.5909L33.3677 9.90167Z"
          fill="#006C35"/>
</svg>
