<svg width="16" height="16" viewBox="0 0 16 16" fill="none" xmlns="http://www.w3.org/2000/svg">
    <path d="M14.25 3.07143H8.83331V2.42857C8.83331 2.21429 8.62498 2 8.41665 2H7.58331C7.34894 2 7.16665 2.21429 7.16665 2.42857V3.07143H1.74998C1.5156 3.07143 1.33331 3.28571 1.33331 3.5V3.92857C1.33331 4.16964 1.5156 4.35714 1.74998 4.35714H7.16665V5C7.16665 5.24107 7.34894 5.42857 7.58331 5.42857H8.41665C8.62498 5.42857 8.83331 5.24107 8.83331 5V4.35714H14.25C14.4583 4.35714 14.6666 4.16964 14.6666 3.92857V3.5C14.6666 3.28571 14.4583 3.07143 14.25 3.07143ZM14.25 11.6429H5.49998V11C5.49998 10.7857 5.29165 10.5714 5.08331 10.5714H4.24998C4.0156 10.5714 3.83331 10.7857 3.83331 11V11.6429H1.74998C1.5156 11.6429 1.33331 11.8571 1.33331 12.0714V12.5C1.33331 12.7411 1.5156 12.9286 1.74998 12.9286H3.83331V13.5714C3.83331 13.8125 4.0156 14 4.24998 14H5.08331C5.29165 14 5.49998 13.8125 5.49998 13.5714V12.9286H14.25C14.4583 12.9286 14.6666 12.7411 14.6666 12.5V12.0714C14.6666 11.8571 14.4583 11.6429 14.25 11.6429ZM14.25 7.35714H12.1666V6.71429C12.1666 6.5 11.9583 6.28571 11.75 6.28571H10.9166C10.6823 6.28571 10.5 6.5 10.5 6.71429V7.35714H1.74998C1.5156 7.35714 1.33331 7.57143 1.33331 7.78571V8.21429C1.33331 8.45536 1.5156 8.64286 1.74998 8.64286H10.5V9.28571C10.5 9.52679 10.6823 9.71429 10.9166 9.71429H11.75C11.9583 9.71429 12.1666 9.52679 12.1666 9.28571V8.64286H14.25C14.4583 8.64286 14.6666 8.45536 14.6666 8.21429V7.78571C14.6666 7.57143 14.4583 7.35714 14.25 7.35714Z"
          fill="white" fill-opacity="0.7"/>
</svg>
