<?xml version="1.0" encoding="utf-8"?>
<svg version="1.1" xmlns="http://www.w3.org/2000/svg" x="0px" y="0px" viewBox="0 0 24 24"
     style="enable-background:new 0 0 24 24;">
    <style type="text/css">
        .st0{fill:#CED1D8;enable-background:new ;}
        .st1{fill:#FFFFFF;}
        .st2{fill:#CED1D8;}
    </style>
    <path class="st0" d="M12,24C5.4,24,0,18.6,0,12S5.4,0,12,0s12,5.4,12,12S18.6,24,12,24z M12,2C6.5,2,2,6.5,2,12s4.5,10,10,10
	s10-4.5,10-10S17.5,2,12,2z"/>
    <circle class="st1" cx="12" cy="12" r="10"/>
    <path class="st2" d="M12.2,6.1c-1.2,0-2.1,0.4-2.8,1.2c-0.7,0.7-1,1.7-1,2.9h1.8c0-0.8,0.2-1.5,0.5-1.9c0.3-0.4,0.8-0.7,1.5-0.7
	c0.6,0,1.1,0.1,1.4,0.4C13.8,8.3,14,8.7,14,9.3s-0.2,1.2-0.7,1.7c-0.3,0.3-0.8,0.7-1.5,1.2c-1.2,0.9-2.1,1.5-2.5,2
	c-0.7,0.8-1,1.7-1,2.8h7.5v-1.5h-5.3c0.2-0.5,0.9-1.2,2-1.9s1.8-1.3,2.2-1.7c0.7-0.8,1.1-1.6,1.1-2.5c0-1-0.3-1.7-1-2.3
	C14.1,6.4,13.2,6.1,12.2,6.1z"/>
</svg>
