<svg width="22" height="22" viewBox="0 0 22 22" fill="none" xmlns="http://www.w3.org/2000/svg">
<path d="M19.3907 2.60946L17.4691 4.5315C15.8061 2.8682 13.5149 1.83325 11.0021 1.83325C6.08715 1.83325 2.05914 5.7143 1.83742 10.5564C1.80046 10.8151 2.02219 10.9999 2.28087 10.9999H3.31559C3.53731 10.9999 3.72208 10.8521 3.75904 10.5933C3.98076 6.78621 7.12187 3.7553 11.0021 3.7553C12.9976 3.7553 14.8083 4.56847 16.1017 5.89911L14.1062 7.89508C13.8106 8.19078 14.0323 8.63433 14.4019 8.63433H19.7233C19.945 8.63433 20.1667 8.44952 20.1667 8.19078V2.90516C20.1667 2.53554 19.6863 2.31376 19.3907 2.60946ZM19.6863 10.9999H18.6516C18.4299 10.9999 18.2451 11.1847 18.2081 11.4435C17.9864 15.2506 14.8453 18.2445 11.0021 18.2445C8.96958 18.2445 7.15882 17.4683 5.86543 16.1377L7.86096 14.1417C8.15659 13.846 7.93486 13.3655 7.56532 13.3655H2.28087C2.02219 13.3655 1.83742 13.5873 1.83742 13.8091V19.1316C1.83742 19.5013 2.28087 19.723 2.5765 19.4273L4.49812 17.5053C6.16106 19.1686 8.45222 20.1666 11.0021 20.1666C15.88 20.1666 19.908 16.3225 20.1298 11.4804C20.1667 11.2217 19.945 10.9999 19.6863 10.9999Z" fill="#F0453A"/>
</svg>
