<?xml version="1.0" encoding="utf-8"?>
<svg version="1.1" x="0px" y="0px" viewBox="0 0 26 26" style="enable-background:new 0 0 26 26;"
     xmlns="http://www.w3.org/2000/svg">
    <style type="text/css">
        .st0{fill-rule:evenodd;clip-rule:evenodd;fill:url(#SVGID_1_);}
        .st1{fill:url(#SVGID_2_);}
    </style>
    <linearGradient id="SVGID_1_" gradientUnits="userSpaceOnUse" x1="4.4277" y1="15.0398" x2="21.5557" y2="13.9721"
                    gradientTransform="matrix(1 0 0 -1 0 28)">
        <stop offset="0.1575" style="stop-color:#F0453A"/>
        <stop offset="1" style="stop-color:#1E40F5"/>
    </linearGradient>
    <path class="st0" d="M20.9,8.1h-4.6c-0.2,0-0.3-0.1-0.5-0.2c-0.1-0.1-0.2-0.3-0.2-0.5V2.9H6c-0.1,0-0.3,0-0.4,0.1
	C5.5,3,5.4,3.1,5.3,3.2C5.3,3.3,5.2,3.4,5.1,3.5S5.1,3.7,5.1,3.9v19c0,0.1,0,0.3,0.1,0.4c0,0.1,0.1,0.2,0.2,0.3
	c0.1,0.1,0.2,0.2,0.3,0.2c0.1,0,0.2,0.1,0.4,0.1H20c0.1,0,0.3,0,0.4-0.1c0.1,0,0.2-0.1,0.3-0.2c0.1-0.1,0.2-0.2,0.2-0.3
	c0-0.1,0.1-0.2,0.1-0.4V8.1z M7.9,5.8c0-0.1,0-0.2,0.1-0.2C8,5.5,8.1,5.5,8.2,5.5h3.3c0.1,0,0.2,0,0.2,0.1c0.1,0.1,0.1,0.1,0.1,0.2
	v0.7c0,0.1,0,0.2-0.1,0.2c-0.1,0.1-0.1,0.1-0.2,0.1H8.2C8.1,6.8,8,6.8,8,6.7C7.9,6.7,7.9,6.6,7.9,6.5V5.8z M7.9,9.1V8.5
	c0-0.1,0-0.2,0.1-0.2C8,8.2,8.1,8.1,8.2,8.1h3.3c0.1,0,0.2,0,0.2,0.1c0.1,0.1,0.1,0.1,0.1,0.2v0.7c0,0.1,0,0.2-0.1,0.2
	c-0.1,0.1-0.1,0.1-0.2,0.1H8.2C8.1,9.4,8,9.4,8,9.3C7.9,9.3,7.9,9.2,7.9,9.1z M15.6,12.9c0.1,0,0.1,0,0.2,0.1c0,0.1,0.1,0.1,0,0.2
	l-1.3,2.5h1c0.1,0,0.1,0,0.1,0.1c0,0,0.1,0.1,0.1,0.1v0.5c0,0.1,0,0.1-0.1,0.2c0,0-0.1,0.1-0.1,0.1h-1.5l-0.3,0.6v0.5h1.8
	c0.1,0,0.1,0,0.1,0.1c0,0,0.1,0.1,0.1,0.1v0.5c0,0.1,0,0.1-0.1,0.2c0,0-0.1,0.1-0.1,0.1h-1.8v1.5c0,0.1,0,0.1-0.1,0.2
	c0,0-0.1,0.1-0.1,0.1h-0.9c-0.1,0-0.1,0-0.2-0.1c0,0-0.1-0.1-0.1-0.2v-1.5h-1.8c-0.1,0-0.1,0-0.2-0.1c0,0-0.1-0.1-0.1-0.2V18
	c0-0.1,0-0.1,0.1-0.1c0,0,0.1-0.1,0.2-0.1h1.8v-0.5l-0.3-0.6h-1.5c-0.1,0-0.1,0-0.2-0.1c0,0-0.1-0.1-0.1-0.2V16c0-0.1,0-0.1,0.1-0.1
	c0,0,0.1-0.1,0.2-0.1h1L10,13.2c0-0.1,0-0.1,0-0.2c0-0.1,0.1-0.1,0.2-0.1h1.1c0.1,0,0.2,0.1,0.2,0.1l0.9,1.9
	c0.1,0.2,0.1,0.3,0.2,0.5c0,0.1,0.1,0.2,0.1,0.3l0.1,0.4h0c0.1-0.4,0.3-0.8,0.5-1.2l0.9-1.9c0-0.1,0.1-0.1,0.2-0.1H15.6z"/>
    <linearGradient id="SVGID_2_" gradientUnits="userSpaceOnUse" x1="4.9826" y1="23.9405" x2="22.1106" y2="22.8727"
                    gradientTransform="matrix(1 0 0 -1 0 28)">
        <stop offset="0.1575" style="stop-color:#F0453A"/>
        <stop offset="1" style="stop-color:#1E40F5"/>
    </linearGradient>
    <path class="st1" d="M20.7,6.1l-3-3C17.7,3,17.6,3,17.5,2.9c-0.1,0-0.2-0.1-0.3-0.1h-0.2v3.4c0,0.1,0.1,0.3,0.1,0.3
	c0.1,0.1,0.2,0.1,0.3,0.1h3.4V6.6c0-0.1,0-0.2-0.1-0.3C20.9,6.2,20.8,6.1,20.7,6.1z"/>
</svg>
