<svg width="16" height="16" viewBox="0 0 16 16" fill="none" xmlns="http://www.w3.org/2000/svg">
    <path d="M7.99989 12.5501C8.43739 12.5501 8.81655 12.2001 8.81655 11.7334V9.86678C8.81655 9.42928 8.43739 9.05011 7.99989 9.05011C7.53322 9.05011 7.18322 9.42928 7.18322 9.86678V11.7334C7.18322 12.2001 7.53322 12.5501 7.99989 12.5501ZM14.5332 7.53345C14.5332 6.77511 13.8916 6.13345 13.1332 6.13345H12.1999V4.79178C12.1999 2.45845 10.3332 0.562614 7.99989 0.533447C5.66655 0.533447 3.79989 2.42928 3.79989 4.73345V6.13345H2.86655C2.07905 6.13345 1.46655 6.77511 1.46655 7.53345V14.0668C1.46655 14.8543 2.07905 15.4668 2.86655 15.4668H13.1332C13.8916 15.4668 14.5332 14.8543 14.5332 14.0668V7.53345ZM5.19989 6.13345V4.73345C5.19989 3.21678 6.45405 1.93345 7.99989 1.93345C9.51655 1.93345 10.7999 3.21678 10.7999 4.73345V6.13345H5.19989ZM13.1332 7.53345V14.0668H2.86655V7.53345H13.1332Z"
          fill="white" opacity='0.7'/>
</svg>
