<svg width="16" height="16" viewBox="0 0 16 16" fill="none" xmlns="http://www.w3.org/2000/svg">
    <path d="M11.36 0.53334C11.75 0.53334 12.08 0.679174 12.38 0.941674C12.65 1.23334 12.8 1.55417 12.8 1.93334V14.0667C12.8 14.475 12.65 14.7958 12.38 15.0583C12.08 15.35 11.75 15.4667 11.36 15.4667H4.63995C4.21995 15.4667 3.88995 15.35 3.61995 15.0583C3.31995 14.7958 3.19995 14.475 3.19995 14.0667V1.93334C3.19995 1.55417 3.31995 1.23334 3.61995 0.941674C3.88995 0.679174 4.21995 0.53334 4.63995 0.53334H11.36ZM11.18 14.0667C11.21 14.0667 11.24 14.0667 11.3 14.0083C11.33 13.9792 11.36 13.95 11.36 13.8917V2.10834C11.36 2.07917 11.33 2.05001 11.3 1.99167C11.24 1.96251 11.21 1.93334 11.18 1.93334H4.81995C4.75995 1.93334 4.72995 1.96251 4.69995 1.99167C4.63995 2.05001 4.63995 2.07917 4.63995 2.10834V13.8917C4.63995 13.95 4.63995 13.9792 4.69995 14.0083C4.72995 14.0667 4.75995 14.0667 4.81995 14.0667H11.18ZM9.07995 13.1333C9.16995 13.1333 9.25995 13.1042 9.31995 13.0458C9.37995 12.9875 9.43995 12.9 9.43995 12.7833V12.55C9.43995 12.4625 9.37995 12.375 9.31995 12.3167C9.25995 12.2583 9.16995 12.2 9.07995 12.2H6.91995C6.79995 12.2 6.70995 12.2583 6.64995 12.3167C6.58995 12.375 6.55995 12.4625 6.55995 12.55V12.7833C6.55995 12.9 6.58995 12.9875 6.64995 13.0458C6.70995 13.1042 6.79995 13.1333 6.91995 13.1333H9.07995Z"
          fill="#071F44"/>
</svg>
