<svg width="30" height="30" viewBox="0 0 30 30" fill="none" xmlns="http://www.w3.org/2000/svg">
<path d="M2.51249 8.70001H7.41321V12.6599H3.29998V14.1599H6.00774L3.53374 19.3904H5.45255L7.41321 15.0216V22.2H2.51249C1.95562 22.2 1.5 21.6938 1.5 21.075V9.82501C1.5 9.20626 1.95562 8.70001 2.51249 8.70001Z" fill="black" fill-opacity="0.8"/>
<path d="M27.4875 22.2H22.5874V19.3904H24.3523L26.6997 14.1599V12.6599H22.5874V8.70001H27.4875C28.0444 8.70001 28.5 9.20626 28.5 9.82501V21.075C28.5 21.6938 28.0444 22.2 27.4875 22.2Z" fill="black" fill-opacity="0.8"/>
<path d="M22.5874 14.1599V19.0652L24.9075 14.1599H22.5874Z" fill="black" fill-opacity="0.8"/>
<path d="M18.8498 12.1674V9.60001H11.1476V12.1674H15.7823L11.5478 21.12H14.832L18.8498 12.1674Z" fill="black" fill-opacity="0.8"/>
<path fill-rule="evenodd" clip-rule="evenodd" d="M10.275 6H19.7249C20.5911 6 21.2998 6.675 21.2998 7.5V22.5C21.2998 23.325 20.5911 24 19.7249 24H10.275C9.40873 24 8.69999 23.325 8.69999 22.5V7.5C8.69999 6.675 9.40873 6 10.275 6ZM18.8499 9.6V12.1674L14.8321 21.12H11.5478L15.7823 12.1674H11.1477V9.6H18.8499Z" fill="#FFDD99"/>
<path fill-rule="evenodd" clip-rule="evenodd" d="M10.275 6H19.7249C20.5911 6 21.2998 6.675 21.2998 7.5V22.5C21.2998 23.325 20.5911 24 19.7249 24H10.275C9.40873 24 8.69999 23.325 8.69999 22.5V7.5C8.69999 6.675 9.40873 6 10.275 6ZM18.8499 9.6V12.1674L14.8321 21.12H11.5478L15.7823 12.1674H11.1477V9.6H18.8499Z" fill="url(#paint0_linear_1149_2073)"/>
<path d="M7.41328 12.6599H3.30005V14.1599H6.00781L3.53381 19.3904H5.45262L7.41328 15.0216V12.6599Z" fill="#FFDD99"/>
<path d="M7.41328 12.6599H3.30005V14.1599H6.00781L3.53381 19.3904H5.45262L7.41328 15.0216V12.6599Z" fill="url(#paint1_linear_1149_2073)"/>
<path d="M22.5874 19.3904H24.3524L26.6998 14.1599V12.6599H22.5874V14.1599H24.9076L22.5874 19.0652V19.3904Z" fill="#FFDD99"/>
<path d="M22.5874 19.3904H24.3524L26.6998 14.1599V12.6599H22.5874V14.1599H24.9076L22.5874 19.0652V19.3904Z" fill="url(#paint2_linear_1149_2073)"/>
<defs>
<linearGradient id="paint0_linear_1149_2073" x1="14.9999" y1="6" x2="14.9999" y2="24" gradientUnits="userSpaceOnUse">
<stop stop-color="#C8A674"/>
<stop offset="1" stop-color="#EBC994"/>
</linearGradient>
<linearGradient id="paint1_linear_1149_2073" x1="14.9999" y1="6" x2="14.9999" y2="24" gradientUnits="userSpaceOnUse">
<stop stop-color="#C8A674"/>
<stop offset="1" stop-color="#EBC994"/>
</linearGradient>
<linearGradient id="paint2_linear_1149_2073" x1="14.9999" y1="6" x2="14.9999" y2="24" gradientUnits="userSpaceOnUse">
<stop stop-color="#C8A674"/>
<stop offset="1" stop-color="#EBC994"/>
</linearGradient>
</defs>
</svg>
