<svg width="24" height="24" viewBox="0 0 24 24" fill="none" xmlns="http://www.w3.org/2000/svg">
<path d="M21.5833 10.75H13.25V2.41667C13.25 2.20833 13.0417 2 12.8333 2H11.1667C10.9062 2 10.75 2.20833 10.75 2.41667V10.75H2.41667C2.15625 10.75 2 10.9583 2 11.1667V12.8333C2 13.0938 2.15625 13.25 2.41667 13.25H10.75V21.5833C10.75 21.8438 10.9062 22 11.1667 22H12.8333C13.0417 22 13.25 21.8438 13.25 21.5833V13.25H21.5833C21.7917 13.25 22 13.0938 22 12.8333V11.1667C22 10.9583 21.7917 10.75 21.5833 10.75Z" fill="#071F44" fill-opacity="0.6"/>
</svg>
