<svg width="20" height="21" viewBox="0 0 20 21" fill="none" xmlns="http://www.w3.org/2000/svg">
    <path fill-rule="evenodd" clip-rule="evenodd"
          d="M16.1986 4.5842L13.7198 5.64285L11.7789 2.27441L11.7378 2.2155C11.2493 1.51482 10.491 1.33325 9.99648 1.33325C9.50193 1.33325 8.74364 1.51482 8.25512 2.2155L8.21404 2.27441L6.27316 5.64285L3.7945 4.58424C3.13738 4.29942 2.36471 4.35777 1.75645 4.75611L1.73799 4.76821L1.71985 4.78079C1.15542 5.17217 0.623563 6.00049 0.910192 6.98728L1.85997 10.4192C2.33748 12.1443 2.82688 13.9116 2.85363 14.0052C3.14783 15.0337 4.09728 15.4999 4.88454 15.4999H15.0903C15.9956 15.4999 16.8713 14.9403 17.1315 13.9901L19.1103 6.93209L19.1206 6.88469C19.306 6.0365 18.9232 5.21774 18.2615 4.7738C17.6372 4.35022 16.8477 4.30293 16.1986 4.5842ZM17.3294 6.1555C17.1966 6.06343 17.0095 6.04809 16.8587 6.11458L13.0141 7.75653L10.3707 3.16872C10.2137 2.94365 9.7792 2.94365 9.62229 3.16872L6.9788 7.75653L3.13429 6.11458C2.98341 6.04809 2.80235 6.06343 2.66957 6.15039C2.53679 6.24246 2.4704 6.3908 2.51265 6.5289L2.86803 7.81317C3.41924 9.80498 4.4211 13.4247 4.45603 13.5468C4.50432 13.7156 4.67934 13.8333 4.88454 13.8333H15.0903C15.3317 13.8333 15.4854 13.6952 15.5248 13.5468L17.4924 6.5289C17.5225 6.3908 17.4622 6.24246 17.3294 6.1555Z"
          fill="#3A87FC"/>
    <path d="M15.8333 17.1666H4.16667C3.70643 17.1666 3.33333 17.5397 3.33333 17.9999C3.33333 18.4602 3.70643 18.8333 4.16667 18.8333H15.8333C16.2936 18.8333 16.6667 18.4602 16.6667 17.9999C16.6667 17.5397 16.2936 17.1666 15.8333 17.1666Z"
          fill="#3A87FC"/>
</svg>
