<svg width="72" height="72" viewBox="0 0 72 72" fill="none" xmlns="http://www.w3.org/2000/svg">
<path d="M10.2579 16.0832C11.2734 16.0832 13.3941 16.0832 15.3654 24.4011C16.59 29.6073 19.2184 40.5881 29.075 44.1487C28.5971 44.7172 28.2387 45.2857 27.9101 45.7943C27.2231 46.9313 27.014 47.2604 25.7596 47.3502C24.5648 47.4399 23.6688 48.4572 23.7584 49.654C23.848 50.8509 24.8934 51.7485 26.0583 51.6587C29.5529 51.4194 30.7775 49.3848 31.6138 48.0383C32.4501 46.6919 32.928 45.8541 36.0044 45.8541C39.051 45.8541 39.5587 46.662 40.3951 48.0383C41.2314 49.3848 42.456 51.4194 45.9506 51.6587C46.0103 51.6587 46.0402 51.6587 46.0999 51.6587C47.2349 51.6587 48.1907 50.791 48.2504 49.654C48.34 48.4572 47.444 47.41 46.2493 47.3502C44.9948 47.2604 44.7857 46.9313 44.0987 45.7943C43.8 45.2857 43.4416 44.7172 42.9339 44.1786C52.7904 40.618 55.4188 29.6372 56.6733 24.431C58.6446 16.1131 60.6159 16.1131 61.7808 16.1131C62.9755 16.1131 63.9313 15.1557 63.9313 13.9589C63.9313 12.762 62.9755 11.8046 61.7808 11.8046C57.1213 11.8046 54.4033 15.1856 52.4619 23.4736C50.2815 32.5993 46.8167 41.0669 36.0343 41.0669C25.2518 41.0669 21.7572 32.5993 19.6067 23.4736C17.6653 15.3053 14.8875 11.8046 10.2878 11.8046C9.09305 11.8046 8.13727 12.762 8.13727 13.9589C8.13727 15.1557 9.06319 16.0832 10.2579 16.0832ZM71.9061 23.324C71.4283 20.4815 69.3972 18.3572 66.7987 18.0281C64.7975 17.7887 62.9457 18.3572 61.3626 19.7036C59.4212 21.3791 58.5251 23.7429 58.4953 25.3586C58.4654 26.5554 59.4212 27.5428 60.6159 27.5727C61.9301 27.6625 62.7963 26.6452 62.8262 25.4483C62.8262 24.9995 63.2742 23.8027 64.2001 22.9649C64.8274 22.4264 65.4845 22.187 66.261 22.3067C66.7987 22.3665 67.4558 22.935 67.635 24.0122C68.0531 26.6152 65.4247 31.1931 56.5538 35.4717C52.3424 37.5063 51.7749 40.4385 52.5216 42.3834C52.88 43.2511 53.7163 43.7896 54.5825 43.7896C54.8513 43.7896 55.0903 43.7298 55.3591 43.64C56.4642 43.1912 57.0317 41.9944 56.5837 40.8873C56.6136 40.7078 56.972 40.0795 58.4355 39.3913C71.9061 32.8986 72.3243 26.0168 71.9061 23.324ZM15.4849 35.5016C6.61398 31.223 3.9557 26.6452 4.37386 24.0421C4.55307 22.9649 5.21017 22.4264 5.7478 22.3366C6.52438 22.2169 7.18148 22.4563 7.80872 22.9949C8.73463 23.8027 9.18266 25.0295 9.18266 25.4483C9.21253 26.6452 10.1683 27.6625 11.3929 27.5727C12.5876 27.5428 13.5434 26.5554 13.5136 25.3586C13.4837 23.7429 12.5578 21.3791 10.6163 19.7036C9.06319 18.3572 7.18148 17.7588 5.21017 18.0281C2.61163 18.3572 0.580582 20.4815 0.102689 23.324C-0.345336 25.9869 0.102689 32.8986 13.5733 39.3913C15.007 40.0795 15.3953 40.7377 15.455 40.7677C15.007 41.8747 15.5446 43.1314 16.6497 43.5802C16.9186 43.6999 17.1874 43.7298 17.4562 43.7298C18.3224 43.7298 19.1288 43.2211 19.4574 42.3534C20.2638 40.4984 19.6664 37.5362 15.4849 35.5016ZM10.2579 10.3385H61.7808C62.9755 10.3385 63.9313 9.38102 63.9313 8.1842C63.9313 6.98738 62.9755 6 61.7808 6H10.2579C9.06319 6 8.07753 6.95746 8.07753 8.15428C8.07753 9.3511 9.06319 10.3385 10.2579 10.3385ZM49.9231 65.6915H22.0858C20.891 65.6915 19.9353 66.6489 19.9353 67.8457C19.9353 69.0425 20.891 70 22.0858 70H49.9231C51.1178 70 52.0736 69.0425 52.0736 67.8457C52.0736 66.6489 51.1178 65.6915 49.9231 65.6915ZM45.8908 52.9752H26.1479C25.1921 52.9752 24.3558 53.6036 24.087 54.5012L21.817 61.6223C21.4585 62.7592 22.0858 63.986 23.2208 64.345C24.3558 64.7041 25.5804 64.0757 25.9388 62.9388L27.701 57.3137H44.2779L46.0402 62.9388C46.3389 63.8663 47.1752 64.4647 48.1011 64.4647C48.3102 64.4647 48.5491 64.4348 48.7582 64.3749C49.8932 64.0159 50.5204 62.7892 50.162 61.6522L47.9219 54.5311C47.6531 53.6036 46.8167 52.9752 45.8908 52.9752Z" fill="#071F44" fill-opacity="0.1"/>
<path d="M42.2441 36.8337C41.6765 36.8337 41.079 36.6842 40.4815 36.3851L36.0001 34.0225L31.5188 36.3851C30.264 37.0131 29.0093 36.9832 28.0234 36.2954C27.0674 35.5776 26.6491 34.3813 26.8881 33.0056L27.7545 28.0113L24.1097 24.4524C23.0939 23.4655 22.7354 22.2393 23.1238 21.1028C23.4823 19.9664 24.4981 19.1888 25.8723 18.9795L30.8914 18.2617L33.1321 13.7159C34.357 11.2337 37.6433 11.2337 38.8682 13.7159L41.1088 18.2617L46.1279 18.9795C47.5321 19.1888 48.518 19.9664 48.9064 21.1028C49.2947 22.2393 48.9064 23.4655 47.9205 24.4524L44.3055 27.9813L45.1719 32.9757C45.4109 34.3514 44.9927 35.5477 44.0068 36.2655C43.469 36.6542 42.8715 36.8337 42.2441 36.8337ZM28.7703 22.9571L31.5786 25.6785C32.0864 26.187 32.3254 26.9047 32.2059 27.5926L31.5487 31.4505L35.0142 29.6262C35.6416 29.2972 36.3885 29.2972 37.0458 29.6262L40.5113 31.4505L39.8541 27.5926C39.7346 26.8748 39.9736 26.1571 40.4815 25.6785L43.2898 22.9571L39.4358 22.3888C38.7188 22.2991 38.1213 21.8505 37.7927 21.1926L36.0599 17.6935L34.3271 21.1926C33.9985 21.8206 33.401 22.2692 32.684 22.3888L28.7703 22.9571Z" fill="#071F44" fill-opacity="0.2"/>
</svg>
