<svg width="20" height="21" viewBox="0 0 20 21" fill="none" xmlns="http://www.w3.org/2000/svg">
    <path d="M16.1784 5.35685L13.444 2.65503C13.151 2.36206 12.7604 2.16675 12.3698 2.16675H5.6966C4.85025 2.1993 4.16666 2.88289 4.16666 3.7618V17.3035C4.16666 18.1498 4.85025 18.8334 5.6966 18.8334H15.0716C15.9505 18.8334 16.6667 18.1498 16.6667 17.3035V6.46362C16.6667 6.073 16.4713 5.64982 16.1784 5.35685ZM12.4674 3.85946L14.9739 6.36597H12.4674V3.85946ZM15.1042 17.3035H5.6966V3.7618H10.9049V7.14722C10.9049 7.57039 11.263 7.92847 11.6862 7.92847H15.1042V17.3035ZM10.9375 9.198C10.9375 9.06779 10.8073 8.93758 10.6771 8.93758H10.1562C9.99348 8.93758 9.89582 9.06779 9.89582 9.198V10.0118C9.11457 10.0118 8.49608 10.6628 8.49608 11.4766C8.49608 12.1277 8.91926 12.6811 9.5052 12.8764L10.97 13.3321C11.1654 13.3647 11.263 13.5274 11.263 13.7227C11.263 13.9832 11.1003 14.1459 10.8724 14.1459H9.96093C9.83072 14.1459 9.66796 14.1134 9.53775 14.0483C9.44009 13.9832 9.30989 13.9832 9.21223 14.0808L8.85416 14.4389C8.72395 14.5365 8.72395 14.7319 8.85416 14.8295C9.14713 15.0574 9.5052 15.1876 9.89582 15.1876V15.9688C9.89582 16.1316 9.99348 16.2292 10.1562 16.2292H10.6771C10.8073 16.2292 10.9375 16.1316 10.9375 15.9688V15.1876C11.6862 15.1876 12.3047 14.5365 12.3047 13.7227C12.3047 13.0717 11.8815 12.4858 11.2956 12.323L9.83072 11.8673C9.63541 11.8347 9.53775 11.672 9.53775 11.4766C9.53775 11.2162 9.70051 11.0209 9.92838 11.0209H10.8398C10.97 11.0209 11.1328 11.086 11.263 11.1511C11.3607 11.2162 11.4909 11.2162 11.5885 11.1186L11.9466 10.7605C12.0768 10.6628 12.0768 10.4675 11.9466 10.3699C11.6536 10.142 11.2956 10.0118 10.9375 10.0118V9.198ZM7.03124 5.81258H9.63541C9.76561 5.81258 9.89582 5.71493 9.89582 5.55216V5.03133C9.89582 4.90112 9.76561 4.77091 9.63541 4.77091H7.03124C6.86848 4.77091 6.77082 4.90112 6.77082 5.03133V5.55216C6.77082 5.71493 6.86848 5.81258 7.03124 5.81258ZM9.89582 7.6355V7.11467C9.89582 6.98446 9.76561 6.85425 9.63541 6.85425H7.03124C6.86848 6.85425 6.77082 6.98446 6.77082 7.11467V7.6355C6.77082 7.79826 6.86848 7.89592 7.03124 7.89592H9.63541C9.76561 7.89592 9.89582 7.79826 9.89582 7.6355Z"
          fill="#3A87FC"/>
</svg>
