<svg width="20" height="21" viewBox="0 0 20 21" fill="none" xmlns="http://www.w3.org/2000/svg">
<path d="M9.99992 1.3335C4.93607 1.3335 0.833252 5.47328 0.833252 10.5002C0.833252 15.564 4.93607 19.6668 9.99992 19.6668C15.0268 19.6668 19.1666 15.564 19.1666 10.5002C19.1666 5.47328 15.0268 1.3335 9.99992 1.3335ZM9.99992 17.8926C5.8971 17.8926 2.60745 14.603 2.60745 10.5002C2.60745 6.4343 5.8971 3.10769 9.99992 3.10769C14.0658 3.10769 17.3924 6.4343 17.3924 10.5002C17.3924 14.603 14.0658 17.8926 9.99992 17.8926ZM13.9549 8.46723C13.9549 6.61911 11.9959 5.17758 10.1847 5.17758C8.4475 5.17758 7.33863 5.91683 6.48849 7.21051C6.34064 7.39532 6.37761 7.65406 6.56242 7.80191L7.59736 8.57812C7.78218 8.72597 8.07787 8.68901 8.22572 8.50419C8.78016 7.80191 9.18675 7.39532 10.0369 7.39532C10.7022 7.39532 11.5154 7.80191 11.5154 8.46723C11.5154 8.94774 11.1088 9.16952 10.4435 9.53914C9.70422 9.98269 8.70623 10.5002 8.70623 11.8308V12.1265C8.70623 12.3852 8.89105 12.5701 9.14978 12.5701H10.8131C11.0718 12.5701 11.2566 12.3852 11.2566 12.1265V11.9047C11.2566 10.9807 13.9549 10.9437 13.9549 8.46723ZM11.5523 14.6399C11.5523 13.7898 10.8501 13.0875 9.99992 13.0875C9.11282 13.0875 8.4475 13.7898 8.4475 14.6399C8.4475 15.527 9.11282 16.1924 9.99992 16.1924C10.8501 16.1924 11.5523 15.527 11.5523 14.6399Z" fill="#071F44" fill-opacity="0.6"/>
</svg>
