<svg width="24" height="24" viewBox="0 0 24 24" fill="none" xmlns="http://www.w3.org/2000/svg">
<path d="M19.5714 7.08511C19.7857 7.08511 20 6.89894 20 6.6383V5.44681C20 5.2234 19.7857 5 19.5714 5H4.42857C4.17857 5 4 5.2234 4 5.44681V6.6383C4 6.89894 4.17857 7.08511 4.42857 7.08511H19.5714ZM19.5714 13.0426C19.7857 13.0426 20 12.8564 20 12.5957V11.4043C20 11.1809 19.7857 10.9574 19.5714 10.9574H4.42857C4.17857 10.9574 4 11.1809 4 11.4043V12.5957C4 12.8564 4.17857 13.0426 4.42857 13.0426H19.5714ZM19.5714 19C19.7857 19 20 18.8138 20 18.5532V17.3617C20 17.1383 19.7857 16.9149 19.5714 16.9149H4.42857C4.17857 16.9149 4 17.1383 4 17.3617V18.5532C4 18.8138 4.17857 19 4.42857 19H19.5714Z" fill="#071F44"/>
</svg>
