<svg width="26" height="26" viewBox="0 0 26 26" fill="none" xmlns="http://www.w3.org/2000/svg">
    <path fill-rule="evenodd" clip-rule="evenodd"
          d="M16.9271 8.01677H21.6667V23.2562C21.6663 23.3893 21.6398 23.5209 21.5886 23.6437C21.5374 23.7665 21.4625 23.878 21.3681 23.9718C21.2738 24.0657 21.162 24.14 21.0389 24.1906C20.9159 24.2412 20.7841 24.2671 20.651 24.2668H6.21055C6.07751 24.2664 5.94583 24.2399 5.82305 24.1887C5.70026 24.1375 5.58877 24.0626 5.49493 23.9682C5.40109 23.8739 5.32675 23.7621 5.27614 23.639C5.22554 23.516 5.19967 23.3842 5.2 23.2511V3.61065C5.20033 3.47761 5.22687 3.34594 5.27809 3.22315C5.32931 3.10036 5.40421 2.98887 5.49852 2.89503C5.59283 2.80119 5.7047 2.72685 5.82774 2.67624C5.95078 2.62564 6.08258 2.59977 6.21563 2.6001H16.25V7.33968C16.25 7.51926 16.3213 7.69148 16.4483 7.81845C16.5753 7.94543 16.7475 8.01677 16.9271 8.01677ZM8.22416 5.40759C8.16067 5.47108 8.125 5.55719 8.125 5.64698V6.32406C8.125 6.41385 8.16067 6.49995 8.22416 6.56344C8.28765 6.62693 8.37376 6.6626 8.46354 6.6626H11.849C11.9387 6.6626 12.0249 6.62693 12.0883 6.56344C12.1518 6.49995 12.1875 6.41385 12.1875 6.32406V5.64698C12.1875 5.55719 12.1518 5.47108 12.0883 5.40759C12.0249 5.3441 11.9387 5.30843 11.849 5.30843H8.46354C8.37376 5.30843 8.28765 5.3441 8.22416 5.40759ZM8.125 8.35531V9.03239C8.125 9.12218 8.16067 9.20829 8.22416 9.27178C8.28765 9.33527 8.37376 9.37093 8.46354 9.37093H11.849C11.9387 9.37093 12.0249 9.33527 12.0883 9.27178C12.1518 9.20829 12.1875 9.12218 12.1875 9.03239V8.35531C12.1875 8.26552 12.1518 8.17941 12.0883 8.11592C12.0249 8.05243 11.9387 8.01677 11.849 8.01677H8.46354C8.37376 8.01677 8.28765 8.05243 8.22416 8.11592C8.16067 8.17941 8.125 8.26552 8.125 8.35531ZM16.2765 13.1046C16.2417 13.0349 16.172 13.0001 16.1024 13.0001H14.9707C14.8662 13.0001 14.814 13.0523 14.7792 13.122L13.8216 15.0894C13.6475 15.5072 13.4908 15.9251 13.3515 16.343H13.3167L13.1774 15.9425C13.1315 15.8245 13.0881 15.7115 13.0462 15.6024C12.9769 15.4218 12.9117 15.2522 12.8466 15.0894L11.889 13.122C11.8542 13.0523 11.7845 13.0001 11.6975 13.0001H10.5658C10.4787 13.0001 10.4091 13.0349 10.3743 13.1046C10.3395 13.1742 10.3395 13.2438 10.3743 13.3135L11.7671 15.9251H10.7573C10.6877 15.9251 10.6354 15.9599 10.6006 15.9947C10.5658 16.0296 10.5484 16.0818 10.5484 16.134V16.6912C10.5484 16.7608 10.5658 16.813 10.6006 16.8479C10.6354 16.8827 10.6877 16.9001 10.7573 16.9001H12.2895L12.6377 17.5443V18.0144H10.7573C10.6877 18.0144 10.6354 18.0492 10.6006 18.084C10.5658 18.1188 10.5484 18.1711 10.5484 18.2233V18.7805C10.5484 18.8501 10.5658 18.9023 10.6006 18.9372C10.6354 18.972 10.6877 18.9894 10.7573 18.9894H12.6377V20.5912C12.6377 20.6608 12.6551 20.713 12.6899 20.7479C12.7247 20.7827 12.777 20.8001 12.8466 20.8001H13.8216C13.8738 20.8001 13.9261 20.7827 13.9609 20.7479C13.9957 20.713 14.0305 20.6608 14.0305 20.5912V18.9894H15.9109C15.9631 18.9894 16.0153 18.972 16.0502 18.9372C16.085 18.9023 16.1198 18.8501 16.1198 18.7805V18.2233C16.1198 18.1711 16.085 18.1188 16.0502 18.084C16.0153 18.0492 15.9631 18.0144 15.9109 18.0144H14.0305V17.5443L14.3787 16.9001H15.9109C15.9631 16.9001 16.0153 16.8827 16.0502 16.8479C16.085 16.813 16.1198 16.7608 16.1198 16.6912V16.134C16.1198 16.0818 16.085 16.0296 16.0502 15.9947C16.0153 15.9599 15.9631 15.9251 15.9109 15.9251H14.9011L16.2939 13.3135C16.3287 13.2438 16.3113 13.1742 16.2765 13.1046Z"
          fill="#071F44" fill-opacity="0.2"/>
    <path d="M17.2275 2.89632L21.3704 7.04346C21.4643 7.13738 21.5388 7.24887 21.5897 7.37158C21.6405 7.49429 21.6667 7.62581 21.6667 7.75863V8.01677H16.9271C16.7475 8.01677 16.5753 7.94543 16.4483 7.81845C16.3213 7.69148 16.25 7.51926 16.25 7.33968V2.6001H16.5081C16.6416 2.59977 16.7739 2.62577 16.8973 2.6766C17.0208 2.72743 17.133 2.80209 17.2275 2.89632Z"
          fill="#071F44"/>
    <path d="M16.2765 13.1046C16.2417 13.0349 16.172 13.0001 16.1024 13.0001H14.9707C14.8662 13.0001 14.814 13.0523 14.7792 13.122L13.8216 15.0894C13.6475 15.5072 13.4908 15.9251 13.3515 16.343H13.3167L13.1774 15.9425C13.1315 15.8245 13.0881 15.7115 13.0462 15.6024C12.9769 15.4218 12.9117 15.2522 12.8466 15.0894L11.889 13.122C11.8542 13.0523 11.7845 13.0001 11.6975 13.0001H10.5658C10.4787 13.0001 10.4091 13.0349 10.3743 13.1046C10.3394 13.1742 10.3394 13.2438 10.3743 13.3135L11.7671 15.9251H10.7573C10.6877 15.9251 10.6354 15.9599 10.6006 15.9947C10.5658 16.0296 10.5484 16.0818 10.5484 16.134V16.6912C10.5484 16.7608 10.5658 16.813 10.6006 16.8479C10.6354 16.8827 10.6877 16.9001 10.7573 16.9001H12.2894L12.6377 17.5443V18.0144H10.7573C10.6877 18.0144 10.6354 18.0492 10.6006 18.084C10.5658 18.1188 10.5484 18.1711 10.5484 18.2233V18.7805C10.5484 18.8501 10.5658 18.9023 10.6006 18.9372C10.6354 18.972 10.6877 18.9894 10.7573 18.9894H12.6377V20.5912C12.6377 20.6608 12.6551 20.713 12.6899 20.7479C12.7247 20.7827 12.7769 20.8001 12.8466 20.8001H13.8216C13.8738 20.8001 13.9261 20.7827 13.9609 20.7479C13.9957 20.713 14.0305 20.6608 14.0305 20.5912V18.9894H15.9109C15.9631 18.9894 16.0153 18.972 16.0502 18.9372C16.085 18.9023 16.1198 18.8501 16.1198 18.7805V18.2233C16.1198 18.1711 16.085 18.1188 16.0502 18.084C16.0153 18.0492 15.9631 18.0144 15.9109 18.0144H14.0305V17.5443L14.3787 16.9001H15.9109C15.9631 16.9001 16.0153 16.8827 16.0502 16.8479C16.085 16.813 16.1198 16.7608 16.1198 16.6912V16.134C16.1198 16.0818 16.085 16.0296 16.0502 15.9947C16.0153 15.9599 15.9631 15.9251 15.9109 15.9251H14.9011L16.2939 13.3135C16.3287 13.2438 16.3113 13.1742 16.2765 13.1046Z"
          fill="#071F44"/>
</svg>
