<svg width="16" height="16" viewBox="0 0 16 16" fill="none" xmlns="http://www.w3.org/2000/svg">
    <path d="M10.596 9.40011C9.75013 9.40011 9.37096 9.86678 8.00013 9.86678C6.60013 9.86678 6.22096 9.40011 5.37513 9.40011C3.2168 9.40011 1.4668 11.1793 1.4668 13.3376V14.0668C1.4668 14.8543 2.0793 15.4668 2.8668 15.4668H13.1335C13.8918 15.4668 14.5335 14.8543 14.5335 14.0668V13.3376C14.5335 11.1793 12.7543 9.40011 10.596 9.40011ZM13.1335 14.0668H2.8668V13.3376C2.8668 11.9376 3.97513 10.8001 5.37513 10.8001C5.81263 10.8001 6.48346 11.2668 8.00013 11.2668C9.48763 11.2668 10.1585 10.8001 10.596 10.8001C11.996 10.8001 13.1335 11.9376 13.1335 13.3376V14.0668ZM8.00013 8.93345C10.3043 8.93345 12.2001 7.06678 12.2001 4.73345C12.2001 2.42928 10.3043 0.533447 8.00013 0.533447C5.6668 0.533447 3.80013 2.42928 3.80013 4.73345C3.80013 7.06678 5.6668 8.93345 8.00013 8.93345ZM8.00013 1.93345C9.5168 1.93345 10.8001 3.21678 10.8001 4.73345C10.8001 6.27928 9.5168 7.53345 8.00013 7.53345C6.4543 7.53345 5.20013 6.27928 5.20013 4.73345C5.20013 3.21678 6.4543 1.93345 8.00013 1.93345Z"
          fill="#071F44"/>
</svg>
