<svg width="121" height="120" viewBox="0 0 121 120" fill="none" xmlns="http://www.w3.org/2000/svg">
<mask id="mask0_442_0" style="mask-type:alpha" maskUnits="userSpaceOnUse" x="0" y="0" width="121" height="120">
<path fill-rule="evenodd" clip-rule="evenodd" d="M78.663 0C90.71 0 96.732 0 103.217 2.05C110.297 4.627 115.873 10.203 118.45 17.283C120.5 23.767 120.5 29.791 120.5 41.837V78.163C120.5 90.21 120.5 96.232 118.45 102.717C115.873 109.797 110.297 115.373 103.217 117.949C96.732 120 90.71 120 78.663 120H42.337C30.29 120 24.267 120 17.783 117.949C10.703 115.373 5.127 109.797 2.55 102.717C0.5 96.232 0.5 90.21 0.5 78.163V41.837C0.5 29.791 0.5 23.767 2.55 17.283C5.127 10.203 10.703 4.627 17.783 2.05C24.267 0 30.29 0 42.337 0H78.663Z" fill="white"/>
</mask>
<g mask="url(#mask0_442_0)">
<rect x="0.5" width="120" height="120" fill="white"/>
<path d="M61.2945 13.6179C76.6173 23.9768 102.076 25.5545 102.076 25.5545C102.076 25.5545 102.356 34.0191 100.419 56.7818C98.4878 79.5445 84.4371 94.4299 61.1543 106.579L60.5 106.922L59.8458 106.579C36.563 94.4351 22.5123 79.5445 20.5807 56.7818C18.6439 34.0191 18.9243 25.5493 18.9243 25.5493C18.9243 25.5493 44.3775 23.9716 59.7056 13.6127L60.5 13.0781L61.2945 13.6179Z" fill="url(#paint0_linear_442_0)"/>
<path d="M64.296 45.3945C64.4963 44.9381 64.786 44.5072 65.1652 44.1105C65.1788 44.0969 65.1907 44.0815 65.203 44.0655C65.21 44.0565 65.2171 44.0473 65.2248 44.038C65.6381 43.62 66.094 43.3043 66.5839 43.0868C67.0909 43.3001 67.5553 43.6115 67.9728 44.021C67.9877 44.038 68.0026 44.054 68.0175 44.07C68.0325 44.086 68.0474 44.102 68.0623 44.1191C68.2199 44.2812 68.3605 44.4518 68.4883 44.6309C69.0038 45.3646 69.268 46.2135 69.268 47.1903C69.268 48.1757 68.9783 49.0544 68.4074 49.8307C68.2923 49.9843 68.1688 50.1379 68.0324 50.2872C68.0265 50.2931 68.0206 50.2999 68.0143 50.3073C68.0069 50.3158 67.999 50.3249 67.9898 50.3341C67.5681 50.7777 67.1079 51.1104 66.6052 51.3322C66.0854 51.119 65.6168 50.799 65.2078 50.3767C65.1865 50.3554 65.1652 50.3299 65.144 50.3043C64.8117 49.946 64.5517 49.5492 64.36 49.1141C64.0915 48.5084 63.9509 47.8302 63.9509 47.0709C63.9509 46.4737 64.066 45.9149 64.296 45.3945Z" fill="white"/>
<path d="M68.7354 60.3029C68.0921 59.7654 67.3891 59.3858 66.6265 59.164C65.8341 59.3943 65.1098 59.7953 64.4537 60.3541C64.3344 60.4564 64.2151 60.5588 64.1001 60.6697C63.576 61.1859 63.1713 61.7489 62.8773 62.3589C62.5067 63.1267 62.3149 63.9671 62.3149 64.8799C62.3149 65.9463 62.5237 66.9018 62.9284 67.7507C63.2054 68.3308 63.5718 68.8683 64.0404 69.3503C64.1597 69.474 64.2875 69.5891 64.4153 69.7001C65.0714 70.2759 65.8085 70.6769 66.635 70.903C67.4403 70.6811 68.1603 70.2972 68.8036 69.747C68.9484 69.6233 69.0933 69.491 69.2296 69.346C69.3915 69.1797 69.5364 69.0048 69.677 68.8256C70.5291 67.7293 70.9551 66.4155 70.9551 64.8756C70.9551 63.5277 70.5333 62.3376 69.7025 61.2925C69.5364 61.0835 69.3575 60.8787 69.1572 60.6782C69.0209 60.5503 68.8803 60.4266 68.7354 60.3029Z" fill="white"/>
<path d="M63.9382 71.065C62.8475 70.9115 61.8932 70.4977 61.0666 69.8152C60.8919 69.6702 60.7215 69.5166 60.5724 69.3502C59.4221 68.1601 58.8469 66.6714 58.8469 64.8799C58.8469 63.2333 59.4391 61.8299 60.6278 60.6654C60.7277 60.5688 60.8333 60.4778 60.9376 60.3878C60.9618 60.3669 60.9872 60.345 61.0112 60.3242C61.8846 59.5905 62.8773 59.1469 63.9893 58.989C64.2875 58.9506 64.5943 58.9208 64.9095 58.9208C64.9394 58.9208 64.9681 58.9229 64.9969 58.9251C65.0256 58.9272 65.0544 58.9293 65.0842 58.9293C65.3484 58.9378 65.604 58.9592 65.8554 58.9976C64.5985 59.1853 63.4908 59.7355 62.5407 60.6697C62.2084 60.9939 61.9272 61.3394 61.6887 61.702C61.5268 61.9409 61.3904 62.1925 61.2711 62.4527C60.9303 63.1949 60.7556 64.0011 60.7556 64.8799C60.7556 65.9249 60.9559 66.8634 61.3478 67.7037C61.4628 67.9596 61.5949 68.2028 61.7483 68.4374C61.9613 68.7573 62.2042 69.0644 62.4811 69.3502C63.4141 70.3143 64.5431 70.8816 65.8596 71.065C65.604 71.0991 65.3484 71.1205 65.08 71.129C65.0203 71.1333 64.9607 71.1375 64.901 71.1375C64.5687 71.1375 64.2492 71.1077 63.9382 71.065Z" fill="white"/>
<path d="M62.2084 50.8033C62.8773 51.3152 63.6655 51.601 64.5815 51.6607C64.7008 51.6693 64.8201 51.6778 64.9479 51.6778C65.0033 51.6778 65.0587 51.6735 65.1141 51.6693C65.3697 51.6607 65.6168 51.6309 65.8554 51.5797C64.9905 51.4091 64.2534 51.0124 63.6399 50.3768C63.461 50.1934 63.3076 49.9971 63.167 49.7924C63.0094 49.562 62.8773 49.3189 62.7665 49.0672C62.5109 48.4743 62.3788 47.8131 62.3788 47.0752C62.3788 46.4951 62.4853 45.9533 62.7026 45.4457C62.8134 45.1855 62.9497 44.9381 63.1159 44.695C63.2735 44.4689 63.4525 44.2513 63.657 44.0423C64.2747 43.411 64.9862 43.0143 65.7787 42.8437C65.5231 42.7925 65.2546 42.7626 64.9777 42.7541L64.9664 42.7533C64.9067 42.7493 64.8504 42.7456 64.7903 42.7456C64.7306 42.7456 64.671 42.7498 64.6114 42.7541C63.7124 42.7882 62.9114 43.0826 62.2084 43.6328C62.0508 43.7565 61.8932 43.893 61.744 44.0423C60.8919 44.9082 60.4659 45.9192 60.4659 47.0709C60.4659 48.4103 60.8834 49.5109 61.7227 50.3768C61.8761 50.5389 62.038 50.6754 62.2084 50.8033Z" fill="white"/>
<path d="M60.5639 23.8105L61.8292 26.0584L64.3557 26.5703L62.6132 28.4685L62.9071 31.0364L60.5639 29.9615L58.2164 31.0364L58.5146 28.4685L56.7678 26.5703L59.2943 26.0584L60.5639 23.8105Z" fill="white"/>
<path d="M50.1343 29.2065L50.9225 30.6013L52.4904 30.9213L51.4082 32.0986L51.5914 33.6939L50.1343 33.0242L48.6815 33.6939L48.8647 32.0986L47.7783 30.9213L49.3504 30.6013L50.1343 29.2065Z" fill="white"/>
<path d="M71.8711 30.6013L71.0829 29.2065L70.299 30.6013L68.7269 30.9213L69.8133 32.0986L69.6301 33.6939L71.0829 33.0242L72.54 33.6939L72.3568 32.0986L73.439 30.9213L71.8711 30.6013Z" fill="white"/>
<path fill-rule="evenodd" clip-rule="evenodd" d="M61.1518 22.053C73.7244 30.5672 94.6134 31.8639 94.6134 31.8639C94.6134 31.8639 94.8434 38.8212 93.2543 57.5302C91.6694 76.2392 80.1406 88.1233 61.0368 98.1091L60.5 98.3906L59.9632 98.1091C40.8593 88.1275 29.3306 76.2392 27.7457 57.5302C26.1565 38.8212 26.3866 31.8597 26.3866 31.8597C26.3866 31.8597 47.2713 30.5629 59.8481 22.0487L60.5 21.6094L61.1518 22.053ZM40.0328 81.1234C41.0596 82.4116 42.1801 83.6572 43.3943 84.8686V79.511C42.1588 78.1545 41.034 76.7426 40.0328 75.288V81.1234ZM47.5695 88.6181C48.6389 89.4797 49.7594 90.3286 50.931 91.1604V86.1227C49.7551 85.2909 48.6346 84.4207 47.5695 83.5207V88.6181ZM55.1063 93.9203C56.1927 94.59 57.3089 95.2511 58.4678 95.8995V90.5845C57.3089 90.0129 56.1884 89.4158 55.1063 88.7887V93.9203ZM62.643 95.8313C63.8018 95.1786 64.9223 94.5174 66.0045 93.8477V88.7844C64.9181 89.4115 63.7976 90.0087 62.643 90.5803V95.8313ZM70.184 91.0794C71.3556 90.2433 72.4804 89.3944 73.5455 88.5242V83.5207C72.4804 84.4207 71.3599 85.2909 70.184 86.1227V91.0794ZM60.5554 89.6674L61.3649 89.275C76.3275 82.049 85.2574 69.9346 85.283 56.8733V40.9284L83.664 40.7834L83.6488 40.7818C83.4983 40.7667 82.3074 40.6468 80.4687 40.3312C80.8436 40.9497 81.1717 41.5938 81.4358 42.2721C82.6373 42.4512 83.3871 42.528 83.4893 42.5365V56.8776C83.4893 57.3681 83.4723 57.8544 83.4425 58.3407C83.4127 58.8867 83.3658 59.4284 83.3019 59.9659C83.2998 59.9765 83.2987 59.9872 83.2976 59.9979C83.2966 60.0085 83.2955 60.0192 83.2934 60.0299C83.2337 60.5375 83.157 61.0408 83.0676 61.5442C83.0653 61.5534 83.0636 61.5629 83.0622 61.5726C83.0609 61.5815 83.0599 61.5905 83.0589 61.5996C83.0568 61.6177 83.0547 61.6364 83.0505 61.6551L83.0484 61.6488L83.0463 61.6423C82.8844 60.7508 82.6458 59.9318 82.3262 59.1938C82.1345 58.7587 81.8959 58.3108 81.619 57.8501C80.9288 56.7112 79.9745 55.504 78.7347 54.2201C78.9818 53.8874 79.2033 53.5461 79.4121 53.2006C80.4644 51.456 81.0013 49.5748 81.0013 47.5572C81.0013 45.4969 80.605 43.6499 79.8211 42.0161C79.6549 41.6706 79.4803 41.3294 79.28 41.0052C79.0628 40.6511 78.8242 40.3141 78.5685 39.9857C78.232 39.5506 77.8656 39.1368 77.4566 38.7401C77.0476 38.3434 76.613 37.9979 76.1656 37.6695C75.2326 36.987 74.2229 36.441 73.1237 36.057C71.7774 35.5836 70.3033 35.3404 68.7013 35.3106C68.6646 35.3091 68.6289 35.3071 68.5935 35.3052C68.5263 35.3014 68.4601 35.2978 68.3903 35.2978C68.1262 35.2978 67.8663 35.3063 67.6107 35.3191C68.1262 35.3404 68.6204 35.3959 69.1103 35.4684C70.7251 35.703 72.1907 36.1978 73.5071 36.9528C74.3592 37.4434 75.1559 38.0278 75.8845 38.7359C76.1614 39.0046 76.417 39.2861 76.6599 39.5719C77.0774 40.0625 77.4523 40.5743 77.7761 41.1161C77.8826 41.2952 77.9805 41.4785 78.0785 41.6619L78.0813 41.6682L78.0829 41.6727C78.0829 41.6727 78.085 41.6791 78.0871 41.6834C78.9775 43.3982 79.4249 45.3518 79.4249 47.5529C79.4249 49.3231 79.0116 50.991 78.1979 52.5522C78.1127 52.7186 78.0147 52.8849 77.9167 53.0513C77.6866 53.448 77.4395 53.8362 77.1541 54.2158C78.445 55.5552 79.4334 56.8093 80.1279 57.9909C80.2183 58.143 80.2995 58.295 80.3793 58.4445L80.4218 58.5241C80.5411 58.7502 80.6519 58.9763 80.7456 59.1938C81.3975 60.7081 81.7255 62.5508 81.7255 64.7221C81.7255 65.4173 81.6829 66.0913 81.602 66.7482V66.761C81.5892 66.7866 81.5764 66.8165 81.5679 66.8421C81.5615 66.8591 81.5551 66.8751 81.5487 66.8911L81.5424 66.9069C81.5381 66.9177 81.5338 66.9287 81.5296 66.9402C81.389 67.3028 81.2356 67.6653 81.0779 68.0236C81.0549 68.0741 81.0318 68.1256 81.0087 68.177L81.0076 68.1793L81.0067 68.1815C80.9836 68.233 80.9605 68.2845 80.9374 68.335C80.801 68.6336 80.6604 68.9322 80.5156 69.2266C80.4602 69.3332 80.409 69.4356 80.3579 69.5422C80.1619 69.9261 79.9617 70.31 79.7487 70.6897L79.6976 70.7792C79.4675 71.193 79.2246 71.6025 78.969 72.012L78.9648 72.0163C78.4705 72.8097 77.938 73.586 77.3671 74.3496C77.0263 74.806 76.6726 75.2624 76.3062 75.7103C76.2977 75.7188 76.2849 75.7316 76.2764 75.7444C75.9526 76.1411 75.6203 76.5293 75.2752 76.9132L75.2736 76.9166L75.271 76.9175C74.8193 77.4208 74.355 77.9156 73.8693 78.4019L73.865 78.4062H73.8693C73.537 78.7389 73.1961 79.0716 72.8468 79.4001L72.8425 79.4027L72.8361 79.4086C72.8329 79.4118 72.8297 79.415 72.8255 79.4171C72.4761 79.7456 72.1182 80.0655 71.7561 80.3854H71.7476C68.5778 83.1623 64.8329 85.6364 60.5682 87.6967L60.5511 87.7052L60.5341 87.6967C56.6059 85.7985 53.1209 83.5548 50.1173 81.0466V65.8866C50.1514 66.3515 50.2025 66.8122 50.2707 67.2601C50.4879 68.6635 50.8927 69.9773 51.4849 71.1973C52.1751 72.6263 53.1209 73.9358 54.3223 75.1174C54.3671 75.16 54.4118 75.2016 54.4565 75.2432C54.5012 75.2848 54.546 75.3264 54.5908 75.369C56.2353 76.9132 58.1141 78.0009 60.2231 78.6322C61.6844 79.0716 63.2608 79.2934 64.9479 79.2934C64.9777 79.2934 65.0075 79.2924 65.0374 79.2913C65.0672 79.2902 65.097 79.2892 65.1268 79.2892C65.3867 79.2892 65.6466 79.2806 65.9022 79.2678C66.1664 79.2508 66.4263 79.2337 66.6862 79.2081C68.8505 78.9991 70.8145 78.3891 72.5741 77.3824C73.6392 76.7724 74.6319 76.0174 75.5479 75.1174C75.7779 74.8913 75.9995 74.6567 76.2125 74.4178C78.5984 71.7603 79.7956 68.5227 79.7956 64.7093C79.7956 62.538 79.4718 60.6953 78.8156 59.181C78.1638 57.6667 76.9666 56.0074 75.2283 54.2073C76.7408 52.1811 77.4992 49.9587 77.4992 47.5444C77.4992 45.1386 76.9666 43.0228 75.8972 41.1971C75.5394 40.5829 75.1176 39.9942 74.6319 39.444C74.4785 39.2733 74.3166 39.107 74.1547 38.9406C74.134 38.9185 74.1133 38.896 74.0925 38.8732C74.0492 38.8261 74.0046 38.7775 73.9587 38.7316C73.2941 38.0875 72.5784 37.5372 71.8072 37.0723C70.2905 36.1552 68.5693 35.5964 66.6478 35.3873C66.3879 35.3617 66.128 35.3404 65.8596 35.3234C65.5997 35.3106 65.3398 35.302 65.0757 35.2978C65.0459 35.2978 65.0161 35.2967 64.9862 35.2956C64.9564 35.2946 64.9266 35.2935 64.8968 35.2935C64.7986 35.2935 64.7042 35.2972 64.6086 35.3009C64.559 35.3029 64.5088 35.3048 64.4579 35.3063C63.4013 35.3362 62.4044 35.4641 61.4586 35.6902C61.3881 35.7084 61.3176 35.7246 61.2475 35.7407C61.1694 35.7587 61.0919 35.7766 61.0155 35.7968C59.1963 36.3045 57.5986 37.196 56.2097 38.4671C56.1835 38.4912 56.1573 38.5149 56.1312 38.5386C56.0554 38.6074 55.9801 38.6757 55.9072 38.7487C53.5555 41.0521 52.3796 43.9783 52.3796 47.5188C52.3796 49.9758 53.1379 52.211 54.6504 54.2158C53.2487 55.6704 52.1964 57.0695 51.4891 58.4089C51.3486 58.6691 51.2165 58.9293 51.1057 59.1895C50.718 60.0853 50.4411 61.0707 50.2749 62.1371C50.2025 62.5807 50.1514 63.0371 50.1215 63.5106V47.3354H48.9073V79.9973C48.3023 79.4555 47.7187 78.8967 47.1605 78.3294V47.3311H44.3912C42.6615 49.2549 40.3396 50.9398 37.647 51.8697C37.0675 52.0702 36.4711 52.2408 35.8533 52.3645C35.8256 52.3688 35.7979 52.3763 35.7702 52.3837C35.7425 52.3912 35.7148 52.3987 35.6872 52.4029V53.4949C35.7425 53.4864 35.798 53.4779 35.8533 53.4736C36.4285 53.4139 37.0335 53.3072 37.647 53.1665C38.9677 52.8593 40.3183 52.3901 41.4643 51.8484V70.8603C41.2385 70.4551 41.0212 70.0498 40.8125 69.6403C40.7699 69.5635 40.7315 69.4868 40.6932 69.41C40.51 69.0474 40.3353 68.6805 40.1691 68.3137C40.1585 68.2903 40.1468 68.2659 40.1352 68.2414C40.1235 68.2169 40.1116 68.1921 40.101 68.1687V68.1559C38.4948 64.5557 37.647 60.7593 37.647 56.8733V54.5699C37.0292 54.7021 36.4199 54.8045 35.8533 54.8557V56.8776C35.8533 69.9346 44.7875 82.0448 59.7459 89.275L60.5554 89.6674ZM35.8576 40.9327V50.9697C36.4626 50.8332 37.0633 50.6625 37.6597 50.4365V42.5408C38.0091 42.5109 46.6791 41.645 55.1318 37.9808C55.16 37.9526 55.1866 37.9227 55.2133 37.8926C55.2471 37.8545 55.2812 37.8161 55.3193 37.7804C57.2706 35.8694 59.6351 34.6665 62.3746 34.1802C62.0934 34.0138 61.8165 33.8475 61.5438 33.6768L60.5596 33.0626L59.5797 33.6768C50.2516 39.5145 37.8486 40.751 37.4879 40.7869L37.4808 40.7876L35.8576 40.9327ZM81.0822 80.9826V75.288C80.0767 76.7426 78.9562 78.1545 77.7207 79.511V84.7534C78.9349 83.5335 80.0554 82.2794 81.0822 80.9826ZM85.2574 74.4989C87.5964 69.9005 88.9598 64.833 89.3262 59.1639C90.4126 42.4128 90.2933 33.9285 90.2933 33.9285C86.4248 33.4294 71.7433 29.2918 60.5 21.9464C49.2524 29.2918 34.5752 33.4294 30.7067 33.9285C30.7067 33.9285 30.5874 42.4128 31.6738 59.1639C32.0487 64.9311 33.4462 70.0754 35.8576 74.7335V67.162C34.6902 63.8604 34.081 60.4223 34.081 56.9117V39.333L37.4638 39.0302L37.4754 39.029C37.9122 38.9839 49.7424 37.7627 58.5317 32.2606L60.5554 30.9938L62.5833 32.2606C63.559 32.8749 64.5772 33.4294 65.6125 33.9413C65.7531 33.9413 65.898 33.9456 66.0386 33.9498C66.2942 33.937 66.5541 33.9328 66.814 33.9328C67.0781 33.9328 67.3423 33.937 67.6021 33.9498C67.8578 33.9413 68.1177 33.9328 68.3818 33.9328C72.4122 33.9328 75.7822 35.221 78.3981 37.759C78.5183 37.8763 78.6299 37.9999 78.7406 38.1225C78.7867 38.1735 78.8332 38.225 78.8795 38.2752C81.7085 38.8382 83.6129 39.0259 83.6598 39.0302L87.034 39.333V56.9117C87.034 60.418 86.4205 63.8604 85.2574 67.162V74.4989Z" fill="white"/>
</g>
<defs>
<linearGradient id="paint0_linear_442_0" x1="60.4999" y1="13.1154" x2="110.498" y2="64.6496" gradientUnits="userSpaceOnUse">
<stop offset="0.223947" stop-color="#F0453A"/>
<stop offset="1" stop-color="#1E40F5"/>
</linearGradient>
</defs>
</svg>
