<svg width="20" height="21" viewBox="0 0 20 21" fill="none" xmlns="http://www.w3.org/2000/svg">
    <path d="M17.4479 2.16675H2.55209C1.5853 2.16675 0.833344 2.95451 0.833344 3.8855V16.4897C0.833344 17.4565 1.5853 18.2084 2.55209 18.2084H17.4479C18.3789 18.2084 19.1667 17.4565 19.1667 16.4897V3.8855C19.1667 2.95451 18.3789 2.16675 17.4479 2.16675ZM2.55209 4.31519C2.55209 4.10034 2.73113 3.8855 2.98178 3.8855H4.41407C4.62892 3.8855 4.84376 4.10034 4.84376 4.31519V5.17456C4.84376 5.42521 4.62892 5.60425 4.41407 5.60425H2.98178C2.73113 5.60425 2.55209 5.42521 2.55209 5.17456V4.31519ZM17.4479 16.2748C17.4479 16.4181 17.3405 16.4897 17.2331 16.4897H2.76694C2.62371 16.4897 2.55209 16.4181 2.55209 16.2748V7.03654H17.4479V16.2748ZM17.4479 5.17456C17.4479 5.42521 17.2331 5.60425 17.0182 5.60425H6.9922C6.74155 5.60425 6.56251 5.42521 6.56251 5.17456V4.31519C6.56251 4.10034 6.74155 3.8855 6.9922 3.8855H17.0182C17.2331 3.8855 17.4479 4.10034 17.4479 4.31519V5.17456Z"
          fill="#3A87FC"/>
</svg>
