<svg width="72" height="72" viewBox="0 0 72 72" fill="none" xmlns="http://www.w3.org/2000/svg">
<path d="M6.24995 16.8748C6.25311 14.0579 7.37353 11.3573 9.3654 9.36539C11.3573 7.37353 14.0579 6.25311 16.8748 6.24995C19.2975 6.25859 21.6431 7.10298 23.5154 8.64054C25.004 8.05423 26.5325 7.5749 28.0894 7.20619C25.3601 4.04794 21.3718 2 16.8748 2C12.9313 2.00492 9.15067 3.57366 6.36217 6.36217C3.57366 9.15067 2.00492 12.9313 2 16.8748C2 20.3093 3.21788 23.437 5.18746 25.9578C5.85787 24.5044 6.63009 23.1002 7.49837 21.7556C6.69171 20.2543 6.2632 18.579 6.24995 16.8748ZM55.1244 2C50.6274 2 46.6391 4.04794 43.9098 7.21283C45.4667 7.58154 46.9952 8.06087 48.4838 8.64718C50.3561 7.10962 52.7016 6.26523 55.1244 6.25659C57.9413 6.25975 60.6419 7.38017 62.6338 9.37204C64.6256 11.3639 65.7461 14.0645 65.7492 16.8815C65.7376 18.5852 65.3109 20.2605 64.5061 21.7623C65.3723 23.1048 66.1427 24.5068 66.8117 25.9578C68.776 23.4343 69.9992 20.3093 69.9992 16.8748C69.9943 12.9313 68.4255 9.15067 65.637 6.36217C62.8485 3.57366 59.0679 2.00492 55.1244 2ZM35.9996 10.4999C19.5696 10.4999 6.24995 23.8195 6.24995 40.2495C6.24613 47.4039 8.83345 54.3176 13.5333 59.7116L6.56073 66.6789C6.46194 66.7776 6.38357 66.8948 6.3301 67.0237C6.27663 67.1527 6.24911 67.291 6.24911 67.4306C6.24911 67.5702 6.27663 67.7085 6.3301 67.8375C6.38357 67.9665 6.46194 68.0836 6.56073 68.1823L8.06282 69.6844C8.16149 69.7832 8.27867 69.8616 8.40766 69.915C8.53664 69.9685 8.6749 69.996 8.81453 69.996C8.95415 69.996 9.09241 69.9685 9.2214 69.915C9.35038 69.8616 9.46756 69.7832 9.56624 69.6844L16.5375 62.7118C21.9336 67.4083 28.8459 69.9951 35.9996 69.9951C43.1532 69.9951 50.0656 67.4083 55.4617 62.7118L62.429 69.6884C62.5276 69.7872 62.6448 69.8655 62.7738 69.919C62.9028 69.9725 63.041 70 63.1807 70C63.3203 70 63.4585 69.9725 63.5875 69.919C63.7165 69.8655 63.8337 69.7872 63.9324 69.6884L65.4345 68.1863C65.5333 68.0876 65.6116 67.9704 65.6651 67.8415C65.7186 67.7125 65.7461 67.5742 65.7461 67.4346C65.7461 67.295 65.7186 67.1567 65.6651 67.0277C65.6116 66.8987 65.5333 66.7816 65.4345 66.6829L58.4619 59.7116C63.1632 54.3181 65.7519 47.4044 65.7492 40.2495C65.7492 23.8195 52.4296 10.4999 35.9996 10.4999ZM35.9996 65.7492C21.9389 65.7492 10.4999 54.3102 10.4999 40.2495C10.4999 26.1888 21.9389 14.7498 35.9996 14.7498C50.0603 14.7498 61.4993 26.1888 61.4993 40.2495C61.4993 54.3102 50.0603 65.7492 35.9996 65.7492Z" fill="#071F44" fill-opacity="0.1"/>
<path d="M36 48.5714C35.4067 48.5714 34.8266 48.7599 34.3333 49.1131C33.8399 49.4663 33.4554 49.9683 33.2284 50.5557C33.0013 51.143 32.9419 51.7893 33.0576 52.4128C33.1734 53.0363 33.4591 53.609 33.8787 54.0586C34.2982 54.5081 34.8328 54.8142 35.4147 54.9382C35.9967 55.0623 36.5999 54.9986 37.148 54.7553C37.6962 54.512 38.1648 54.1001 38.4944 53.5715C38.8241 53.0429 39 52.4214 39 51.7857C39 50.9332 38.6839 50.1157 38.1213 49.5129C37.5587 48.9101 36.7956 48.5714 36 48.5714ZM34.9375 45.3571H37.0625C37.316 45.3533 37.5591 45.2482 37.7441 45.0624C37.929 44.8766 38.0426 44.6235 38.0625 44.3527L38.9375 26.1384C38.946 25.9922 38.9265 25.8456 38.8801 25.7078C38.8337 25.57 38.7614 25.4438 38.6677 25.3371C38.5739 25.2304 38.4608 25.1454 38.3352 25.0875C38.2096 25.0295 38.0742 24.9997 37.9375 25H34.0625C33.9257 24.9997 33.7904 25.0295 33.6648 25.0875C33.5392 25.1454 33.4261 25.2304 33.3323 25.3371C33.2386 25.4438 33.1663 25.57 33.1199 25.7078C33.0735 25.8456 33.054 25.9922 33.0625 26.1384L33.9375 44.3527C33.9534 44.6251 34.0658 44.8807 34.2516 45.0674C34.4374 45.254 34.6828 45.3577 34.9375 45.3571Z" fill="#071F44" fill-opacity="0.2"/>
</svg>
