<svg width="66" height="70" viewBox="0 0 66 70" fill="none" xmlns="http://www.w3.org/2000/svg">
<path d="M57.668 57.0938H11.8945C11.3647 57.0938 11.0469 57.5176 11.0469 57.9414V59.6367C11.0469 60.1665 11.3647 60.4844 11.8945 60.4844H57.668C58.0918 60.4844 58.5156 60.1665 58.5156 59.6367V57.9414C58.5156 57.5176 58.0918 57.0938 57.668 57.0938ZM62.7539 23.1875C59.4692 23.1875 56.8203 25.9424 56.8203 29.1211C56.8203 29.9688 56.9263 30.7104 57.2441 31.4521L51.3105 35.0547C50.6748 35.3726 50.145 35.4785 49.5093 35.4785C48.3437 35.4785 47.1782 34.8428 46.5425 33.7832L38.7017 20.0088C39.8672 18.9492 40.7148 17.3599 40.7148 15.5586C40.7148 12.3799 37.96 9.625 34.7812 9.625C31.4966 9.625 28.8477 12.3799 28.8477 15.5586C28.8477 17.3599 29.5894 18.9492 30.7549 20.0088L22.9141 33.7832C22.2783 34.8428 21.1128 35.4785 19.9473 35.4785C19.3115 35.4785 18.7817 35.3726 18.252 35.0547L12.2124 31.4521C12.5303 30.7104 12.7422 29.9688 12.7422 29.1211C12.7422 25.8364 9.9873 23.1875 6.80859 23.1875C3.52393 23.1875 0.875 25.9424 0.875 29.1211C0.875 32.4058 3.52393 35.0547 6.80859 35.0547C7.02051 35.0547 7.12646 35.0547 7.33838 35.0547L14.4375 53.7031H55.125L62.1182 35.0547C62.3301 35.0547 62.542 35.0547 62.7539 35.0547C65.9326 35.0547 68.6875 32.4058 68.6875 29.1211C68.6875 25.9424 65.9326 23.1875 62.7539 23.1875ZM34.7812 13.0156C36.1587 13.0156 37.3242 14.1812 37.3242 15.5586C37.3242 17.042 36.1587 18.1016 34.7812 18.1016C33.2978 18.1016 32.2383 17.042 32.2383 15.5586C32.2383 14.1812 33.2978 13.0156 34.7812 13.0156ZM6.80859 31.6641C5.32519 31.6641 4.26562 30.6045 4.26562 29.1211C4.26562 27.7437 5.32519 26.5781 6.80859 26.5781C8.18603 26.5781 9.35156 27.7437 9.35156 29.1211C9.35156 30.6045 8.18603 31.6641 6.80859 31.6641ZM52.688 50.3125H16.7686L10.835 34.5249L16.4507 37.9155C17.5103 38.5513 18.6758 38.8691 19.9473 38.8691C22.3843 38.8691 24.6094 37.5977 25.8809 35.4785L33.8276 21.4922C34.1455 21.4922 34.4634 21.4922 34.7812 21.4922C35.0991 21.4922 35.311 21.4922 35.6289 21.4922L43.6816 35.4785C44.8472 37.5977 47.0723 38.8691 49.5093 38.8691C50.7808 38.8691 51.9463 38.5513 53.0059 37.9155L58.6216 34.5249L52.688 50.3125ZM62.7539 31.6641C61.2705 31.6641 60.2109 30.6045 60.2109 29.1211C60.2109 27.7437 61.2705 26.5781 62.7539 26.5781C64.1313 26.5781 65.2969 27.7437 65.2969 29.1211C65.2969 30.6045 64.1313 31.6641 62.7539 31.6641Z" fill="url(#paint0_linear_1113_4240)"/>
<defs>
<linearGradient id="paint0_linear_1113_4240" x1="52.6591" y1="15.4045" x2="37.5817" y2="68.0453" gradientUnits="userSpaceOnUse">
<stop stop-color="white" stop-opacity="0.1"/>
<stop offset="1" stop-color="#FEFEFE" stop-opacity="0"/>
</linearGradient>
</defs>
</svg>
