<svg width="30" height="30" viewBox="0 0 30 30" fill="none" xmlns="http://www.w3.org/2000/svg">
<circle cx="15" cy="15" r="12.75" fill="black" fill-opacity="0.8"/>
<path d="M11.2473 13.9253L14.6352 11.2113V7.2224L11.6844 6.05669C9.57158 6.8399 7.8048 8.35169 6.67551 10.2824L7.22194 12.5774L11.2473 13.9253Z" fill="url(#paint0_linear_1149_2045)"/>
<path d="M7.02179 13.2879L11.0107 14.6176L12.0125 18.6794L10.0454 21.3022L7.33143 20.8651C6.14751 19.2987 5.41894 17.3679 5.38251 15.2551L7.02179 13.2879Z" fill="url(#paint1_linear_1149_2045)"/>
<path d="M10.6647 21.703L12.6136 19.1165H17.3857L19.3711 21.7212L17.9322 24.2347C17.0032 24.5262 16.0197 24.6901 14.9997 24.6901C14.0707 24.6901 13.1782 24.5444 12.3222 24.2894L10.6647 21.703Z" fill="url(#paint2_linear_1149_2045)"/>
<path d="M18.9887 14.6176L22.9594 13.2879L24.5987 15.2551C24.5623 17.3679 23.8337 19.2987 22.6498 20.8651L19.9541 21.284L17.9687 18.6612L18.9887 14.6176Z" fill="url(#paint3_linear_1149_2045)"/>
<path d="M22.7777 12.5774L23.3242 10.2824C22.1949 8.33347 20.4281 6.8399 18.297 6.05669L15.3645 7.2224V11.2113L18.7524 13.9253L22.7777 12.5774Z" fill="url(#paint4_linear_1149_2045)"/>
<path fill-rule="evenodd" clip-rule="evenodd" d="M15 2.25C7.96929 2.25 2.25 7.96929 2.25 15C2.25 22.0307 7.96929 27.75 15 27.75C22.0307 27.75 27.75 22.0307 27.75 15C27.75 7.96929 22.0307 2.25 15 2.25ZM3.7375 15C3.7375 8.79081 8.79081 3.7375 15 3.7375C21.2092 3.7375 26.2625 8.79081 26.2625 15C26.2625 21.2092 21.2092 26.2625 15 26.2625C8.79081 26.2625 3.7375 21.2092 3.7375 15Z" fill="url(#paint5_linear_1149_2045)"/>
<defs>
<linearGradient id="paint0_linear_1149_2045" x1="15" y1="2.25001" x2="15" y2="27.75" gradientUnits="userSpaceOnUse">
<stop stop-color="#C8A674"/>
<stop offset="1" stop-color="#EBC994"/>
</linearGradient>
<linearGradient id="paint1_linear_1149_2045" x1="15" y1="2.25001" x2="15" y2="27.75" gradientUnits="userSpaceOnUse">
<stop stop-color="#C8A674"/>
<stop offset="1" stop-color="#EBC994"/>
</linearGradient>
<linearGradient id="paint2_linear_1149_2045" x1="15" y1="2.25001" x2="15" y2="27.75" gradientUnits="userSpaceOnUse">
<stop stop-color="#C8A674"/>
<stop offset="1" stop-color="#EBC994"/>
</linearGradient>
<linearGradient id="paint3_linear_1149_2045" x1="15" y1="2.25001" x2="15" y2="27.75" gradientUnits="userSpaceOnUse">
<stop stop-color="#C8A674"/>
<stop offset="1" stop-color="#EBC994"/>
</linearGradient>
<linearGradient id="paint4_linear_1149_2045" x1="15" y1="2.25001" x2="15" y2="27.75" gradientUnits="userSpaceOnUse">
<stop stop-color="#C8A674"/>
<stop offset="1" stop-color="#EBC994"/>
</linearGradient>
<linearGradient id="paint5_linear_1149_2045" x1="15" y1="2.25001" x2="15" y2="27.75" gradientUnits="userSpaceOnUse">
<stop stop-color="#C8A674"/>
<stop offset="1" stop-color="#EBC994"/>
</linearGradient>
</defs>
</svg>
