<svg width="30" height="30" viewBox="0 0 30 30" fill="none" xmlns="http://www.w3.org/2000/svg">
<path d="M22.8955 25.2656L18.2979 24.2531C19.5524 23.524 20.1462 22.8591 19.8314 21.3253L19.2379 18.4345C19.346 18.441 19.4568 18.4116 19.5515 18.3423L23.3052 15.7333C24.3896 14.9758 24.6659 13.3878 23.8481 12.2804C23.1338 11.316 21.8179 11.1809 20.833 11.8573L20.464 12.1196L20.214 11.7211C19.6648 10.8067 18.6002 10.3619 17.6462 10.681L16.5154 5.17283C16.4196 4.70638 16.2381 4.2816 15.9916 3.9124C16.3542 3.75366 16.7658 3.70432 17.18 3.79549L26.9218 5.93945C27.9979 6.17627 28.6848 7.27143 28.4561 8.38556L25.35 23.4375C24.9 24.8438 24.45 25.3125 22.8955 25.2656Z" fill="black" fill-opacity="0.8"/>
<path d="M9.47072 11.7749C9.5832 11.5956 9.82127 11.5432 9.99447 11.6596L10.1984 11.7904C11.2512 12.4656 13.5755 13.956 13.9771 14.2525C14.3688 14.5442 14.657 14.9788 14.765 15.5047C14.9944 16.6221 14.3388 17.711 13.2629 17.965C12.6632 18.1141 12.0696 17.97 11.6202 17.6395C11.745 18.2475 11.8115 18.4905 12.7144 18.6868C12.941 18.74 13.1185 18.9586 13.1181 19.1991C13.1245 19.4725 12.9519 19.6822 12.698 19.7381L10.1745 20.2935C9.9364 20.3459 9.69634 20.227 9.58562 20.0109C9.48741 19.7749 9.5604 19.484 9.76236 19.3365C10.5037 18.7817 10.457 18.5185 10.3532 17.9341L10.3505 17.9189C10.0698 18.4101 9.60004 18.7883 9.00944 18.9011C7.91433 19.1421 6.86837 18.4105 6.63223 17.2602C6.52765 16.7508 6.62364 16.2487 6.86685 15.8173C7.10589 15.3742 8.68443 12.9717 9.36579 11.9346L9.47072 11.7749Z" fill="black" fill-opacity="0.8"/>
<path fill-rule="evenodd" clip-rule="evenodd" d="M3.07816 6.03137C2.00211 6.26819 1.31521 7.36335 1.54394 8.47748L4.85704 24.616C5.08576 25.7301 6.14349 26.4413 7.21954 26.2045L16.9614 24.0605C18.0374 23.8237 18.7243 22.7285 18.4956 21.6144L15.1825 5.47593C14.9538 4.3618 13.896 3.65059 12.82 3.88741L3.07816 6.03137ZM9.47077 11.7747C9.58324 11.5954 9.82131 11.543 9.99451 11.6594L10.1984 11.7902C11.2513 12.4654 13.5755 13.9558 13.9772 14.2523C14.3688 14.544 14.6571 14.9786 14.765 15.5045C14.9944 16.6219 14.3388 17.7108 13.2629 17.9648C12.6632 18.1139 12.0696 17.9698 11.6202 17.6393C11.7451 18.2473 11.8115 18.4903 12.7144 18.6866C12.941 18.7398 13.1186 18.9583 13.1182 19.1989C13.1245 19.4723 12.952 19.682 12.698 19.7379L10.1745 20.2933C9.93644 20.3457 9.69638 20.2267 9.58567 20.0107C9.48745 19.7746 9.56045 19.4838 9.7624 19.3363C10.5037 18.7815 10.457 18.5183 10.3533 17.9339L10.3506 17.9187C10.0699 18.4099 9.60009 18.788 9.00948 18.9009C7.91437 19.1419 6.86842 18.4102 6.63227 17.2599C6.52769 16.7505 6.62369 16.2485 6.86689 15.8171C7.10594 15.374 8.68455 12.9713 9.36588 11.9343L9.47077 11.7747Z" fill="#FFDD99"/>
<path fill-rule="evenodd" clip-rule="evenodd" d="M3.07816 6.03137C2.00211 6.26819 1.31521 7.36335 1.54394 8.47748L4.85704 24.616C5.08576 25.7301 6.14349 26.4413 7.21954 26.2045L16.9614 24.0605C18.0374 23.8237 18.7243 22.7285 18.4956 21.6144L15.1825 5.47593C14.9538 4.3618 13.896 3.65059 12.82 3.88741L3.07816 6.03137ZM9.47077 11.7747C9.58324 11.5954 9.82131 11.543 9.99451 11.6594L10.1984 11.7902C11.2513 12.4654 13.5755 13.9558 13.9772 14.2523C14.3688 14.544 14.6571 14.9786 14.765 15.5045C14.9944 16.6219 14.3388 17.7108 13.2629 17.9648C12.6632 18.1139 12.0696 17.9698 11.6202 17.6393C11.7451 18.2473 11.8115 18.4903 12.7144 18.6866C12.941 18.7398 13.1186 18.9583 13.1182 19.1989C13.1245 19.4723 12.952 19.682 12.698 19.7379L10.1745 20.2933C9.93644 20.3457 9.69638 20.2267 9.58567 20.0107C9.48745 19.7746 9.56045 19.4838 9.7624 19.3363C10.5037 18.7815 10.457 18.5183 10.3533 17.9339L10.3506 17.9187C10.0699 18.4099 9.60009 18.788 9.00948 18.9009C7.91437 19.1419 6.86842 18.4102 6.63227 17.2599C6.52769 16.7505 6.62369 16.2485 6.86689 15.8171C7.10594 15.374 8.68455 12.9713 9.36588 11.9343L9.47077 11.7747Z" fill="url(#paint0_linear_1149_2059)"/>
<path d="M20.2139 11.7208C19.6647 10.8064 18.6001 10.3616 17.646 10.6807L19.2378 18.4342C19.3459 18.4407 19.4567 18.4113 19.5513 18.342L23.305 15.733C24.3894 14.9755 24.6657 13.3875 23.848 12.2801C23.1336 11.3156 21.8177 11.1806 20.8328 11.857L20.4638 12.1193L20.2139 11.7208Z" fill="#FFDD99"/>
<path d="M20.2139 11.7208C19.6647 10.8064 18.6001 10.3616 17.646 10.6807L19.2378 18.4342C19.3459 18.4407 19.4567 18.4113 19.5513 18.342L23.305 15.733C24.3894 14.9755 24.6657 13.3875 23.848 12.2801C23.1336 11.3156 21.8177 11.1806 20.8328 11.857L20.4638 12.1193L20.2139 11.7208Z" fill="url(#paint1_linear_1149_2059)"/>
<defs>
<linearGradient id="paint0_linear_1149_2059" x1="12.9113" y1="3.84192" x2="12.9113" y2="26.25" gradientUnits="userSpaceOnUse">
<stop stop-color="#C8A674"/>
<stop offset="1" stop-color="#EBC994"/>
</linearGradient>
<linearGradient id="paint1_linear_1149_2059" x1="12.9113" y1="3.84192" x2="12.9113" y2="26.25" gradientUnits="userSpaceOnUse">
<stop stop-color="#C8A674"/>
<stop offset="1" stop-color="#EBC994"/>
</linearGradient>
</defs>
</svg>
