<svg width="200" height="53" viewBox="0 0 200 53" fill="none" xmlns="http://www.w3.org/2000/svg">
<rect x="60" y="11" width="80" height="2" fill="#F0453A" fill-opacity="0.4"/>
<circle cx="152" cy="12" r="12" fill="#F0453A"/>
<path d="M152.168 6.08C151.013 6.08 150.083 6.47 149.378 7.25C148.688 7.985 148.343 8.945 148.328 10.145H150.083C150.113 9.305 150.293 8.66 150.623 8.24C150.953 7.79 151.448 7.565 152.108 7.565C152.723 7.565 153.188 7.7 153.503 7.985C153.803 8.27 153.968 8.705 153.968 9.29C153.968 9.89 153.728 10.46 153.263 10.985C152.963 11.3 152.483 11.705 151.793 12.185C150.548 13.04 149.723 13.7 149.333 14.15C148.613 14.96 148.268 15.905 148.268 17H155.738V15.455H150.458C150.698 14.915 151.358 14.285 152.453 13.565C153.503 12.86 154.253 12.29 154.673 11.84C155.363 11.075 155.723 10.235 155.723 9.305C155.723 8.345 155.393 7.58 154.733 6.98C154.058 6.38 153.203 6.08 152.168 6.08Z" fill="white"/>
<path d="M124.115 40.035V45.255H128.69V45.96H123.56V47.19H128.69V47.925H122.81V49.26H136.19V47.925H130.25V47.19H135.44V45.96H130.25V45.255H134.84V40.035H130.25V39.39H135.965V38.07H130.25V37.26C131.87 37.17 133.4 37.065 134.81 36.945L134.345 35.685C131.315 35.985 127.85 36.18 123.965 36.285L124.22 37.53C125.78 37.47 127.265 37.41 128.69 37.35V38.07H123.005V39.39H128.69V40.035H124.115ZM133.325 44.025H130.25V43.215H133.325V44.025ZM128.69 44.025H125.63V43.215H128.69V44.025ZM125.63 42.045V41.265H128.69V42.045H125.63ZM130.25 41.265H133.325V42.045H130.25V41.265ZM138.005 39.84V40.995H143.495L143.375 41.61H139.835V48.12H137.735V49.32H151.265V48.12H149.165V41.61H144.92L145.055 40.995H150.995V39.84H145.25L145.34 39.21H150.065V36.15H138.935V39.21H143.735C143.72 39.42 143.705 39.63 143.675 39.84H138.005ZM141.38 48.12V47.415H147.635V48.12H141.38ZM141.38 46.5V45.825H147.635V46.5H141.38ZM141.38 44.895V44.22H147.635V44.895H141.38ZM141.38 43.305V42.645H147.635V43.305H141.38ZM148.595 38.145H146.84V37.275H148.595V38.145ZM145.445 38.145H143.555V37.275H145.445V38.145ZM142.16 38.145H140.405V37.275H142.16V38.145ZM165.89 36.78H160.28C160.145 36.33 160.01 35.94 159.875 35.58L158.21 35.85C158.36 36.135 158.51 36.45 158.645 36.78H153.11V40.095H154.64V38.19H164.36V40.095H165.89V36.78ZM158.765 44.925V47.61H155.735V45.435H154.205V49.575H155.735V49.05H163.475V49.59H165.02V45.21H163.475V47.61H160.325V44.925H158.765ZM159.125 38.28L157.985 38.985C158.555 39.615 159.005 40.185 159.335 40.71L160.49 39.915C160.16 39.435 159.71 38.895 159.125 38.28ZM162.455 38.52C161.3 39.87 159.845 41.04 158.09 42V39.885H156.575V42.735C155.36 43.275 154.01 43.725 152.54 44.115L153.155 45.435C154.535 45.06 155.81 44.625 157.01 44.115C157.28 44.385 157.685 44.535 158.24 44.535H161.63C162.26 44.535 162.74 44.415 163.04 44.19C163.37 43.98 163.61 43.26 163.745 42.045L162.275 41.565C162.215 42.33 162.11 42.78 161.945 42.93C161.81 43.08 161.6 43.155 161.33 43.155H158.96C160.805 42.12 162.35 40.86 163.595 39.39L162.455 38.52ZM164.105 40.005L162.98 40.815C163.895 41.925 164.63 42.93 165.17 43.86L166.415 42.99C165.875 42.135 165.095 41.145 164.105 40.005ZM155.135 39.27C154.76 40.38 154.115 41.415 153.2 42.375L154.475 43.185C155.345 42.165 156.005 40.965 156.485 39.57L155.135 39.27ZM172.895 40.8H170.165C170.495 39.87 170.75 38.895 170.945 37.86H173.135V36.36H167.885V37.86H169.475C169.115 39.87 168.44 41.67 167.435 43.275L168.215 44.55C168.425 44.235 168.635 43.92 168.845 43.59V49.065H170.285V48.09H171.455V48.78H172.895V40.8ZM170.285 46.665V42.21H171.455V46.665H170.285ZM174.455 38.445L173.645 43.53H179.705C179.705 45.66 179.585 46.935 179.36 47.385C179.15 47.82 178.49 48.045 177.38 48.045C177.125 48.045 176.66 48 176 47.91L176.45 49.425C176.9 49.47 177.32 49.5 177.74 49.5C179.15 49.5 180.08 49.2 180.53 48.63C180.965 48.045 181.19 45.855 181.19 42.075H179.69L180.47 36.15H173.675V37.62H178.775L178.115 42.075H175.37L175.985 38.535L174.455 38.445ZM173.36 44.985V46.455H178.97V44.985H173.36Z" fill="#F0453A"/>
<circle cx="48" cy="12" r="11" stroke="#F0453A" stroke-opacity="0.4" stroke-width="2"/>
<path d="M46.0449 16.4926C46.2819 16.7247 46.6848 16.7247 46.9218 16.4926L53.8889 9.66855C54.1259 9.43644 54.1259 9.04185 53.8889 8.80973L53.0358 7.97413C52.7988 7.74202 52.4197 7.74202 52.1827 7.97413L46.4952 13.5448L43.8173 10.9452C43.5804 10.7131 43.2012 10.7131 42.9642 10.9452L42.1111 11.7808C41.8741 12.0129 41.8741 12.4075 42.1111 12.6396L46.0449 16.4926Z" fill="#F0453A" fill-opacity="0.4"/>
<path d="M14.955 38.715V44.775H18.645V47.685C18.645 47.955 18.48 48.09 18.18 48.09C17.76 48.09 17.325 48.045 16.86 47.985L17.205 49.515H18.72C19.71 49.515 20.22 49.035 20.22 48.075V44.775H23.535V38.715H19.53C19.635 38.385 19.725 38.04 19.8 37.68H24.57V36.15H12.09V41.985C12.06 44.745 11.7 46.92 10.995 48.48L12.18 49.545C13.125 47.64 13.62 45.12 13.68 41.985V37.68H18.24C18.18 38.025 18.09 38.37 17.985 38.715H14.955ZM22.02 43.365H16.47V42.39H22.02V43.365ZM16.47 41.07V40.14H22.02V41.07H16.47ZM15.885 45.135C15.255 46.335 14.505 47.37 13.635 48.24L14.925 49.155C15.825 48.21 16.59 47.1 17.25 45.81L15.885 45.135ZM22.5 45.12L21.225 45.915C22.17 47.115 22.92 48.21 23.46 49.2L24.765 48.315C24.225 47.415 23.475 46.35 22.5 45.12ZM39.39 36.78H33.78C33.645 36.33 33.51 35.94 33.375 35.58L31.71 35.85C31.86 36.135 32.01 36.45 32.145 36.78H26.61V40.095H28.14V38.19H37.86V40.095H39.39V36.78ZM32.265 44.925V47.61H29.235V45.435H27.705V49.575H29.235V49.05H36.975V49.59H38.52V45.21H36.975V47.61H33.825V44.925H32.265ZM32.625 38.28L31.485 38.985C32.055 39.615 32.505 40.185 32.835 40.71L33.99 39.915C33.66 39.435 33.21 38.895 32.625 38.28ZM35.955 38.52C34.8 39.87 33.345 41.04 31.59 42V39.885H30.075V42.735C28.86 43.275 27.51 43.725 26.04 44.115L26.655 45.435C28.035 45.06 29.31 44.625 30.51 44.115C30.78 44.385 31.185 44.535 31.74 44.535H35.13C35.76 44.535 36.24 44.415 36.54 44.19C36.87 43.98 37.11 43.26 37.245 42.045L35.775 41.565C35.715 42.33 35.61 42.78 35.445 42.93C35.31 43.08 35.1 43.155 34.83 43.155H32.46C34.305 42.12 35.85 40.86 37.095 39.39L35.955 38.52ZM37.605 40.005L36.48 40.815C37.395 41.925 38.13 42.93 38.67 43.86L39.915 42.99C39.375 42.135 38.595 41.145 37.605 40.005ZM28.635 39.27C28.26 40.38 27.615 41.415 26.7 42.375L27.975 43.185C28.845 42.165 29.505 40.965 29.985 39.57L28.635 39.27ZM46.395 40.8H43.665C43.995 39.87 44.25 38.895 44.445 37.86H46.635V36.36H41.385V37.86H42.975C42.615 39.87 41.94 41.67 40.935 43.275L41.715 44.55C41.925 44.235 42.135 43.92 42.345 43.59V49.065H43.785V48.09H44.955V48.78H46.395V40.8ZM43.785 46.665V42.21H44.955V46.665H43.785ZM47.955 38.445L47.145 43.53H53.205C53.205 45.66 53.085 46.935 52.86 47.385C52.65 47.82 51.99 48.045 50.88 48.045C50.625 48.045 50.16 48 49.5 47.91L49.95 49.425C50.4 49.47 50.82 49.5 51.24 49.5C52.65 49.5 53.58 49.2 54.03 48.63C54.465 48.045 54.69 45.855 54.69 42.075H53.19L53.97 36.15H47.175V37.62H52.275L51.615 42.075H48.87L49.485 38.535L47.955 38.445ZM46.86 44.985V46.455H52.47V44.985H46.86ZM63.435 40.485V41.295H67.74V40.425C68.19 40.905 68.7 41.355 69.27 41.805L70.125 40.5C68.325 39.12 67.05 37.515 66.315 35.685H64.935C64.05 37.68 62.79 39.3 61.14 40.545L61.965 41.805C62.475 41.415 62.97 40.98 63.435 40.485ZM67.275 39.885H63.96C64.575 39.105 65.13 38.22 65.625 37.215C66.045 38.175 66.585 39.06 67.275 39.885ZM61.575 47.595V49.095H69.915V47.595H67.86C68.415 46.05 68.88 44.295 69.27 42.345L67.77 41.955C67.365 44.16 66.9 46.035 66.39 47.595H61.575ZM63.315 42.39L61.98 42.855C62.46 44.145 62.865 45.51 63.195 46.935L64.53 46.62C64.17 45.03 63.765 43.62 63.315 42.39ZM65.625 41.925L64.29 42.36C64.68 43.62 65.01 44.94 65.265 46.305L66.6 45.99C66.315 44.46 65.985 43.095 65.625 41.925ZM59.745 37.635L59.115 42.405H57.78L58.35 38.505L56.925 38.43L56.22 43.785H59.985C59.985 45.81 59.91 47.025 59.775 47.445C59.64 47.85 59.25 48.06 58.605 48.06C58.395 48.06 58.035 48.015 57.51 47.94L57.93 49.32C58.275 49.35 58.605 49.38 58.935 49.38C59.955 49.38 60.63 49.095 60.945 48.555C61.26 48.015 61.425 45.96 61.425 42.405H60.585L61.29 36.225H56.28V37.635H59.745ZM59.415 44.7C58.41 45.03 57.24 45.3 55.905 45.51L56.1 46.98C57.33 46.755 58.44 46.455 59.415 46.095V44.7ZM80.235 37.755V47.535H78.615V39.93H77.085V47.535H75.72V49.065H85.035V47.535H81.825V42.915H84.51V41.46H81.825V37.755H84.72V36.225H76.17V37.755H80.235ZM73.215 35.79L72.12 36.825C73.155 37.605 73.95 38.355 74.52 39.06L75.585 37.965C74.925 37.245 74.145 36.525 73.215 35.79ZM71.07 40.11V41.61H73.11V46.785C73.11 47.115 72.975 47.385 72.705 47.595L73.305 49.02C74.325 48.315 75.3 47.52 76.215 46.65L75.81 45C75.39 45.42 74.985 45.795 74.595 46.155V40.11H71.07Z" fill="#F0453A" fill-opacity="0.4"/>
</svg>
