<svg width="82" height="72" viewBox="0 0 82 72" fill="none" xmlns="http://www.w3.org/2000/svg">
<g filter="url(#filter0_iii_828_9681)">
<path d="M38.0298 9.19342C39.7953 7.88962 42.2047 7.88963 43.9702 9.19342L68.116 27.0243C69.84 28.2974 70.5609 30.5276 69.9084 32.5689L60.6527 61.5225C59.9905 63.5941 58.065 65 55.8901 65H26.1099C23.935 65 22.0095 63.5941 21.3473 61.5225L12.0916 32.5689C11.4391 30.5276 12.16 28.2974 13.884 27.0243L38.0298 9.19342Z" fill="url(#paint0_linear_828_9681)"/>
</g>
<g filter="url(#filter1_di_828_9681)">
<path d="M39.1788 15.3913C40.254 14.5699 41.746 14.5699 42.8212 15.3913L62.3371 30.3001C63.3362 31.0634 63.7534 32.3686 63.3822 33.5698L55.8682 57.8858C55.4797 59.1428 54.3176 60 53.0019 60H28.9982C27.6825 60 26.5203 59.1428 26.1319 57.8858L18.6179 33.5698C18.2467 32.3686 18.6638 31.0634 19.6629 30.3001L39.1788 15.3913Z" fill="#664422"/>
</g>
<mask id="mask0_828_9681" style="mask-type:alpha" maskUnits="userSpaceOnUse" x="23" y="20" width="36" height="35">
<path d="M39.8359 20.4275C40.5527 19.8799 41.5473 19.8799 42.2641 20.4275L57.6914 32.2129C58.3574 32.7217 58.6356 33.5919 58.3881 34.3927L52.4557 53.5905C52.1967 54.4285 51.4219 55 50.5448 55H31.5552C30.6781 55 29.9033 54.4285 29.6443 53.5905L23.7119 34.3927C23.4644 33.5919 23.7425 32.7217 24.4086 32.2129L39.8359 20.4275Z" fill="#DBAD7F"/>
</mask>
<g mask="url(#mask0_828_9681)">
<g filter="url(#filter2_ii_828_9681)">
<path d="M39.8359 20.4275C40.5527 19.8799 41.5474 19.8799 42.2642 20.4275L57.6914 32.2129C58.3575 32.7217 58.6356 33.5919 58.3882 34.3927L52.4557 53.5905C52.1968 54.4285 51.422 55 50.5449 55H31.5552C30.6781 55 29.9033 54.4285 29.6444 53.5905L23.7119 34.3927C23.4645 33.5919 23.7426 32.7217 24.4087 32.2129L39.8359 20.4275Z" fill="#DBAD7F"/>
</g>
<g style="mix-blend-mode:darken">
<path d="M51.8922 54.9917L30.2229 54.9999L41.052 39.062L51.8922 54.9917Z" fill="url(#paint1_linear_828_9681)" fill-opacity="0.2"/>
</g>
<g style="mix-blend-mode:lighten">
<path d="M23.3 32.9881L41.0299 19.5L41.0527 39.0623L23.3 32.9881Z" fill="url(#paint2_linear_828_9681)" fill-opacity="0.54"/>
</g>
<g style="mix-blend-mode:darken">
<path d="M30.2056 54.986L23.312 32.9531L41.0537 39.0623L30.2056 54.986Z" fill="url(#paint3_linear_828_9681)" fill-opacity="0.3"/>
</g>
<g style="mix-blend-mode:darken">
<path d="M41.0535 19.5L58.799 32.9654L41.0535 39.0623L41.0535 19.5Z" fill="url(#paint4_linear_828_9681)" fill-opacity="0.3"/>
</g>
<g style="mix-blend-mode:darken">
<path d="M58.8 32.9689L51.899 54.9883L41.0535 39.0627L58.8 32.9689Z" fill="url(#paint5_linear_828_9681)" fill-opacity="0.18"/>
</g>
<g filter="url(#filter3_dd_828_9681)">
<path d="M42.7021 29.7838C42.8662 29.7838 42.9482 29.8658 42.9482 30.0299V38.5817C42.9482 38.7457 42.8662 38.8278 42.7021 38.8278H39.2979C39.1338 38.8278 39.0518 38.7457 39.0518 38.5817V30.0299C39.0518 29.8658 39.1338 29.7838 39.2979 29.7838H42.7021ZM36.5908 38.1305C36.5908 39.9625 37.5615 40.9196 39.5029 41.0016C39.5986 41.0016 39.6943 41.0016 39.79 41.0016H42.21C44.2881 40.9059 45.3545 39.9489 45.4092 38.1305V30.4606C45.3818 28.5739 44.3154 27.6237 42.21 27.61H39.79C37.6709 27.6373 36.6045 28.5875 36.5908 30.4606V38.1305Z" fill="#FBDFC3"/>
</g>
<g filter="url(#filter4_dd_828_9681)">
<path d="M34.7524 45L36.4883 48.9419L38.1802 45H39.4238L36.7124 51.2183H36.2993L33.5 45H34.7524Z" fill="#FBDFC3"/>
<path d="M42.0774 45V51.1392H40.8909V45H42.0774Z" fill="#FBDFC3"/>
<path d="M46.5504 45C47.1246 45 47.5904 45.167 47.9478 45.501C48.3082 45.832 48.4883 46.2598 48.4883 46.7842C48.4883 47.3145 48.3067 47.7437 47.9434 48.0718C47.5801 48.3999 47.1011 48.564 46.5064 48.564H45.3638V51.1392H44.1773V45H46.5504ZM46.2559 47.6367C46.5723 47.6367 46.8184 47.5649 46.9942 47.4214C47.1729 47.2749 47.2623 47.0596 47.2623 46.7754C47.2623 46.21 46.899 45.9272 46.1724 45.9272H45.3638V47.6367H46.2559Z" fill="#FBDFC3"/>
</g>
</g>
<defs>
<filter id="filter0_iii_828_9681" x="11.1539" y="7.51558" width="59.6922" height="57.8844" filterUnits="userSpaceOnUse" color-interpolation-filters="sRGB">
<feFlood flood-opacity="0" result="BackgroundImageFix"/>
<feBlend mode="normal" in="SourceGraphic" in2="BackgroundImageFix" result="shape"/>
<feColorMatrix in="SourceAlpha" type="matrix" values="0 0 0 0 0 0 0 0 0 0 0 0 0 0 0 0 0 0 127 0" result="hardAlpha"/>
<feOffset dx="-0.7" dy="-0.7"/>
<feGaussianBlur stdDeviation="0.5"/>
<feComposite in2="hardAlpha" operator="arithmetic" k2="-1" k3="1"/>
<feColorMatrix type="matrix" values="0 0 0 0 0.341667 0 0 0 0 0.200017 0 0 0 0 0.0583681 0 0 0 1 0"/>
<feBlend mode="normal" in2="shape" result="effect1_innerShadow_828_9681"/>
<feColorMatrix in="SourceAlpha" type="matrix" values="0 0 0 0 0 0 0 0 0 0 0 0 0 0 0 0 0 0 127 0" result="hardAlpha"/>
<feOffset dx="0.7" dy="0.4"/>
<feGaussianBlur stdDeviation="0.5"/>
<feComposite in2="hardAlpha" operator="arithmetic" k2="-1" k3="1"/>
<feColorMatrix type="matrix" values="0 0 0 0 0.9125 0 0 0 0 0.803568 0 0 0 0 0.691979 0 0 0 1 0"/>
<feBlend mode="normal" in2="effect1_innerShadow_828_9681" result="effect2_innerShadow_828_9681"/>
<feColorMatrix in="SourceAlpha" type="matrix" values="0 0 0 0 0 0 0 0 0 0 0 0 0 0 0 0 0 0 127 0" result="hardAlpha"/>
<feOffset dx="0.4" dy="0.2"/>
<feGaussianBlur stdDeviation="1"/>
<feComposite in2="hardAlpha" operator="arithmetic" k2="-1" k3="1"/>
<feColorMatrix type="matrix" values="0 0 0 0 0.858333 0 0 0 0 0.658702 0 0 0 0 0.454201 0 0 0 0.36 0"/>
<feBlend mode="normal" in2="effect2_innerShadow_828_9681" result="effect3_innerShadow_828_9681"/>
</filter>
<filter id="filter1_di_828_9681" x="18.4839" y="14.7753" width="45.3322" height="45.5247" filterUnits="userSpaceOnUse" color-interpolation-filters="sRGB">
<feFlood flood-opacity="0" result="BackgroundImageFix"/>
<feColorMatrix in="SourceAlpha" type="matrix" values="0 0 0 0 0 0 0 0 0 0 0 0 0 0 0 0 0 0 127 0" result="hardAlpha"/>
<feOffset dx="0.3" dy="0.3"/>
<feComposite in2="hardAlpha" operator="out"/>
<feColorMatrix type="matrix" values="0 0 0 0 0.720833 0 0 0 0 0.535378 0 0 0 0 0.345399 0 0 0 1 0"/>
<feBlend mode="normal" in2="BackgroundImageFix" result="effect1_dropShadow_828_9681"/>
<feBlend mode="normal" in="SourceGraphic" in2="effect1_dropShadow_828_9681" result="shape"/>
<feColorMatrix in="SourceAlpha" type="matrix" values="0 0 0 0 0 0 0 0 0 0 0 0 0 0 0 0 0 0 127 0" result="hardAlpha"/>
<feOffset dx="0.2" dy="0.2"/>
<feGaussianBlur stdDeviation="0.5"/>
<feComposite in2="hardAlpha" operator="arithmetic" k2="-1" k3="1"/>
<feColorMatrix type="matrix" values="0 0 0 0 0.179167 0 0 0 0 0.111245 0 0 0 0 0.041059 0 0 0 1 0"/>
<feBlend mode="normal" in2="shape" result="effect2_innerShadow_828_9681"/>
</filter>
<filter id="filter2_ii_828_9681" x="23.2227" y="19.5168" width="35.6547" height="35.7832" filterUnits="userSpaceOnUse" color-interpolation-filters="sRGB">
<feFlood flood-opacity="0" result="BackgroundImageFix"/>
<feBlend mode="normal" in="SourceGraphic" in2="BackgroundImageFix" result="shape"/>
<feColorMatrix in="SourceAlpha" type="matrix" values="0 0 0 0 0 0 0 0 0 0 0 0 0 0 0 0 0 0 127 0" result="hardAlpha"/>
<feOffset dx="0.7" dy="0.3"/>
<feGaussianBlur stdDeviation="0.2"/>
<feComposite in2="hardAlpha" operator="arithmetic" k2="-1" k3="1"/>
<feColorMatrix type="matrix" values="0 0 0 0 0.984314 0 0 0 0 0.87451 0 0 0 0 0.764706 0 0 0 1 0"/>
<feBlend mode="normal" in2="shape" result="effect1_innerShadow_828_9681"/>
<feColorMatrix in="SourceAlpha" type="matrix" values="0 0 0 0 0 0 0 0 0 0 0 0 0 0 0 0 0 0 127 0" result="hardAlpha"/>
<feOffset dx="-0.4" dy="-0.5"/>
<feGaussianBlur stdDeviation="0.25"/>
<feComposite in2="hardAlpha" operator="arithmetic" k2="-1" k3="1"/>
<feColorMatrix type="matrix" values="0 0 0 0 0.170833 0 0 0 0 0.0939583 0 0 0 0 0.0170833 0 0 0 1 0"/>
<feBlend mode="normal" in2="effect1_innerShadow_828_9681" result="effect2_innerShadow_828_9681"/>
</filter>
<filter id="filter3_dd_828_9681" x="32.3908" y="23.01" width="18.8184" height="23.3916" filterUnits="userSpaceOnUse" color-interpolation-filters="sRGB">
<feFlood flood-opacity="0" result="BackgroundImageFix"/>
<feColorMatrix in="SourceAlpha" type="matrix" values="0 0 0 0 0 0 0 0 0 0 0 0 0 0 0 0 0 0 127 0" result="hardAlpha"/>
<feOffset dx="0.8" dy="0.4"/>
<feGaussianBlur stdDeviation="2.5"/>
<feComposite in2="hardAlpha" operator="out"/>
<feColorMatrix type="matrix" values="0 0 0 0 0.32549 0 0 0 0 0.207843 0 0 0 0 0.0901961 0 0 0 0.6 0"/>
<feBlend mode="normal" in2="BackgroundImageFix" result="effect1_dropShadow_828_9681"/>
<feColorMatrix in="SourceAlpha" type="matrix" values="0 0 0 0 0 0 0 0 0 0 0 0 0 0 0 0 0 0 127 0" result="hardAlpha"/>
<feOffset dx="0.2" dy="0.2"/>
<feGaussianBlur stdDeviation="1"/>
<feComposite in2="hardAlpha" operator="out"/>
<feColorMatrix type="matrix" values="0 0 0 0 0.254902 0 0 0 0 0.137255 0 0 0 0 0.0196078 0 0 0 1 0"/>
<feBlend mode="normal" in2="effect1_dropShadow_828_9681" result="effect2_dropShadow_828_9681"/>
<feBlend mode="normal" in="SourceGraphic" in2="effect2_dropShadow_828_9681" result="shape"/>
</filter>
<filter id="filter4_dd_828_9681" x="29.3" y="40.4" width="24.9883" height="16.2183" filterUnits="userSpaceOnUse" color-interpolation-filters="sRGB">
<feFlood flood-opacity="0" result="BackgroundImageFix"/>
<feColorMatrix in="SourceAlpha" type="matrix" values="0 0 0 0 0 0 0 0 0 0 0 0 0 0 0 0 0 0 127 0" result="hardAlpha"/>
<feOffset dx="0.8" dy="0.4"/>
<feGaussianBlur stdDeviation="2.5"/>
<feComposite in2="hardAlpha" operator="out"/>
<feColorMatrix type="matrix" values="0 0 0 0 0.32549 0 0 0 0 0.207843 0 0 0 0 0.0901961 0 0 0 0.6 0"/>
<feBlend mode="normal" in2="BackgroundImageFix" result="effect1_dropShadow_828_9681"/>
<feColorMatrix in="SourceAlpha" type="matrix" values="0 0 0 0 0 0 0 0 0 0 0 0 0 0 0 0 0 0 127 0" result="hardAlpha"/>
<feOffset dx="0.2" dy="0.2"/>
<feGaussianBlur stdDeviation="1"/>
<feComposite in2="hardAlpha" operator="out"/>
<feColorMatrix type="matrix" values="0 0 0 0 0.254902 0 0 0 0 0.137255 0 0 0 0 0.0196078 0 0 0 1 0"/>
<feBlend mode="normal" in2="effect1_dropShadow_828_9681" result="effect2_dropShadow_828_9681"/>
<feBlend mode="normal" in="SourceGraphic" in2="effect2_dropShadow_828_9681" result="shape"/>
</filter>
<linearGradient id="paint0_linear_828_9681" x1="54.5" y1="17" x2="22" y2="65" gradientUnits="userSpaceOnUse">
<stop stop-color="#6F4F2F"/>
<stop offset="0.161458" stop-color="#C48547"/>
<stop offset="0.319947" stop-color="#F3C393"/>
<stop offset="0.651042" stop-color="#BA7735"/>
<stop offset="0.838542" stop-color="#825A32"/>
<stop offset="1" stop-color="#966C42"/>
</linearGradient>
<linearGradient id="paint1_linear_828_9681" x1="41.0575" y1="39.062" x2="41.0575" y2="54.9999" gradientUnits="userSpaceOnUse">
<stop stop-color="#51300F" stop-opacity="0.6"/>
<stop offset="0.804811" stop-color="#51300F"/>
</linearGradient>
<linearGradient id="paint2_linear_828_9681" x1="41.0527" y1="39.0623" x2="31.1708" y2="26.9749" gradientUnits="userSpaceOnUse">
<stop offset="0.635417" stop-color="#FBDFC3"/>
<stop offset="1" stop-color="#FBDFC3" stop-opacity="0.5"/>
</linearGradient>
<linearGradient id="paint3_linear_828_9681" x1="30.8404" y1="36.0056" x2="28.6035" y2="50.954" gradientUnits="userSpaceOnUse">
<stop offset="0.257119" stop-color="#DBAD7F"/>
<stop offset="0.766702" stop-color="#DBAD7F" stop-opacity="0"/>
</linearGradient>
<linearGradient id="paint4_linear_828_9681" x1="41.0535" y1="31.7265" x2="51.3488" y2="34.8155" gradientUnits="userSpaceOnUse">
<stop stop-color="#ECD0B4"/>
<stop offset="1" stop-color="#FBDFC3" stop-opacity="0"/>
</linearGradient>
<linearGradient id="paint5_linear_828_9681" x1="49.8077" y1="36.923" x2="51.4073" y2="53.721" gradientUnits="userSpaceOnUse">
<stop offset="0.617664" stop-color="#553718"/>
<stop offset="1" stop-color="#553718" stop-opacity="0.6"/>
</linearGradient>
</defs>
</svg>
