<svg width="24" height="24" viewBox="0 0 24 24" fill="none" xmlns="http://www.w3.org/2000/svg">
    <path d="M0 12C0 5.37258 5.37258 0 12 0C18.6274 0 24 5.37258 24 12C24 18.6274 18.6274 24 12 24C5.37258 24 0 18.6274 0 12Z"
          fill="white" fill-opacity="0.7"/>
    <path d="M18.1023 5.89777L16.7047 7.29562C15.4953 6.08594 13.829 5.33325 12.0015 5.33325C8.42697 5.33325 5.49751 8.15583 5.33625 11.6773C5.30938 11.8655 5.47063 11.9999 5.65876 11.9999H6.41129C6.57254 11.9999 6.70692 11.8924 6.7338 11.7042C6.89505 8.9354 9.17949 6.7311 12.0015 6.7311C13.4527 6.7311 14.7697 7.3225 15.7103 8.29024L14.259 9.74185C14.044 9.95691 14.2053 10.2795 14.474 10.2795H18.3441C18.5054 10.2795 18.6666 10.1451 18.6666 9.95691V6.11282C18.6666 5.844 18.3173 5.68271 18.1023 5.89777ZM18.3173 11.9999H17.5647C17.4035 11.9999 17.2691 12.1343 17.2422 12.3225C17.081 15.0913 14.7965 17.2687 12.0015 17.2687C10.5233 17.2687 9.20637 16.7042 8.26572 15.7365L9.71701 14.2849C9.93201 14.0698 9.77076 13.7203 9.502 13.7203H5.65876C5.47063 13.7203 5.33625 13.8816 5.33625 14.0429V17.9139C5.33625 18.1827 5.65876 18.344 5.87377 18.129L7.27131 16.7311C8.48072 17.9408 10.147 18.6666 12.0015 18.6666C15.5491 18.6666 18.4785 15.8709 18.6398 12.3494C18.6666 12.1612 18.5054 11.9999 18.3173 11.9999Z"
          fill="#071F44"/>
</svg>
