<svg width="24" height="24" viewBox="0 0 24 24" fill="none" xmlns="http://www.w3.org/2000/svg">
<circle cx="12" cy="12" r="12" fill="#F0453A"/>
<path d="M12.1679 6.08C11.0129 6.08 10.0829 6.47 9.37793 7.25C8.68793 7.985 8.34293 8.945 8.32793 10.145H10.0829C10.1129 9.305 10.2929 8.66 10.6229 8.24C10.9529 7.79 11.4479 7.565 12.1079 7.565C12.7229 7.565 13.1879 7.7 13.5029 7.985C13.8029 8.27 13.9679 8.705 13.9679 9.29C13.9679 9.89 13.7279 10.46 13.2629 10.985C12.9629 11.3 12.4829 11.705 11.7929 12.185C10.5479 13.04 9.72293 13.7 9.33293 14.15C8.61293 14.96 8.26793 15.905 8.26793 17H15.7379V15.455H10.4579C10.6979 14.915 11.3579 14.285 12.4529 13.565C13.5029 12.86 14.2529 12.29 14.6729 11.84C15.3629 11.075 15.7229 10.235 15.7229 9.305C15.7229 8.345 15.3929 7.58 14.7329 6.98C14.0579 6.38 13.2029 6.08 12.1679 6.08Z" fill="white"/>
</svg>
