<svg width="20" height="21" viewBox="0 0 20 21" fill="none" xmlns="http://www.w3.org/2000/svg">
    <path d="M16.2188 6.66675L14.7188 5.198C14.4375 4.91675 13.875 4.66675 13.5 4.66675H6.40625C5.9375 4.66675 5.5 4.85425 5.15625 5.198L3.6875 6.66675H0V14.6667H2C2.53125 14.6667 2.96875 14.2292 2.96875 13.6667H3.28125L5.90625 16.073C6.875 16.8542 8.21875 16.8542 9.21875 16.198C9.59375 16.5105 10.0312 16.6667 10.5 16.6667C11.0625 16.6667 11.5938 16.448 12.0312 15.9167C12.7188 16.198 13.5312 16.0105 14.0312 15.4167L14.8438 14.3855C15 14.1667 15.125 13.948 15.1875 13.6667H17C17 14.2292 17.4375 14.6667 18 14.6667H20V6.66675H16.2188ZM1.5 13.6667C1.21875 13.6667 1 13.448 1 13.1667C1 12.8855 1.21875 12.6667 1.5 12.6667C1.75 12.6667 2 12.8855 2 13.1667C2 13.448 1.75 13.6667 1.5 13.6667ZM13.6875 13.448L12.8438 14.448C12.7812 14.573 12.625 14.573 12.5 14.5105L11.75 13.8855L10.8125 15.0417C10.625 15.2605 10.3438 15.1667 10.25 15.1042L9.09375 14.1355L8.625 14.7292C8.1875 15.2605 7.40625 15.323 6.90625 14.9167L3.84375 12.1667H3V8.16675H4.28125L6.21875 6.2605C6.28125 6.22925 6.34375 6.198 6.40625 6.16675H8.1875L6.96875 7.29175C6.03125 8.1355 6 9.54175 6.8125 10.448C7.28125 10.948 8.75 11.7292 10 10.6042L10.25 10.3542L13.625 13.1042C13.75 13.198 13.75 13.3542 13.6875 13.448ZM17 12.1667H14.8125C14.75 12.1042 14.6562 12.0105 14.5938 11.948L11.375 9.323L11.75 8.97925C11.9688 8.79175 11.9688 8.47925 11.7812 8.2605L11.4688 7.91675C11.2812 7.698 10.9375 7.698 10.75 7.8855L9.03125 9.448C8.71875 9.72925 8.21875 9.7605 7.9375 9.448C7.65625 9.1355 7.6875 8.66675 7.96875 8.3855L10.0312 6.5105C10.25 6.29175 10.5625 6.198 10.875 6.198L13.5 6.16675C13.5625 6.16675 13.625 6.198 13.6562 6.2605L15.5938 8.16675H17V12.1667ZM18.5 13.6667C18.2188 13.6667 18 13.448 18 13.1667C18 12.8855 18.2188 12.6667 18.5 12.6667C18.75 12.6667 19 12.8855 19 13.1667C19 13.448 18.75 13.6667 18.5 13.6667Z"
          fill="#3A87FC"/>
</svg>
