<svg width="24" height="24" viewBox="0 0 24 24" fill="none" xmlns="http://www.w3.org/2000/svg">
<path d="M13.8857 18.8686H14.9143C15.1715 18.8686 15.4286 18.6543 15.4286 18.3543V9.09718C15.4286 8.84004 15.1715 8.5829 14.9143 8.5829H13.8857C13.5857 8.5829 13.3715 8.84004 13.3715 9.09718V18.3543C13.3715 18.6543 13.5857 18.8686 13.8857 18.8686ZM20.9143 4.46861H17.3572L15.9 2.06861C15.5572 1.51147 14.7857 1.04004 14.1429 1.04004H9.81431C9.17145 1.04004 8.40002 1.51147 8.05717 2.06861L6.60002 4.46861H3.08574C2.70002 4.46861 2.40002 4.81147 2.40002 5.15432V5.84004C2.40002 6.22575 2.70002 6.52575 3.08574 6.52575H3.77145V20.9258C3.77145 22.0829 4.67145 22.9829 5.8286 22.9829H18.1715C19.2857 22.9829 20.2286 22.0829 20.2286 20.9258V6.52575H20.9143C21.2572 6.52575 21.6 6.22575 21.6 5.84004V5.15432C21.6 4.81147 21.2572 4.46861 20.9143 4.46861ZM9.7286 3.22575C9.77145 3.1829 9.90002 3.09718 9.94288 3.09718H9.98574H14.0143C14.0572 3.09718 14.1857 3.1829 14.2286 3.22575L14.9572 4.46861H9.00002L9.7286 3.22575ZM18.1715 20.9258H5.8286V6.52575H18.1715V20.9258ZM9.08574 18.8686H10.1143C10.3715 18.8686 10.6286 18.6543 10.6286 18.3543V9.09718C10.6286 8.84004 10.3715 8.5829 10.1143 8.5829H9.08574C8.78574 8.5829 8.57145 8.84004 8.57145 9.09718V18.3543C8.57145 18.6543 8.78574 18.8686 9.08574 18.8686Z" fill="#071F44" fill-opacity="0.6"/>
</svg>
