<svg width="30" height="30" viewBox="0 0 30 30" fill="none" xmlns="http://www.w3.org/2000/svg">
<circle cx="15" cy="15" r="8.4375" fill="black" fill-opacity="0.8"/>
<path d="M11.9666 18.3774H13.2786V11.5044H12.2141C12.0646 11.9215 11.7892 12.2873 11.3876 12.6017C10.9861 12.9129 10.6141 13.1246 10.2717 13.2367V14.4273C10.9222 14.2125 11.4872 13.881 11.9666 13.4328V18.3774Z" fill="#FFDD99"/>
<path d="M11.9666 18.3774H13.2786V11.5044H12.2141C12.0646 11.9215 11.7892 12.2873 11.3876 12.6017C10.9861 12.9129 10.6141 13.1246 10.2717 13.2367V14.4273C10.9222 14.2125 11.4872 13.881 11.9666 13.4328V18.3774Z" fill="url(#paint0_linear_1149_2087)"/>
<path fill-rule="evenodd" clip-rule="evenodd" d="M15.6272 14.0958C15.7829 14.3448 16.0303 14.5409 16.3696 14.6841C15.9743 14.8522 15.6848 15.0919 15.5012 15.4032C15.3175 15.7113 15.2257 16.0506 15.2257 16.4211C15.2257 17.0934 15.47 17.6226 15.9587 18.0086C16.3727 18.3354 16.891 18.4988 17.5136 18.4988C18.1828 18.4988 18.7182 18.3012 19.1198 17.9059C19.5244 17.5105 19.7268 16.9969 19.7268 16.365C19.7268 15.9821 19.6272 15.6444 19.4279 15.3518C19.2318 15.0592 18.9439 14.8366 18.5641 14.6841C18.863 14.5534 19.0949 14.3651 19.2599 14.1191C19.4248 13.8701 19.5073 13.5869 19.5073 13.2693C19.5073 12.7589 19.3268 12.3371 18.9657 12.004C18.6077 11.6709 18.1035 11.5044 17.4529 11.5044C16.7961 11.5044 16.2887 11.6709 15.9307 12.004C15.5759 12.3371 15.3984 12.7589 15.3984 13.2693C15.3984 13.5682 15.4747 13.8437 15.6272 14.0958ZM16.8599 13.9744C16.7136 13.8281 16.6404 13.6242 16.6404 13.3627C16.6404 13.1168 16.7151 12.9192 16.8646 12.7697C17.014 12.6203 17.2148 12.5456 17.4669 12.5456C17.7097 12.5456 17.9042 12.6203 18.0505 12.7697C18.2 12.916 18.2747 13.1122 18.2747 13.3581C18.2747 13.6195 18.2 13.825 18.0505 13.9744C17.9011 14.1207 17.7019 14.1938 17.4529 14.1938C17.207 14.1938 17.0093 14.1207 16.8599 13.9744ZM16.7945 17.1401C16.6109 16.9378 16.519 16.6561 16.519 16.295C16.519 16.0366 16.5969 15.7969 16.7525 15.5759C16.9113 15.3549 17.1509 15.2444 17.4716 15.2444C17.7486 15.2444 17.9774 15.3425 18.1579 15.5386C18.3385 15.7316 18.4287 15.9884 18.4287 16.309C18.4287 16.6763 18.34 16.958 18.1626 17.1541C17.9852 17.3471 17.761 17.4436 17.4902 17.4436C17.2132 17.4436 16.9813 17.3424 16.7945 17.1401Z" fill="#FFDD99"/>
<path fill-rule="evenodd" clip-rule="evenodd" d="M15.6272 14.0958C15.7829 14.3448 16.0303 14.5409 16.3696 14.6841C15.9743 14.8522 15.6848 15.0919 15.5012 15.4032C15.3175 15.7113 15.2257 16.0506 15.2257 16.4211C15.2257 17.0934 15.47 17.6226 15.9587 18.0086C16.3727 18.3354 16.891 18.4988 17.5136 18.4988C18.1828 18.4988 18.7182 18.3012 19.1198 17.9059C19.5244 17.5105 19.7268 16.9969 19.7268 16.365C19.7268 15.9821 19.6272 15.6444 19.4279 15.3518C19.2318 15.0592 18.9439 14.8366 18.5641 14.6841C18.863 14.5534 19.0949 14.3651 19.2599 14.1191C19.4248 13.8701 19.5073 13.5869 19.5073 13.2693C19.5073 12.7589 19.3268 12.3371 18.9657 12.004C18.6077 11.6709 18.1035 11.5044 17.4529 11.5044C16.7961 11.5044 16.2887 11.6709 15.9307 12.004C15.5759 12.3371 15.3984 12.7589 15.3984 13.2693C15.3984 13.5682 15.4747 13.8437 15.6272 14.0958ZM16.8599 13.9744C16.7136 13.8281 16.6404 13.6242 16.6404 13.3627C16.6404 13.1168 16.7151 12.9192 16.8646 12.7697C17.014 12.6203 17.2148 12.5456 17.4669 12.5456C17.7097 12.5456 17.9042 12.6203 18.0505 12.7697C18.2 12.916 18.2747 13.1122 18.2747 13.3581C18.2747 13.6195 18.2 13.825 18.0505 13.9744C17.9011 14.1207 17.7019 14.1938 17.4529 14.1938C17.207 14.1938 17.0093 14.1207 16.8599 13.9744ZM16.7945 17.1401C16.6109 16.9378 16.519 16.6561 16.519 16.295C16.519 16.0366 16.5969 15.7969 16.7525 15.5759C16.9113 15.3549 17.1509 15.2444 17.4716 15.2444C17.7486 15.2444 17.9774 15.3425 18.1579 15.5386C18.3385 15.7316 18.4287 15.9884 18.4287 16.309C18.4287 16.6763 18.34 16.958 18.1626 17.1541C17.9852 17.3471 17.761 17.4436 17.4902 17.4436C17.2132 17.4436 16.9813 17.3424 16.7945 17.1401Z" fill="url(#paint1_linear_1149_2087)"/>
<path fill-rule="evenodd" clip-rule="evenodd" d="M15 27.7501C22.0416 27.7501 27.75 22.0417 27.75 15.0001C27.75 7.95843 22.0416 2.25006 15 2.25006C7.95837 2.25006 2.25 7.95843 2.25 15.0001C2.25 22.0417 7.95837 27.7501 15 27.7501ZM22.4375 15.0001C22.4375 19.1077 19.1076 22.4376 15 22.4376C10.8924 22.4376 7.5625 19.1077 7.5625 15.0001C7.5625 10.8924 10.8924 7.56256 15 7.56256C19.1076 7.56256 22.4375 10.8924 22.4375 15.0001Z" fill="#FFDD99"/>
<path fill-rule="evenodd" clip-rule="evenodd" d="M15 27.7501C22.0416 27.7501 27.75 22.0417 27.75 15.0001C27.75 7.95843 22.0416 2.25006 15 2.25006C7.95837 2.25006 2.25 7.95843 2.25 15.0001C2.25 22.0417 7.95837 27.7501 15 27.7501ZM22.4375 15.0001C22.4375 19.1077 19.1076 22.4376 15 22.4376C10.8924 22.4376 7.5625 19.1077 7.5625 15.0001C7.5625 10.8924 10.8924 7.56256 15 7.56256C19.1076 7.56256 22.4375 10.8924 22.4375 15.0001Z" fill="url(#paint2_linear_1149_2087)"/>
<defs>
<linearGradient id="paint0_linear_1149_2087" x1="15" y1="2.25007" x2="15" y2="27.7501" gradientUnits="userSpaceOnUse">
<stop stop-color="#C8A674"/>
<stop offset="1" stop-color="#EBC994"/>
</linearGradient>
<linearGradient id="paint1_linear_1149_2087" x1="15" y1="2.25007" x2="15" y2="27.7501" gradientUnits="userSpaceOnUse">
<stop stop-color="#C8A674"/>
<stop offset="1" stop-color="#EBC994"/>
</linearGradient>
<linearGradient id="paint2_linear_1149_2087" x1="15" y1="2.25007" x2="15" y2="27.7501" gradientUnits="userSpaceOnUse">
<stop stop-color="#C8A674"/>
<stop offset="1" stop-color="#EBC994"/>
</linearGradient>
</defs>
</svg>
