<svg width="20" height="21" viewBox="0 0 20 21" fill="none" xmlns="http://www.w3.org/2000/svg">
    <path d="M10 1.33337C4.93617 1.33337 0.833344 5.47316 0.833344 10.5C0.833344 15.5639 4.93617 19.6667 10 19.6667C15.0269 19.6667 19.1667 15.5639 19.1667 10.5C19.1667 5.47316 15.0269 1.33337 10 1.33337ZM10 17.8925C5.89719 17.8925 2.60754 14.6029 2.60754 10.5C2.60754 6.43418 5.89719 3.10757 10 3.10757C14.0659 3.10757 17.3925 6.43418 17.3925 10.5C17.3925 14.6029 14.0659 17.8925 10 17.8925ZM10 5.39923C9.11291 5.39923 8.44759 6.10152 8.44759 6.95165C8.44759 7.83875 9.11291 8.50407 10 8.50407C10.8501 8.50407 11.5524 7.83875 11.5524 6.95165C11.5524 6.10152 10.8501 5.39923 10 5.39923ZM12.0699 14.7877V13.9006C12.0699 13.6788 11.8481 13.457 11.6264 13.457H11.1828V9.76079C11.1828 9.53902 10.961 9.31724 10.7393 9.31724H8.37367C8.11493 9.31724 7.93012 9.53902 7.93012 9.76079V10.6479C7.93012 10.9066 8.11493 11.0914 8.37367 11.0914H8.81721V13.457H8.37367C8.11493 13.457 7.93012 13.6788 7.93012 13.9006V14.7877C7.93012 15.0464 8.11493 15.2312 8.37367 15.2312H11.6264C11.8481 15.2312 12.0699 15.0464 12.0699 14.7877Z"
          fill="#3A87FC"/>
</svg>
