<svg width="32" height="32" viewBox="0 0 32 32" fill="none" xmlns="http://www.w3.org/2000/svg">
    <path d="M0 16C0 7.16344 7.16344 0 16 0C24.8366 0 32 7.16344 32 16C32 24.8366 24.8366 32 16 32C7.16344 32 0 24.8366 0 16Z"
          fill="#071F44" fill-opacity="0.4"/>
    <path d="M17.8873 15.9718L23.6901 10.2254L24.8732 9.04225C25.0423 8.87324 25.0423 8.59155 24.8732 8.3662L23.6338 7.12676C23.4085 6.95775 23.1268 6.95775 22.9577 7.12676L16.0282 14.1127L9.04225 7.12676C8.87324 6.95775 8.59155 6.95775 8.3662 7.12676L7.12676 8.3662C6.95775 8.59155 6.95775 8.87324 7.12676 9.04225L14.1127 15.9718L7.12676 22.9577C6.95775 23.1268 6.95775 23.4085 7.12676 23.6338L8.3662 24.8732C8.59155 25.0423 8.87324 25.0423 9.04225 24.8732L16.0282 17.8873L21.7746 23.6901L22.9577 24.8732C23.1268 25.0423 23.4085 25.0423 23.6338 24.8732L24.8732 23.6338C25.0423 23.4085 25.0423 23.1268 24.8732 22.9577L17.8873 15.9718Z"
          fill="white"/>
</svg>
