<svg width="16" height="16" viewBox="0 0 16 16" fill="none" xmlns="http://www.w3.org/2000/svg">
    <path d="M15.3334 7.99999C15.3334 3.97848 12.0216 0.666656 8.00008 0.666656C3.94901 0.666656 0.666748 3.97848 0.666748 7.99999C0.666748 12.0511 3.94901 15.3333 8.00008 15.3333C12.0216 15.3333 15.3334 12.0511 15.3334 7.99999ZM7.14255 11.9032C6.96514 12.0806 6.63987 12.0806 6.46245 11.9032L3.38718 8.82795C3.20976 8.65053 3.20976 8.32526 3.38718 8.14784L4.06729 7.4973C4.24471 7.29031 4.5404 7.29031 4.71782 7.4973L6.81729 9.56719L11.2528 5.13171C11.4302 4.92472 11.7259 4.92472 11.9033 5.13171L12.5834 5.78225C12.7608 5.95967 12.7608 6.28494 12.5834 6.46236L7.14255 11.9032Z"
          fill="#39A037"/>
</svg>
