<svg width="20" height="21" viewBox="0 0 20 21" fill="none" xmlns="http://www.w3.org/2000/svg">
    <path d="M10 1.33325C4.93617 1.33325 0.833344 5.47304 0.833344 10.4999C0.833344 15.5638 4.93617 19.6666 10 19.6666C15.0269 19.6666 19.1667 15.5638 19.1667 10.4999C19.1667 5.47304 15.0269 1.33325 10 1.33325ZM10 17.8924C5.89719 17.8924 2.60754 14.6027 2.60754 10.4999C2.60754 6.43406 5.89719 3.10745 10 3.10745C14.0659 3.10745 17.3925 6.43406 17.3925 10.4999C17.3925 14.6027 14.0659 17.8924 10 17.8924ZM13.955 8.46699C13.955 6.61887 11.996 5.17734 10.1848 5.17734C8.44759 5.17734 7.33872 5.91658 6.48858 7.21027C6.34074 7.39508 6.3777 7.65382 6.56251 7.80167L7.59746 8.57787C7.78227 8.72572 8.07797 8.68876 8.22582 8.50395C8.78025 7.80167 9.18684 7.39508 10.037 7.39508C10.7023 7.39508 11.5155 7.80167 11.5155 8.46699C11.5155 8.9475 11.1089 9.16927 10.4436 9.5389C9.70431 9.98244 8.70633 10.4999 8.70633 11.8306V12.1263C8.70633 12.385 8.89114 12.5698 9.14987 12.5698H10.8132C11.0719 12.5698 11.2567 12.385 11.2567 12.1263V11.9045C11.2567 10.9804 13.955 10.9435 13.955 8.46699ZM11.5524 14.6397C11.5524 13.7896 10.8501 13.0873 10 13.0873C9.11291 13.0873 8.44759 13.7896 8.44759 14.6397C8.44759 15.5268 9.11291 16.1921 10 16.1921C10.8501 16.1921 11.5524 15.5268 11.5524 14.6397Z"
          fill="#3A87FC"/>
</svg>
