<svg width="20" height="21" viewBox="0 0 20 21" fill="none" xmlns="http://www.w3.org/2000/svg">
    <path d="M15 13C13.9844 13 13.0859 13.3906 12.3828 14.0547L8.55469 11.6328C8.78906 10.9297 8.78906 10.1094 8.55469 9.40625L12.3828 6.98438C13.0859 7.60938 13.9844 8 15 8C17.0703 8 18.75 6.32031 18.75 4.25C18.75 2.17969 17.0703 0.5 15 0.5C12.9297 0.5 11.25 2.17969 11.25 4.25C11.25 4.64062 11.2891 5.03125 11.4062 5.38281L7.57812 7.80469C6.875 7.14062 5.97656 6.75 5 6.75C2.92969 6.75 1.25 8.42969 1.25 10.5C1.25 12.5703 2.92969 14.25 5 14.25C5.97656 14.25 6.875 13.8594 7.57812 13.2344L11.4062 15.6562C11.2891 16.0078 11.25 16.3984 11.25 16.75C11.25 18.8203 12.9297 20.5 15 20.5C17.0703 20.5 18.75 18.8203 18.75 16.75C18.75 14.6797 17.0703 13 15 13ZM15 2.375C16.0156 2.375 16.875 3.23438 16.875 4.25C16.875 5.30469 16.0156 6.125 15 6.125C13.9453 6.125 13.125 5.30469 13.125 4.25C13.125 3.23438 13.9453 2.375 15 2.375ZM5 12.375C3.94531 12.375 3.125 11.5547 3.125 10.5C3.125 9.48438 3.94531 8.625 5 8.625C6.01562 8.625 6.875 9.48438 6.875 10.5C6.875 11.5547 6.01562 12.375 5 12.375ZM15 18.625C13.9453 18.625 13.125 17.8047 13.125 16.75C13.125 15.7344 13.9453 14.875 15 14.875C16.0156 14.875 16.875 15.7344 16.875 16.75C16.875 17.8047 16.0156 18.625 15 18.625Z"
          fill="#3A87FC"/>
</svg>
