<svg width="16" height="16" viewBox="0 0 16 16" fill="none" xmlns="http://www.w3.org/2000/svg">
    <path d="M15.8502 13.3751L0.923557 1.7001C0.848674 1.6501 0.74883 1.6001 0.673947 1.6001C0.549142 1.6001 0.424337 1.6751 0.349454 1.7501L0.099844 2.0751C0.049922 2.1251 0 2.2501 0 2.3251C0 2.4251 0.074883 2.5751 0.174727 2.6251L15.1014 14.3251C15.1513 14.3751 15.2512 14.4001 15.351 14.4001C15.4509 14.4001 15.5757 14.3501 15.6505 14.2501L15.9002 13.9501C15.9501 13.9001 16 13.7751 16 13.7001C16 13.6001 15.9251 13.4501 15.8502 13.3751ZM7.41342 5.2751L10.7832 7.9001C10.7332 6.4001 9.51014 5.2001 8.01248 5.2001C7.83775 5.2251 7.58814 5.2501 7.41342 5.2751ZM8.58658 10.7501L5.21685 8.1251C5.26677 9.6251 6.48986 10.8001 8.01248 10.8001C8.16225 10.8001 8.41186 10.7751 8.58658 10.7501ZM8.01248 4.4001C10.4587 4.4001 12.7301 5.7751 13.9282 8.0001C13.6786 8.4751 13.2044 9.1501 12.83 9.5251L13.7785 10.2501C14.2278 9.7751 14.8019 8.9501 15.1014 8.3751C15.1513 8.2751 15.2012 8.1251 15.2012 8.0001C15.2012 7.9001 15.1513 7.7501 15.1014 7.6501C13.7535 5.0001 11.0577 3.2001 8.01248 3.2001C7.08892 3.2001 6.21529 3.3751 5.39158 3.6751L6.53978 4.6001C7.01404 4.4751 7.51326 4.4001 8.01248 4.4001ZM8.01248 11.6001C5.54134 11.6001 3.26989 10.2251 2.07176 8.0001C2.32137 7.5501 2.79563 6.8751 3.17005 6.5001L2.22153 5.7751C1.77223 6.2501 1.19813 7.0751 0.898596 7.6501C0.848674 7.7501 0.823713 7.9001 0.823713 8.0251C0.823713 8.1251 0.848674 8.2751 0.898596 8.3751C2.24649 11.0251 4.94228 12.8001 8.01248 12.8001C8.91108 12.8001 9.78471 12.6251 10.6084 12.3501L9.46022 11.4251C8.98596 11.5501 8.48674 11.6001 8.01248 11.6001Z"
          fill="#071F44"/>
</svg>
