<svg width="252" height="252" viewBox="0 0 252 252" fill="none" xmlns="http://www.w3.org/2000/svg">
<path fill-rule="evenodd" clip-rule="evenodd" d="M135.886 0.388416C129.305 -0.129472 122.695 -0.129472 116.114 0.388416L126 126L96.5859 3.48138C90.1676 5.02229 83.8802 7.06517 77.7819 9.59116L126 126L60.1652 18.5673C54.5372 22.0162 49.1888 25.902 44.1696 30.1888L126 126L30.1889 44.1695C25.902 49.1888 22.0162 54.5371 18.5673 60.1652L126 126L9.59118 77.7819C7.06519 83.8802 5.0223 90.1675 3.48139 96.5859L126 126L0.388417 116.114C-0.129472 122.695 -0.129472 129.305 0.388415 135.886L126 126L3.48139 155.414C5.0223 161.832 7.06519 168.12 9.59118 174.218L126 126L18.5673 191.835C22.0162 197.463 25.902 202.811 30.1888 207.83L126 126L44.1695 221.811C49.1888 226.098 54.5371 229.984 60.1652 233.433L126 126L77.7819 242.409C83.8802 244.935 90.1675 246.978 96.5859 248.519L126 126L116.114 251.612C122.695 252.129 129.305 252.129 135.886 251.612L126 126L155.414 248.519C161.832 246.978 168.12 244.935 174.218 242.409L126 126L191.835 233.433C197.463 229.984 202.811 226.098 207.83 221.811L126 126L221.811 207.83C226.098 202.811 229.984 197.463 233.433 191.835L126 126L242.409 174.218C244.935 168.12 246.978 161.832 248.519 155.414L126 126L251.612 135.886C252.129 129.305 252.129 122.695 251.612 116.114L126 126L248.519 96.5859C246.978 90.1675 244.935 83.8802 242.409 77.7819L126 126L233.433 60.1652C229.984 54.5372 226.098 49.1888 221.811 44.1696L126 126L207.83 30.1889C202.811 25.902 197.463 22.0162 191.835 18.5674L126 126L174.218 9.59119C168.12 7.06519 161.832 5.02231 155.414 3.48139L126 126L135.886 0.388416Z" fill="url(#paint0_radial_1205_2901)"/>
<path d="M116.115 0.38916C109.535 0.907047 103.005 1.94122 96.5868 3.48213L126.001 126.001L77.7828 9.5919C71.6845 12.1179 65.7942 15.1192 60.1661 18.5681L126.001 126.001L44.1704 30.1896C39.1512 34.4764 34.4766 39.151 30.1897 44.1703L126.001 126.001L18.5682 60.1659C15.1193 65.794 12.118 71.6843 9.59205 77.7826L126.001 126.001L3.48226 96.5866C1.94135 103.005 0.90717 109.535 0.389283 116.115L126.001 126.001L0.389282 135.887C0.90717 142.467 1.94134 148.996 3.48226 155.415L126.001 126.001L9.59205 174.219C12.118 180.317 15.1193 186.208 18.5682 191.836L126.001 126.001L30.1897 207.831C34.4765 212.85 39.1512 217.525 44.1704 221.812L126.001 126.001L60.1661 233.433C65.7941 236.882 71.6845 239.884 77.7828 242.41L126.001 126.001L96.5868 248.519C103.005 250.06 109.535 251.094 116.115 251.612L126.001 126.001L135.887 251.612C142.467 251.094 148.997 250.06 155.415 248.519L126.001 126.001L174.219 242.41C180.317 239.884 186.208 236.882 191.836 233.433L126.001 126.001L207.831 221.812C212.851 217.525 217.525 212.85 221.812 207.831L126.001 126.001L233.434 191.836C236.882 186.208 239.884 180.317 242.41 174.219L126.001 126.001L248.519 155.415C250.06 148.997 251.095 142.467 251.612 135.887L126.001 126.001L251.612 116.115C251.095 109.535 250.06 103.005 248.52 96.5866L126.001 126.001L242.41 77.7826C239.884 71.6844 236.882 65.794 233.434 60.1659L126.001 126.001L221.812 44.1703C217.525 39.1511 212.851 34.4765 207.831 30.1896L126.001 126.001L191.836 18.5681C186.208 15.1192 180.317 12.1179 174.219 9.59193L126.001 126.001L155.415 3.48214C148.997 1.94123 142.467 0.907049 135.887 0.389161L126.001 126.001L116.115 0.38916Z" fill="url(#paint1_radial_1205_2901)"/>
<defs>
<radialGradient id="paint0_radial_1205_2901" cx="0" cy="0" r="1" gradientUnits="userSpaceOnUse" gradientTransform="translate(126 126) rotate(90) scale(126)">
<stop stop-color="#FFA756" stop-opacity="0.8"/>
<stop offset="0.963542" stop-color="#FFA756" stop-opacity="0"/>
</radialGradient>
<radialGradient id="paint1_radial_1205_2901" cx="0" cy="0" r="1" gradientUnits="userSpaceOnUse" gradientTransform="translate(126.001 126.001) rotate(81) scale(126)">
<stop stop-color="#FFE793" stop-opacity="0.8"/>
<stop offset="1" stop-color="#FFE793" stop-opacity="0"/>
</radialGradient>
</defs>
</svg>
