<svg width="17" height="17" viewBox="0 0 17 17" fill="none" xmlns="http://www.w3.org/2000/svg">
<path opacity="0.4" d="M12.875 10.0148C14.4418 9.71133 15.5 9.14805 15.5 8.5V7.33242C14.8656 7.78086 13.9332 8.08711 12.875 8.27578V10.0148ZM12.7465 7.41445C14.3871 7.11914 15.5 6.53945 15.5 5.875V4.70742C14.5293 5.39375 12.8613 5.76289 11.1059 5.85039C11.9125 6.24141 12.5059 6.76641 12.7465 7.41445ZM15.5 3.25C15.5 2.28477 13.1484 1.5 10.25 1.5C7.35156 1.5 5 2.28477 5 3.25C5 4.21523 7.35156 5 10.25 5C13.1484 5 15.5 4.21523 15.5 3.25Z" fill="url(#paint0_linear_1113_6916)"/>
<path d="M6.75 10.25C9.64844 10.25 12 9.27109 12 8.0625C12 6.85391 9.64844 5.875 6.75 5.875C3.85156 5.875 1.5 6.85391 1.5 8.0625C1.5 9.27109 3.85156 10.25 6.75 10.25ZM1.5 12.5824V13.75C1.5 14.7152 3.85156 15.5 6.75 15.5C9.64844 15.5 12 14.7152 12 13.75V12.5824C10.8707 13.3781 8.80625 13.75 6.75 13.75C4.69375 13.75 2.6293 13.3781 1.5 12.5824ZM1.5 9.71406V11.125C1.5 12.0902 3.85156 12.875 6.75 12.875C9.64844 12.875 12 12.0902 12 11.125V9.71406C10.8707 10.6437 8.80352 11.125 6.75 11.125C4.69648 11.125 2.6293 10.6437 1.5 9.71406Z" fill="url(#paint1_linear_1113_6916)"/>
<defs>
<linearGradient id="paint0_linear_1113_6916" x1="10.25" y1="1.5" x2="10.25" y2="10.0148" gradientUnits="userSpaceOnUse">
<stop stop-color="#462E12"/>
<stop offset="1" stop-color="#8E6C12"/>
</linearGradient>
<linearGradient id="paint1_linear_1113_6916" x1="6.75" y1="5.875" x2="6.75" y2="15.5" gradientUnits="userSpaceOnUse">
<stop stop-color="#462E12"/>
<stop offset="1" stop-color="#8E6C12"/>
</linearGradient>
</defs>
</svg>
