<svg width="32" height="32" viewBox="0 0 32 32" fill="none" xmlns="http://www.w3.org/2000/svg">
<g opacity="0.2">
<path d="M16 3.99999L4 13.4884H28L16 3.99999ZM16 8.18604C16.7706 8.18604 17.3953 8.81076 17.3953 9.58138C17.3953 10.352 16.7706 10.9767 16 10.9767C15.2294 10.9767 14.6046 10.352 14.6046 9.58138C14.6046 8.81076 15.2294 8.18604 16 8.18604ZM7.06977 14.0465V25.2093H9.30232V14.0465H7.06977ZM22.6977 14.0465V25.2093H24.9302V14.0465H22.6977ZM12.7035 14.8837C12.6595 14.8805 12.6192 14.8848 12.5814 14.8924C12.3794 14.9145 12.2012 15.0342 12.1279 15.2238C12.0546 15.4135 12.0893 15.647 12.2238 15.7994L14.7878 18.7907H13.4884C13.1802 18.7907 12.9302 19.0405 12.9302 19.3488C12.9302 19.6571 13.1802 19.907 13.4884 19.907H15.4419V21.0232H13.4884C13.1802 21.0232 12.9302 21.273 12.9302 21.5814C12.9302 21.8897 13.1802 22.1395 13.4884 22.1395H15.4419V23.8139C15.4377 24.1089 15.7052 24.3721 16 24.3721C16.2948 24.3721 16.5623 24.1089 16.5581 23.8139V22.1395H18.5116C18.8198 22.1395 19.0698 21.8897 19.0698 21.5814C19.0698 21.273 18.8198 21.0232 18.5116 21.0232H16.5581V19.907H18.5116C18.8198 19.907 19.0698 19.6571 19.0698 19.3488C19.0698 19.0405 18.8198 18.7907 18.5116 18.7907H17.2122L19.7761 15.7994C19.9802 15.5693 19.9385 15.1957 19.7151 15.0058C19.5019 14.8246 19.1109 14.8518 18.9215 15.0756L16 18.4854L13.0785 15.0756C12.983 14.9582 12.8353 14.8933 12.7035 14.8837ZM4 25.7674V28H28V25.7674H4Z" fill="#EA0000"/>
</g>
</svg>
