<svg width="16" height="16" viewBox="0 0 16 16" fill="none" xmlns="http://www.w3.org/2000/svg">
    <path d="M13.9584 2.66675H2.04175C1.26831 2.66675 0.666748 3.29696 0.666748 4.04175V12.2917C0.666748 13.0652 1.26831 13.6667 2.04175 13.6667H13.9584C14.7032 13.6667 15.3334 13.0652 15.3334 12.2917V4.04175C15.3334 3.29696 14.7032 2.66675 13.9584 2.66675ZM13.9584 4.04175V5.21623C13.2996 5.7605 12.2683 6.56258 10.0912 8.28133C9.60425 8.65373 8.65894 9.57039 8.00008 9.54175C7.31258 9.57039 6.36727 8.65373 5.88029 8.28133C3.70321 6.56258 2.67196 5.7605 2.04175 5.21623V4.04175H13.9584ZM2.04175 12.2917V6.99227C2.67196 7.50789 3.61727 8.25269 5.02091 9.36987C5.65112 9.85685 6.76831 10.9454 8.00008 10.9167C9.20321 10.9454 10.2917 9.85685 10.9506 9.36987C12.3542 8.25269 13.2996 7.50789 13.9584 6.99227V12.2917H2.04175Z"
          fill="black"/>
</svg>
