<svg width="24" height="24" viewBox="0 0 24 24" fill="none" xmlns="http://www.w3.org/2000/svg">
<path d="M20.8681 19.4642L16.6121 15.2165C16.5066 15.1463 16.4011 15.0761 16.2956 15.0761H15.8383C16.9287 13.8123 17.6321 12.1273 17.6321 10.3018C17.6321 6.29985 14.3258 3 10.3161 3C6.27113 3 3 6.29985 3 10.3018C3 14.3389 6.27113 17.6036 10.3161 17.6036C12.1451 17.6036 13.7982 16.9366 15.0997 15.8484V16.3047C15.0997 16.41 15.1348 16.5154 15.2052 16.6207L19.4612 20.8684C19.637 21.0439 19.9184 21.0439 20.0591 20.8684L20.8681 20.0609C21.044 19.9205 21.044 19.6397 20.8681 19.4642ZM10.3161 15.9186C7.18564 15.9186 4.68832 13.4261 4.68832 10.3018C4.68832 7.21258 7.18564 4.68503 10.3161 4.68503C13.4113 4.68503 15.9438 7.21258 15.9438 10.3018C15.9438 13.4261 13.4113 15.9186 10.3161 15.9186Z" fill="#071F44"/>
</svg>
