<svg width="20" height="20" viewBox="0 0 20 20" fill="none" xmlns="http://www.w3.org/2000/svg">
<path d="M10 0.833374C4.9362 0.833374 0.833374 4.97316 0.833374 10C0.833374 15.0639 4.9362 19.1667 10 19.1667C15.0269 19.1667 19.1667 15.0639 19.1667 10C19.1667 4.97316 15.0269 0.833374 10 0.833374ZM10 4.89923C10.8502 4.89923 11.5525 5.60152 11.5525 6.45165C11.5525 7.33875 10.8502 8.00407 10 8.00407C9.11294 8.00407 8.44762 7.33875 8.44762 6.45165C8.44762 5.60152 9.11294 4.89923 10 4.89923ZM12.0699 14.2877C12.0699 14.5464 11.8482 14.7312 11.6264 14.7312H8.3737C8.11496 14.7312 7.93015 14.5464 7.93015 14.2877V13.4006C7.93015 13.1788 8.11496 12.957 8.3737 12.957H8.81724V10.5914H8.3737C8.11496 10.5914 7.93015 10.4066 7.93015 10.1479V9.26079C7.93015 9.03902 8.11496 8.81724 8.3737 8.81724H10.7393C10.9611 8.81724 11.1828 9.03902 11.1828 9.26079V12.957H11.6264C11.8482 12.957 12.0699 13.1788 12.0699 13.4006V14.2877Z" fill="#071F44" fill-opacity="0.4"/>
</svg>
