<svg width="24" height="24" viewBox="0 0 24 24" fill="none" xmlns="http://www.w3.org/2000/svg">
<circle cx="12" cy="12" r="12" fill="#071F44" fill-opacity="0.05"/>
<path d="M17.3393 6.6607L16.1165 7.88382C15.0582 6.82535 13.6002 6.16675 12.0011 6.16675C8.87345 6.16675 6.31018 8.63651 6.16908 11.7178C6.14556 11.8825 6.28666 12.0001 6.45127 12.0001H7.10973C7.25083 12.0001 7.36841 11.906 7.39193 11.7413C7.53302 9.31863 9.53191 7.38987 12.0011 7.38987C13.271 7.38987 14.4233 7.90734 15.2464 8.75411L13.9765 10.0243C13.7884 10.2124 13.9295 10.4947 14.1646 10.4947H17.551C17.6921 10.4947 17.8332 10.3771 17.8332 10.2124V6.84887C17.8332 6.61366 17.5275 6.47253 17.3393 6.6607ZM17.5275 12.0001H16.869C16.7279 12.0001 16.6103 12.1177 16.5868 12.2823C16.4457 14.7051 14.4468 16.6103 12.0011 16.6103C10.7077 16.6103 9.55543 16.1163 8.73236 15.2696L10.0022 13.9994C10.1904 13.8112 10.0493 13.5055 9.81411 13.5055H6.45127C6.28666 13.5055 6.16908 13.6466 6.16908 13.7877V17.1748C6.16908 17.41 6.45127 17.5512 6.6394 17.363L7.86225 16.1399C8.92049 17.1983 10.3785 17.8334 12.0011 17.8334C15.1053 17.8334 17.6686 15.3872 17.8097 12.3059C17.8332 12.1412 17.6921 12.0001 17.5275 12.0001Z" fill="#071F44" fill-opacity="0.6"/>
</svg>
