<svg width="34" height="34" viewBox="0 0 34 34" fill="none" xmlns="http://www.w3.org/2000/svg">
<path d="M0 0H34L0 34V0Z" fill="url(#paint0_linear_2884_4754)"/>
<path d="M8.97475 14.4581L10.1075 13.3253L10.9667 14.1844L9.83388 15.3172L8.97475 14.4581ZM10.2603 15.7436L11.3931 14.6108L12.3413 15.559L11.2085 16.6918L10.2603 15.7436ZM11.6476 17.1309L14.4096 14.369L13.9705 13.9298L12.7931 15.1072L11.8449 14.1589L12.8249 13.1789L12.3986 12.7525L11.4185 13.7326L10.5594 12.8734L11.5394 11.8934L11.1067 11.4606L10.1266 12.4407L9.26113 11.5752L10.3685 10.4679L9.92298 10.0224L8.70746 11.2379L8.81565 11.0024C8.41472 10.767 7.95652 10.5379 7.42194 10.3088L7.10375 10.8688C7.56831 11.0406 8.02652 11.2443 8.46563 11.4797L7.31376 12.6316C7.1292 12.167 6.91919 11.7152 6.671 11.2761L6.13642 11.6325C6.74736 12.6761 7.14193 13.7962 7.30739 15.0054L7.94379 15.3363C7.9056 14.9417 7.84833 14.5408 7.75923 14.1462L11.4885 17.8755L11.9404 17.4237L11.6476 17.1309ZM8.80929 12.027L9.67479 12.8925L8.542 14.0253L7.6765 13.1598L8.80929 12.027ZM7.71469 15.2726C7.61923 15.559 7.51104 15.8454 7.39649 16.1381L6.11097 14.8526L6.75373 14.2099L6.30825 13.7644L5.66549 14.4071L4.48816 13.2298L4.02359 13.6944L5.20092 14.8717L4.38633 15.6863L4.83181 16.1318L5.6464 15.3172L7.11011 16.7809C6.91919 17.1755 6.70282 17.57 6.46099 17.9519L7.03374 18.2955C7.22466 17.9519 7.40285 17.5955 7.57468 17.2455L9.10839 18.7792C9.27386 18.9446 9.26749 19.1165 9.09567 19.2883C8.9302 19.4538 8.73928 19.6192 8.542 19.7783L9.08294 20.1283L9.66842 19.5429C10.0439 19.1674 10.0503 18.7919 9.69388 18.4355L7.85469 16.5963C7.97561 16.31 8.0838 16.0236 8.17925 15.7372L7.71469 15.2726ZM10.1266 8.54593L10.5466 8.96596L11.9913 7.52134L12.4495 7.97954L12.9204 7.50861L12.4622 7.0504L14.1423 5.37032L14.6069 5.83489L15.0778 5.36395L14.6132 4.89938L16.0578 3.45477L15.6378 3.03474L14.1932 4.47936L13.735 4.02116L13.2641 4.49209L13.7223 4.9503L12.0422 6.63038L11.584 6.17218L11.113 6.64311L11.5712 7.10132L10.1266 8.54593ZM11.5203 9.77418L11.9404 10.1942L13.4932 8.64139C13.7223 9.69781 13.7095 10.8561 13.4486 12.1098L14.1041 12.1925C14.2059 11.6579 14.2759 11.1424 14.3014 10.6333L16.5542 12.8862L16.9933 12.447L14.295 9.74872C14.2568 9.18869 14.1677 8.64139 14.0214 8.11318L17.337 4.79756L16.917 4.37754L13.8114 7.48315C13.7286 7.2986 13.6523 7.10768 13.5632 6.91676L13.0413 7.28587C13.1368 7.50861 13.2259 7.73771 13.315 7.97954L11.5203 9.77418ZM16.9679 8.01773L17.3625 8.41229L15.606 10.1687L16.0387 10.6015L17.7952 8.84504L18.5271 9.5769C18.6798 9.72963 18.6734 9.88873 18.5207 10.0415C18.3552 10.2069 18.107 10.4297 17.7952 10.7033L18.3743 11.0152L19.1189 10.2706C19.4562 9.93328 19.4562 9.58962 19.1125 9.24597L18.2534 8.38684L19.6535 6.98676L19.2207 6.55401L17.8207 7.95409L17.5534 7.6868C17.6616 7.0695 17.7443 6.49037 17.8079 5.96853L17.477 5.6376L14.7341 8.38047L15.1542 8.80049L17.2479 6.70675C17.1461 7.21587 17.057 7.64862 16.9679 8.01773Z" fill="white"/>
<defs>
<linearGradient id="paint0_linear_2884_4754" x1="9.49949e-08" y1="17" x2="34" y2="17" gradientUnits="userSpaceOnUse">
<stop stop-color="#DA072D"/>
<stop offset="0.505702" stop-color="#F0453A"/>
<stop offset="1" stop-color="#FF6A3C"/>
</linearGradient>
</defs>
</svg>
