<svg width="16" height="17" viewBox="0 0 16 17" fill="none" xmlns="http://www.w3.org/2000/svg">
<path opacity="0.4" d="M12.375 10.0148C13.9418 9.71133 15 9.14805 15 8.5V7.33242C14.3656 7.78086 13.4332 8.08711 12.375 8.27578V10.0148ZM12.2465 7.41445C13.8871 7.11914 15 6.53945 15 5.875V4.70742C14.0293 5.39375 12.3613 5.76289 10.6059 5.85039C11.4125 6.24141 12.0059 6.76641 12.2465 7.41445ZM15 3.25C15 2.28477 12.6484 1.5 9.75 1.5C6.85156 1.5 4.5 2.28477 4.5 3.25C4.5 4.21523 6.85156 5 9.75 5C12.6484 5 15 4.21523 15 3.25Z" fill="url(#paint0_linear_1113_2843)"/>
<path d="M6.25 10.25C9.14844 10.25 11.5 9.27109 11.5 8.0625C11.5 6.85391 9.14844 5.875 6.25 5.875C3.35156 5.875 1 6.85391 1 8.0625C1 9.27109 3.35156 10.25 6.25 10.25ZM1 12.5824V13.75C1 14.7152 3.35156 15.5 6.25 15.5C9.14844 15.5 11.5 14.7152 11.5 13.75V12.5824C10.3707 13.3781 8.30625 13.75 6.25 13.75C4.19375 13.75 2.1293 13.3781 1 12.5824ZM1 9.71406V11.125C1 12.0902 3.35156 12.875 6.25 12.875C9.14844 12.875 11.5 12.0902 11.5 11.125V9.71406C10.3707 10.6437 8.30352 11.125 6.25 11.125C4.19648 11.125 2.1293 10.6437 1 9.71406Z" fill="url(#paint1_linear_1113_2843)"/>
<defs>
<linearGradient id="paint0_linear_1113_2843" x1="9.75" y1="1.5" x2="9.75" y2="10.0148" gradientUnits="userSpaceOnUse">
<stop stop-color="#DFB577"/>
<stop offset="1" stop-color="#FFE2B0"/>
</linearGradient>
<linearGradient id="paint1_linear_1113_2843" x1="6.25" y1="5.875" x2="6.25" y2="15.5" gradientUnits="userSpaceOnUse">
<stop stop-color="#DFB577"/>
<stop offset="1" stop-color="#FFE2B0"/>
</linearGradient>
</defs>
</svg>
