<svg width="44" height="44" viewBox="0 0 44 44" fill="none" xmlns="http://www.w3.org/2000/svg">
<path d="M17.3594 17.2121C17.4926 15.1303 18.4916 13.0485 20.2898 11.8397C19.9568 11.101 19.2242 10.5638 18.425 10.5638H16.427L18.4916 9.08637C18.9578 8.7506 19.091 8.07905 18.758 7.60897L18.092 6.73596C17.759 6.26588 17.093 6.13157 16.6268 6.46735L14.4955 8.0119L15.2281 5.99726C15.4945 5.39288 15.1615 4.78849 14.6287 4.58702L13.6297 4.25125C13.0969 3.98263 12.4975 4.3184 12.2311 4.85564L10.9656 8.41482L9.63359 4.85564C9.43379 4.3184 8.76777 3.98263 8.23496 4.1841L7.23594 4.58702C6.70312 4.78849 6.43672 5.39288 6.63652 5.99726L7.36914 8.0119L5.23789 6.46735C4.77168 6.13157 4.10566 6.26588 3.77266 6.73596L3.17324 7.60897C2.77363 8.07905 2.90684 8.7506 3.37305 9.08637L5.4377 10.5638H3.50625C2.30742 10.5638 1.375 11.5711 1.375 12.7127V36.3511C1.375 37.5598 2.30742 38.5 3.50625 38.5H14.6953C14.3623 37.8956 14.1625 37.1569 14.1625 36.3511V21.3085C14.1625 19.361 15.4945 17.615 17.3594 17.2121ZM16.2937 36.3511C16.2937 37.5598 17.2262 38.5 18.425 38.5H29.0812V29.9042H16.2937V36.3511ZM31.2125 38.5H41.8687C43.001 38.5 44 37.5598 44 36.3511V29.9042H31.2125V38.5ZM41.8687 19.1595H40.4701C40.6699 18.6894 40.8031 18.1522 40.8031 17.615C40.8031 15.1974 39.0049 12.7127 35.9412 12.7127C32.7443 12.7127 30.9461 15.9361 30.1469 17.8164C29.2811 15.9361 27.4828 12.7127 24.2859 12.7127C21.2889 12.7127 19.4906 15.1974 19.4906 17.615C19.4906 18.1522 19.5572 18.6894 19.757 19.1595H18.425C17.2262 19.1595 16.2937 20.1668 16.2937 21.3085V27.7553H29.0812V19.1595H30.0803H30.1469H31.2125V27.7553H44V21.3085C44 20.1668 43.001 19.1595 41.8687 19.1595ZM23.7531 19.1595C23.5533 19.0924 23.3535 18.9581 23.2203 18.8909C22.7541 18.4208 22.6875 17.9507 22.6875 17.615C22.6875 16.9434 23.0871 15.9361 24.2859 15.9361C25.4848 15.9361 26.617 17.8164 27.2164 19.1595H23.7531ZM37.0068 18.8909C36.8736 18.9581 36.6738 19.0924 36.5406 19.1595H33.0107C33.6102 17.8164 34.7424 15.9361 35.9412 15.9361C37.14 15.9361 37.6062 16.9434 37.6062 17.615C37.6062 17.9507 37.473 18.4208 37.0068 18.8909Z" fill="white" fill-opacity="0.4"/>
</svg>
