<svg width="20" height="21" viewBox="0 0 20 21" fill="none" xmlns="http://www.w3.org/2000/svg">
    <path d="M18.5221 7.24145C18.4863 7.20565 18.0208 6.84757 17.4479 6.34627V4.77075C17.4479 3.83976 16.6602 3.052 15.7292 3.052H13.3301C12.5423 2.37166 11.3249 1.33325 10 1.33325C8.63933 1.33325 7.45769 2.37166 6.63412 3.052H4.27084C3.30405 3.052 2.55209 3.83976 2.55209 4.77075V6.34627C1.94337 6.84757 1.47787 7.20565 1.44207 7.24145C1.08399 7.52791 0.833344 8.10083 0.833344 8.56632V17.9478C0.833344 18.9146 1.5853 19.6666 2.55209 19.6666H17.4479C18.3789 19.6666 19.1667 18.9146 19.1667 17.9478V8.56632C19.1667 8.06502 18.916 7.56372 18.5221 7.24145ZM4.27084 4.77075H15.7292V10.3925C14.4043 11.4309 12.9004 12.6842 12.6139 12.899C11.9694 13.4361 10.8236 14.5103 10 14.5103C9.14063 14.5103 7.9948 13.4003 7.35027 12.899C7.06381 12.6842 5.55991 11.4309 4.27084 10.3925V4.77075ZM17.4479 17.733C17.4479 17.8762 17.3405 17.9478 17.2331 17.9478H2.76694C2.62371 17.9478 2.55209 17.8762 2.55209 17.733V11.2161C3.91277 12.3619 5.95379 14.009 6.27605 14.2597C7.06381 14.8684 8.42449 16.2291 10 16.2291C11.5397 16.2291 12.8646 14.9042 13.6882 14.2597C14.0104 13.9732 16.0514 12.3261 17.4479 11.2161V17.733ZM7.13543 8.20825H12.8646C13.1511 8.20825 13.4375 7.9576 13.4375 7.63533V7.06242C13.4375 6.77596 13.1511 6.4895 12.8646 6.4895H7.13543C6.81316 6.4895 6.56251 6.77596 6.56251 7.06242V7.63533C6.56251 7.9576 6.81316 8.20825 7.13543 8.20825ZM13.4375 10.4999V9.927C13.4375 9.64054 13.1511 9.35408 12.8646 9.35408H7.13543C6.81316 9.35408 6.56251 9.64054 6.56251 9.927V10.4999C6.56251 10.8222 6.81316 11.0728 7.13543 11.0728H12.8646C13.1511 11.0728 13.4375 10.8222 13.4375 10.4999Z"
          fill="#3A87FC"/>
</svg>
