<svg width="16" height="16" viewBox="0 0 16 16" fill="none" xmlns="http://www.w3.org/2000/svg">
    <path d="M14.0667 3.33379C14.3267 3.44207 14.5289 3.57742 14.7022 3.79398C14.8467 4.01054 14.9333 4.25417 14.9333 4.52487C14.9333 6.39271 14.5578 8.09813 13.8355 9.64113C13.2 10.9405 12.3333 12.0774 11.2933 13.052C10.3978 13.8641 9.47332 14.4596 8.51998 14.8115C8.17332 14.9739 7.82665 14.9739 7.47998 14.8115C6.38221 14.4055 5.3711 13.7287 4.44665 12.8083C3.40665 11.8338 2.62665 10.6698 2.04887 9.31628C1.38443 7.82743 1.06665 6.23029 1.06665 4.52487C1.06665 4.25417 1.12443 4.01054 1.29776 3.79398C1.44221 3.57742 1.64443 3.44207 1.93332 3.33379L7.47998 1.16818C7.82665 1.03283 8.17332 1.03283 8.51998 1.16818L14.0667 3.33379ZM7.99998 13.6204C8.92443 13.2685 9.81998 12.673 10.6289 11.8338C11.4955 10.9676 12.1889 9.9389 12.7089 8.74781C13.2578 7.44845 13.5467 6.0408 13.5467 4.52487L7.99998 2.35926L2.45332 4.52487C2.45332 5.98666 2.71332 7.36724 3.26221 8.6666C3.75332 9.85769 4.44665 10.9134 5.31332 11.7797C6.12221 12.6459 7.01776 13.2415 7.99998 13.6204ZM12.2755 6.20322C12.3333 6.14908 12.3622 6.09494 12.3622 5.98666C12.3622 5.90545 12.3333 5.82424 12.2755 5.74303L11.6111 5.14749C11.5533 5.09335 11.4667 5.03921 11.38 5.03921C11.2644 5.03921 11.1778 5.09335 11.12 5.14749L7.04665 8.9373L5.31332 7.28603C5.25554 7.23188 5.16887 7.20481 5.08221 7.20481C4.96665 7.20481 4.87998 7.23188 4.82221 7.28603L4.18665 7.90864C4.09998 7.96278 4.0711 8.04399 4.0711 8.1252C4.0711 8.23348 4.09998 8.31469 4.15776 8.36883L6.78665 10.8322C6.84443 10.9134 6.9311 10.9405 7.04665 10.9405C7.13332 10.9405 7.21998 10.9134 7.27776 10.8322L12.2755 6.20322Z"
          fill="white" opacity='0.7'/>
</svg>
