<svg width="72" height="72" viewBox="0 0 72 72" fill="none" xmlns="http://www.w3.org/2000/svg">
<path d="M28 40.4164C28.2 37.3278 29.7 34.2392 32.4 32.4458C31.9 31.3498 30.8 30.5528 29.6 30.5528H26.6L29.7 28.3609C30.4 27.8627 30.6 26.8664 30.1 26.1689L29.1 24.8737C28.6 24.1763 27.6 23.977 26.9 24.4752L23.7 26.7667L24.8 23.7778C25.2 22.8811 24.7 21.9844 23.9 21.6855L22.4 21.1873C21.6 20.7888 20.7 21.2869 20.3 22.084L18.4 27.3645L16.4 22.084C16.1 21.2869 15.1 20.7888 14.3 21.0877L12.8 21.6855C12 21.9844 11.6 22.8811 11.9 23.7778L13 26.7667L9.8 24.4752C9.1 23.977 8.1 24.1763 7.6 24.8737L6.7 26.1689C6.1 26.8664 6.3 27.8627 7 28.3609L10.1 30.5528H7.2C5.4 30.5528 4 32.0473 4 33.741V68.8118C4 70.6051 5.4 72 7.2 72H24C23.5 71.1033 23.2 70.0073 23.2 68.8118V46.494C23.2 43.6047 25.2 41.0142 28 40.4164ZM26.4 68.8118C26.4 70.6051 27.8 72 29.6 72H45.6V59.247H26.4V68.8118ZM48.8 72H64.8C66.5 72 68 70.6051 68 68.8118V59.247H48.8V72ZM64.8 43.3058H62.7C63 42.6083 63.2 41.8113 63.2 41.0142C63.2 37.4274 60.5 33.741 55.9 33.741C51.1 33.741 48.4 38.5234 47.2 41.3131C45.9 38.5234 43.2 33.741 38.4 33.741C33.9 33.741 31.2 37.4274 31.2 41.0142C31.2 41.8113 31.3 42.6083 31.6 43.3058H29.6C27.8 43.3058 26.4 44.8003 26.4 46.494V56.0588H45.6V43.3058H47.1H47.2H48.8V56.0588H68V46.494C68 44.8003 66.5 43.3058 64.8 43.3058ZM37.6 43.3058C37.3 43.2061 37 43.0069 36.8 42.9072C36.1 42.2098 36 41.5124 36 41.0142C36 40.0179 36.6 38.5234 38.4 38.5234C40.2 38.5234 41.9 41.3131 42.8 43.3058H37.6ZM57.5 42.9072C57.3 43.0069 57 43.2061 56.8 43.3058H51.5C52.4 41.3131 54.1 38.5234 55.9 38.5234C57.7 38.5234 58.4 40.0179 58.4 41.0142C58.4 41.5124 58.2 42.2098 57.5 42.9072Z" fill="#071F44" fill-opacity="0.1"/>
<path d="M65.375 8.6875L67 12L68.6875 8.6875L72 7L68.6875 5.375L67 2L65.375 5.375L62 7L65.375 8.6875Z" fill="#071F44" fill-opacity="0.2"/>
<path d="M33.375 18.6875L35 22L36.6875 18.6875L40 17L36.6875 15.375L35 12L33.375 15.375L30 17L33.375 18.6875Z" fill="#071F44" fill-opacity="0.2"/>
<path d="M65 28L64 30L62 31L64 32L65 34L66 32L68 31L66 30L65 28Z" fill="#071F44" fill-opacity="0.2"/>
<path d="M4 14L2.66667 16.6667L0 18L2.66667 19.3333L4 22L5.33333 19.3333L8 18L5.33333 16.6667L4 14Z" fill="#071F44" fill-opacity="0.2"/>
<path d="M13 0L12 2L10 3L12 4L13 6L14 4L16 3L14 2L13 0Z" fill="#071F44" fill-opacity="0.2"/>
<path d="M55 11C50.0282 11 46 15.0282 46 20C46 24.9718 50.0282 29 55 29C59.9718 29 64 24.9718 64 20C64 15.0282 59.9718 11 55 11ZM55.871 24.6452V25.2258C55.871 25.5524 55.5806 25.8065 55.2903 25.8065H54.7097C54.3831 25.8065 54.129 25.5524 54.129 25.2258V24.6452C53.5121 24.6452 52.9315 24.4274 52.4234 24.1008C52.0968 23.8831 52.0605 23.4476 52.3508 23.1935L52.7863 22.7944C52.9677 22.6129 53.2581 22.5766 53.5121 22.7218C53.7298 22.8669 53.9476 22.9032 54.2016 22.9032H55.8347C56.2702 22.9032 56.5968 22.5403 56.5968 22.0685C56.5968 21.6694 56.379 21.3427 56.0524 21.2339L53.4395 20.4355C52.3871 20.1452 51.625 19.0927 51.625 17.9677C51.625 16.5524 52.75 15.3911 54.129 15.3548V14.7742C54.129 14.4839 54.3831 14.1935 54.7097 14.1935H55.2903C55.5806 14.1935 55.871 14.4839 55.871 14.7742V15.3911C56.4516 15.3911 57.0323 15.5726 57.5403 15.9355C57.8669 16.1532 57.9032 16.5887 57.6129 16.8427L57.1774 17.2419C56.996 17.4234 56.7056 17.4597 56.4879 17.3145C56.2339 17.1694 56.0161 17.0968 55.7621 17.0968H54.129C53.6935 17.0968 53.3669 17.496 53.3669 17.9677C53.3669 18.3306 53.5847 18.6935 53.9113 18.8024L56.5242 19.5645C57.5766 19.8911 58.3387 20.9073 58.3387 22.0685C58.3387 23.4839 57.2137 24.6452 55.871 24.6452Z" fill="#071F44" fill-opacity="0.2"/>
<path d="M21 5C17.6855 5 15 7.68527 15 10.9995C15 14.3138 17.6855 16.9991 21 16.9991C24.3145 16.9991 27 14.3138 27 10.9995C27 7.68527 24.3145 5 21 5ZM21.5806 14.0961V14.4831C21.5806 14.7009 21.3871 14.8702 21.1935 14.8702H20.8065C20.5887 14.8702 20.4194 14.7009 20.4194 14.4831V14.0961C20.0081 14.0961 19.621 13.9509 19.2823 13.7332C19.0645 13.588 19.0403 13.2977 19.2339 13.1284L19.5242 12.8623C19.6452 12.7413 19.8387 12.7171 20.0081 12.8139C20.1532 12.9107 20.2984 12.9349 20.4677 12.9349H21.5565C21.8468 12.9349 22.0645 12.6929 22.0645 12.3785C22.0645 12.1123 21.9194 11.8946 21.7016 11.822L19.9597 11.2898C19.2581 11.0963 18.75 10.3947 18.75 9.6448C18.75 8.70132 19.5 7.92719 20.4194 7.903V7.51593C20.4194 7.3224 20.5887 7.12887 20.8065 7.12887H21.1935C21.3871 7.12887 21.5806 7.3224 21.5806 7.51593V7.92719C21.9677 7.92719 22.3548 8.04815 22.6935 8.29006C22.9113 8.43521 22.9355 8.72551 22.7419 8.89486L22.4516 9.16096C22.3306 9.28192 22.1371 9.30611 21.9919 9.20935C21.8226 9.11258 21.6774 9.0642 21.5081 9.0642H20.4194C20.129 9.0642 19.9113 9.33031 19.9113 9.6448C19.9113 9.88671 20.0565 10.1286 20.2742 10.2012L22.0161 10.7092C22.7177 10.927 23.2258 11.6043 23.2258 12.3785C23.2258 13.3219 22.4758 14.0961 21.5806 14.0961Z" fill="#071F44" fill-opacity="0.2"/>
</svg>
