<svg width="16" height="17" viewBox="0 0 16 17" fill="none" xmlns="http://www.w3.org/2000/svg">
    <path d="M15.3334 8.50008C15.3334 4.47858 12.0215 1.16675 8.00002 1.16675C3.94894 1.16675 0.666687 4.47858 0.666687 8.50008C0.666687 12.5512 3.94894 15.8334 8.00002 15.8334C12.0215 15.8334 15.3334 12.5512 15.3334 8.50008ZM8.00002 9.97858C8.73927 9.97858 9.36024 10.5995 9.36024 11.3388C9.36024 12.1076 8.73927 12.699 8.00002 12.699C7.2312 12.699 6.6398 12.1076 6.6398 11.3388C6.6398 10.5995 7.2312 9.97858 8.00002 9.97858ZM6.69894 5.09954C6.66937 4.89255 6.84679 4.71513 7.05378 4.71513H8.91669C9.12368 4.71513 9.3011 4.89255 9.27153 5.09954L9.06454 9.12105C9.03497 9.32804 8.88712 9.44632 8.7097 9.44632H7.26077C7.08335 9.44632 6.9355 9.32804 6.90593 9.12105L6.69894 5.09954Z"
          fill="#FFC647"/>
</svg>
