<svg width="82" height="72" viewBox="0 0 82 72" fill="none" xmlns="http://www.w3.org/2000/svg">
<path d="M26.0001 46.0464L8.32263 42.4578C7.79845 42.3584 7.35372 42.8424 7.50432 43.3482L11.2687 54.0068C11.344 54.2599 11.5561 54.4501 11.8184 54.4998L26.0001 57.4544V46.0464Z" fill="url(#paint0_linear_828_9694)"/>
<path d="M25.9998 30.6272L0.929977 22.0386C0.389355 21.8527 -0.131168 22.3692 0.0296669 22.9319L6.05883 39.8912C6.13337 40.152 6.34327 40.3481 6.60272 40.3993L25.9998 44.4544V30.6272Z" fill="url(#paint1_linear_828_9694)"/>
<path d="M55.9999 46.0464L73.6774 42.4578C74.2015 42.3584 74.6463 42.8424 74.4957 43.3482L70.7313 54.0068C70.656 54.2599 70.4439 54.4501 70.1816 54.4998L55.9999 57.4544V46.0464Z" fill="url(#paint2_linear_828_9694)"/>
<path d="M56.0002 30.6272L81.07 22.0386C81.6106 21.8527 82.1312 22.3692 81.9703 22.9319L75.9412 39.8912C75.8666 40.152 75.6567 40.3481 75.3973 40.3993L56.0002 44.4544V30.6272Z" fill="url(#paint3_linear_828_9694)"/>
<g filter="url(#filter0_dd_828_9694)">
<mask id="mask0_828_9694" style="mask-type:alpha" maskUnits="userSpaceOnUse" x="11" y="8" width="60" height="57">
<path d="M38.0298 9.19342C39.7953 7.88962 42.2047 7.88963 43.9702 9.19342L68.116 27.0243C69.84 28.2974 70.5609 30.5276 69.9084 32.5689L60.6527 61.5225C59.9905 63.5941 58.065 65 55.8901 65H26.1099C23.935 65 22.0095 63.5941 21.3473 61.5225L12.0916 32.5689C11.4391 30.5276 12.16 28.2974 13.884 27.0243L38.0298 9.19342Z" fill="#553718"/>
</mask>
<g mask="url(#mask0_828_9694)">
<g filter="url(#filter1_ii_828_9694)">
<path d="M38.0298 9.19342C39.7953 7.88962 42.2047 7.88963 43.9702 9.19342L68.116 27.0243C69.84 28.2974 70.5609 30.5276 69.9084 32.5689L60.6527 61.5225C59.9905 63.5941 58.065 65 55.8901 65H26.1099C23.935 65 22.0095 63.5941 21.3473 61.5225L12.0916 32.5689C11.4391 30.5276 12.16 28.2974 13.884 27.0243L38.0298 9.19342Z" fill="#553718"/>
</g>
<g filter="url(#filter2_dd_828_9694)">
<path d="M38.0019 13.2463C39.7789 11.9149 42.2211 11.9149 43.9981 13.2463L64.1644 28.3557C65.8631 29.6285 66.5731 31.8352 65.9352 33.8597L58.1708 58.5026C57.5149 60.5843 55.5846 62 53.402 62H28.598C26.4155 62 24.4851 60.5843 23.8292 58.5026L16.0648 33.8597C15.4269 31.8352 16.1369 29.6285 17.8356 28.3557L38.0019 13.2463Z" fill="url(#paint4_linear_828_9694)"/>
</g>
<g filter="url(#filter3_di_828_9694)">
<path d="M39.8359 20.4275C40.5527 19.8799 41.5474 19.8799 42.2642 20.4275L57.6914 32.2129C58.3575 32.7217 58.6356 33.5919 58.3882 34.3927L52.4557 53.5905C52.1968 54.4285 51.422 55 50.5449 55H31.5552C30.6781 55 29.9033 54.4285 29.6444 53.5905L23.7119 34.3927C23.4645 33.5919 23.7426 32.7217 24.4087 32.2129L39.8359 20.4275Z" fill="#DBAD7F"/>
</g>
<g style="mix-blend-mode:darken">
<path d="M59.574 65.0577L22.4448 65.0712L41 39L59.574 65.0577Z" fill="url(#paint5_linear_828_9694)" fill-opacity="0.42"/>
</g>
<g style="mix-blend-mode:lighten">
<path d="M10.5818 29.0637L40.961 7L41 39L10.5818 29.0637Z" fill="url(#paint6_linear_828_9694)" fill-opacity="0.54"/>
</g>
<g style="mix-blend-mode:darken">
<path d="M22.4124 65.048L10.6006 29.0067L41 39L22.4124 65.048Z" fill="url(#paint7_linear_828_9694)" fill-opacity="0.3"/>
</g>
<g style="mix-blend-mode:darken">
<path d="M41 7L71.4061 29.0266L41 39L41 7Z" fill="url(#paint8_linear_828_9694)" fill-opacity="0.2"/>
</g>
<g style="mix-blend-mode:darken">
<path d="M71.4078 29.0319L59.5832 65.0512L41 39L71.4078 29.0319Z" fill="url(#paint9_linear_828_9694)" fill-opacity="0.3"/>
</g>
<mask id="mask1_828_9694" style="mask-type:alpha" maskUnits="userSpaceOnUse" x="15" y="12" width="52" height="50">
<path fill-rule="evenodd" clip-rule="evenodd" d="M43.9981 19.494C42.2211 18.1626 39.7789 18.1626 38.0019 19.494L23.6693 30.2326C21.9705 31.5054 21.2606 33.712 21.8985 35.7366L27.4961 53.5026C28.152 55.5843 30.0824 57 32.265 57H49.735C51.9176 57 53.848 55.5843 54.5039 53.5026L60.1015 35.7366C60.7394 33.712 60.0295 31.5054 58.3307 30.2326L43.9981 19.494ZM65.9352 33.8597C66.5731 31.8352 65.8631 29.6285 64.1644 28.3557L43.9981 13.2463C42.2211 11.9149 39.7789 11.9149 38.0019 13.2463L17.8356 28.3557C16.1369 29.6285 15.4269 31.8352 16.0648 33.8597L23.8292 58.5026C24.4851 60.5843 26.4155 62 28.598 62H53.402C55.5846 62 57.5149 60.5843 58.1708 58.5026L65.9352 33.8597Z" fill="black"/>
</mask>
<g mask="url(#mask1_828_9694)">
<path opacity="0.4" d="M39.2012 18.5954L20.8337 32.3571C20.8337 32.3571 41.5 17 39.2012 15.5C36.9023 14 28.0973 20.7845 21.862 25.3389L15 30.4802C15 30.4802 17.9617 28.1879 21.862 25.3389L38.0019 13.2462C39.4046 12.1953 41.2216 11.9739 42.7988 12.582C42.7988 12.582 42.875 16 44 17.5C45.125 19 51.0832 24.8024 51.0832 24.8024L42.7988 18.5954C41.7326 17.7966 40.2674 17.7966 39.2012 18.5954Z" fill="#FBDFC3"/>
</g>
<g opacity="0.8" filter="url(#filter4_di_828_9694)">
<path d="M39.1788 19.6497C40.254 18.8283 41.746 18.8283 42.8212 19.6497L58.1757 31.3795C59.1748 32.1427 59.592 33.448 59.2208 34.6492L53.2764 53.8857C52.8879 55.1427 51.7258 56 50.4101 56H31.5899C30.2742 56 29.1121 55.1427 28.7236 53.8857L22.7792 34.6492C22.408 33.448 22.8252 32.1427 23.8243 31.3795L39.1788 19.6497Z" stroke="#553718" stroke-width="2" shape-rendering="crispEdges"/>
</g>
<g filter="url(#filter5_dd_828_9694)">
<path d="M45.2432 37.959H42.9873V26.3574H40.6455L36.6494 28.8926L37.6807 30.6328L40.4736 28.9785V37.959H37.4658V40H45.2432V37.959Z" fill="#FBDFC3"/>
</g>
<g filter="url(#filter6_dd_828_9694)">
<path d="M34.7524 45L36.4883 48.9419L38.1802 45H39.4238L36.7124 51.2183H36.2993L33.5 45H34.7524Z" fill="#FBDFC3"/>
<path d="M42.0774 45V51.1392H40.8909V45H42.0774Z" fill="#FBDFC3"/>
<path d="M46.5504 45C47.1246 45 47.5904 45.167 47.9478 45.501C48.3082 45.832 48.4883 46.2598 48.4883 46.7842C48.4883 47.3145 48.3067 47.7437 47.9434 48.0718C47.5801 48.3999 47.1011 48.564 46.5064 48.564H45.3638V51.1392H44.1773V45H46.5504ZM46.2559 47.6367C46.5723 47.6367 46.8184 47.5649 46.9942 47.4214C47.1729 47.2749 47.2623 47.0596 47.2623 46.7754C47.2623 46.21 46.899 45.9272 46.1724 45.9272H45.3638V47.6367H46.2559Z" fill="#FBDFC3"/>
</g>
</g>
</g>
<defs>
<filter id="filter0_dd_828_9694" x="7.85388" y="4.21558" width="68.2922" height="66.7844" filterUnits="userSpaceOnUse" color-interpolation-filters="sRGB">
<feFlood flood-opacity="0" result="BackgroundImageFix"/>
<feColorMatrix in="SourceAlpha" type="matrix" values="0 0 0 0 0 0 0 0 0 0 0 0 0 0 0 0 0 0 127 0" result="hardAlpha"/>
<feOffset dx="1" dy="1"/>
<feGaussianBlur stdDeviation="2.5"/>
<feComposite in2="hardAlpha" operator="out"/>
<feColorMatrix type="matrix" values="0 0 0 0 0 0 0 0 0 0 0 0 0 0 0 0 0 0 0.4 0"/>
<feBlend mode="normal" in2="BackgroundImageFix" result="effect1_dropShadow_828_9694"/>
<feColorMatrix in="SourceAlpha" type="matrix" values="0 0 0 0 0 0 0 0 0 0 0 0 0 0 0 0 0 0 127 0" result="hardAlpha"/>
<feOffset dy="1"/>
<feGaussianBlur stdDeviation="1"/>
<feComposite in2="hardAlpha" operator="out"/>
<feColorMatrix type="matrix" values="0 0 0 0 0 0 0 0 0 0 0 0 0 0 0 0 0 0 0.2 0"/>
<feBlend mode="normal" in2="effect1_dropShadow_828_9694" result="effect2_dropShadow_828_9694"/>
<feBlend mode="normal" in="SourceGraphic" in2="effect2_dropShadow_828_9694" result="shape"/>
</filter>
<filter id="filter1_ii_828_9694" x="11.5539" y="7.91558" width="58.9922" height="57.4844" filterUnits="userSpaceOnUse" color-interpolation-filters="sRGB">
<feFlood flood-opacity="0" result="BackgroundImageFix"/>
<feBlend mode="normal" in="SourceGraphic" in2="BackgroundImageFix" result="shape"/>
<feColorMatrix in="SourceAlpha" type="matrix" values="0 0 0 0 0 0 0 0 0 0 0 0 0 0 0 0 0 0 127 0" result="hardAlpha"/>
<feOffset dx="-0.3" dy="-0.3"/>
<feGaussianBlur stdDeviation="0.5"/>
<feComposite in2="hardAlpha" operator="arithmetic" k2="-1" k3="1"/>
<feColorMatrix type="matrix" values="0 0 0 0 0.120833 0 0 0 0 0.0674653 0 0 0 0 0.0140972 0 0 0 1 0"/>
<feBlend mode="normal" in2="shape" result="effect1_innerShadow_828_9694"/>
<feColorMatrix in="SourceAlpha" type="matrix" values="0 0 0 0 0 0 0 0 0 0 0 0 0 0 0 0 0 0 127 0" result="hardAlpha"/>
<feOffset dx="0.4" dy="0.4"/>
<feGaussianBlur stdDeviation="0.5"/>
<feComposite in2="hardAlpha" operator="arithmetic" k2="-1" k3="1"/>
<feColorMatrix type="matrix" values="0 0 0 0 0.858824 0 0 0 0 0.678431 0 0 0 0 0.498039 0 0 0 1 0"/>
<feBlend mode="normal" in2="effect1_innerShadow_828_9694" result="effect2_innerShadow_828_9694"/>
</filter>
<filter id="filter2_dd_828_9694" x="13.8334" y="10.2477" width="55.3333" height="54.7523" filterUnits="userSpaceOnUse" color-interpolation-filters="sRGB">
<feFlood flood-opacity="0" result="BackgroundImageFix"/>
<feColorMatrix in="SourceAlpha" type="matrix" values="0 0 0 0 0 0 0 0 0 0 0 0 0 0 0 0 0 0 127 0" result="hardAlpha"/>
<feOffset/>
<feGaussianBlur stdDeviation="1"/>
<feComposite in2="hardAlpha" operator="out"/>
<feColorMatrix type="matrix" values="0 0 0 0 0.196078 0 0 0 0 0.105882 0 0 0 0 0.0117647 0 0 0 0.8 0"/>
<feBlend mode="normal" in2="BackgroundImageFix" result="effect1_dropShadow_828_9694"/>
<feColorMatrix in="SourceAlpha" type="matrix" values="0 0 0 0 0 0 0 0 0 0 0 0 0 0 0 0 0 0 127 0" result="hardAlpha"/>
<feOffset dx="1" dy="1"/>
<feGaussianBlur stdDeviation="1"/>
<feComposite in2="hardAlpha" operator="out"/>
<feColorMatrix type="matrix" values="0 0 0 0 0.195833 0 0 0 0 0.104444 0 0 0 0 0.0130555 0 0 0 1 0"/>
<feBlend mode="normal" in2="effect1_dropShadow_828_9694" result="effect2_dropShadow_828_9694"/>
<feBlend mode="normal" in="SourceGraphic" in2="effect2_dropShadow_828_9694" result="shape"/>
</filter>
<filter id="filter3_di_828_9694" x="23.6227" y="20.0168" width="36.0547" height="36.0832" filterUnits="userSpaceOnUse" color-interpolation-filters="sRGB">
<feFlood flood-opacity="0" result="BackgroundImageFix"/>
<feColorMatrix in="SourceAlpha" type="matrix" values="0 0 0 0 0 0 0 0 0 0 0 0 0 0 0 0 0 0 127 0" result="hardAlpha"/>
<feOffset dx="0.7" dy="0.6"/>
<feGaussianBlur stdDeviation="0.25"/>
<feComposite in2="hardAlpha" operator="out"/>
<feColorMatrix type="matrix" values="0 0 0 0 0.170833 0 0 0 0 0.0939583 0 0 0 0 0.0170833 0 0 0 1 0"/>
<feBlend mode="normal" in2="BackgroundImageFix" result="effect1_dropShadow_828_9694"/>
<feBlend mode="normal" in="SourceGraphic" in2="effect1_dropShadow_828_9694" result="shape"/>
<feColorMatrix in="SourceAlpha" type="matrix" values="0 0 0 0 0 0 0 0 0 0 0 0 0 0 0 0 0 0 127 0" result="hardAlpha"/>
<feOffset dx="0.7" dy="0.3"/>
<feGaussianBlur stdDeviation="0.2"/>
<feComposite in2="hardAlpha" operator="arithmetic" k2="-1" k3="1"/>
<feColorMatrix type="matrix" values="0 0 0 0 0.984314 0 0 0 0 0.87451 0 0 0 0 0.764706 0 0 0 1 0"/>
<feBlend mode="normal" in2="shape" result="effect2_innerShadow_828_9694"/>
</filter>
<filter id="filter4_di_828_9694" x="21.6453" y="18.0337" width="39.0095" height="39.2663" filterUnits="userSpaceOnUse" color-interpolation-filters="sRGB">
<feFlood flood-opacity="0" result="BackgroundImageFix"/>
<feColorMatrix in="SourceAlpha" type="matrix" values="0 0 0 0 0 0 0 0 0 0 0 0 0 0 0 0 0 0 127 0" result="hardAlpha"/>
<feOffset dx="0.3" dy="0.3"/>
<feComposite in2="hardAlpha" operator="out"/>
<feColorMatrix type="matrix" values="0 0 0 0 0.720833 0 0 0 0 0.535378 0 0 0 0 0.345399 0 0 0 1 0"/>
<feBlend mode="normal" in2="BackgroundImageFix" result="effect1_dropShadow_828_9694"/>
<feBlend mode="normal" in="SourceGraphic" in2="effect1_dropShadow_828_9694" result="shape"/>
<feColorMatrix in="SourceAlpha" type="matrix" values="0 0 0 0 0 0 0 0 0 0 0 0 0 0 0 0 0 0 127 0" result="hardAlpha"/>
<feOffset dx="0.2" dy="0.2"/>
<feGaussianBlur stdDeviation="0.5"/>
<feComposite in2="hardAlpha" operator="arithmetic" k2="-1" k3="1"/>
<feColorMatrix type="matrix" values="0 0 0 0 0.179167 0 0 0 0 0.111245 0 0 0 0 0.041059 0 0 0 1 0"/>
<feBlend mode="normal" in2="shape" result="effect2_innerShadow_828_9694"/>
</filter>
<filter id="filter5_dd_828_9694" x="32.4494" y="21.7574" width="18.5938" height="23.6426" filterUnits="userSpaceOnUse" color-interpolation-filters="sRGB">
<feFlood flood-opacity="0" result="BackgroundImageFix"/>
<feColorMatrix in="SourceAlpha" type="matrix" values="0 0 0 0 0 0 0 0 0 0 0 0 0 0 0 0 0 0 127 0" result="hardAlpha"/>
<feOffset dx="0.8" dy="0.4"/>
<feGaussianBlur stdDeviation="2.5"/>
<feComposite in2="hardAlpha" operator="out"/>
<feColorMatrix type="matrix" values="0 0 0 0 0.32549 0 0 0 0 0.207843 0 0 0 0 0.0901961 0 0 0 0.6 0"/>
<feBlend mode="normal" in2="BackgroundImageFix" result="effect1_dropShadow_828_9694"/>
<feColorMatrix in="SourceAlpha" type="matrix" values="0 0 0 0 0 0 0 0 0 0 0 0 0 0 0 0 0 0 127 0" result="hardAlpha"/>
<feOffset dx="0.2" dy="0.2"/>
<feGaussianBlur stdDeviation="1"/>
<feComposite in2="hardAlpha" operator="out"/>
<feColorMatrix type="matrix" values="0 0 0 0 0.254902 0 0 0 0 0.137255 0 0 0 0 0.0196078 0 0 0 1 0"/>
<feBlend mode="normal" in2="effect1_dropShadow_828_9694" result="effect2_dropShadow_828_9694"/>
<feBlend mode="normal" in="SourceGraphic" in2="effect2_dropShadow_828_9694" result="shape"/>
</filter>
<filter id="filter6_dd_828_9694" x="29.3" y="40.4" width="24.9883" height="16.2183" filterUnits="userSpaceOnUse" color-interpolation-filters="sRGB">
<feFlood flood-opacity="0" result="BackgroundImageFix"/>
<feColorMatrix in="SourceAlpha" type="matrix" values="0 0 0 0 0 0 0 0 0 0 0 0 0 0 0 0 0 0 127 0" result="hardAlpha"/>
<feOffset dx="0.8" dy="0.4"/>
<feGaussianBlur stdDeviation="2.5"/>
<feComposite in2="hardAlpha" operator="out"/>
<feColorMatrix type="matrix" values="0 0 0 0 0.32549 0 0 0 0 0.207843 0 0 0 0 0.0901961 0 0 0 0.6 0"/>
<feBlend mode="normal" in2="BackgroundImageFix" result="effect1_dropShadow_828_9694"/>
<feColorMatrix in="SourceAlpha" type="matrix" values="0 0 0 0 0 0 0 0 0 0 0 0 0 0 0 0 0 0 127 0" result="hardAlpha"/>
<feOffset dx="0.2" dy="0.2"/>
<feGaussianBlur stdDeviation="1"/>
<feComposite in2="hardAlpha" operator="out"/>
<feColorMatrix type="matrix" values="0 0 0 0 0.254902 0 0 0 0 0.137255 0 0 0 0 0.0196078 0 0 0 1 0"/>
<feBlend mode="normal" in2="effect1_dropShadow_828_9694" result="effect2_dropShadow_828_9694"/>
<feBlend mode="normal" in="SourceGraphic" in2="effect2_dropShadow_828_9694" result="shape"/>
</filter>
<linearGradient id="paint0_linear_828_9694" x1="7.47461" y1="57.4543" x2="26.0001" y2="57.4543" gradientUnits="userSpaceOnUse">
<stop stop-color="#F9683A"/>
<stop offset="1" stop-color="#D01B1B"/>
</linearGradient>
<linearGradient id="paint1_linear_828_9694" x1="6.8944e-08" y1="44.4543" x2="25.9998" y2="44.4543" gradientUnits="userSpaceOnUse">
<stop stop-color="#F9683A"/>
<stop offset="1" stop-color="#D01B1B"/>
</linearGradient>
<linearGradient id="paint2_linear_828_9694" x1="74.5254" y1="57.4543" x2="55.9999" y2="57.4543" gradientUnits="userSpaceOnUse">
<stop stop-color="#F9683A"/>
<stop offset="1" stop-color="#D01B1B"/>
</linearGradient>
<linearGradient id="paint3_linear_828_9694" x1="82" y1="44.4543" x2="56.0002" y2="44.4543" gradientUnits="userSpaceOnUse">
<stop stop-color="#F9683A"/>
<stop offset="1" stop-color="#D01B1B"/>
</linearGradient>
<linearGradient id="paint4_linear_828_9694" x1="52.7" y1="19.7931" x2="23.9709" y2="61.6136" gradientUnits="userSpaceOnUse">
<stop stop-color="#6F4F2F"/>
<stop offset="0.161458" stop-color="#C48547"/>
<stop offset="0.319947" stop-color="#F3C393"/>
<stop offset="0.651042" stop-color="#BA7735"/>
<stop offset="0.838542" stop-color="#825A32"/>
<stop offset="1" stop-color="#966C42"/>
</linearGradient>
<linearGradient id="paint5_linear_828_9694" x1="41.0094" y1="39" x2="41.0094" y2="65.0712" gradientUnits="userSpaceOnUse">
<stop stop-color="#5A2F07" stop-opacity="0.6"/>
<stop offset="0.804811" stop-color="#703B07"/>
</linearGradient>
<linearGradient id="paint6_linear_828_9694" x1="41" y1="39" x2="25" y2="18.5" gradientUnits="userSpaceOnUse">
<stop offset="0.635417" stop-color="#FBDFC3"/>
<stop offset="1" stop-color="#FBDFC3" stop-opacity="0"/>
</linearGradient>
<linearGradient id="paint7_linear_828_9694" x1="23.5" y1="34" x2="20" y2="58.5" gradientUnits="userSpaceOnUse">
<stop offset="0.257119" stop-color="#C98B4E"/>
<stop offset="0.766702" stop-color="#452404" stop-opacity="0.34"/>
</linearGradient>
<linearGradient id="paint8_linear_828_9694" x1="41" y1="27" x2="58.5" y2="32.5" gradientUnits="userSpaceOnUse">
<stop stop-color="#C76C11"/>
<stop offset="1" stop-color="#C76C11" stop-opacity="0.45"/>
</linearGradient>
<linearGradient id="paint9_linear_828_9694" x1="56" y1="35.5" x2="58.5" y2="63" gradientUnits="userSpaceOnUse">
<stop offset="0.617664" stop-color="#793C10"/>
<stop offset="1" stop-color="#D36B00" stop-opacity="0.3"/>
</linearGradient>
</defs>
</svg>
