<svg width="73" height="72" viewBox="0 0 73 72" fill="none" xmlns="http://www.w3.org/2000/svg">
<path fill-rule="evenodd" clip-rule="evenodd" d="M33.8361 2C35.914 2 37.3411 3.53573 38.081 5.26205C38.5315 6.31324 38.0445 7.53061 36.9933 7.98112C35.9421 8.43163 34.7248 7.94468 34.2743 6.89349C34.0841 6.44983 33.9006 6.24359 33.8088 6.16522C33.783 6.17934 33.7492 6.20047 33.7072 6.23181C33.544 6.35367 33.2993 6.60344 33.0322 7.05966L25.7967 21.5306C25.4939 22.1361 24.9143 22.5554 24.2444 22.6534L8.57081 24.9471C8.5565 24.9492 8.54216 24.9512 8.52781 24.953C8.10993 25.0052 7.8456 25.0857 7.69164 25.1506C7.76785 25.357 7.93764 25.6716 8.26673 26.0795L19.6496 37.0829C20.1414 37.5584 20.3667 38.246 20.2516 38.9203L17.5839 54.545C17.5344 54.9643 17.5412 55.2668 17.5665 55.4702C17.7447 55.4161 17.9979 55.313 18.3298 55.1234C19.3227 54.556 20.5877 54.901 21.1551 55.8939C21.7225 56.8869 21.3775 58.1519 20.3846 58.7193C18.8772 59.5806 16.8064 60.2109 15.0953 58.9887C13.4419 57.8077 13.2675 55.685 13.4795 53.9885C13.4834 53.9579 13.4879 53.9273 13.4931 53.8969L15.9851 39.3009L5.30259 28.9744C5.24917 28.9228 5.19857 28.8683 5.15101 28.8113C4.08285 27.5295 3.11176 25.7416 3.65613 23.8908C4.24984 21.8722 6.20452 21.0743 7.99118 20.8463L22.5756 18.712L29.3558 5.15168C29.3729 5.11742 29.391 5.08363 29.41 5.05037C30.3425 3.41855 31.8537 2 33.8361 2ZM17.6316 55.7508C17.6316 55.7508 17.6313 55.7502 17.6307 55.749L17.6316 55.7508ZM7.64436 24.9712C7.64441 24.9712 7.64451 24.9726 7.64449 24.9752C7.64429 24.9725 7.6443 24.9712 7.64436 24.9712ZM33.8713 6.13826C33.8713 6.13836 33.8696 6.13886 33.8662 6.13945C33.8696 6.13844 33.8713 6.13815 33.8713 6.13826Z" fill="#071F44" fill-opacity="0.1"/>
<path fill-rule="evenodd" clip-rule="evenodd" d="M40.7056 10.8859C40.1941 9.86295 38.9502 9.44833 37.9273 9.9598C36.9044 10.4713 36.4898 11.7151 37.0012 12.738L41.5886 21.9128C41.8914 22.5183 42.4711 22.9376 43.1409 23.0357L58.8145 25.3294C58.8209 25.3303 58.8273 25.3312 58.8337 25.3321C58.8417 25.3332 58.8496 25.3342 58.8575 25.3352C59.3911 25.4019 59.6999 25.5378 59.8485 25.6331C59.8563 25.638 59.8635 25.6428 59.8701 25.6473C59.8088 25.7701 59.6575 25.9939 59.3178 26.277C59.2787 26.3096 59.2409 26.3436 59.2043 26.379L48.6034 36.6264V39.4577C49.0785 39.3384 49.5626 39.2806 50.0389 39.2806C50.557 39.2806 51.0845 39.349 51.5994 39.4906L62.0324 29.4054C63.4789 28.1721 64.509 26.3216 63.8505 24.3459C63.2052 22.4101 61.2953 21.4718 59.3944 21.2286L44.8097 19.0942L40.7056 10.8859ZM30.0702 53.8799C29.9122 53.7028 29.7591 53.5341 29.6115 53.3749C28.7157 52.4698 28.1125 51.4342 27.8967 50.3362L23.7829 52.3932C22.7599 52.9046 22.3453 54.1485 22.8568 55.1714C23.3682 56.1943 24.6121 56.6089 25.635 56.0975L30.0702 53.8799ZM59.9496 25.714C59.9495 25.714 59.9484 25.7128 59.9466 25.7101C59.9488 25.7127 59.9498 25.714 59.9496 25.714Z" fill="#071F44" fill-opacity="0.1"/>
<path fill-rule="evenodd" clip-rule="evenodd" d="M41.8716 34.2689C41.8716 33.1895 42.175 32.6258 42.4046 32.3659C42.6311 32.1095 42.8884 32.0216 43.1236 32.0265C43.3664 32.0316 43.6624 32.1395 43.9207 32.4354C44.1734 32.725 44.4619 33.2869 44.4619 34.2689V44.9278C44.4619 46.0715 45.3891 46.9986 46.5327 46.9986C47.6764 46.9986 48.6035 46.0715 48.6035 44.9278C48.6035 44.2834 48.8213 43.9592 49.0193 43.7796C49.2524 43.5683 49.6148 43.4222 50.039 43.4222C50.4631 43.4222 50.8255 43.5683 51.0586 43.7796C51.2566 43.9592 51.4744 44.2834 51.4744 44.9278V45.7693C51.4744 46.913 52.4015 47.8401 53.5452 47.8401C54.6888 47.8401 55.616 46.913 55.616 45.7693C55.616 45.0157 55.8625 44.6271 56.075 44.4231C56.3134 44.1942 56.6613 44.0533 57.0514 44.0533C57.4415 44.0533 57.7895 44.1942 58.0279 44.4231C58.2403 44.6271 58.4869 45.0157 58.4869 45.7693V46.6108C58.4869 47.7544 59.414 48.6816 60.5576 48.6816C61.7013 48.6816 62.6284 47.7544 62.6284 46.6108C62.6284 45.9664 62.8462 45.6422 63.0443 45.4626C63.2774 45.2513 63.6398 45.1052 64.0639 45.1052C64.488 45.1052 64.8504 45.2513 65.0835 45.4626C65.2816 45.6422 65.4993 45.9664 65.4993 46.6108V55.3062C65.4993 57.7121 64.784 59.9808 63.5671 61.8903C62.9524 62.8547 63.2359 64.1349 64.2004 64.7495C65.1648 65.3642 66.445 65.0806 67.0596 64.1162C68.6787 61.5757 69.6409 58.5401 69.6409 55.3062V46.6108C69.6409 44.8709 68.9821 43.4069 67.8653 42.3944C66.7836 41.4136 65.3929 40.9636 64.0639 40.9636C63.0859 40.9636 62.0746 41.2073 61.1775 41.7268C61.0875 41.6262 60.9936 41.5291 60.896 41.4354C59.8196 40.402 58.4144 39.9118 57.0514 39.9118C55.99 39.9118 54.903 40.2091 53.9656 40.8287C53.9245 40.7889 53.8828 40.7499 53.8404 40.7114C52.7587 39.7306 51.368 39.2807 50.039 39.2807C49.5627 39.2807 49.0785 39.3384 48.6035 39.4577V34.2689C48.6035 30.5654 46.2348 27.9489 43.2099 27.8859C41.7621 27.8557 40.3365 28.4515 39.3007 29.6239C38.268 30.7928 37.73 32.403 37.73 34.2689V45.4238C35.2765 43.7288 32.2533 43.9513 30.229 45.2558C29.056 46.0117 28.0499 47.244 27.8457 48.8527C27.6373 50.4953 28.3206 52.0706 29.6116 53.3749C31.3567 55.2587 33.882 58.4624 36.0152 61.2602C37.0773 62.6531 38.0267 63.9248 38.7107 64.8484C39.0526 65.31 39.3278 65.6843 39.5173 65.9427C39.612 66.0719 39.6853 66.1721 39.7347 66.2398L39.809 66.3417C39.8982 66.4644 40.0007 66.5769 40.1144 66.6771C39.8503 67.0247 39.6935 67.4584 39.6935 67.9286C39.6935 69.0723 40.6206 69.9994 41.7643 69.9994H45.6413C45.6742 70.0002 45.707 70.0002 45.7398 69.9994H63.6432C64.7869 69.9994 65.714 69.0723 65.714 67.9286C65.714 66.785 64.7869 65.8578 63.6432 65.8578H46.1248C45.2108 65.4176 44.2145 64.6535 42.9928 63.6789L42.8573 63.4939C42.6644 63.2307 42.3852 62.8511 42.039 62.3836C41.3468 61.4489 40.3854 60.1611 39.3086 58.749C37.174 55.9495 34.5233 52.5779 32.6228 50.5312C32.6054 50.5125 32.5876 50.4941 32.5696 50.476C31.9161 49.8225 31.9452 49.4458 31.9543 49.374C31.9693 49.2559 32.0676 48.998 32.4725 48.7371C33.315 48.1942 34.7467 48.1318 35.812 49.197L38.3365 51.7216C38.9288 52.3138 39.8195 52.4909 40.5932 52.1704C41.367 51.8499 41.8716 51.0948 41.8716 50.2573V34.2689Z" fill="#071F44" fill-opacity="0.2"/>
</svg>
