<svg width="72" height="72" viewBox="0 0 72 72" fill="none" xmlns="http://www.w3.org/2000/svg">
<path d="M51.9652 9C51.9652 9 49.5893 7.07928 49.0541 6.62609C45.875 3.93425 41.2285 0 36 0C30.7962 0 26.1885 3.89031 22.9675 6.60986C22.4274 7.06588 20.0334 9 20.0334 9H27.1266C29.7323 6.85266 32.9512 4.5 36 4.5C39.0614 4.5 42.2775 6.85125 44.8791 9H51.9652Z" fill="#071F44" fill-opacity="0.1"/>
<path fill-rule="evenodd" clip-rule="evenodd" d="M69.5517 23.1356C69.2733 22.9064 66.4313 20.617 63 17.858V23.6334C65.0306 25.2675 66.4875 26.4417 66.6844 26.6034C67.2033 27.0323 67.5 27.6637 67.5 28.3373V30.6295C67.5 30.6295 45.4593 48.3396 44.9465 48.7733C42.4147 50.9145 38.7153 54.0433 36 54C33.2845 54.0445 29.5821 50.9119 27.05 48.7695L4.5 30.6295V28.3331C4.5 27.6581 4.79953 27.0239 5.32125 26.595C5.49563 26.4516 6.95531 25.2759 9 23.6306V17.8566C5.55188 20.6283 2.70703 22.9205 2.46375 23.1202C1.69362 23.7532 1.07327 24.549 0.647285 25.4504C0.221295 26.3517 0.000239433 27.3362 0 28.3331V65.25C0 68.978 3.02203 72 6.75 72H65.25C68.978 72 72 68.978 72 65.25V28.3373C72 26.325 71.1028 24.4167 69.5517 23.1356ZM65.25 67.5C66.4903 67.5 67.5 66.4903 67.5 65.25V36.4078C67.5 36.4078 48.1877 51.9178 47.6574 52.3656C44.6504 54.9046 40.3572 58.5297 36 58.4986C31.6275 58.5309 27.2885 54.8607 24.3156 52.346C23.7911 51.9023 4.5 36.4092 4.5 36.4092V65.25C4.5 66.4903 5.50969 67.5 6.75 67.5H65.25Z" fill="#071F44" fill-opacity="0.1"/>
<path d="M10.318 10.318C11.1619 9.47411 12.3065 9 13.5 9H58.5C59.6935 9 60.8381 9.47411 61.682 10.318C62.5259 11.1619 63 12.3065 63 13.5V34.2459C61.6574 35.3249 60.1111 36.5678 58.5 37.863V13.5H13.5V37.8694L9 34.2495V13.5C9 12.3065 9.47411 11.1619 10.318 10.318Z" fill="#071F44" fill-opacity="0.2"/>
<path d="M23.625 27H48.375C48.9966 27 49.5 26.4966 49.5 25.875V23.625C49.5 23.0034 48.9966 22.5 48.375 22.5H23.625C23.0034 22.5 22.5 23.0034 22.5 23.625V25.875C22.5 26.4966 23.0034 27 23.625 27Z" fill="#071F44" fill-opacity="0.2"/>
<path d="M49.5 34.875V32.625C49.5 32.0034 48.9966 31.5 48.375 31.5H23.625C23.0034 31.5 22.5 32.0034 22.5 32.625V34.875C22.5 35.4966 23.0034 36 23.625 36H48.375C48.9966 36 49.5 35.4966 49.5 34.875Z" fill="#071F44" fill-opacity="0.2"/>
</svg>
