<?xml version="1.0" encoding="utf-8"?>
<!-- Generator: Adobe Illustrator 24.0.3, SVG Export Plug-In . SVG Version: 6.00 Build 0)  -->
<svg version="1.1" id="圖層_1" xmlns="http://www.w3.org/2000/svg" xmlns:xlink="http://www.w3.org/1999/xlink" x="0px" y="0px"
	 viewBox="0 0 24 24" style="enable-background:new 0 0 24 24;" xml:space="preserve">
<style type="text/css">
	.st0{fill:#F0453A;}
	.st1{fill:#FFFFFF;}
</style>
<circle class="st0" cx="12" cy="12" r="12"/>
<g>
	<path class="st1" d="M14.6,6.8c0.6,0.5,0.9,1.2,0.9,2.1c0,1.1-0.6,1.9-1.7,2.3c0.6,0.2,1.1,0.5,1.4,0.9c0.4,0.4,0.5,0.9,0.5,1.5
		c0,1-0.3,1.8-1,2.4C14.1,16.7,13.2,17,12,17c-1.1,0-1.9-0.3-2.6-0.8c-0.7-0.6-1.1-1.5-1.2-2.7h1.6c0,0.7,0.2,1.3,0.7,1.6
		c0.4,0.4,0.9,0.5,1.5,0.5c0.7,0,1.2-0.2,1.6-0.6c0.4-0.4,0.5-0.8,0.5-1.3c0-0.6-0.2-1.1-0.6-1.4c-0.4-0.3-0.9-0.4-1.6-0.4h-0.8
		v-1.2H12c0.6,0,1.1-0.1,1.5-0.4C13.8,10,14,9.6,14,9.1s-0.2-0.9-0.5-1.2c-0.3-0.3-0.8-0.4-1.4-0.4c-0.6,0-1.1,0.2-1.5,0.5
		C10.3,8.3,10,8.7,10,9.4H8.4c0.1-1,0.5-1.9,1.2-2.4c0.6-0.6,1.5-0.9,2.5-0.9C13.2,6.1,14,6.3,14.6,6.8z"/>
</g>
</svg>
