<svg width="40" height="40" viewBox="0 0 40 40" fill="none" xmlns="http://www.w3.org/2000/svg">
    <path d="M20.0053 0L7.5 20.0211L20.0263 40L32.5526 20.0211L20.0053 0Z" fill="white"/>
    <path d="M20.0051 1.26318L8.2998 20.0211L20.0261 38.7369L31.7524 20.0211L20.0051 1.26318Z" fill="black"/>
    <path d="M20.0054 4.29492L10.1948 20.0212L20.0264 35.7055L29.858 20.0212L20.0054 4.29492Z" fill="white"/>
    <path d="M20.0265 5.68408L11.0581 20.0209L20.0265 34.3157L28.9949 20.0209L20.0265 5.68408Z" fill="black"/>
    <path d="M20.0261 6.7998L11.7524 20.0209L20.0261 33.1998L28.2998 20.0209L20.0261 6.7998Z" fill="white"/>
    <path d="M20.0054 6.50537L17.5212 10.2317H22.5739L20.0054 6.50537ZM24.4897 26.6738H15.6475L12.3423 21.4317H27.6475L24.4897 26.6738ZM15.7318 13.2001H24.3633L27.5212 18.4422H12.4265L15.7318 13.2001ZM20.0054 33.7264L17.437 29.6001H22.7423L20.0054 33.7264Z"
          fill="black"/>
    <path d="M15.8789 26.6104H22.0894C23.8789 26.6104 25.4368 24.9051 25.4368 22.5683C25.4368 21.242 24.8473 20.442 24.5315 20.0209C24.8894 19.642 25.4157 19.1578 25.4157 17.2841C25.4157 15.9367 24.2789 13.3262 21.6263 13.3262H15.8789V26.6104Z"
          fill="black"/>
    <path d="M16.3423 26.1686H21.5002C23.1633 26.1686 24.9318 25.0949 24.9318 22.6107C24.9318 21.3686 24.3633 20.6318 23.9423 20.0423C24.2791 19.7055 24.9739 19.1581 24.9739 17.3897C24.9739 16.1476 24.2581 13.7476 21.2265 13.7476H16.3423V26.1686Z"
          fill="white"/>
    <path d="M16.7842 25.7263H21.1421C23.0579 25.7263 24.4894 24.7158 24.4894 22.421C24.4894 21.2842 23.6894 20.2737 23.2894 20.0421C23.6473 19.8316 24.5315 19.221 24.5315 17.5789C24.5315 16.2737 23.8368 14.1895 21.0158 14.1895H16.7842V25.7263Z"
          fill="black"/>
    <path d="M18.7002 20.9685H20.9318C21.6686 20.9685 22.3633 21.3895 22.3633 22.1685C22.3633 23.1159 21.6897 23.4317 20.8055 23.4317H18.7212L18.7002 20.9685ZM18.7002 16.3369H20.616C21.2476 16.3369 22.1318 16.4632 22.1318 17.5369C22.1318 18.7159 21.2897 18.779 20.616 18.779H18.7002V16.3369Z"
          fill="white"/>
    <path d="M19.1631 16.7788H20.5526C20.9947 16.7788 21.6262 16.7999 21.6262 17.5578C21.6262 18.2946 21.0368 18.3367 20.5526 18.3367H19.1631V16.7788ZM19.2052 21.4104H20.721C21.2052 21.4104 21.8368 21.6841 21.8368 22.2104C21.8368 22.8841 21.2262 22.9893 20.6368 22.9893H19.2052V21.4104Z"
          fill="black"/>
</svg>
