<?xml version="1.0" encoding="utf-8"?>
<svg version="1.1" xmlns="http://www.w3.org/2000/svg" x="0px" y="0px" viewBox="0 0 16 16"
     style="enable-background:new 0 0 16 16;">
    <style type="text/css">
        .st0{fill:#071F44;}
    </style>
    <g>
        <path class="st0" d="M8,12.6c-1.7,0-3.3-0.5-4.7-1.5c-1-0.7-1.8-1.6-2.4-2.7c-0.1-0.3-0.1-0.5,0-0.8c1.2-2.1,2.9-3.4,5.2-4
		c1.8-0.5,3.6-0.3,5.3,0.5C13,4.9,14.2,6,15,7.5c0.2,0.3,0.2,0.7,0,1c-0.5,0.9-1.2,1.7-2,2.4c-1,0.8-2.2,1.4-3.5,1.6
		C9,12.6,8.5,12.6,8,12.6z M7.8,11.5c0.1,0,0.1,0,0.2,0c0.1,0,0.1,0,0.2,0c1.1,0,2.1-0.3,3-0.8c1.2-0.6,2.1-1.5,2.8-2.6
		c0-0.1,0-0.1,0-0.2c-0.7-1.2-1.6-2-2.8-2.6c-1-0.5-2-0.7-3.2-0.7c-0.3,0-0.7,0-1,0.1C6.2,4.8,5.5,5,4.9,5.3
		C3.7,5.9,2.8,6.8,2.1,7.9c0,0.1,0,0.1,0,0.2c0.4,0.6,0.8,1.2,1.3,1.6C4.7,10.8,6.1,11.4,7.8,11.5z"/>
        <path class="st0" d="M5.2,8.1c0-0.2,0-0.5,0.1-0.7c0-0.1,0-0.1,0.1-0.1c0.8,0.3,1.5,0,1.9-0.7c0.2-0.4,0.1-0.7,0-1.1
		c0-0.1,0-0.1,0.1-0.1c0.2,0,0.5-0.1,0.7-0.1c0.4,0,0.9,0.1,1.3,0.3c0.8,0.4,1.4,1.1,1.5,2.1c0.1,0.9-0.2,1.6-0.8,2.2
		c-0.5,0.5-1.2,0.8-1.9,0.8c-1.4,0-2.5-0.9-2.8-2.1C5.3,8.4,5.2,8.3,5.2,8.1z"/>
    </g>
</svg>
