<svg width="82" height="73" viewBox="0 0 82 73" fill="none" xmlns="http://www.w3.org/2000/svg">
<path d="M19 47L11.5 45.4999C11.048 45.4159 10.6646 45.8254 10.7944 46.2533L13 52.4999C13.0633 52.7083 13.2384 52.8667 13.4571 52.9136L19 54.0918V47Z" fill="url(#paint0_linear_828_9746)"/>
<g filter="url(#filter0_ii_828_9746)">
<path d="M17 35.3493L7.04202 33.3105C6.59849 33.2264 6.22217 33.6359 6.34961 34.064L9.53484 43.0828C9.59859 43.2969 9.7781 43.4579 9.99998 43.5L17 45.0022V35.3493Z" fill="url(#paint1_linear_828_9746)"/>
</g>
<path d="M17 21.6067L0.786909 16.0326C0.329457 15.8754 -0.110989 16.3124 0.0251029 16.7885L5.12673 31.1388C5.18981 31.3595 5.36742 31.5254 5.58696 31.5687L17 33.9265V21.6067Z" fill="url(#paint2_linear_828_9746)"/>
<g filter="url(#filter1_ii_828_9746)">
<path fill-rule="evenodd" clip-rule="evenodd" d="M6.85875 29.4269L16 31.2773V23.4758L3.30112 19.2785L6.85875 29.4269ZM2.70127 18.0271L17 22.7531V32.5L6.41013 30.3563C6.21449 30.3204 6.05621 30.1829 6 30L2.02237 18.6536C1.90109 18.2589 2.2936 17.8967 2.70127 18.0271Z" fill="url(#paint3_linear_828_9746)"/>
</g>
<path d="M63 47L70.5 45.4999C70.952 45.4159 71.3354 45.8254 71.2056 46.2533L69 52.4999C68.9367 52.7083 68.7616 52.8667 68.5429 52.9136L63 54.0922V47Z" fill="url(#paint4_linear_828_9746)"/>
<g filter="url(#filter2_ii_828_9746)">
<path d="M65 35.3493L74.958 33.3105C75.4015 33.2264 75.7778 33.6359 75.6504 34.064L72.4652 43.0828C72.4014 43.2969 72.2219 43.4579 72 43.5L65 45.0022V35.3493Z" fill="url(#paint5_linear_828_9746)"/>
</g>
<path d="M65 21.6067L81.2131 16.0326C81.6705 15.8754 82.111 16.3124 81.9749 16.7885L76.8733 31.1388C76.8102 31.3595 76.6326 31.5254 76.413 31.5687L65 33.9265V21.6067Z" fill="url(#paint6_linear_828_9746)"/>
<g filter="url(#filter3_ii_828_9746)">
<path fill-rule="evenodd" clip-rule="evenodd" d="M75.1413 29.4269L66 31.2773V23.4758L78.6989 19.2785L75.1413 29.4269ZM79.2987 18.0271L65 22.7531V32.5L75.5899 30.3563C75.7855 30.3204 75.9438 30.1829 76 30L79.9776 18.6536C80.0989 18.2589 79.7064 17.8967 79.2987 18.0271Z" fill="url(#paint7_linear_828_9746)"/>
</g>
<g filter="url(#filter4_di_828_9746)">
<path d="M20.0001 15L20 22.7941L33.9531 14.7941V6.99998L20.0001 15Z" fill="url(#paint8_linear_828_9746)"/>
</g>
<g filter="url(#filter5_di_828_9746)">
<path d="M61.9999 15L62 22.7941L48.0469 14.7941V6.99998L61.9999 15Z" fill="url(#paint9_linear_828_9746)"/>
</g>
<g filter="url(#filter6_dd_828_9746)">
<mask id="mask0_828_9746" style="mask-type:alpha" maskUnits="userSpaceOnUse" x="15" y="7" width="52" height="60">
<path d="M43.5 65.5566C41.953 66.4498 40.047 66.4498 38.5 65.5566L17.5193 53.4434C15.9722 52.5502 15.0193 50.8996 15.0193 49.1133L15.0192 24.8868C15.0192 23.1004 15.9722 21.4498 17.5192 20.5566L38.5 8.44338C40.047 7.55022 41.953 7.55022 43.5 8.44338L64.4808 20.5566C66.0278 21.4498 66.9808 23.1004 66.9808 24.8867L66.9808 49.1132C66.9808 50.8996 66.0278 52.5502 64.4808 53.4434L43.5 65.5566Z" fill="#7E878C"/>
</mask>
<g mask="url(#mask0_828_9746)">
<g filter="url(#filter7_ii_828_9746)">
<path d="M43.5 65.5566C41.953 66.4498 40.047 66.4498 38.5 65.5566L17.5193 53.4434C15.9722 52.5502 15.0193 50.8996 15.0193 49.1133L15.0192 24.8868C15.0192 23.1004 15.9722 21.4498 17.5192 20.5566L38.5 8.44338C40.047 7.55022 41.953 7.55022 43.5 8.44338L64.4808 20.5566C66.0278 21.4498 66.9808 23.1004 66.9808 24.8867L66.9808 49.1132C66.9808 50.8996 66.0278 52.5502 64.4808 53.4434L43.5 65.5566Z" fill="#61676B"/>
</g>
<g filter="url(#filter8_d_828_9746)">
<path d="M43.5 61.5566C41.953 62.4498 40.047 62.4498 38.5 61.5566L20.9834 51.4434C19.4363 50.5502 18.4834 48.8996 18.4834 47.1133L18.4833 26.8868C18.4833 25.1004 19.4363 23.4498 20.9833 22.5566L38.5 12.4434C40.047 11.5502 41.953 11.5502 43.5 12.4434L61.0167 22.5566C62.5637 23.4498 63.5167 25.1004 63.5167 26.8867L63.5167 47.1132C63.5167 48.8996 62.5637 50.5502 61.0167 51.4434L43.5 61.5566Z" fill="url(#paint10_linear_828_9746)"/>
</g>
<g opacity="0.8" filter="url(#filter9_di_828_9746)">
<path d="M42 54.4227C41.3812 54.7799 40.6188 54.7799 40 54.4227L26.4115 46.5774C25.7927 46.2201 25.4115 45.5598 25.4115 44.8453L25.4115 29.1547C25.4115 28.4402 25.7927 27.7799 26.4115 27.4227L40 19.5774C40.6188 19.2201 41.3812 19.2201 42 19.5774L55.5885 27.4226C56.2073 27.7799 56.5885 28.4402 56.5885 29.1547L56.5885 44.8453C56.5885 45.5598 56.2073 46.2201 55.5885 46.5774L42 54.4227Z" fill="#E8F0F5"/>
</g>
<g style="mix-blend-mode:darken" opacity="0.2">
<path d="M15.0193 52L41 67V37L15.0193 52Z" fill="url(#paint11_linear_828_9746)"/>
</g>
<g style="mix-blend-mode:darken" opacity="0.3">
<path d="M15.0193 52L41 37L15.0193 22V52Z" fill="url(#paint12_linear_828_9746)"/>
</g>
<g style="mix-blend-mode:lighten" opacity="0.4">
<path d="M15.0193 22L41 37V7L15.0193 22Z" fill="url(#paint13_linear_828_9746)"/>
</g>
<g style="mix-blend-mode:darken" opacity="0.4">
<path d="M66.9807 52L41 67V37L66.9807 52Z" fill="url(#paint14_linear_828_9746)"/>
</g>
<g style="mix-blend-mode:darken" opacity="0.45">
<path d="M66.9807 52L41 37L66.9807 22V52Z" fill="url(#paint15_linear_828_9746)"/>
</g>
<g style="mix-blend-mode:darken" opacity="0.3">
<path d="M66.9807 22L41 37V7L66.9807 22Z" fill="url(#paint16_linear_828_9746)"/>
</g>
<mask id="mask1_828_9746" style="mask-type:alpha" maskUnits="userSpaceOnUse" x="18" y="11" width="46" height="52">
<path fill-rule="evenodd" clip-rule="evenodd" d="M43.4988 55.559C41.9524 56.4508 40.0478 56.4505 38.5017 55.5581L26.1738 48.4432C24.6264 47.5502 23.6731 45.8993 23.6731 44.1127V29.8905C23.6731 28.1041 24.6261 26.4535 26.1731 25.5603L39.0012 18.154C40.2381 17.4399 41.7621 17.4395 42.9994 18.153L55.8385 25.557C57.3867 26.4499 58.3407 28.1012 58.3407 29.8884V44.1116C58.3407 45.8988 57.3867 47.5501 55.8385 48.443L43.4988 55.559ZM63.5167 47.1132C63.5167 48.8996 62.5637 50.5502 61.0167 51.4434L43.5001 61.5566C41.9531 62.4498 40.0471 62.4498 38.5001 61.5566L20.9834 51.4434C19.4364 50.5502 18.4834 48.8996 18.4834 47.1133L18.4834 26.8868C18.4834 25.1004 19.4364 23.4498 20.9834 22.5566L38.5001 12.4434C40.0471 11.5502 41.953 11.5502 43.5001 12.4434L61.0167 22.5566C62.5637 23.4498 63.5167 25.1004 63.5167 26.8867V47.1132Z" fill="black"/>
</mask>
<g mask="url(#mask1_828_9746)">
<path opacity="0.8" d="M39.0001 18.9283L25.5 26C25.5 26 39.5 17 39 15.0001C38.5 13.0001 21.4294 22.3053 18.8335 23.7979L38.5001 12.4434C39.845 11.667 41.4612 11.5655 42.8769 12.1391C42.8769 12.1391 43.3147 15.7735 44 17C44.6854 18.2265 49.7584 22.8302 49.7584 22.8302L43.0001 18.9283C41.7625 18.2137 40.2377 18.2137 39.0001 18.9283Z" fill="white"/>
</g>
<g opacity="0.8" filter="url(#filter10_di_828_9746)">
<path fill-rule="evenodd" clip-rule="evenodd" d="M26.6795 46.4226L40 54.1132C40.6188 54.4705 41.3812 54.4705 42 54.1132L55.3205 46.4226C55.9393 46.0654 56.3205 45.4051 56.3205 44.6906L56.3205 29.3094C56.3205 28.5948 55.9393 27.9346 55.3205 27.5773L42 19.8867C41.3812 19.5295 40.6188 19.5295 40 19.8867L26.6795 27.5773C26.0607 27.9346 25.6795 28.5948 25.6795 29.3094L25.6795 44.6906C25.6795 45.4051 26.0607 46.0654 26.6795 46.4226ZM39 55.8453C40.2376 56.5598 41.7624 56.5598 43 55.8453L56.3205 48.1547C57.5581 47.4402 58.3205 46.1196 58.3205 44.6906V39.6794L60.2928 37.7071C60.6833 37.3166 60.6833 36.6834 60.2928 36.2929L58.3205 34.3206V29.3094C58.3205 27.8803 57.5581 26.5598 56.3205 25.8453L43 18.1547C41.7624 17.4401 40.2376 17.4401 39 18.1547L25.6795 25.8453C24.4419 26.5598 23.6795 27.8803 23.6795 29.3094L23.6795 34.3204L21.707 36.2929C21.3164 36.6834 21.3164 37.3166 21.707 37.7071L23.6795 39.6796L23.6795 44.6906C23.6795 46.1196 24.4419 47.4402 25.6795 48.1547L39 55.8453Z" fill="#494E52"/>
</g>
<g filter="url(#filter11_dd_828_9746)">
<path d="M34.7524 43L36.4883 46.9419L38.1802 43H39.4238L36.7124 49.2183H36.2993L33.5 43H34.7524Z" fill="white"/>
<path d="M42.0774 43V49.1392H40.8909V43H42.0774Z" fill="white"/>
<path d="M46.5504 43C47.1246 43 47.5904 43.167 47.9478 43.501C48.3082 43.832 48.4883 44.2598 48.4883 44.7842C48.4883 45.3145 48.3067 45.7437 47.9434 46.0718C47.5801 46.3999 47.1011 46.564 46.5064 46.564H45.3638V49.1392H44.1773V43H46.5504ZM46.2559 45.6367C46.5723 45.6367 46.8184 45.5649 46.9942 45.4214C47.1729 45.2749 47.2623 45.0596 47.2623 44.7754C47.2623 44.21 46.899 43.9272 46.1724 43.9272H45.3638V45.6367H46.2559Z" fill="white"/>
</g>
</g>
</g>
<g filter="url(#filter12_dd_828_9746)">
<path d="M39.3663 30.244H41.6103C42.7836 30.244 43.6783 30.5227 44.2943 31.08C44.9103 31.6227 45.2183 32.4147 45.2183 33.456V35.876C45.2183 36.932 44.9103 37.7387 44.2943 38.296C43.693 38.8534 42.8056 39.1174 41.6323 39.088L36.6823 39V36.756H42.2923C42.483 36.756 42.5783 36.6534 42.5783 36.448V32.774C42.5783 32.5834 42.483 32.488 42.2923 32.488H36.7923V25.03H44.6463V27.274H39.3663V30.244Z" fill="white"/>
</g>
<defs>
<filter id="filter0_ii_828_9746" x="5.92446" y="32.8994" width="11.4755" height="12.5028" filterUnits="userSpaceOnUse" color-interpolation-filters="sRGB">
<feFlood flood-opacity="0" result="BackgroundImageFix"/>
<feBlend mode="normal" in="SourceGraphic" in2="BackgroundImageFix" result="shape"/>
<feColorMatrix in="SourceAlpha" type="matrix" values="0 0 0 0 0 0 0 0 0 0 0 0 0 0 0 0 0 0 127 0" result="hardAlpha"/>
<feOffset dx="0.6" dy="-0.6"/>
<feGaussianBlur stdDeviation="0.2"/>
<feComposite in2="hardAlpha" operator="arithmetic" k2="-1" k3="1"/>
<feColorMatrix type="matrix" values="0 0 0 0 0.518976 0 0 0 0 0.636942 0 0 0 0 0.745833 0 0 0 1 0"/>
<feBlend mode="normal" in2="shape" result="effect1_innerShadow_828_9746"/>
<feColorMatrix in="SourceAlpha" type="matrix" values="0 0 0 0 0 0 0 0 0 0 0 0 0 0 0 0 0 0 127 0" result="hardAlpha"/>
<feOffset dx="-0.4" dy="0.4"/>
<feGaussianBlur stdDeviation="0.2"/>
<feComposite in2="hardAlpha" operator="arithmetic" k2="-1" k3="1"/>
<feColorMatrix type="matrix" values="0 0 0 0 1 0 0 0 0 1 0 0 0 0 1 0 0 0 0.6 0"/>
<feBlend mode="normal" in2="effect1_innerShadow_828_9746" result="effect2_innerShadow_828_9746"/>
</filter>
<filter id="filter1_ii_828_9746" x="1.8" y="17.8" width="15.4" height="14.9" filterUnits="userSpaceOnUse" color-interpolation-filters="sRGB">
<feFlood flood-opacity="0" result="BackgroundImageFix"/>
<feBlend mode="normal" in="SourceGraphic" in2="BackgroundImageFix" result="shape"/>
<feColorMatrix in="SourceAlpha" type="matrix" values="0 0 0 0 0 0 0 0 0 0 0 0 0 0 0 0 0 0 127 0" result="hardAlpha"/>
<feOffset dx="-0.2" dy="-0.2"/>
<feGaussianBlur stdDeviation="0.1"/>
<feComposite in2="hardAlpha" operator="arithmetic" k2="-1" k3="1"/>
<feColorMatrix type="matrix" values="0 0 0 0 0.771285 0 0 0 0 0.884592 0 0 0 0 0.954167 0 0 0 1 0"/>
<feBlend mode="normal" in2="shape" result="effect1_innerShadow_828_9746"/>
<feColorMatrix in="SourceAlpha" type="matrix" values="0 0 0 0 0 0 0 0 0 0 0 0 0 0 0 0 0 0 127 0" result="hardAlpha"/>
<feOffset dx="0.4" dy="0.4"/>
<feGaussianBlur stdDeviation="0.1"/>
<feComposite in2="hardAlpha" operator="arithmetic" k2="-1" k3="1"/>
<feColorMatrix type="matrix" values="0 0 0 0 0.175903 0 0 0 0 0.443347 0 0 0 0 0.620833 0 0 0 0.85 0"/>
<feBlend mode="normal" in2="effect1_innerShadow_828_9746" result="effect2_innerShadow_828_9746"/>
</filter>
<filter id="filter2_ii_828_9746" x="64.6" y="32.8994" width="11.4755" height="12.5028" filterUnits="userSpaceOnUse" color-interpolation-filters="sRGB">
<feFlood flood-opacity="0" result="BackgroundImageFix"/>
<feBlend mode="normal" in="SourceGraphic" in2="BackgroundImageFix" result="shape"/>
<feColorMatrix in="SourceAlpha" type="matrix" values="0 0 0 0 0 0 0 0 0 0 0 0 0 0 0 0 0 0 127 0" result="hardAlpha"/>
<feOffset dx="-0.6" dy="-0.6"/>
<feGaussianBlur stdDeviation="0.2"/>
<feComposite in2="hardAlpha" operator="arithmetic" k2="-1" k3="1"/>
<feColorMatrix type="matrix" values="0 0 0 0 0.518976 0 0 0 0 0.636942 0 0 0 0 0.745833 0 0 0 1 0"/>
<feBlend mode="normal" in2="shape" result="effect1_innerShadow_828_9746"/>
<feColorMatrix in="SourceAlpha" type="matrix" values="0 0 0 0 0 0 0 0 0 0 0 0 0 0 0 0 0 0 127 0" result="hardAlpha"/>
<feOffset dx="0.4" dy="0.4"/>
<feGaussianBlur stdDeviation="0.2"/>
<feComposite in2="hardAlpha" operator="arithmetic" k2="-1" k3="1"/>
<feColorMatrix type="matrix" values="0 0 0 0 1 0 0 0 0 1 0 0 0 0 1 0 0 0 0.6 0"/>
<feBlend mode="normal" in2="effect1_innerShadow_828_9746" result="effect2_innerShadow_828_9746"/>
</filter>
<filter id="filter3_ii_828_9746" x="64.8" y="17.8" width="15.4" height="14.9" filterUnits="userSpaceOnUse" color-interpolation-filters="sRGB">
<feFlood flood-opacity="0" result="BackgroundImageFix"/>
<feBlend mode="normal" in="SourceGraphic" in2="BackgroundImageFix" result="shape"/>
<feColorMatrix in="SourceAlpha" type="matrix" values="0 0 0 0 0 0 0 0 0 0 0 0 0 0 0 0 0 0 127 0" result="hardAlpha"/>
<feOffset dx="0.2" dy="-0.2"/>
<feGaussianBlur stdDeviation="0.1"/>
<feComposite in2="hardAlpha" operator="arithmetic" k2="-1" k3="1"/>
<feColorMatrix type="matrix" values="0 0 0 0 0.771285 0 0 0 0 0.884592 0 0 0 0 0.954167 0 0 0 1 0"/>
<feBlend mode="normal" in2="shape" result="effect1_innerShadow_828_9746"/>
<feColorMatrix in="SourceAlpha" type="matrix" values="0 0 0 0 0 0 0 0 0 0 0 0 0 0 0 0 0 0 127 0" result="hardAlpha"/>
<feOffset dx="-0.4" dy="0.4"/>
<feGaussianBlur stdDeviation="0.1"/>
<feComposite in2="hardAlpha" operator="arithmetic" k2="-1" k3="1"/>
<feColorMatrix type="matrix" values="0 0 0 0 0.175903 0 0 0 0 0.443347 0 0 0 0 0.620833 0 0 0 0.85 0"/>
<feBlend mode="normal" in2="effect1_innerShadow_828_9746" result="effect2_innerShadow_828_9746"/>
</filter>
<filter id="filter4_di_828_9746" x="19.6" y="7" width="14.3531" height="16.1941" filterUnits="userSpaceOnUse" color-interpolation-filters="sRGB">
<feFlood flood-opacity="0" result="BackgroundImageFix"/>
<feColorMatrix in="SourceAlpha" type="matrix" values="0 0 0 0 0 0 0 0 0 0 0 0 0 0 0 0 0 0 127 0" result="hardAlpha"/>
<feOffset dx="-0.4" dy="0.4"/>
<feComposite in2="hardAlpha" operator="out"/>
<feColorMatrix type="matrix" values="0 0 0 0 0.437847 0 0 0 0 0.496528 0 0 0 0 0.541667 0 0 0 1 0"/>
<feBlend mode="normal" in2="BackgroundImageFix" result="effect1_dropShadow_828_9746"/>
<feBlend mode="normal" in="SourceGraphic" in2="effect1_dropShadow_828_9746" result="shape"/>
<feColorMatrix in="SourceAlpha" type="matrix" values="0 0 0 0 0 0 0 0 0 0 0 0 0 0 0 0 0 0 127 0" result="hardAlpha"/>
<feOffset dy="0.6"/>
<feComposite in2="hardAlpha" operator="arithmetic" k2="-1" k3="1"/>
<feColorMatrix type="matrix" values="0 0 0 0 1 0 0 0 0 1 0 0 0 0 1 0 0 0 0.7 0"/>
<feBlend mode="normal" in2="shape" result="effect2_innerShadow_828_9746"/>
</filter>
<filter id="filter5_di_828_9746" x="47.6469" y="7" width="14.3531" height="16.1941" filterUnits="userSpaceOnUse" color-interpolation-filters="sRGB">
<feFlood flood-opacity="0" result="BackgroundImageFix"/>
<feColorMatrix in="SourceAlpha" type="matrix" values="0 0 0 0 0 0 0 0 0 0 0 0 0 0 0 0 0 0 127 0" result="hardAlpha"/>
<feOffset dx="-0.4" dy="0.4"/>
<feComposite in2="hardAlpha" operator="out"/>
<feColorMatrix type="matrix" values="0 0 0 0 0.437847 0 0 0 0 0.496528 0 0 0 0 0.541667 0 0 0 1 0"/>
<feBlend mode="normal" in2="BackgroundImageFix" result="effect1_dropShadow_828_9746"/>
<feBlend mode="normal" in="SourceGraphic" in2="effect1_dropShadow_828_9746" result="shape"/>
<feColorMatrix in="SourceAlpha" type="matrix" values="0 0 0 0 0 0 0 0 0 0 0 0 0 0 0 0 0 0 127 0" result="hardAlpha"/>
<feOffset dy="0.6"/>
<feComposite in2="hardAlpha" operator="arithmetic" k2="-1" k3="1"/>
<feColorMatrix type="matrix" values="0 0 0 0 1 0 0 0 0 1 0 0 0 0 1 0 0 0 0.7 0"/>
<feBlend mode="normal" in2="shape" result="effect2_innerShadow_828_9746"/>
</filter>
<filter id="filter6_dd_828_9746" x="13.0192" y="5.77356" width="59.9615" height="66.4529" filterUnits="userSpaceOnUse" color-interpolation-filters="sRGB">
<feFlood flood-opacity="0" result="BackgroundImageFix"/>
<feColorMatrix in="SourceAlpha" type="matrix" values="0 0 0 0 0 0 0 0 0 0 0 0 0 0 0 0 0 0 127 0" result="hardAlpha"/>
<feOffset dx="2" dy="2"/>
<feGaussianBlur stdDeviation="2"/>
<feComposite in2="hardAlpha" operator="out"/>
<feColorMatrix type="matrix" values="0 0 0 0 0 0 0 0 0 0 0 0 0 0 0 0 0 0 0.4 0"/>
<feBlend mode="normal" in2="BackgroundImageFix" result="effect1_dropShadow_828_9746"/>
<feColorMatrix in="SourceAlpha" type="matrix" values="0 0 0 0 0 0 0 0 0 0 0 0 0 0 0 0 0 0 127 0" result="hardAlpha"/>
<feOffset dy="1"/>
<feGaussianBlur stdDeviation="0.5"/>
<feComposite in2="hardAlpha" operator="out"/>
<feColorMatrix type="matrix" values="0 0 0 0 0 0 0 0 0 0 0 0 0 0 0 0 0 0 0.2 0"/>
<feBlend mode="normal" in2="effect1_dropShadow_828_9746" result="effect2_dropShadow_828_9746"/>
<feBlend mode="normal" in="SourceGraphic" in2="effect2_dropShadow_828_9746" result="shape"/>
</filter>
<filter id="filter7_ii_828_9746" x="14.5192" y="7.27356" width="52.9615" height="59.4529" filterUnits="userSpaceOnUse" color-interpolation-filters="sRGB">
<feFlood flood-opacity="0" result="BackgroundImageFix"/>
<feBlend mode="normal" in="SourceGraphic" in2="BackgroundImageFix" result="shape"/>
<feColorMatrix in="SourceAlpha" type="matrix" values="0 0 0 0 0 0 0 0 0 0 0 0 0 0 0 0 0 0 127 0" result="hardAlpha"/>
<feOffset dx="-0.5" dy="-0.5"/>
<feGaussianBlur stdDeviation="0.5"/>
<feComposite in2="hardAlpha" operator="arithmetic" k2="-1" k3="1"/>
<feColorMatrix type="matrix" values="0 0 0 0 0.0777778 0 0 0 0 0.171111 0 0 0 0 0.233333 0 0 0 1 0"/>
<feBlend mode="normal" in2="shape" result="effect1_innerShadow_828_9746"/>
<feColorMatrix in="SourceAlpha" type="matrix" values="0 0 0 0 0 0 0 0 0 0 0 0 0 0 0 0 0 0 127 0" result="hardAlpha"/>
<feOffset dx="0.5" dy="0.5"/>
<feGaussianBlur stdDeviation="0.5"/>
<feComposite in2="hardAlpha" operator="arithmetic" k2="-1" k3="1"/>
<feColorMatrix type="matrix" values="0 0 0 0 0.798681 0 0 0 0 0.864609 0 0 0 0 0.904167 0 0 0 1 0"/>
<feBlend mode="normal" in2="effect1_innerShadow_828_9746" result="effect2_innerShadow_828_9746"/>
</filter>
<filter id="filter8_d_828_9746" x="16.7833" y="10.0736" width="49.0333" height="54.4529" filterUnits="userSpaceOnUse" color-interpolation-filters="sRGB">
<feFlood flood-opacity="0" result="BackgroundImageFix"/>
<feColorMatrix in="SourceAlpha" type="matrix" values="0 0 0 0 0 0 0 0 0 0 0 0 0 0 0 0 0 0 127 0" result="hardAlpha"/>
<feOffset dx="0.3" dy="0.3"/>
<feGaussianBlur stdDeviation="1"/>
<feComposite in2="hardAlpha" operator="out"/>
<feColorMatrix type="matrix" values="0 0 0 0 0.159722 0 0 0 0 0.28373 0 0 0 0 0.333333 0 0 0 1 0"/>
<feBlend mode="normal" in2="BackgroundImageFix" result="effect1_dropShadow_828_9746"/>
<feBlend mode="normal" in="SourceGraphic" in2="effect1_dropShadow_828_9746" result="shape"/>
</filter>
<filter id="filter9_di_828_9746" x="25.4116" y="19.3094" width="32.3769" height="36.4811" filterUnits="userSpaceOnUse" color-interpolation-filters="sRGB">
<feFlood flood-opacity="0" result="BackgroundImageFix"/>
<feColorMatrix in="SourceAlpha" type="matrix" values="0 0 0 0 0 0 0 0 0 0 0 0 0 0 0 0 0 0 127 0" result="hardAlpha"/>
<feOffset dx="0.7" dy="0.6"/>
<feGaussianBlur stdDeviation="0.25"/>
<feComposite in2="hardAlpha" operator="out"/>
<feColorMatrix type="matrix" values="0 0 0 0 0.12 0 0 0 0 0.288 0 0 0 0 0.4 0 0 0 1 0"/>
<feBlend mode="normal" in2="BackgroundImageFix" result="effect1_dropShadow_828_9746"/>
<feBlend mode="normal" in="SourceGraphic" in2="effect1_dropShadow_828_9746" result="shape"/>
<feColorMatrix in="SourceAlpha" type="matrix" values="0 0 0 0 0 0 0 0 0 0 0 0 0 0 0 0 0 0 127 0" result="hardAlpha"/>
<feOffset dx="1" dy="0.6"/>
<feGaussianBlur stdDeviation="0.25"/>
<feComposite in2="hardAlpha" operator="arithmetic" k2="-1" k3="1"/>
<feColorMatrix type="matrix" values="0 0 0 0 1 0 0 0 0 1 0 0 0 0 1 0 0 0 1 0"/>
<feBlend mode="normal" in2="shape" result="effect2_innerShadow_828_9746"/>
</filter>
<filter id="filter10_di_828_9746" x="21.4141" y="17.6188" width="39.4716" height="39.0625" filterUnits="userSpaceOnUse" color-interpolation-filters="sRGB">
<feFlood flood-opacity="0" result="BackgroundImageFix"/>
<feColorMatrix in="SourceAlpha" type="matrix" values="0 0 0 0 0 0 0 0 0 0 0 0 0 0 0 0 0 0 127 0" result="hardAlpha"/>
<feOffset dx="0.3" dy="0.3"/>
<feComposite in2="hardAlpha" operator="out"/>
<feColorMatrix type="matrix" values="0 0 0 0 0.917647 0 0 0 0 0.941176 0 0 0 0 0.960784 0 0 0 1 0"/>
<feBlend mode="normal" in2="BackgroundImageFix" result="effect1_dropShadow_828_9746"/>
<feBlend mode="normal" in="SourceGraphic" in2="effect1_dropShadow_828_9746" result="shape"/>
<feColorMatrix in="SourceAlpha" type="matrix" values="0 0 0 0 0 0 0 0 0 0 0 0 0 0 0 0 0 0 127 0" result="hardAlpha"/>
<feOffset dx="0.2" dy="0.2"/>
<feGaussianBlur stdDeviation="0.5"/>
<feComposite in2="hardAlpha" operator="arithmetic" k2="-1" k3="1"/>
<feColorMatrix type="matrix" values="0 0 0 0 0.0364583 0 0 0 0 0.135417 0 0 0 0 0.175 0 0 0 1 0"/>
<feBlend mode="normal" in2="shape" result="effect2_innerShadow_828_9746"/>
</filter>
<filter id="filter11_dd_828_9746" x="29.3" y="38.4" width="24.9883" height="16.2183" filterUnits="userSpaceOnUse" color-interpolation-filters="sRGB">
<feFlood flood-opacity="0" result="BackgroundImageFix"/>
<feColorMatrix in="SourceAlpha" type="matrix" values="0 0 0 0 0 0 0 0 0 0 0 0 0 0 0 0 0 0 127 0" result="hardAlpha"/>
<feOffset dx="0.8" dy="0.4"/>
<feGaussianBlur stdDeviation="2.5"/>
<feComposite in2="hardAlpha" operator="out"/>
<feColorMatrix type="matrix" values="0 0 0 0 0.329412 0 0 0 0 0.352941 0 0 0 0 0.368627 0 0 0 0.6 0"/>
<feBlend mode="normal" in2="BackgroundImageFix" result="effect1_dropShadow_828_9746"/>
<feColorMatrix in="SourceAlpha" type="matrix" values="0 0 0 0 0 0 0 0 0 0 0 0 0 0 0 0 0 0 127 0" result="hardAlpha"/>
<feOffset dx="0.2" dy="0.2"/>
<feGaussianBlur stdDeviation="1"/>
<feComposite in2="hardAlpha" operator="out"/>
<feColorMatrix type="matrix" values="0 0 0 0 0.329412 0 0 0 0 0.352941 0 0 0 0 0.368627 0 0 0 1 0"/>
<feBlend mode="normal" in2="effect1_dropShadow_828_9746" result="effect2_dropShadow_828_9746"/>
<feBlend mode="normal" in="SourceGraphic" in2="effect2_dropShadow_828_9746" result="shape"/>
</filter>
<filter id="filter12_dd_828_9746" x="32.4823" y="20.43" width="18.536" height="24.0602" filterUnits="userSpaceOnUse" color-interpolation-filters="sRGB">
<feFlood flood-opacity="0" result="BackgroundImageFix"/>
<feColorMatrix in="SourceAlpha" type="matrix" values="0 0 0 0 0 0 0 0 0 0 0 0 0 0 0 0 0 0 127 0" result="hardAlpha"/>
<feOffset dx="0.8" dy="0.4"/>
<feGaussianBlur stdDeviation="2.5"/>
<feComposite in2="hardAlpha" operator="out"/>
<feColorMatrix type="matrix" values="0 0 0 0 0.329412 0 0 0 0 0.352941 0 0 0 0 0.368627 0 0 0 0.6 0"/>
<feBlend mode="normal" in2="BackgroundImageFix" result="effect1_dropShadow_828_9746"/>
<feColorMatrix in="SourceAlpha" type="matrix" values="0 0 0 0 0 0 0 0 0 0 0 0 0 0 0 0 0 0 127 0" result="hardAlpha"/>
<feOffset dx="0.2" dy="0.2"/>
<feGaussianBlur stdDeviation="1"/>
<feComposite in2="hardAlpha" operator="out"/>
<feColorMatrix type="matrix" values="0 0 0 0 0.329412 0 0 0 0 0.352941 0 0 0 0 0.368627 0 0 0 1 0"/>
<feBlend mode="normal" in2="effect1_dropShadow_828_9746" result="effect2_dropShadow_828_9746"/>
<feBlend mode="normal" in="SourceGraphic" in2="effect2_dropShadow_828_9746" result="shape"/>
</filter>
<linearGradient id="paint0_linear_828_9746" x1="10.7688" y1="54.0917" x2="19" y2="54.0917" gradientUnits="userSpaceOnUse">
<stop stop-color="#44C7FF"/>
<stop offset="1" stop-color="#1F25C1"/>
</linearGradient>
<linearGradient id="paint1_linear_828_9746" x1="17" y1="45" x2="7" y2="34" gradientUnits="userSpaceOnUse">
<stop offset="0.153144" stop-color="#ABBCC8"/>
<stop offset="0.513355" stop-color="#E1E9EE"/>
<stop offset="1" stop-color="#B6CFDF"/>
</linearGradient>
<linearGradient id="paint2_linear_828_9746" x1="4.50788e-08" y1="33.9264" x2="17" y2="33.9264" gradientUnits="userSpaceOnUse">
<stop stop-color="#44C7FF"/>
<stop offset="1" stop-color="#1F25C1"/>
</linearGradient>
<linearGradient id="paint3_linear_828_9746" x1="18.1952" y1="29.7466" x2="-0.267491" y2="22.0539" gradientUnits="userSpaceOnUse">
<stop offset="0.260601" stop-color="#73AED5"/>
<stop offset="0.63881" stop-color="#E3EDF3"/>
<stop offset="1" stop-color="#95D2FB"/>
</linearGradient>
<linearGradient id="paint4_linear_828_9746" x1="71.2312" y1="54.0922" x2="63" y2="54.0922" gradientUnits="userSpaceOnUse">
<stop stop-color="#44C7FF"/>
<stop offset="1" stop-color="#1F25C1"/>
</linearGradient>
<linearGradient id="paint5_linear_828_9746" x1="65" y1="45" x2="75" y2="34" gradientUnits="userSpaceOnUse">
<stop offset="0.153144" stop-color="#ABBCC8"/>
<stop offset="0.513355" stop-color="#E1E9EE"/>
<stop offset="1" stop-color="#B6CFDF"/>
</linearGradient>
<linearGradient id="paint6_linear_828_9746" x1="82" y1="33.9264" x2="65" y2="33.9264" gradientUnits="userSpaceOnUse">
<stop stop-color="#44C7FF"/>
<stop offset="1" stop-color="#1F25C1"/>
</linearGradient>
<linearGradient id="paint7_linear_828_9746" x1="63.8048" y1="29.7466" x2="82.2675" y2="22.0539" gradientUnits="userSpaceOnUse">
<stop offset="0.260601" stop-color="#73AED5"/>
<stop offset="0.63881" stop-color="#E3EDF3"/>
<stop offset="1" stop-color="#95D2FB"/>
</linearGradient>
<linearGradient id="paint8_linear_828_9746" x1="19" y1="9.5" x2="33.8172" y2="7.85423" gradientUnits="userSpaceOnUse">
<stop offset="0.206068" stop-color="#828A9F"/>
<stop offset="0.922658" stop-color="#B5D0DD"/>
</linearGradient>
<linearGradient id="paint9_linear_828_9746" x1="63" y1="9.5" x2="48.1828" y2="7.85423" gradientUnits="userSpaceOnUse">
<stop offset="0.206068" stop-color="#828A9F"/>
<stop offset="0.922658" stop-color="#B5D0DD"/>
</linearGradient>
<linearGradient id="paint10_linear_828_9746" x1="28.5" y1="58" x2="53.5" y2="17.5" gradientUnits="userSpaceOnUse">
<stop stop-color="#C3D5E1"/>
<stop offset="0.114583" stop-color="#9CB1BF"/>
<stop offset="0.359375" stop-color="#AAC5D7"/>
<stop offset="0.567708" stop-color="#E1E9EE"/>
<stop offset="0.78125" stop-color="#B6CBD9"/>
<stop offset="1" stop-color="#AFCFE4"/>
</linearGradient>
<linearGradient id="paint11_linear_828_9746" x1="28" y1="45.5" x2="39" y2="64.5" gradientUnits="userSpaceOnUse">
<stop offset="0.178892" stop-color="#5A707D"/>
<stop offset="1" stop-color="#5A707D" stop-opacity="0"/>
</linearGradient>
<linearGradient id="paint12_linear_828_9746" x1="30" y1="31" x2="16.5" y2="51" gradientUnits="userSpaceOnUse">
<stop stop-color="#C2D7E3"/>
<stop offset="0.617681" stop-color="#97BCD2" stop-opacity="0.64"/>
</linearGradient>
<linearGradient id="paint13_linear_828_9746" x1="28" y1="15" x2="41" y2="37" gradientUnits="userSpaceOnUse">
<stop stop-color="white" stop-opacity="0"/>
<stop offset="0.261453" stop-color="white"/>
</linearGradient>
<linearGradient id="paint14_linear_828_9746" x1="44" y1="43" x2="50" y2="61" gradientUnits="userSpaceOnUse">
<stop offset="0.376889" stop-color="#2E5269"/>
<stop offset="1" stop-color="#3C6F8F" stop-opacity="0.7"/>
</linearGradient>
<linearGradient id="paint15_linear_828_9746" x1="44" y1="35.5" x2="65" y2="49.5" gradientUnits="userSpaceOnUse">
<stop offset="0.400251" stop-color="#557B93"/>
<stop offset="1" stop-color="#1F6C9C" stop-opacity="0.7"/>
</linearGradient>
<linearGradient id="paint16_linear_828_9746" x1="41" y1="26" x2="60" y2="26" gradientUnits="userSpaceOnUse">
<stop stop-color="#A3C7DB"/>
<stop offset="1" stop-color="#A3C7DB" stop-opacity="0.4"/>
</linearGradient>
</defs>
</svg>
