<svg width="20" height="20" viewBox="0 0 20 20" fill="none" xmlns="http://www.w3.org/2000/svg">
<path d="M11.1719 2.5C10.7617 2.5 10.4688 2.8683 10.4688 3.30357V8.66071C10.4688 9.12946 10.7617 9.46428 11.1719 9.46428H16.7969C17.1777 9.46428 17.5 9.12946 17.5 8.66071V3.30357C17.5 2.8683 17.1777 2.5 16.7969 2.5H11.1719ZM8.82813 2.5H3.20312C2.79297 2.5 2.5 2.8683 2.5 3.30357V8.66071C2.5 9.12946 2.79297 9.46428 3.20312 9.46428H8.82813C9.20898 9.46428 9.53125 9.12946 9.53125 8.66071V3.30357C9.53125 2.8683 9.20898 2.5 8.82813 2.5ZM2.5 11.3393V16.6964C2.5 17.1652 2.79297 17.5 3.20312 17.5H8.82813C9.20898 17.5 9.53125 17.1652 9.53125 16.6964V11.3393C9.53125 10.904 9.20898 10.5357 8.82813 10.5357H3.20312C2.79297 10.5357 2.5 10.904 2.5 11.3393ZM11.1719 17.5H16.7969C17.1777 17.5 17.5 17.1652 17.5 16.6964V11.3393C17.5 10.904 17.1777 10.5357 16.7969 10.5357H11.1719C10.7617 10.5357 10.4688 10.904 10.4688 11.3393V16.6964C10.4688 17.1652 10.7617 17.5 11.1719 17.5Z" fill="#071F44"/>
</svg>
