<svg width="140" height="157" viewBox="0 0 140 157" fill="none" xmlns="http://www.w3.org/2000/svg">
<path d="M71.0579 0.905031C96.747 18.2747 139.429 20.9201 139.429 20.9201C139.429 20.9201 139.899 35.1135 136.652 73.2814C133.413 111.449 109.857 135.694 70.8229 156.066L69.726 156.64L68.6292 156.066C29.595 135.702 6.03875 111.449 2.80042 73.2814C-0.446626 35.1135 0.0234549 20.9114 0.0234549 20.9114C0.0234549 20.9114 42.6964 18.266 68.3941 0.896329L69.726 0L71.0579 0.905031Z" fill="url(#paint0_linear_1_513)"/>
<path d="M76.2895 54.206C76.6184 53.4536 77.0943 52.7435 77.7171 52.0896C77.7395 52.0671 77.759 52.0417 77.7793 52.0153C77.7908 52.0005 77.8025 51.9852 77.8151 51.97C78.4939 51.281 79.2427 50.7607 80.0476 50.4021C80.8804 50.7536 81.6432 51.2669 82.329 51.9419C82.3535 51.97 82.378 51.9964 82.4025 52.0228C82.427 52.0491 82.4515 52.0755 82.476 52.1036C82.7349 52.3708 82.9658 52.6521 83.1758 52.9474C84.0226 54.1567 84.4565 55.556 84.4565 57.1661C84.4565 58.7903 83.9806 60.2388 83.0428 61.5184C82.8539 61.7716 82.6509 62.0247 82.427 62.2708C82.4172 62.2806 82.4075 62.2918 82.3971 62.3039C82.385 62.3179 82.372 62.333 82.357 62.3481C81.6642 63.0794 80.9083 63.6278 80.0825 63.9934C79.2287 63.6419 78.4589 63.1145 77.7871 62.4184C77.7522 62.3833 77.7172 62.3412 77.6823 62.2991C77.1364 61.7085 76.7094 61.0544 76.3944 60.3372C75.9536 59.3388 75.7226 58.2208 75.7226 56.9692C75.7226 55.9849 75.9116 55.0638 76.2895 54.206Z" fill="white"/>
<path d="M83.5817 78.7801C82.5249 77.8942 81.3702 77.2684 80.1175 76.9028C78.8158 77.2825 77.6261 77.9434 76.5484 78.8645C76.3525 79.0332 76.1565 79.202 75.9675 79.3848C75.1068 80.2356 74.4419 81.1637 73.959 82.1692C73.3502 83.4348 73.0353 84.8199 73.0353 86.3246C73.0353 88.0824 73.3782 89.6574 74.043 91.0566C74.4979 92.0129 75.0998 92.8988 75.8696 93.6934C76.0655 93.8973 76.2755 94.0871 76.4854 94.2699C77.5632 95.2191 78.7739 95.8801 80.1315 96.2527C81.4542 95.8871 82.6369 95.2543 83.6937 94.3473C83.9316 94.1433 84.1696 93.9254 84.3935 93.6863C84.6594 93.4121 84.8974 93.1238 85.1283 92.8285C86.528 91.0215 87.2278 88.8559 87.2278 86.3176C87.2278 84.0957 86.535 82.134 85.1703 80.4114C84.8974 80.0668 84.6035 79.7293 84.2745 79.3989C84.0506 79.1879 83.8196 78.984 83.5817 78.7801Z" fill="white"/>
<path d="M75.7016 96.5198C73.91 96.2667 72.3424 95.5847 70.9847 94.4597C70.6978 94.2206 70.4179 93.9675 70.173 93.6933C68.2834 91.7316 67.3386 89.2777 67.3386 86.3246C67.3386 83.6105 68.3114 81.2972 70.2639 79.3777C70.4281 79.2184 70.6014 79.0684 70.7728 78.9201C70.8126 78.8857 70.8543 78.8496 70.8938 78.8152C72.3284 77.6059 73.959 76.8746 75.7856 76.6145C76.2755 76.5512 76.7793 76.502 77.2972 76.502C77.3462 76.502 77.3934 76.5055 77.4407 76.509C77.4879 76.5125 77.5352 76.516 77.5841 76.516C78.018 76.5301 78.4379 76.5652 78.8508 76.6285C76.7863 76.9379 74.9668 77.8449 73.4062 79.3848C72.8603 79.9191 72.3984 80.4887 72.0065 81.0863C71.7406 81.4801 71.5166 81.8949 71.3207 82.3238C70.7608 83.5472 70.4739 84.8761 70.4739 86.3246C70.4739 88.0472 70.8028 89.5941 71.4466 90.9792C71.6356 91.4011 71.8525 91.8019 72.1045 92.1886C72.4544 92.716 72.8533 93.2222 73.3082 93.6933C74.8408 95.2824 76.6954 96.2175 78.8578 96.5198C78.4379 96.5761 78.018 96.6112 77.5771 96.6253C77.4792 96.6323 77.3812 96.6394 77.2832 96.6394C76.7374 96.6394 76.2125 96.5902 75.7016 96.5198Z" fill="white"/>
<path d="M72.8603 63.1216C73.959 63.9653 75.2537 64.4364 76.7584 64.5349C76.9543 64.5489 77.1503 64.563 77.3602 64.563C77.4512 64.563 77.5422 64.556 77.6331 64.5489C78.053 64.5349 78.4589 64.4857 78.8508 64.4013C77.4302 64.12 76.2195 63.4661 75.2117 62.4185C74.9178 62.1161 74.6659 61.7927 74.4349 61.4552C74.176 61.0755 73.959 60.6747 73.7771 60.2599C73.3572 59.2826 73.1402 58.1927 73.1402 56.9763C73.1402 56.0201 73.3152 55.1271 73.6721 54.2904C73.854 53.8615 74.078 53.4537 74.3509 53.0529C74.6099 52.6802 74.9038 52.3216 75.2397 51.9771C76.2545 50.9365 77.4232 50.2826 78.7249 50.0013C78.305 49.917 77.8641 49.8677 77.4092 49.8537L77.3906 49.8524C77.2926 49.8458 77.2 49.8396 77.1013 49.8396C77.0033 49.8396 76.9054 49.8466 76.8075 49.8537C75.3308 49.9099 74.015 50.3951 72.8603 51.3021C72.6014 51.506 72.3424 51.731 72.0975 51.9771C70.6978 53.4044 69.998 55.0708 69.998 56.9693C69.998 59.1771 70.6838 60.9911 72.0625 62.4185C72.3144 62.6857 72.5804 62.9107 72.8603 63.1216Z" fill="white"/>
<path d="M70.159 18.628L72.2374 22.3335L76.3874 23.1772L73.5251 26.3061L74.008 30.5389L70.159 28.767L66.3029 30.5389L66.7928 26.3061L63.9235 23.1772L68.0735 22.3335L70.159 18.628Z" fill="white"/>
<path d="M53.0271 27.5225L54.3218 29.8217L56.8972 30.3491L55.1196 32.2897L55.4205 34.9194L53.0271 33.8155L50.6407 34.9194L50.9416 32.2897L49.157 30.3491L51.7394 29.8217L53.0271 27.5225Z" fill="white"/>
<path d="M88.7324 29.8217L87.4378 27.5225L86.1501 29.8217L83.5677 30.3491L85.3523 32.2897L85.0513 34.9194L87.4378 33.8155L89.8312 34.9194L89.5303 32.2897L91.3078 30.3491L88.7324 29.8217Z" fill="white"/>
<path fill-rule="evenodd" clip-rule="evenodd" d="M71.1247 15.7311C91.7767 29.7654 126.089 31.9029 126.089 31.9029C126.089 31.9029 126.467 43.3709 123.857 74.2098C121.254 105.049 102.316 124.638 70.9358 141.098L70.054 141.562L69.1722 141.098C37.7918 124.645 18.8544 105.049 16.251 74.2098C13.6407 43.3709 14.0186 31.8959 14.0186 31.8959C14.0186 31.8959 48.3242 29.7584 68.9832 15.7241L70.054 14.9999L71.1247 15.7311ZM36.4341 113.1C38.1207 115.223 39.9613 117.276 41.9558 119.273V110.442C39.9263 108.206 38.0787 105.878 36.4341 103.481V113.1ZM48.8141 125.453C50.5707 126.874 52.4113 128.273 54.3358 129.644V121.34C52.4043 119.969 50.5637 118.535 48.8141 117.051V125.453ZM61.1941 134.193C62.9787 135.297 64.8123 136.387 66.7158 137.456V128.695C64.8123 127.753 62.9717 126.768 61.1941 125.735V134.193ZM73.5741 137.343C75.4777 136.267 77.3182 135.178 79.0958 134.074V125.728C77.3112 126.761 75.4707 127.746 73.5741 128.688V137.343ZM85.9611 129.51C87.8857 128.132 89.7332 126.733 91.4828 125.299V117.051C89.7332 118.535 87.8927 119.969 85.9611 121.34V129.51ZM70.145 127.183L71.4746 126.536C96.0527 114.625 110.721 94.6566 110.763 73.127V46.8443L108.104 46.6052L108.079 46.6027C107.831 46.5777 105.875 46.3801 102.855 45.8599C103.471 46.8794 104.01 47.9412 104.444 49.0591C106.417 49.3544 107.649 49.481 107.817 49.4951V73.134C107.817 73.9426 107.789 74.7442 107.74 75.5457C107.691 76.4457 107.614 77.3387 107.509 78.2246C107.505 78.2422 107.504 78.2598 107.502 78.2774C107.5 78.2949 107.498 78.3125 107.495 78.3301C107.397 79.1668 107.271 79.9965 107.124 80.8262C107.12 80.8414 107.117 80.8571 107.115 80.8731C107.113 80.8877 107.111 80.9025 107.11 80.9175C107.106 80.9475 107.103 80.9782 107.096 81.009L107.093 80.9986L107.089 80.9879C106.823 79.5184 106.431 78.1684 105.906 76.952C105.591 76.2348 105.199 75.4965 104.745 74.7371C103.611 72.8598 102.043 70.87 100.007 68.7536C100.413 68.2051 100.777 67.6426 101.119 67.0731C102.848 64.1973 103.73 61.0966 103.73 57.7708C103.73 54.3747 103.079 51.3302 101.791 48.6372C101.518 48.0677 101.231 47.5052 100.903 46.9708C100.546 46.3873 100.154 45.8318 99.7338 45.2904C99.1809 44.5732 98.5791 43.8912 97.9072 43.2373C97.2354 42.5834 96.5216 42.0138 95.7867 41.4724C94.2541 40.3474 92.5955 39.4474 90.79 38.8146C88.5785 38.0342 86.1571 37.6334 83.5257 37.5842C83.4654 37.5817 83.4067 37.5785 83.3486 37.5752C83.2381 37.5691 83.1294 37.5631 83.0148 37.5631C82.5809 37.5631 82.154 37.5771 81.7341 37.5982C82.5809 37.6334 83.3927 37.7248 84.1975 37.8443C86.8499 38.231 89.2573 39.0467 91.4198 40.2912C92.8195 41.0998 94.1281 42.0631 95.3249 43.2302C95.7797 43.6732 96.1996 44.1373 96.5985 44.6084C97.2844 45.4169 97.9002 46.2607 98.4321 47.1537C98.607 47.4489 98.7679 47.7511 98.9288 48.0534L98.9334 48.0638L98.936 48.0712C98.936 48.0712 98.9395 48.0818 98.943 48.0888C100.406 50.9154 101.14 54.1357 101.14 57.7638C101.14 60.6817 100.462 63.4309 99.1249 66.0044C98.985 66.2786 98.824 66.5528 98.663 66.827C98.2851 67.4809 97.8792 68.1208 97.4103 68.7465C99.5308 70.9543 101.154 73.0215 102.295 74.9692C102.444 75.2198 102.577 75.4705 102.708 75.7169L102.778 75.8481C102.974 76.2207 103.156 76.5934 103.31 76.952C104.381 79.4481 104.92 82.4855 104.92 86.0644C104.92 87.2105 104.85 88.3215 104.717 89.4043V89.4254C104.696 89.4675 104.675 89.5168 104.661 89.559C104.65 89.5871 104.64 89.6134 104.629 89.6398L104.619 89.6659C104.612 89.6837 104.605 89.7018 104.598 89.7207C104.367 90.3183 104.115 90.916 103.856 91.5066C103.818 91.5897 103.78 91.6746 103.742 91.7595L103.74 91.7633L103.739 91.7667C103.701 91.8517 103.663 91.9366 103.625 92.0199C103.401 92.5121 103.17 93.0043 102.932 93.4894C102.841 93.6652 102.757 93.8339 102.673 94.0097C102.351 94.6425 102.022 95.2753 101.672 95.9011L101.588 96.0488C101.21 96.7308 100.812 97.4058 100.392 98.0808L100.385 98.0878C99.5728 99.3956 98.698 100.675 97.7603 101.934C97.2004 102.686 96.6195 103.439 96.0177 104.177C96.0037 104.191 95.9827 104.212 95.9687 104.233C95.4368 104.887 94.891 105.527 94.3241 106.16L94.3215 106.165L94.3171 106.167C93.5753 106.996 92.8125 107.812 92.0147 108.614L92.0077 108.621H92.0147C91.4688 109.169 90.9089 109.717 90.3351 110.259L90.3281 110.263L90.3176 110.273C90.3123 110.278 90.3071 110.283 90.3001 110.287C89.7262 110.828 89.1383 111.356 88.5435 111.883H88.5295C83.3228 116.46 77.1713 120.539 70.166 123.935L70.138 123.949L70.11 123.935C63.6575 120.806 57.9329 117.107 52.9991 112.973V87.984C53.0551 88.7504 53.1391 89.5097 53.2511 90.248C53.608 92.5613 54.2728 94.7269 55.2456 96.7378C56.3793 99.0933 57.9329 101.252 59.9064 103.2C59.9799 103.27 60.0534 103.338 60.1268 103.407C60.2003 103.475 60.2739 103.544 60.3473 103.614C63.0487 106.16 66.1349 107.953 69.5991 108.993C71.9995 109.717 74.5889 110.083 77.3602 110.083C77.4092 110.083 77.4582 110.081 77.5072 110.08C77.5562 110.078 77.6052 110.076 77.6541 110.076C78.081 110.076 78.5079 110.062 78.9278 110.041C79.3617 110.013 79.7886 109.985 80.2155 109.942C83.7707 109.598 86.9969 108.592 89.8872 106.933C91.6367 105.928 93.2673 104.683 94.772 103.2C95.1499 102.827 95.5138 102.44 95.8637 102.046C99.7828 97.666 101.749 92.3293 101.749 86.0434C101.749 82.4645 101.217 79.427 100.14 76.9309C99.069 74.4348 97.1024 71.6996 94.2471 68.7325C96.7315 65.3926 97.9772 61.7294 97.9772 57.7497C97.9772 53.7841 97.1024 50.2966 95.3458 47.2872C94.758 46.2748 94.0652 45.3044 93.2673 44.3974C93.0154 44.1162 92.7495 43.842 92.4835 43.5677C92.4495 43.5313 92.4155 43.4941 92.3813 43.4567C92.3102 43.3789 92.237 43.2989 92.1616 43.2232C91.0699 42.1615 89.8942 41.2545 88.6275 40.4881C86.1361 38.9763 83.3088 38.0553 80.1525 37.7107C79.7256 37.6685 79.2987 37.6334 78.8578 37.6053C78.4309 37.5842 78.004 37.5701 77.5701 37.5631C77.5212 37.5631 77.4722 37.5613 77.4232 37.5596C77.3742 37.5578 77.3252 37.556 77.2762 37.556C77.115 37.556 76.9599 37.5621 76.8029 37.5683C76.7215 37.5715 76.639 37.5747 76.5554 37.5771C74.8198 37.6264 73.1822 37.8373 71.6286 38.2099C71.5128 38.2399 71.397 38.2666 71.2819 38.2932C71.1536 38.3229 71.0262 38.3524 70.9008 38.3857C67.9125 39.2224 65.2881 40.692 63.0067 42.7873C62.9637 42.8269 62.9207 42.866 62.8778 42.9051C62.7532 43.0185 62.6295 43.131 62.5098 43.2513C58.6467 47.0482 56.7152 51.8716 56.7152 57.7075C56.7152 61.7575 57.9609 65.4419 60.4453 68.7465C58.1429 71.1442 56.4143 73.4504 55.2526 75.6582C55.0216 76.0871 54.8047 76.516 54.6227 76.9449C53.9859 78.4215 53.531 80.0457 53.2581 81.8035C53.1391 82.5348 53.0551 83.2871 53.0061 84.0676V57.4052H51.0116V111.243C50.0178 110.35 49.0591 109.429 48.1423 108.494V57.3981H43.5934C40.7521 60.5692 36.938 63.3466 32.5151 64.8794C31.5633 65.2098 30.5835 65.4911 29.5688 65.695C29.5233 65.702 29.4778 65.7143 29.4323 65.7266C29.3868 65.7389 29.3414 65.7513 29.2959 65.7583V67.5583C29.3868 67.5442 29.4779 67.5301 29.5688 67.5231C30.5136 67.4247 31.5073 67.2489 32.5151 67.0169C34.6846 66.5106 36.903 65.7372 38.7856 64.8442V96.1824C38.4146 95.5144 38.0577 94.8464 37.7148 94.1714C37.6448 94.0449 37.5819 93.9183 37.5189 93.7918C37.2179 93.1941 36.931 92.5894 36.6581 91.9847C36.6406 91.9462 36.6214 91.9059 36.6022 91.8655C36.5831 91.8252 36.5635 91.7842 36.5461 91.7457V91.7246C33.9077 85.7902 32.5151 79.5324 32.5151 73.127V69.3301C31.5003 69.5481 30.4996 69.7169 29.5688 69.8012V73.134C29.5688 94.6566 44.2442 114.618 68.8153 126.536L70.145 127.183ZM29.5758 46.8513V63.3958C30.5696 63.1708 31.5563 62.8895 32.5361 62.5169V49.5021C33.1099 49.4529 47.3515 48.0255 61.2361 41.9857C61.2825 41.9391 61.3261 41.8898 61.37 41.8402C61.4255 41.7775 61.4816 41.7141 61.544 41.6552C64.7493 38.5053 68.6333 36.5224 73.1332 35.7209C72.6713 35.4467 72.2164 35.1725 71.7686 34.8912L70.152 33.8787L68.5423 34.8912C53.2198 44.5137 32.8463 46.5518 32.2539 46.6111L32.2421 46.6123L29.5758 46.8513ZM103.863 112.867V103.481C102.211 105.878 100.371 108.206 98.3411 110.442V119.083C100.336 117.072 102.176 115.005 103.863 112.867ZM110.721 102.18C114.563 94.6003 116.803 86.2473 117.404 76.9028C119.189 49.2912 118.993 35.306 118.993 35.306C112.639 34.4834 88.5225 27.6631 70.054 15.5553C51.5784 27.6631 27.4693 34.4834 21.1148 35.306C21.1148 35.306 20.9189 49.2912 22.7035 76.9028C23.3193 86.409 25.6148 94.8886 29.5758 102.567V90.0863C27.6583 84.6441 26.6575 78.977 26.6575 73.1903V44.2146L32.2142 43.7154L32.2333 43.7134C32.9508 43.6391 52.3834 41.6261 66.8208 32.5568L70.145 30.4686L73.4761 32.5568C75.0788 33.5693 76.7514 34.4834 78.4519 35.3271C78.6829 35.3271 78.9208 35.3342 79.1518 35.3412C79.5717 35.3201 79.9986 35.3131 80.4255 35.3131C80.8594 35.3131 81.2933 35.3201 81.7201 35.3412C82.14 35.3271 82.5669 35.3131 83.0008 35.3131C89.6212 35.3131 95.1569 37.4365 99.4538 41.6201C99.6512 41.8134 99.8346 42.0172 100.016 42.2192C100.092 42.3034 100.169 42.3882 100.245 42.4709C104.892 43.399 108.02 43.7084 108.097 43.7154L113.639 44.2146V73.1903C113.639 78.9699 112.632 84.6441 110.721 90.0863V102.18Z" fill="white"/>
<defs>
<linearGradient id="paint0_linear_1_513" x1="69.7258" y1="0.0625019" x2="153.562" y2="86.4611" gradientUnits="userSpaceOnUse">
<stop offset="0.223947" stop-color="#F0453A"/>
<stop offset="1" stop-color="#1E40F5"/>
</linearGradient>
</defs>
</svg>
