<svg width="12" height="13" viewBox="0 0 12 13" fill="none" xmlns="http://www.w3.org/2000/svg">
<path d="M10.1053 2.64043L9.10355 1.60449C8.9464 1.44199 8.65176 1.2998 8.43569 1.2998H5.05712C4.52676 1.2998 4.11426 1.74668 4.11426 2.2748V3.2498H2.54283C2.01248 3.2498 1.59998 3.69668 1.59998 4.2248V10.7248C1.59998 11.2732 2.01248 11.6998 2.54283 11.6998H6.94283C7.45355 11.6998 7.88569 11.2732 7.88569 10.7248V9.74981H9.45712C9.96783 9.74981 10.4 9.32324 10.4 8.77481V3.33105C10.4 3.10762 10.2625 2.80293 10.1053 2.64043ZM6.82498 10.7248H2.66069C2.58212 10.7248 2.54283 10.6842 2.54283 10.6029V4.34668C2.54283 4.28574 2.58212 4.2248 2.66069 4.2248H4.11426V8.77481C4.11426 9.32324 4.52676 9.74981 5.05712 9.74981H6.94283V10.6029C6.94283 10.6842 6.8839 10.7248 6.82498 10.7248ZM9.33926 8.77481H5.17498C5.0964 8.77481 5.05712 8.73418 5.05712 8.65293V2.39668C5.05712 2.33574 5.0964 2.2748 5.17498 2.2748H7.25712V4.0623C7.25712 4.34668 7.45355 4.5498 7.72855 4.5498H9.45712V8.65293C9.45712 8.73418 9.39819 8.77481 9.33926 8.77481ZM9.45712 3.5748H8.19998V2.2748H8.37676C8.41605 2.2748 8.43569 2.29512 8.45533 2.31543L9.41783 3.31074C9.43748 3.33105 9.45712 3.35137 9.45712 3.39199V3.5748Z" fill="#071F44" fill-opacity="0.4"/>
</svg>
