<svg width="16" height="16" viewBox="0 0 16 16" fill="none" xmlns="http://www.w3.org/2000/svg">
    <path d="M15.3333 7.99999C15.3333 3.97848 12.0215 0.666656 7.99996 0.666656C3.94888 0.666656 0.666626 3.97848 0.666626 7.99999C0.666626 12.0511 3.94888 15.3333 7.99996 15.3333C12.0215 15.3333 15.3333 12.0511 15.3333 7.99999ZM7.14243 11.9032C6.96501 12.0806 6.63974 12.0806 6.46232 11.9032L3.38706 8.82795C3.20964 8.65053 3.20964 8.32526 3.38706 8.14784L4.06716 7.4973C4.24458 7.29031 4.54028 7.29031 4.7177 7.4973L6.81716 9.56719L11.2526 5.13171C11.4301 4.92472 11.7258 4.92472 11.9032 5.13171L12.5833 5.78225C12.7607 5.95967 12.7607 6.28494 12.5833 6.46236L7.14243 11.9032Z"
          fill="#071F44" fill-opacity="0.1"/>
</svg>
