<svg width="20" height="20" viewBox="0 0 20 20" fill="none" xmlns="http://www.w3.org/2000/svg">
    <path d="M7.5 8.125C7.5 7.46094 6.91406 6.875 6.25 6.875H5.625C4.21875 6.875 3.125 8.00781 3.125 9.375V11.25C3.125 12.6562 4.21875 13.75 5.625 13.75H6.25C6.91406 13.75 7.5 13.2031 7.5 12.5V8.125ZM14.375 13.75C15.7422 13.75 16.875 12.6562 16.875 11.25V9.375C16.875 8.00781 15.7422 6.875 14.375 6.875H13.75C13.0469 6.875 12.5 7.46094 12.5 8.125V12.5C12.5 13.2031 13.0469 13.75 13.75 13.75H14.375ZM10 0C4.41406 0 0.15625 4.64844 0 10V10.625C0 10.9766 0.273438 11.25 0.625 11.25H1.25C1.5625 11.25 1.875 10.9766 1.875 10.625V10C1.875 5.54688 5.50781 1.875 10 1.875C14.4531 1.875 18.125 5.54688 18.125 10H18.0859C18.0859 10.1172 18.125 16.4844 18.125 16.4844C18.125 17.4219 17.3828 18.125 16.4453 18.125H12.5C12.5 17.1094 11.6406 16.25 10.625 16.25H9.375C8.32031 16.25 7.5 17.1094 7.5 18.125C7.5 19.1797 8.32031 20 9.375 20H16.4453C18.3984 20 20 18.4375 20 16.4844V10C19.8047 4.64844 15.5469 0 10 0Z"
          fill="white" fill-opacity="0.7"/>
</svg>
