<svg width="20" height="21" viewBox="0 0 20 21" fill="none" xmlns="http://www.w3.org/2000/svg">
    <path d="M10 1.33325C4.93617 1.33325 0.833344 5.43607 0.833344 10.4999C0.833344 15.5638 4.93617 19.6666 10 19.6666C15.0639 19.6666 19.1667 15.5638 19.1667 10.4999C19.1667 5.43607 15.0639 1.33325 10 1.33325ZM8.81721 3.21094V3.62861C8.81721 4.06847 8.35518 4.35308 7.95969 4.15718L7.07259 3.71363C7.62333 3.47707 8.20733 3.31074 8.81721 3.21094ZM10 16.8796V17.8924C5.92306 17.8924 2.60754 14.5769 2.60754 10.4999C2.60754 9.42431 2.8441 8.40415 3.25807 7.48009C3.624 8.02344 4.18953 8.86249 4.53697 9.36887C4.72918 9.64978 4.95095 9.90852 5.20599 10.134L5.23556 10.1599C5.5867 10.4777 5.9822 10.7513 6.40357 10.9656C6.92104 11.2244 7.67508 11.6384 8.20733 11.9304C8.58435 12.1374 8.81721 12.5328 8.81721 12.9653V14.1481C8.81721 14.4623 8.94289 14.7617 9.16466 14.9835C9.7191 15.5416 10.0628 16.4139 10 16.8796ZM11.5783 17.7187L12.2214 15.9851C12.2954 15.7818 12.3434 15.5712 12.3989 15.3605C12.4395 15.2126 12.5171 15.0759 12.628 14.965L13.0457 14.5473C13.371 14.2257 13.5521 13.7859 13.5521 13.3275C13.5521 13.0281 13.4338 12.7398 13.2231 12.5292L12.7167 12.0228C12.495 11.801 12.1956 11.6753 11.8814 11.6753H9.40861C9.06117 11.5016 8.61392 10.4925 8.22582 10.4925C7.83771 10.4925 7.4533 10.4001 7.10586 10.2264L6.69557 10.0231C6.54773 9.94918 6.45162 9.79394 6.45162 9.62761C6.45162 9.4391 6.5736 9.26907 6.75471 9.20993L7.90794 8.82552C8.10754 8.75899 8.32561 8.80335 8.48086 8.94011L8.82461 9.2395C8.88005 9.28755 8.94658 9.31343 9.01681 9.31343H9.2238C9.44557 9.31343 9.58603 9.08056 9.48993 8.88466L8.91332 7.73144C8.85418 7.61685 8.88005 7.4764 8.97246 7.38769L9.33838 7.03285C9.39383 6.9774 9.46775 6.94783 9.54537 6.94783H9.87803C9.95566 6.94783 10.0333 6.91827 10.0887 6.86282L10.3844 6.56712C10.499 6.45254 10.499 6.26403 10.3844 6.14945L10.2107 5.97573C10.0961 5.86114 10.0961 5.67263 10.2107 5.55805L10.5914 5.17734L10.7651 5.00361C10.9943 4.77445 10.9943 4.39743 10.7651 4.16827L9.7191 3.12223C9.8115 3.11853 9.90391 3.10745 10 3.10745C12.8905 3.10745 15.3891 4.77814 16.6052 7.19918L16.1247 7.43943C15.9879 7.50966 15.8696 7.61316 15.7846 7.73883L15.0602 8.82552C14.8606 9.12492 14.8606 9.51302 15.0602 9.80872L15.7255 10.8067C15.8475 10.9915 16.036 11.1209 16.2466 11.1763L17.326 11.4462C16.9268 14.551 14.5944 17.0607 11.5783 17.7187Z"
          fill="#3A87FC"/>
</svg>
