<svg width="20" height="21" viewBox="0 0 20 21" fill="none" xmlns="http://www.w3.org/2000/svg">
    <path fill-rule="evenodd" clip-rule="evenodd"
          d="M10.1801 1.2201C13.2589 3.3001 18.397 3.6201 18.397 3.6201C18.397 3.6201 18.457 5.3201 18.0372 9.9201C17.9172 11.4201 17.5374 12.7401 16.8976 13.9201H15.738C15.738 13.9101 15.743 13.9051 15.748 13.9001C15.753 13.8951 15.758 13.8901 15.758 13.8801C16.3178 12.8201 16.6377 11.6401 16.7177 10.3201C16.9776 6.4201 16.9376 4.4601 16.9376 4.4601C16.0379 4.3401 12.6192 3.3801 10.0001 1.6801C7.38108 3.3801 3.96234 4.3401 3.06267 4.4601C3.06267 4.4601 3.04267 6.4201 3.28258 10.3001C3.36256 11.6401 3.68244 12.8201 4.24223 13.9001H3.08266C2.46289 12.7201 2.06303 11.4001 1.94308 9.9001C1.54322 5.3201 1.6032 3.6201 1.6032 3.6201C1.6032 3.6201 6.74132 3.2801 9.84018 1.2001L10.0001 1.1001L10.1801 1.2201ZM10.0572 19.0487C10.4416 18.8373 10.8606 18.6068 11.2797 18.3401C11.9194 17.9401 12.5992 17.4801 13.099 17.1001H14.2985C13.159 18.0801 11.6995 19.0201 10.1201 19.8401L10.0001 19.9001L9.86017 19.8201C8.28075 19.0001 6.84128 18.0801 5.7017 17.1001H6.90126C7.44106 17.5001 8.08083 17.9601 8.74058 18.3601C9.18042 18.6201 9.60027 18.8601 10.0001 19.0801C10.0191 19.0697 10.0381 19.0592 10.0572 19.0487ZM14.5184 8.84008C14.7584 9.04008 15.1382 9.44008 15.3981 10.0401C15.598 10.5001 15.638 10.9001 15.658 11.1601C15.778 12.3601 15.2982 13.4201 15.0382 13.9201H14.5184C14.6584 13.7201 14.8383 13.4001 14.9983 12.9801C15.1382 12.5601 15.5781 11.1601 14.8583 9.80008C14.7384 9.56008 14.5184 9.22008 14.1186 8.86008C14.1316 8.8406 14.1451 8.8206 14.1589 8.80007C14.2305 8.69411 14.3115 8.57411 14.3785 8.44008C14.6184 7.96008 14.6784 7.50008 14.6784 7.20008C14.6784 6.96008 14.6584 6.36008 14.3385 5.74008C14.0186 5.10008 13.4988 4.72008 13.1989 4.56008C12.9627 4.43286 12.7266 4.35518 12.5954 4.31205C12.5822 4.30771 12.5701 4.30373 12.5592 4.30008C12.3392 4.24008 11.9394 4.16008 11.7195 4.14008C11.9394 4.12008 12.2993 4.14008 12.5392 4.18008C12.6791 4.20008 12.859 4.24008 13.099 4.32008C13.1049 4.32246 13.1116 4.32511 13.1191 4.32806C13.237 4.37476 13.539 4.49433 13.8587 4.72008C14.3945 5.10823 14.6571 5.5818 14.757 5.76189C14.7652 5.77667 14.7723 5.78947 14.7783 5.80008C14.8783 5.98008 15.0982 6.48008 15.0782 7.18008C15.0582 7.46008 15.0183 8.02008 14.6784 8.58008C14.6296 8.67775 14.5808 8.74892 14.5427 8.80437C14.534 8.81705 14.5259 8.82891 14.5184 8.84008ZM14.2186 9.46008C14.2186 9.46008 14.4185 9.76008 14.5584 10.0601C14.8783 10.7801 14.9783 11.9801 14.4385 13.0801C14.3385 13.2801 14.1586 13.6001 13.8587 13.9201H11.1997C11.0197 13.8001 10.6599 13.6201 10.18 13.6201C9.37175 13.6201 8.84135 14.1575 8.71363 14.2869C8.70867 14.2919 8.70431 14.2963 8.70057 14.3001C8.46066 14.1001 8.00083 13.7001 7.70094 13.0601C7.50101 12.6201 7.42104 12.2001 7.40105 12.0801C7.38106 11.9801 7.36106 11.8601 7.36106 11.7401V13.9001H7.06117V7.10008H7.36106V11.1401C7.36106 11.0738 7.37478 10.9801 7.39086 10.8703C7.39419 10.8475 7.39762 10.8241 7.40105 10.8001L7.40235 10.7922C7.42361 10.6642 7.4856 10.2909 7.70094 9.86008C7.96084 9.38008 8.28073 9.02008 8.50065 8.82008C8.12079 8.32008 7.94085 7.76008 7.94085 7.14008C7.94085 6.60008 8.06081 6.10008 8.28073 5.68008L8.28073 5.68008C8.3607 5.54008 8.52064 5.26008 8.82053 4.96008C8.94049 4.84008 9.40032 4.42008 10.1001 4.22008C10.4599 4.12008 10.7798 4.10008 10.9597 4.10008C11.0597 4.10008 11.2596 4.10008 11.5395 4.12008C11.7595 4.14008 12.2793 4.22008 12.8191 4.54008C13.4188 4.92008 13.7387 5.42008 13.8387 5.58008C14.2385 6.26008 14.2385 6.92008 14.2385 7.16008C14.2385 7.76008 14.0586 8.32008 13.6787 8.82008C13.8787 9.04008 14.0786 9.26008 14.2186 9.46008ZM12.0793 6.60008C11.9194 6.24008 11.5995 6.08008 11.4995 6.04008C11.3796 6.10008 11.1997 6.20008 11.0797 6.36008C11.0741 6.36842 11.0678 6.37753 11.0609 6.38752C11.0179 6.44942 10.9514 6.5451 10.8998 6.70008C10.8598 6.86008 10.8598 6.98008 10.8598 7.06008C10.8598 7.30008 10.9398 7.48008 10.9597 7.52008C11.1197 7.88008 11.4196 8.04008 11.5195 8.08008C11.5271 8.07631 11.5351 8.07237 11.5437 8.06819C11.6257 8.02806 11.7508 7.96689 11.8594 7.84008C11.8994 7.80008 12.1793 7.50008 12.1793 7.06008C12.1793 6.82008 12.0993 6.64008 12.0793 6.60008ZM11.2582 5.9783C11.1425 5.96685 10.6259 5.91574 10.26 6.30008C9.92013 6.66008 9.86015 7.24008 10.1201 7.62008C10.3838 8.05357 10.8074 8.13184 10.939 8.15616C10.947 8.15764 10.954 8.15893 10.9597 8.16008C11.0597 8.18008 11.2396 8.18008 11.3196 8.16008C11.2396 8.14008 11.1197 8.10008 10.9997 8.04008C10.6599 7.84008 10.4199 7.44008 10.4399 7.02008C10.4599 6.62008 10.6798 6.36008 10.7398 6.30008C10.9398 6.08008 11.1797 6.00008 11.2796 5.98008C11.2762 5.98008 11.2689 5.97936 11.2582 5.9783ZM9.7202 12.2401C9.94012 12.6401 10.24 12.8201 10.36 12.8801C10.7998 13.1201 11.1997 13.0601 11.2996 13.0401C11.1997 13.0201 11.0197 12.9801 10.8198 12.8801C10.4399 12.6801 10.26 12.3801 10.2 12.2601C10.16 12.1801 10.0201 11.8801 10.0201 11.4801C10.0367 11.1634 10.1367 10.9301 10.1811 10.8264C10.19 10.8056 10.1967 10.7901 10.2 10.7801C10.4329 10.3725 10.7975 10.1909 10.9285 10.1257C10.9325 10.1237 10.9362 10.1218 10.9398 10.1201C11.066 10.066 11.1759 10.0444 11.2696 10.026C11.2798 10.024 11.2898 10.022 11.2996 10.0201C11.1397 10.0001 10.8198 9.96008 10.4599 10.1201C10.4552 10.1224 10.449 10.1254 10.4414 10.129C10.3198 10.1872 9.84721 10.413 9.64023 10.9401C9.54027 11.1801 9.54027 11.3801 9.54027 11.4801C9.54027 11.8183 9.6546 12.085 9.70201 12.1956C9.71068 12.2158 9.71711 12.2308 9.7202 12.2401ZM11.5263 12.9735C11.6012 12.9553 11.6903 12.9336 11.7794 12.8801C12.1593 12.6801 12.3392 12.3801 12.3992 12.2201C12.4004 12.2177 12.4019 12.2148 12.4035 12.2116C12.4557 12.1086 12.7125 11.6014 12.4992 11.0001C12.4792 10.9401 12.3392 10.6001 12.0194 10.3401C11.8394 10.2001 11.6395 10.1001 11.4995 10.0601C11.3396 10.1201 11.0797 10.2201 10.8598 10.4401C10.6798 10.6201 10.5799 10.8001 10.5599 10.8601C10.5399 10.9001 10.4199 11.1401 10.4199 11.4801C10.4199 11.6601 10.4399 12.1801 10.8598 12.6001C11.0797 12.8201 11.3396 12.9401 11.4995 12.9801C11.5082 12.9779 11.5171 12.9757 11.5263 12.9735ZM3.82236 8.36008C3.96231 8.34008 4.12225 8.30008 4.2622 8.24008C4.94195 8.00008 5.52174 7.58008 5.94158 7.10008H6.64133V13.9001H5.92159L5.22185 12.9801V8.24008C4.92196 8.36008 4.60208 8.48008 4.2622 8.56008C4.13761 8.59569 3.99717 8.61545 3.8691 8.63347C3.85332 8.63569 3.83772 8.63789 3.82236 8.64008H3.78238V8.36008H3.82236Z"
          fill="#3A87FC"/>
    <path fill-rule="evenodd" clip-rule="evenodd"
          d="M11.6088 15.4868C11.6088 16.2494 10.9854 16.8734 10.2234 16.8734C9.46135 16.8734 8.83788 16.2494 8.83788 15.4868C8.83788 14.7241 9.46135 14.1001 10.2234 14.1001C10.9854 14.1001 11.6088 14.7241 11.6088 15.4868ZM11.0866 15.4814C11.0866 15.0174 10.7083 14.6334 10.2393 14.6334C9.77042 14.6334 9.39208 15.0174 9.39208 15.4814C9.39208 15.9454 9.77042 16.3294 10.2393 16.3294C10.703 16.3294 11.0866 15.9508 11.0866 15.4814ZM14.124 14.3774C14.22 14.4147 14.2946 14.4681 14.3478 14.5427C14.4065 14.6121 14.4384 14.7027 14.4544 14.8094C14.4704 14.9161 14.4811 15.0334 14.4491 15.1667C14.4011 15.3694 14.3532 15.5401 14.2306 15.6787C14.1507 15.7694 14.0654 15.8387 13.9695 15.8974L13.8683 15.9561L14.3745 16.6867H13.783L13.346 16.0521H12.5787L12.4348 16.6867H12.3016H11.9659L12.2803 15.3161H12.6053H12.7386L12.6693 15.6201H13.4739C13.6072 15.6201 13.7084 15.5881 13.783 15.5241C13.8576 15.4601 13.9109 15.3587 13.9429 15.2254C13.9802 15.0814 13.9642 14.9747 13.9056 14.9054C13.8469 14.8361 13.751 14.7987 13.6178 14.7987H12.4402L12.1897 14.3187H12.3655H13.7777C13.9109 14.3187 14.0281 14.3401 14.124 14.3774ZM16.1756 14.3134H14.6249C14.6302 14.3188 14.6356 14.3241 14.6356 14.3294C14.7208 14.4414 14.7741 14.5801 14.8008 14.7348C14.8008 14.7454 14.8021 14.7548 14.8034 14.7641L14.8034 14.7641C14.8047 14.7735 14.8061 14.7828 14.8061 14.7934H15.3816L14.95 16.6868H15.4242L15.8558 14.7934H16.2289H16.5592L16.6711 14.3134H16.1756ZM8.40091 14.5374C8.4542 14.6121 8.4915 14.6974 8.50748 14.7988C8.52347 14.9001 8.51281 15.0174 8.49683 15.1401C8.46485 15.2681 8.41689 15.3908 8.35295 15.4974C8.28368 15.6094 8.20374 15.7054 8.10783 15.7854C8.03322 15.8494 7.94796 15.8974 7.85737 15.9401L7.77744 15.9721C7.65488 16.0148 7.52699 16.0361 7.38844 16.0361H6.63709L6.49321 16.6761H6.02428L6.33868 15.3054H6.80761L6.74899 15.5721H7.54831C7.64955 15.5721 7.73481 15.5508 7.80942 15.5081C7.82007 15.5045 7.83073 15.4962 7.84139 15.4879C7.84672 15.4838 7.85205 15.4797 7.85737 15.4761C7.93731 15.4068 7.99059 15.3214 8.01724 15.2041C8.04388 15.0814 8.02789 14.9801 7.96928 14.9054C7.94263 14.8734 7.90533 14.8468 7.8627 14.8254C7.80941 14.8041 7.7508 14.7934 7.6762 14.7934H4.5269C4.44697 14.7934 4.38835 14.8148 4.34039 14.8521C4.29776 14.8841 4.26579 14.9374 4.2498 15.0121C4.23381 15.0974 4.24447 15.1561 4.28177 15.2041C4.31907 15.2521 4.37769 15.2734 4.46295 15.2734H5.17168C5.40614 15.2734 5.57666 15.3268 5.67258 15.4388C5.77383 15.5508 5.79514 15.7214 5.74185 15.9508C5.72054 16.0521 5.68324 16.1481 5.62995 16.2388C5.57666 16.3348 5.50739 16.4148 5.42746 16.4788C5.34753 16.5428 5.25161 16.5961 5.14503 16.6334C5.04379 16.6708 4.92655 16.6868 4.80399 16.6868H3.48246C3.45049 16.5268 3.42384 16.3721 3.40253 16.2068H4.96386C5.05977 16.2068 5.13438 16.1854 5.18766 16.1428C5.24095 16.1001 5.27825 16.0468 5.29424 15.9721C5.31555 15.8814 5.29957 15.8121 5.25694 15.7641C5.20898 15.7161 5.13438 15.6894 5.03313 15.6894H4.31907C4.30236 15.6894 4.2871 15.688 4.27254 15.6866C4.25924 15.6853 4.24653 15.6841 4.23381 15.6841C4.15921 15.6788 4.08994 15.6628 4.03132 15.6361C3.95139 15.6041 3.88744 15.5614 3.83949 15.5028C3.79686 15.4441 3.76488 15.3748 3.7489 15.2948C3.73291 15.2148 3.73824 15.1241 3.75955 15.0228C3.78087 14.9268 3.81817 14.8308 3.87146 14.7454C3.92475 14.6548 3.99402 14.5801 4.07395 14.5161C4.1379 14.4681 4.20717 14.4254 4.28177 14.3934C4.29468 14.387 4.30759 14.3825 4.32168 14.3776C4.33086 14.3743 4.34054 14.371 4.35105 14.3668C4.45229 14.3294 4.5642 14.3134 4.68143 14.3134H7.83073C7.9 14.3134 7.96928 14.3188 8.03322 14.3294C8.08651 14.3401 8.13447 14.3561 8.1771 14.3721C8.26769 14.4148 8.34762 14.4681 8.40091 14.5374Z"
          fill="#3A87FC"/>
</svg>
