<svg width="72" height="72" viewBox="0 0 72 72" fill="none" xmlns="http://www.w3.org/2000/svg">
<g clip-path="url(#clip0_93_6)">
<path d="M34.5688 67.6159H10.4725V32.7482C10.4725 31.5869 9.5524 30.6578 8.40222 30.6578C7.25204 30.6578 6.30314 31.5578 6.30314 32.7482V69.7352C6.30314 70.8965 7.22329 71.8256 8.37347 71.8256H34.5688C35.719 71.8256 36.6392 70.8965 36.6392 69.7352C36.6392 68.574 35.719 67.6159 34.5688 67.6159ZM58.8377 1.7998H30.3707C30.0831 1.7998 29.8244 1.85787 29.5943 1.974C29.3643 2.06109 29.163 2.20626 28.9617 2.38045L28.933 2.40948L6.90699 24.8514C6.30314 25.4611 6.13061 26.3611 6.47567 27.1449C6.79197 27.9288 7.53959 28.4514 8.40222 28.4514H30.4282C31.5784 28.4514 32.4985 27.5224 32.4985 26.3611V6.03851H56.7386V35.0998C56.7386 36.2611 57.6587 37.1901 58.8089 37.1901C59.9591 37.1901 60.8792 36.2611 60.8792 35.0998V3.89013C60.908 2.72884 59.9879 1.7998 58.8377 1.7998ZM28.3291 24.2417H13.3768L28.3291 9.02883V24.2417Z" fill="#071F44" fill-opacity="0.1"/>
<path d="M49.8668 36.8706C40.2627 36.8706 32.499 44.7383 32.499 54.4351C32.499 64.1319 40.2915 71.9996 49.8668 71.9996C59.4708 71.9996 67.2632 64.1319 67.2632 54.4351C67.2632 44.7383 59.4708 36.8706 49.8668 36.8706ZM52.0809 66.3674C51.5633 66.8899 50.8732 67.1803 50.1543 67.1803C49.4354 67.1803 48.7453 66.8899 48.2277 66.3674C47.7102 65.8738 47.4226 65.148 47.4226 64.4222C47.4226 63.6964 47.7102 62.9996 48.2277 62.477C49.2342 61.4609 51.0457 61.4609 52.0809 62.477C52.5984 62.9996 52.886 63.6964 52.886 64.4222C52.886 65.148 52.5984 65.8448 52.0809 66.3674ZM54.5537 55.8287C53.2885 56.4674 52.3972 56.9609 52.3972 57.4254C52.3972 58.6738 51.3907 59.69 50.1831 59.69C48.9466 59.69 47.969 58.6738 47.969 57.4254C47.969 54.1738 50.6144 52.8093 52.5697 51.8222C54.6113 50.777 55.2439 50.2835 55.2439 49.3545C55.2439 48.2803 53.1735 47.148 49.838 47.148C46.5312 47.148 44.806 48.8319 44.4897 49.9061C44.1446 51.0964 42.9082 51.7932 41.7292 51.4158C40.5503 51.0674 39.8602 49.819 40.2052 48.6287C41.0391 45.7254 44.4034 42.648 49.8092 42.648C55.7039 42.648 59.672 45.348 59.672 49.3545C59.672 53.2158 56.5953 54.7835 54.5537 55.8287Z" fill="#071F44" fill-opacity="0.2"/>
</g>
<defs>
<clipPath id="clip0_93_6">
<rect width="72" height="72" fill="white"/>
</clipPath>
</defs>
</svg>
