<?xml version="1.0" encoding="utf-8"?>
<!-- Generator: Adobe Illustrator 24.0.3, SVG Export Plug-In . SVG Version: 6.00 Build 0)  -->
<svg version="1.1" id="圖層_1" xmlns="http://www.w3.org/2000/svg" xmlns:xlink="http://www.w3.org/1999/xlink" x="0px" y="0px"
	 viewBox="0 0 405 180" style="enable-background:new 0 0 405 180;" xml:space="preserve">
<style type="text/css">
	.st0{fill-rule:evenodd;clip-rule:evenodd;fill:#FFFFFF;}
	.st1{fill:url(#SVGID_1_);}
	.st2{fill:url(#SVGID_2_);}
	.st3{fill:url(#SVGID_3_);}
	.st4{fill:url(#SVGID_4_);}
	.st5{fill:url(#SVGID_5_);}
	.st6{fill:url(#SVGID_6_);}
	.st7{fill:url(#SVGID_7_);}
	.st8{fill:url(#SVGID_8_);}
	.st9{fill:url(#SVGID_9_);}
	.st10{fill:url(#SVGID_10_);}
	.st11{fill:url(#SVGID_11_);}
	.st12{fill:url(#SVGID_12_);}
	.st13{fill:url(#SVGID_13_);}
	.st14{fill:url(#SVGID_14_);}
	.st15{fill:url(#SVGID_15_);}
	.st16{fill:url(#SVGID_16_);}
	.st17{fill:url(#SVGID_17_);}
	.st18{fill:url(#SVGID_18_);}
	.st19{fill:url(#SVGID_19_);}
	.st20{fill:url(#SVGID_20_);}
	.st21{fill:url(#SVGID_21_);}
	.st22{fill:url(#SVGID_22_);}
	.st23{fill:url(#SVGID_23_);}
	.st24{fill:url(#SVGID_24_);}
</style>
<path class="st0" d="M223.5,19.2h21.1v11.9h-54.1V19.2h21.1v-7.7h11.9V19.2z M343.2,29.4c19.1-1,20.9-14.2,20.9-14.2
	s-4.1,2.4-16.5,2.4h-36.7v11.9h20.5v12.4h-23.4v11.9h23.4v55.8h11.9V53.8h23.4V41.9h-23.4L343.2,29.4L343.2,29.4z M261,29.5h4.3
	c21.2,0,23-14.3,23-14.3s-4,2.4-16.5,2.4H261h-11.9v74.7c0,2,0,4-0.1,5.3c-1,0.1-2.4,0.1-3.9,0.1c-4.1,0-5.7-1.5-5.7-5.6V79h-11.9
	v13.1c0,10,6.2,16.7,15.9,17.5v0.1c0.5,0,0.9,0,1.3,0l0.1,0c0.1,0,0.1,0,0.2,0c0.1,0,0.1,0,0.2,0v0c13.4-0.2,15.9-3.2,15.9-17.4
	V49.9h10.2v59.7h11.9V49.9h6.2V38H261V29.5z M392.3,92.2V17.5h11.9v74.7c0,14.8-2.6,17.4-17.7,17.4h-14.7V97.7h14.7
	c2,0,4.3,0,5.7-0.1C392.3,96.3,392.3,94.2,392.3,92.2z M313.5,92.8c0.1-1.3,0.1-3.4,0.1-5.3V58.9h11.9v28.5
	c0,14.8-2.6,17.4-17.7,17.4V92.9C309.9,92.9,312.1,92.9,313.5,92.8z M190.5,97.7c4.2,0,5.8-1.5,5.8-5.6V79h11.9v13.1
	c0,10.7-6.9,17.5-17.7,17.5V97.7z M362,59h-11.9v43.5H362V59z M371.9,17.5h11.9v72.1h-11.9V17.5z M242.2,53.8h-49.3V41.9h6.4
	l-4.7-8.2h13.8l4.7,8.2h9l4.7-8.2h13.8l-4.7,8.2h6.4V53.8z M242.2,74.1V62.1h-18.7v-5.5h-11.9v5.5h-18.7v11.9h18.7v35.5h11.9V74.1
	H242.2z M291.1,156.3h-7.9c-3.8,0-6.5-0.8-7.9-2.5c-1.3-1.5-2-4-2-7.6v-28.1h-10.6v29.1c0,6.3,1.5,11.2,4.5,14.5
	c3.4,3.5,8.7,5.2,16,5.2H299c-1.4-0.8-2.7-1.8-3.9-3C293.1,161.6,291.8,159.1,291.1,156.3z M328.3,141.1c-0.7,2.1-1.1,4.4-1.1,6.9
	c0,2.2,0.3,4.3,0.9,6.3c0.5,1.8,1.3,3.4,2.2,4.9c-0.5,0.7-1,1.4-1.6,2.1c-2.1,2.2-4.7,3.8-7.6,4.7c-2.1,0.7-4.3,1-6.7,1
	c-0.7,0-1.3,0-1.9-0.1c-5-0.4-9.1-2.2-12.3-5.6c-1.4-1.5-2.4-3.2-3.2-5c-0.9-2.2-1.4-4.6-1.4-7.2v-18v-2.5H306v20.4
	c0,1.9,0.6,3.6,1.9,4.9l0.1,0.1c1,1.2,2.3,1.9,4,2.2h0.5v0.1c0.6,0.1,1.2,0.1,1.9,0.1c0.5,0,1,0,1.4-0.1c2.1-0.2,3.7-1,5-2.4
	l0.1-0.1c1.4-1.4,2-3,2-4.9v-17.9v-2.5h10.4v4.8c-0.1,0.1-0.1,0.1-0.2,0.2c-0.1,0.1-0.2,0.1-0.3,0.2
	C330.7,135.8,329.2,138.3,328.3,141.1z M405,128.8h-15.2l-12.6,10.1v-20.5h-9.6v48.5h9.6v-14.2l14.4,14.2h13.3l-21.3-21L405,128.8z
	 M337.9,133.8c3.4-3.1,7.5-4.7,12.2-4.7v0h11.2h1.7v10.5h-1.7h-11.2c-1.9,0-3.6,0.6-4.9,1.9l-0.1,0.1c-1.7,1.4-2.5,3.5-2.5,6.4
	c0,2.8,0.8,4.9,2.5,6.4l0.1,0.1c1.4,1.4,3,2,4.9,2h11.2h1.7V167h-1.7h-11.2c-4.6,0-8.7-1.6-12.1-4.6c-2.6-2.5-4.3-5.6-5.1-9.1
	c-0.4-1.6-0.6-3.4-0.6-5.2c0-2.5,0.4-4.8,1.1-6.9C334.3,138.3,335.8,135.9,337.9,133.8z M250.6,144.5c-0.8-1.9-2.3-3.9-4.4-6.1
	c1.9-2.5,2.8-5.2,2.8-8.1c0-4.4-1.4-8-4.3-10.8c-2.9-2.8-6.6-4.2-11.1-4.2c-4.4,0-8.1,1.4-11,4.2c-2.9,2.8-4.3,6.4-4.3,10.7
	c0,3,0.9,5.7,2.8,8.2c-2.1,2.1-3.5,4.1-4.3,6.1c-0.8,1.9-1.3,4.2-1.3,6.8c0,5.1,1.7,9.3,5.2,12.7c3.5,3.4,7.8,5.1,13,5.1
	c5.2,0,9.5-1.7,13-5.1c3.5-3.4,5.2-7.6,5.2-12.7C251.8,148.6,251.4,146.3,250.6,144.5z M229.8,126c1-1.1,2.3-1.6,3.7-1.6
	c1.5,0,2.8,0.5,3.9,1.6s1.6,2.3,1.6,3.9c0,1.5-0.5,2.8-1.6,3.8c-1,1.1-2.3,1.6-3.7,1.6c-1.6,0-2.9-0.5-3.9-1.6s-1.5-2.4-1.5-4
	C228.2,128.3,228.7,127,229.8,126z M238.9,156.9c-1.4,1.4-3.2,2.2-5.3,2.2c-2.1,0-3.9-0.7-5.3-2.2c-1.4-1.4-2.1-3.3-2.1-5.5
	c0-2,0.7-3.7,2.2-5.1s3.2-2.1,5.2-2.1c2,0,3.7,0.7,5.2,2.2c1.5,1.4,2.2,3.1,2.2,5.1C241,153.6,240.3,155.4,238.9,156.9z
	 M190.6,134.2c4.3-0.8,8.7-3.3,11.3-6.2h7v40.6l-10.6-10.3v-24.7c-2.1,1-5.5,1.8-7.7,2V134.2z"/>
<linearGradient id="SVGID_1_" gradientUnits="userSpaceOnUse" x1="80.1" y1="166.0666" x2="80.1" y2="2.906" gradientTransform="matrix(1 0 0 -1 0 180)">
	<stop  offset="0" style="stop-color:#000000"/>
	<stop  offset="9.790000e-02" style="stop-color:#090102"/>
	<stop  offset="0.2577" style="stop-color:#210307"/>
	<stop  offset="0.4595" style="stop-color:#49070F"/>
	<stop  offset="0.6954" style="stop-color:#800C1A"/>
	<stop  offset="0.9572" style="stop-color:#C61329"/>
	<stop  offset="1" style="stop-color:#D2142B"/>
</linearGradient>
<path class="st1" d="M160.2,24c0,0-49-3-78.5-23l-1.5-1l-1.5,1C49,21,0,24,0,24s-0.5,16.3,3.2,60.2c3.7,43.9,30.8,71.7,75.6,95.1
	l1.3,0.7l1.3-0.7c44.8-23.4,71.9-51.3,75.6-95.1C160.7,40.3,160.2,24,160.2,24z"/>
<linearGradient id="SVGID_2_" gradientUnits="userSpaceOnUse" x1="80.245" y1="122.0915" x2="80.245" y2="17.97" gradientTransform="matrix(1 0 0 -1 0 180)">
	<stop  offset="0" style="stop-color:#2F050A"/>
	<stop  offset="0.1785" style="stop-color:#4E0810"/>
	<stop  offset="0.7448" style="stop-color:#AC1123"/>
	<stop  offset="1" style="stop-color:#D2142B"/>
</linearGradient>
<path class="st2" d="M128.4,65.2v1.4h-7.9v-1.4h-9.8v1.4h-7.9v-1.4H93v1.4h-7.9v-1.4h-9.8v1.4h-7.9v-1.4h-9.8v1.4h-7.9v-1.4H40v1.4
	h-7.9v-1.4h-9.8v67.3c13,17.3,32.1,31.4,56.6,44.1l1.3,0.7l1.3-0.7c24.6-12.8,43.9-27.1,56.8-44.5V65.2H128.4z"/>
<linearGradient id="SVGID_3_" gradientUnits="userSpaceOnUse" x1="27.16" y1="21.347" x2="27.16" y2="95.2966" gradientTransform="matrix(1 0 0 -1 0 180)">
	<stop  offset="0" style="stop-color:#9D5D23"/>
	<stop  offset="7.450000e-02" style="stop-color:#B57D3C"/>
	<stop  offset="0.1726" style="stop-color:#D0A058"/>
	<stop  offset="0.2723" style="stop-color:#E4BB6D"/>
	<stop  offset="0.3728" style="stop-color:#F3CE7D"/>
	<stop  offset="0.4747" style="stop-color:#FCDA86"/>
	<stop  offset="0.5799" style="stop-color:#FFDE89"/>
	<stop  offset="0.6492" style="stop-color:#FFDF8E"/>
	<stop  offset="0.7293" style="stop-color:#FFE39C"/>
	<stop  offset="0.8148" style="stop-color:#FFEAB3"/>
	<stop  offset="0.904" style="stop-color:#FFF3D3"/>
	<stop  offset="0.9954" style="stop-color:#FFFEFD"/>
	<stop  offset="1" style="stop-color:#FFFFFF"/>
</linearGradient>
<path class="st3" d="M22.3,56.2v76.2c2.9,3.9,6.2,7.7,9.8,11.3V56.2H22.3z"/>
<linearGradient id="SVGID_4_" gradientUnits="userSpaceOnUse" x1="80.2301" y1="21.347" x2="80.2301" y2="95.2966" gradientTransform="matrix(1 0 0 -1 0 180)">
	<stop  offset="0" style="stop-color:#9D5D23"/>
	<stop  offset="7.450000e-02" style="stop-color:#B57D3C"/>
	<stop  offset="0.1726" style="stop-color:#D0A058"/>
	<stop  offset="0.2723" style="stop-color:#E4BB6D"/>
	<stop  offset="0.3728" style="stop-color:#F3CE7D"/>
	<stop  offset="0.4747" style="stop-color:#FCDA86"/>
	<stop  offset="0.5799" style="stop-color:#FFDE89"/>
	<stop  offset="0.6492" style="stop-color:#FFDF8E"/>
	<stop  offset="0.7293" style="stop-color:#FFE39C"/>
	<stop  offset="0.8148" style="stop-color:#FFEAB3"/>
	<stop  offset="0.904" style="stop-color:#FFF3D3"/>
	<stop  offset="0.9954" style="stop-color:#FFFEFD"/>
	<stop  offset="1" style="stop-color:#FFFFFF"/>
</linearGradient>
<path class="st4" d="M75.3,56.2v118.5c1.2,0.6,2.4,1.3,3.6,1.9l1.3,0.7l1.3-0.7c1.2-0.6,2.4-1.3,3.6-1.9V56.2H75.3z"/>
<linearGradient id="SVGID_5_" gradientUnits="userSpaceOnUse" x1="62.54" y1="21.347" x2="62.54" y2="95.2967" gradientTransform="matrix(1 0 0 -1 0 180)">
	<stop  offset="0" style="stop-color:#9D5D23"/>
	<stop  offset="7.450000e-02" style="stop-color:#B57D3C"/>
	<stop  offset="0.1726" style="stop-color:#D0A058"/>
	<stop  offset="0.2723" style="stop-color:#E4BB6D"/>
	<stop  offset="0.3728" style="stop-color:#F3CE7D"/>
	<stop  offset="0.4747" style="stop-color:#FCDA86"/>
	<stop  offset="0.5799" style="stop-color:#FFDE89"/>
	<stop  offset="0.6492" style="stop-color:#FFDF8E"/>
	<stop  offset="0.7293" style="stop-color:#FFE39C"/>
	<stop  offset="0.8148" style="stop-color:#FFEAB3"/>
	<stop  offset="0.904" style="stop-color:#FFF3D3"/>
	<stop  offset="0.9954" style="stop-color:#FFFEFD"/>
	<stop  offset="1" style="stop-color:#FFFFFF"/>
</linearGradient>
<path class="st5" d="M57.6,56.2v108.1c3.2,2.1,6.4,4.1,9.8,6.1V56.2H57.6z"/>
<linearGradient id="SVGID_6_" gradientUnits="userSpaceOnUse" x1="44.85" y1="21.347" x2="44.85" y2="95.2966" gradientTransform="matrix(1 0 0 -1 0 180)">
	<stop  offset="0" style="stop-color:#9D5D23"/>
	<stop  offset="7.450000e-02" style="stop-color:#B57D3C"/>
	<stop  offset="0.1726" style="stop-color:#D0A058"/>
	<stop  offset="0.2723" style="stop-color:#E4BB6D"/>
	<stop  offset="0.3728" style="stop-color:#F3CE7D"/>
	<stop  offset="0.4747" style="stop-color:#FCDA86"/>
	<stop  offset="0.5799" style="stop-color:#FFDE89"/>
	<stop  offset="0.6492" style="stop-color:#FFDF8E"/>
	<stop  offset="0.7293" style="stop-color:#FFE39C"/>
	<stop  offset="0.8148" style="stop-color:#FFEAB3"/>
	<stop  offset="0.904" style="stop-color:#FFF3D3"/>
	<stop  offset="0.9954" style="stop-color:#FFFEFD"/>
	<stop  offset="1" style="stop-color:#FFFFFF"/>
</linearGradient>
<path class="st6" d="M40,56.2v94.9c3.1,2.6,6.4,5.2,9.8,7.7V56.2H40z"/>
<linearGradient id="SVGID_7_" gradientUnits="userSpaceOnUse" x1="115.62" y1="21.347" x2="115.62" y2="95.2965" gradientTransform="matrix(1 0 0 -1 0 180)">
	<stop  offset="0" style="stop-color:#9D5D23"/>
	<stop  offset="7.450000e-02" style="stop-color:#B57D3C"/>
	<stop  offset="0.1726" style="stop-color:#D0A058"/>
	<stop  offset="0.2723" style="stop-color:#E4BB6D"/>
	<stop  offset="0.3728" style="stop-color:#F3CE7D"/>
	<stop  offset="0.4747" style="stop-color:#FCDA86"/>
	<stop  offset="0.5799" style="stop-color:#FFDE89"/>
	<stop  offset="0.6492" style="stop-color:#FFDF8E"/>
	<stop  offset="0.7293" style="stop-color:#FFE39C"/>
	<stop  offset="0.8148" style="stop-color:#FFEAB3"/>
	<stop  offset="0.904" style="stop-color:#FFF3D3"/>
	<stop  offset="0.9954" style="stop-color:#FFFEFD"/>
	<stop  offset="1" style="stop-color:#FFFFFF"/>
</linearGradient>
<path class="st7" d="M110.7,56.2v102.6c3.4-2.5,6.7-5.1,9.8-7.7V56.2H110.7z"/>
<linearGradient id="SVGID_8_" gradientUnits="userSpaceOnUse" x1="97.92" y1="21.347" x2="97.92" y2="95.2965" gradientTransform="matrix(1 0 0 -1 0 180)">
	<stop  offset="0" style="stop-color:#9D5D23"/>
	<stop  offset="7.450000e-02" style="stop-color:#B57D3C"/>
	<stop  offset="0.1726" style="stop-color:#D0A058"/>
	<stop  offset="0.2723" style="stop-color:#E4BB6D"/>
	<stop  offset="0.3728" style="stop-color:#F3CE7D"/>
	<stop  offset="0.4747" style="stop-color:#FCDA86"/>
	<stop  offset="0.5799" style="stop-color:#FFDE89"/>
	<stop  offset="0.6492" style="stop-color:#FFDF8E"/>
	<stop  offset="0.7293" style="stop-color:#FFE39C"/>
	<stop  offset="0.8148" style="stop-color:#FFEAB3"/>
	<stop  offset="0.904" style="stop-color:#FFF3D3"/>
	<stop  offset="0.9954" style="stop-color:#FFFEFD"/>
	<stop  offset="1" style="stop-color:#FFFFFF"/>
</linearGradient>
<path class="st8" d="M93,56.2v114.1c3.4-2,6.7-4,9.8-6.1V56.2H93z"/>
<linearGradient id="SVGID_9_" gradientUnits="userSpaceOnUse" x1="133.31" y1="21.347" x2="133.31" y2="95.2966" gradientTransform="matrix(1 0 0 -1 0 180)">
	<stop  offset="0" style="stop-color:#9D5D23"/>
	<stop  offset="7.450000e-02" style="stop-color:#B57D3C"/>
	<stop  offset="0.1726" style="stop-color:#D0A058"/>
	<stop  offset="0.2723" style="stop-color:#E4BB6D"/>
	<stop  offset="0.3728" style="stop-color:#F3CE7D"/>
	<stop  offset="0.4747" style="stop-color:#FCDA86"/>
	<stop  offset="0.5799" style="stop-color:#FFDE89"/>
	<stop  offset="0.6492" style="stop-color:#FFDF8E"/>
	<stop  offset="0.7293" style="stop-color:#FFE39C"/>
	<stop  offset="0.8148" style="stop-color:#FFEAB3"/>
	<stop  offset="0.904" style="stop-color:#FFF3D3"/>
	<stop  offset="0.9954" style="stop-color:#FFFEFD"/>
	<stop  offset="1" style="stop-color:#FFFFFF"/>
</linearGradient>
<path class="st9" d="M128.4,56.2v87.5c3.6-3.6,6.8-7.4,9.8-11.3V56.2H128.4z"/>
<linearGradient id="SVGID_10_" gradientUnits="userSpaceOnUse" x1="80.245" y1="157.3259" x2="80.245" y2="174.8948" gradientTransform="matrix(1 0 0 -1 0 180)">
	<stop  offset="0" style="stop-color:#FFDE89"/>
	<stop  offset="0.1649" style="stop-color:#FFDF8E"/>
	<stop  offset="0.3556" style="stop-color:#FFE39C"/>
	<stop  offset="0.5591" style="stop-color:#FFEAB3"/>
	<stop  offset="0.7716" style="stop-color:#FFF3D3"/>
	<stop  offset="0.9891" style="stop-color:#FFFEFD"/>
	<stop  offset="1" style="stop-color:#FFFFFF"/>
</linearGradient>
<path class="st10" d="M80.2,19.6l-5.5,2.5l0.7-6l-4.1-4.4l5.9-1.2l3-5.3l3,5.3l5.9,1.2l-4.1,4.4l0.7,6L80.2,19.6z"/>
<linearGradient id="SVGID_11_" gradientUnits="userSpaceOnUse" x1="55.77" y1="151.6699" x2="55.77" y2="162.1899" gradientTransform="matrix(1 0 0 -1 0 180)">
	<stop  offset="0" style="stop-color:#FFDE89"/>
	<stop  offset="0.1649" style="stop-color:#FFDF8E"/>
	<stop  offset="0.3556" style="stop-color:#FFE39C"/>
	<stop  offset="0.5591" style="stop-color:#FFEAB3"/>
	<stop  offset="0.7716" style="stop-color:#FFF3D3"/>
	<stop  offset="0.9891" style="stop-color:#FFFEFD"/>
	<stop  offset="1" style="stop-color:#FFFFFF"/>
</linearGradient>
<path class="st11" d="M55.8,26.8l-3.4,1.6l0.4-3.7l-2.5-2.8l3.7-0.8l1.8-3.3l1.8,3.3l3.7,0.8l-2.5,2.8l0.4,3.7L55.8,26.8z"/>
<linearGradient id="SVGID_12_" gradientUnits="userSpaceOnUse" x1="104.94" y1="151.6699" x2="104.94" y2="162.1899" gradientTransform="matrix(1 0 0 -1 0 180)">
	<stop  offset="0" style="stop-color:#FFDE89"/>
	<stop  offset="0.1649" style="stop-color:#FFDF8E"/>
	<stop  offset="0.3556" style="stop-color:#FFE39C"/>
	<stop  offset="0.5591" style="stop-color:#FFEAB3"/>
	<stop  offset="0.7716" style="stop-color:#FFF3D3"/>
	<stop  offset="0.9891" style="stop-color:#FFFEFD"/>
	<stop  offset="1" style="stop-color:#FFFFFF"/>
</linearGradient>
<path class="st12" d="M104.9,26.8l3.4,1.6l-0.4-3.7l2.5-2.8l-3.7-0.8l-1.8-3.3l-1.8,3.3l-3.7,0.8l2.5,2.8l-0.4,3.7L104.9,26.8z"/>
<linearGradient id="SVGID_13_" gradientUnits="userSpaceOnUse" x1="18.09" y1="86.96" x2="142.38" y2="86.96" gradientTransform="matrix(1 0 0 -1 0 180)">
	<stop  offset="0" style="stop-color:#D2142B"/>
	<stop  offset="0.1307" style="stop-color:#B30C1A"/>
	<stop  offset="0.2746" style="stop-color:#98060C"/>
	<stop  offset="0.4024" style="stop-color:#880103"/>
	<stop  offset="0.5" style="stop-color:#2F050A"/>
	<stop  offset="1" style="stop-color:#000000"/>
</linearGradient>
<path class="st13" d="M142.4,41.5l-7.9-0.7c-0.3,0-28.6-2.8-49.5-15.9l-4.8-3l-4.8,3C54.6,38,26.3,40.8,26,40.8l-7.9,0.7v41.2
	c0,32.1,21.8,61.8,58.2,79.4l3.9,1.9l3.9-1.9c36.5-17.6,58.2-47.3,58.2-79.4V41.5z"/>
<linearGradient id="SVGID_14_" gradientUnits="userSpaceOnUse" x1="22.25" y1="86.8" x2="138.19" y2="86.8" gradientTransform="matrix(1 0 0 -1 0 180)">
	<stop  offset="0" style="stop-color:#FFEFBD"/>
	<stop  offset="0.2055" style="stop-color:#FFDE89"/>
	<stop  offset="0.224" style="stop-color:#F8D582"/>
	<stop  offset="0.4138" style="stop-color:#B77F3E"/>
	<stop  offset="0.5" style="stop-color:#D4AA58"/>
	<stop  offset="1" style="stop-color:#9D5D23"/>
</linearGradient>
<path class="st14" d="M80.2,159.6l-1.9-0.9c-35.1-17-56.1-45.3-56.1-76V45.3L26,45c0.3,0,29.8-2.8,51.9-16.7l2.3-1.4l2.3,1.4
	c22.1,13.8,51.6,16.6,51.9,16.7l3.8,0.3v37.4c0,30.6-21,59-56.1,76L80.2,159.6z M26.5,49.1v33.6c0,29,20.1,56,53.7,72.2l0,0l0,0
	c33.6-16.2,53.7-43.2,53.7-72.2V49.1c-1-0.1-31-3.1-53.7-17.3l0,0l0,0C57.5,46,27.5,49,26.5,49.1z"/>
<linearGradient id="SVGID_15_" gradientUnits="userSpaceOnUse" x1="105.8251" y1="33.349" x2="105.8251" y2="141.7817" gradientTransform="matrix(1 0 0 -1 0 180)">
	<stop  offset="0" style="stop-color:#9D5D23"/>
	<stop  offset="7.450000e-02" style="stop-color:#B57D3C"/>
	<stop  offset="0.1726" style="stop-color:#D0A058"/>
	<stop  offset="0.2723" style="stop-color:#E4BB6D"/>
	<stop  offset="0.3728" style="stop-color:#F3CE7D"/>
	<stop  offset="0.4747" style="stop-color:#FCDA86"/>
	<stop  offset="0.5799" style="stop-color:#FFDE89"/>
	<stop  offset="0.6492" style="stop-color:#FFDF8E"/>
	<stop  offset="0.7293" style="stop-color:#FFE39C"/>
	<stop  offset="0.8148" style="stop-color:#FFEAB3"/>
	<stop  offset="0.904" style="stop-color:#FFF3D3"/>
	<stop  offset="0.9954" style="stop-color:#FFFEFD"/>
	<stop  offset="1" style="stop-color:#FFFFFF"/>
</linearGradient>
<path class="st15" d="M98.7,135.3c4.6,0,8.8-0.7,12.7-2.1c1.1-1.1,2.2-2.3,3.3-3.5c-5.2,3.4-11.1,5.3-17.9,5.6
	C97.5,135.2,98.1,135.3,98.7,135.3z"/>
<linearGradient id="SVGID_16_" gradientUnits="userSpaceOnUse" x1="114.865" y1="33.349" x2="114.865" y2="141.78" gradientTransform="matrix(1 0 0 -1 0 180)">
	<stop  offset="0" style="stop-color:#9D5D23"/>
	<stop  offset="7.450000e-02" style="stop-color:#B57D3C"/>
	<stop  offset="0.1726" style="stop-color:#D0A058"/>
	<stop  offset="0.2723" style="stop-color:#E4BB6D"/>
	<stop  offset="0.3728" style="stop-color:#F3CE7D"/>
	<stop  offset="0.4747" style="stop-color:#FCDA86"/>
	<stop  offset="0.5799" style="stop-color:#FFDE89"/>
	<stop  offset="0.6492" style="stop-color:#FFDF8E"/>
	<stop  offset="0.7293" style="stop-color:#FFE39C"/>
	<stop  offset="0.8148" style="stop-color:#FFEAB3"/>
	<stop  offset="0.904" style="stop-color:#FFF3D3"/>
	<stop  offset="0.9954" style="stop-color:#FFFEFD"/>
	<stop  offset="1" style="stop-color:#FFFFFF"/>
</linearGradient>
<path class="st16" d="M133,93.9c-0.4-2.1-0.9-4-1.7-5.8c-0.4-1-1-2.1-1.7-3.2c-1.6-2.7-3.9-5.5-6.8-8.5c0.6-0.8,1.1-1.6,1.6-2.4
	c2.5-4.1,3.7-8.5,3.7-13.2c0-5.9-1.3-11-4-15.4c-1.2-1.9-2.6-3.7-4.3-5.3c-2.9-2.9-6.3-5-10.2-6.3c-3.4-1.2-7.1-1.8-11.1-1.8
	c-0.6,0-1.2,0-1.8,0.1c7.8,0.4,14.3,3,19.4,8c1.8,1.7,3.2,3.6,4.4,5.6c0.2,0.4,0.5,0.8,0.7,1.3c2.1,4,3.2,8.6,3.2,13.8
	c0,4.2-1,8.1-2.9,11.7c-0.2,0.4-0.4,0.8-0.7,1.2c-0.5,0.9-1.1,1.8-1.8,2.7c3,3.1,5.3,6.1,7,8.8c0.2,0.4,0.5,0.8,0.7,1.2
	c0.3,0.5,0.5,1.1,0.8,1.6c1.5,3.6,2.3,7.9,2.3,13c0,1.6-0.1,3.2-0.3,4.8C131.1,101.9,132.2,97.9,133,93.9z"/>
<linearGradient id="SVGID_17_" gradientUnits="userSpaceOnUse" x1="89.16" y1="33.349" x2="89.16" y2="141.7799" gradientTransform="matrix(1 0 0 -1 0 180)">
	<stop  offset="0" style="stop-color:#9D5D23"/>
	<stop  offset="7.450000e-02" style="stop-color:#B57D3C"/>
	<stop  offset="0.1726" style="stop-color:#D0A058"/>
	<stop  offset="0.2723" style="stop-color:#E4BB6D"/>
	<stop  offset="0.3728" style="stop-color:#F3CE7D"/>
	<stop  offset="0.4747" style="stop-color:#FCDA86"/>
	<stop  offset="0.5799" style="stop-color:#FFDE89"/>
	<stop  offset="0.6492" style="stop-color:#FFDF8E"/>
	<stop  offset="0.7293" style="stop-color:#FFE39C"/>
	<stop  offset="0.8148" style="stop-color:#FFEAB3"/>
	<stop  offset="0.904" style="stop-color:#FFF3D3"/>
	<stop  offset="0.9954" style="stop-color:#FFFEFD"/>
	<stop  offset="1" style="stop-color:#FFFFFF"/>
</linearGradient>
<path class="st17" d="M114.7,76.4c3.5-4.8,5.3-10,5.3-15.6c0-7.6-2.2-13.9-6.7-19c-0.5-0.6-1-1.1-1.6-1.7c-1.6-1.5-3.2-2.8-5-3.9
	c-3.6-2.1-7.6-3.5-12.1-4c-0.6-0.1-1.2-0.1-1.8-0.2c-0.6,0-1.2-0.1-1.8-0.1c-0.1,0-0.3,0-0.4,0c-3.3,0-6.3,0.4-9.1,1.2
	c-4.3,1.2-8,3.3-11.3,6.3c-0.2,0.2-0.5,0.4-0.7,0.7C63.8,45.6,61,52.5,61,60.8c0,5.8,1.8,11,5.3,15.7c-3.3,3.4-5.8,6.7-7.4,9.8
	c-0.3,0.6-0.6,1.2-0.9,1.8c-0.9,2.1-1.6,4.4-2,6.9c-0.2,1-0.3,2.1-0.4,3.2V87.3v-27h-2.8v1V135v0.9v0.9c0.9,0.8,1.9,1.7,2.8,2.5V137
	v-22v-11.2c0.1,1.1,0.2,2.2,0.4,3.2c0.5,3.3,1.5,6.4,2.8,9.2c1.6,3.3,3.8,6.4,6.7,9.2c0.2,0.2,0.4,0.4,0.6,0.6
	c3.9,3.6,8.3,6.2,13.2,7.7c3.4,1,7.1,1.5,11.1,1.5c0.1,0,0.3,0,0.4,0c0.6,0,1.2,0,1.8-0.1c0.6,0,1.2-0.1,1.8-0.1
	c5.1-0.5,9.7-1.9,13.8-4.3c2.5-1.4,4.8-3.2,7-5.3c0.6-0.5,1.1-1.1,1.6-1.6c5.6-6.2,8.4-13.8,8.4-22.8c0-5.1-0.8-9.4-2.3-13
	C121.6,84.6,118.8,80.7,114.7,76.4z M94.4,50.4c1.2,0.5,2.3,1.2,3.3,2.2c0.1,0.1,0.1,0.2,0.2,0.2c0.4,0.4,0.7,0.8,1,1.2
	c1.2,1.7,1.8,3.7,1.8,6c0,2.3-0.7,4.4-2,6.2c-0.3,0.4-0.6,0.7-0.9,1.1c0,0-0.1,0.1-0.1,0.1c-1,1-2.1,1.8-3.2,2.3
	c-1.2-0.5-2.3-1.2-3.3-2.2c-0.1-0.1-0.1-0.1-0.2-0.2c-0.8-0.8-1.4-1.8-1.8-2.8c-0.6-1.4-1-3-1-4.8c0-1.4,0.3-2.7,0.8-3.9
	c0.5-1.1,1.2-2.1,2-3c0,0,0.1-0.1,0.1-0.2C92.2,51.6,93.2,50.9,94.4,50.4z M83,52.6c0.3-0.4,0.7-0.7,1.1-1c1.7-1.3,3.5-2,5.6-2.1
	c0.1,0,0.3,0,0.4,0c0.1,0,0.3,0,0.4,0c0.7,0,1.3,0.1,1.9,0.2c-1.9,0.4-3.5,1.3-5,2.8c-0.5,0.5-0.9,1-1.3,1.5c-0.4,0.6-0.7,1.2-1,1.8
	c-0.5,1.2-0.8,2.5-0.8,3.8c0,1.7,0.3,3.3,0.9,4.7c0.3,0.6,0.6,1.2,0.9,1.7c0.3,0.5,0.7,0.9,1.1,1.4c1.4,1.5,3.2,2.4,5.2,2.8
	c-0.6,0.1-1.1,0.2-1.7,0.2c-0.1,0-0.3,0-0.4,0c-0.3,0-0.6,0-0.9,0c-2.2-0.1-4-0.8-5.6-2c-0.4-0.3-0.8-0.6-1.1-1
	c-2-2-2.9-4.6-2.9-7.8C80,57,81,54.6,83,52.6z M90.8,116.1c-0.1,0-0.3,0-0.4,0c-0.8,0-1.5-0.1-2.3-0.2c-2.6-0.4-4.8-1.3-6.7-2.9
	c-0.4-0.3-0.8-0.7-1.2-1.1c-2.7-2.8-4-6.3-4-10.5c0-3.8,1.4-7.1,4.2-9.9c0.3-0.3,0.6-0.6,0.9-0.8c2.1-1.7,4.4-2.8,7-3.1
	c0.7-0.1,1.4-0.2,2.2-0.2c0.1,0,0.3,0,0.4,0c0.6,0,1.2,0.1,1.8,0.2c-2.9,0.4-5.6,1.7-7.8,3.9c-0.8,0.8-1.4,1.6-2,2.4
	c-0.4,0.6-0.7,1.2-1,1.8c-0.8,1.7-1.2,3.6-1.2,5.7c0,2.5,0.5,4.7,1.4,6.6c0.3,0.6,0.6,1.2,0.9,1.7c0.5,0.8,1.1,1.5,1.7,2.1
	c2.2,2.3,4.8,3.6,7.9,4C92.1,116,91.5,116.1,90.8,116.1z M101.7,110.7c-0.3,0.4-0.7,0.8-1.1,1.2c-0.3,0.3-0.7,0.6-1,0.9
	c-1.5,1.3-3.2,2.2-5.1,2.7c-1.9-0.5-3.7-1.5-5.2-2.8c-0.3-0.3-0.6-0.5-0.9-0.8c-1.1-1.1-2-2.4-2.6-3.8c-0.9-2-1.4-4.2-1.4-6.7
	c0-2.1,0.4-4.1,1.3-5.9c0.7-1.4,1.6-2.8,2.9-4c0.3-0.3,0.6-0.5,0.8-0.7c1.5-1.3,3.2-2.2,5.1-2.8c1.8,0.5,3.4,1.4,5,2.7
	c0.3,0.3,0.7,0.6,1,0.9c0.5,0.5,0.9,0.9,1.3,1.4c1.9,2.4,2.9,5.2,2.9,8.4C104.7,105.1,103.7,108.1,101.7,110.7z"/>
<linearGradient id="SVGID_18_" gradientUnits="userSpaceOnUse" x1="35.3401" y1="33.349" x2="35.3401" y2="141.78" gradientTransform="matrix(1 0 0 -1 0 180)">
	<stop  offset="0" style="stop-color:#9D5D23"/>
	<stop  offset="7.450000e-02" style="stop-color:#B57D3C"/>
	<stop  offset="0.1726" style="stop-color:#D0A058"/>
	<stop  offset="0.2723" style="stop-color:#E4BB6D"/>
	<stop  offset="0.3728" style="stop-color:#F3CE7D"/>
	<stop  offset="0.4747" style="stop-color:#FCDA86"/>
	<stop  offset="0.5799" style="stop-color:#FFDE89"/>
	<stop  offset="0.6492" style="stop-color:#FFDF8E"/>
	<stop  offset="0.7293" style="stop-color:#FFE39C"/>
	<stop  offset="0.8148" style="stop-color:#FFEAB3"/>
	<stop  offset="0.904" style="stop-color:#FFF3D3"/>
	<stop  offset="0.9954" style="stop-color:#FFFEFD"/>
	<stop  offset="1" style="stop-color:#FFFFFF"/>
</linearGradient>
<path class="st18" d="M42.3,60.3c-5,5.6-12.1,10.4-20.4,11.9v2.6c4.4-0.4,9.5-1.9,13.6-3.8v43.3v1.2c3.5,6.2,8,12.1,13.4,17.5v-2.8
	v-5V63.5v-2.2v-1h-3.2H42.3z"/>
<linearGradient id="SVGID_19_" gradientUnits="userSpaceOnUse" x1="20.9946" y1="94.6" x2="138.764" y2="94.6" gradientTransform="matrix(1 0 0 -1 0 180)">
	<stop  offset="0" style="stop-color:#D2142B"/>
	<stop  offset="0.1307" style="stop-color:#B30C1A"/>
	<stop  offset="0.2746" style="stop-color:#98060C"/>
	<stop  offset="0.4024" style="stop-color:#880103"/>
	<stop  offset="0.5" style="stop-color:#2F050A"/>
	<stop  offset="1" style="stop-color:#000000"/>
</linearGradient>
<path class="st19" d="M127,76.1c3-4.7,4.4-9.8,4.4-15.3c0-9.3-3.1-17-9.3-23c-6.1-5.9-14.1-9-23.5-9c-0.6,0-1.2,0-1.8,0
	c-0.6,0-1.2,0-1.8,0c-0.6,0-1.2,0-1.8,0c-0.6,0-1.2,0-1.8,0c-9.4,0-17.2,3-23.3,9c-5.3,5.2-8.3,11.6-9.1,19.2h-18l-1,1.1
	c-5.2,5.8-11.8,9.6-18.6,10.9l-2.6,0.5v8.7l3.5-0.3c3.1-0.3,6.6-1.1,10.1-2.3v33.5c1,2.1,2,4.2,3.2,6.3v-1.2V70.9
	c-4.1,1.9-9.2,3.5-13.6,3.8v-2.6c8.3-1.6,15.4-6.3,20.4-11.9h3.3h3.2v1v2.2v61.7v5v2.8c1.3,1.3,2.7,2.6,4.1,3.9v-0.9v-0.9V61.3v-1
	h2.8v27v10.9c0.1-1.1,0.2-2.2,0.4-3.2c0.4-2.5,1-4.8,2-6.9c0.3-0.6,0.6-1.2,0.9-1.8c1.7-3.1,4.1-6.4,7.4-9.8
	c-3.5-4.7-5.3-9.9-5.3-15.7c0-8.3,2.8-15.2,8.3-20.6c0.2-0.2,0.5-0.4,0.7-0.7c3.3-3,7-5.1,11.3-6.3c2.8-0.8,5.8-1.2,9.1-1.2
	c0.1,0,0.3,0,0.4,0c0.6,0,1.2,0,1.8,0.1c0.6,0,1.2,0.1,1.8,0.1c4.5,0.5,8.5,1.8,12.1,4c1.8,1.1,3.5,2.4,5,3.9
	c0.6,0.5,1.1,1.1,1.6,1.7c4.5,5.1,6.7,11.4,6.7,19c0,5.7-1.8,10.9-5.3,15.6c4.1,4.2,6.9,8.1,8.4,11.7c1.5,3.5,2.3,7.9,2.3,13
	c0,8.9-2.8,16.5-8.4,22.8c-0.5,0.6-1,1.1-1.6,1.6c-2.2,2.1-4.5,3.9-7,5.3c-4.1,2.4-8.7,3.8-13.8,4.3c-0.6,0.1-1.2,0.1-1.8,0.1
	c-0.6,0-1.2,0.1-1.8,0.1c-0.1,0-0.3,0-0.4,0c-4,0-7.7-0.5-11.1-1.6c-4.9-1.5-9.4-4-13.2-7.6c-0.2-0.2-0.4-0.4-0.6-0.6
	c-2.8-2.8-5-5.8-6.7-9.2c-1.4-2.9-2.3-5.9-2.9-9.2c-0.2-1-0.3-2.1-0.4-3.2v11.1V137v2.3c1,0.9,2.1,1.7,3.2,2.6v-20.6
	c1.5,2.3,3.2,4.5,5.3,6.5c7.2,7.1,16.4,10.7,27.2,10.7c0.6,0,1.2,0,1.8,0c0.6,0,1.2,0,1.8,0s1.2,0,1.8,0c0.6,0,1.2,0,1.9,0
	c2.7,0,5.3-0.2,7.8-0.7c1.7-1.5,3.4-3.1,5-4.6c-3.9,1.4-8.1,2.1-12.7,2.1c-0.6,0-1.2,0-1.9,0c6.8-0.3,12.7-2.1,17.9-5.6
	c6.6-7.3,11.6-15.4,14.8-23.8c0.2-1.5,0.3-3.1,0.3-4.8c0-5.1-0.8-9.4-2.3-13c-0.2-0.5-0.5-1-0.8-1.6c-0.2-0.4-0.4-0.8-0.7-1.2
	c-1.6-2.8-3.9-5.7-7-8.8c0.7-0.9,1.2-1.8,1.8-2.7c0.2-0.4,0.5-0.8,0.7-1.2c1.9-3.7,2.9-7.6,2.9-11.7c0-5.2-1.1-9.8-3.2-13.8
	c-0.2-0.4-0.5-0.9-0.7-1.3c-1.2-2-2.7-3.9-4.4-5.6c-5.1-5-11.6-7.6-19.4-8c0.6,0,1.2,0,1.8,0c4,0,7.7,0.6,11.1,1.8
	c3.8,1.3,7.2,3.4,10.2,6.3c1.7,1.6,3.1,3.4,4.3,5.3c2.7,4.4,4,9.5,4,15.4c0,4.7-1.3,9.1-3.7,13.2c-0.5,0.8-1,1.6-1.6,2.4
	c2.9,3,5.1,5.8,6.8,8.5c0.6,1.1,1.2,2.1,1.7,3.2c0.8,1.7,1.3,3.7,1.7,5.8c0.5-2.6,0.8-5.2,0.9-7.8C132.4,82.9,130.1,79.7,127,76.1z
	 M63.1,76.2c-1.6,1.8-3,3.6-4.2,5.3V64.8C59.5,68.8,60.9,72.6,63.1,76.2z"/>
<linearGradient id="SVGID_20_" gradientUnits="userSpaceOnUse" x1="20.9946" y1="119.985" x2="138.763" y2="119.985" gradientTransform="matrix(1 0 0 -1 0 180)">
	<stop  offset="0" style="stop-color:#D2142B"/>
	<stop  offset="0.1307" style="stop-color:#B30C1A"/>
	<stop  offset="0.2746" style="stop-color:#98060C"/>
	<stop  offset="0.4024" style="stop-color:#880103"/>
	<stop  offset="0.5" style="stop-color:#2F050A"/>
	<stop  offset="1" style="stop-color:#000000"/>
</linearGradient>
<path class="st20" d="M97.9,52.8c-0.1-0.1-0.1-0.2-0.2-0.2c-1-1-2.1-1.7-3.3-2.2c-1.1,0.5-2.2,1.2-3.2,2.2c-0.1,0-0.1,0.1-0.2,0.2
	c-0.9,0.9-1.6,1.9-2,3c-0.5,1.2-0.8,2.5-0.8,3.9c0,1.8,0.3,3.4,1,4.8c0.4,1,1.1,1.9,1.8,2.8c0.1,0.1,0.1,0.1,0.2,0.2
	c1,1,2.1,1.7,3.3,2.2c1.2-0.5,2.3-1.3,3.2-2.3c0,0,0.1-0.1,0.1-0.1c0.3-0.4,0.6-0.7,0.9-1.1c1.3-1.8,2-3.9,2-6.2
	c0-2.3-0.6-4.3-1.8-6C98.6,53.6,98.2,53.2,97.9,52.8z M96.2,65.1c-0.4,0.5-0.9,0.8-1.4,1.2c-0.5-0.3-0.9-0.7-1.4-1.1
	c-1.4-1.4-2.1-3.2-2.1-5.5c0-1.9,0.7-3.4,2.1-4.9c0.4-0.4,0.9-0.8,1.3-1.1c0.5,0.3,1,0.7,1.4,1.1c1.4,1.4,2.1,3,2.1,5.1
	C98.3,62,97.6,63.7,96.2,65.1z"/>
<linearGradient id="SVGID_21_" gradientUnits="userSpaceOnUse" x1="20.9945" y1="78.2" x2="138.763" y2="78.2" gradientTransform="matrix(1 0 0 -1 0 180)">
	<stop  offset="0" style="stop-color:#D2142B"/>
	<stop  offset="0.1307" style="stop-color:#B30C1A"/>
	<stop  offset="0.2746" style="stop-color:#98060C"/>
	<stop  offset="0.4024" style="stop-color:#880103"/>
	<stop  offset="0.5" style="stop-color:#2F050A"/>
	<stop  offset="1" style="stop-color:#000000"/>
</linearGradient>
<path class="st21" d="M94.5,88c-1.9,0.5-3.6,1.5-5.1,2.8c-0.3,0.2-0.6,0.5-0.8,0.7c-1.2,1.2-2.2,2.5-2.9,4c-0.9,1.8-1.3,3.8-1.3,5.9
	c0,2.5,0.5,4.7,1.4,6.7c0.7,1.4,1.5,2.6,2.6,3.8c0.3,0.3,0.6,0.6,0.9,0.8c1.5,1.3,3.3,2.3,5.2,2.8c1.9-0.5,3.6-1.4,5.1-2.7
	c0.3-0.3,0.7-0.6,1-0.9c0.4-0.4,0.7-0.8,1.1-1.2c2-2.6,3-5.7,3-9.3c0-3.2-1-5.9-2.9-8.4c-0.4-0.5-0.8-1-1.3-1.4
	c-0.3-0.3-0.7-0.6-1-0.9C97.9,89.5,96.3,88.6,94.5,88z M102.3,101.4c0,3.4-1,6.1-3.1,8.2c-1.2,1.3-2.6,2.1-4.2,2.6
	c-1.6-0.5-3-1.4-4.2-2.6c-2.1-2.2-3.2-4.9-3.2-8.2c0-3,1.1-5.5,3.2-7.6c1.2-1.2,2.6-2.1,4.1-2.6c1.5,0.5,2.9,1.4,4.1,2.6
	C101.2,96.1,102.3,98.5,102.3,101.4z"/>
<linearGradient id="SVGID_22_" gradientUnits="userSpaceOnUse" x1="20.9946" y1="78.22" x2="138.763" y2="78.22" gradientTransform="matrix(1 0 0 -1 0 180)">
	<stop  offset="0" style="stop-color:#D2142B"/>
	<stop  offset="0.1307" style="stop-color:#B30C1A"/>
	<stop  offset="0.2746" style="stop-color:#98060C"/>
	<stop  offset="0.4024" style="stop-color:#880103"/>
	<stop  offset="0.5" style="stop-color:#2F050A"/>
	<stop  offset="1" style="stop-color:#000000"/>
</linearGradient>
<path class="st22" d="M80.3,111.9c0.4,0.4,0.8,0.8,1.2,1.1c1.9,1.6,4.2,2.6,6.7,2.9c0.7,0.1,1.5,0.2,2.3,0.2c0.1,0,0.3,0,0.4,0
	c0.6,0,1.2-0.1,1.8-0.2c-3.1-0.4-5.7-1.8-7.9-4c-0.7-0.7-1.2-1.4-1.7-2.1c-0.4-0.5-0.7-1.1-0.9-1.7c-0.9-2-1.4-4.2-1.4-6.6
	c0-2.1,0.4-3.9,1.2-5.7c0.3-0.6,0.6-1.2,1-1.8c0.6-0.9,1.2-1.7,2-2.4c2.2-2.2,4.8-3.5,7.8-3.9c-0.6-0.1-1.2-0.1-1.8-0.2
	c-0.1,0-0.3,0-0.4,0c-0.7,0-1.5,0.1-2.2,0.2c-2.6,0.4-4.9,1.4-7,3.1c-0.3,0.3-0.6,0.5-0.9,0.8c-2.8,2.7-4.2,6-4.2,9.9
	C76.2,105.6,77.5,109.1,80.3,111.9z"/>
<linearGradient id="SVGID_23_" gradientUnits="userSpaceOnUse" x1="20.9941" y1="119.98" x2="138.763" y2="119.98" gradientTransform="matrix(1 0 0 -1 0 180)">
	<stop  offset="0" style="stop-color:#D2142B"/>
	<stop  offset="0.1307" style="stop-color:#B30C1A"/>
	<stop  offset="0.2746" style="stop-color:#98060C"/>
	<stop  offset="0.4024" style="stop-color:#880103"/>
	<stop  offset="0.5" style="stop-color:#2F050A"/>
	<stop  offset="1" style="stop-color:#000000"/>
</linearGradient>
<path class="st23" d="M90.2,49.5c-0.1,0-0.3,0-0.4,0c-2.1,0.1-4,0.8-5.6,2.1c-0.4,0.3-0.7,0.6-1.1,1c-2,2-3,4.4-3,7.1
	c0,3.1,1,5.7,3,7.8c0.4,0.4,0.7,0.7,1.1,1c1.6,1.2,3.4,1.9,5.6,2c0.3,0,0.6,0,0.9,0c0.1,0,0.3,0,0.4,0c0.6,0,1.2-0.1,1.7-0.2
	c-2-0.4-3.8-1.3-5.2-2.8c-0.4-0.4-0.8-0.9-1.1-1.4c-0.4-0.5-0.7-1.1-0.9-1.7c-0.6-1.4-0.9-2.9-0.9-4.7c0-1.4,0.2-2.6,0.8-3.8
	c0.3-0.6,0.6-1.2,1-1.8c0.4-0.5,0.8-1,1.3-1.5c1.4-1.5,3.1-2.4,5-2.8c-0.6-0.1-1.2-0.2-1.9-0.2C90.5,49.6,90.3,49.5,90.2,49.5z"/>
<linearGradient id="SVGID_24_" gradientUnits="userSpaceOnUse" x1="80.1" y1="166.0666" x2="80.1" y2="2.906" gradientTransform="matrix(1 0 0 -1 0 180)">
	<stop  offset="0" style="stop-color:#FFFFFF"/>
	<stop  offset="4.558490e-03" style="stop-color:#FFFEFD"/>
	<stop  offset="9.600000e-02" style="stop-color:#FFF3D3"/>
	<stop  offset="0.1852" style="stop-color:#FFEAB3"/>
	<stop  offset="0.2707" style="stop-color:#FFE39C"/>
	<stop  offset="0.3508" style="stop-color:#FFDF8E"/>
	<stop  offset="0.4201" style="stop-color:#FFDE89"/>
	<stop  offset="0.5253" style="stop-color:#FCDA86"/>
	<stop  offset="0.6272" style="stop-color:#F3CE7D"/>
	<stop  offset="0.7277" style="stop-color:#E4BB6D"/>
	<stop  offset="0.8274" style="stop-color:#D0A058"/>
	<stop  offset="0.9255" style="stop-color:#B57D3C"/>
	<stop  offset="1" style="stop-color:#9D5D23"/>
</linearGradient>
<path class="st24" d="M160.2,24c0,0-49-3-78.5-23l-1.5-1l-1.5,1C49,21,0,24,0,24s-0.5,16.3,3.2,60.2c3.7,43.9,30.8,71.7,75.6,95.1
	l1.3,0.7l1.3-0.7c44.8-23.4,71.9-51.3,75.6-95.1C160.7,40.3,160.2,24,160.2,24z M147.8,88c-2.5,39.3-25.4,66.2-67.7,88.7
	C37.8,154.3,15,127.3,12.4,88c-2.5-39.3-2.3-59.2-2.3-59.2C19.2,27.7,53.7,18,80.1,0.8C106.5,18,140.9,27.7,150,28.9
	C150,28.9,150.3,48.8,147.8,88z"/>
</svg>
