<svg width="16" height="16" viewBox="0 0 16 16" fill="none" xmlns="http://www.w3.org/2000/svg">
    <path d="M14.1024 1.89752L12.7049 3.29537C11.4955 2.0857 9.82919 1.33301 8.00163 1.33301C4.42715 1.33301 1.49769 4.15559 1.33644 7.67709C1.30956 7.86527 1.47082 7.99968 1.65895 7.99968H2.41147C2.57272 7.99968 2.7071 7.89215 2.73398 7.70398C2.89523 4.93516 5.17968 2.73086 8.00163 2.73086C9.45293 2.73086 10.7698 3.32226 11.7105 4.29L10.2592 5.74161C10.0442 5.95666 10.2054 6.27924 10.4742 6.27924H14.3443C14.5056 6.27924 14.6668 6.14484 14.6668 5.95666V2.11258C14.6668 1.84376 14.3174 1.68247 14.1024 1.89752ZM14.3174 7.99968H13.5649C13.4037 7.99968 13.2693 8.13408 13.2424 8.32226C13.0812 11.0911 10.7967 13.2685 8.00163 13.2685C6.52347 13.2685 5.20655 12.704 4.2659 11.7362L5.71719 10.2846C5.9322 10.0696 5.77094 9.72011 5.50219 9.72011H1.65895C1.47082 9.72011 1.33644 9.8814 1.33644 10.0427V13.9137C1.33644 14.1825 1.65895 14.3438 1.87395 14.1287L3.27149 12.7309C4.48091 13.9405 6.1472 14.6663 8.00163 14.6663C11.5492 14.6663 14.4787 11.8706 14.64 8.34914C14.6668 8.16097 14.5056 7.99968 14.3174 7.99968Z"
          fill="#071F44"/>
</svg>
