<svg width="72" height="72" viewBox="0 0 72 72" fill="none" xmlns="http://www.w3.org/2000/svg">
<path d="M69.2575 24.1449L52 31.9999V67.9999L69.485 61.0061C70.2273 60.7093 70.8637 60.1969 71.312 59.5349C71.7603 58.873 71.9999 58.0919 72 57.2924V25.9999C71.9997 25.6732 71.9193 25.3517 71.766 25.0632C71.6127 24.7748 71.3911 24.5283 71.1205 24.3453C70.85 24.1623 70.5387 24.0484 70.2139 24.0134C69.8892 23.9785 69.5608 24.0236 69.2575 24.1449ZM2.515 30.9999C1.77365 31.2963 1.13797 31.8078 0.689758 32.4685C0.241549 33.1292 0.00132421 33.909 4.71255e-08 34.7074V65.9999C-7.08991e-05 66.3267 0.079965 66.6486 0.233104 66.9374C0.386243 67.2261 0.607817 67.473 0.878437 67.6562C1.14906 67.8395 1.46048 67.9537 1.78544 67.9888C2.1104 68.0238 2.43901 67.9787 2.7425 67.8574L20 59.9999V30.8649C18.9528 29.0089 18.0643 27.0679 17.3438 25.0624L2.515 30.9999ZM36 48.9586C35.1305 48.958 34.2716 48.7675 33.4833 48.4005C32.695 48.0334 31.9964 47.4987 31.4363 46.8336C28.9788 43.9386 26.365 40.6361 24 37.2499V59.9999L48 67.9999V37.2499C45.635 40.6361 43.0225 43.9399 40.5638 46.8399C40.0029 47.5037 39.304 48.0371 38.5158 48.4031C37.7276 48.769 36.869 48.9586 36 48.9586Z" fill="#071F44" fill-opacity="0.05"/>
<path d="M36 4C31.8228 4 27.8168 5.65937 24.8631 8.61307C21.9094 11.5668 20.25 15.5728 20.25 19.75C20.25 26.7825 30.5437 39.6 34.4875 44.25C34.6725 44.4714 34.9039 44.6494 35.1652 44.7716C35.4265 44.8937 35.7115 44.9571 36 44.9571C36.2885 44.9571 36.5735 44.8937 36.8348 44.7716C37.0961 44.6494 37.3275 44.4714 37.5125 44.25C41.4563 39.6 51.75 26.7825 51.75 19.75C51.75 15.5728 50.0906 11.5668 47.1369 8.61307C44.1832 5.65937 40.1772 4 36 4V4ZM36 25C34.9616 25 33.9466 24.6921 33.0833 24.1152C32.2199 23.5383 31.547 22.7184 31.1496 21.7591C30.7523 20.7998 30.6483 19.7442 30.8509 18.7258C31.0535 17.7074 31.5535 16.7719 32.2877 16.0377C33.0219 15.3035 33.9574 14.8034 34.9758 14.6009C35.9942 14.3983 37.0498 14.5023 38.0091 14.8996C38.9684 15.297 39.7883 15.9699 40.3652 16.8333C40.9421 17.6966 41.25 18.7116 41.25 19.75C41.25 21.1424 40.6969 22.4777 39.7123 23.4623C38.7277 24.4469 37.3924 25 36 25Z" fill="#071F44" fill-opacity="0.2"/>
</svg>
