<svg width="30" height="30" viewBox="0 0 30 30" fill="none" xmlns="http://www.w3.org/2000/svg">
<path fill-rule="evenodd" clip-rule="evenodd" d="M26.3647 11.0068L27.6943 19.5086C28.1051 21.8596 26.2045 24 23.7058 24C21.7268 24 19.9696 22.7918 19.3432 21.0009L19.0448 20.1427H10.9563L10.6567 21.0009C10.0307 22.7918 8.27357 24 6.29448 24C3.79582 24 1.89522 21.8596 2.30602 19.5086L3.63564 11.0068C3.98867 8.98694 5.56373 7.35962 7.64841 6.86299C12.4829 5.71234 17.5166 5.71234 22.3511 6.86299H22.3539C24.4362 7.35962 26.0117 8.98734 26.3647 11.0068ZM13.2663 14.5369C13.356 14.4465 13.4064 14.3238 13.4064 14.1959V13.2316C13.4064 13.1037 13.356 12.9811 13.2663 12.8907C13.1767 12.8002 13.055 12.7494 12.9282 12.7494H10.8563V10.6601C10.8563 10.5322 10.8059 10.4095 10.7163 10.3191C10.6266 10.2287 10.505 10.1779 10.3782 10.1779H9.4219C9.29509 10.1779 9.17347 10.2287 9.0838 10.3191C8.99414 10.4095 8.94376 10.5322 8.94376 10.6601V12.7494H6.87183C6.74502 12.7494 6.62341 12.8002 6.53374 12.8907C6.44407 12.9811 6.3937 13.1037 6.3937 13.2316V14.1959C6.3937 14.3238 6.44407 14.4465 6.53374 14.5369C6.62341 14.6273 6.74502 14.6781 6.87183 14.6781H8.94376V16.7675C8.94376 16.8954 8.99414 17.018 9.0838 17.1084C9.17347 17.1989 9.29509 17.2497 9.4219 17.2497H10.3782C10.505 17.2497 10.6266 17.1989 10.7163 17.1084C10.8059 17.018 10.8563 16.8954 10.8563 16.7675V14.6781H12.9282C13.055 14.6781 13.1767 14.6273 13.2663 14.5369Z" fill="url(#paint0_linear_1149_2101)"/>
<path d="M18.5777 16.9788C18.8398 17.1554 19.148 17.2496 19.4632 17.2496C19.8859 17.2496 20.2913 17.0803 20.5902 16.7789C20.889 16.4775 21.057 16.0687 21.057 15.6424C21.057 15.3245 20.9635 15.0138 20.7884 14.7495C20.6132 14.4852 20.3643 14.2792 20.0731 14.1575C19.7819 14.0359 19.4614 14.0041 19.1522 14.0661C18.8431 14.1281 18.5591 14.2812 18.3362 14.5059C18.1133 14.7307 17.9615 15.0171 17.9 15.3289C17.8385 15.6406 17.8701 15.9638 17.9907 16.2575C18.1113 16.5512 18.3156 16.8022 18.5777 16.9788Z" fill="black" fill-opacity="0.8"/>
<path d="M21.1278 13.1214C21.3899 13.298 21.698 13.3923 22.0132 13.3923C22.4359 13.3923 22.8413 13.223 23.1402 12.9216C23.4391 12.6201 23.607 12.2113 23.607 11.7851C23.607 11.4672 23.5136 11.1565 23.3384 10.8922C23.1633 10.6278 22.9144 10.4218 22.6232 10.3002C22.3319 10.1786 22.0115 10.1467 21.7023 10.2087C21.3931 10.2708 21.1092 10.4238 20.8863 10.6486C20.6634 10.8734 20.5116 11.1598 20.4501 11.4715C20.3886 11.7833 20.4201 12.1065 20.5408 12.4001C20.6614 12.6938 20.8657 12.9448 21.1278 13.1214Z" fill="black" fill-opacity="0.8"/>
<path d="M13.4062 14.1959C13.4062 14.3238 13.3559 14.4464 13.2662 14.5369C13.1765 14.6273 13.0549 14.6781 12.9281 14.6781H10.8562V16.7675C10.8562 16.8953 10.8058 17.018 10.7161 17.1084C10.6265 17.1988 10.5048 17.2496 10.378 17.2496H9.42176C9.29495 17.2496 9.17333 17.1988 9.08366 17.1084C8.99399 17.018 8.94362 16.8953 8.94362 16.7675V14.6781H6.87169C6.74488 14.6781 6.62327 14.6273 6.5336 14.5369C6.44393 14.4464 6.39355 14.3238 6.39355 14.1959V13.2316C6.39355 13.1037 6.44393 12.9811 6.5336 12.8906C6.62327 12.8002 6.74488 12.7494 6.87169 12.7494H8.94362V10.66C8.94362 10.5321 8.99399 10.4095 9.08366 10.3191C9.17333 10.2287 9.29495 10.1779 9.42176 10.1779H10.378C10.5048 10.1779 10.6265 10.2287 10.7161 10.3191C10.8058 10.4095 10.8562 10.5321 10.8562 10.66V12.7494H12.9281C13.0549 12.7494 13.1765 12.8002 13.2662 12.8906C13.3559 12.9811 13.4062 13.1037 13.4062 13.2316V14.1959Z" fill="black" fill-opacity="0.8"/>
<defs>
<linearGradient id="paint0_linear_1149_2101" x1="15.0002" y1="6" x2="15.0002" y2="24" gradientUnits="userSpaceOnUse">
<stop stop-color="#C8A674"/>
<stop offset="1" stop-color="#EBC994"/>
</linearGradient>
</defs>
</svg>
