<svg width="54" height="70" viewBox="0 0 54 70" fill="none" xmlns="http://www.w3.org/2000/svg">
<path d="M45.9375 5.83334C39.293 5.83334 33.2773 7.06381 28.916 9.03256C28.793 9.08725 21.875 11.9037 21.875 16.7708V19.054C10.4043 19.5326 0 23.7982 0 29.8958V56.1458C0 62.1888 10.7734 67.0833 24.0625 67.0833C37.3516 67.0833 48.125 62.1888 48.125 56.1458V53.9037C60.3887 53.3978 70 48.722 70 43.0208V16.7708C70 11.7122 61.5098 5.83334 45.9375 5.83334ZM43.75 56.1458C43.75 58.0462 36.8457 62.7083 24.0625 62.7083C11.2793 62.7083 4.375 58.0462 4.375 56.1458V49.2962C8.72266 52.1126 15.9141 53.9583 24.0625 53.9583C32.2109 53.9583 39.4023 52.1126 43.75 49.2962V56.1458ZM43.75 43.0208C43.75 44.9212 36.8457 49.5833 24.0625 49.5833C11.2793 49.5833 4.375 44.9212 4.375 43.0208V36.1712C8.72266 38.9876 15.9141 40.8333 24.0625 40.8333C32.2109 40.8333 39.4023 38.9876 43.75 36.1712V43.0208ZM24.0625 36.4583C12.9883 36.4583 4.00586 33.5189 4.00586 29.8958C4.00586 26.2728 12.9883 23.3333 24.0625 23.3333C35.1367 23.3333 44.1191 26.2728 44.1191 29.8958C44.1191 33.5189 35.1367 36.4583 24.0625 36.4583ZM65.625 43.0208C65.625 44.8119 59.4727 48.9818 48.125 49.4876V40.724C55.3438 40.4232 61.6738 38.7279 65.625 36.1712V43.0208ZM65.625 29.8958C65.625 31.6869 59.459 35.8294 48.125 36.349V29.8958C48.125 29.1302 47.8926 28.3919 47.5645 27.6673C55.0293 27.4349 61.5645 25.6849 65.625 23.0462V29.8958ZM45.9375 23.3333C44.9395 23.3333 44.0234 23.265 43.0801 23.2103C38.0352 20.2435 31.459 19.3548 27.2754 19.1087C26.4141 18.3841 25.8945 17.6048 25.8945 16.7708C25.8945 13.1478 34.877 10.2083 45.9512 10.2083C57.0254 10.2083 66.0078 13.1478 66.0078 16.7708C66.0078 20.3939 57.0117 23.3333 45.9375 23.3333Z" fill="url(#paint0_linear_1113_3888)"/>
<defs>
<linearGradient id="paint0_linear_1113_3888" x1="35" y1="5.83334" x2="35" y2="67.0833" gradientUnits="userSpaceOnUse">
<stop stop-color="white" stop-opacity="0.1"/>
<stop offset="1" stop-color="white" stop-opacity="0"/>
</linearGradient>
</defs>
</svg>
