<svg width="26" height="26" viewBox="0 0 26 26" fill="none" xmlns="http://www.w3.org/2000/svg">
    <path d="M14.882 8.51817C14.7167 8.58856 14.5677 8.69239 14.4444 8.82316C14.3164 8.94675 14.2148 9.09499 14.1457 9.25893C14.0766 9.42287 14.0415 9.59912 14.0424 9.77702C14.0355 9.96818 14.0671 10.1588 14.1351 10.3375C14.2032 10.5163 14.3065 10.6796 14.4388 10.8177C14.5703 10.9532 14.7287 11.0598 14.9038 11.1304C15.079 11.2011 15.2669 11.2344 15.4557 11.2281C15.6364 11.2293 15.8153 11.1926 15.9808 11.1202C16.1463 11.0478 16.2948 10.9414 16.4165 10.8079C16.5462 10.6773 16.6486 10.5223 16.7179 10.3518C16.7871 10.1814 16.8218 9.99884 16.8199 9.81484C16.8242 9.6294 16.79 9.44509 16.7196 9.27347C16.6492 9.10186 16.5441 8.94664 16.4109 8.81756C16.2793 8.6858 16.1223 8.58211 15.9495 8.51277C15.7766 8.44344 15.5915 8.40989 15.4053 8.41417C15.2256 8.41237 15.0474 8.44778 14.882 8.51817Z"
          fill="#071F44" fill-opacity="0.2"/>
    <path d="M15.441 17.3591C15.9531 17.3591 16.4446 17.1572 16.8087 16.7972C16.9893 16.61 17.1305 16.3884 17.2238 16.1457C17.3172 15.9029 17.3608 15.6439 17.3522 15.3839C17.3541 15.1362 17.3045 14.8907 17.2066 14.6631C17.1087 14.4355 16.9647 14.2307 16.7835 14.0617C16.4246 13.7072 15.9405 13.5084 15.4361 13.5084C14.9316 13.5084 14.4475 13.7072 14.0886 14.0617C13.9083 14.232 13.7653 14.4381 13.6688 14.6667C13.5724 14.8953 13.5245 15.1414 13.5284 15.3895C13.5204 15.6487 13.5645 15.9068 13.6581 16.1486C13.7516 16.3904 13.8928 16.611 14.0732 16.7972C14.4374 17.1572 14.9289 17.3591 15.441 17.3591Z"
          fill="#071F44" fill-opacity="0.2"/>
    <path fill-rule="evenodd" clip-rule="evenodd"
          d="M23.3996 13C23.3996 18.7437 18.7434 23.4 12.9996 23.4C7.25585 23.4 2.59961 18.7437 2.59961 13C2.59961 7.25621 7.25585 2.59998 12.9996 2.59998C18.7434 2.59998 23.3996 7.25621 23.3996 13ZM18.7011 12.0293C19.2492 12.597 19.6269 13.1195 19.8342 13.5967C20.0494 14.151 20.15 14.7433 20.1297 15.3377C20.1307 16.6478 19.6839 17.7412 18.7893 18.6181C17.8947 19.4949 16.7803 19.9333 15.4459 19.9333C14.104 19.9361 12.9863 19.4977 12.0927 18.6181C11.199 17.7384 10.7522 16.645 10.7522 15.3377C10.739 14.7407 10.8496 14.1474 11.0772 13.5953C11.3552 13.0107 11.7346 12.4801 12.1977 12.0279C11.7296 11.4247 11.4771 10.682 11.4806 9.91849C11.4862 8.80169 11.8597 7.88052 12.6011 7.15497C13.3425 6.42942 14.2875 6.06664 15.4361 6.06664C16.5958 6.06664 17.5492 6.42801 18.2963 7.15076C19.0433 7.87351 19.4168 8.79935 19.4168 9.9283C19.4178 10.6886 19.166 11.4277 18.7011 12.0293ZM4.33294 10.9382C5.44798 10.7198 6.46785 10.1609 7.25196 9.33861H9.06021V19.8114L6.3289 17.1502V10.7645C5.69382 11.0375 5.02072 11.2118 4.33294 11.2813V10.9382Z"
          fill="#071F44" fill-opacity="0.2"/>
    <path d="M19.8343 13.5967C19.627 13.1195 19.2492 12.5971 18.7011 12.0293C19.166 11.4277 19.4178 10.6886 19.4169 9.9283C19.4169 8.79936 19.0433 7.87352 18.2963 7.15077C17.5493 6.42802 16.5959 6.06665 15.4361 6.06665C14.2876 6.06665 13.3426 6.42943 12.6012 7.15498C11.8598 7.88052 11.4862 8.8017 11.4806 9.9185C11.4771 10.682 11.7296 11.4247 12.1978 12.0279C11.7347 12.4801 11.3553 13.0108 11.0773 13.5953C10.8497 14.1474 10.7391 14.7407 10.7523 15.3377C10.7523 16.645 11.1991 17.7384 12.0927 18.6181C12.9864 19.4977 14.1041 19.9361 15.446 19.9333C16.7803 19.9333 17.8948 19.4949 18.7894 18.6181C19.6839 17.7413 20.1307 16.6478 20.1298 15.3377C20.15 14.7433 20.0495 14.151 19.8343 13.5967ZM14.4445 8.82317C14.5678 8.6924 14.7168 8.58856 14.8821 8.51818C15.0475 8.44779 15.2256 8.41238 15.4053 8.41418C15.5915 8.4099 15.7767 8.44345 15.9495 8.51278C16.1224 8.58212 16.2794 8.68581 16.411 8.81757C16.5442 8.94665 16.6493 9.10187 16.7197 9.27348C16.7901 9.4451 16.8242 9.62941 16.82 9.81485C16.8219 9.99884 16.7872 10.1814 16.7179 10.3518C16.6487 10.5223 16.5463 10.6773 16.4166 10.8079C16.2949 10.9414 16.1464 11.0478 15.9809 11.1202C15.8153 11.1926 15.6364 11.2294 15.4558 11.2281C15.267 11.2344 15.079 11.2011 14.9039 11.1304C14.7288 11.0598 14.5704 10.9532 14.4389 10.8177C14.3066 10.6796 14.2033 10.5163 14.1352 10.3376C14.0671 10.1588 14.0356 9.96819 14.0425 9.77703C14.0416 9.59912 14.0767 9.42288 14.1458 9.25894C14.2149 9.095 14.3165 8.94676 14.4445 8.82317ZM16.8088 16.7972C16.4446 17.1572 15.9532 17.3591 15.4411 17.3591C14.9289 17.3591 14.4375 17.1572 14.0733 16.7972C13.8929 16.611 13.7517 16.3904 13.6581 16.1486C13.5645 15.9068 13.5204 15.6487 13.5284 15.3895C13.5246 15.1414 13.5725 14.8953 13.6689 14.6667C13.7654 14.4381 13.9083 14.2321 14.0887 14.0617C14.4476 13.7072 14.9317 13.5084 15.4361 13.5084C15.9406 13.5084 16.4247 13.7072 16.7836 14.0617C16.9647 14.2307 17.1088 14.4355 17.2067 14.6631C17.3046 14.8907 17.3541 15.1362 17.3523 15.3839C17.3609 15.6439 17.3173 15.9029 17.2239 16.1457C17.1305 16.3885 16.9894 16.61 16.8088 16.7972Z"
          fill="#071F44"/>
    <path d="M7.25202 9.33862C6.46791 10.1609 5.44805 10.7198 4.33301 10.9382V11.2813C5.02078 11.2118 5.69388 11.0375 6.32897 10.7645V17.1502L9.06028 19.8114V9.33862H7.25202Z"
          fill="#071F44"/>
</svg>
