<svg width="72" height="72" viewBox="0 0 72 72" fill="none" xmlns="http://www.w3.org/2000/svg">
<path d="M36 1C16.67 1 1 16.67 1 36C1 55.33 16.67 71 36 71C55.33 71 71 55.33 71 36C71 16.67 55.33 1 36 1ZM36 66.4839C19.2531 66.4839 5.51613 52.9277 5.51613 36C5.51613 19.2532 19.0723 5.51613 36 5.51613C52.7469 5.51613 66.4839 19.0723 66.4839 36C66.4839 52.7468 52.9277 66.4839 36 66.4839ZM55.9881 27.6789L30.5171 52.9455C29.8531 53.6042 28.7808 53.5999 28.1222 52.9359L16.0023 40.7181C15.3436 40.0541 15.3479 38.9818 16.0119 38.3231L17.2143 37.1304C17.8783 36.4718 18.9506 36.476 19.6093 37.14L29.3438 46.9532L52.4101 24.0719C53.0741 23.4133 54.1464 23.4175 54.805 24.0815L55.9977 25.2839C56.6565 25.9479 56.6521 27.0202 55.9881 27.6789Z" fill="#071F44" fill-opacity="0.2"/>
</svg>
