<?xml version="1.0" encoding="utf-8"?>
<svg version="1.1" x="0px" y="0px" viewBox="0 0 26 26" style="enable-background:new 0 0 26 26;"
     xmlns="http://www.w3.org/2000/svg">
    <style type="text/css">
        .st0{fill:url(#SVGID_1_);}
        .st1{fill:url(#SVGID_2_);}
        .st2{fill-rule:evenodd;clip-rule:evenodd;fill:url(#SVGID_3_);}
    </style>
    <linearGradient id="SVGID_1_" gradientUnits="userSpaceOnUse" x1="1.6346" y1="19.3595" x2="24.9245" y2="17.4455"
                    gradientTransform="matrix(1 0 0 -1 0 28)">
        <stop offset="0.1575" style="stop-color:#F0453A"/>
        <stop offset="1" style="stop-color:#1E40F5"/>
    </linearGradient>
    <path class="st0" d="M15,8.5c-0.2,0.1-0.3,0.2-0.4,0.3c-0.1,0.1-0.2,0.3-0.3,0.4c-0.1,0.2-0.1,0.3-0.1,0.5c0,0.2,0,0.4,0.1,0.6
	c0.1,0.2,0.2,0.3,0.3,0.5c0.1,0.1,0.3,0.2,0.5,0.3c0.2,0.1,0.4,0.1,0.5,0.1c0.2,0,0.4,0,0.5-0.1c0.2-0.1,0.3-0.2,0.4-0.3
	c0.1-0.1,0.2-0.3,0.3-0.5c0.1-0.2,0.1-0.3,0.1-0.5c0-0.2,0-0.4-0.1-0.5c-0.1-0.2-0.2-0.3-0.3-0.5c-0.1-0.1-0.3-0.2-0.5-0.3
	c-0.2-0.1-0.4-0.1-0.5-0.1C15.3,8.4,15.2,8.4,15,8.5z"/>
    <linearGradient id="SVGID_2_" gradientUnits="userSpaceOnUse" x1="1.1813" y1="13.8438" x2="24.4712" y2="11.9299"
                    gradientTransform="matrix(1 0 0 -1 0 28)">
        <stop offset="0.1575" style="stop-color:#F0453A"/>
        <stop offset="1" style="stop-color:#1E40F5"/>
    </linearGradient>
    <path class="st1" d="M15.5,17.2c0.5,0,1-0.2,1.4-0.6c0.2-0.2,0.3-0.4,0.4-0.6c0.1-0.2,0.1-0.5,0.1-0.8c0-0.2,0-0.5-0.1-0.7
	c-0.1-0.2-0.2-0.4-0.4-0.6c-0.4-0.4-0.8-0.5-1.3-0.5c-0.5,0-1,0.2-1.3,0.5c-0.2,0.2-0.3,0.4-0.4,0.6c-0.1,0.2-0.1,0.5-0.1,0.7
	c0,0.3,0,0.5,0.1,0.8c0.1,0.2,0.2,0.5,0.4,0.6C14.5,17,15,17.2,15.5,17.2z"/>
    <linearGradient id="SVGID_3_" gradientUnits="userSpaceOnUse" x1="1.355" y1="15.9571" x2="24.6449" y2="14.0432"
                    gradientTransform="matrix(1 0 0 -1 0 28)">
        <stop offset="0.1575" style="stop-color:#F0453A"/>
        <stop offset="1" style="stop-color:#1E40F5"/>
    </linearGradient>
    <path class="st2" d="M13,23.8c6,0,10.8-4.9,10.8-10.8C23.8,7,19,2.2,13,2.2C7,2.2,2.2,7,2.2,13C2.2,19,7,23.8,13,23.8z M18.8,12
	c0.5,0.6,0.9,1.1,1.1,1.6c0.2,0.5,0.3,1.1,0.3,1.7c0,1.3-0.4,2.4-1.3,3.2c-0.9,0.9-2,1.3-3.3,1.3c-1.3,0-2.4-0.4-3.3-1.3
	c-0.9-0.9-1.3-2-1.3-3.2c0-0.6,0.1-1.2,0.3-1.7c0.3-0.6,0.7-1.1,1.1-1.6c-0.5-0.6-0.7-1.3-0.7-2.1c0-1.1,0.4-2,1.1-2.7
	c0.7-0.7,1.7-1.1,2.8-1.1c1.1,0,2.1,0.4,2.8,1.1c0.7,0.7,1.1,1.6,1.1,2.7C19.5,10.6,19.2,11.4,18.8,12z M4.5,10.9
	c1.1-0.2,2.1-0.8,2.9-1.6h1.8v10.4L6.5,17v-6.3c-0.6,0.3-1.3,0.4-2,0.5V10.9z"/>
</svg>
