<svg width="16" height="16" viewBox="0 0 16 16" fill="none" xmlns="http://www.w3.org/2000/svg">
    <path d="M14.5413 6.1512V2.19287C14.5413 1.9585 14.3628 1.3335 13.7251 1.3335C13.5211 1.3335 13.3426 1.41162 13.2151 1.54183L11.0216 3.31266C9.95043 4.19808 8.57317 4.66683 7.19591 4.66683H2.29897C1.3808 4.66683 0.666664 5.42204 0.666664 6.3335V8.8335C0.666664 9.771 1.3808 10.5002 2.29897 10.5002L2.27347 11.3335C2.27347 12.3752 2.50301 13.3647 2.9366 14.2241C3.06412 14.5106 3.34467 14.6668 3.65073 14.6668H6.35425C7.01737 14.6668 7.42545 13.9116 7.01737 13.3647C6.60929 12.7918 6.35425 12.1147 6.35425 11.3335C6.35425 11.047 6.40526 10.7866 6.45627 10.5002H7.19591C8.57317 10.5002 9.95043 10.995 11.0216 11.8804L13.2151 13.6512C13.3171 13.7554 13.5466 13.8335 13.6996 13.8335C14.3373 13.8335 14.5158 13.2606 14.5158 13.0002V9.04183C15.0259 8.75537 15.332 8.2085 15.332 7.60954C15.3575 6.98454 15.0259 6.43766 14.5413 6.1512ZM3.90578 13.4168C3.62523 12.7658 3.4977 12.0627 3.4977 11.3335C3.4977 10.9689 3.54871 10.6825 3.57422 10.5002H5.23203C5.15552 10.7866 5.13001 11.0731 5.13001 11.3335C5.13001 12.0887 5.30855 12.7918 5.61461 13.4168H3.90578ZM6.78783 9.25016H2.29897C2.06943 9.25016 1.8909 9.06787 1.8909 8.8335V6.3335C1.8909 6.12516 2.06943 5.91683 2.29897 5.91683H6.78783V9.25016ZM13.3171 12.1408L11.7868 10.9168C10.7156 10.0314 9.38932 9.48454 8.01206 9.32829V5.86475C9.38932 5.7085 10.7156 5.16162 11.7868 4.2762L13.3171 3.05225V12.1408Z"
          fill="#071F44" fill-opacity="0.3"/>
</svg>
