<svg width="22" height="22" viewBox="0 0 22 22" fill="none" xmlns="http://www.w3.org/2000/svg">
<path d="M21.5101 7.7417H20.0131V2.2417C20.0131 1.9917 19.7636 1.7417 19.5141 1.7417H18.5161C18.2354 1.7417 18.017 1.9917 18.017 2.2417V7.7417H16.52C16.0522 7.7417 15.8338 8.3042 16.1457 8.6167L18.6408 11.6167C18.7344 11.6792 18.8903 11.7417 19.0151 11.7417C19.1086 11.7417 19.2646 11.6792 19.3581 11.6167L21.8532 8.6167C22.1651 8.3042 21.9468 7.7417 21.5101 7.7417Z" fill="#071F44"/>
<path d="M8.40042 19.0028H6.52436L6.07203 14.4984H7.89619L8.40042 19.0028ZM8.7267 5.56831L14.7331 4.96302L14.2362 6.83393L10.7066 7.30559V8.9171H15L14.3845 10.678L13.9841 10.6701V18.6569L12.0191 19.6081V10.6701H10.7066V18.8141L8.7267 19.7417V5.56831ZM5.77542 13.6809L5.78284 17.6271L4.05509 19.5059H3.30614V17.6743H3.80297L3.79555 13.6809H1.20021V12.0458H3.79555V11.1575H5.77542V12.0458H8.38559L7.70339 13.6809H5.77542ZM1 19.0578L1.66737 14.4984H3.49153L2.9428 19.0578H1ZM5.70127 7.85587H7.72564L7.3178 9.11363H8.36335L7.68856 10.7644H1.14831V9.11363H1.98623L1.65996 7.85587H3.77331L4.17373 9.11363H5.21928L5.70127 7.85587ZM1.20021 5.60762H3.50636C3.5459 5.51329 3.60028 5.40585 3.66949 5.28532C3.74364 5.15954 3.87959 5.03901 4.07733 4.92371C4.28001 4.80842 4.51483 4.74815 4.78178 4.74291C5.05367 4.73243 5.29096 4.79007 5.49364 4.91585C5.69633 5.04163 5.83969 5.18312 5.92373 5.34034L6.07203 5.60762H8.36335L7.67373 7.23485H1.20021V5.60762Z" fill="#071F44"/>
</svg>
