<svg width="73" height="72" viewBox="0 0 73 72" fill="none" xmlns="http://www.w3.org/2000/svg">
<g clip-path="url(#clip0_84_200)">
<path fill-rule="evenodd" clip-rule="evenodd" d="M5.5 10H55.5C58.2604 10 60.5 12.2556 60.5 15.0357V33.2355C59.5228 33.0805 58.5208 33 57.5 33C57.3887 33 57.2775 33.001 57.1667 33.0029V30.1429H3.83333V51.9643C3.83333 52.8875 4.58333 53.6429 5.5 53.6429H38.57C38.6687 54.7943 38.87 55.9164 39.1648 57H5.5C2.73958 57 0.5 54.7444 0.5 51.9643V15.0357C0.5 12.2556 2.73958 10 5.5 10ZM55.5 13.3571H5.5C4.58333 13.3571 3.83333 14.1125 3.83333 15.0357V20.0714H57.1667V15.0357C57.1667 14.1125 56.4167 13.3571 55.5 13.3571Z" fill="#071F44" fill-opacity="0.1"/>
<path d="M40.2348 44.0573C39.8109 44.9771 39.4584 45.9365 39.1843 46.9286H25.0833C24.3958 46.9286 23.8333 46.3621 23.8333 45.6696V44.8304C23.8333 44.1379 24.3958 43.5714 25.0833 43.5714H39.25C39.6488 43.5714 40.0055 43.762 40.2348 44.0573Z" fill="#071F44" fill-opacity="0.1"/>
<path d="M20.5 45.6696V44.8304C20.5 44.1379 19.9375 43.5714 19.25 43.5714H11.75C11.0625 43.5714 10.5 44.1379 10.5 44.8304V45.6696C10.5 46.3621 11.0625 46.9286 11.75 46.9286H19.25C19.9375 46.9286 20.5 46.3621 20.5 45.6696Z" fill="#071F44" fill-opacity="0.1"/>
<path d="M72.5 52C72.5 60.2861 65.7837 67 57.5 67C49.2163 67 42.5 60.2861 42.5 52C42.5 43.7187 49.2163 37 57.5 37C65.7837 37 72.5 43.7187 72.5 52ZM57.5 55.0242C55.9634 55.0242 54.7177 56.2699 54.7177 57.8065C54.7177 59.343 55.9634 60.5887 57.5 60.5887C59.0366 60.5887 60.2823 59.343 60.2823 57.8065C60.2823 56.2699 59.0366 55.0242 57.5 55.0242ZM54.8585 45.0234L55.3072 53.2492C55.3281 53.6342 55.6464 53.9355 56.0319 53.9355H58.9681C59.3536 53.9355 59.6719 53.6342 59.6928 53.2492L60.1415 45.0234C60.1642 44.6077 59.8332 44.2581 59.4168 44.2581H55.5831C55.1668 44.2581 54.8358 44.6077 54.8585 45.0234Z" fill="#071F44" fill-opacity="0.2"/>
</g>
<defs>
<clipPath id="clip0_84_200">
<rect width="72" height="72" fill="white" transform="translate(0.5)"/>
</clipPath>
</defs>
</svg>
