<svg width="54" height="70" viewBox="0 0 54 70" fill="none" xmlns="http://www.w3.org/2000/svg">
<path d="M65.2969 31.5846H62.3301C63.0718 30.5251 63.6016 29.3595 63.6016 28.088C63.6016 24.8034 60.8467 21.4128 56.3965 21.4128C51.8403 21.4128 48.4497 25.1213 46.6484 28.088C44.7412 25.1213 41.3506 21.4128 36.7944 21.4128C36.0527 21.4128 35.417 21.6247 34.7812 21.7306V21.4128C34.7812 19.6115 33.1919 18.0221 31.3906 18.0221H23.8677L28.4238 14.8434C28.8477 14.5255 28.9536 13.9958 28.6357 13.5719L27.6821 12.1945C27.3643 11.8766 26.8345 11.7707 26.5166 12.0885L20.9009 16.1149L23.2319 9.65152C23.4438 9.22769 23.2319 8.69791 22.8081 8.59195L21.2187 7.95621C20.7949 7.74429 20.2651 7.95621 20.0532 8.48599L17.8281 14.6315L15.4971 8.48599C15.2852 8.06216 14.8613 7.74429 14.3315 7.95621L12.7422 8.59195C12.3184 8.69791 12.1064 9.22769 12.3184 9.65152L14.7554 16.1149L9.13965 12.0885C8.71582 11.7707 8.18603 11.8766 7.86816 12.3004L6.91455 13.6779C6.59668 13.9958 6.70264 14.5255 7.12646 14.8434L11.6826 18.0221H4.26562C2.3584 18.0221 0.875 19.6115 0.875 21.4128V58.7096C0.875 60.6169 2.3584 62.1003 4.26562 62.1003H65.2969C67.0981 62.1003 68.6875 60.6169 68.6875 58.7096V34.9753C68.6875 33.174 67.0981 31.5846 65.2969 31.5846ZM36.7944 24.8034C40.8208 24.8034 43.7876 29.6774 44.7412 31.5846H38.7017C36.3706 31.5846 34.9932 30.9489 34.2515 30.4191C33.5098 29.7834 33.0859 28.9357 33.0859 28.088C33.0859 26.4987 34.4634 24.8034 36.7944 24.8034ZM24.6094 34.9753V58.7096H4.26562V21.4128H31.3906V23.7438C30.2251 25.0153 29.6953 26.4987 29.6953 28.088C29.6953 29.3595 30.1191 30.5251 30.8608 31.5846H28C26.0928 31.5846 24.6094 33.174 24.6094 34.9753ZM44.9531 58.7096H28V48.5378H44.9531V58.7096ZM44.9531 45.1471H28V34.9753H44.9531V45.1471ZM56.3965 24.8034C58.7275 24.8034 60.2109 26.4987 60.2109 28.088C60.2109 28.9357 59.6811 29.7834 58.9394 30.4191C58.1977 30.9489 56.8203 31.5846 54.5952 31.5846H48.4497C49.4033 29.6774 52.3701 24.8034 56.3965 24.8034ZM65.2969 58.7096H48.3437V48.5378H65.2969V58.7096ZM65.2969 45.1471H48.3437V34.9753H65.2969V45.1471Z" fill="url(#paint0_linear_1113_807)"/>
<defs>
<linearGradient id="paint0_linear_1113_807" x1="34.7812" y1="7.875" x2="34.7812" y2="62.1003" gradientUnits="userSpaceOnUse">
<stop stop-color="white" stop-opacity="0.1"/>
<stop offset="1" stop-color="white" stop-opacity="0"/>
</linearGradient>
</defs>
</svg>
