<?xml version="1.0" encoding="utf-8"?>
<svg version="1.1" x="0px" y="0px" viewBox="0 0 26 26" style="enable-background:new 0 0 26 26;"
     xmlns="http://www.w3.org/2000/svg">
    <style type="text/css">
        .st0{fill-rule:evenodd;clip-rule:evenodd;fill:url(#SVGID_1_);}
    </style>
    <linearGradient id="SVGID_1_" gradientUnits="userSpaceOnUse" x1="2.73" y1="15.2108" x2="23.2562" y2="13.7264"
                    gradientTransform="matrix(1 0 0 -1 0 28)">
        <stop offset="0.1575" style="stop-color:#F0453A"/>
        <stop offset="1" style="stop-color:#1E40F5"/>
    </linearGradient>
    <path class="st0" d="M17.2,4.8c-0.9,0.8-1.7,1.7-2.4,2.5c-1.1-1.6-2.6-3.2-4.2-4.7c-4.2,3.9-7.2,8.9-7.2,11.9c0,5.4,4.3,9.7,9.5,9.7
	c5.2,0,9.5-4.4,9.5-9.7C22.5,12.3,20.3,7.6,17.2,4.8z M15,15.7l2.5-2.8c0.1,0.2,0.2,0.4,0.3,0.5c0.1,0.1,0.1,0.2,0.2,0.3
	c1.2,2.2,0.7,5-1.4,6.5c-0.9,0.7-2.1,1-3.3,1c-3.1,0-5.6-2-5.6-5.3c0-1.6,1-3.1,3.1-5.6C11,10.7,15,15.7,15,15.7z"/>
</svg>
