<svg width="20" height="21" viewBox="0 0 20 21" fill="none" xmlns="http://www.w3.org/2000/svg">
    <path d="M18.1766 8.18888V3.24097C18.1766 2.948 17.9535 2.16675 17.1564 2.16675C16.9014 2.16675 16.6782 2.2644 16.5188 2.42716L13.7771 4.64071C12.4381 5.74748 10.7165 6.33342 8.9949 6.33342H2.87373C1.72601 6.33342 0.833344 7.27743 0.833344 8.41675V11.5417C0.833344 12.7136 1.72601 13.6251 2.87373 13.6251L2.84185 14.6667C2.84185 15.9688 3.12878 17.2058 3.67076 18.28C3.83016 18.6381 4.18086 18.8334 4.56343 18.8334H7.94282C8.77173 18.8334 9.28183 17.8894 8.77173 17.2058C8.26163 16.4897 7.94282 15.6433 7.94282 14.6667C7.94282 14.3087 8.00658 13.9832 8.07035 13.6251H8.9949C10.7165 13.6251 12.4381 14.2436 13.7771 15.3503L16.5188 17.5639C16.6464 17.6941 16.9333 17.7917 17.1246 17.7917C17.9216 17.7917 18.1448 17.0756 18.1448 16.7501V11.8022C18.7824 11.4441 19.165 10.7605 19.165 10.0118C19.1968 9.23055 18.7824 8.54696 18.1766 8.18888ZM4.88224 17.2709C4.53155 16.4571 4.37214 15.5782 4.37214 14.6667C4.37214 14.211 4.4359 13.8529 4.46778 13.6251H6.54005C6.44441 13.9832 6.41253 14.3412 6.41253 14.6667C6.41253 15.6108 6.6357 16.4897 7.01827 17.2709H4.88224ZM8.4848 12.0626H2.87373C2.5868 12.0626 2.36363 11.8347 2.36363 11.5417V8.41675C2.36363 8.15633 2.5868 7.89592 2.87373 7.89592H8.4848V12.0626ZM16.6464 15.6759L14.7335 14.1459C13.3945 13.0391 11.7367 12.3556 10.0151 12.1602V7.83081C11.7367 7.6355 13.3945 6.9519 14.7335 5.84513L16.6464 4.31519V15.6759Z"
          fill="#3A87FC"/>
</svg>
