<svg width="20" height="20" viewBox="0 0 20 20" fill="none" xmlns="http://www.w3.org/2000/svg">
<path fill-rule="evenodd" clip-rule="evenodd" d="M2.1665 6.66666C1.89036 6.66666 1.6665 6.89051 1.6665 7.16666V7.83332C1.6665 8.10946 1.89036 8.33332 2.1665 8.33332H17.8332C18.1093 8.33332 18.3332 8.10946 18.3332 7.83332V7.16666C18.3332 6.89051 18.1093 6.66666 17.8332 6.66666H2.1665ZM2.1665 11.6667C1.89036 11.6667 1.6665 11.8905 1.6665 12.1667V12.8333C1.6665 13.1095 1.89036 13.3333 2.1665 13.3333H17.8332C18.1093 13.3333 18.3332 13.1095 18.3332 12.8333V12.1667C18.3332 11.8905 18.1093 11.6667 17.8332 11.6667H2.1665Z" fill="#071F44"/>
</svg>
