<?xml version="1.0" encoding="utf-8"?>
<svg version="1.1" xmlns="http://www.w3.org/2000/svg" x="0px" y="0px" viewBox="0 0 24 24"
     style="enable-background:new 0 0 24 24;">
    <style type="text/css">
        .st0{fill:#071F44;fill-opacity:0.6;}
    </style>
    <path class="st0" d="M20.9,7.1h-1.3c0.3-0.5,0.5-1.2,0.5-1.8c0-1.9-1.5-3.5-3.4-3.5c-1,0-1.7,0.3-2.5,0.9c-0.6,0.6-1.3,1.4-2.2,2.9
	c-0.9-1.4-1.6-2.3-2.2-2.9C9,2.1,8.3,1.8,7.3,1.8c-1.9,0-3.4,1.6-3.4,3.5c0,0.6,0.2,1.3,0.5,1.8H3.1c-1.2,0-2.3,1-2.3,2.2v4
	c0,0.5,0.4,0.9,0.9,0.9h0.5V20c0,1.2,1,2.2,2.3,2.2h15.1c1.2,0,2.3-1,2.3-2.2v-5.8h0.5c0.5,0,0.9-0.4,0.9-0.9v-4
	C23.2,8.1,22.2,7.1,20.9,7.1z M20.1,20c0,0.3-0.2,0.5-0.5,0.5h-4.6v-6.3h5.1V20z M15.3,4.1c0.3-0.2,0.5-0.4,0.7-0.5
	c0.2-0.1,0.4-0.1,0.7-0.1c0.9,0,1.6,0.8,1.6,1.8s-0.7,1.8-1.6,1.8h-3.6C14.1,5.6,14.8,4.6,15.3,4.1z M21.4,12.5h-6.5V8.9h6
	c0.3,0,0.5,0.2,0.5,0.5V12.5z M4,20v-5.8H9v6.3H4.4C4.2,20.5,4,20.3,4,20z M7.9,3.6c0.2,0.1,0.5,0.2,0.7,0.5c0.6,0.5,1.2,1.5,2.2,3
	H7.3c-0.9,0-1.6-0.8-1.6-1.8c0-1,0.7-1.8,1.6-1.8C7.6,3.5,7.8,3.6,7.9,3.6z M9,12.5H2.6V9.3c0-0.3,0.2-0.5,0.5-0.5h6V12.5z
	 M13.2,8.9v11.6h-2.4V8.9H13.2z M21.6,9.3C21.6,9.3,21.6,9.3,21.6,9.3C21.6,9.3,21.6,9.3,21.6,9.3L21.6,9.3z M19.6,4
	C19.6,4,19.7,4,19.6,4C19.7,4,19.6,4,19.6,4z"/>
</svg>
