<svg width="24" height="24" viewBox="0 0 24 24" fill="none" xmlns="http://www.w3.org/2000/svg">
<path d="M13.6478 17.6665H11.4811C11.1765 17.6665 10.9395 17.9373 10.9395 18.2082V19.2915C10.9395 19.5962 11.1765 19.8332 11.4811 19.8332H13.6478C13.9186 19.8332 14.1895 19.5962 14.1895 19.2915V18.2082C14.1895 17.9373 13.9186 17.6665 13.6478 17.6665ZM9.31448 15.4998H7.68948V5.20817C7.68948 4.93734 7.41864 4.6665 7.14781 4.6665H6.06448C5.75979 4.6665 5.52281 4.93734 5.52281 5.20817V15.4998H3.89781C3.39 15.4998 3.15302 16.1092 3.49156 16.4478L6.19989 19.6978C6.30146 19.7655 6.47073 19.8332 6.60614 19.8332C6.70771 19.8332 6.87698 19.7655 6.97854 19.6978L9.68687 16.4478C10.0254 16.1092 9.78844 15.4998 9.31448 15.4998ZM17.9811 8.99984H11.4811C11.1765 8.99984 10.9395 9.27067 10.9395 9.5415V10.6248C10.9395 10.9295 11.1765 11.1665 11.4811 11.1665H17.9811C18.252 11.1665 18.5228 10.9295 18.5228 10.6248V9.5415C18.5228 9.27067 18.252 8.99984 17.9811 8.99984ZM15.8145 13.3332H11.4811C11.1765 13.3332 10.9395 13.604 10.9395 13.8748V14.9582C10.9395 15.2629 11.1765 15.4998 11.4811 15.4998H15.8145C16.0853 15.4998 16.3561 15.2629 16.3561 14.9582V13.8748C16.3561 13.604 16.0853 13.3332 15.8145 13.3332ZM20.1478 4.6665H11.4811C11.1765 4.6665 10.9395 4.93734 10.9395 5.20817V6.2915C10.9395 6.59619 11.1765 6.83317 11.4811 6.83317H20.1478C20.4186 6.83317 20.6895 6.59619 20.6895 6.2915V5.20817C20.6895 4.93734 20.4186 4.6665 20.1478 4.6665Z" fill="#071F44"/>
</svg>
