<svg width="20" height="21" viewBox="0 0 20 21" fill="none" xmlns="http://www.w3.org/2000/svg">
    <path d="M10.3125 15.4806V5.3894L5.65755 7.34253C5.91797 11.1186 7.77344 13.9506 10.3125 15.4806ZM17.1484 4.86857L10.8984 2.2644C10.7357 2.1993 10.4753 2.16675 10.3125 2.16675C10.1172 2.16675 9.85677 2.1993 9.69401 2.2644L3.44401 4.86857C2.85807 5.12899 2.5 5.68237 2.5 6.30086C2.5 12.7787 6.21094 17.2384 9.69401 18.7032C10.0846 18.866 10.5078 18.866 10.8984 18.7032C13.6979 17.5313 18.125 13.5274 18.125 6.30086C18.125 5.68237 17.7344 5.12899 17.1484 4.86857ZM10.3125 17.2384C7.1224 15.9363 4.0625 11.8347 4.0625 6.30086L10.3125 3.6967L16.5625 6.30086C16.5625 11.9649 13.3398 15.9688 10.3125 17.2384Z"
          fill="#3A87FC"/>
</svg>
