<svg width="24" height="24" viewBox="0 0 24 24" fill="none" xmlns="http://www.w3.org/2000/svg">
<path d="M21.5754 4.58657L19.3803 2.39243C18.3235 1.33599 16.5755 1.33599 15.5187 2.39243L2.59215 15.2322L1.61656 21.2864C1.49461 21.9366 2.0637 22.5054 2.71409 22.3835L8.77085 21.4083L21.6161 8.48727C22.6729 7.43083 22.6729 5.68364 21.5754 4.58657ZM9.74644 14.2571C9.90904 14.4196 10.1529 14.5009 10.3968 14.5009C10.6001 14.5009 10.844 14.4196 11.0066 14.2571L15.8438 9.42182L17.0227 10.6002L10.1529 17.5076V15.8011H8.20176V13.8507H6.49449L13.4049 6.98388L14.5837 8.16221L9.74644 12.9975C9.38059 13.3631 9.38059 13.8914 9.74644 14.2571ZM4.94981 20.23L3.77098 19.0517L4.29942 16.0855L5.03111 15.3135H6.73838V17.2638H8.68955V18.9704L7.91722 19.7018L4.94981 20.23ZM20.3559 7.22767L18.3641 9.21865L14.787 5.64301L16.7788 3.65203C17.1446 3.28634 17.7544 3.28634 18.1202 3.65203L20.3153 5.84617C20.7218 6.2525 20.7218 6.86198 20.3559 7.22767Z" fill="#071F44" fill-opacity="0.6"/>
</svg>
