<svg width="20" height="20" viewBox="0 0 20 20" fill="none" xmlns="http://www.w3.org/2000/svg">
<path fill-rule="evenodd" clip-rule="evenodd" d="M3.65165 17.7339C3.10866 16.6582 2.82187 15.421 2.82187 14.1203V14.1175L2.85062 13.1808C1.70946 13.1328 0.833252 12.208 0.833252 11.0301V7.93976C0.833252 6.76292 1.75679 5.78701 2.9442 5.78701H9.00476C10.6898 5.78701 12.3738 5.21407 13.6825 4.13372L13.6833 4.13306L16.3939 1.94736C16.569 1.77087 16.8117 1.66663 17.0855 1.66663C17.5145 1.66663 17.793 1.87887 17.9609 2.12476C18.1257 2.36598 18.1863 2.64204 18.1863 2.78928V7.66187C18.7873 8.03802 19.1964 8.72849 19.1649 9.48694C19.1642 10.2711 18.788 10.9637 18.1548 11.3415V16.1805C18.1548 16.3583 18.0949 16.6354 17.9285 16.8705C17.7588 17.11 17.4798 17.3032 17.0539 17.3032C16.9463 17.3032 16.8174 17.2762 16.6999 17.2334C16.5855 17.1918 16.4707 17.131 16.394 17.0547L13.6825 14.8683C12.373 13.7872 10.6886 13.1828 9.00476 13.1828H8.16505L8.16427 13.1871C8.10613 13.5111 8.05385 13.8024 8.05385 14.1203C8.05385 15.0638 8.36174 15.8817 8.85662 16.576C9.41086 17.3191 8.85067 18.3333 7.9631 18.3333H4.61716C4.20934 18.3333 3.8269 18.1248 3.65165 17.7339ZM16.9947 2.98829V16.0137L14.4276 13.9193C13.1722 12.8951 11.6707 12.2807 10.1056 12.075V6.92701C11.6717 6.72015 13.1725 6.07466 14.4265 5.08358L16.9947 2.98829ZM7.78188 17.1181C7.17738 16.2607 6.86224 15.2332 6.86224 14.1203C6.86224 13.8227 6.91451 13.5001 6.97057 13.1828H4.01348V14.1525C4.01348 15.1801 4.25318 16.1785 4.67519 17.1181H7.78188ZM2.02486 11.0301C2.02486 11.5584 2.42614 11.9676 2.9442 11.9676H8.914V7.00222H2.9442C2.42797 7.00222 2.02486 7.44176 2.02486 7.93976V11.0301Z" fill="#FFB054"/>
<g opacity="0.3">
<path d="M10.1063 10.2424V6.21472C11.6724 6.00785 13.1732 5.36237 14.4271 4.37129L16.9954 2.276V13.7571C16.9311 13.7686 16.8619 13.7748 16.7874 13.7748C16.5672 13.775 16.3535 13.7054 16.1815 13.5775L13.6061 11.6604C12.5934 10.909 11.386 10.4202 10.1063 10.2424Z" fill="#FFB054"/>
<path d="M5.0647 14.0123C5.06532 13.6946 5.08671 13.3774 5.12875 13.0626L7.59905 13.0626C7.51403 13.3719 7.47046 13.6913 7.46948 14.0123C7.46863 14.8428 7.73864 15.6505 8.23777 16.3105C8.70169 16.9254 8.24218 17.8109 7.47683 17.8109L6.65005 17.8109C6.30102 17.8109 5.96814 17.6219 5.81566 17.3047C5.32128 16.279 5.06447 15.1531 5.0647 14.0123Z" fill="#FFB054"/>
<path d="M9.29547 10.2136V6.65236H2.57413C1.99292 6.65236 1.53906 7.10622 1.53906 7.62046V9.56875C1.56249 9.59272 1.58661 9.6162 1.61141 9.63918C2.00843 10.007 2.54691 10.2136 3.10839 10.2136H9.29547Z" fill="#FFB054"/>
</g>
</svg>
