<svg width="72" height="72" viewBox="0 0 72 72" fill="none" xmlns="http://www.w3.org/2000/svg">
<path d="M9.81379 60.9492C9.81379 62.1773 10.7703 63.1325 12.0002 63.1325C13.0933 63.1325 14.1865 62.1773 14.1865 60.9492C14.1865 59.8576 13.0933 58.766 12.0002 58.766C10.7703 58.766 9.81379 59.8576 9.81379 60.9492ZM38.7832 11.1442C41.9261 8.14221 46.0255 6.36833 50.2616 6.36833C51.2181 6.36833 52.1747 6.50478 53.1312 6.64123L43.7025 16.1929L45.4789 27.5184L56.8207 29.2923L66.386 19.8771C67.2059 25.0623 65.5662 30.3839 61.8767 34.2046C60.6468 35.4327 59.2803 36.3878 57.7772 37.0701L60.9201 40.3449C62.4233 39.5262 63.6531 38.4346 64.8829 37.2065C70.0755 32.0213 72.1253 24.7894 70.3488 17.6939C70.0755 16.3293 68.9824 15.3742 67.7525 14.9648C66.386 14.6919 65.0196 14.9648 64.063 15.92L55.3176 24.6529L49.305 23.6978L48.3485 17.6939L57.094 8.96092C57.9139 8.00576 58.3238 6.64123 58.0505 5.27671C57.6406 4.04864 56.5474 2.95702 55.3176 2.68412C48.2119 0.91024 40.9695 2.95702 35.7769 8.14221C34.0005 9.91609 32.634 11.9629 31.6775 14.1461V23.4249L34.6837 26.4268C33.3172 20.8323 34.8204 15.1013 38.7832 11.1442ZM15.6897 65.8615C13.3666 68.0447 9.40385 68.0447 7.08083 65.8615C4.75782 63.4054 4.75782 59.5847 7.08083 57.265L27.0314 37.343L24.0252 34.341L4.07458 54.2631C-0.0248595 58.2202 -0.0248595 64.9063 4.07458 68.8635C5.98765 70.9102 8.58396 71.8654 11.3169 71.8654C14.1865 71.8654 16.7828 70.9102 18.6959 68.8635L32.634 54.9453C31.6775 53.7173 30.9942 52.3527 30.4476 50.9882L15.6897 65.8615Z" fill="#071F44" fill-opacity="0.1"/>
<path fill-rule="evenodd" clip-rule="evenodd" d="M52.7232 38.1598L69.6676 55.2164C71.444 56.8538 71.444 59.7193 69.6676 61.3567L60.3755 70.6355C59.5556 71.4542 58.4624 72 57.3693 72C56.2761 72 55.0462 71.4542 54.2264 70.6355L37.282 53.7154C33.4559 49.8947 33.0459 44.1637 35.7789 39.9337L24.1638 28.1988H14.1885L1.07031 10.7329L9.81578 2L27.3067 15.0994V25.1969L38.9218 36.7953C40.6982 35.5673 42.8846 35.0214 44.9343 35.0214C47.8039 35.0214 50.5369 36.1131 52.7232 38.1598ZM22.934 23.6959V23.8324H16.3749L6.80953 11.1423L10.2257 7.86745L22.934 17.2827V23.6959ZM40.2883 50.577L57.3693 67.4971L66.6613 58.3548L49.5803 41.2982C48.3505 40.0702 46.7107 39.3879 44.9343 39.3879C43.1579 39.3879 41.5181 40.0702 40.2883 41.2982C39.0584 42.5263 38.3752 44.1637 38.3752 45.9376C38.3752 47.7115 39.0584 49.3489 40.2883 50.577Z" fill="#071F44" fill-opacity="0.2"/>
</svg>
