<svg width="17" height="17" viewBox="0 0 17 17" fill="none" xmlns="http://www.w3.org/2000/svg">
<path d="M6.8125 6.75893C6.86094 6.00191 7.22422 5.2449 7.87813 4.80534C7.75703 4.53673 7.49062 4.34137 7.2 4.34137H6.47344L7.22422 3.80413C7.39375 3.68203 7.44219 3.43784 7.32109 3.2669L7.07891 2.94944C6.95781 2.7785 6.71562 2.72966 6.54609 2.85176L5.77109 3.41342L6.0375 2.68082C6.13438 2.46105 6.01328 2.24127 5.81953 2.16801L5.45625 2.04591C5.2625 1.94823 5.04453 2.07033 4.94766 2.26569L4.4875 3.55994L4.00312 2.26569C3.93047 2.07033 3.68828 1.94823 3.49453 2.02149L3.13125 2.16801C2.9375 2.24127 2.84063 2.46105 2.91328 2.68082L3.17969 3.41342L2.40469 2.85176C2.23516 2.72966 1.99297 2.7785 1.87187 2.94944L1.65391 3.2669C1.50859 3.43784 1.55703 3.68203 1.72656 3.80413L2.47734 4.34137H1.775C1.33906 4.34137 1 4.70767 1 5.1228V13.7186C1 14.1581 1.33906 14.5 1.775 14.5H5.84375C5.72266 14.2802 5.65 14.0116 5.65 13.7186V8.24853C5.65 7.54036 6.13438 6.90545 6.8125 6.75893ZM6.425 13.7186C6.425 14.1581 6.76406 14.5 7.2 14.5H11.075V11.3743H6.425V13.7186ZM11.85 14.5H15.725C16.1367 14.5 16.5 14.1581 16.5 13.7186V11.3743H11.85V14.5ZM15.725 7.4671H15.2164C15.2891 7.29616 15.3375 7.1008 15.3375 6.90545C15.3375 6.02633 14.6836 5.1228 13.5695 5.1228C12.407 5.1228 11.7531 6.29495 11.4625 6.97871C11.1477 6.29495 10.4937 5.1228 9.33125 5.1228C8.24141 5.1228 7.5875 6.02633 7.5875 6.90545C7.5875 7.1008 7.61172 7.29616 7.68437 7.4671H7.2C6.76406 7.4671 6.425 7.8334 6.425 8.24853V10.5928H11.075V7.4671H11.4383H11.4625H11.85V10.5928H16.5V8.24853C16.5 7.8334 16.1367 7.4671 15.725 7.4671ZM9.1375 7.4671C9.06484 7.44268 8.99219 7.39384 8.94375 7.36942C8.77422 7.19848 8.75 7.02754 8.75 6.90545C8.75 6.66125 8.89531 6.29495 9.33125 6.29495C9.76719 6.29495 10.1789 6.97871 10.3969 7.4671H9.1375ZM13.957 7.36942C13.9086 7.39384 13.8359 7.44268 13.7875 7.4671H12.5039C12.7219 6.97871 13.1336 6.29495 13.5695 6.29495C14.0055 6.29495 14.175 6.66125 14.175 6.90545C14.175 7.02754 14.1266 7.19848 13.957 7.36942Z" fill="url(#paint0_linear_1113_812)"/>
<defs>
<linearGradient id="paint0_linear_1113_812" x1="8.75" y1="2" x2="8.75" y2="14.5" gradientUnits="userSpaceOnUse">
<stop stop-color="#462E12"/>
<stop offset="1" stop-color="#8E6C12"/>
</linearGradient>
</defs>
</svg>
