<svg width="24" height="24" viewBox="0 0 24 24" fill="none" xmlns="http://www.w3.org/2000/svg">
    <path d="M0 6C0 2.68629 2.68629 0 6 0H18C21.3137 0 24 2.68629 24 6V18C24 21.3137 21.3137 24 18 24H6C2.68629 24 0 21.3137 0 18V6Z"
          fill="#F0453A"/>
    <path d="M10.0447 16.4924C10.2817 16.7245 10.6845 16.7245 10.9215 16.4924L17.8887 9.6683C18.1257 9.43619 18.1257 9.0416 17.8887 8.80949L17.0356 7.97389C16.7986 7.74178 16.4194 7.74178 16.1825 7.97389L10.495 13.5446L7.81709 10.9449C7.58011 10.7128 7.20094 10.7128 6.96396 10.9449L6.11084 11.7805C5.87386 12.0126 5.87386 12.4072 6.11084 12.6393L10.0447 16.4924Z"
          fill="white"/>
</svg>
