<svg width="26" height="26" viewBox="0 0 26 26" fill="none" xmlns="http://www.w3.org/2000/svg">
    <path fill-rule="evenodd" clip-rule="evenodd"
          d="M17.2134 4.80062C16.3196 5.60466 15.511 6.45101 14.8301 7.33968C13.6809 5.73161 12.2339 4.12354 10.6167 2.6001C6.40327 6.49333 3.46666 11.4868 3.46666 14.5337C3.46666 19.908 7.72261 24.2668 13 24.2668C18.2348 24.2668 22.5333 19.908 22.5333 14.5337C22.5333 12.2909 20.3202 7.63591 17.2134 4.80062ZM14.961 15.72L17.4444 12.915C17.5693 13.101 17.6741 13.287 17.7718 13.4603C17.8265 13.5573 17.8789 13.6504 17.9313 13.7372C19.1 15.9619 18.6131 18.7669 16.5192 20.2178C15.594 20.8949 14.4254 21.2334 13.208 21.2334C10.1403 21.2334 7.65696 19.2505 7.65696 15.9619C7.65696 14.3175 8.67953 12.8666 10.7247 10.4001C11.0168 10.7386 14.961 15.72 14.961 15.72Z"
          fill="#071F44" fill-opacity="0.2"/>
    <path d="M17.4444 12.9148L14.961 15.7198C14.961 15.7198 11.0168 10.7384 10.7247 10.3999C8.67952 12.8664 7.65695 14.3173 7.65695 15.9617C7.65695 19.2503 10.1403 21.2332 13.208 21.2332C14.4254 21.2332 15.594 20.8947 16.5192 20.2176C18.613 18.7667 19.1 15.9617 17.9313 13.737C17.7853 13.4951 17.6392 13.205 17.4444 12.9148Z"
          fill="#071F44"/>
</svg>
