<svg width="82" height="73" viewBox="0 0 82 73" fill="none" xmlns="http://www.w3.org/2000/svg">
<path d="M19 22.3L0.786909 16.0326C0.329457 15.8754 -0.110989 16.3124 0.0251029 16.7885L13 52.5C13.0631 52.7207 13.2407 52.8866 13.4602 52.9299L19 54V22.3Z" fill="url(#paint0_linear_828_9748)"/>
<g filter="url(#filter0_ii_828_9748)">
<path d="M19 35.1372L5.75562 32.5499L8.65843 40.5377L19 43V35.1372Z" fill="#EBC856"/>
</g>
<g filter="url(#filter1_ii_828_9748)">
<path d="M19 45.2222L9.58441 43.0872L12.1335 50.1187L19 52L19 45.2222Z" fill="#EBC856"/>
</g>
<g filter="url(#filter2_ii_828_9748)">
<path fill-rule="evenodd" clip-rule="evenodd" d="M7.35875 29.9269L16.5 31.7773V23.9758L3.80112 19.7785L7.35875 29.9269ZM3.20127 18.5271L17.5 23.2531V33L6.91013 30.8563C6.71449 30.8204 6.55621 30.6829 6.5 30.5L2.52237 19.1536C2.40109 18.7589 2.7936 18.3967 3.20127 18.5271Z" fill="url(#paint1_linear_828_9748)"/>
</g>
<path d="M63 22.3L81.2131 16.0326C81.6705 15.8754 82.111 16.3124 81.9749 16.7885L69 52.5C68.9369 52.7207 68.7593 52.8866 68.5398 52.9299L63 54V22.3Z" fill="url(#paint2_linear_828_9748)"/>
<g filter="url(#filter3_ii_828_9748)">
<path d="M63 35.1372L76.2444 32.5499L73.3416 40.5377L63 43V35.1372Z" fill="#EBC856"/>
</g>
<g filter="url(#filter4_ii_828_9748)">
<path d="M63 45.2222L72.4156 43.0872L69.8665 50.1187L63 52L63 45.2222Z" fill="#EBC856"/>
</g>
<g filter="url(#filter5_ii_828_9748)">
<path fill-rule="evenodd" clip-rule="evenodd" d="M74.6413 29.9269L65.5 31.7773V23.9758L78.1989 19.7785L74.6413 29.9269ZM78.7987 18.5271L64.5 23.2531V33L75.0899 30.8563C75.2855 30.8204 75.4438 30.6829 75.5 30.5L79.4776 19.1536C79.5989 18.7589 79.2064 18.3967 78.7987 18.5271Z" fill="url(#paint3_linear_828_9748)"/>
</g>
<g filter="url(#filter6_di_828_9748)">
<path d="M23.1573 62.49C22.6662 62.5668 22.1932 62.2713 22.0469 61.7962L19.0468 52.0479C18.7744 51.163 19.7472 50.4151 20.5324 50.9057L33.6095 59.0772C34.3947 59.5678 34.1489 60.77 33.2341 60.9132L23.1573 62.49Z" fill="#EBC856"/>
</g>
<mask id="mask0_828_9748" style="mask-type:alpha" maskUnits="userSpaceOnUse" x="19" y="50" width="16" height="13">
<path d="M23.1573 62.49C22.6662 62.5668 22.1932 62.2713 22.0469 61.7962L19.0468 52.0479C18.7744 51.163 19.7472 50.4151 20.5324 50.9057L33.6095 59.0772C34.3947 59.5678 34.1489 60.77 33.2341 60.9132L23.1573 62.49Z" fill="#EBC856"/>
</mask>
<g mask="url(#mask0_828_9748)">
<g style="mix-blend-mode:multiply">
<path d="M22.3018 62.6239L27.071 54.9915L33.6095 59.0772C34.3947 59.5678 34.149 60.7701 33.2342 60.9132L22.3018 62.6239Z" fill="#EBC856"/>
</g>
</g>
<g filter="url(#filter7_di_828_9748)">
<path d="M23.1573 11.0121C22.6662 10.9352 22.1932 11.2308 22.0469 11.7059L19.0468 21.4542C18.7744 22.3391 19.7472 23.087 20.5324 22.5964L33.6095 14.4249C34.3947 13.9343 34.1489 12.732 33.2341 12.5889L23.1573 11.0121Z" fill="#EBC856"/>
</g>
<mask id="mask1_828_9748" style="mask-type:alpha" maskUnits="userSpaceOnUse" x="19" y="11" width="16" height="12">
<path d="M23.1573 11.0121C22.6662 10.9352 22.1932 11.2308 22.0469 11.7059L19.0468 21.4542C18.7744 22.3391 19.7472 23.087 20.5324 22.5964L33.6095 14.4249C34.3947 13.9343 34.1489 12.732 33.2341 12.5889L23.1573 11.0121Z" fill="#EBC856"/>
</mask>
<g mask="url(#mask1_828_9748)">
<g style="mix-blend-mode:multiply">
<path d="M22.3018 10.8782L27.0711 18.5107L18.3754 24.836C18.7715 24.5885 18.9053 24.1598 18.823 23.7774C18.6914 23.1651 18.1938 22.4542 18.4032 21.8639L22.3018 10.8782Z" fill="#EBC856"/>
</g>
</g>
<g filter="url(#filter8_di_828_9748)">
<path d="M58.8427 11.0121C59.3338 10.9352 59.8068 11.2308 59.953 11.7059L62.9532 21.4542C63.2255 22.3391 62.2527 23.087 61.4675 22.5964L48.3905 14.4249C47.6053 13.9343 47.851 12.732 48.7658 12.5889L58.8427 11.0121Z" fill="#EBC856"/>
</g>
<mask id="mask2_828_9748" style="mask-type:alpha" maskUnits="userSpaceOnUse" x="47" y="11" width="16" height="12">
<path d="M58.8427 11.0121C59.3338 10.9352 59.8068 11.2308 59.953 11.7059L62.9532 21.4542C63.2255 22.3391 62.2527 23.087 61.4675 22.5964L48.3905 14.4249C47.6053 13.9343 47.851 12.732 48.7658 12.5889L58.8427 11.0121Z" fill="#EBC856"/>
</mask>
<g mask="url(#mask2_828_9748)">
<g style="mix-blend-mode:multiply">
<path d="M59.6982 10.8782L54.9289 18.5107L63.6246 24.836C63.2284 24.5885 63.0947 24.1598 63.1769 23.7774C63.3086 23.1651 63.8062 22.4542 63.5967 21.8639L59.6982 10.8782Z" fill="#EBC856"/>
</g>
</g>
<g filter="url(#filter9_di_828_9748)">
<path d="M58.8427 62.49C59.3338 62.5668 59.8068 62.2713 59.953 61.7962L62.9532 52.0479C63.2255 51.163 62.2527 50.4151 61.4675 50.9057L48.3905 59.0772C47.6053 59.5678 47.851 60.77 48.7658 60.9132L58.8427 62.49Z" fill="#EBC856"/>
</g>
<mask id="mask3_828_9748" style="mask-type:alpha" maskUnits="userSpaceOnUse" x="47" y="50" width="16" height="13">
<path d="M58.8427 62.49C59.3338 62.5668 59.8068 62.2713 59.953 61.7962L62.9532 52.0479C63.2255 51.163 62.2527 50.4151 61.4675 50.9057L48.3905 59.0772C47.6053 59.5678 47.851 60.77 48.7658 60.9132L58.8427 62.49Z" fill="#EBC856"/>
</mask>
<g mask="url(#mask3_828_9748)">
<g style="mix-blend-mode:multiply">
<path d="M59.6982 62.6239L54.9289 54.9915L48.3904 59.0772C47.6052 59.5678 47.851 60.7701 48.7657 60.9132L59.6982 62.6239Z" fill="#EBC856"/>
</g>
</g>
<g filter="url(#filter10_dd_828_9748)">
<mask id="mask4_828_9748" style="mask-type:alpha" maskUnits="userSpaceOnUse" x="15" y="7" width="52" height="60">
<path d="M43.5 65.5566C41.953 66.4498 40.047 66.4498 38.5 65.5566L17.5193 53.4434C15.9722 52.5502 15.0193 50.8996 15.0193 49.1133L15.0192 24.8868C15.0192 23.1004 15.9722 21.4498 17.5192 20.5566L38.5 8.44338C40.047 7.55022 41.953 7.55022 43.5 8.44338L64.4808 20.5566C66.0278 21.4498 66.9808 23.1004 66.9808 24.8867L66.9808 49.1132C66.9808 50.8996 66.0278 52.5502 64.4808 53.4434L43.5 65.5566Z" fill="#7E878C"/>
</mask>
<g mask="url(#mask4_828_9748)">
<g filter="url(#filter11_ii_828_9748)">
<path d="M43.5 65.5566C41.953 66.4498 40.047 66.4498 38.5 65.5566L17.5193 53.4434C15.9722 52.5502 15.0193 50.8996 15.0193 49.1133L15.0192 24.8868C15.0192 23.1004 15.9722 21.4498 17.5192 20.5566L38.5 8.44338C40.047 7.55022 41.953 7.55022 43.5 8.44338L64.4808 20.5566C66.0278 21.4498 66.9808 23.1004 66.9808 24.8867L66.9808 49.1132C66.9808 50.8996 66.0278 52.5502 64.4808 53.4434L43.5 65.5566Z" fill="#815110"/>
</g>
<g filter="url(#filter12_dii_828_9748)">
<path d="M43.5 61.5566C41.953 62.4498 40.047 62.4498 38.5 61.5566L20.9834 51.4434C19.4363 50.5502 18.4834 48.8996 18.4834 47.1133L18.4833 26.8868C18.4833 25.1004 19.4363 23.4498 20.9833 22.5566L38.5 12.4434C40.047 11.5502 41.953 11.5502 43.5 12.4434L61.0167 22.5566C62.5637 23.4498 63.5167 25.1004 63.5167 26.8867L63.5167 47.1132C63.5167 48.8996 62.5637 50.5502 61.0167 51.4434L43.5 61.5566Z" fill="url(#paint4_linear_828_9748)"/>
</g>
<g opacity="0.8" filter="url(#filter13_di_828_9748)">
<path d="M42 54.4227C41.3812 54.7799 40.6188 54.7799 40 54.4227L26.4115 46.5774C25.7927 46.2201 25.4115 45.5598 25.4115 44.8453L25.4115 29.1547C25.4115 28.4402 25.7927 27.7799 26.4115 27.4227L40 19.5774C40.6188 19.2201 41.3812 19.2201 42 19.5774L55.5885 27.4226C56.2073 27.7799 56.5885 28.4402 56.5885 29.1547L56.5885 44.8453C56.5885 45.5598 56.2073 46.2201 55.5885 46.5774L42 54.4227Z" fill="#F8ECBA"/>
</g>
<g style="mix-blend-mode:darken" opacity="0.35">
<path d="M15.0193 52L41 67V37L15.0193 52Z" fill="url(#paint5_linear_828_9748)"/>
</g>
<g style="mix-blend-mode:darken" opacity="0.3">
<path d="M15.0193 52L41 37L15.0193 22V52Z" fill="url(#paint6_linear_828_9748)"/>
</g>
<g style="mix-blend-mode:lighten" opacity="0.6">
<path d="M15.0193 22L41 37V7L15.0193 22Z" fill="url(#paint7_linear_828_9748)"/>
</g>
<g style="mix-blend-mode:darken" opacity="0.6">
<path d="M66.9807 52L41 67V37L66.9807 52Z" fill="url(#paint8_linear_828_9748)"/>
</g>
<g style="mix-blend-mode:darken" opacity="0.5">
<path d="M66.9807 52L41 37L66.9807 22V52Z" fill="url(#paint9_linear_828_9748)"/>
</g>
<g style="mix-blend-mode:darken" opacity="0.4">
<path d="M66.9807 22L41 37V7L66.9807 22Z" fill="url(#paint10_linear_828_9748)"/>
</g>
<mask id="mask5_828_9748" style="mask-type:alpha" maskUnits="userSpaceOnUse" x="18" y="11" width="46" height="52">
<path fill-rule="evenodd" clip-rule="evenodd" d="M43.4988 55.559C41.9524 56.4508 40.0478 56.4505 38.5017 55.5581L26.1738 48.4432C24.6264 47.5502 23.6731 45.8993 23.6731 44.1127V37.0019V29.8905C23.6731 28.1041 24.6261 26.4535 26.1731 25.5603L39.0012 18.154C40.2381 17.4399 41.7621 17.4395 42.9994 18.153L55.8385 25.557C57.3867 26.4499 58.3407 28.1012 58.3407 29.8884V44.1116C58.3407 45.8988 57.3867 47.5501 55.8385 48.443L43.4988 55.559ZM63.5167 47.1132C63.5167 48.8996 62.5637 50.5502 61.0167 51.4434L43.5001 61.5566C41.9531 62.4498 40.0471 62.4498 38.5001 61.5566L20.9834 51.4434C19.4364 50.5502 18.4834 48.8996 18.4834 47.1133L18.4834 26.8868C18.4834 25.1004 19.4364 23.4498 20.9834 22.5566L38.5001 12.4434C40.0471 11.5502 41.953 11.5502 43.5001 12.4434L61.0167 22.5566C62.5637 23.4498 63.5167 25.1004 63.5167 26.8867V47.1132Z" fill="black"/>
</mask>
<g mask="url(#mask5_828_9748)">
<path opacity="0.7" d="M39.0001 18.9283L25.5 26C25.5 26 39.5 17 39 15.0001C38.5 13.0001 21.4294 22.3053 18.8335 23.7979L38.5001 12.4434C39.845 11.667 41.4612 11.5655 42.8769 12.1391C42.8769 12.1391 43.3147 15.7735 44 17C44.6854 18.2265 49.7584 22.8302 49.7584 22.8302L43.0001 18.9283C41.7625 18.2137 40.2377 18.2137 39.0001 18.9283Z" fill="#FDF9EB"/>
</g>
<g filter="url(#filter14_di_828_9748)">
<path fill-rule="evenodd" clip-rule="evenodd" d="M26.6795 46.4226L40 54.1132C40.6188 54.4705 41.3812 54.4705 42 54.1132L55.3205 46.4226C55.9393 46.0654 56.3205 45.4051 56.3205 44.6906L56.3205 29.3094C56.3205 28.5948 55.9393 27.9346 55.3205 27.5773L42 19.8867C41.3812 19.5295 40.6188 19.5295 40 19.8867L26.6795 27.5773C26.0607 27.9346 25.6795 28.5948 25.6795 29.3094L25.6795 44.6906C25.6795 45.4051 26.0607 46.0654 26.6795 46.4226ZM39 55.8453C40.2376 56.5598 41.7624 56.5598 43 55.8453L56.3205 48.1547C57.5581 47.4402 58.3205 46.1196 58.3205 44.6906V39.6794L60.2928 37.7071C60.6833 37.3166 60.6833 36.6834 60.2928 36.2929L58.3205 34.3206V29.3094C58.3205 27.8803 57.5581 26.5598 56.3205 25.8453L43 18.1547C41.7624 17.4401 40.2376 17.4401 39 18.1547L25.6795 25.8453C24.4419 26.5598 23.6795 27.8803 23.6795 29.3094L23.6795 34.3204L21.707 36.2929C21.3164 36.6834 21.3164 37.3166 21.707 37.7071L23.6795 39.6796L23.6795 44.6906C23.6795 46.1196 24.4419 47.4402 25.6795 48.1547L39 55.8453Z" fill="#815110"/>
</g>
<g filter="url(#filter15_dd_828_9748)">
<path d="M34.7524 43L36.4883 46.9419L38.1802 43H39.4238L36.7124 49.2183H36.2993L33.5 43H34.7524Z" fill="white"/>
<path d="M42.0774 43V49.1392H40.8909V43H42.0774Z" fill="white"/>
<path d="M46.5504 43C47.1246 43 47.5904 43.167 47.9478 43.501C48.3082 43.832 48.4883 44.2598 48.4883 44.7842C48.4883 45.3145 48.3067 45.7437 47.9434 46.0718C47.5801 46.3999 47.1011 46.564 46.5064 46.564H45.3638V49.1392H44.1773V43H46.5504ZM46.2559 45.6367C46.5723 45.6367 46.8184 45.5649 46.9942 45.4214C47.1729 45.2749 47.2623 45.0596 47.2623 44.7754C47.2623 44.21 46.899 43.9272 46.1724 43.9272H45.3638V45.6367H46.2559Z" fill="white"/>
</g>
<g filter="url(#filter16_dd_828_9748)">
<path d="M40.4983 39.0645L45.2463 27.5059C45.1604 26.1022 44.4944 25.3789 43.2483 25.3359H36.76V27.3984L42.217 27.377C42.4176 27.4056 42.4749 27.5273 42.3889 27.7422L37.7483 39.0645H40.4983Z" fill="white"/>
</g>
</g>
</g>
<path d="M12.9652 6.33979C13.0672 6.03191 13.4692 5.95846 13.6735 6.2104L15.1877 8.07838C15.2371 8.13933 15.3029 8.18484 15.3774 8.2095L17.6601 8.96538C17.968 9.06733 18.0415 9.46936 17.7895 9.67359L15.9215 11.1878C15.8606 11.2372 15.8151 11.3031 15.7904 11.3775L15.0345 13.6603C14.9326 13.9681 14.5306 14.0416 14.3263 13.7897L12.8121 11.9217C12.7627 11.8607 12.6969 11.8152 12.6224 11.7906L10.3397 11.0347C10.0318 10.9327 9.95832 10.5307 10.2103 10.3265L12.0782 8.81226C12.1392 8.76285 12.1847 8.697 12.2094 8.62251L12.9652 6.33979Z" fill="#F8ECBA"/>
<path d="M11.8046 59.3409C11.8523 59.1859 12.0526 59.145 12.1573 59.2689L12.9335 60.187C12.9589 60.2169 12.9923 60.239 13.0298 60.2506L14.1787 60.6048C14.3337 60.6525 14.3746 60.8528 14.2507 60.9575L13.3326 61.7337C13.3027 61.7591 13.2806 61.7925 13.269 61.83L12.9148 62.9789C12.867 63.1339 12.6668 63.1748 12.5621 63.0509L11.7858 62.1328C11.7605 62.1029 11.7271 62.0808 11.6896 62.0692L10.5407 61.715C10.3857 61.6672 10.3448 61.467 10.4687 61.3623L11.3868 60.586C11.4167 60.5607 11.4388 60.5273 11.4504 60.4898L11.8046 59.3409Z" fill="#F8ECBA"/>
<path d="M68.0609 13.2467C68.1838 13.0233 68.5248 13.1439 68.48 13.3949L68.1891 15.0253C68.1721 15.1204 68.2176 15.2157 68.3022 15.2623L69.7532 16.0608C69.9766 16.1837 69.856 16.5247 69.605 16.48L67.9746 16.189C67.8795 16.172 67.7842 16.2176 67.7376 16.3022L66.9391 17.7532C66.8162 17.9765 66.4752 17.856 66.52 17.605L66.8109 15.9745C66.8279 15.8794 66.7824 15.7841 66.6978 15.7376L65.2468 14.9391C65.0234 14.8161 65.144 14.4751 65.395 14.5199L67.0254 14.8109C67.1205 14.8278 67.2158 14.7823 67.2624 14.6977L68.0609 13.2467Z" fill="#F8ECBA"/>
<defs>
<filter id="filter0_ii_828_9748" x="5.55562" y="32.3499" width="13.6444" height="10.8501" filterUnits="userSpaceOnUse" color-interpolation-filters="sRGB">
<feFlood flood-opacity="0" result="BackgroundImageFix"/>
<feBlend mode="normal" in="SourceGraphic" in2="BackgroundImageFix" result="shape"/>
<feColorMatrix in="SourceAlpha" type="matrix" values="0 0 0 0 0 0 0 0 0 0 0 0 0 0 0 0 0 0 127 0" result="hardAlpha"/>
<feOffset dx="0.5" dy="-0.5"/>
<feGaussianBlur stdDeviation="0.1"/>
<feComposite in2="hardAlpha" operator="arithmetic" k2="-1" k3="1"/>
<feColorMatrix type="matrix" values="0 0 0 0 0.820833 0 0 0 0 0.610016 0 0 0 0 0.362535 0 0 0 1 0"/>
<feBlend mode="normal" in2="shape" result="effect1_innerShadow_828_9748"/>
<feColorMatrix in="SourceAlpha" type="matrix" values="0 0 0 0 0 0 0 0 0 0 0 0 0 0 0 0 0 0 127 0" result="hardAlpha"/>
<feOffset dx="-0.5" dy="0.5"/>
<feGaussianBlur stdDeviation="0.1"/>
<feComposite in2="hardAlpha" operator="arithmetic" k2="-1" k3="1"/>
<feColorMatrix type="matrix" values="0 0 0 0 1 0 0 0 0 1 0 0 0 0 1 0 0 0 0.71 0"/>
<feBlend mode="normal" in2="effect1_innerShadow_828_9748" result="effect2_innerShadow_828_9748"/>
</filter>
<filter id="filter1_ii_828_9748" x="9.38441" y="42.8872" width="9.81559" height="9.31284" filterUnits="userSpaceOnUse" color-interpolation-filters="sRGB">
<feFlood flood-opacity="0" result="BackgroundImageFix"/>
<feBlend mode="normal" in="SourceGraphic" in2="BackgroundImageFix" result="shape"/>
<feColorMatrix in="SourceAlpha" type="matrix" values="0 0 0 0 0 0 0 0 0 0 0 0 0 0 0 0 0 0 127 0" result="hardAlpha"/>
<feOffset dx="0.5" dy="-0.5"/>
<feGaussianBlur stdDeviation="0.1"/>
<feComposite in2="hardAlpha" operator="arithmetic" k2="-1" k3="1"/>
<feColorMatrix type="matrix" values="0 0 0 0 0.820833 0 0 0 0 0.610016 0 0 0 0 0.362535 0 0 0 1 0"/>
<feBlend mode="normal" in2="shape" result="effect1_innerShadow_828_9748"/>
<feColorMatrix in="SourceAlpha" type="matrix" values="0 0 0 0 0 0 0 0 0 0 0 0 0 0 0 0 0 0 127 0" result="hardAlpha"/>
<feOffset dx="-0.5" dy="0.5"/>
<feGaussianBlur stdDeviation="0.1"/>
<feComposite in2="hardAlpha" operator="arithmetic" k2="-1" k3="1"/>
<feColorMatrix type="matrix" values="0 0 0 0 1 0 0 0 0 1 0 0 0 0 1 0 0 0 0.71 0"/>
<feBlend mode="normal" in2="effect1_innerShadow_828_9748" result="effect2_innerShadow_828_9748"/>
</filter>
<filter id="filter2_ii_828_9748" x="2.3" y="18.3" width="15.4" height="14.9" filterUnits="userSpaceOnUse" color-interpolation-filters="sRGB">
<feFlood flood-opacity="0" result="BackgroundImageFix"/>
<feBlend mode="normal" in="SourceGraphic" in2="BackgroundImageFix" result="shape"/>
<feColorMatrix in="SourceAlpha" type="matrix" values="0 0 0 0 0 0 0 0 0 0 0 0 0 0 0 0 0 0 127 0" result="hardAlpha"/>
<feOffset dx="-0.2" dy="-0.2"/>
<feGaussianBlur stdDeviation="0.1"/>
<feComposite in2="hardAlpha" operator="arithmetic" k2="-1" k3="1"/>
<feColorMatrix type="matrix" values="0 0 0 0 1 0 0 0 0 0.95988 0 0 0 0 0.858398 0 0 0 1 0"/>
<feBlend mode="normal" in2="shape" result="effect1_innerShadow_828_9748"/>
<feColorMatrix in="SourceAlpha" type="matrix" values="0 0 0 0 0 0 0 0 0 0 0 0 0 0 0 0 0 0 127 0" result="hardAlpha"/>
<feOffset dx="0.4" dy="0.4"/>
<feGaussianBlur stdDeviation="0.1"/>
<feComposite in2="hardAlpha" operator="arithmetic" k2="-1" k3="1"/>
<feColorMatrix type="matrix" values="0 0 0 0 0.75 0 0 0 0 0.587225 0 0 0 0 0.11875 0 0 0 1 0"/>
<feBlend mode="normal" in2="effect1_innerShadow_828_9748" result="effect2_innerShadow_828_9748"/>
</filter>
<filter id="filter3_ii_828_9748" x="62.8" y="32.3499" width="13.6444" height="10.8501" filterUnits="userSpaceOnUse" color-interpolation-filters="sRGB">
<feFlood flood-opacity="0" result="BackgroundImageFix"/>
<feBlend mode="normal" in="SourceGraphic" in2="BackgroundImageFix" result="shape"/>
<feColorMatrix in="SourceAlpha" type="matrix" values="0 0 0 0 0 0 0 0 0 0 0 0 0 0 0 0 0 0 127 0" result="hardAlpha"/>
<feOffset dx="-0.5" dy="-0.5"/>
<feGaussianBlur stdDeviation="0.1"/>
<feComposite in2="hardAlpha" operator="arithmetic" k2="-1" k3="1"/>
<feColorMatrix type="matrix" values="0 0 0 0 0.820833 0 0 0 0 0.610016 0 0 0 0 0.362535 0 0 0 1 0"/>
<feBlend mode="normal" in2="shape" result="effect1_innerShadow_828_9748"/>
<feColorMatrix in="SourceAlpha" type="matrix" values="0 0 0 0 0 0 0 0 0 0 0 0 0 0 0 0 0 0 127 0" result="hardAlpha"/>
<feOffset dx="0.5" dy="0.5"/>
<feGaussianBlur stdDeviation="0.1"/>
<feComposite in2="hardAlpha" operator="arithmetic" k2="-1" k3="1"/>
<feColorMatrix type="matrix" values="0 0 0 0 1 0 0 0 0 1 0 0 0 0 1 0 0 0 0.71 0"/>
<feBlend mode="normal" in2="effect1_innerShadow_828_9748" result="effect2_innerShadow_828_9748"/>
</filter>
<filter id="filter4_ii_828_9748" x="62.8" y="42.8872" width="9.81559" height="9.31284" filterUnits="userSpaceOnUse" color-interpolation-filters="sRGB">
<feFlood flood-opacity="0" result="BackgroundImageFix"/>
<feBlend mode="normal" in="SourceGraphic" in2="BackgroundImageFix" result="shape"/>
<feColorMatrix in="SourceAlpha" type="matrix" values="0 0 0 0 0 0 0 0 0 0 0 0 0 0 0 0 0 0 127 0" result="hardAlpha"/>
<feOffset dx="-0.5" dy="-0.5"/>
<feGaussianBlur stdDeviation="0.1"/>
<feComposite in2="hardAlpha" operator="arithmetic" k2="-1" k3="1"/>
<feColorMatrix type="matrix" values="0 0 0 0 0.820833 0 0 0 0 0.610016 0 0 0 0 0.362535 0 0 0 1 0"/>
<feBlend mode="normal" in2="shape" result="effect1_innerShadow_828_9748"/>
<feColorMatrix in="SourceAlpha" type="matrix" values="0 0 0 0 0 0 0 0 0 0 0 0 0 0 0 0 0 0 127 0" result="hardAlpha"/>
<feOffset dx="0.5" dy="0.5"/>
<feGaussianBlur stdDeviation="0.1"/>
<feComposite in2="hardAlpha" operator="arithmetic" k2="-1" k3="1"/>
<feColorMatrix type="matrix" values="0 0 0 0 1 0 0 0 0 1 0 0 0 0 1 0 0 0 0.71 0"/>
<feBlend mode="normal" in2="effect1_innerShadow_828_9748" result="effect2_innerShadow_828_9748"/>
</filter>
<filter id="filter5_ii_828_9748" x="64.3" y="18.3" width="15.4" height="14.9" filterUnits="userSpaceOnUse" color-interpolation-filters="sRGB">
<feFlood flood-opacity="0" result="BackgroundImageFix"/>
<feBlend mode="normal" in="SourceGraphic" in2="BackgroundImageFix" result="shape"/>
<feColorMatrix in="SourceAlpha" type="matrix" values="0 0 0 0 0 0 0 0 0 0 0 0 0 0 0 0 0 0 127 0" result="hardAlpha"/>
<feOffset dx="-0.2" dy="-0.2"/>
<feGaussianBlur stdDeviation="0.1"/>
<feComposite in2="hardAlpha" operator="arithmetic" k2="-1" k3="1"/>
<feColorMatrix type="matrix" values="0 0 0 0 1 0 0 0 0 0.95988 0 0 0 0 0.858398 0 0 0 1 0"/>
<feBlend mode="normal" in2="shape" result="effect1_innerShadow_828_9748"/>
<feColorMatrix in="SourceAlpha" type="matrix" values="0 0 0 0 0 0 0 0 0 0 0 0 0 0 0 0 0 0 127 0" result="hardAlpha"/>
<feOffset dx="0.4" dy="0.4"/>
<feGaussianBlur stdDeviation="0.1"/>
<feComposite in2="hardAlpha" operator="arithmetic" k2="-1" k3="1"/>
<feColorMatrix type="matrix" values="0 0 0 0 0.75 0 0 0 0 0.587225 0 0 0 0 0.11875 0 0 0 1 0"/>
<feBlend mode="normal" in2="effect1_innerShadow_828_9748" result="effect2_innerShadow_828_9748"/>
</filter>
<filter id="filter6_di_828_9748" x="18.6" y="50.75" width="15.4803" height="12.1521" filterUnits="userSpaceOnUse" color-interpolation-filters="sRGB">
<feFlood flood-opacity="0" result="BackgroundImageFix"/>
<feColorMatrix in="SourceAlpha" type="matrix" values="0 0 0 0 0 0 0 0 0 0 0 0 0 0 0 0 0 0 127 0" result="hardAlpha"/>
<feOffset dx="-0.4" dy="0.4"/>
<feComposite in2="hardAlpha" operator="out"/>
<feColorMatrix type="matrix" values="0 0 0 0 0.741176 0 0 0 0 0.552941 0 0 0 0 0.196078 0 0 0 1 0"/>
<feBlend mode="normal" in2="BackgroundImageFix" result="effect1_dropShadow_828_9748"/>
<feBlend mode="normal" in="SourceGraphic" in2="effect1_dropShadow_828_9748" result="shape"/>
<feColorMatrix in="SourceAlpha" type="matrix" values="0 0 0 0 0 0 0 0 0 0 0 0 0 0 0 0 0 0 127 0" result="hardAlpha"/>
<feOffset dy="0.6"/>
<feComposite in2="hardAlpha" operator="arithmetic" k2="-1" k3="1"/>
<feColorMatrix type="matrix" values="0 0 0 0 1 0 0 0 0 1 0 0 0 0 1 0 0 0 0.7 0"/>
<feBlend mode="normal" in2="shape" result="effect2_innerShadow_828_9748"/>
</filter>
<filter id="filter7_di_828_9748" x="18.6" y="11" width="15.4803" height="12.1521" filterUnits="userSpaceOnUse" color-interpolation-filters="sRGB">
<feFlood flood-opacity="0" result="BackgroundImageFix"/>
<feColorMatrix in="SourceAlpha" type="matrix" values="0 0 0 0 0 0 0 0 0 0 0 0 0 0 0 0 0 0 127 0" result="hardAlpha"/>
<feOffset dx="-0.4" dy="0.4"/>
<feComposite in2="hardAlpha" operator="out"/>
<feColorMatrix type="matrix" values="0 0 0 0 0.741176 0 0 0 0 0.552941 0 0 0 0 0.196078 0 0 0 1 0"/>
<feBlend mode="normal" in2="BackgroundImageFix" result="effect1_dropShadow_828_9748"/>
<feBlend mode="normal" in="SourceGraphic" in2="effect1_dropShadow_828_9748" result="shape"/>
<feColorMatrix in="SourceAlpha" type="matrix" values="0 0 0 0 0 0 0 0 0 0 0 0 0 0 0 0 0 0 127 0" result="hardAlpha"/>
<feOffset dy="0.6"/>
<feComposite in2="hardAlpha" operator="arithmetic" k2="-1" k3="1"/>
<feColorMatrix type="matrix" values="0 0 0 0 1 0 0 0 0 1 0 0 0 0 1 0 0 0 0.7 0"/>
<feBlend mode="normal" in2="shape" result="effect2_innerShadow_828_9748"/>
</filter>
<filter id="filter8_di_828_9748" x="47.5197" y="11" width="15.4803" height="12.1521" filterUnits="userSpaceOnUse" color-interpolation-filters="sRGB">
<feFlood flood-opacity="0" result="BackgroundImageFix"/>
<feColorMatrix in="SourceAlpha" type="matrix" values="0 0 0 0 0 0 0 0 0 0 0 0 0 0 0 0 0 0 127 0" result="hardAlpha"/>
<feOffset dx="-0.4" dy="0.4"/>
<feComposite in2="hardAlpha" operator="out"/>
<feColorMatrix type="matrix" values="0 0 0 0 0.741176 0 0 0 0 0.552941 0 0 0 0 0.196078 0 0 0 1 0"/>
<feBlend mode="normal" in2="BackgroundImageFix" result="effect1_dropShadow_828_9748"/>
<feBlend mode="normal" in="SourceGraphic" in2="effect1_dropShadow_828_9748" result="shape"/>
<feColorMatrix in="SourceAlpha" type="matrix" values="0 0 0 0 0 0 0 0 0 0 0 0 0 0 0 0 0 0 127 0" result="hardAlpha"/>
<feOffset dy="0.6"/>
<feComposite in2="hardAlpha" operator="arithmetic" k2="-1" k3="1"/>
<feColorMatrix type="matrix" values="0 0 0 0 1 0 0 0 0 1 0 0 0 0 1 0 0 0 0.7 0"/>
<feBlend mode="normal" in2="shape" result="effect2_innerShadow_828_9748"/>
</filter>
<filter id="filter9_di_828_9748" x="47.5197" y="50.75" width="15.4803" height="12.1521" filterUnits="userSpaceOnUse" color-interpolation-filters="sRGB">
<feFlood flood-opacity="0" result="BackgroundImageFix"/>
<feColorMatrix in="SourceAlpha" type="matrix" values="0 0 0 0 0 0 0 0 0 0 0 0 0 0 0 0 0 0 127 0" result="hardAlpha"/>
<feOffset dx="-0.4" dy="0.4"/>
<feComposite in2="hardAlpha" operator="out"/>
<feColorMatrix type="matrix" values="0 0 0 0 0.741176 0 0 0 0 0.552941 0 0 0 0 0.196078 0 0 0 1 0"/>
<feBlend mode="normal" in2="BackgroundImageFix" result="effect1_dropShadow_828_9748"/>
<feBlend mode="normal" in="SourceGraphic" in2="effect1_dropShadow_828_9748" result="shape"/>
<feColorMatrix in="SourceAlpha" type="matrix" values="0 0 0 0 0 0 0 0 0 0 0 0 0 0 0 0 0 0 127 0" result="hardAlpha"/>
<feOffset dy="0.6"/>
<feComposite in2="hardAlpha" operator="arithmetic" k2="-1" k3="1"/>
<feColorMatrix type="matrix" values="0 0 0 0 1 0 0 0 0 1 0 0 0 0 1 0 0 0 0.7 0"/>
<feBlend mode="normal" in2="shape" result="effect2_innerShadow_828_9748"/>
</filter>
<filter id="filter10_dd_828_9748" x="13.0192" y="5.77356" width="59.9615" height="66.4529" filterUnits="userSpaceOnUse" color-interpolation-filters="sRGB">
<feFlood flood-opacity="0" result="BackgroundImageFix"/>
<feColorMatrix in="SourceAlpha" type="matrix" values="0 0 0 0 0 0 0 0 0 0 0 0 0 0 0 0 0 0 127 0" result="hardAlpha"/>
<feOffset dx="2" dy="2"/>
<feGaussianBlur stdDeviation="2"/>
<feComposite in2="hardAlpha" operator="out"/>
<feColorMatrix type="matrix" values="0 0 0 0 0 0 0 0 0 0 0 0 0 0 0 0 0 0 0.4 0"/>
<feBlend mode="normal" in2="BackgroundImageFix" result="effect1_dropShadow_828_9748"/>
<feColorMatrix in="SourceAlpha" type="matrix" values="0 0 0 0 0 0 0 0 0 0 0 0 0 0 0 0 0 0 127 0" result="hardAlpha"/>
<feOffset dy="1"/>
<feGaussianBlur stdDeviation="0.5"/>
<feComposite in2="hardAlpha" operator="out"/>
<feColorMatrix type="matrix" values="0 0 0 0 0 0 0 0 0 0 0 0 0 0 0 0 0 0 0.2 0"/>
<feBlend mode="normal" in2="effect1_dropShadow_828_9748" result="effect2_dropShadow_828_9748"/>
<feBlend mode="normal" in="SourceGraphic" in2="effect2_dropShadow_828_9748" result="shape"/>
</filter>
<filter id="filter11_ii_828_9748" x="14.5192" y="7.27356" width="52.9615" height="59.4529" filterUnits="userSpaceOnUse" color-interpolation-filters="sRGB">
<feFlood flood-opacity="0" result="BackgroundImageFix"/>
<feBlend mode="normal" in="SourceGraphic" in2="BackgroundImageFix" result="shape"/>
<feColorMatrix in="SourceAlpha" type="matrix" values="0 0 0 0 0 0 0 0 0 0 0 0 0 0 0 0 0 0 127 0" result="hardAlpha"/>
<feOffset dx="-0.5" dy="-0.5"/>
<feGaussianBlur stdDeviation="0.5"/>
<feComposite in2="hardAlpha" operator="arithmetic" k2="-1" k3="1"/>
<feColorMatrix type="matrix" values="0 0 0 0 0.2 0 0 0 0 0.16998 0 0 0 0 0.02 0 0 0 1 0"/>
<feBlend mode="normal" in2="shape" result="effect1_innerShadow_828_9748"/>
<feColorMatrix in="SourceAlpha" type="matrix" values="0 0 0 0 0 0 0 0 0 0 0 0 0 0 0 0 0 0 127 0" result="hardAlpha"/>
<feOffset dx="0.5" dy="0.5"/>
<feGaussianBlur stdDeviation="0.5"/>
<feComposite in2="hardAlpha" operator="arithmetic" k2="-1" k3="1"/>
<feColorMatrix type="matrix" values="0 0 0 0 0.754167 0 0 0 0 0.559717 0 0 0 0 0.0597048 0 0 0 1 0"/>
<feBlend mode="normal" in2="effect1_innerShadow_828_9748" result="effect2_innerShadow_828_9748"/>
</filter>
<filter id="filter12_dii_828_9748" x="16.7833" y="10.0736" width="49.0333" height="54.4529" filterUnits="userSpaceOnUse" color-interpolation-filters="sRGB">
<feFlood flood-opacity="0" result="BackgroundImageFix"/>
<feColorMatrix in="SourceAlpha" type="matrix" values="0 0 0 0 0 0 0 0 0 0 0 0 0 0 0 0 0 0 127 0" result="hardAlpha"/>
<feOffset dx="0.3" dy="0.3"/>
<feGaussianBlur stdDeviation="1"/>
<feComposite in2="hardAlpha" operator="out"/>
<feColorMatrix type="matrix" values="0 0 0 0 0.175 0 0 0 0 0.104381 0 0 0 0 0.00875001 0 0 0 1 0"/>
<feBlend mode="normal" in2="BackgroundImageFix" result="effect1_dropShadow_828_9748"/>
<feBlend mode="normal" in="SourceGraphic" in2="effect1_dropShadow_828_9748" result="shape"/>
<feColorMatrix in="SourceAlpha" type="matrix" values="0 0 0 0 0 0 0 0 0 0 0 0 0 0 0 0 0 0 127 0" result="hardAlpha"/>
<feOffset dx="0.8" dy="0.6"/>
<feComposite in2="hardAlpha" operator="arithmetic" k2="-1" k3="1"/>
<feColorMatrix type="matrix" values="0 0 0 0 0.972549 0 0 0 0 0.92549 0 0 0 0 0.729412 0 0 0 1 0"/>
<feBlend mode="normal" in2="shape" result="effect2_innerShadow_828_9748"/>
<feColorMatrix in="SourceAlpha" type="matrix" values="0 0 0 0 0 0 0 0 0 0 0 0 0 0 0 0 0 0 127 0" result="hardAlpha"/>
<feOffset dx="-0.6" dy="-0.6"/>
<feGaussianBlur stdDeviation="0.3"/>
<feComposite in2="hardAlpha" operator="arithmetic" k2="-1" k3="1"/>
<feColorMatrix type="matrix" values="0 0 0 0 0.7375 0 0 0 0 0.500271 0 0 0 0 0.144427 0 0 0 1 0"/>
<feBlend mode="normal" in2="effect2_innerShadow_828_9748" result="effect3_innerShadow_828_9748"/>
</filter>
<filter id="filter13_di_828_9748" x="25.4116" y="19.3094" width="32.3769" height="36.4811" filterUnits="userSpaceOnUse" color-interpolation-filters="sRGB">
<feFlood flood-opacity="0" result="BackgroundImageFix"/>
<feColorMatrix in="SourceAlpha" type="matrix" values="0 0 0 0 0 0 0 0 0 0 0 0 0 0 0 0 0 0 127 0" result="hardAlpha"/>
<feOffset dx="0.7" dy="0.6"/>
<feGaussianBlur stdDeviation="0.25"/>
<feComposite in2="hardAlpha" operator="out"/>
<feColorMatrix type="matrix" values="0 0 0 0 0.208333 0 0 0 0 0.124263 0 0 0 0 0.0104167 0 0 0 1 0"/>
<feBlend mode="normal" in2="BackgroundImageFix" result="effect1_dropShadow_828_9748"/>
<feBlend mode="normal" in="SourceGraphic" in2="effect1_dropShadow_828_9748" result="shape"/>
<feColorMatrix in="SourceAlpha" type="matrix" values="0 0 0 0 0 0 0 0 0 0 0 0 0 0 0 0 0 0 127 0" result="hardAlpha"/>
<feOffset dx="1" dy="0.6"/>
<feGaussianBlur stdDeviation="0.25"/>
<feComposite in2="hardAlpha" operator="arithmetic" k2="-1" k3="1"/>
<feColorMatrix type="matrix" values="0 0 0 0 1 0 0 0 0 1 0 0 0 0 1 0 0 0 1 0"/>
<feBlend mode="normal" in2="shape" result="effect2_innerShadow_828_9748"/>
</filter>
<filter id="filter14_di_828_9748" x="21.2141" y="17.5188" width="40.1716" height="39.8625" filterUnits="userSpaceOnUse" color-interpolation-filters="sRGB">
<feFlood flood-opacity="0" result="BackgroundImageFix"/>
<feColorMatrix in="SourceAlpha" type="matrix" values="0 0 0 0 0 0 0 0 0 0 0 0 0 0 0 0 0 0 127 0" result="hardAlpha"/>
<feOffset dx="0.3" dy="0.4"/>
<feGaussianBlur stdDeviation="0.25"/>
<feComposite in2="hardAlpha" operator="out"/>
<feColorMatrix type="matrix" values="0 0 0 0 1 0 0 0 0 0.929412 0 0 0 0 0.745098 0 0 0 1 0"/>
<feBlend mode="normal" in2="BackgroundImageFix" result="effect1_dropShadow_828_9748"/>
<feBlend mode="normal" in="SourceGraphic" in2="effect1_dropShadow_828_9748" result="shape"/>
<feColorMatrix in="SourceAlpha" type="matrix" values="0 0 0 0 0 0 0 0 0 0 0 0 0 0 0 0 0 0 127 0" result="hardAlpha"/>
<feOffset dx="0.6" dy="1"/>
<feGaussianBlur stdDeviation="0.5"/>
<feComposite in2="hardAlpha" operator="arithmetic" k2="-1" k3="1"/>
<feColorMatrix type="matrix" values="0 0 0 0 0.183333 0 0 0 0 0.109351 0 0 0 0 0.00916667 0 0 0 1 0"/>
<feBlend mode="normal" in2="shape" result="effect2_innerShadow_828_9748"/>
</filter>
<filter id="filter15_dd_828_9748" x="29.5" y="40" width="24.9883" height="16.2183" filterUnits="userSpaceOnUse" color-interpolation-filters="sRGB">
<feFlood flood-opacity="0" result="BackgroundImageFix"/>
<feColorMatrix in="SourceAlpha" type="matrix" values="0 0 0 0 0 0 0 0 0 0 0 0 0 0 0 0 0 0 127 0" result="hardAlpha"/>
<feOffset dx="1" dy="2"/>
<feGaussianBlur stdDeviation="2.5"/>
<feComposite in2="hardAlpha" operator="out"/>
<feColorMatrix type="matrix" values="0 0 0 0 0.505882 0 0 0 0 0.317647 0 0 0 0 0.0627451 0 0 0 0.5 0"/>
<feBlend mode="normal" in2="BackgroundImageFix" result="effect1_dropShadow_828_9748"/>
<feColorMatrix in="SourceAlpha" type="matrix" values="0 0 0 0 0 0 0 0 0 0 0 0 0 0 0 0 0 0 127 0" result="hardAlpha"/>
<feOffset dx="0.5" dy="1"/>
<feGaussianBlur stdDeviation="1"/>
<feComposite in2="hardAlpha" operator="out"/>
<feColorMatrix type="matrix" values="0 0 0 0 0.505882 0 0 0 0 0.317647 0 0 0 0 0.0627451 0 0 0 0.6 0"/>
<feBlend mode="normal" in2="effect1_dropShadow_828_9748" result="effect2_dropShadow_828_9748"/>
<feBlend mode="normal" in="SourceGraphic" in2="effect2_dropShadow_828_9748" result="shape"/>
</filter>
<filter id="filter16_dd_828_9748" x="31.76" y="20.3359" width="18.4863" height="23.7285" filterUnits="userSpaceOnUse" color-interpolation-filters="sRGB">
<feFlood flood-opacity="0" result="BackgroundImageFix"/>
<feColorMatrix in="SourceAlpha" type="matrix" values="0 0 0 0 0 0 0 0 0 0 0 0 0 0 0 0 0 0 127 0" result="hardAlpha"/>
<feOffset/>
<feGaussianBlur stdDeviation="2.5"/>
<feComposite in2="hardAlpha" operator="out"/>
<feColorMatrix type="matrix" values="0 0 0 0 0.505882 0 0 0 0 0.317647 0 0 0 0 0.0627451 0 0 0 0.5 0"/>
<feBlend mode="normal" in2="BackgroundImageFix" result="effect1_dropShadow_828_9748"/>
<feColorMatrix in="SourceAlpha" type="matrix" values="0 0 0 0 0 0 0 0 0 0 0 0 0 0 0 0 0 0 127 0" result="hardAlpha"/>
<feOffset dx="0.5" dy="1"/>
<feGaussianBlur stdDeviation="1"/>
<feComposite in2="hardAlpha" operator="out"/>
<feColorMatrix type="matrix" values="0 0 0 0 0.505882 0 0 0 0 0.317647 0 0 0 0 0.0627451 0 0 0 0.6 0"/>
<feBlend mode="normal" in2="effect1_dropShadow_828_9748" result="effect2_dropShadow_828_9748"/>
<feBlend mode="normal" in="SourceGraphic" in2="effect2_dropShadow_828_9748" result="shape"/>
</filter>
<linearGradient id="paint0_linear_828_9748" x1="5.03823e-08" y1="53.9999" x2="19" y2="53.9999" gradientUnits="userSpaceOnUse">
<stop stop-color="#CD5AEA"/>
<stop offset="1" stop-color="#6D17A0"/>
</linearGradient>
<linearGradient id="paint1_linear_828_9748" x1="14.1827" y1="20.3125" x2="6.60507" y2="31.4295" gradientUnits="userSpaceOnUse">
<stop stop-color="#DFB645"/>
<stop offset="0.161458" stop-color="#FFE8A8"/>
<stop offset="1" stop-color="#F2B354"/>
</linearGradient>
<linearGradient id="paint2_linear_828_9748" x1="82" y1="53.9999" x2="63" y2="53.9999" gradientUnits="userSpaceOnUse">
<stop stop-color="#CD5AEA"/>
<stop offset="1" stop-color="#6D17A0"/>
</linearGradient>
<linearGradient id="paint3_linear_828_9748" x1="67.8173" y1="20.3125" x2="75.3949" y2="31.4295" gradientUnits="userSpaceOnUse">
<stop stop-color="#DFB645"/>
<stop offset="0.161458" stop-color="#FFE8A8"/>
<stop offset="1" stop-color="#F2B354"/>
</linearGradient>
<linearGradient id="paint4_linear_828_9748" x1="29" y1="55.5" x2="54" y2="17.5" gradientUnits="userSpaceOnUse">
<stop stop-color="#E7CB7E"/>
<stop offset="0.0989583" stop-color="#D6A728"/>
<stop offset="0.34375" stop-color="#FFE8A8"/>
<stop offset="0.536458" stop-color="#FFF3D0"/>
<stop offset="0.697917" stop-color="#FCD466"/>
<stop offset="1" stop-color="#F2B354"/>
</linearGradient>
<linearGradient id="paint5_linear_828_9748" x1="28" y1="45.5" x2="39" y2="64.5" gradientUnits="userSpaceOnUse">
<stop offset="0.178892" stop-color="#D98E35"/>
<stop offset="1" stop-color="#D98E35" stop-opacity="0"/>
</linearGradient>
<linearGradient id="paint6_linear_828_9748" x1="30" y1="31" x2="16.5" y2="51" gradientUnits="userSpaceOnUse">
<stop stop-color="#E8BE4A"/>
<stop offset="0.617681" stop-color="#E8BE4A" stop-opacity="0"/>
</linearGradient>
<linearGradient id="paint7_linear_828_9748" x1="28" y1="15" x2="41" y2="37" gradientUnits="userSpaceOnUse">
<stop stop-color="#FFFCEE" stop-opacity="0"/>
<stop offset="0.380208" stop-color="#FFF7E2"/>
</linearGradient>
<linearGradient id="paint8_linear_828_9748" x1="41" y1="37" x2="56" y2="58" gradientUnits="userSpaceOnUse">
<stop offset="0.306791" stop-color="#D66E23"/>
<stop offset="1" stop-color="#D16E26" stop-opacity="0.2"/>
</linearGradient>
<linearGradient id="paint9_linear_828_9748" x1="45" y1="34.5" x2="67" y2="45" gradientUnits="userSpaceOnUse">
<stop offset="0.229114" stop-color="#F28D16"/>
<stop offset="1" stop-color="#B95D08" stop-opacity="0.7"/>
</linearGradient>
<linearGradient id="paint10_linear_828_9748" x1="41" y1="26" x2="60" y2="26" gradientUnits="userSpaceOnUse">
<stop stop-color="#E4AB19"/>
<stop offset="1" stop-color="#E4AB19" stop-opacity="0.44"/>
</linearGradient>
</defs>
</svg>
