<svg width="21" height="20" viewBox="0 0 21 20" fill="none" xmlns="http://www.w3.org/2000/svg">
    <path d="M18.3194 8.95842H11.375V2.01397C11.375 1.84036 11.2014 1.66675 11.0278 1.66675H9.63889C9.42188 1.66675 9.29167 1.84036 9.29167 2.01397V8.95842H2.34722C2.13021 8.95842 2 9.13203 2 9.30564V10.6945C2 10.9115 2.13021 11.0417 2.34722 11.0417H9.29167V17.9862C9.29167 18.2032 9.42188 18.3334 9.63889 18.3334H11.0278C11.2014 18.3334 11.375 18.2032 11.375 17.9862V11.0417H18.3194C18.4931 11.0417 18.6667 10.9115 18.6667 10.6945V9.30564C18.6667 9.13203 18.4931 8.95842 18.3194 8.95842Z"
          fill="white"/>
</svg>
