<svg width="72" height="72" viewBox="0 0 72 72" fill="none" xmlns="http://www.w3.org/2000/svg">
<g clip-path="url(#clip0_12_645)">
<path d="M71.937 42.7482C71.9686 42.5901 72.0002 42.4637 72.0002 42.3057C72.0002 42.1476 71.9686 41.9896 71.937 41.8315C71.9053 41.7367 71.937 41.6419 71.9053 41.5471C71.9053 41.5155 71.842 41.4839 71.842 41.4206C71.7788 41.2626 71.6839 41.1362 71.6206 41.0097C71.5257 40.8833 71.4624 40.7569 71.3675 40.6621C71.3359 40.6304 71.3043 40.5672 71.2726 40.5356C70.2603 39.6506 46.2182 18.5367 38.3412 14.4593C36.0319 13.3215 33.3113 12.9106 30.2428 13.3531C24.7067 14.1433 16.3869 16.9563 8.09865 20.8441C4.17597 22.5825 1.64522 26.5018 0.538013 32.5073C-1.51823 43.8228 2.40445 56.9716 9.45893 62.4713C11.6101 64.1465 13.8878 64.9999 16.1654 64.9999C17.241 64.9999 18.3166 64.8103 19.3605 64.3994C19.4238 64.3678 19.487 64.3362 19.5503 64.3046C19.5503 64.3046 19.5503 64.3046 19.582 64.3046L35.4308 58.7732C36.6329 58.3623 37.2656 57.0348 36.8544 55.8337C36.4431 54.6326 35.1461 54.0005 33.9124 54.4114L26.2568 57.098C27.016 55.3596 27.6487 53.4315 28.0283 51.2506C28.1233 50.7765 28.1865 50.176 28.2498 49.5438L48.6224 58.8364C48.654 58.8364 48.6856 58.8364 48.7173 58.868C48.8754 58.9313 49.0653 58.9629 49.2551 58.9945C49.3183 58.9945 49.35 59.0261 49.4132 59.0261C49.4449 59.0261 49.4765 59.0261 49.5081 59.0261C49.5398 59.0261 49.5398 59.0261 49.5714 59.0261C49.5714 59.0261 49.5714 59.0261 49.603 59.0261C49.8245 59.0261 50.0776 58.9945 50.3306 58.8997L69.8807 52.3253C71.0828 51.9144 71.7471 50.6185 71.3359 49.4174C70.9247 48.2163 69.6276 47.5841 68.4255 47.9634L52.1654 53.4315L52.3869 50.5236L70.4818 44.455C70.545 44.4234 70.5767 44.3918 70.6083 44.3918C70.7348 44.3285 70.8614 44.2653 70.9879 44.1705C71.1145 44.0757 71.241 44.0125 71.3675 43.886C71.3992 43.8544 71.4308 43.8228 71.4941 43.7912C71.5573 43.728 71.589 43.6332 71.6522 43.5384C71.7471 43.4119 71.8104 43.2855 71.8737 43.1275C71.8737 43.0326 71.9053 42.9062 71.937 42.7482ZM27.2059 44.0125C26.5099 43.6964 25.719 43.7596 25.0547 44.1389C24.3904 44.5182 23.9791 45.2136 23.9475 45.9721C23.8842 46.8255 23.6944 49.2909 23.5046 50.4604C22.5872 55.486 20.4361 59.0893 17.7155 60.1324C16.0073 60.7645 14.2041 60.3536 12.306 58.868C6.6751 54.4746 3.38511 42.8114 5.09337 33.3607C5.91587 28.904 7.49759 26.1858 10.0283 25.0795C18.0002 21.3498 25.7823 18.6948 30.9071 17.9678C33.0266 17.6517 34.7665 17.873 36.19 18.6315C42.0108 21.6659 58.3974 35.6048 65.1672 41.4522L50.5837 46.3514C46.8825 43.6332 33.1215 33.6452 20.2146 26.6599C19.0758 25.9961 17.6839 26.407 17.0828 27.5449C16.4818 28.6512 16.893 30.0735 18.0002 30.674C30.5907 37.5013 44.0986 47.2681 47.7682 49.9863L47.5152 53.3051L27.2059 44.0125Z" fill="#071F44" fill-opacity="0.1"/>
<path d="M46.7243 28.6196C46.2814 27.4185 44.9528 26.818 43.7823 27.2605L36.9492 29.7575C35.7471 30.2 35.1461 31.5275 35.589 32.697C35.9369 33.6136 36.8227 34.2142 37.7401 34.2142C37.9932 34.2142 38.2779 34.1826 38.531 34.0877L45.364 31.5907C46.5661 31.1166 47.1672 29.7891 46.7243 28.6196ZM11.9264 7C7.59248 7 4.08105 10.5401 4.08105 14.8703C4.08105 17.4937 5.37807 19.8011 7.37104 21.255C7.62411 21.1286 7.84555 20.9706 8.09863 20.8757C12.0846 19.0109 16.0389 17.3989 19.7085 16.1346C19.7717 15.7237 19.835 15.3128 19.835 14.8703C19.8034 10.5401 16.292 7 11.9264 7ZM11.9264 18.1259C10.1232 18.1259 8.66805 16.6719 8.66805 14.8703C8.66805 13.0687 10.1232 11.6147 11.9264 11.6147C13.7296 11.6147 15.1847 13.0687 15.1847 14.8703C15.2164 16.6403 13.7296 18.1259 11.9264 18.1259Z" fill="#071F44" fill-opacity="0.2"/>
</g>
<defs>
<clipPath id="clip0_12_645">
<rect width="72" height="72" fill="white"/>
</clipPath>
</defs>
</svg>
