<svg width="20" height="20" viewBox="0 0 20 20" fill="none" xmlns="http://www.w3.org/2000/svg">
<path fill-rule="evenodd" clip-rule="evenodd" d="M11.4537 1.93262C10.8907 0.713698 9.15317 0.666545 8.54877 1.92747L6.64818 5.98399L2.36521 6.62222L2.35837 6.62328C0.990471 6.8428 0.579482 8.5234 1.47691 9.45952L4.55599 12.6102L3.8228 17.0461L3.82114 17.0567C3.63097 18.3461 4.97647 19.4685 6.20223 18.8014L6.2044 18.8002L10.0145 16.7068L13.7938 18.7992L13.7978 18.8014C15.0235 19.4685 16.369 18.3461 16.1789 17.0567L15.444 12.6102L18.519 9.46379L18.5231 9.45952C19.4205 8.5234 19.0095 6.8428 17.6416 6.62328L13.381 5.984L11.4537 1.93262ZM9.66428 2.45892L7.48629 7.10759L2.55173 7.84292C2.41029 7.86661 2.29992 7.96591 2.25273 8.12455C2.20504 8.28482 2.23708 8.46611 2.36769 8.60359L5.87723 12.1947L5.04314 17.241C5.01794 17.4225 5.09585 17.58 5.22324 17.6756C5.35051 17.7712 5.4906 17.7822 5.61037 17.7173L10.0168 15.2963L14.3889 17.7169L14.3903 17.7177C14.51 17.7821 14.6497 17.771 14.7768 17.6756C14.9042 17.58 14.9821 17.4225 14.9569 17.241L14.1228 12.1947L17.6323 8.60359C17.7629 8.46611 17.795 8.28482 17.7473 8.12455C17.7 7.96582 17.5896 7.8665 17.448 7.84288L12.5472 7.10758L10.3321 2.45136C10.2032 2.17009 9.81267 2.15289 9.66428 2.45892Z" fill="#071F44" fill-opacity="0.2"/>
</svg>
