<svg width="20" height="21" viewBox="0 0 20 21" fill="none" xmlns="http://www.w3.org/2000/svg">
<path d="M12.2916 1.3335C8.49601 1.3335 5.41658 2.6154 5.41658 4.19808V6.08154C2.74894 6.47542 0.833252 7.53532 0.833252 8.78141V16.8022C0.833252 18.3849 3.91268 19.6668 7.70825 19.6668C11.5038 19.6668 14.5833 18.3849 14.5833 16.8022V14.9152C17.2509 14.5213 19.1666 13.465 19.1666 12.2189V4.19808C19.1666 2.6154 16.0872 1.3335 12.2916 1.3335ZM12.8645 16.6698C12.5064 17.0887 10.7017 17.9481 7.70825 17.9481C4.71476 17.9481 2.91007 17.0887 2.552 16.6698V15.2554C3.81242 15.8498 5.65291 16.2293 7.70825 16.2293C9.76359 16.2293 11.6041 15.8498 12.8645 15.2554V16.6698ZM12.8645 13.2323C12.5064 13.6512 10.7017 14.5106 7.70825 14.5106C4.71476 14.5106 2.91007 13.6512 2.552 13.2323V11.6245C3.81242 12.3407 5.65291 12.7918 7.70825 12.7918C9.76359 12.7918 11.6041 12.3371 12.8645 11.6245V13.2323ZM7.70825 11.0731C4.86157 11.0731 2.552 10.3032 2.552 9.35433C2.552 8.40544 4.86157 7.63558 7.70825 7.63558C10.5549 7.63558 12.8645 8.40544 12.8645 9.35433C12.8645 10.3032 10.5549 11.0731 7.70825 11.0731ZM17.4478 12.0864C17.1936 12.3836 16.1982 12.8957 14.5833 13.175V11.467C15.6933 11.3022 16.6851 11.0337 17.4478 10.672V12.0864ZM17.4478 8.64893C17.1936 8.94613 16.1982 9.45817 14.5833 9.73747V8.78141C14.5833 8.5236 14.4937 8.27295 14.3398 8.03304C15.55 7.84326 16.6314 7.50309 17.4478 7.0376V8.64893ZM12.2916 6.48975C12.1125 6.48975 11.9407 6.479 11.7652 6.47184C10.8342 6.18896 9.73136 5.99919 8.52824 5.93831C7.67244 5.63037 7.13533 5.22217 7.13533 4.771C7.13533 3.8221 9.44491 3.05225 12.2916 3.05225C15.1383 3.05225 17.4478 3.8221 17.4478 4.771C17.4478 5.71989 15.1383 6.48975 12.2916 6.48975Z" fill="#F0453A" fill-opacity="0.6"/>
</svg>
